M48
; DRILL file {KiCad 7.0.8} date 2024 February 03, Saturday 20:12:19
; FORMAT={-:-/ absolute / metric / decimal}
; #@! TF.CreationDate,2024-02-03T20:12:19-05:00
; #@! TF.GenerationSoftware,Kicad,Pcbnew,7.0.8
; #@! TF.FileFunction,Plated,1,2,PTH
FMAT,2
METRIC
; #@! TA.AperFunction,Plated,PTH,ViaDrill
T1C0.400
; #@! TA.AperFunction,Plated,PTH,ComponentDrill
T2C1.000
; #@! TA.AperFunction,Plated,PTH,ComponentDrill
T3C1.300
; #@! TA.AperFunction,Plated,PTH,ComponentDrill
T4C1.320
; #@! TA.AperFunction,Plated,PTH,ComponentDrill
T5C1.600
; #@! TA.AperFunction,Plated,PTH,ComponentDrill
T6C2.000
; #@! TA.AperFunction,Plated,PTH,ComponentDrill
T7C3.200
%
G90
G05
T1
X26.75Y11.55
X26.75Y6.47
X26.75Y3.93
X26.75Y1.39
X26.75Y-1.15
X26.75Y-3.69
X26.75Y-6.23
X26.75Y-8.77
X26.75Y-11.31
X26.75Y-13.85
X26.75Y-16.39
X26.75Y-18.93
X26.75Y-21.47
X26.75Y-24.01
X26.75Y-26.55
X26.75Y-29.09
X26.75Y-31.63
X26.75Y-34.17
X26.75Y-36.71
X26.75Y-39.25
X26.75Y-41.79
X26.75Y-44.33
X26.75Y-46.87
X26.75Y-49.41
X26.75Y-51.95
X26.75Y-54.49
X26.75Y-57.03
X26.75Y-59.57
X26.75Y-62.11
X26.75Y-64.65
X26.75Y-67.19
X26.75Y-69.73
X26.75Y-72.27
X26.75Y-74.81
X26.75Y-77.35
X26.75Y-79.89
X26.75Y-82.43
X26.75Y-84.97
X26.75Y-87.51
X26.75Y-90.05
X26.75Y-92.59
X26.75Y-95.13
X26.75Y-97.67
X26.75Y-103.325
X29.5Y-88.7
X30.15Y-32.225
X30.925Y-93.75
X31.35Y-0.4
X31.675Y-42.95
X31.8Y-9.075
X31.83Y11.55
X31.83Y-103.325
X32.375Y-18.7
X33.175Y-48.275
X34.37Y11.55
X34.37Y-103.325
X34.725Y-51.525
X36.91Y11.55
X36.91Y-103.325
X38.0Y-99.65
X39.45Y11.55
X39.45Y-53.6
X39.45Y-103.325
X41.475Y-43.425
X41.99Y11.55
X41.99Y-103.325
X42.95Y-100.4
X43.375Y6.975
X44.53Y11.55
X44.53Y-103.325
X45.15Y-79.025
X45.45Y4.1
X46.1Y-70.775
X47.07Y11.55
X47.07Y-103.325
X49.45Y-43.925
X49.61Y11.55
X49.61Y-103.325
X49.875Y-71.575
X50.025Y-50.775
X50.175Y-29.1
X50.825Y-62.1
X51.45Y-88.175
X51.975Y-38.425
X52.15Y11.55
X52.15Y-103.325
X52.625Y-64.975
X52.895Y-76.915
X53.175Y-17.325
X53.325Y4.05
X54.69Y11.55
X54.69Y-103.325
X54.926Y-45.475
X55.045Y-49.775
X55.769Y-51.783
X56.3Y-93.9
X56.494Y-52.775
X56.932Y-54.325
X57.23Y11.55
X57.23Y-103.325
X58.125Y8.05
X58.175Y-46.15
X58.175Y-47.15
X58.175Y-54.325
X58.625Y-25.55
X59.075Y-10.325
X59.77Y11.55
X59.77Y-103.325
X59.8Y-6.5
X60.146Y-69.888
X60.35Y-1.475
X60.575Y-92.875
X60.974Y-8.975
X61.098Y-62.712
X61.126Y-77.203
X61.424Y-4.025
X62.024Y-11.65
X62.024Y-14.025
X62.024Y-23.25
X62.024Y-53.25
X62.025Y-28.25
X62.178Y-65.379
X62.31Y11.55
X62.31Y-103.325
X64.5Y2.1
X64.85Y11.55
X64.85Y-103.325
X65.975Y-88.0
X67.39Y11.55
X67.39Y-103.325
X67.575Y-30.775
X67.625Y-43.975
X67.85Y-4.925
X68.225Y5.75
X68.375Y-38.125
X69.93Y11.55
X69.93Y-103.325
X70.5Y-80.55
X70.825Y-65.3
X72.425Y-17.95
X72.45Y-69.35
X72.47Y11.55
X72.47Y-103.325
X73.325Y-0.45
X73.425Y-86.35
X73.975Y-71.4
X74.775Y-34.875
X75.01Y11.55
X75.01Y-103.325
X75.025Y-62.275
X75.575Y-6.05
X76.25Y-81.875
X76.425Y-87.95
X77.475Y-43.875
X77.55Y11.55
X77.55Y-103.325
X77.95Y-7.1
X79.075Y-33.125
X79.35Y-19.075
X79.95Y-73.75
X80.09Y11.55
X80.09Y-103.325
X80.125Y-50.25
X80.8Y-84.65
X81.525Y-77.65
X82.425Y6.35
X82.63Y11.55
X82.63Y-103.325
X82.799Y-86.375
X83.8Y-83.85
X85.17Y11.55
X85.17Y-103.325
X85.175Y-52.975
X85.55Y-100.975
X86.05Y-47.4
X86.1Y-42.0
X86.175Y-53.85
X86.35Y-54.9
X86.375Y-76.975
X86.4Y-70.375
X86.55Y-46.425
X86.595Y-4.178
X86.675Y-56.85
X87.15Y-75.825
X87.2Y-94.275
X87.71Y11.55
X87.71Y-103.325
X88.499Y-65.05
X88.525Y-73.775
X88.937Y-13.705
X88.937Y-23.705
X89.01Y-34.639
X89.65Y-59.825
X90.25Y11.55
X90.25Y-103.325
X91.1Y3.325
X91.35Y-71.9
X91.825Y-81.35
X91.9Y-72.875
X91.95Y-73.901
X92.075Y-84.05
X92.1Y-65.025
X92.125Y-45.575
X92.2Y-49.09
X92.275Y-52.664
X92.75Y0.3
X92.79Y11.55
X92.79Y-103.325
X92.85Y-77.15
X93.225Y6.5
X93.3Y-58.7
X93.475Y-88.25
X93.5Y-76.125
X94.126Y-25.631
X94.126Y-28.742
X94.15Y-41.725
X94.65Y-86.95
X94.875Y-81.375
X95.33Y11.55
X95.33Y-103.325
X95.333Y-33.124
X95.525Y-88.325
X95.6Y-69.525
X95.6Y-72.888
X95.8Y-66.8
X95.825Y-80.675
X95.975Y-52.6
X96.137Y-49.849
X96.2Y8.625
X96.325Y-71.224
X96.476Y-23.281
X96.525Y-87.125
X96.6Y-60.425
X96.6Y-81.575
X96.825Y-100.25
X96.85Y-56.6
X97.25Y-88.575
X97.65Y-80.775
X97.809Y-30.52
X97.87Y11.55
X97.87Y-103.325
X98.125Y-87.275
X98.937Y-13.705
X99.175Y-42.425
X99.374Y-74.2
X100.41Y11.55
X100.41Y-103.325
X100.8Y-84.9
X100.875Y-40.15
X101.325Y-52.45
X101.796Y-60.6
X102.769Y-51.341
X102.95Y11.55
X102.95Y-103.325
X103.066Y-66.251
X103.675Y-78.6
X104.075Y-39.8
X104.59Y-70.633
X104.75Y-57.85
X105.49Y11.55
X105.49Y-103.325
X106.7Y-25.567
X106.7Y-28.869
X107.13Y-67.331
X107.325Y-4.6
X107.575Y-7.475
X107.675Y-10.725
X107.925Y-75.125
X108.03Y11.55
X108.03Y-103.325
X108.096Y-33.314
X108.3Y-39.775
X108.937Y-13.705
X108.937Y-23.705
X109.825Y-75.825
X109.875Y-100.6
X110.3Y-81.775
X110.382Y-29.949
X110.57Y11.55
X110.57Y-103.325
X110.675Y-38.525
X111.95Y-72.5
X112.525Y-15.275
X112.575Y-27.0
X112.6Y-9.175
X112.625Y-19.85
X112.7Y-12.15
X112.769Y-51.341
X112.875Y-35.05
X112.9Y-23.575
X112.925Y-31.5
X113.11Y11.55
X113.11Y-103.325
X113.989Y-60.854
X115.385Y-66.251
X115.65Y11.55
X115.65Y-103.325
X116.846Y-70.887
X118.19Y11.55
X118.19Y-103.325
X119.005Y-68.093
X119.6Y-100.3
X120.73Y11.55
X120.73Y-103.325
X121.45Y-5.075
X121.475Y-9.65
X121.575Y-13.65
X121.575Y-20.05
X121.625Y-26.8
X121.625Y-31.8
X121.7Y-16.375
X121.7Y-23.525
X121.85Y-35.45
X121.9Y-81.775
X121.925Y-55.525
X123.1Y-57.1
X123.27Y11.55
X123.27Y-103.325
X123.5Y-38.175
X123.65Y-75.45
X125.81Y11.55
X125.81Y-103.325
X125.825Y-38.75
X126.839Y-29.02
X126.902Y-25.591
X127.075Y-13.475
X127.825Y-32.35
X127.858Y-66.326
X127.944Y-7.1
X128.172Y-23.241
X128.35Y11.55
X128.35Y-103.325
X128.6Y-49.975
X128.7Y-100.825
X129.0Y-55.95
X129.05Y-70.0
X130.225Y-39.1
X130.458Y-30.036
X130.89Y11.55
X130.89Y-103.325
X130.925Y-76.05
X131.415Y-67.406
X132.725Y-77.9
X133.202Y-50.591
X133.43Y11.55
X133.43Y-103.325
X133.954Y-60.802
X134.125Y-38.975
X134.45Y-54.3
X135.825Y-100.775
X135.97Y11.55
X135.97Y-103.325
X137.075Y-13.475
X137.25Y-38.975
X138.396Y-23.495
X138.51Y11.55
X138.51Y-103.325
X139.475Y-25.654
X139.539Y-28.956
X139.7Y-57.225
X140.251Y-32.907
X140.4Y-66.375
X140.425Y-49.775
X141.05Y11.55
X141.05Y-103.325
X141.4Y3.05
X141.5Y-70.0
X141.6Y-39.275
X142.425Y-77.8
X142.95Y-86.425
X142.95Y-92.625
X143.202Y-50.591
X143.202Y-60.591
X143.476Y-30.29
X143.59Y11.55
X144.242Y-67.215
X144.45Y-81.2
X144.6Y-41.8
X144.925Y-0.675
X145.325Y-96.525
X147.075Y-13.475
X147.075Y-23.475
X147.075Y-33.475
X148.275Y11.55
X148.275Y6.47
X148.275Y3.93
X148.275Y1.39
X148.275Y-1.15
X148.275Y-3.69
X148.275Y-6.23
X148.275Y-8.77
X148.275Y-11.31
X148.275Y-13.85
X148.275Y-16.39
X148.275Y-18.93
X148.275Y-21.47
X148.275Y-24.01
X148.275Y-26.55
X148.275Y-29.09
X148.275Y-31.63
X148.275Y-34.17
X148.275Y-36.71
X148.275Y-39.25
X148.275Y-41.79
X148.275Y-44.33
X148.275Y-46.87
X148.275Y-49.41
X148.275Y-51.95
X148.275Y-54.49
X148.275Y-57.03
X148.275Y-59.57
X148.275Y-62.11
X148.275Y-64.65
X148.275Y-67.19
X148.275Y-69.73
X148.275Y-72.27
X148.275Y-74.81
X148.275Y-77.35
X148.275Y-79.89
X148.275Y-82.43
X148.275Y-84.97
X148.275Y-87.51
X148.275Y-90.05
X148.275Y-92.59
X148.275Y-95.13
X148.275Y-97.67
X148.275Y-102.75
T2
X36.525Y8.845
X36.525Y6.305
X36.525Y3.765
X36.525Y1.225
X36.525Y-1.315
X36.525Y-3.855
X36.525Y-6.395
X36.525Y-8.935
X36.525Y-11.475
X36.525Y-14.015
X36.525Y-18.075
X36.525Y-20.615
X36.525Y-23.155
X36.525Y-25.695
X36.525Y-28.235
X36.525Y-30.775
X36.525Y-33.315
X36.525Y-35.855
X53.386Y-62.97
X53.847Y-74.756
X57.288Y-62.966
X57.288Y-65.507
X57.784Y-74.946
X57.784Y-77.486
X62.001Y-74.792
X62.974Y-63.095
X65.888Y-74.79
X65.888Y-77.33
X66.877Y-63.03
X66.877Y-65.57
X75.065Y-72.8
X75.065Y-76.475
X75.065Y-80.15
X75.075Y-69.125
X77.605Y-72.8
X77.605Y-76.475
X77.605Y-80.15
X77.615Y-69.125
X83.55Y-75.7
X83.825Y-79.675
X84.785Y-0.295
X84.785Y-2.835
X84.785Y-5.375
X84.785Y-7.915
X84.785Y-10.455
X84.785Y-12.995
X84.785Y-15.535
X84.785Y-18.075
X84.785Y-23.155
X84.785Y-25.695
X84.785Y-28.235
X84.785Y-30.775
X84.785Y-33.315
X84.785Y-35.855
X89.8Y-63.7
X90.444Y-28.488
X90.444Y-31.028
X90.825Y-23.154
X93.5Y-63.7
X93.999Y-35.981
X98.424Y-23.154
X99.51Y-66.124
X99.51Y-68.664
X99.891Y-60.79
X102.76Y-80.87
X102.76Y-83.41
X103.016Y-28.361
X103.016Y-30.901
X103.194Y-73.236
X103.27Y-23.154
X105.959Y-35.889
X106.67Y-82.91
X107.492Y-60.79
X110.87Y-23.154
X111.956Y-66.124
X111.956Y-68.664
X112.21Y-60.79
X113.3Y-80.985
X113.3Y-83.525
X115.216Y-73.5
X117.2Y-83.01
X119.81Y-60.79
X123.283Y-28.385
X123.283Y-30.925
X123.791Y-22.924
X124.366Y-65.755
X124.366Y-68.295
X124.54Y-81.17
X124.54Y-83.71
X124.747Y-60.04
X126.697Y-36.134
X128.112Y-73.502
X128.35Y-83.011
X131.391Y-22.924
X132.347Y-60.04
X134.56Y-81.15
X134.56Y-83.69
X135.856Y-28.512
X135.856Y-31.052
X136.237Y-22.924
X136.812Y-65.755
X136.812Y-68.295
X137.193Y-60.04
X138.433Y-83.373
X139.248Y-35.684
X140.2Y-73.475
X143.837Y-22.924
X144.793Y-60.04
T3
X36.7Y-90.975
X41.7Y-90.975
X48.15Y-90.925
X53.15Y-90.925
X58.15Y-90.925
X63.15Y-90.925
X68.15Y-90.925
X73.15Y-90.925
X78.15Y-90.925
X83.15Y-90.925
X90.025Y-90.875
X95.025Y-90.875
X99.975Y2.125
X102.025Y-90.825
X104.975Y2.125
X107.025Y-90.825
X109.975Y2.125
X112.025Y-90.825
X114.975Y2.125
X117.025Y-90.825
X119.975Y2.125
X123.54Y-90.85
X124.975Y2.125
X128.54Y-90.85
X129.975Y2.125
X133.54Y-90.85
X134.975Y2.125
X138.54Y-90.85
T4
X43.475Y-59.96
X43.475Y-81.8
T5
X31.275Y-69.15
X31.275Y-79.07
X34.675Y-69.15
X34.675Y-79.07
T6
X91.325Y-7.914
X97.924Y-10.454
X100.391Y-45.55
X103.77Y-7.914
X106.992Y-48.09
X110.37Y-10.454
X112.71Y-45.55
X119.31Y-48.09
X124.291Y-7.684
X125.247Y-44.8
X130.891Y-10.224
X131.847Y-47.34
X136.737Y-7.684
X137.693Y-44.8
X143.337Y-10.224
X144.293Y-47.34
T7
X30.0Y8.3
X30.0Y-100.0
X145.0Y8.3
X145.0Y-100.0
T0
M30
