G04 #@! TF.GenerationSoftware,KiCad,Pcbnew,7.0.8*
G04 #@! TF.CreationDate,2024-02-03T20:12:02-05:00*
G04 #@! TF.ProjectId,Control Box,436f6e74-726f-46c2-9042-6f782e6b6963,rev?*
G04 #@! TF.SameCoordinates,Original*
G04 #@! TF.FileFunction,Soldermask,Bot*
G04 #@! TF.FilePolarity,Negative*
%FSLAX46Y46*%
G04 Gerber Fmt 4.6, Leading zero omitted, Abs format (unit mm)*
G04 Created by KiCad (PCBNEW 7.0.8) date 2024-02-03 20:12:02*
%MOMM*%
%LPD*%
G01*
G04 APERTURE LIST*
G04 APERTURE END LIST*
G36*
X30495071Y-97192313D02*
G01*
X30817676Y-97268772D01*
X31129223Y-97382166D01*
X31425500Y-97530962D01*
X31702499Y-97713147D01*
X31956475Y-97926258D01*
X32183993Y-98167413D01*
X32381976Y-98433350D01*
X32547747Y-98720474D01*
X32679064Y-99024901D01*
X32774151Y-99342514D01*
X32831723Y-99669019D01*
X32851000Y-100000000D01*
X32831723Y-100330981D01*
X32774151Y-100657486D01*
X32679064Y-100975099D01*
X32547747Y-101279526D01*
X32381976Y-101566650D01*
X32183993Y-101832587D01*
X31956475Y-102073742D01*
X31702499Y-102286853D01*
X31425500Y-102469038D01*
X31129223Y-102617834D01*
X30817676Y-102731228D01*
X30495071Y-102807687D01*
X30165771Y-102846177D01*
X29834229Y-102846177D01*
X29504929Y-102807687D01*
X29182324Y-102731228D01*
X28870777Y-102617834D01*
X28574500Y-102469038D01*
X28297501Y-102286853D01*
X28043525Y-102073742D01*
X27816007Y-101832587D01*
X27618024Y-101566650D01*
X27452253Y-101279526D01*
X27320936Y-100975099D01*
X27225849Y-100657486D01*
X27168277Y-100330981D01*
X27149000Y-100000000D01*
X27168277Y-99669019D01*
X27225849Y-99342514D01*
X27320936Y-99024901D01*
X27452253Y-98720474D01*
X27618024Y-98433350D01*
X27816007Y-98167413D01*
X28043525Y-97926258D01*
X28297501Y-97713147D01*
X28574500Y-97530962D01*
X28870777Y-97382166D01*
X29182324Y-97268772D01*
X29504929Y-97192313D01*
X29834229Y-97153823D01*
X30165771Y-97153823D01*
X30495071Y-97192313D01*
G37*
G36*
X145495071Y-97192313D02*
G01*
X145817676Y-97268772D01*
X146129223Y-97382166D01*
X146425500Y-97530962D01*
X146702499Y-97713147D01*
X146956475Y-97926258D01*
X147183993Y-98167413D01*
X147381976Y-98433350D01*
X147547747Y-98720474D01*
X147679064Y-99024901D01*
X147774151Y-99342514D01*
X147831723Y-99669019D01*
X147851000Y-100000000D01*
X147831723Y-100330981D01*
X147774151Y-100657486D01*
X147679064Y-100975099D01*
X147547747Y-101279526D01*
X147381976Y-101566650D01*
X147183993Y-101832587D01*
X146956475Y-102073742D01*
X146702499Y-102286853D01*
X146425500Y-102469038D01*
X146129223Y-102617834D01*
X145817676Y-102731228D01*
X145495071Y-102807687D01*
X145165771Y-102846177D01*
X144834229Y-102846177D01*
X144504929Y-102807687D01*
X144182324Y-102731228D01*
X143870777Y-102617834D01*
X143574500Y-102469038D01*
X143297501Y-102286853D01*
X143043525Y-102073742D01*
X142816007Y-101832587D01*
X142618024Y-101566650D01*
X142452253Y-101279526D01*
X142320936Y-100975099D01*
X142225849Y-100657486D01*
X142168277Y-100330981D01*
X142149000Y-100000000D01*
X142168277Y-99669019D01*
X142225849Y-99342514D01*
X142320936Y-99024901D01*
X142452253Y-98720474D01*
X142618024Y-98433350D01*
X142816007Y-98167413D01*
X143043525Y-97926258D01*
X143297501Y-97713147D01*
X143574500Y-97530962D01*
X143870777Y-97382166D01*
X144182324Y-97268772D01*
X144504929Y-97192313D01*
X144834229Y-97153823D01*
X145165771Y-97153823D01*
X145495071Y-97192313D01*
G37*
G36*
X38019517Y-89627882D02*
G01*
X38036062Y-89638938D01*
X38047118Y-89655483D01*
X38051000Y-89675000D01*
X38051000Y-92275000D01*
X38047118Y-92294517D01*
X38036062Y-92311062D01*
X38019517Y-92322118D01*
X38000000Y-92326000D01*
X35400000Y-92326000D01*
X35380483Y-92322118D01*
X35363938Y-92311062D01*
X35352882Y-92294517D01*
X35349000Y-92275000D01*
X35349000Y-89675000D01*
X35352882Y-89655483D01*
X35363938Y-89638938D01*
X35380483Y-89627882D01*
X35400000Y-89624000D01*
X38000000Y-89624000D01*
X38019517Y-89627882D01*
G37*
G36*
X42031651Y-89665340D02*
G01*
X42242691Y-89737790D01*
X42438927Y-89843988D01*
X42615007Y-89981037D01*
X42766129Y-90145199D01*
X42888169Y-90331995D01*
X42977799Y-90536331D01*
X43032574Y-90752633D01*
X43051000Y-90975000D01*
X43032574Y-91197367D01*
X42977799Y-91413669D01*
X42888169Y-91618005D01*
X42766129Y-91804801D01*
X42615007Y-91968963D01*
X42438927Y-92106012D01*
X42242691Y-92212210D01*
X42031651Y-92284660D01*
X41811565Y-92321386D01*
X41588435Y-92321386D01*
X41368349Y-92284660D01*
X41157309Y-92212210D01*
X40961073Y-92106012D01*
X40784993Y-91968963D01*
X40633871Y-91804801D01*
X40511831Y-91618005D01*
X40422201Y-91413669D01*
X40367426Y-91197367D01*
X40349000Y-90975000D01*
X40367426Y-90752633D01*
X40422201Y-90536331D01*
X40511831Y-90331995D01*
X40633871Y-90145199D01*
X40784993Y-89981037D01*
X40961073Y-89843988D01*
X41157309Y-89737790D01*
X41368349Y-89665340D01*
X41588435Y-89628614D01*
X41811565Y-89628614D01*
X42031651Y-89665340D01*
G37*
G36*
X49469517Y-89577882D02*
G01*
X49486062Y-89588938D01*
X49497118Y-89605483D01*
X49501000Y-89625000D01*
X49501000Y-92225000D01*
X49497118Y-92244517D01*
X49486062Y-92261062D01*
X49469517Y-92272118D01*
X49450000Y-92276000D01*
X46850000Y-92276000D01*
X46830483Y-92272118D01*
X46813938Y-92261062D01*
X46802882Y-92244517D01*
X46799000Y-92225000D01*
X46799000Y-89625000D01*
X46802882Y-89605483D01*
X46813938Y-89588938D01*
X46830483Y-89577882D01*
X46850000Y-89574000D01*
X49450000Y-89574000D01*
X49469517Y-89577882D01*
G37*
G36*
X53481651Y-89615340D02*
G01*
X53692691Y-89687790D01*
X53888927Y-89793988D01*
X54065007Y-89931037D01*
X54216129Y-90095199D01*
X54338169Y-90281995D01*
X54427799Y-90486331D01*
X54482574Y-90702633D01*
X54501000Y-90925000D01*
X54482574Y-91147367D01*
X54427799Y-91363669D01*
X54338169Y-91568005D01*
X54216129Y-91754801D01*
X54065007Y-91918963D01*
X53888927Y-92056012D01*
X53692691Y-92162210D01*
X53481651Y-92234660D01*
X53261565Y-92271386D01*
X53038435Y-92271386D01*
X52818349Y-92234660D01*
X52607309Y-92162210D01*
X52411073Y-92056012D01*
X52234993Y-91918963D01*
X52083871Y-91754801D01*
X51961831Y-91568005D01*
X51872201Y-91363669D01*
X51817426Y-91147367D01*
X51799000Y-90925000D01*
X51817426Y-90702633D01*
X51872201Y-90486331D01*
X51961831Y-90281995D01*
X52083871Y-90095199D01*
X52234993Y-89931037D01*
X52411073Y-89793988D01*
X52607309Y-89687790D01*
X52818349Y-89615340D01*
X53038435Y-89578614D01*
X53261565Y-89578614D01*
X53481651Y-89615340D01*
G37*
G36*
X58481651Y-89615340D02*
G01*
X58692691Y-89687790D01*
X58888927Y-89793988D01*
X59065007Y-89931037D01*
X59216129Y-90095199D01*
X59338169Y-90281995D01*
X59427799Y-90486331D01*
X59482574Y-90702633D01*
X59501000Y-90925000D01*
X59482574Y-91147367D01*
X59427799Y-91363669D01*
X59338169Y-91568005D01*
X59216129Y-91754801D01*
X59065007Y-91918963D01*
X58888927Y-92056012D01*
X58692691Y-92162210D01*
X58481651Y-92234660D01*
X58261565Y-92271386D01*
X58038435Y-92271386D01*
X57818349Y-92234660D01*
X57607309Y-92162210D01*
X57411073Y-92056012D01*
X57234993Y-91918963D01*
X57083871Y-91754801D01*
X56961831Y-91568005D01*
X56872201Y-91363669D01*
X56817426Y-91147367D01*
X56799000Y-90925000D01*
X56817426Y-90702633D01*
X56872201Y-90486331D01*
X56961831Y-90281995D01*
X57083871Y-90095199D01*
X57234993Y-89931037D01*
X57411073Y-89793988D01*
X57607309Y-89687790D01*
X57818349Y-89615340D01*
X58038435Y-89578614D01*
X58261565Y-89578614D01*
X58481651Y-89615340D01*
G37*
G36*
X63481651Y-89615340D02*
G01*
X63692691Y-89687790D01*
X63888927Y-89793988D01*
X64065007Y-89931037D01*
X64216129Y-90095199D01*
X64338169Y-90281995D01*
X64427799Y-90486331D01*
X64482574Y-90702633D01*
X64501000Y-90925000D01*
X64482574Y-91147367D01*
X64427799Y-91363669D01*
X64338169Y-91568005D01*
X64216129Y-91754801D01*
X64065007Y-91918963D01*
X63888927Y-92056012D01*
X63692691Y-92162210D01*
X63481651Y-92234660D01*
X63261565Y-92271386D01*
X63038435Y-92271386D01*
X62818349Y-92234660D01*
X62607309Y-92162210D01*
X62411073Y-92056012D01*
X62234993Y-91918963D01*
X62083871Y-91754801D01*
X61961831Y-91568005D01*
X61872201Y-91363669D01*
X61817426Y-91147367D01*
X61799000Y-90925000D01*
X61817426Y-90702633D01*
X61872201Y-90486331D01*
X61961831Y-90281995D01*
X62083871Y-90095199D01*
X62234993Y-89931037D01*
X62411073Y-89793988D01*
X62607309Y-89687790D01*
X62818349Y-89615340D01*
X63038435Y-89578614D01*
X63261565Y-89578614D01*
X63481651Y-89615340D01*
G37*
G36*
X68481651Y-89615340D02*
G01*
X68692691Y-89687790D01*
X68888927Y-89793988D01*
X69065007Y-89931037D01*
X69216129Y-90095199D01*
X69338169Y-90281995D01*
X69427799Y-90486331D01*
X69482574Y-90702633D01*
X69501000Y-90925000D01*
X69482574Y-91147367D01*
X69427799Y-91363669D01*
X69338169Y-91568005D01*
X69216129Y-91754801D01*
X69065007Y-91918963D01*
X68888927Y-92056012D01*
X68692691Y-92162210D01*
X68481651Y-92234660D01*
X68261565Y-92271386D01*
X68038435Y-92271386D01*
X67818349Y-92234660D01*
X67607309Y-92162210D01*
X67411073Y-92056012D01*
X67234993Y-91918963D01*
X67083871Y-91754801D01*
X66961831Y-91568005D01*
X66872201Y-91363669D01*
X66817426Y-91147367D01*
X66799000Y-90925000D01*
X66817426Y-90702633D01*
X66872201Y-90486331D01*
X66961831Y-90281995D01*
X67083871Y-90095199D01*
X67234993Y-89931037D01*
X67411073Y-89793988D01*
X67607309Y-89687790D01*
X67818349Y-89615340D01*
X68038435Y-89578614D01*
X68261565Y-89578614D01*
X68481651Y-89615340D01*
G37*
G36*
X73481651Y-89615340D02*
G01*
X73692691Y-89687790D01*
X73888927Y-89793988D01*
X74065007Y-89931037D01*
X74216129Y-90095199D01*
X74338169Y-90281995D01*
X74427799Y-90486331D01*
X74482574Y-90702633D01*
X74501000Y-90925000D01*
X74482574Y-91147367D01*
X74427799Y-91363669D01*
X74338169Y-91568005D01*
X74216129Y-91754801D01*
X74065007Y-91918963D01*
X73888927Y-92056012D01*
X73692691Y-92162210D01*
X73481651Y-92234660D01*
X73261565Y-92271386D01*
X73038435Y-92271386D01*
X72818349Y-92234660D01*
X72607309Y-92162210D01*
X72411073Y-92056012D01*
X72234993Y-91918963D01*
X72083871Y-91754801D01*
X71961831Y-91568005D01*
X71872201Y-91363669D01*
X71817426Y-91147367D01*
X71799000Y-90925000D01*
X71817426Y-90702633D01*
X71872201Y-90486331D01*
X71961831Y-90281995D01*
X72083871Y-90095199D01*
X72234993Y-89931037D01*
X72411073Y-89793988D01*
X72607309Y-89687790D01*
X72818349Y-89615340D01*
X73038435Y-89578614D01*
X73261565Y-89578614D01*
X73481651Y-89615340D01*
G37*
G36*
X78481651Y-89615340D02*
G01*
X78692691Y-89687790D01*
X78888927Y-89793988D01*
X79065007Y-89931037D01*
X79216129Y-90095199D01*
X79338169Y-90281995D01*
X79427799Y-90486331D01*
X79482574Y-90702633D01*
X79501000Y-90925000D01*
X79482574Y-91147367D01*
X79427799Y-91363669D01*
X79338169Y-91568005D01*
X79216129Y-91754801D01*
X79065007Y-91918963D01*
X78888927Y-92056012D01*
X78692691Y-92162210D01*
X78481651Y-92234660D01*
X78261565Y-92271386D01*
X78038435Y-92271386D01*
X77818349Y-92234660D01*
X77607309Y-92162210D01*
X77411073Y-92056012D01*
X77234993Y-91918963D01*
X77083871Y-91754801D01*
X76961831Y-91568005D01*
X76872201Y-91363669D01*
X76817426Y-91147367D01*
X76799000Y-90925000D01*
X76817426Y-90702633D01*
X76872201Y-90486331D01*
X76961831Y-90281995D01*
X77083871Y-90095199D01*
X77234993Y-89931037D01*
X77411073Y-89793988D01*
X77607309Y-89687790D01*
X77818349Y-89615340D01*
X78038435Y-89578614D01*
X78261565Y-89578614D01*
X78481651Y-89615340D01*
G37*
G36*
X83481651Y-89615340D02*
G01*
X83692691Y-89687790D01*
X83888927Y-89793988D01*
X84065007Y-89931037D01*
X84216129Y-90095199D01*
X84338169Y-90281995D01*
X84427799Y-90486331D01*
X84482574Y-90702633D01*
X84501000Y-90925000D01*
X84482574Y-91147367D01*
X84427799Y-91363669D01*
X84338169Y-91568005D01*
X84216129Y-91754801D01*
X84065007Y-91918963D01*
X83888927Y-92056012D01*
X83692691Y-92162210D01*
X83481651Y-92234660D01*
X83261565Y-92271386D01*
X83038435Y-92271386D01*
X82818349Y-92234660D01*
X82607309Y-92162210D01*
X82411073Y-92056012D01*
X82234993Y-91918963D01*
X82083871Y-91754801D01*
X81961831Y-91568005D01*
X81872201Y-91363669D01*
X81817426Y-91147367D01*
X81799000Y-90925000D01*
X81817426Y-90702633D01*
X81872201Y-90486331D01*
X81961831Y-90281995D01*
X82083871Y-90095199D01*
X82234993Y-89931037D01*
X82411073Y-89793988D01*
X82607309Y-89687790D01*
X82818349Y-89615340D01*
X83038435Y-89578614D01*
X83261565Y-89578614D01*
X83481651Y-89615340D01*
G37*
G36*
X91344517Y-89527882D02*
G01*
X91361062Y-89538938D01*
X91372118Y-89555483D01*
X91376000Y-89575000D01*
X91376000Y-92175000D01*
X91372118Y-92194517D01*
X91361062Y-92211062D01*
X91344517Y-92222118D01*
X91325000Y-92226000D01*
X88725000Y-92226000D01*
X88705483Y-92222118D01*
X88688938Y-92211062D01*
X88677882Y-92194517D01*
X88674000Y-92175000D01*
X88674000Y-89575000D01*
X88677882Y-89555483D01*
X88688938Y-89538938D01*
X88705483Y-89527882D01*
X88725000Y-89524000D01*
X91325000Y-89524000D01*
X91344517Y-89527882D01*
G37*
G36*
X95356651Y-89565340D02*
G01*
X95567691Y-89637790D01*
X95763927Y-89743988D01*
X95940007Y-89881037D01*
X96091129Y-90045199D01*
X96213169Y-90231995D01*
X96302799Y-90436331D01*
X96357574Y-90652633D01*
X96376000Y-90875000D01*
X96357574Y-91097367D01*
X96302799Y-91313669D01*
X96213169Y-91518005D01*
X96091129Y-91704801D01*
X95940007Y-91868963D01*
X95763927Y-92006012D01*
X95567691Y-92112210D01*
X95356651Y-92184660D01*
X95136565Y-92221386D01*
X94913435Y-92221386D01*
X94693349Y-92184660D01*
X94482309Y-92112210D01*
X94286073Y-92006012D01*
X94109993Y-91868963D01*
X93958871Y-91704801D01*
X93836831Y-91518005D01*
X93747201Y-91313669D01*
X93692426Y-91097367D01*
X93674000Y-90875000D01*
X93692426Y-90652633D01*
X93747201Y-90436331D01*
X93836831Y-90231995D01*
X93958871Y-90045199D01*
X94109993Y-89881037D01*
X94286073Y-89743988D01*
X94482309Y-89637790D01*
X94693349Y-89565340D01*
X94913435Y-89528614D01*
X95136565Y-89528614D01*
X95356651Y-89565340D01*
G37*
G36*
X124859517Y-89502882D02*
G01*
X124876062Y-89513938D01*
X124887118Y-89530483D01*
X124891000Y-89550000D01*
X124891000Y-92150000D01*
X124887118Y-92169517D01*
X124876062Y-92186062D01*
X124859517Y-92197118D01*
X124840000Y-92201000D01*
X122240000Y-92201000D01*
X122220483Y-92197118D01*
X122203938Y-92186062D01*
X122192882Y-92169517D01*
X122189000Y-92150000D01*
X122189000Y-89550000D01*
X122192882Y-89530483D01*
X122203938Y-89513938D01*
X122220483Y-89502882D01*
X122240000Y-89499000D01*
X124840000Y-89499000D01*
X124859517Y-89502882D01*
G37*
G36*
X128871651Y-89540340D02*
G01*
X129082691Y-89612790D01*
X129278927Y-89718988D01*
X129455007Y-89856037D01*
X129606129Y-90020199D01*
X129728169Y-90206995D01*
X129817799Y-90411331D01*
X129872574Y-90627633D01*
X129891000Y-90850000D01*
X129872574Y-91072367D01*
X129817799Y-91288669D01*
X129728169Y-91493005D01*
X129606129Y-91679801D01*
X129455007Y-91843963D01*
X129278927Y-91981012D01*
X129082691Y-92087210D01*
X128871651Y-92159660D01*
X128651565Y-92196386D01*
X128428435Y-92196386D01*
X128208349Y-92159660D01*
X127997309Y-92087210D01*
X127801073Y-91981012D01*
X127624993Y-91843963D01*
X127473871Y-91679801D01*
X127351831Y-91493005D01*
X127262201Y-91288669D01*
X127207426Y-91072367D01*
X127189000Y-90850000D01*
X127207426Y-90627633D01*
X127262201Y-90411331D01*
X127351831Y-90206995D01*
X127473871Y-90020199D01*
X127624993Y-89856037D01*
X127801073Y-89718988D01*
X127997309Y-89612790D01*
X128208349Y-89540340D01*
X128428435Y-89503614D01*
X128651565Y-89503614D01*
X128871651Y-89540340D01*
G37*
G36*
X133871651Y-89540340D02*
G01*
X134082691Y-89612790D01*
X134278927Y-89718988D01*
X134455007Y-89856037D01*
X134606129Y-90020199D01*
X134728169Y-90206995D01*
X134817799Y-90411331D01*
X134872574Y-90627633D01*
X134891000Y-90850000D01*
X134872574Y-91072367D01*
X134817799Y-91288669D01*
X134728169Y-91493005D01*
X134606129Y-91679801D01*
X134455007Y-91843963D01*
X134278927Y-91981012D01*
X134082691Y-92087210D01*
X133871651Y-92159660D01*
X133651565Y-92196386D01*
X133428435Y-92196386D01*
X133208349Y-92159660D01*
X132997309Y-92087210D01*
X132801073Y-91981012D01*
X132624993Y-91843963D01*
X132473871Y-91679801D01*
X132351831Y-91493005D01*
X132262201Y-91288669D01*
X132207426Y-91072367D01*
X132189000Y-90850000D01*
X132207426Y-90627633D01*
X132262201Y-90411331D01*
X132351831Y-90206995D01*
X132473871Y-90020199D01*
X132624993Y-89856037D01*
X132801073Y-89718988D01*
X132997309Y-89612790D01*
X133208349Y-89540340D01*
X133428435Y-89503614D01*
X133651565Y-89503614D01*
X133871651Y-89540340D01*
G37*
G36*
X138871651Y-89540340D02*
G01*
X139082691Y-89612790D01*
X139278927Y-89718988D01*
X139455007Y-89856037D01*
X139606129Y-90020199D01*
X139728169Y-90206995D01*
X139817799Y-90411331D01*
X139872574Y-90627633D01*
X139891000Y-90850000D01*
X139872574Y-91072367D01*
X139817799Y-91288669D01*
X139728169Y-91493005D01*
X139606129Y-91679801D01*
X139455007Y-91843963D01*
X139278927Y-91981012D01*
X139082691Y-92087210D01*
X138871651Y-92159660D01*
X138651565Y-92196386D01*
X138428435Y-92196386D01*
X138208349Y-92159660D01*
X137997309Y-92087210D01*
X137801073Y-91981012D01*
X137624993Y-91843963D01*
X137473871Y-91679801D01*
X137351831Y-91493005D01*
X137262201Y-91288669D01*
X137207426Y-91072367D01*
X137189000Y-90850000D01*
X137207426Y-90627633D01*
X137262201Y-90411331D01*
X137351831Y-90206995D01*
X137473871Y-90020199D01*
X137624993Y-89856037D01*
X137801073Y-89718988D01*
X137997309Y-89612790D01*
X138208349Y-89540340D01*
X138428435Y-89503614D01*
X138651565Y-89503614D01*
X138871651Y-89540340D01*
G37*
G36*
X103344517Y-89477882D02*
G01*
X103361062Y-89488938D01*
X103372118Y-89505483D01*
X103376000Y-89525000D01*
X103376000Y-92125000D01*
X103372118Y-92144517D01*
X103361062Y-92161062D01*
X103344517Y-92172118D01*
X103325000Y-92176000D01*
X100725000Y-92176000D01*
X100705483Y-92172118D01*
X100688938Y-92161062D01*
X100677882Y-92144517D01*
X100674000Y-92125000D01*
X100674000Y-89525000D01*
X100677882Y-89505483D01*
X100688938Y-89488938D01*
X100705483Y-89477882D01*
X100725000Y-89474000D01*
X103325000Y-89474000D01*
X103344517Y-89477882D01*
G37*
G36*
X107356651Y-89515340D02*
G01*
X107567691Y-89587790D01*
X107763927Y-89693988D01*
X107940007Y-89831037D01*
X108091129Y-89995199D01*
X108213169Y-90181995D01*
X108302799Y-90386331D01*
X108357574Y-90602633D01*
X108376000Y-90825000D01*
X108357574Y-91047367D01*
X108302799Y-91263669D01*
X108213169Y-91468005D01*
X108091129Y-91654801D01*
X107940007Y-91818963D01*
X107763927Y-91956012D01*
X107567691Y-92062210D01*
X107356651Y-92134660D01*
X107136565Y-92171386D01*
X106913435Y-92171386D01*
X106693349Y-92134660D01*
X106482309Y-92062210D01*
X106286073Y-91956012D01*
X106109993Y-91818963D01*
X105958871Y-91654801D01*
X105836831Y-91468005D01*
X105747201Y-91263669D01*
X105692426Y-91047367D01*
X105674000Y-90825000D01*
X105692426Y-90602633D01*
X105747201Y-90386331D01*
X105836831Y-90181995D01*
X105958871Y-89995199D01*
X106109993Y-89831037D01*
X106286073Y-89693988D01*
X106482309Y-89587790D01*
X106693349Y-89515340D01*
X106913435Y-89478614D01*
X107136565Y-89478614D01*
X107356651Y-89515340D01*
G37*
G36*
X112356651Y-89515340D02*
G01*
X112567691Y-89587790D01*
X112763927Y-89693988D01*
X112940007Y-89831037D01*
X113091129Y-89995199D01*
X113213169Y-90181995D01*
X113302799Y-90386331D01*
X113357574Y-90602633D01*
X113376000Y-90825000D01*
X113357574Y-91047367D01*
X113302799Y-91263669D01*
X113213169Y-91468005D01*
X113091129Y-91654801D01*
X112940007Y-91818963D01*
X112763927Y-91956012D01*
X112567691Y-92062210D01*
X112356651Y-92134660D01*
X112136565Y-92171386D01*
X111913435Y-92171386D01*
X111693349Y-92134660D01*
X111482309Y-92062210D01*
X111286073Y-91956012D01*
X111109993Y-91818963D01*
X110958871Y-91654801D01*
X110836831Y-91468005D01*
X110747201Y-91263669D01*
X110692426Y-91047367D01*
X110674000Y-90825000D01*
X110692426Y-90602633D01*
X110747201Y-90386331D01*
X110836831Y-90181995D01*
X110958871Y-89995199D01*
X111109993Y-89831037D01*
X111286073Y-89693988D01*
X111482309Y-89587790D01*
X111693349Y-89515340D01*
X111913435Y-89478614D01*
X112136565Y-89478614D01*
X112356651Y-89515340D01*
G37*
G36*
X117356651Y-89515340D02*
G01*
X117567691Y-89587790D01*
X117763927Y-89693988D01*
X117940007Y-89831037D01*
X118091129Y-89995199D01*
X118213169Y-90181995D01*
X118302799Y-90386331D01*
X118357574Y-90602633D01*
X118376000Y-90825000D01*
X118357574Y-91047367D01*
X118302799Y-91263669D01*
X118213169Y-91468005D01*
X118091129Y-91654801D01*
X117940007Y-91818963D01*
X117763927Y-91956012D01*
X117567691Y-92062210D01*
X117356651Y-92134660D01*
X117136565Y-92171386D01*
X116913435Y-92171386D01*
X116693349Y-92134660D01*
X116482309Y-92062210D01*
X116286073Y-91956012D01*
X116109993Y-91818963D01*
X115958871Y-91654801D01*
X115836831Y-91468005D01*
X115747201Y-91263669D01*
X115692426Y-91047367D01*
X115674000Y-90825000D01*
X115692426Y-90602633D01*
X115747201Y-90386331D01*
X115836831Y-90181995D01*
X115958871Y-89995199D01*
X116109993Y-89831037D01*
X116286073Y-89693988D01*
X116482309Y-89587790D01*
X116693349Y-89515340D01*
X116913435Y-89478614D01*
X117136565Y-89478614D01*
X117356651Y-89515340D01*
G37*
G36*
X124587668Y-82813936D02*
G01*
X124634180Y-82813936D01*
X124674343Y-82822472D01*
X124715728Y-82826549D01*
X124767724Y-82842321D01*
X124818424Y-82853098D01*
X124850863Y-82867540D01*
X124884707Y-82877807D01*
X124938486Y-82906553D01*
X124990500Y-82929711D01*
X125014686Y-82947283D01*
X125040432Y-82961045D01*
X125092953Y-83004148D01*
X125142887Y-83040427D01*
X125159097Y-83058431D01*
X125176932Y-83073067D01*
X125224853Y-83131459D01*
X125268924Y-83180405D01*
X125278183Y-83196443D01*
X125288954Y-83209567D01*
X125328807Y-83284126D01*
X125363104Y-83343530D01*
X125367048Y-83355668D01*
X125372192Y-83365292D01*
X125400542Y-83458754D01*
X125421311Y-83522672D01*
X125422042Y-83529630D01*
X125423450Y-83534271D01*
X125437153Y-83673399D01*
X125441000Y-83710000D01*
X125437152Y-83746604D01*
X125423450Y-83885728D01*
X125422042Y-83890367D01*
X125421311Y-83897328D01*
X125400538Y-83961259D01*
X125372192Y-84054707D01*
X125367048Y-84064328D01*
X125363104Y-84076470D01*
X125328800Y-84135885D01*
X125288954Y-84210432D01*
X125278185Y-84223553D01*
X125268924Y-84239595D01*
X125224844Y-84288550D01*
X125176932Y-84346932D01*
X125159101Y-84361565D01*
X125142887Y-84379573D01*
X125092943Y-84415859D01*
X125040432Y-84458954D01*
X125014691Y-84472712D01*
X124990500Y-84490289D01*
X124938475Y-84513451D01*
X124884707Y-84542192D01*
X124850870Y-84552456D01*
X124818424Y-84566902D01*
X124767713Y-84577680D01*
X124715728Y-84593450D01*
X124674351Y-84597525D01*
X124634180Y-84606064D01*
X124587658Y-84606064D01*
X124540000Y-84610758D01*
X124492342Y-84606064D01*
X124445820Y-84606064D01*
X124405648Y-84597525D01*
X124364271Y-84593450D01*
X124312283Y-84577680D01*
X124261576Y-84566902D01*
X124229131Y-84552456D01*
X124195292Y-84542192D01*
X124141518Y-84513449D01*
X124089500Y-84490289D01*
X124065311Y-84472714D01*
X124039567Y-84458954D01*
X123987047Y-84415853D01*
X123937113Y-84379573D01*
X123920901Y-84361568D01*
X123903067Y-84346932D01*
X123855144Y-84288538D01*
X123811076Y-84239595D01*
X123801816Y-84223557D01*
X123791045Y-84210432D01*
X123751186Y-84135862D01*
X123716896Y-84076470D01*
X123712952Y-84064333D01*
X123707807Y-84054707D01*
X123679446Y-83961213D01*
X123658689Y-83897328D01*
X123657957Y-83890372D01*
X123656549Y-83885728D01*
X123642831Y-83746452D01*
X123639000Y-83710000D01*
X123642831Y-83673550D01*
X123656549Y-83534271D01*
X123657958Y-83529625D01*
X123658689Y-83522672D01*
X123679442Y-83458801D01*
X123707807Y-83365292D01*
X123712953Y-83355663D01*
X123716896Y-83343530D01*
X123751178Y-83284150D01*
X123791045Y-83209567D01*
X123801818Y-83196439D01*
X123811076Y-83180405D01*
X123855135Y-83131472D01*
X123903067Y-83073067D01*
X123920904Y-83058427D01*
X123937113Y-83040427D01*
X123987037Y-83004154D01*
X124039567Y-82961045D01*
X124065316Y-82947281D01*
X124089500Y-82929711D01*
X124141507Y-82906555D01*
X124195292Y-82877807D01*
X124229138Y-82867539D01*
X124261576Y-82853098D01*
X124312272Y-82842322D01*
X124364271Y-82826549D01*
X124405657Y-82822472D01*
X124445820Y-82813936D01*
X124492331Y-82813936D01*
X124540000Y-82809241D01*
X124587668Y-82813936D01*
G37*
G36*
X134607668Y-82793936D02*
G01*
X134654180Y-82793936D01*
X134694343Y-82802472D01*
X134735728Y-82806549D01*
X134787724Y-82822321D01*
X134838424Y-82833098D01*
X134870863Y-82847540D01*
X134904707Y-82857807D01*
X134958486Y-82886553D01*
X135010500Y-82909711D01*
X135034686Y-82927283D01*
X135060432Y-82941045D01*
X135112953Y-82984148D01*
X135162887Y-83020427D01*
X135179097Y-83038431D01*
X135196932Y-83053067D01*
X135244853Y-83111459D01*
X135288924Y-83160405D01*
X135298183Y-83176443D01*
X135308954Y-83189567D01*
X135348807Y-83264126D01*
X135383104Y-83323530D01*
X135387048Y-83335668D01*
X135392192Y-83345292D01*
X135420542Y-83438754D01*
X135441311Y-83502672D01*
X135442042Y-83509630D01*
X135443450Y-83514271D01*
X135457153Y-83653399D01*
X135461000Y-83690000D01*
X135457152Y-83726604D01*
X135443450Y-83865728D01*
X135442042Y-83870367D01*
X135441311Y-83877328D01*
X135420538Y-83941259D01*
X135392192Y-84034707D01*
X135387048Y-84044328D01*
X135383104Y-84056470D01*
X135348800Y-84115885D01*
X135308954Y-84190432D01*
X135298185Y-84203553D01*
X135288924Y-84219595D01*
X135244844Y-84268550D01*
X135196932Y-84326932D01*
X135179101Y-84341565D01*
X135162887Y-84359573D01*
X135112943Y-84395859D01*
X135060432Y-84438954D01*
X135034691Y-84452712D01*
X135010500Y-84470289D01*
X134958475Y-84493451D01*
X134904707Y-84522192D01*
X134870870Y-84532456D01*
X134838424Y-84546902D01*
X134787713Y-84557680D01*
X134735728Y-84573450D01*
X134694351Y-84577525D01*
X134654180Y-84586064D01*
X134607658Y-84586064D01*
X134560000Y-84590758D01*
X134512342Y-84586064D01*
X134465820Y-84586064D01*
X134425648Y-84577525D01*
X134384271Y-84573450D01*
X134332283Y-84557680D01*
X134281576Y-84546902D01*
X134249131Y-84532456D01*
X134215292Y-84522192D01*
X134161518Y-84493449D01*
X134109500Y-84470289D01*
X134085311Y-84452714D01*
X134059567Y-84438954D01*
X134007047Y-84395853D01*
X133957113Y-84359573D01*
X133940901Y-84341568D01*
X133923067Y-84326932D01*
X133875144Y-84268538D01*
X133831076Y-84219595D01*
X133821816Y-84203557D01*
X133811045Y-84190432D01*
X133771186Y-84115862D01*
X133736896Y-84056470D01*
X133732952Y-84044333D01*
X133727807Y-84034707D01*
X133699446Y-83941213D01*
X133678689Y-83877328D01*
X133677957Y-83870372D01*
X133676549Y-83865728D01*
X133662831Y-83726452D01*
X133659000Y-83690000D01*
X133662831Y-83653550D01*
X133676549Y-83514271D01*
X133677958Y-83509625D01*
X133678689Y-83502672D01*
X133699442Y-83438801D01*
X133727807Y-83345292D01*
X133732953Y-83335663D01*
X133736896Y-83323530D01*
X133771178Y-83264150D01*
X133811045Y-83189567D01*
X133821818Y-83176439D01*
X133831076Y-83160405D01*
X133875135Y-83111472D01*
X133923067Y-83053067D01*
X133940904Y-83038427D01*
X133957113Y-83020427D01*
X134007037Y-82984154D01*
X134059567Y-82941045D01*
X134085316Y-82927281D01*
X134109500Y-82909711D01*
X134161507Y-82886555D01*
X134215292Y-82857807D01*
X134249138Y-82847539D01*
X134281576Y-82833098D01*
X134332272Y-82822322D01*
X134384271Y-82806549D01*
X134425657Y-82802472D01*
X134465820Y-82793936D01*
X134512331Y-82793936D01*
X134560000Y-82789241D01*
X134607668Y-82793936D01*
G37*
G36*
X113347668Y-82628936D02*
G01*
X113394180Y-82628936D01*
X113434343Y-82637472D01*
X113475728Y-82641549D01*
X113527724Y-82657321D01*
X113578424Y-82668098D01*
X113610863Y-82682540D01*
X113644707Y-82692807D01*
X113698486Y-82721553D01*
X113750500Y-82744711D01*
X113774686Y-82762283D01*
X113800432Y-82776045D01*
X113852953Y-82819148D01*
X113902887Y-82855427D01*
X113919097Y-82873431D01*
X113936932Y-82888067D01*
X113984853Y-82946459D01*
X114028924Y-82995405D01*
X114038183Y-83011443D01*
X114048954Y-83024567D01*
X114088807Y-83099126D01*
X114123104Y-83158530D01*
X114127048Y-83170668D01*
X114132192Y-83180292D01*
X114160542Y-83273754D01*
X114181311Y-83337672D01*
X114182042Y-83344630D01*
X114183450Y-83349271D01*
X114197153Y-83488399D01*
X114201000Y-83525000D01*
X114197152Y-83561604D01*
X114183450Y-83700728D01*
X114182042Y-83705367D01*
X114181311Y-83712328D01*
X114160538Y-83776259D01*
X114132192Y-83869707D01*
X114127048Y-83879328D01*
X114123104Y-83891470D01*
X114088800Y-83950885D01*
X114048954Y-84025432D01*
X114038185Y-84038553D01*
X114028924Y-84054595D01*
X113984844Y-84103550D01*
X113936932Y-84161932D01*
X113919101Y-84176565D01*
X113902887Y-84194573D01*
X113852943Y-84230859D01*
X113800432Y-84273954D01*
X113774691Y-84287712D01*
X113750500Y-84305289D01*
X113698475Y-84328451D01*
X113644707Y-84357192D01*
X113610870Y-84367456D01*
X113578424Y-84381902D01*
X113527713Y-84392680D01*
X113475728Y-84408450D01*
X113434351Y-84412525D01*
X113394180Y-84421064D01*
X113347658Y-84421064D01*
X113300000Y-84425758D01*
X113252342Y-84421064D01*
X113205820Y-84421064D01*
X113165648Y-84412525D01*
X113124271Y-84408450D01*
X113072283Y-84392680D01*
X113021576Y-84381902D01*
X112989131Y-84367456D01*
X112955292Y-84357192D01*
X112901518Y-84328449D01*
X112849500Y-84305289D01*
X112825311Y-84287714D01*
X112799567Y-84273954D01*
X112747047Y-84230853D01*
X112697113Y-84194573D01*
X112680901Y-84176568D01*
X112663067Y-84161932D01*
X112615144Y-84103538D01*
X112571076Y-84054595D01*
X112561816Y-84038557D01*
X112551045Y-84025432D01*
X112511186Y-83950862D01*
X112476896Y-83891470D01*
X112472952Y-83879333D01*
X112467807Y-83869707D01*
X112439446Y-83776213D01*
X112418689Y-83712328D01*
X112417957Y-83705372D01*
X112416549Y-83700728D01*
X112402831Y-83561452D01*
X112399000Y-83525000D01*
X112402831Y-83488550D01*
X112416549Y-83349271D01*
X112417958Y-83344625D01*
X112418689Y-83337672D01*
X112439442Y-83273801D01*
X112467807Y-83180292D01*
X112472953Y-83170663D01*
X112476896Y-83158530D01*
X112511178Y-83099150D01*
X112551045Y-83024567D01*
X112561818Y-83011439D01*
X112571076Y-82995405D01*
X112615135Y-82946472D01*
X112663067Y-82888067D01*
X112680904Y-82873427D01*
X112697113Y-82855427D01*
X112747037Y-82819154D01*
X112799567Y-82776045D01*
X112825316Y-82762281D01*
X112849500Y-82744711D01*
X112901507Y-82721555D01*
X112955292Y-82692807D01*
X112989138Y-82682539D01*
X113021576Y-82668098D01*
X113072272Y-82657322D01*
X113124271Y-82641549D01*
X113165657Y-82637472D01*
X113205820Y-82628936D01*
X113252331Y-82628936D01*
X113300000Y-82624241D01*
X113347668Y-82628936D01*
G37*
G36*
X102807668Y-82513936D02*
G01*
X102854180Y-82513936D01*
X102894343Y-82522472D01*
X102935728Y-82526549D01*
X102987724Y-82542321D01*
X103038424Y-82553098D01*
X103070863Y-82567540D01*
X103104707Y-82577807D01*
X103158486Y-82606553D01*
X103210500Y-82629711D01*
X103234686Y-82647283D01*
X103260432Y-82661045D01*
X103312953Y-82704148D01*
X103362887Y-82740427D01*
X103379097Y-82758431D01*
X103396932Y-82773067D01*
X103444853Y-82831459D01*
X103488924Y-82880405D01*
X103498183Y-82896443D01*
X103508954Y-82909567D01*
X103548807Y-82984126D01*
X103583104Y-83043530D01*
X103587048Y-83055668D01*
X103592192Y-83065292D01*
X103620542Y-83158754D01*
X103641311Y-83222672D01*
X103642042Y-83229630D01*
X103643450Y-83234271D01*
X103657153Y-83373399D01*
X103661000Y-83410000D01*
X103657152Y-83446604D01*
X103643450Y-83585728D01*
X103642042Y-83590367D01*
X103641311Y-83597328D01*
X103620538Y-83661259D01*
X103592192Y-83754707D01*
X103587048Y-83764328D01*
X103583104Y-83776470D01*
X103548800Y-83835885D01*
X103508954Y-83910432D01*
X103498185Y-83923553D01*
X103488924Y-83939595D01*
X103444844Y-83988550D01*
X103396932Y-84046932D01*
X103379101Y-84061565D01*
X103362887Y-84079573D01*
X103312943Y-84115859D01*
X103260432Y-84158954D01*
X103234691Y-84172712D01*
X103210500Y-84190289D01*
X103158475Y-84213451D01*
X103104707Y-84242192D01*
X103070870Y-84252456D01*
X103038424Y-84266902D01*
X102987713Y-84277680D01*
X102935728Y-84293450D01*
X102894351Y-84297525D01*
X102854180Y-84306064D01*
X102807658Y-84306064D01*
X102760000Y-84310758D01*
X102712342Y-84306064D01*
X102665820Y-84306064D01*
X102625648Y-84297525D01*
X102584271Y-84293450D01*
X102532283Y-84277680D01*
X102481576Y-84266902D01*
X102449131Y-84252456D01*
X102415292Y-84242192D01*
X102361518Y-84213449D01*
X102309500Y-84190289D01*
X102285311Y-84172714D01*
X102259567Y-84158954D01*
X102207047Y-84115853D01*
X102157113Y-84079573D01*
X102140901Y-84061568D01*
X102123067Y-84046932D01*
X102075144Y-83988538D01*
X102031076Y-83939595D01*
X102021816Y-83923557D01*
X102011045Y-83910432D01*
X101971186Y-83835862D01*
X101936896Y-83776470D01*
X101932952Y-83764333D01*
X101927807Y-83754707D01*
X101899446Y-83661213D01*
X101878689Y-83597328D01*
X101877957Y-83590372D01*
X101876549Y-83585728D01*
X101862831Y-83446452D01*
X101859000Y-83410000D01*
X101862831Y-83373550D01*
X101876549Y-83234271D01*
X101877958Y-83229625D01*
X101878689Y-83222672D01*
X101899442Y-83158801D01*
X101927807Y-83065292D01*
X101932953Y-83055663D01*
X101936896Y-83043530D01*
X101971178Y-82984150D01*
X102011045Y-82909567D01*
X102021818Y-82896439D01*
X102031076Y-82880405D01*
X102075135Y-82831472D01*
X102123067Y-82773067D01*
X102140904Y-82758427D01*
X102157113Y-82740427D01*
X102207037Y-82704154D01*
X102259567Y-82661045D01*
X102285316Y-82647281D01*
X102309500Y-82629711D01*
X102361507Y-82606555D01*
X102415292Y-82577807D01*
X102449138Y-82567539D01*
X102481576Y-82553098D01*
X102532272Y-82542322D01*
X102584271Y-82526549D01*
X102625657Y-82522472D01*
X102665820Y-82513936D01*
X102712331Y-82513936D01*
X102760000Y-82509241D01*
X102807668Y-82513936D01*
G37*
G36*
X139303017Y-82475382D02*
G01*
X139319562Y-82486438D01*
X139330618Y-82502983D01*
X139334500Y-82522500D01*
X139334500Y-84222500D01*
X139330618Y-84242017D01*
X139319562Y-84258562D01*
X139303017Y-84269618D01*
X139283500Y-84273500D01*
X137583500Y-84273500D01*
X137563983Y-84269618D01*
X137547438Y-84258562D01*
X137536382Y-84242017D01*
X137532500Y-84222500D01*
X137532500Y-82522500D01*
X137536382Y-82502983D01*
X137547438Y-82486438D01*
X137563983Y-82475382D01*
X137583500Y-82471500D01*
X139283500Y-82471500D01*
X139303017Y-82475382D01*
G37*
G36*
X129219517Y-82114382D02*
G01*
X129236062Y-82125438D01*
X129247118Y-82141983D01*
X129251000Y-82161500D01*
X129251000Y-83861500D01*
X129247118Y-83881017D01*
X129236062Y-83897562D01*
X129219517Y-83908618D01*
X129200000Y-83912500D01*
X127500000Y-83912500D01*
X127480483Y-83908618D01*
X127463938Y-83897562D01*
X127452882Y-83881017D01*
X127449000Y-83861500D01*
X127449000Y-82161500D01*
X127452882Y-82141983D01*
X127463938Y-82125438D01*
X127480483Y-82114382D01*
X127500000Y-82110500D01*
X129200000Y-82110500D01*
X129219517Y-82114382D01*
G37*
G36*
X118069517Y-82112882D02*
G01*
X118086062Y-82123938D01*
X118097118Y-82140483D01*
X118101000Y-82160000D01*
X118101000Y-83860000D01*
X118097118Y-83879517D01*
X118086062Y-83896062D01*
X118069517Y-83907118D01*
X118050000Y-83911000D01*
X116350000Y-83911000D01*
X116330483Y-83907118D01*
X116313938Y-83896062D01*
X116302882Y-83879517D01*
X116299000Y-83860000D01*
X116299000Y-82160000D01*
X116302882Y-82140483D01*
X116313938Y-82123938D01*
X116330483Y-82112882D01*
X116350000Y-82109000D01*
X118050000Y-82109000D01*
X118069517Y-82112882D01*
G37*
G36*
X107539517Y-82012882D02*
G01*
X107556062Y-82023938D01*
X107567118Y-82040483D01*
X107571000Y-82060000D01*
X107571000Y-83760000D01*
X107567118Y-83779517D01*
X107556062Y-83796062D01*
X107539517Y-83807118D01*
X107520000Y-83811000D01*
X105820000Y-83811000D01*
X105800483Y-83807118D01*
X105783938Y-83796062D01*
X105772882Y-83779517D01*
X105769000Y-83760000D01*
X105769000Y-82060000D01*
X105772882Y-82040483D01*
X105783938Y-82023938D01*
X105800483Y-82012882D01*
X105820000Y-82009000D01*
X107520000Y-82009000D01*
X107539517Y-82012882D01*
G37*
G36*
X43522041Y-80768633D02*
G01*
X43570569Y-80768633D01*
X43624612Y-80778735D01*
X43677114Y-80783906D01*
X43716995Y-80796004D01*
X43758455Y-80803754D01*
X43815878Y-80826000D01*
X43871460Y-80842861D01*
X43903221Y-80859837D01*
X43936691Y-80872804D01*
X43994843Y-80908810D01*
X44050571Y-80938597D01*
X44073984Y-80957811D01*
X44099199Y-80973424D01*
X44155068Y-81024356D01*
X44207563Y-81067437D01*
X44223119Y-81086392D01*
X44240455Y-81102196D01*
X44290785Y-81168843D01*
X44336403Y-81224429D01*
X44345223Y-81240931D01*
X44355644Y-81254730D01*
X44397103Y-81337993D01*
X44432139Y-81403540D01*
X44435875Y-81415858D01*
X44440841Y-81425830D01*
X44470171Y-81528916D01*
X44491094Y-81597886D01*
X44491781Y-81604863D01*
X44493149Y-81609671D01*
X44507366Y-81763111D01*
X44511000Y-81800000D01*
X44507366Y-81836891D01*
X44493149Y-81990328D01*
X44491781Y-81995134D01*
X44491094Y-82002114D01*
X44470167Y-82071098D01*
X44440841Y-82174169D01*
X44435876Y-82184138D01*
X44432139Y-82196460D01*
X44397096Y-82262020D01*
X44355644Y-82345269D01*
X44345225Y-82359065D01*
X44336403Y-82375571D01*
X44290775Y-82431168D01*
X44240455Y-82497803D01*
X44223122Y-82513603D01*
X44207563Y-82532563D01*
X44155057Y-82575652D01*
X44099199Y-82626575D01*
X44073989Y-82642184D01*
X44050571Y-82661403D01*
X43994832Y-82691195D01*
X43936691Y-82727195D01*
X43903227Y-82740158D01*
X43871460Y-82757139D01*
X43815866Y-82774003D01*
X43758455Y-82796245D01*
X43717002Y-82803993D01*
X43677114Y-82816094D01*
X43624609Y-82821265D01*
X43570569Y-82831367D01*
X43522041Y-82831367D01*
X43475000Y-82836000D01*
X43427959Y-82831367D01*
X43379431Y-82831367D01*
X43325390Y-82821265D01*
X43272886Y-82816094D01*
X43232998Y-82803994D01*
X43191544Y-82796245D01*
X43134128Y-82774001D01*
X43078540Y-82757139D01*
X43046774Y-82740160D01*
X43013308Y-82727195D01*
X42955160Y-82691191D01*
X42899429Y-82661403D01*
X42876013Y-82642186D01*
X42850800Y-82626575D01*
X42794931Y-82575644D01*
X42742437Y-82532563D01*
X42726880Y-82513607D01*
X42709544Y-82497803D01*
X42659211Y-82431152D01*
X42613597Y-82375571D01*
X42604777Y-82359070D01*
X42594355Y-82345269D01*
X42552888Y-82261992D01*
X42517861Y-82196460D01*
X42514124Y-82184144D01*
X42509158Y-82174169D01*
X42479803Y-82071000D01*
X42458906Y-82002114D01*
X42458219Y-81995139D01*
X42456850Y-81990328D01*
X42442616Y-81836720D01*
X42439000Y-81800000D01*
X42442616Y-81763283D01*
X42456850Y-81609671D01*
X42458219Y-81604858D01*
X42458906Y-81597886D01*
X42479811Y-81528969D01*
X42509158Y-81425830D01*
X42514125Y-81415853D01*
X42517861Y-81403540D01*
X42552881Y-81338020D01*
X42594355Y-81254730D01*
X42604778Y-81240926D01*
X42613597Y-81224429D01*
X42659202Y-81168858D01*
X42709544Y-81102196D01*
X42726883Y-81086388D01*
X42742437Y-81067437D01*
X42794920Y-81024364D01*
X42850800Y-80973424D01*
X42876018Y-80957809D01*
X42899429Y-80938597D01*
X42955148Y-80908814D01*
X43013308Y-80872804D01*
X43046781Y-80859836D01*
X43078540Y-80842861D01*
X43134116Y-80826001D01*
X43191544Y-80803754D01*
X43233005Y-80796003D01*
X43272886Y-80783906D01*
X43325387Y-80778735D01*
X43379431Y-80768633D01*
X43427959Y-80768633D01*
X43475000Y-80764000D01*
X43522041Y-80768633D01*
G37*
G36*
X125409517Y-80272882D02*
G01*
X125426062Y-80283938D01*
X125437118Y-80300483D01*
X125441000Y-80320000D01*
X125441000Y-82020000D01*
X125437118Y-82039517D01*
X125426062Y-82056062D01*
X125409517Y-82067118D01*
X125390000Y-82071000D01*
X123690000Y-82071000D01*
X123670483Y-82067118D01*
X123653938Y-82056062D01*
X123642882Y-82039517D01*
X123639000Y-82020000D01*
X123639000Y-80320000D01*
X123642882Y-80300483D01*
X123653938Y-80283938D01*
X123670483Y-80272882D01*
X123690000Y-80269000D01*
X125390000Y-80269000D01*
X125409517Y-80272882D01*
G37*
G36*
X135429517Y-80252882D02*
G01*
X135446062Y-80263938D01*
X135457118Y-80280483D01*
X135461000Y-80300000D01*
X135461000Y-82000000D01*
X135457118Y-82019517D01*
X135446062Y-82036062D01*
X135429517Y-82047118D01*
X135410000Y-82051000D01*
X133710000Y-82051000D01*
X133690483Y-82047118D01*
X133673938Y-82036062D01*
X133662882Y-82019517D01*
X133659000Y-82000000D01*
X133659000Y-80300000D01*
X133662882Y-80280483D01*
X133673938Y-80263938D01*
X133690483Y-80252882D01*
X133710000Y-80249000D01*
X135410000Y-80249000D01*
X135429517Y-80252882D01*
G37*
G36*
X114169517Y-80087882D02*
G01*
X114186062Y-80098938D01*
X114197118Y-80115483D01*
X114201000Y-80135000D01*
X114201000Y-81835000D01*
X114197118Y-81854517D01*
X114186062Y-81871062D01*
X114169517Y-81882118D01*
X114150000Y-81886000D01*
X112450000Y-81886000D01*
X112430483Y-81882118D01*
X112413938Y-81871062D01*
X112402882Y-81854517D01*
X112399000Y-81835000D01*
X112399000Y-80135000D01*
X112402882Y-80115483D01*
X112413938Y-80098938D01*
X112430483Y-80087882D01*
X112450000Y-80084000D01*
X114150000Y-80084000D01*
X114169517Y-80087882D01*
G37*
G36*
X103629517Y-79972882D02*
G01*
X103646062Y-79983938D01*
X103657118Y-80000483D01*
X103661000Y-80020000D01*
X103661000Y-81720000D01*
X103657118Y-81739517D01*
X103646062Y-81756062D01*
X103629517Y-81767118D01*
X103610000Y-81771000D01*
X101910000Y-81771000D01*
X101890483Y-81767118D01*
X101873938Y-81756062D01*
X101862882Y-81739517D01*
X101859000Y-81720000D01*
X101859000Y-80020000D01*
X101862882Y-80000483D01*
X101873938Y-79983938D01*
X101890483Y-79972882D01*
X101910000Y-79969000D01*
X103610000Y-79969000D01*
X103629517Y-79972882D01*
G37*
G36*
X75934517Y-79252882D02*
G01*
X75951062Y-79263938D01*
X75962118Y-79280483D01*
X75966000Y-79300000D01*
X75966000Y-81000000D01*
X75962118Y-81019517D01*
X75951062Y-81036062D01*
X75934517Y-81047118D01*
X75915000Y-81051000D01*
X74215000Y-81051000D01*
X74195483Y-81047118D01*
X74178938Y-81036062D01*
X74167882Y-81019517D01*
X74164000Y-81000000D01*
X74164000Y-79300000D01*
X74167882Y-79280483D01*
X74178938Y-79263938D01*
X74195483Y-79252882D01*
X74215000Y-79249000D01*
X75915000Y-79249000D01*
X75934517Y-79252882D01*
G37*
G36*
X77652668Y-79253936D02*
G01*
X77699180Y-79253936D01*
X77739343Y-79262472D01*
X77780728Y-79266549D01*
X77832724Y-79282321D01*
X77883424Y-79293098D01*
X77915863Y-79307540D01*
X77949707Y-79317807D01*
X78003486Y-79346553D01*
X78055500Y-79369711D01*
X78079686Y-79387283D01*
X78105432Y-79401045D01*
X78157953Y-79444148D01*
X78207887Y-79480427D01*
X78224097Y-79498431D01*
X78241932Y-79513067D01*
X78289853Y-79571459D01*
X78333924Y-79620405D01*
X78343183Y-79636443D01*
X78353954Y-79649567D01*
X78393807Y-79724126D01*
X78428104Y-79783530D01*
X78432048Y-79795668D01*
X78437192Y-79805292D01*
X78465542Y-79898754D01*
X78486311Y-79962672D01*
X78487042Y-79969630D01*
X78488450Y-79974271D01*
X78502153Y-80113399D01*
X78506000Y-80150000D01*
X78502152Y-80186604D01*
X78488450Y-80325728D01*
X78487042Y-80330367D01*
X78486311Y-80337328D01*
X78465538Y-80401259D01*
X78437192Y-80494707D01*
X78432048Y-80504328D01*
X78428104Y-80516470D01*
X78393800Y-80575885D01*
X78353954Y-80650432D01*
X78343185Y-80663553D01*
X78333924Y-80679595D01*
X78289844Y-80728550D01*
X78241932Y-80786932D01*
X78224101Y-80801565D01*
X78207887Y-80819573D01*
X78157943Y-80855859D01*
X78105432Y-80898954D01*
X78079691Y-80912712D01*
X78055500Y-80930289D01*
X78003475Y-80953451D01*
X77949707Y-80982192D01*
X77915870Y-80992456D01*
X77883424Y-81006902D01*
X77832713Y-81017680D01*
X77780728Y-81033450D01*
X77739351Y-81037525D01*
X77699180Y-81046064D01*
X77652658Y-81046064D01*
X77605000Y-81050758D01*
X77557342Y-81046064D01*
X77510820Y-81046064D01*
X77470648Y-81037525D01*
X77429271Y-81033450D01*
X77377283Y-81017680D01*
X77326576Y-81006902D01*
X77294131Y-80992456D01*
X77260292Y-80982192D01*
X77206518Y-80953449D01*
X77154500Y-80930289D01*
X77130311Y-80912714D01*
X77104567Y-80898954D01*
X77052047Y-80855853D01*
X77002113Y-80819573D01*
X76985901Y-80801568D01*
X76968067Y-80786932D01*
X76920144Y-80728538D01*
X76876076Y-80679595D01*
X76866816Y-80663557D01*
X76856045Y-80650432D01*
X76816186Y-80575862D01*
X76781896Y-80516470D01*
X76777952Y-80504333D01*
X76772807Y-80494707D01*
X76744446Y-80401213D01*
X76723689Y-80337328D01*
X76722957Y-80330372D01*
X76721549Y-80325728D01*
X76707831Y-80186452D01*
X76704000Y-80150000D01*
X76707831Y-80113550D01*
X76721549Y-79974271D01*
X76722958Y-79969625D01*
X76723689Y-79962672D01*
X76744442Y-79898801D01*
X76772807Y-79805292D01*
X76777953Y-79795663D01*
X76781896Y-79783530D01*
X76816178Y-79724150D01*
X76856045Y-79649567D01*
X76866818Y-79636439D01*
X76876076Y-79620405D01*
X76920135Y-79571472D01*
X76968067Y-79513067D01*
X76985904Y-79498427D01*
X77002113Y-79480427D01*
X77052037Y-79444154D01*
X77104567Y-79401045D01*
X77130316Y-79387281D01*
X77154500Y-79369711D01*
X77206507Y-79346555D01*
X77260292Y-79317807D01*
X77294138Y-79307539D01*
X77326576Y-79293098D01*
X77377272Y-79282322D01*
X77429271Y-79266549D01*
X77470657Y-79262472D01*
X77510820Y-79253936D01*
X77557331Y-79253936D01*
X77605000Y-79249241D01*
X77652668Y-79253936D01*
G37*
G36*
X84694517Y-78777882D02*
G01*
X84711062Y-78788938D01*
X84722118Y-78805483D01*
X84726000Y-78825000D01*
X84726000Y-80525000D01*
X84722118Y-80544517D01*
X84711062Y-80561062D01*
X84694517Y-80572118D01*
X84675000Y-80576000D01*
X82975000Y-80576000D01*
X82955483Y-80572118D01*
X82938938Y-80561062D01*
X82927882Y-80544517D01*
X82924000Y-80525000D01*
X82924000Y-78825000D01*
X82927882Y-78805483D01*
X82938938Y-78788938D01*
X82955483Y-78777882D01*
X82975000Y-78774000D01*
X84675000Y-78774000D01*
X84694517Y-78777882D01*
G37*
G36*
X31492234Y-77838006D02*
G01*
X31702867Y-77894445D01*
X31900500Y-77986602D01*
X32079127Y-78111678D01*
X32233322Y-78265873D01*
X32358398Y-78444500D01*
X32450555Y-78642133D01*
X32506994Y-78852766D01*
X32526000Y-79070000D01*
X32506994Y-79287234D01*
X32450555Y-79497867D01*
X32358398Y-79695500D01*
X32233322Y-79874127D01*
X32079127Y-80028322D01*
X31900500Y-80153398D01*
X31702867Y-80245555D01*
X31492234Y-80301994D01*
X31275000Y-80321000D01*
X31057766Y-80301994D01*
X30847133Y-80245555D01*
X30649500Y-80153398D01*
X30470873Y-80028322D01*
X30316678Y-79874127D01*
X30191602Y-79695500D01*
X30099445Y-79497867D01*
X30043006Y-79287234D01*
X30024000Y-79070000D01*
X30043006Y-78852766D01*
X30099445Y-78642133D01*
X30191602Y-78444500D01*
X30316678Y-78265873D01*
X30470873Y-78111678D01*
X30649500Y-77986602D01*
X30847133Y-77894445D01*
X31057766Y-77838006D01*
X31275000Y-77819000D01*
X31492234Y-77838006D01*
G37*
G36*
X34892234Y-77838006D02*
G01*
X35102867Y-77894445D01*
X35300500Y-77986602D01*
X35479127Y-78111678D01*
X35633322Y-78265873D01*
X35758398Y-78444500D01*
X35850555Y-78642133D01*
X35906994Y-78852766D01*
X35926000Y-79070000D01*
X35906994Y-79287234D01*
X35850555Y-79497867D01*
X35758398Y-79695500D01*
X35633322Y-79874127D01*
X35479127Y-80028322D01*
X35300500Y-80153398D01*
X35102867Y-80245555D01*
X34892234Y-80301994D01*
X34675000Y-80321000D01*
X34457766Y-80301994D01*
X34247133Y-80245555D01*
X34049500Y-80153398D01*
X33870873Y-80028322D01*
X33716678Y-79874127D01*
X33591602Y-79695500D01*
X33499445Y-79497867D01*
X33443006Y-79287234D01*
X33424000Y-79070000D01*
X33443006Y-78852766D01*
X33499445Y-78642133D01*
X33591602Y-78444500D01*
X33716678Y-78265873D01*
X33870873Y-78111678D01*
X34049500Y-77986602D01*
X34247133Y-77894445D01*
X34457766Y-77838006D01*
X34675000Y-77819000D01*
X34892234Y-77838006D01*
G37*
G36*
X58654016Y-76589131D02*
G01*
X58670561Y-76600187D01*
X58681617Y-76616732D01*
X58685499Y-76636249D01*
X58685499Y-78336249D01*
X58681617Y-78355766D01*
X58670561Y-78372311D01*
X58654016Y-78383367D01*
X58634499Y-78387249D01*
X56934499Y-78387249D01*
X56914982Y-78383367D01*
X56898437Y-78372311D01*
X56887381Y-78355766D01*
X56883499Y-78336249D01*
X56883499Y-76636249D01*
X56887381Y-76616732D01*
X56898437Y-76600187D01*
X56914982Y-76589131D01*
X56934499Y-76585249D01*
X58634499Y-76585249D01*
X58654016Y-76589131D01*
G37*
G36*
X66758016Y-76433381D02*
G01*
X66774561Y-76444437D01*
X66785617Y-76460982D01*
X66789499Y-76480499D01*
X66789499Y-78180499D01*
X66785617Y-78200016D01*
X66774561Y-78216561D01*
X66758016Y-78227617D01*
X66738499Y-78231499D01*
X65038499Y-78231499D01*
X65018982Y-78227617D01*
X65002437Y-78216561D01*
X64991381Y-78200016D01*
X64987499Y-78180499D01*
X64987499Y-76480499D01*
X64991381Y-76460982D01*
X65002437Y-76444437D01*
X65018982Y-76433381D01*
X65038499Y-76429499D01*
X66738499Y-76429499D01*
X66758016Y-76433381D01*
G37*
G36*
X75934517Y-75577882D02*
G01*
X75951062Y-75588938D01*
X75962118Y-75605483D01*
X75966000Y-75625000D01*
X75966000Y-77325000D01*
X75962118Y-77344517D01*
X75951062Y-77361062D01*
X75934517Y-77372118D01*
X75915000Y-77376000D01*
X74215000Y-77376000D01*
X74195483Y-77372118D01*
X74178938Y-77361062D01*
X74167882Y-77344517D01*
X74164000Y-77325000D01*
X74164000Y-75625000D01*
X74167882Y-75605483D01*
X74178938Y-75588938D01*
X74195483Y-75577882D01*
X74215000Y-75574000D01*
X75915000Y-75574000D01*
X75934517Y-75577882D01*
G37*
G36*
X77652668Y-75578936D02*
G01*
X77699180Y-75578936D01*
X77739343Y-75587472D01*
X77780728Y-75591549D01*
X77832724Y-75607321D01*
X77883424Y-75618098D01*
X77915863Y-75632540D01*
X77949707Y-75642807D01*
X78003486Y-75671553D01*
X78055500Y-75694711D01*
X78079686Y-75712283D01*
X78105432Y-75726045D01*
X78157953Y-75769148D01*
X78207887Y-75805427D01*
X78224097Y-75823431D01*
X78241932Y-75838067D01*
X78289853Y-75896459D01*
X78333924Y-75945405D01*
X78343183Y-75961443D01*
X78353954Y-75974567D01*
X78393807Y-76049126D01*
X78428104Y-76108530D01*
X78432048Y-76120668D01*
X78437192Y-76130292D01*
X78465542Y-76223754D01*
X78486311Y-76287672D01*
X78487042Y-76294630D01*
X78488450Y-76299271D01*
X78502153Y-76438399D01*
X78506000Y-76475000D01*
X78502152Y-76511604D01*
X78488450Y-76650728D01*
X78487042Y-76655367D01*
X78486311Y-76662328D01*
X78465538Y-76726259D01*
X78437192Y-76819707D01*
X78432048Y-76829328D01*
X78428104Y-76841470D01*
X78393800Y-76900885D01*
X78353954Y-76975432D01*
X78343185Y-76988553D01*
X78333924Y-77004595D01*
X78289844Y-77053550D01*
X78241932Y-77111932D01*
X78224101Y-77126565D01*
X78207887Y-77144573D01*
X78157943Y-77180859D01*
X78105432Y-77223954D01*
X78079691Y-77237712D01*
X78055500Y-77255289D01*
X78003475Y-77278451D01*
X77949707Y-77307192D01*
X77915870Y-77317456D01*
X77883424Y-77331902D01*
X77832713Y-77342680D01*
X77780728Y-77358450D01*
X77739351Y-77362525D01*
X77699180Y-77371064D01*
X77652658Y-77371064D01*
X77605000Y-77375758D01*
X77557342Y-77371064D01*
X77510820Y-77371064D01*
X77470648Y-77362525D01*
X77429271Y-77358450D01*
X77377283Y-77342680D01*
X77326576Y-77331902D01*
X77294131Y-77317456D01*
X77260292Y-77307192D01*
X77206518Y-77278449D01*
X77154500Y-77255289D01*
X77130311Y-77237714D01*
X77104567Y-77223954D01*
X77052047Y-77180853D01*
X77002113Y-77144573D01*
X76985901Y-77126568D01*
X76968067Y-77111932D01*
X76920144Y-77053538D01*
X76876076Y-77004595D01*
X76866816Y-76988557D01*
X76856045Y-76975432D01*
X76816186Y-76900862D01*
X76781896Y-76841470D01*
X76777952Y-76829333D01*
X76772807Y-76819707D01*
X76744446Y-76726213D01*
X76723689Y-76662328D01*
X76722957Y-76655372D01*
X76721549Y-76650728D01*
X76707831Y-76511452D01*
X76704000Y-76475000D01*
X76707831Y-76438550D01*
X76721549Y-76299271D01*
X76722958Y-76294625D01*
X76723689Y-76287672D01*
X76744442Y-76223801D01*
X76772807Y-76130292D01*
X76777953Y-76120663D01*
X76781896Y-76108530D01*
X76816178Y-76049150D01*
X76856045Y-75974567D01*
X76866818Y-75961439D01*
X76876076Y-75945405D01*
X76920135Y-75896472D01*
X76968067Y-75838067D01*
X76985904Y-75823427D01*
X77002113Y-75805427D01*
X77052037Y-75769154D01*
X77104567Y-75726045D01*
X77130316Y-75712281D01*
X77154500Y-75694711D01*
X77206507Y-75671555D01*
X77260292Y-75642807D01*
X77294138Y-75632539D01*
X77326576Y-75618098D01*
X77377272Y-75607322D01*
X77429271Y-75591549D01*
X77470657Y-75587472D01*
X77510820Y-75578936D01*
X77557331Y-75578936D01*
X77605000Y-75574241D01*
X77652668Y-75578936D01*
G37*
G36*
X84419517Y-74802882D02*
G01*
X84436062Y-74813938D01*
X84447118Y-74830483D01*
X84451000Y-74850000D01*
X84451000Y-76550000D01*
X84447118Y-76569517D01*
X84436062Y-76586062D01*
X84419517Y-76597118D01*
X84400000Y-76601000D01*
X82700000Y-76601000D01*
X82680483Y-76597118D01*
X82663938Y-76586062D01*
X82652882Y-76569517D01*
X82649000Y-76550000D01*
X82649000Y-74850000D01*
X82652882Y-74830483D01*
X82663938Y-74813938D01*
X82680483Y-74802882D01*
X82700000Y-74799000D01*
X84400000Y-74799000D01*
X84419517Y-74802882D01*
G37*
G36*
X57832167Y-74050185D02*
G01*
X57878679Y-74050185D01*
X57918842Y-74058721D01*
X57960227Y-74062798D01*
X58012223Y-74078570D01*
X58062923Y-74089347D01*
X58095362Y-74103789D01*
X58129206Y-74114056D01*
X58182985Y-74142802D01*
X58234999Y-74165960D01*
X58259185Y-74183532D01*
X58284931Y-74197294D01*
X58337452Y-74240397D01*
X58387386Y-74276676D01*
X58403596Y-74294680D01*
X58421431Y-74309316D01*
X58469352Y-74367708D01*
X58513423Y-74416654D01*
X58522682Y-74432692D01*
X58533453Y-74445816D01*
X58573306Y-74520375D01*
X58607603Y-74579779D01*
X58611547Y-74591917D01*
X58616691Y-74601541D01*
X58645041Y-74695003D01*
X58665810Y-74758921D01*
X58666541Y-74765879D01*
X58667949Y-74770520D01*
X58681652Y-74909648D01*
X58685499Y-74946249D01*
X58681651Y-74982853D01*
X58667949Y-75121977D01*
X58666541Y-75126616D01*
X58665810Y-75133577D01*
X58645037Y-75197508D01*
X58616691Y-75290956D01*
X58611547Y-75300577D01*
X58607603Y-75312719D01*
X58573299Y-75372134D01*
X58533453Y-75446681D01*
X58522684Y-75459802D01*
X58513423Y-75475844D01*
X58469343Y-75524799D01*
X58421431Y-75583181D01*
X58403600Y-75597814D01*
X58387386Y-75615822D01*
X58337442Y-75652108D01*
X58284931Y-75695203D01*
X58259190Y-75708961D01*
X58234999Y-75726538D01*
X58182974Y-75749700D01*
X58129206Y-75778441D01*
X58095369Y-75788705D01*
X58062923Y-75803151D01*
X58012212Y-75813929D01*
X57960227Y-75829699D01*
X57918850Y-75833774D01*
X57878679Y-75842313D01*
X57832157Y-75842313D01*
X57784499Y-75847007D01*
X57736841Y-75842313D01*
X57690319Y-75842313D01*
X57650147Y-75833774D01*
X57608770Y-75829699D01*
X57556782Y-75813929D01*
X57506075Y-75803151D01*
X57473630Y-75788705D01*
X57439791Y-75778441D01*
X57386017Y-75749698D01*
X57333999Y-75726538D01*
X57309810Y-75708963D01*
X57284066Y-75695203D01*
X57231546Y-75652102D01*
X57181612Y-75615822D01*
X57165400Y-75597817D01*
X57147566Y-75583181D01*
X57099643Y-75524787D01*
X57055575Y-75475844D01*
X57046315Y-75459806D01*
X57035544Y-75446681D01*
X56995685Y-75372111D01*
X56961395Y-75312719D01*
X56957451Y-75300582D01*
X56952306Y-75290956D01*
X56923945Y-75197462D01*
X56903188Y-75133577D01*
X56902456Y-75126621D01*
X56901048Y-75121977D01*
X56887330Y-74982701D01*
X56883499Y-74946249D01*
X56887330Y-74909799D01*
X56901048Y-74770520D01*
X56902457Y-74765874D01*
X56903188Y-74758921D01*
X56923941Y-74695050D01*
X56952306Y-74601541D01*
X56957452Y-74591912D01*
X56961395Y-74579779D01*
X56995677Y-74520399D01*
X57035544Y-74445816D01*
X57046317Y-74432688D01*
X57055575Y-74416654D01*
X57099634Y-74367721D01*
X57147566Y-74309316D01*
X57165403Y-74294676D01*
X57181612Y-74276676D01*
X57231536Y-74240403D01*
X57284066Y-74197294D01*
X57309815Y-74183530D01*
X57333999Y-74165960D01*
X57386006Y-74142804D01*
X57439791Y-74114056D01*
X57473637Y-74103788D01*
X57506075Y-74089347D01*
X57556771Y-74078571D01*
X57608770Y-74062798D01*
X57650156Y-74058721D01*
X57690319Y-74050185D01*
X57736830Y-74050185D01*
X57784499Y-74045490D01*
X57832167Y-74050185D01*
G37*
G36*
X62871015Y-73895380D02*
G01*
X62887560Y-73906436D01*
X62898616Y-73922981D01*
X62902498Y-73942498D01*
X62902498Y-75642498D01*
X62898616Y-75662015D01*
X62887560Y-75678560D01*
X62871015Y-75689616D01*
X62851498Y-75693498D01*
X61151498Y-75693498D01*
X61131981Y-75689616D01*
X61115436Y-75678560D01*
X61104380Y-75662015D01*
X61100498Y-75642498D01*
X61100498Y-73942498D01*
X61104380Y-73922981D01*
X61115436Y-73906436D01*
X61131981Y-73895380D01*
X61151498Y-73891498D01*
X62851498Y-73891498D01*
X62871015Y-73895380D01*
G37*
G36*
X65936167Y-73894435D02*
G01*
X65982679Y-73894435D01*
X66022842Y-73902971D01*
X66064227Y-73907048D01*
X66116223Y-73922820D01*
X66166923Y-73933597D01*
X66199362Y-73948039D01*
X66233206Y-73958306D01*
X66286985Y-73987052D01*
X66338999Y-74010210D01*
X66363185Y-74027782D01*
X66388931Y-74041544D01*
X66441452Y-74084647D01*
X66491386Y-74120926D01*
X66507596Y-74138930D01*
X66525431Y-74153566D01*
X66573352Y-74211958D01*
X66617423Y-74260904D01*
X66626682Y-74276942D01*
X66637453Y-74290066D01*
X66677306Y-74364625D01*
X66711603Y-74424029D01*
X66715547Y-74436167D01*
X66720691Y-74445791D01*
X66749041Y-74539253D01*
X66769810Y-74603171D01*
X66770541Y-74610129D01*
X66771949Y-74614770D01*
X66785652Y-74753898D01*
X66789499Y-74790499D01*
X66785651Y-74827103D01*
X66771949Y-74966227D01*
X66770541Y-74970866D01*
X66769810Y-74977827D01*
X66749037Y-75041758D01*
X66720691Y-75135206D01*
X66715547Y-75144827D01*
X66711603Y-75156969D01*
X66677299Y-75216384D01*
X66637453Y-75290931D01*
X66626684Y-75304052D01*
X66617423Y-75320094D01*
X66573343Y-75369049D01*
X66525431Y-75427431D01*
X66507600Y-75442064D01*
X66491386Y-75460072D01*
X66441442Y-75496358D01*
X66388931Y-75539453D01*
X66363190Y-75553211D01*
X66338999Y-75570788D01*
X66286974Y-75593950D01*
X66233206Y-75622691D01*
X66199369Y-75632955D01*
X66166923Y-75647401D01*
X66116212Y-75658179D01*
X66064227Y-75673949D01*
X66022850Y-75678024D01*
X65982679Y-75686563D01*
X65936157Y-75686563D01*
X65888499Y-75691257D01*
X65840841Y-75686563D01*
X65794319Y-75686563D01*
X65754147Y-75678024D01*
X65712770Y-75673949D01*
X65660782Y-75658179D01*
X65610075Y-75647401D01*
X65577630Y-75632955D01*
X65543791Y-75622691D01*
X65490017Y-75593948D01*
X65437999Y-75570788D01*
X65413810Y-75553213D01*
X65388066Y-75539453D01*
X65335546Y-75496352D01*
X65285612Y-75460072D01*
X65269400Y-75442067D01*
X65251566Y-75427431D01*
X65203643Y-75369037D01*
X65159575Y-75320094D01*
X65150315Y-75304056D01*
X65139544Y-75290931D01*
X65099685Y-75216361D01*
X65065395Y-75156969D01*
X65061451Y-75144832D01*
X65056306Y-75135206D01*
X65027945Y-75041712D01*
X65007188Y-74977827D01*
X65006456Y-74970871D01*
X65005048Y-74966227D01*
X64991330Y-74826951D01*
X64987499Y-74790499D01*
X64991330Y-74754049D01*
X65005048Y-74614770D01*
X65006457Y-74610124D01*
X65007188Y-74603171D01*
X65027941Y-74539300D01*
X65056306Y-74445791D01*
X65061452Y-74436162D01*
X65065395Y-74424029D01*
X65099677Y-74364649D01*
X65139544Y-74290066D01*
X65150317Y-74276938D01*
X65159575Y-74260904D01*
X65203634Y-74211971D01*
X65251566Y-74153566D01*
X65269403Y-74138926D01*
X65285612Y-74120926D01*
X65335536Y-74084653D01*
X65388066Y-74041544D01*
X65413815Y-74027780D01*
X65437999Y-74010210D01*
X65490006Y-73987054D01*
X65543791Y-73958306D01*
X65577637Y-73948038D01*
X65610075Y-73933597D01*
X65660771Y-73922821D01*
X65712770Y-73907048D01*
X65754156Y-73902971D01*
X65794319Y-73894435D01*
X65840830Y-73894435D01*
X65888499Y-73889740D01*
X65936167Y-73894435D01*
G37*
G36*
X54717016Y-73858631D02*
G01*
X54733561Y-73869687D01*
X54744617Y-73886232D01*
X54748499Y-73905749D01*
X54748499Y-75605749D01*
X54744617Y-75625266D01*
X54733561Y-75641811D01*
X54717016Y-75652867D01*
X54697499Y-75656749D01*
X52997499Y-75656749D01*
X52977982Y-75652867D01*
X52961437Y-75641811D01*
X52950381Y-75625266D01*
X52946499Y-75605749D01*
X52946499Y-73905749D01*
X52950381Y-73886232D01*
X52961437Y-73869687D01*
X52977982Y-73858631D01*
X52997499Y-73854749D01*
X54697499Y-73854749D01*
X54717016Y-73858631D01*
G37*
G36*
X128982017Y-72604882D02*
G01*
X128998562Y-72615938D01*
X129009618Y-72632483D01*
X129013500Y-72652000D01*
X129013500Y-74352000D01*
X129009618Y-74371517D01*
X128998562Y-74388062D01*
X128982017Y-74399118D01*
X128962500Y-74403000D01*
X127262500Y-74403000D01*
X127242983Y-74399118D01*
X127226438Y-74388062D01*
X127215382Y-74371517D01*
X127211500Y-74352000D01*
X127211500Y-72652000D01*
X127215382Y-72632483D01*
X127226438Y-72615938D01*
X127242983Y-72604882D01*
X127262500Y-72601000D01*
X128962500Y-72601000D01*
X128982017Y-72604882D01*
G37*
G36*
X116086017Y-72603282D02*
G01*
X116102562Y-72614338D01*
X116113618Y-72630883D01*
X116117500Y-72650400D01*
X116117500Y-74350400D01*
X116113618Y-74369917D01*
X116102562Y-74386462D01*
X116086017Y-74397518D01*
X116066500Y-74401400D01*
X114366500Y-74401400D01*
X114346983Y-74397518D01*
X114330438Y-74386462D01*
X114319382Y-74369917D01*
X114315500Y-74350400D01*
X114315500Y-72650400D01*
X114319382Y-72630883D01*
X114330438Y-72614338D01*
X114346983Y-72603282D01*
X114366500Y-72599400D01*
X116066500Y-72599400D01*
X116086017Y-72603282D01*
G37*
G36*
X141069517Y-72577882D02*
G01*
X141086062Y-72588938D01*
X141097118Y-72605483D01*
X141101000Y-72625000D01*
X141101000Y-74325000D01*
X141097118Y-74344517D01*
X141086062Y-74361062D01*
X141069517Y-74372118D01*
X141050000Y-74376000D01*
X139350000Y-74376000D01*
X139330483Y-74372118D01*
X139313938Y-74361062D01*
X139302882Y-74344517D01*
X139299000Y-74325000D01*
X139299000Y-72625000D01*
X139302882Y-72605483D01*
X139313938Y-72588938D01*
X139330483Y-72577882D01*
X139350000Y-72574000D01*
X141050000Y-72574000D01*
X141069517Y-72577882D01*
G37*
G36*
X104063017Y-72339282D02*
G01*
X104079562Y-72350338D01*
X104090618Y-72366883D01*
X104094500Y-72386400D01*
X104094500Y-74086400D01*
X104090618Y-74105917D01*
X104079562Y-74122462D01*
X104063017Y-74133518D01*
X104043500Y-74137400D01*
X102343500Y-74137400D01*
X102323983Y-74133518D01*
X102307438Y-74122462D01*
X102296382Y-74105917D01*
X102292500Y-74086400D01*
X102292500Y-72386400D01*
X102296382Y-72366883D01*
X102307438Y-72350338D01*
X102323983Y-72339282D01*
X102343500Y-72335400D01*
X104043500Y-72335400D01*
X104063017Y-72339282D01*
G37*
G36*
X75934517Y-71902882D02*
G01*
X75951062Y-71913938D01*
X75962118Y-71930483D01*
X75966000Y-71950000D01*
X75966000Y-73650000D01*
X75962118Y-73669517D01*
X75951062Y-73686062D01*
X75934517Y-73697118D01*
X75915000Y-73701000D01*
X74215000Y-73701000D01*
X74195483Y-73697118D01*
X74178938Y-73686062D01*
X74167882Y-73669517D01*
X74164000Y-73650000D01*
X74164000Y-71950000D01*
X74167882Y-71930483D01*
X74178938Y-71913938D01*
X74195483Y-71902882D01*
X74215000Y-71899000D01*
X75915000Y-71899000D01*
X75934517Y-71902882D01*
G37*
G36*
X77652668Y-71903936D02*
G01*
X77699180Y-71903936D01*
X77739343Y-71912472D01*
X77780728Y-71916549D01*
X77832724Y-71932321D01*
X77883424Y-71943098D01*
X77915863Y-71957540D01*
X77949707Y-71967807D01*
X78003486Y-71996553D01*
X78055500Y-72019711D01*
X78079686Y-72037283D01*
X78105432Y-72051045D01*
X78157953Y-72094148D01*
X78207887Y-72130427D01*
X78224097Y-72148431D01*
X78241932Y-72163067D01*
X78289853Y-72221459D01*
X78333924Y-72270405D01*
X78343183Y-72286443D01*
X78353954Y-72299567D01*
X78393807Y-72374126D01*
X78428104Y-72433530D01*
X78432048Y-72445668D01*
X78437192Y-72455292D01*
X78465542Y-72548754D01*
X78486311Y-72612672D01*
X78487042Y-72619630D01*
X78488450Y-72624271D01*
X78502153Y-72763399D01*
X78506000Y-72800000D01*
X78502152Y-72836604D01*
X78488450Y-72975728D01*
X78487042Y-72980367D01*
X78486311Y-72987328D01*
X78465538Y-73051259D01*
X78437192Y-73144707D01*
X78432048Y-73154328D01*
X78428104Y-73166470D01*
X78393800Y-73225885D01*
X78353954Y-73300432D01*
X78343185Y-73313553D01*
X78333924Y-73329595D01*
X78289844Y-73378550D01*
X78241932Y-73436932D01*
X78224101Y-73451565D01*
X78207887Y-73469573D01*
X78157943Y-73505859D01*
X78105432Y-73548954D01*
X78079691Y-73562712D01*
X78055500Y-73580289D01*
X78003475Y-73603451D01*
X77949707Y-73632192D01*
X77915870Y-73642456D01*
X77883424Y-73656902D01*
X77832713Y-73667680D01*
X77780728Y-73683450D01*
X77739351Y-73687525D01*
X77699180Y-73696064D01*
X77652658Y-73696064D01*
X77605000Y-73700758D01*
X77557342Y-73696064D01*
X77510820Y-73696064D01*
X77470648Y-73687525D01*
X77429271Y-73683450D01*
X77377283Y-73667680D01*
X77326576Y-73656902D01*
X77294131Y-73642456D01*
X77260292Y-73632192D01*
X77206518Y-73603449D01*
X77154500Y-73580289D01*
X77130311Y-73562714D01*
X77104567Y-73548954D01*
X77052047Y-73505853D01*
X77002113Y-73469573D01*
X76985901Y-73451568D01*
X76968067Y-73436932D01*
X76920144Y-73378538D01*
X76876076Y-73329595D01*
X76866816Y-73313557D01*
X76856045Y-73300432D01*
X76816186Y-73225862D01*
X76781896Y-73166470D01*
X76777952Y-73154333D01*
X76772807Y-73144707D01*
X76744446Y-73051213D01*
X76723689Y-72987328D01*
X76722957Y-72980372D01*
X76721549Y-72975728D01*
X76707831Y-72836452D01*
X76704000Y-72800000D01*
X76707831Y-72763550D01*
X76721549Y-72624271D01*
X76722958Y-72619625D01*
X76723689Y-72612672D01*
X76744442Y-72548801D01*
X76772807Y-72455292D01*
X76777953Y-72445663D01*
X76781896Y-72433530D01*
X76816178Y-72374150D01*
X76856045Y-72299567D01*
X76866818Y-72286439D01*
X76876076Y-72270405D01*
X76920135Y-72221472D01*
X76968067Y-72163067D01*
X76985904Y-72148427D01*
X77002113Y-72130427D01*
X77052037Y-72094154D01*
X77104567Y-72051045D01*
X77130316Y-72037281D01*
X77154500Y-72019711D01*
X77206507Y-71996555D01*
X77260292Y-71967807D01*
X77294138Y-71957539D01*
X77326576Y-71943098D01*
X77377272Y-71932322D01*
X77429271Y-71916549D01*
X77470657Y-71912472D01*
X77510820Y-71903936D01*
X77557331Y-71903936D01*
X77605000Y-71899241D01*
X77652668Y-71903936D01*
G37*
G36*
X31492234Y-67918006D02*
G01*
X31702867Y-67974445D01*
X31900500Y-68066602D01*
X32079127Y-68191678D01*
X32233322Y-68345873D01*
X32358398Y-68524500D01*
X32450555Y-68722133D01*
X32506994Y-68932766D01*
X32526000Y-69150000D01*
X32506994Y-69367234D01*
X32450555Y-69577867D01*
X32358398Y-69775500D01*
X32233322Y-69954127D01*
X32079127Y-70108322D01*
X31900500Y-70233398D01*
X31702867Y-70325555D01*
X31492234Y-70381994D01*
X31275000Y-70401000D01*
X31057766Y-70381994D01*
X30847133Y-70325555D01*
X30649500Y-70233398D01*
X30470873Y-70108322D01*
X30316678Y-69954127D01*
X30191602Y-69775500D01*
X30099445Y-69577867D01*
X30043006Y-69367234D01*
X30024000Y-69150000D01*
X30043006Y-68932766D01*
X30099445Y-68722133D01*
X30191602Y-68524500D01*
X30316678Y-68345873D01*
X30470873Y-68191678D01*
X30649500Y-68066602D01*
X30847133Y-67974445D01*
X31057766Y-67918006D01*
X31275000Y-67899000D01*
X31492234Y-67918006D01*
G37*
G36*
X34892234Y-67918006D02*
G01*
X35102867Y-67974445D01*
X35300500Y-68066602D01*
X35479127Y-68191678D01*
X35633322Y-68345873D01*
X35758398Y-68524500D01*
X35850555Y-68722133D01*
X35906994Y-68932766D01*
X35926000Y-69150000D01*
X35906994Y-69367234D01*
X35850555Y-69577867D01*
X35758398Y-69775500D01*
X35633322Y-69954127D01*
X35479127Y-70108322D01*
X35300500Y-70233398D01*
X35102867Y-70325555D01*
X34892234Y-70381994D01*
X34675000Y-70401000D01*
X34457766Y-70381994D01*
X34247133Y-70325555D01*
X34049500Y-70233398D01*
X33870873Y-70108322D01*
X33716678Y-69954127D01*
X33591602Y-69775500D01*
X33499445Y-69577867D01*
X33443006Y-69367234D01*
X33424000Y-69150000D01*
X33443006Y-68932766D01*
X33499445Y-68722133D01*
X33591602Y-68524500D01*
X33716678Y-68345873D01*
X33870873Y-68191678D01*
X34049500Y-68066602D01*
X34247133Y-67974445D01*
X34457766Y-67918006D01*
X34675000Y-67899000D01*
X34892234Y-67918006D01*
G37*
G36*
X75944517Y-68227882D02*
G01*
X75961062Y-68238938D01*
X75972118Y-68255483D01*
X75976000Y-68275000D01*
X75976000Y-69975000D01*
X75972118Y-69994517D01*
X75961062Y-70011062D01*
X75944517Y-70022118D01*
X75925000Y-70026000D01*
X74225000Y-70026000D01*
X74205483Y-70022118D01*
X74188938Y-70011062D01*
X74177882Y-69994517D01*
X74174000Y-69975000D01*
X74174000Y-68275000D01*
X74177882Y-68255483D01*
X74188938Y-68238938D01*
X74205483Y-68227882D01*
X74225000Y-68224000D01*
X75925000Y-68224000D01*
X75944517Y-68227882D01*
G37*
G36*
X77662668Y-68228936D02*
G01*
X77709180Y-68228936D01*
X77749343Y-68237472D01*
X77790728Y-68241549D01*
X77842724Y-68257321D01*
X77893424Y-68268098D01*
X77925863Y-68282540D01*
X77959707Y-68292807D01*
X78013486Y-68321553D01*
X78065500Y-68344711D01*
X78089686Y-68362283D01*
X78115432Y-68376045D01*
X78167953Y-68419148D01*
X78217887Y-68455427D01*
X78234097Y-68473431D01*
X78251932Y-68488067D01*
X78299853Y-68546459D01*
X78343924Y-68595405D01*
X78353183Y-68611443D01*
X78363954Y-68624567D01*
X78403807Y-68699126D01*
X78438104Y-68758530D01*
X78442048Y-68770668D01*
X78447192Y-68780292D01*
X78475542Y-68873754D01*
X78496311Y-68937672D01*
X78497042Y-68944630D01*
X78498450Y-68949271D01*
X78512153Y-69088399D01*
X78516000Y-69125000D01*
X78512152Y-69161604D01*
X78498450Y-69300728D01*
X78497042Y-69305367D01*
X78496311Y-69312328D01*
X78475538Y-69376259D01*
X78447192Y-69469707D01*
X78442048Y-69479328D01*
X78438104Y-69491470D01*
X78403800Y-69550885D01*
X78363954Y-69625432D01*
X78353185Y-69638553D01*
X78343924Y-69654595D01*
X78299844Y-69703550D01*
X78251932Y-69761932D01*
X78234101Y-69776565D01*
X78217887Y-69794573D01*
X78167943Y-69830859D01*
X78115432Y-69873954D01*
X78089691Y-69887712D01*
X78065500Y-69905289D01*
X78013475Y-69928451D01*
X77959707Y-69957192D01*
X77925870Y-69967456D01*
X77893424Y-69981902D01*
X77842713Y-69992680D01*
X77790728Y-70008450D01*
X77749351Y-70012525D01*
X77709180Y-70021064D01*
X77662658Y-70021064D01*
X77615000Y-70025758D01*
X77567342Y-70021064D01*
X77520820Y-70021064D01*
X77480648Y-70012525D01*
X77439271Y-70008450D01*
X77387283Y-69992680D01*
X77336576Y-69981902D01*
X77304131Y-69967456D01*
X77270292Y-69957192D01*
X77216518Y-69928449D01*
X77164500Y-69905289D01*
X77140311Y-69887714D01*
X77114567Y-69873954D01*
X77062047Y-69830853D01*
X77012113Y-69794573D01*
X76995901Y-69776568D01*
X76978067Y-69761932D01*
X76930144Y-69703538D01*
X76886076Y-69654595D01*
X76876816Y-69638557D01*
X76866045Y-69625432D01*
X76826186Y-69550862D01*
X76791896Y-69491470D01*
X76787952Y-69479333D01*
X76782807Y-69469707D01*
X76754446Y-69376213D01*
X76733689Y-69312328D01*
X76732957Y-69305372D01*
X76731549Y-69300728D01*
X76717831Y-69161452D01*
X76714000Y-69125000D01*
X76717831Y-69088550D01*
X76731549Y-68949271D01*
X76732958Y-68944625D01*
X76733689Y-68937672D01*
X76754442Y-68873801D01*
X76782807Y-68780292D01*
X76787953Y-68770663D01*
X76791896Y-68758530D01*
X76826178Y-68699150D01*
X76866045Y-68624567D01*
X76876818Y-68611439D01*
X76886076Y-68595405D01*
X76930135Y-68546472D01*
X76978067Y-68488067D01*
X76995904Y-68473427D01*
X77012113Y-68455427D01*
X77062037Y-68419154D01*
X77114567Y-68376045D01*
X77140316Y-68362281D01*
X77164500Y-68344711D01*
X77216507Y-68321555D01*
X77270292Y-68292807D01*
X77304138Y-68282539D01*
X77336576Y-68268098D01*
X77387272Y-68257322D01*
X77439271Y-68241549D01*
X77480657Y-68237472D01*
X77520820Y-68228936D01*
X77567331Y-68228936D01*
X77615000Y-68224241D01*
X77662668Y-68228936D01*
G37*
G36*
X100380017Y-67767282D02*
G01*
X100396562Y-67778338D01*
X100407618Y-67794883D01*
X100411500Y-67814400D01*
X100411500Y-69514400D01*
X100407618Y-69533917D01*
X100396562Y-69550462D01*
X100380017Y-69561518D01*
X100360500Y-69565400D01*
X98660500Y-69565400D01*
X98640983Y-69561518D01*
X98624438Y-69550462D01*
X98613382Y-69533917D01*
X98609500Y-69514400D01*
X98609500Y-67814400D01*
X98613382Y-67794883D01*
X98624438Y-67778338D01*
X98640983Y-67767282D01*
X98660500Y-67763400D01*
X100360500Y-67763400D01*
X100380017Y-67767282D01*
G37*
G36*
X112826017Y-67767282D02*
G01*
X112842562Y-67778338D01*
X112853618Y-67794883D01*
X112857500Y-67814400D01*
X112857500Y-69514400D01*
X112853618Y-69533917D01*
X112842562Y-69550462D01*
X112826017Y-69561518D01*
X112806500Y-69565400D01*
X111106500Y-69565400D01*
X111086983Y-69561518D01*
X111070438Y-69550462D01*
X111059382Y-69533917D01*
X111055500Y-69514400D01*
X111055500Y-67814400D01*
X111059382Y-67794883D01*
X111070438Y-67778338D01*
X111086983Y-67767282D01*
X111106500Y-67763400D01*
X112806500Y-67763400D01*
X112826017Y-67767282D01*
G37*
G36*
X125235517Y-67397882D02*
G01*
X125252062Y-67408938D01*
X125263118Y-67425483D01*
X125267000Y-67445000D01*
X125267000Y-69145000D01*
X125263118Y-69164517D01*
X125252062Y-69181062D01*
X125235517Y-69192118D01*
X125216000Y-69196000D01*
X123516000Y-69196000D01*
X123496483Y-69192118D01*
X123479938Y-69181062D01*
X123468882Y-69164517D01*
X123465000Y-69145000D01*
X123465000Y-67445000D01*
X123468882Y-67425483D01*
X123479938Y-67408938D01*
X123496483Y-67397882D01*
X123516000Y-67394000D01*
X125216000Y-67394000D01*
X125235517Y-67397882D01*
G37*
G36*
X137681517Y-67397882D02*
G01*
X137698062Y-67408938D01*
X137709118Y-67425483D01*
X137713000Y-67445000D01*
X137713000Y-69145000D01*
X137709118Y-69164517D01*
X137698062Y-69181062D01*
X137681517Y-69192118D01*
X137662000Y-69196000D01*
X135962000Y-69196000D01*
X135942483Y-69192118D01*
X135925938Y-69181062D01*
X135914882Y-69164517D01*
X135911000Y-69145000D01*
X135911000Y-67445000D01*
X135914882Y-67425483D01*
X135925938Y-67408938D01*
X135942483Y-67397882D01*
X135962000Y-67394000D01*
X137662000Y-67394000D01*
X137681517Y-67397882D01*
G37*
G36*
X99558168Y-65228336D02*
G01*
X99604680Y-65228336D01*
X99644843Y-65236872D01*
X99686228Y-65240949D01*
X99738224Y-65256721D01*
X99788924Y-65267498D01*
X99821363Y-65281940D01*
X99855207Y-65292207D01*
X99908986Y-65320953D01*
X99961000Y-65344111D01*
X99985186Y-65361683D01*
X100010932Y-65375445D01*
X100063453Y-65418548D01*
X100113387Y-65454827D01*
X100129597Y-65472831D01*
X100147432Y-65487467D01*
X100195353Y-65545859D01*
X100239424Y-65594805D01*
X100248683Y-65610843D01*
X100259454Y-65623967D01*
X100299307Y-65698526D01*
X100333604Y-65757930D01*
X100337548Y-65770068D01*
X100342692Y-65779692D01*
X100371042Y-65873154D01*
X100391811Y-65937072D01*
X100392542Y-65944030D01*
X100393950Y-65948671D01*
X100407653Y-66087799D01*
X100411500Y-66124400D01*
X100407652Y-66161004D01*
X100393950Y-66300128D01*
X100392542Y-66304767D01*
X100391811Y-66311728D01*
X100371044Y-66375642D01*
X100342692Y-66469107D01*
X100337548Y-66478728D01*
X100333604Y-66490870D01*
X100299300Y-66550285D01*
X100259454Y-66624832D01*
X100248685Y-66637953D01*
X100239424Y-66653995D01*
X100195344Y-66702950D01*
X100147432Y-66761332D01*
X100129601Y-66775965D01*
X100113387Y-66793973D01*
X100063443Y-66830259D01*
X100010932Y-66873354D01*
X99985191Y-66887112D01*
X99961000Y-66904689D01*
X99908975Y-66927851D01*
X99855207Y-66956592D01*
X99821370Y-66966856D01*
X99788924Y-66981302D01*
X99738213Y-66992080D01*
X99686228Y-67007850D01*
X99644851Y-67011925D01*
X99604680Y-67020464D01*
X99558158Y-67020464D01*
X99510500Y-67025158D01*
X99462842Y-67020464D01*
X99416320Y-67020464D01*
X99376148Y-67011925D01*
X99334771Y-67007850D01*
X99282783Y-66992080D01*
X99232076Y-66981302D01*
X99199631Y-66966856D01*
X99165792Y-66956592D01*
X99112018Y-66927849D01*
X99060000Y-66904689D01*
X99035811Y-66887114D01*
X99010067Y-66873354D01*
X98957547Y-66830253D01*
X98907613Y-66793973D01*
X98891401Y-66775968D01*
X98873567Y-66761332D01*
X98825644Y-66702938D01*
X98781576Y-66653995D01*
X98772316Y-66637957D01*
X98761545Y-66624832D01*
X98721686Y-66550262D01*
X98687396Y-66490870D01*
X98683452Y-66478733D01*
X98678307Y-66469107D01*
X98649946Y-66375613D01*
X98629189Y-66311728D01*
X98628457Y-66304772D01*
X98627049Y-66300128D01*
X98613331Y-66160852D01*
X98609500Y-66124400D01*
X98613331Y-66087950D01*
X98627049Y-65948671D01*
X98628458Y-65944025D01*
X98629189Y-65937072D01*
X98649942Y-65873201D01*
X98678307Y-65779692D01*
X98683453Y-65770063D01*
X98687396Y-65757930D01*
X98721678Y-65698550D01*
X98761545Y-65623967D01*
X98772318Y-65610839D01*
X98781576Y-65594805D01*
X98825635Y-65545872D01*
X98873567Y-65487467D01*
X98891404Y-65472827D01*
X98907613Y-65454827D01*
X98957537Y-65418554D01*
X99010067Y-65375445D01*
X99035816Y-65361681D01*
X99060000Y-65344111D01*
X99112007Y-65320955D01*
X99165792Y-65292207D01*
X99199638Y-65281939D01*
X99232076Y-65267498D01*
X99282772Y-65256722D01*
X99334771Y-65240949D01*
X99376157Y-65236872D01*
X99416320Y-65228336D01*
X99462831Y-65228336D01*
X99510500Y-65223641D01*
X99558168Y-65228336D01*
G37*
G36*
X112004168Y-65228336D02*
G01*
X112050680Y-65228336D01*
X112090843Y-65236872D01*
X112132228Y-65240949D01*
X112184224Y-65256721D01*
X112234924Y-65267498D01*
X112267363Y-65281940D01*
X112301207Y-65292207D01*
X112354986Y-65320953D01*
X112407000Y-65344111D01*
X112431186Y-65361683D01*
X112456932Y-65375445D01*
X112509453Y-65418548D01*
X112559387Y-65454827D01*
X112575597Y-65472831D01*
X112593432Y-65487467D01*
X112641353Y-65545859D01*
X112685424Y-65594805D01*
X112694683Y-65610843D01*
X112705454Y-65623967D01*
X112745307Y-65698526D01*
X112779604Y-65757930D01*
X112783548Y-65770068D01*
X112788692Y-65779692D01*
X112817042Y-65873154D01*
X112837811Y-65937072D01*
X112838542Y-65944030D01*
X112839950Y-65948671D01*
X112853653Y-66087799D01*
X112857500Y-66124400D01*
X112853652Y-66161004D01*
X112839950Y-66300128D01*
X112838542Y-66304767D01*
X112837811Y-66311728D01*
X112817044Y-66375642D01*
X112788692Y-66469107D01*
X112783548Y-66478728D01*
X112779604Y-66490870D01*
X112745300Y-66550285D01*
X112705454Y-66624832D01*
X112694685Y-66637953D01*
X112685424Y-66653995D01*
X112641344Y-66702950D01*
X112593432Y-66761332D01*
X112575601Y-66775965D01*
X112559387Y-66793973D01*
X112509443Y-66830259D01*
X112456932Y-66873354D01*
X112431191Y-66887112D01*
X112407000Y-66904689D01*
X112354975Y-66927851D01*
X112301207Y-66956592D01*
X112267370Y-66966856D01*
X112234924Y-66981302D01*
X112184213Y-66992080D01*
X112132228Y-67007850D01*
X112090851Y-67011925D01*
X112050680Y-67020464D01*
X112004158Y-67020464D01*
X111956500Y-67025158D01*
X111908842Y-67020464D01*
X111862320Y-67020464D01*
X111822148Y-67011925D01*
X111780771Y-67007850D01*
X111728783Y-66992080D01*
X111678076Y-66981302D01*
X111645631Y-66966856D01*
X111611792Y-66956592D01*
X111558018Y-66927849D01*
X111506000Y-66904689D01*
X111481811Y-66887114D01*
X111456067Y-66873354D01*
X111403547Y-66830253D01*
X111353613Y-66793973D01*
X111337401Y-66775968D01*
X111319567Y-66761332D01*
X111271644Y-66702938D01*
X111227576Y-66653995D01*
X111218316Y-66637957D01*
X111207545Y-66624832D01*
X111167686Y-66550262D01*
X111133396Y-66490870D01*
X111129452Y-66478733D01*
X111124307Y-66469107D01*
X111095946Y-66375613D01*
X111075189Y-66311728D01*
X111074457Y-66304772D01*
X111073049Y-66300128D01*
X111059331Y-66160852D01*
X111055500Y-66124400D01*
X111059331Y-66087950D01*
X111073049Y-65948671D01*
X111074458Y-65944025D01*
X111075189Y-65937072D01*
X111095942Y-65873201D01*
X111124307Y-65779692D01*
X111129453Y-65770063D01*
X111133396Y-65757930D01*
X111167678Y-65698550D01*
X111207545Y-65623967D01*
X111218318Y-65610839D01*
X111227576Y-65594805D01*
X111271635Y-65545872D01*
X111319567Y-65487467D01*
X111337404Y-65472827D01*
X111353613Y-65454827D01*
X111403537Y-65418554D01*
X111456067Y-65375445D01*
X111481816Y-65361681D01*
X111506000Y-65344111D01*
X111558007Y-65320955D01*
X111611792Y-65292207D01*
X111645638Y-65281939D01*
X111678076Y-65267498D01*
X111728772Y-65256722D01*
X111780771Y-65240949D01*
X111822157Y-65236872D01*
X111862320Y-65228336D01*
X111908831Y-65228336D01*
X111956500Y-65223641D01*
X112004168Y-65228336D01*
G37*
G36*
X124413668Y-64858936D02*
G01*
X124460180Y-64858936D01*
X124500343Y-64867472D01*
X124541728Y-64871549D01*
X124593724Y-64887321D01*
X124644424Y-64898098D01*
X124676863Y-64912540D01*
X124710707Y-64922807D01*
X124764486Y-64951553D01*
X124816500Y-64974711D01*
X124840686Y-64992283D01*
X124866432Y-65006045D01*
X124918953Y-65049148D01*
X124968887Y-65085427D01*
X124985097Y-65103431D01*
X125002932Y-65118067D01*
X125050853Y-65176459D01*
X125094924Y-65225405D01*
X125104183Y-65241443D01*
X125114954Y-65254567D01*
X125154807Y-65329126D01*
X125189104Y-65388530D01*
X125193048Y-65400668D01*
X125198192Y-65410292D01*
X125226542Y-65503754D01*
X125247311Y-65567672D01*
X125248042Y-65574630D01*
X125249450Y-65579271D01*
X125263153Y-65718399D01*
X125267000Y-65755000D01*
X125263152Y-65791604D01*
X125249450Y-65930728D01*
X125248042Y-65935367D01*
X125247311Y-65942328D01*
X125226538Y-66006259D01*
X125198192Y-66099707D01*
X125193048Y-66109328D01*
X125189104Y-66121470D01*
X125154800Y-66180885D01*
X125114954Y-66255432D01*
X125104185Y-66268553D01*
X125094924Y-66284595D01*
X125050844Y-66333550D01*
X125002932Y-66391932D01*
X124985101Y-66406565D01*
X124968887Y-66424573D01*
X124918943Y-66460859D01*
X124866432Y-66503954D01*
X124840691Y-66517712D01*
X124816500Y-66535289D01*
X124764475Y-66558451D01*
X124710707Y-66587192D01*
X124676870Y-66597456D01*
X124644424Y-66611902D01*
X124593713Y-66622680D01*
X124541728Y-66638450D01*
X124500351Y-66642525D01*
X124460180Y-66651064D01*
X124413658Y-66651064D01*
X124366000Y-66655758D01*
X124318342Y-66651064D01*
X124271820Y-66651064D01*
X124231648Y-66642525D01*
X124190271Y-66638450D01*
X124138283Y-66622680D01*
X124087576Y-66611902D01*
X124055131Y-66597456D01*
X124021292Y-66587192D01*
X123967518Y-66558449D01*
X123915500Y-66535289D01*
X123891311Y-66517714D01*
X123865567Y-66503954D01*
X123813047Y-66460853D01*
X123763113Y-66424573D01*
X123746901Y-66406568D01*
X123729067Y-66391932D01*
X123681144Y-66333538D01*
X123637076Y-66284595D01*
X123627816Y-66268557D01*
X123617045Y-66255432D01*
X123577186Y-66180862D01*
X123542896Y-66121470D01*
X123538952Y-66109333D01*
X123533807Y-66099707D01*
X123505446Y-66006213D01*
X123484689Y-65942328D01*
X123483957Y-65935372D01*
X123482549Y-65930728D01*
X123468831Y-65791452D01*
X123465000Y-65755000D01*
X123468831Y-65718550D01*
X123482549Y-65579271D01*
X123483958Y-65574625D01*
X123484689Y-65567672D01*
X123505442Y-65503801D01*
X123533807Y-65410292D01*
X123538953Y-65400663D01*
X123542896Y-65388530D01*
X123577178Y-65329150D01*
X123617045Y-65254567D01*
X123627818Y-65241439D01*
X123637076Y-65225405D01*
X123681135Y-65176472D01*
X123729067Y-65118067D01*
X123746904Y-65103427D01*
X123763113Y-65085427D01*
X123813037Y-65049154D01*
X123865567Y-65006045D01*
X123891316Y-64992281D01*
X123915500Y-64974711D01*
X123967507Y-64951555D01*
X124021292Y-64922807D01*
X124055138Y-64912539D01*
X124087576Y-64898098D01*
X124138272Y-64887322D01*
X124190271Y-64871549D01*
X124231657Y-64867472D01*
X124271820Y-64858936D01*
X124318331Y-64858936D01*
X124366000Y-64854241D01*
X124413668Y-64858936D01*
G37*
G36*
X136859668Y-64858936D02*
G01*
X136906180Y-64858936D01*
X136946343Y-64867472D01*
X136987728Y-64871549D01*
X137039724Y-64887321D01*
X137090424Y-64898098D01*
X137122863Y-64912540D01*
X137156707Y-64922807D01*
X137210486Y-64951553D01*
X137262500Y-64974711D01*
X137286686Y-64992283D01*
X137312432Y-65006045D01*
X137364953Y-65049148D01*
X137414887Y-65085427D01*
X137431097Y-65103431D01*
X137448932Y-65118067D01*
X137496853Y-65176459D01*
X137540924Y-65225405D01*
X137550183Y-65241443D01*
X137560954Y-65254567D01*
X137600807Y-65329126D01*
X137635104Y-65388530D01*
X137639048Y-65400668D01*
X137644192Y-65410292D01*
X137672542Y-65503754D01*
X137693311Y-65567672D01*
X137694042Y-65574630D01*
X137695450Y-65579271D01*
X137709153Y-65718399D01*
X137713000Y-65755000D01*
X137709152Y-65791604D01*
X137695450Y-65930728D01*
X137694042Y-65935367D01*
X137693311Y-65942328D01*
X137672538Y-66006259D01*
X137644192Y-66099707D01*
X137639048Y-66109328D01*
X137635104Y-66121470D01*
X137600800Y-66180885D01*
X137560954Y-66255432D01*
X137550185Y-66268553D01*
X137540924Y-66284595D01*
X137496844Y-66333550D01*
X137448932Y-66391932D01*
X137431101Y-66406565D01*
X137414887Y-66424573D01*
X137364943Y-66460859D01*
X137312432Y-66503954D01*
X137286691Y-66517712D01*
X137262500Y-66535289D01*
X137210475Y-66558451D01*
X137156707Y-66587192D01*
X137122870Y-66597456D01*
X137090424Y-66611902D01*
X137039713Y-66622680D01*
X136987728Y-66638450D01*
X136946351Y-66642525D01*
X136906180Y-66651064D01*
X136859658Y-66651064D01*
X136812000Y-66655758D01*
X136764342Y-66651064D01*
X136717820Y-66651064D01*
X136677648Y-66642525D01*
X136636271Y-66638450D01*
X136584283Y-66622680D01*
X136533576Y-66611902D01*
X136501131Y-66597456D01*
X136467292Y-66587192D01*
X136413518Y-66558449D01*
X136361500Y-66535289D01*
X136337311Y-66517714D01*
X136311567Y-66503954D01*
X136259047Y-66460853D01*
X136209113Y-66424573D01*
X136192901Y-66406568D01*
X136175067Y-66391932D01*
X136127144Y-66333538D01*
X136083076Y-66284595D01*
X136073816Y-66268557D01*
X136063045Y-66255432D01*
X136023186Y-66180862D01*
X135988896Y-66121470D01*
X135984952Y-66109333D01*
X135979807Y-66099707D01*
X135951446Y-66006213D01*
X135930689Y-65942328D01*
X135929957Y-65935372D01*
X135928549Y-65930728D01*
X135914831Y-65791452D01*
X135911000Y-65755000D01*
X135914831Y-65718550D01*
X135928549Y-65579271D01*
X135929958Y-65574625D01*
X135930689Y-65567672D01*
X135951442Y-65503801D01*
X135979807Y-65410292D01*
X135984953Y-65400663D01*
X135988896Y-65388530D01*
X136023178Y-65329150D01*
X136063045Y-65254567D01*
X136073818Y-65241439D01*
X136083076Y-65225405D01*
X136127135Y-65176472D01*
X136175067Y-65118067D01*
X136192904Y-65103427D01*
X136209113Y-65085427D01*
X136259037Y-65049154D01*
X136311567Y-65006045D01*
X136337316Y-64992281D01*
X136361500Y-64974711D01*
X136413507Y-64951555D01*
X136467292Y-64922807D01*
X136501138Y-64912539D01*
X136533576Y-64898098D01*
X136584272Y-64887322D01*
X136636271Y-64871549D01*
X136677657Y-64867472D01*
X136717820Y-64858936D01*
X136764331Y-64858936D01*
X136812000Y-64854241D01*
X136859668Y-64858936D01*
G37*
G36*
X67746517Y-64672882D02*
G01*
X67763062Y-64683938D01*
X67774118Y-64700483D01*
X67778000Y-64720000D01*
X67778000Y-66420000D01*
X67774118Y-66439517D01*
X67763062Y-66456062D01*
X67746517Y-66467118D01*
X67727000Y-66471000D01*
X66027000Y-66471000D01*
X66007483Y-66467118D01*
X65990938Y-66456062D01*
X65979882Y-66439517D01*
X65976000Y-66420000D01*
X65976000Y-64720000D01*
X65979882Y-64700483D01*
X65990938Y-64683938D01*
X66007483Y-64672882D01*
X66027000Y-64669000D01*
X67727000Y-64669000D01*
X67746517Y-64672882D01*
G37*
G36*
X58158017Y-64609382D02*
G01*
X58174562Y-64620438D01*
X58185618Y-64636983D01*
X58189500Y-64656500D01*
X58189500Y-66356500D01*
X58185618Y-66376017D01*
X58174562Y-66392562D01*
X58158017Y-66403618D01*
X58138500Y-66407500D01*
X56438500Y-66407500D01*
X56418983Y-66403618D01*
X56402438Y-66392562D01*
X56391382Y-66376017D01*
X56387500Y-66356500D01*
X56387500Y-64656500D01*
X56391382Y-64636983D01*
X56402438Y-64620438D01*
X56418983Y-64609382D01*
X56438500Y-64605500D01*
X58138500Y-64605500D01*
X58158017Y-64609382D01*
G37*
G36*
X90669517Y-62802882D02*
G01*
X90686062Y-62813938D01*
X90697118Y-62830483D01*
X90701000Y-62850000D01*
X90701000Y-64550000D01*
X90697118Y-64569517D01*
X90686062Y-64586062D01*
X90669517Y-64597118D01*
X90650000Y-64601000D01*
X88950000Y-64601000D01*
X88930483Y-64597118D01*
X88913938Y-64586062D01*
X88902882Y-64569517D01*
X88899000Y-64550000D01*
X88899000Y-62850000D01*
X88902882Y-62830483D01*
X88913938Y-62813938D01*
X88930483Y-62802882D01*
X88950000Y-62799000D01*
X90650000Y-62799000D01*
X90669517Y-62802882D01*
G37*
G36*
X94369517Y-62802882D02*
G01*
X94386062Y-62813938D01*
X94397118Y-62830483D01*
X94401000Y-62850000D01*
X94401000Y-64550000D01*
X94397118Y-64569517D01*
X94386062Y-64586062D01*
X94369517Y-64597118D01*
X94350000Y-64601000D01*
X92650000Y-64601000D01*
X92630483Y-64597118D01*
X92613938Y-64586062D01*
X92602882Y-64569517D01*
X92599000Y-64550000D01*
X92599000Y-62850000D01*
X92602882Y-62830483D01*
X92613938Y-62813938D01*
X92630483Y-62802882D01*
X92650000Y-62799000D01*
X94350000Y-62799000D01*
X94369517Y-62802882D01*
G37*
G36*
X63844016Y-62198381D02*
G01*
X63860561Y-62209437D01*
X63871617Y-62225982D01*
X63875499Y-62245499D01*
X63875499Y-63945499D01*
X63871617Y-63965016D01*
X63860561Y-63981561D01*
X63844016Y-63992617D01*
X63824499Y-63996499D01*
X62124499Y-63996499D01*
X62104982Y-63992617D01*
X62088437Y-63981561D01*
X62077381Y-63965016D01*
X62073499Y-63945499D01*
X62073499Y-62245499D01*
X62077381Y-62225982D01*
X62088437Y-62209437D01*
X62104982Y-62198381D01*
X62124499Y-62194499D01*
X63824499Y-62194499D01*
X63844016Y-62198381D01*
G37*
G36*
X66924668Y-62133936D02*
G01*
X66971180Y-62133936D01*
X67011343Y-62142472D01*
X67052728Y-62146549D01*
X67104724Y-62162321D01*
X67155424Y-62173098D01*
X67187863Y-62187540D01*
X67221707Y-62197807D01*
X67275486Y-62226553D01*
X67327500Y-62249711D01*
X67351686Y-62267283D01*
X67377432Y-62281045D01*
X67429953Y-62324148D01*
X67479887Y-62360427D01*
X67496097Y-62378431D01*
X67513932Y-62393067D01*
X67561853Y-62451459D01*
X67605924Y-62500405D01*
X67615183Y-62516443D01*
X67625954Y-62529567D01*
X67665807Y-62604126D01*
X67700104Y-62663530D01*
X67704048Y-62675668D01*
X67709192Y-62685292D01*
X67737542Y-62778754D01*
X67758311Y-62842672D01*
X67759042Y-62849630D01*
X67760450Y-62854271D01*
X67774153Y-62993399D01*
X67778000Y-63030000D01*
X67774152Y-63066604D01*
X67760450Y-63205728D01*
X67759042Y-63210367D01*
X67758311Y-63217328D01*
X67737538Y-63281259D01*
X67709192Y-63374707D01*
X67704048Y-63384328D01*
X67700104Y-63396470D01*
X67665800Y-63455885D01*
X67625954Y-63530432D01*
X67615185Y-63543553D01*
X67605924Y-63559595D01*
X67561844Y-63608550D01*
X67513932Y-63666932D01*
X67496101Y-63681565D01*
X67479887Y-63699573D01*
X67429943Y-63735859D01*
X67377432Y-63778954D01*
X67351691Y-63792712D01*
X67327500Y-63810289D01*
X67275475Y-63833451D01*
X67221707Y-63862192D01*
X67187870Y-63872456D01*
X67155424Y-63886902D01*
X67104713Y-63897680D01*
X67052728Y-63913450D01*
X67011351Y-63917525D01*
X66971180Y-63926064D01*
X66924658Y-63926064D01*
X66877000Y-63930758D01*
X66829342Y-63926064D01*
X66782820Y-63926064D01*
X66742648Y-63917525D01*
X66701271Y-63913450D01*
X66649283Y-63897680D01*
X66598576Y-63886902D01*
X66566131Y-63872456D01*
X66532292Y-63862192D01*
X66478518Y-63833449D01*
X66426500Y-63810289D01*
X66402311Y-63792714D01*
X66376567Y-63778954D01*
X66324047Y-63735853D01*
X66274113Y-63699573D01*
X66257901Y-63681568D01*
X66240067Y-63666932D01*
X66192144Y-63608538D01*
X66148076Y-63559595D01*
X66138816Y-63543557D01*
X66128045Y-63530432D01*
X66088186Y-63455862D01*
X66053896Y-63396470D01*
X66049952Y-63384333D01*
X66044807Y-63374707D01*
X66016446Y-63281213D01*
X65995689Y-63217328D01*
X65994957Y-63210372D01*
X65993549Y-63205728D01*
X65979831Y-63066452D01*
X65976000Y-63030000D01*
X65979831Y-62993550D01*
X65993549Y-62854271D01*
X65994958Y-62849625D01*
X65995689Y-62842672D01*
X66016442Y-62778801D01*
X66044807Y-62685292D01*
X66049953Y-62675663D01*
X66053896Y-62663530D01*
X66088178Y-62604150D01*
X66128045Y-62529567D01*
X66138818Y-62516439D01*
X66148076Y-62500405D01*
X66192135Y-62451472D01*
X66240067Y-62393067D01*
X66257904Y-62378427D01*
X66274113Y-62360427D01*
X66324037Y-62324154D01*
X66376567Y-62281045D01*
X66402316Y-62267281D01*
X66426500Y-62249711D01*
X66478507Y-62226555D01*
X66532292Y-62197807D01*
X66566138Y-62187539D01*
X66598576Y-62173098D01*
X66649272Y-62162322D01*
X66701271Y-62146549D01*
X66742657Y-62142472D01*
X66782820Y-62133936D01*
X66829331Y-62133936D01*
X66877000Y-62129241D01*
X66924668Y-62133936D01*
G37*
G36*
X54255516Y-62072881D02*
G01*
X54272061Y-62083937D01*
X54283117Y-62100482D01*
X54286999Y-62119999D01*
X54286999Y-63819999D01*
X54283117Y-63839516D01*
X54272061Y-63856061D01*
X54255516Y-63867117D01*
X54235999Y-63870999D01*
X52535999Y-63870999D01*
X52516482Y-63867117D01*
X52499937Y-63856061D01*
X52488881Y-63839516D01*
X52484999Y-63819999D01*
X52484999Y-62119999D01*
X52488881Y-62100482D01*
X52499937Y-62083937D01*
X52516482Y-62072881D01*
X52535999Y-62068999D01*
X54235999Y-62068999D01*
X54255516Y-62072881D01*
G37*
G36*
X57336168Y-62070436D02*
G01*
X57382680Y-62070436D01*
X57422843Y-62078972D01*
X57464228Y-62083049D01*
X57516224Y-62098821D01*
X57566924Y-62109598D01*
X57599363Y-62124040D01*
X57633207Y-62134307D01*
X57686986Y-62163053D01*
X57739000Y-62186211D01*
X57763186Y-62203783D01*
X57788932Y-62217545D01*
X57841453Y-62260648D01*
X57891387Y-62296927D01*
X57907597Y-62314931D01*
X57925432Y-62329567D01*
X57973353Y-62387959D01*
X58017424Y-62436905D01*
X58026683Y-62452943D01*
X58037454Y-62466067D01*
X58077307Y-62540626D01*
X58111604Y-62600030D01*
X58115548Y-62612168D01*
X58120692Y-62621792D01*
X58149042Y-62715254D01*
X58169811Y-62779172D01*
X58170542Y-62786130D01*
X58171950Y-62790771D01*
X58185653Y-62929899D01*
X58189500Y-62966500D01*
X58185652Y-63003104D01*
X58171950Y-63142228D01*
X58170542Y-63146867D01*
X58169811Y-63153828D01*
X58149038Y-63217759D01*
X58120692Y-63311207D01*
X58115548Y-63320828D01*
X58111604Y-63332970D01*
X58077300Y-63392385D01*
X58037454Y-63466932D01*
X58026685Y-63480053D01*
X58017424Y-63496095D01*
X57973344Y-63545050D01*
X57925432Y-63603432D01*
X57907601Y-63618065D01*
X57891387Y-63636073D01*
X57841443Y-63672359D01*
X57788932Y-63715454D01*
X57763191Y-63729212D01*
X57739000Y-63746789D01*
X57686975Y-63769951D01*
X57633207Y-63798692D01*
X57599370Y-63808956D01*
X57566924Y-63823402D01*
X57516213Y-63834180D01*
X57464228Y-63849950D01*
X57422851Y-63854025D01*
X57382680Y-63862564D01*
X57336158Y-63862564D01*
X57288500Y-63867258D01*
X57240842Y-63862564D01*
X57194320Y-63862564D01*
X57154148Y-63854025D01*
X57112771Y-63849950D01*
X57060783Y-63834180D01*
X57010076Y-63823402D01*
X56977631Y-63808956D01*
X56943792Y-63798692D01*
X56890018Y-63769949D01*
X56838000Y-63746789D01*
X56813811Y-63729214D01*
X56788067Y-63715454D01*
X56735547Y-63672353D01*
X56685613Y-63636073D01*
X56669401Y-63618068D01*
X56651567Y-63603432D01*
X56603644Y-63545038D01*
X56559576Y-63496095D01*
X56550316Y-63480057D01*
X56539545Y-63466932D01*
X56499686Y-63392362D01*
X56465396Y-63332970D01*
X56461452Y-63320833D01*
X56456307Y-63311207D01*
X56427946Y-63217713D01*
X56407189Y-63153828D01*
X56406457Y-63146872D01*
X56405049Y-63142228D01*
X56391331Y-63002952D01*
X56387500Y-62966500D01*
X56391331Y-62930050D01*
X56405049Y-62790771D01*
X56406458Y-62786125D01*
X56407189Y-62779172D01*
X56427942Y-62715301D01*
X56456307Y-62621792D01*
X56461453Y-62612163D01*
X56465396Y-62600030D01*
X56499678Y-62540650D01*
X56539545Y-62466067D01*
X56550318Y-62452939D01*
X56559576Y-62436905D01*
X56603635Y-62387972D01*
X56651567Y-62329567D01*
X56669404Y-62314927D01*
X56685613Y-62296927D01*
X56735537Y-62260654D01*
X56788067Y-62217545D01*
X56813816Y-62203781D01*
X56838000Y-62186211D01*
X56890007Y-62163055D01*
X56943792Y-62134307D01*
X56977638Y-62124039D01*
X57010076Y-62109598D01*
X57060772Y-62098822D01*
X57112771Y-62083049D01*
X57154157Y-62078972D01*
X57194320Y-62070436D01*
X57240831Y-62070436D01*
X57288500Y-62065741D01*
X57336168Y-62070436D01*
G37*
G36*
X100661017Y-59993282D02*
G01*
X100677562Y-60004338D01*
X100688618Y-60020883D01*
X100692500Y-60040400D01*
X100692500Y-61540400D01*
X100688618Y-61559917D01*
X100677562Y-61576462D01*
X100661017Y-61587518D01*
X100641500Y-61591400D01*
X99141500Y-61591400D01*
X99121983Y-61587518D01*
X99105438Y-61576462D01*
X99094382Y-61559917D01*
X99090500Y-61540400D01*
X99090500Y-60040400D01*
X99094382Y-60020883D01*
X99105438Y-60004338D01*
X99121983Y-59993282D01*
X99141500Y-59989400D01*
X100641500Y-59989400D01*
X100661017Y-59993282D01*
G37*
G36*
X107532876Y-59994062D02*
G01*
X107575201Y-59994062D01*
X107622947Y-60004210D01*
X107669739Y-60009483D01*
X107703763Y-60021388D01*
X107738937Y-60028865D01*
X107789626Y-60051433D01*
X107839041Y-60068724D01*
X107864760Y-60084884D01*
X107891860Y-60096950D01*
X107942393Y-60133664D01*
X107990915Y-60164153D01*
X108008339Y-60181577D01*
X108027290Y-60195346D01*
X108074140Y-60247378D01*
X108117747Y-60290985D01*
X108127777Y-60306947D01*
X108139298Y-60319743D01*
X108178704Y-60387998D01*
X108213176Y-60442859D01*
X108217480Y-60455161D01*
X108222997Y-60464716D01*
X108251254Y-60551681D01*
X108272417Y-60612161D01*
X108273219Y-60619280D01*
X108274727Y-60623921D01*
X108288394Y-60753960D01*
X108292500Y-60790400D01*
X108288393Y-60826842D01*
X108274727Y-60956878D01*
X108273219Y-60961517D01*
X108272417Y-60968639D01*
X108251250Y-61029131D01*
X108222997Y-61116083D01*
X108217481Y-61125635D01*
X108213176Y-61137941D01*
X108178697Y-61192813D01*
X108139298Y-61261056D01*
X108127779Y-61273848D01*
X108117747Y-61289815D01*
X108074131Y-61333430D01*
X108027290Y-61385453D01*
X108008343Y-61399218D01*
X107990915Y-61416647D01*
X107942383Y-61447141D01*
X107891860Y-61483849D01*
X107864765Y-61495911D01*
X107839041Y-61512076D01*
X107789616Y-61529370D01*
X107738937Y-61551934D01*
X107703769Y-61559409D01*
X107669739Y-61571317D01*
X107622944Y-61576589D01*
X107575201Y-61586738D01*
X107532876Y-61586738D01*
X107491500Y-61591400D01*
X107450124Y-61586738D01*
X107407799Y-61586738D01*
X107360054Y-61576589D01*
X107313261Y-61571317D01*
X107279231Y-61559409D01*
X107244062Y-61551934D01*
X107193379Y-61529368D01*
X107143959Y-61512076D01*
X107118236Y-61495913D01*
X107091139Y-61483849D01*
X107040609Y-61447137D01*
X106992085Y-61416647D01*
X106974659Y-61399221D01*
X106955709Y-61385453D01*
X106908858Y-61333420D01*
X106865253Y-61289815D01*
X106855223Y-61273852D01*
X106843701Y-61261056D01*
X106804290Y-61192793D01*
X106769824Y-61137941D01*
X106765519Y-61125640D01*
X106760002Y-61116083D01*
X106731735Y-61029091D01*
X106710583Y-60968639D01*
X106709781Y-60961522D01*
X106708272Y-60956878D01*
X106694591Y-60826710D01*
X106690500Y-60790400D01*
X106694590Y-60754092D01*
X106708272Y-60623921D01*
X106709781Y-60619275D01*
X106710583Y-60612161D01*
X106731731Y-60551721D01*
X106760002Y-60464716D01*
X106765520Y-60455157D01*
X106769824Y-60442859D01*
X106804283Y-60388017D01*
X106843701Y-60319743D01*
X106855225Y-60306944D01*
X106865253Y-60290985D01*
X106908849Y-60247388D01*
X106955709Y-60195346D01*
X106974662Y-60181575D01*
X106992085Y-60164153D01*
X107040603Y-60133666D01*
X107091140Y-60096950D01*
X107118240Y-60084884D01*
X107143959Y-60068724D01*
X107193370Y-60051434D01*
X107244062Y-60028865D01*
X107279237Y-60021388D01*
X107313261Y-60009483D01*
X107360051Y-60004210D01*
X107407799Y-59994062D01*
X107450124Y-59994062D01*
X107491500Y-59989400D01*
X107532876Y-59994062D01*
G37*
G36*
X112980017Y-59993282D02*
G01*
X112996562Y-60004338D01*
X113007618Y-60020883D01*
X113011500Y-60040400D01*
X113011500Y-61540400D01*
X113007618Y-61559917D01*
X112996562Y-61576462D01*
X112980017Y-61587518D01*
X112960500Y-61591400D01*
X111460500Y-61591400D01*
X111440983Y-61587518D01*
X111424438Y-61576462D01*
X111413382Y-61559917D01*
X111409500Y-61540400D01*
X111409500Y-60040400D01*
X111413382Y-60020883D01*
X111424438Y-60004338D01*
X111440983Y-59993282D01*
X111460500Y-59989400D01*
X112960500Y-59989400D01*
X112980017Y-59993282D01*
G37*
G36*
X119851876Y-59994062D02*
G01*
X119894201Y-59994062D01*
X119941947Y-60004210D01*
X119988739Y-60009483D01*
X120022763Y-60021388D01*
X120057937Y-60028865D01*
X120108626Y-60051433D01*
X120158041Y-60068724D01*
X120183760Y-60084884D01*
X120210860Y-60096950D01*
X120261393Y-60133664D01*
X120309915Y-60164153D01*
X120327339Y-60181577D01*
X120346290Y-60195346D01*
X120393140Y-60247378D01*
X120436747Y-60290985D01*
X120446777Y-60306947D01*
X120458298Y-60319743D01*
X120497704Y-60387998D01*
X120532176Y-60442859D01*
X120536480Y-60455161D01*
X120541997Y-60464716D01*
X120570254Y-60551681D01*
X120591417Y-60612161D01*
X120592219Y-60619280D01*
X120593727Y-60623921D01*
X120607394Y-60753960D01*
X120611500Y-60790400D01*
X120607393Y-60826842D01*
X120593727Y-60956878D01*
X120592219Y-60961517D01*
X120591417Y-60968639D01*
X120570250Y-61029131D01*
X120541997Y-61116083D01*
X120536481Y-61125635D01*
X120532176Y-61137941D01*
X120497697Y-61192813D01*
X120458298Y-61261056D01*
X120446779Y-61273848D01*
X120436747Y-61289815D01*
X120393131Y-61333430D01*
X120346290Y-61385453D01*
X120327343Y-61399218D01*
X120309915Y-61416647D01*
X120261383Y-61447141D01*
X120210860Y-61483849D01*
X120183765Y-61495911D01*
X120158041Y-61512076D01*
X120108616Y-61529370D01*
X120057937Y-61551934D01*
X120022769Y-61559409D01*
X119988739Y-61571317D01*
X119941944Y-61576589D01*
X119894201Y-61586738D01*
X119851876Y-61586738D01*
X119810500Y-61591400D01*
X119769124Y-61586738D01*
X119726799Y-61586738D01*
X119679054Y-61576589D01*
X119632261Y-61571317D01*
X119598231Y-61559409D01*
X119563062Y-61551934D01*
X119512379Y-61529368D01*
X119462959Y-61512076D01*
X119437236Y-61495913D01*
X119410139Y-61483849D01*
X119359609Y-61447137D01*
X119311085Y-61416647D01*
X119293659Y-61399221D01*
X119274709Y-61385453D01*
X119227858Y-61333420D01*
X119184253Y-61289815D01*
X119174223Y-61273852D01*
X119162701Y-61261056D01*
X119123290Y-61192793D01*
X119088824Y-61137941D01*
X119084519Y-61125640D01*
X119079002Y-61116083D01*
X119050735Y-61029091D01*
X119029583Y-60968639D01*
X119028781Y-60961522D01*
X119027272Y-60956878D01*
X119013591Y-60826710D01*
X119009500Y-60790400D01*
X119013590Y-60754092D01*
X119027272Y-60623921D01*
X119028781Y-60619275D01*
X119029583Y-60612161D01*
X119050731Y-60551721D01*
X119079002Y-60464716D01*
X119084520Y-60455157D01*
X119088824Y-60442859D01*
X119123283Y-60388017D01*
X119162701Y-60319743D01*
X119174225Y-60306944D01*
X119184253Y-60290985D01*
X119227849Y-60247388D01*
X119274709Y-60195346D01*
X119293662Y-60181575D01*
X119311085Y-60164153D01*
X119359603Y-60133666D01*
X119410140Y-60096950D01*
X119437240Y-60084884D01*
X119462959Y-60068724D01*
X119512370Y-60051434D01*
X119563062Y-60028865D01*
X119598237Y-60021388D01*
X119632261Y-60009483D01*
X119679051Y-60004210D01*
X119726799Y-59994062D01*
X119769124Y-59994062D01*
X119810500Y-59989400D01*
X119851876Y-59994062D01*
G37*
G36*
X43522041Y-58928633D02*
G01*
X43570569Y-58928633D01*
X43624612Y-58938735D01*
X43677114Y-58943906D01*
X43716995Y-58956004D01*
X43758455Y-58963754D01*
X43815878Y-58986000D01*
X43871460Y-59002861D01*
X43903221Y-59019837D01*
X43936691Y-59032804D01*
X43994843Y-59068810D01*
X44050571Y-59098597D01*
X44073984Y-59117811D01*
X44099199Y-59133424D01*
X44155068Y-59184356D01*
X44207563Y-59227437D01*
X44223119Y-59246392D01*
X44240455Y-59262196D01*
X44290785Y-59328843D01*
X44336403Y-59384429D01*
X44345223Y-59400931D01*
X44355644Y-59414730D01*
X44397103Y-59497993D01*
X44432139Y-59563540D01*
X44435875Y-59575858D01*
X44440841Y-59585830D01*
X44470171Y-59688916D01*
X44491094Y-59757886D01*
X44491781Y-59764863D01*
X44493149Y-59769671D01*
X44507366Y-59923111D01*
X44511000Y-59960000D01*
X44507366Y-59996891D01*
X44493149Y-60150328D01*
X44491781Y-60155134D01*
X44491094Y-60162114D01*
X44470167Y-60231098D01*
X44440841Y-60334169D01*
X44435876Y-60344138D01*
X44432139Y-60356460D01*
X44397096Y-60422020D01*
X44355644Y-60505269D01*
X44345225Y-60519065D01*
X44336403Y-60535571D01*
X44290775Y-60591168D01*
X44240455Y-60657803D01*
X44223122Y-60673603D01*
X44207563Y-60692563D01*
X44155057Y-60735652D01*
X44099199Y-60786575D01*
X44073989Y-60802184D01*
X44050571Y-60821403D01*
X43994832Y-60851195D01*
X43936691Y-60887195D01*
X43903227Y-60900158D01*
X43871460Y-60917139D01*
X43815866Y-60934003D01*
X43758455Y-60956245D01*
X43717002Y-60963993D01*
X43677114Y-60976094D01*
X43624609Y-60981265D01*
X43570569Y-60991367D01*
X43522041Y-60991367D01*
X43475000Y-60996000D01*
X43427959Y-60991367D01*
X43379431Y-60991367D01*
X43325390Y-60981265D01*
X43272886Y-60976094D01*
X43232998Y-60963994D01*
X43191544Y-60956245D01*
X43134128Y-60934001D01*
X43078540Y-60917139D01*
X43046774Y-60900160D01*
X43013308Y-60887195D01*
X42955160Y-60851191D01*
X42899429Y-60821403D01*
X42876013Y-60802186D01*
X42850800Y-60786575D01*
X42794931Y-60735644D01*
X42742437Y-60692563D01*
X42726880Y-60673607D01*
X42709544Y-60657803D01*
X42659211Y-60591152D01*
X42613597Y-60535571D01*
X42604777Y-60519070D01*
X42594355Y-60505269D01*
X42552888Y-60421992D01*
X42517861Y-60356460D01*
X42514124Y-60344144D01*
X42509158Y-60334169D01*
X42479816Y-60231045D01*
X42458906Y-60162114D01*
X42458219Y-60155139D01*
X42456850Y-60150328D01*
X42442616Y-59996720D01*
X42439000Y-59960000D01*
X42442616Y-59923283D01*
X42456850Y-59769671D01*
X42458219Y-59764858D01*
X42458906Y-59757886D01*
X42479811Y-59688969D01*
X42509158Y-59585830D01*
X42514125Y-59575853D01*
X42517861Y-59563540D01*
X42552881Y-59498020D01*
X42594355Y-59414730D01*
X42604778Y-59400926D01*
X42613597Y-59384429D01*
X42659202Y-59328858D01*
X42709544Y-59262196D01*
X42726883Y-59246388D01*
X42742437Y-59227437D01*
X42794920Y-59184364D01*
X42850800Y-59133424D01*
X42876018Y-59117809D01*
X42899429Y-59098597D01*
X42955148Y-59068814D01*
X43013308Y-59032804D01*
X43046781Y-59019836D01*
X43078540Y-59002861D01*
X43134116Y-58986001D01*
X43191544Y-58963754D01*
X43233005Y-58956003D01*
X43272886Y-58943906D01*
X43325387Y-58938735D01*
X43379431Y-58928633D01*
X43427959Y-58928633D01*
X43475000Y-58924000D01*
X43522041Y-58928633D01*
G37*
G36*
X125516517Y-59242882D02*
G01*
X125533062Y-59253938D01*
X125544118Y-59270483D01*
X125548000Y-59290000D01*
X125548000Y-60790000D01*
X125544118Y-60809517D01*
X125533062Y-60826062D01*
X125516517Y-60837118D01*
X125497000Y-60841000D01*
X123997000Y-60841000D01*
X123977483Y-60837118D01*
X123960938Y-60826062D01*
X123949882Y-60809517D01*
X123946000Y-60790000D01*
X123946000Y-59290000D01*
X123949882Y-59270483D01*
X123960938Y-59253938D01*
X123977483Y-59242882D01*
X123997000Y-59239000D01*
X125497000Y-59239000D01*
X125516517Y-59242882D01*
G37*
G36*
X132388376Y-59243662D02*
G01*
X132430701Y-59243662D01*
X132478447Y-59253810D01*
X132525239Y-59259083D01*
X132559263Y-59270988D01*
X132594437Y-59278465D01*
X132645126Y-59301033D01*
X132694541Y-59318324D01*
X132720260Y-59334484D01*
X132747360Y-59346550D01*
X132797893Y-59383264D01*
X132846415Y-59413753D01*
X132863839Y-59431177D01*
X132882790Y-59444946D01*
X132929640Y-59496978D01*
X132973247Y-59540585D01*
X132983277Y-59556547D01*
X132994798Y-59569343D01*
X133034204Y-59637598D01*
X133068676Y-59692459D01*
X133072980Y-59704761D01*
X133078497Y-59714316D01*
X133106754Y-59801281D01*
X133127917Y-59861761D01*
X133128719Y-59868880D01*
X133130227Y-59873521D01*
X133143894Y-60003560D01*
X133148000Y-60040000D01*
X133143893Y-60076442D01*
X133130227Y-60206478D01*
X133128719Y-60211117D01*
X133127917Y-60218239D01*
X133106750Y-60278731D01*
X133078497Y-60365683D01*
X133072981Y-60375235D01*
X133068676Y-60387541D01*
X133034197Y-60442413D01*
X132994798Y-60510656D01*
X132983279Y-60523448D01*
X132973247Y-60539415D01*
X132929631Y-60583030D01*
X132882790Y-60635053D01*
X132863843Y-60648818D01*
X132846415Y-60666247D01*
X132797883Y-60696741D01*
X132747360Y-60733449D01*
X132720265Y-60745511D01*
X132694541Y-60761676D01*
X132645116Y-60778970D01*
X132594437Y-60801534D01*
X132559269Y-60809009D01*
X132525239Y-60820917D01*
X132478444Y-60826189D01*
X132430701Y-60836338D01*
X132388376Y-60836338D01*
X132347000Y-60841000D01*
X132305624Y-60836338D01*
X132263299Y-60836338D01*
X132215554Y-60826189D01*
X132168761Y-60820917D01*
X132134731Y-60809009D01*
X132099562Y-60801534D01*
X132048879Y-60778968D01*
X131999459Y-60761676D01*
X131973736Y-60745513D01*
X131946639Y-60733449D01*
X131896109Y-60696737D01*
X131847585Y-60666247D01*
X131830159Y-60648821D01*
X131811209Y-60635053D01*
X131764358Y-60583020D01*
X131720753Y-60539415D01*
X131710723Y-60523452D01*
X131699201Y-60510656D01*
X131659790Y-60442393D01*
X131625324Y-60387541D01*
X131621019Y-60375240D01*
X131615502Y-60365683D01*
X131587235Y-60278691D01*
X131566083Y-60218239D01*
X131565281Y-60211122D01*
X131563772Y-60206478D01*
X131550091Y-60076310D01*
X131546000Y-60040000D01*
X131550090Y-60003692D01*
X131563772Y-59873521D01*
X131565281Y-59868875D01*
X131566083Y-59861761D01*
X131587231Y-59801321D01*
X131615502Y-59714316D01*
X131621020Y-59704757D01*
X131625324Y-59692459D01*
X131659783Y-59637617D01*
X131699201Y-59569343D01*
X131710725Y-59556544D01*
X131720753Y-59540585D01*
X131764349Y-59496988D01*
X131811209Y-59444946D01*
X131830162Y-59431175D01*
X131847585Y-59413753D01*
X131896103Y-59383266D01*
X131946640Y-59346550D01*
X131973740Y-59334484D01*
X131999459Y-59318324D01*
X132048870Y-59301034D01*
X132099562Y-59278465D01*
X132134737Y-59270988D01*
X132168761Y-59259083D01*
X132215551Y-59253810D01*
X132263299Y-59243662D01*
X132305624Y-59243662D01*
X132347000Y-59239000D01*
X132388376Y-59243662D01*
G37*
G36*
X137962517Y-59242882D02*
G01*
X137979062Y-59253938D01*
X137990118Y-59270483D01*
X137994000Y-59290000D01*
X137994000Y-60790000D01*
X137990118Y-60809517D01*
X137979062Y-60826062D01*
X137962517Y-60837118D01*
X137943000Y-60841000D01*
X136443000Y-60841000D01*
X136423483Y-60837118D01*
X136406938Y-60826062D01*
X136395882Y-60809517D01*
X136392000Y-60790000D01*
X136392000Y-59290000D01*
X136395882Y-59270483D01*
X136406938Y-59253938D01*
X136423483Y-59242882D01*
X136443000Y-59239000D01*
X137943000Y-59239000D01*
X137962517Y-59242882D01*
G37*
G36*
X144834376Y-59243662D02*
G01*
X144876701Y-59243662D01*
X144924447Y-59253810D01*
X144971239Y-59259083D01*
X145005263Y-59270988D01*
X145040437Y-59278465D01*
X145091126Y-59301033D01*
X145140541Y-59318324D01*
X145166260Y-59334484D01*
X145193360Y-59346550D01*
X145243893Y-59383264D01*
X145292415Y-59413753D01*
X145309839Y-59431177D01*
X145328790Y-59444946D01*
X145375640Y-59496978D01*
X145419247Y-59540585D01*
X145429277Y-59556547D01*
X145440798Y-59569343D01*
X145480204Y-59637598D01*
X145514676Y-59692459D01*
X145518980Y-59704761D01*
X145524497Y-59714316D01*
X145552754Y-59801281D01*
X145573917Y-59861761D01*
X145574719Y-59868880D01*
X145576227Y-59873521D01*
X145589894Y-60003560D01*
X145594000Y-60040000D01*
X145589893Y-60076442D01*
X145576227Y-60206478D01*
X145574719Y-60211117D01*
X145573917Y-60218239D01*
X145552750Y-60278731D01*
X145524497Y-60365683D01*
X145518981Y-60375235D01*
X145514676Y-60387541D01*
X145480197Y-60442413D01*
X145440798Y-60510656D01*
X145429279Y-60523448D01*
X145419247Y-60539415D01*
X145375631Y-60583030D01*
X145328790Y-60635053D01*
X145309843Y-60648818D01*
X145292415Y-60666247D01*
X145243883Y-60696741D01*
X145193360Y-60733449D01*
X145166265Y-60745511D01*
X145140541Y-60761676D01*
X145091116Y-60778970D01*
X145040437Y-60801534D01*
X145005269Y-60809009D01*
X144971239Y-60820917D01*
X144924444Y-60826189D01*
X144876701Y-60836338D01*
X144834376Y-60836338D01*
X144793000Y-60841000D01*
X144751624Y-60836338D01*
X144709299Y-60836338D01*
X144661554Y-60826189D01*
X144614761Y-60820917D01*
X144580731Y-60809009D01*
X144545562Y-60801534D01*
X144494879Y-60778968D01*
X144445459Y-60761676D01*
X144419736Y-60745513D01*
X144392639Y-60733449D01*
X144342109Y-60696737D01*
X144293585Y-60666247D01*
X144276159Y-60648821D01*
X144257209Y-60635053D01*
X144210358Y-60583020D01*
X144166753Y-60539415D01*
X144156723Y-60523452D01*
X144145201Y-60510656D01*
X144105790Y-60442393D01*
X144071324Y-60387541D01*
X144067019Y-60375240D01*
X144061502Y-60365683D01*
X144033235Y-60278691D01*
X144012083Y-60218239D01*
X144011281Y-60211122D01*
X144009772Y-60206478D01*
X143996091Y-60076310D01*
X143992000Y-60040000D01*
X143996090Y-60003692D01*
X144009772Y-59873521D01*
X144011281Y-59868875D01*
X144012083Y-59861761D01*
X144033231Y-59801321D01*
X144061502Y-59714316D01*
X144067020Y-59704757D01*
X144071324Y-59692459D01*
X144105783Y-59637617D01*
X144145201Y-59569343D01*
X144156725Y-59556544D01*
X144166753Y-59540585D01*
X144210349Y-59496988D01*
X144257209Y-59444946D01*
X144276162Y-59431175D01*
X144293585Y-59413753D01*
X144342103Y-59383266D01*
X144392640Y-59346550D01*
X144419740Y-59334484D01*
X144445459Y-59318324D01*
X144494870Y-59301034D01*
X144545562Y-59278465D01*
X144580737Y-59270988D01*
X144614761Y-59259083D01*
X144661551Y-59253810D01*
X144709299Y-59243662D01*
X144751624Y-59243662D01*
X144793000Y-59239000D01*
X144834376Y-59243662D01*
G37*
G36*
X107234130Y-46558495D02*
G01*
X107470785Y-46615311D01*
X107695639Y-46708449D01*
X107903155Y-46835615D01*
X108088223Y-46993677D01*
X108246285Y-47178745D01*
X108373451Y-47386261D01*
X108466589Y-47611115D01*
X108523405Y-47847770D01*
X108542500Y-48090400D01*
X108523405Y-48333030D01*
X108466589Y-48569685D01*
X108373451Y-48794539D01*
X108246285Y-49002055D01*
X108088223Y-49187123D01*
X107903155Y-49345185D01*
X107695639Y-49472351D01*
X107470785Y-49565489D01*
X107234130Y-49622305D01*
X106991500Y-49641400D01*
X106748870Y-49622305D01*
X106512215Y-49565489D01*
X106287361Y-49472351D01*
X106079845Y-49345185D01*
X105894777Y-49187123D01*
X105736715Y-49002055D01*
X105609549Y-48794539D01*
X105516411Y-48569685D01*
X105459595Y-48333030D01*
X105440500Y-48090400D01*
X105459595Y-47847770D01*
X105516411Y-47611115D01*
X105609549Y-47386261D01*
X105736715Y-47178745D01*
X105894777Y-46993677D01*
X106079845Y-46835615D01*
X106287361Y-46708449D01*
X106512215Y-46615311D01*
X106748870Y-46558495D01*
X106991500Y-46539400D01*
X107234130Y-46558495D01*
G37*
G36*
X119553130Y-46558495D02*
G01*
X119789785Y-46615311D01*
X120014639Y-46708449D01*
X120222155Y-46835615D01*
X120407223Y-46993677D01*
X120565285Y-47178745D01*
X120692451Y-47386261D01*
X120785589Y-47611115D01*
X120842405Y-47847770D01*
X120861500Y-48090400D01*
X120842405Y-48333030D01*
X120785589Y-48569685D01*
X120692451Y-48794539D01*
X120565285Y-49002055D01*
X120407223Y-49187123D01*
X120222155Y-49345185D01*
X120014639Y-49472351D01*
X119789785Y-49565489D01*
X119553130Y-49622305D01*
X119310500Y-49641400D01*
X119067870Y-49622305D01*
X118831215Y-49565489D01*
X118606361Y-49472351D01*
X118398845Y-49345185D01*
X118213777Y-49187123D01*
X118055715Y-49002055D01*
X117928549Y-48794539D01*
X117835411Y-48569685D01*
X117778595Y-48333030D01*
X117759500Y-48090400D01*
X117778595Y-47847770D01*
X117835411Y-47611115D01*
X117928549Y-47386261D01*
X118055715Y-47178745D01*
X118213777Y-46993677D01*
X118398845Y-46835615D01*
X118606361Y-46708449D01*
X118831215Y-46615311D01*
X119067870Y-46558495D01*
X119310500Y-46539400D01*
X119553130Y-46558495D01*
G37*
G36*
X132089630Y-45808095D02*
G01*
X132326285Y-45864911D01*
X132551139Y-45958049D01*
X132758655Y-46085215D01*
X132943723Y-46243277D01*
X133101785Y-46428345D01*
X133228951Y-46635861D01*
X133322089Y-46860715D01*
X133378905Y-47097370D01*
X133398000Y-47340000D01*
X133378905Y-47582630D01*
X133322089Y-47819285D01*
X133228951Y-48044139D01*
X133101785Y-48251655D01*
X132943723Y-48436723D01*
X132758655Y-48594785D01*
X132551139Y-48721951D01*
X132326285Y-48815089D01*
X132089630Y-48871905D01*
X131847000Y-48891000D01*
X131604370Y-48871905D01*
X131367715Y-48815089D01*
X131142861Y-48721951D01*
X130935345Y-48594785D01*
X130750277Y-48436723D01*
X130592215Y-48251655D01*
X130465049Y-48044139D01*
X130371911Y-47819285D01*
X130315095Y-47582630D01*
X130296000Y-47340000D01*
X130315095Y-47097370D01*
X130371911Y-46860715D01*
X130465049Y-46635861D01*
X130592215Y-46428345D01*
X130750277Y-46243277D01*
X130935345Y-46085215D01*
X131142861Y-45958049D01*
X131367715Y-45864911D01*
X131604370Y-45808095D01*
X131847000Y-45789000D01*
X132089630Y-45808095D01*
G37*
G36*
X144535630Y-45808095D02*
G01*
X144772285Y-45864911D01*
X144997139Y-45958049D01*
X145204655Y-46085215D01*
X145389723Y-46243277D01*
X145547785Y-46428345D01*
X145674951Y-46635861D01*
X145768089Y-46860715D01*
X145824905Y-47097370D01*
X145844000Y-47340000D01*
X145824905Y-47582630D01*
X145768089Y-47819285D01*
X145674951Y-48044139D01*
X145547785Y-48251655D01*
X145389723Y-48436723D01*
X145204655Y-48594785D01*
X144997139Y-48721951D01*
X144772285Y-48815089D01*
X144535630Y-48871905D01*
X144293000Y-48891000D01*
X144050370Y-48871905D01*
X143813715Y-48815089D01*
X143588861Y-48721951D01*
X143381345Y-48594785D01*
X143196277Y-48436723D01*
X143038215Y-48251655D01*
X142911049Y-48044139D01*
X142817911Y-47819285D01*
X142761095Y-47582630D01*
X142742000Y-47340000D01*
X142761095Y-47097370D01*
X142817911Y-46860715D01*
X142911049Y-46635861D01*
X143038215Y-46428345D01*
X143196277Y-46243277D01*
X143381345Y-46085215D01*
X143588861Y-45958049D01*
X143813715Y-45864911D01*
X144050370Y-45808095D01*
X144293000Y-45789000D01*
X144535630Y-45808095D01*
G37*
G36*
X100634130Y-44018495D02*
G01*
X100870785Y-44075311D01*
X101095639Y-44168449D01*
X101303155Y-44295615D01*
X101488223Y-44453677D01*
X101646285Y-44638745D01*
X101773451Y-44846261D01*
X101866589Y-45071115D01*
X101923405Y-45307770D01*
X101942500Y-45550400D01*
X101923405Y-45793030D01*
X101866589Y-46029685D01*
X101773451Y-46254539D01*
X101646285Y-46462055D01*
X101488223Y-46647123D01*
X101303155Y-46805185D01*
X101095639Y-46932351D01*
X100870785Y-47025489D01*
X100634130Y-47082305D01*
X100391500Y-47101400D01*
X100148870Y-47082305D01*
X99912215Y-47025489D01*
X99687361Y-46932351D01*
X99479845Y-46805185D01*
X99294777Y-46647123D01*
X99136715Y-46462055D01*
X99009549Y-46254539D01*
X98916411Y-46029685D01*
X98859595Y-45793030D01*
X98840500Y-45550400D01*
X98859595Y-45307770D01*
X98916411Y-45071115D01*
X99009549Y-44846261D01*
X99136715Y-44638745D01*
X99294777Y-44453677D01*
X99479845Y-44295615D01*
X99687361Y-44168449D01*
X99912215Y-44075311D01*
X100148870Y-44018495D01*
X100391500Y-43999400D01*
X100634130Y-44018495D01*
G37*
G36*
X112953130Y-44018495D02*
G01*
X113189785Y-44075311D01*
X113414639Y-44168449D01*
X113622155Y-44295615D01*
X113807223Y-44453677D01*
X113965285Y-44638745D01*
X114092451Y-44846261D01*
X114185589Y-45071115D01*
X114242405Y-45307770D01*
X114261500Y-45550400D01*
X114242405Y-45793030D01*
X114185589Y-46029685D01*
X114092451Y-46254539D01*
X113965285Y-46462055D01*
X113807223Y-46647123D01*
X113622155Y-46805185D01*
X113414639Y-46932351D01*
X113189785Y-47025489D01*
X112953130Y-47082305D01*
X112710500Y-47101400D01*
X112467870Y-47082305D01*
X112231215Y-47025489D01*
X112006361Y-46932351D01*
X111798845Y-46805185D01*
X111613777Y-46647123D01*
X111455715Y-46462055D01*
X111328549Y-46254539D01*
X111235411Y-46029685D01*
X111178595Y-45793030D01*
X111159500Y-45550400D01*
X111178595Y-45307770D01*
X111235411Y-45071115D01*
X111328549Y-44846261D01*
X111455715Y-44638745D01*
X111613777Y-44453677D01*
X111798845Y-44295615D01*
X112006361Y-44168449D01*
X112231215Y-44075311D01*
X112467870Y-44018495D01*
X112710500Y-43999400D01*
X112953130Y-44018495D01*
G37*
G36*
X125489630Y-43268095D02*
G01*
X125726285Y-43324911D01*
X125951139Y-43418049D01*
X126158655Y-43545215D01*
X126343723Y-43703277D01*
X126501785Y-43888345D01*
X126628951Y-44095861D01*
X126722089Y-44320715D01*
X126778905Y-44557370D01*
X126798000Y-44800000D01*
X126778905Y-45042630D01*
X126722089Y-45279285D01*
X126628951Y-45504139D01*
X126501785Y-45711655D01*
X126343723Y-45896723D01*
X126158655Y-46054785D01*
X125951139Y-46181951D01*
X125726285Y-46275089D01*
X125489630Y-46331905D01*
X125247000Y-46351000D01*
X125004370Y-46331905D01*
X124767715Y-46275089D01*
X124542861Y-46181951D01*
X124335345Y-46054785D01*
X124150277Y-45896723D01*
X123992215Y-45711655D01*
X123865049Y-45504139D01*
X123771911Y-45279285D01*
X123715095Y-45042630D01*
X123696000Y-44800000D01*
X123715095Y-44557370D01*
X123771911Y-44320715D01*
X123865049Y-44095861D01*
X123992215Y-43888345D01*
X124150277Y-43703277D01*
X124335345Y-43545215D01*
X124542861Y-43418049D01*
X124767715Y-43324911D01*
X125004370Y-43268095D01*
X125247000Y-43249000D01*
X125489630Y-43268095D01*
G37*
G36*
X137935630Y-43268095D02*
G01*
X138172285Y-43324911D01*
X138397139Y-43418049D01*
X138604655Y-43545215D01*
X138789723Y-43703277D01*
X138947785Y-43888345D01*
X139074951Y-44095861D01*
X139168089Y-44320715D01*
X139224905Y-44557370D01*
X139244000Y-44800000D01*
X139224905Y-45042630D01*
X139168089Y-45279285D01*
X139074951Y-45504139D01*
X138947785Y-45711655D01*
X138789723Y-45896723D01*
X138604655Y-46054785D01*
X138397139Y-46181951D01*
X138172285Y-46275089D01*
X137935630Y-46331905D01*
X137693000Y-46351000D01*
X137450370Y-46331905D01*
X137213715Y-46275089D01*
X136988861Y-46181951D01*
X136781345Y-46054785D01*
X136596277Y-45896723D01*
X136438215Y-45711655D01*
X136311049Y-45504139D01*
X136217911Y-45279285D01*
X136161095Y-45042630D01*
X136142000Y-44800000D01*
X136161095Y-44557370D01*
X136217911Y-44320715D01*
X136311049Y-44095861D01*
X136438215Y-43888345D01*
X136596277Y-43703277D01*
X136781345Y-43545215D01*
X136988861Y-43418049D01*
X137213715Y-43324911D01*
X137450370Y-43268095D01*
X137693000Y-43249000D01*
X137935630Y-43268095D01*
G37*
G36*
X127567017Y-35236882D02*
G01*
X127583562Y-35247938D01*
X127594618Y-35264483D01*
X127598500Y-35284000D01*
X127598500Y-36984000D01*
X127594618Y-37003517D01*
X127583562Y-37020062D01*
X127567017Y-37031118D01*
X127547500Y-37035000D01*
X125847500Y-37035000D01*
X125827983Y-37031118D01*
X125811438Y-37020062D01*
X125800382Y-37003517D01*
X125796500Y-36984000D01*
X125796500Y-35284000D01*
X125800382Y-35264483D01*
X125811438Y-35247938D01*
X125827983Y-35236882D01*
X125847500Y-35233000D01*
X127547500Y-35233000D01*
X127567017Y-35236882D01*
G37*
G36*
X94869017Y-35084082D02*
G01*
X94885562Y-35095138D01*
X94896618Y-35111683D01*
X94900500Y-35131200D01*
X94900500Y-36831200D01*
X94896618Y-36850717D01*
X94885562Y-36867262D01*
X94869017Y-36878318D01*
X94849500Y-36882200D01*
X93149500Y-36882200D01*
X93129983Y-36878318D01*
X93113438Y-36867262D01*
X93102382Y-36850717D01*
X93098500Y-36831200D01*
X93098500Y-35131200D01*
X93102382Y-35111683D01*
X93113438Y-35095138D01*
X93129983Y-35084082D01*
X93149500Y-35080200D01*
X94849500Y-35080200D01*
X94869017Y-35084082D01*
G37*
G36*
X106829017Y-34992082D02*
G01*
X106845562Y-35003138D01*
X106856618Y-35019683D01*
X106860500Y-35039200D01*
X106860500Y-36739200D01*
X106856618Y-36758717D01*
X106845562Y-36775262D01*
X106829017Y-36786318D01*
X106809500Y-36790200D01*
X105109500Y-36790200D01*
X105089983Y-36786318D01*
X105073438Y-36775262D01*
X105062382Y-36758717D01*
X105058500Y-36739200D01*
X105058500Y-35039200D01*
X105062382Y-35019683D01*
X105073438Y-35003138D01*
X105089983Y-34992082D01*
X105109500Y-34988200D01*
X106809500Y-34988200D01*
X106829017Y-34992082D01*
G37*
G36*
X36787973Y-35045651D02*
G01*
X36950500Y-35118012D01*
X37094430Y-35222584D01*
X37213473Y-35354795D01*
X37302427Y-35508867D01*
X37357404Y-35678067D01*
X37376000Y-35855000D01*
X37357404Y-36031933D01*
X37302427Y-36201133D01*
X37213473Y-36355205D01*
X37094430Y-36487416D01*
X36950500Y-36591988D01*
X36787973Y-36664349D01*
X36613954Y-36701338D01*
X36436046Y-36701338D01*
X36262027Y-36664349D01*
X36099500Y-36591988D01*
X35955570Y-36487416D01*
X35836527Y-36355205D01*
X35747573Y-36201133D01*
X35692596Y-36031933D01*
X35674000Y-35855000D01*
X35692596Y-35678067D01*
X35747573Y-35508867D01*
X35836527Y-35354795D01*
X35955570Y-35222584D01*
X36099500Y-35118012D01*
X36262027Y-35045651D01*
X36436046Y-35008662D01*
X36613954Y-35008662D01*
X36787973Y-35045651D01*
G37*
G36*
X85047973Y-35045651D02*
G01*
X85210500Y-35118012D01*
X85354430Y-35222584D01*
X85473473Y-35354795D01*
X85562427Y-35508867D01*
X85617404Y-35678067D01*
X85636000Y-35855000D01*
X85617404Y-36031933D01*
X85562427Y-36201133D01*
X85473473Y-36355205D01*
X85354430Y-36487416D01*
X85210500Y-36591988D01*
X85047973Y-36664349D01*
X84873954Y-36701338D01*
X84696046Y-36701338D01*
X84522027Y-36664349D01*
X84359500Y-36591988D01*
X84215570Y-36487416D01*
X84096527Y-36355205D01*
X84007573Y-36201133D01*
X83952596Y-36031933D01*
X83934000Y-35855000D01*
X83952596Y-35678067D01*
X84007573Y-35508867D01*
X84096527Y-35354795D01*
X84215570Y-35222584D01*
X84359500Y-35118012D01*
X84522027Y-35045651D01*
X84696046Y-35008662D01*
X84873954Y-35008662D01*
X85047973Y-35045651D01*
G37*
G36*
X140117017Y-34786882D02*
G01*
X140133562Y-34797938D01*
X140144618Y-34814483D01*
X140148500Y-34834000D01*
X140148500Y-36534000D01*
X140144618Y-36553517D01*
X140133562Y-36570062D01*
X140117017Y-36581118D01*
X140097500Y-36585000D01*
X138397500Y-36585000D01*
X138377983Y-36581118D01*
X138361438Y-36570062D01*
X138350382Y-36553517D01*
X138346500Y-36534000D01*
X138346500Y-34834000D01*
X138350382Y-34814483D01*
X138361438Y-34797938D01*
X138377983Y-34786882D01*
X138397500Y-34783000D01*
X140097500Y-34783000D01*
X140117017Y-34786882D01*
G37*
G36*
X36787973Y-32505651D02*
G01*
X36950500Y-32578012D01*
X37094430Y-32682584D01*
X37213473Y-32814795D01*
X37302427Y-32968867D01*
X37357404Y-33138067D01*
X37376000Y-33315000D01*
X37357404Y-33491933D01*
X37302427Y-33661133D01*
X37213473Y-33815205D01*
X37094430Y-33947416D01*
X36950500Y-34051988D01*
X36787973Y-34124349D01*
X36613954Y-34161338D01*
X36436046Y-34161338D01*
X36262027Y-34124349D01*
X36099500Y-34051988D01*
X35955570Y-33947416D01*
X35836527Y-33815205D01*
X35747573Y-33661133D01*
X35692596Y-33491933D01*
X35674000Y-33315000D01*
X35692596Y-33138067D01*
X35747573Y-32968867D01*
X35836527Y-32814795D01*
X35955570Y-32682584D01*
X36099500Y-32578012D01*
X36262027Y-32505651D01*
X36436046Y-32468662D01*
X36613954Y-32468662D01*
X36787973Y-32505651D01*
G37*
G36*
X85047973Y-32505651D02*
G01*
X85210500Y-32578012D01*
X85354430Y-32682584D01*
X85473473Y-32814795D01*
X85562427Y-32968867D01*
X85617404Y-33138067D01*
X85636000Y-33315000D01*
X85617404Y-33491933D01*
X85562427Y-33661133D01*
X85473473Y-33815205D01*
X85354430Y-33947416D01*
X85210500Y-34051988D01*
X85047973Y-34124349D01*
X84873954Y-34161338D01*
X84696046Y-34161338D01*
X84522027Y-34124349D01*
X84359500Y-34051988D01*
X84215570Y-33947416D01*
X84096527Y-33815205D01*
X84007573Y-33661133D01*
X83952596Y-33491933D01*
X83934000Y-33315000D01*
X83952596Y-33138067D01*
X84007573Y-32968867D01*
X84096527Y-32814795D01*
X84215570Y-32682584D01*
X84359500Y-32578012D01*
X84522027Y-32505651D01*
X84696046Y-32468662D01*
X84873954Y-32468662D01*
X85047973Y-32505651D01*
G37*
G36*
X136725517Y-30154882D02*
G01*
X136742062Y-30165938D01*
X136753118Y-30182483D01*
X136757000Y-30202000D01*
X136757000Y-31902000D01*
X136753118Y-31921517D01*
X136742062Y-31938062D01*
X136725517Y-31949118D01*
X136706000Y-31953000D01*
X135006000Y-31953000D01*
X134986483Y-31949118D01*
X134969938Y-31938062D01*
X134958882Y-31921517D01*
X134955000Y-31902000D01*
X134955000Y-30202000D01*
X134958882Y-30182483D01*
X134969938Y-30165938D01*
X134986483Y-30154882D01*
X135006000Y-30151000D01*
X136706000Y-30151000D01*
X136725517Y-30154882D01*
G37*
G36*
X91313017Y-30131082D02*
G01*
X91329562Y-30142138D01*
X91340618Y-30158683D01*
X91344500Y-30178200D01*
X91344500Y-31878200D01*
X91340618Y-31897717D01*
X91329562Y-31914262D01*
X91313017Y-31925318D01*
X91293500Y-31929200D01*
X89593500Y-31929200D01*
X89573983Y-31925318D01*
X89557438Y-31914262D01*
X89546382Y-31897717D01*
X89542500Y-31878200D01*
X89542500Y-30178200D01*
X89546382Y-30158683D01*
X89557438Y-30142138D01*
X89573983Y-30131082D01*
X89593500Y-30127200D01*
X91293500Y-30127200D01*
X91313017Y-30131082D01*
G37*
G36*
X124152517Y-30027882D02*
G01*
X124169062Y-30038938D01*
X124180118Y-30055483D01*
X124184000Y-30075000D01*
X124184000Y-31775000D01*
X124180118Y-31794517D01*
X124169062Y-31811062D01*
X124152517Y-31822118D01*
X124133000Y-31826000D01*
X122433000Y-31826000D01*
X122413483Y-31822118D01*
X122396938Y-31811062D01*
X122385882Y-31794517D01*
X122382000Y-31775000D01*
X122382000Y-30075000D01*
X122385882Y-30055483D01*
X122396938Y-30038938D01*
X122413483Y-30027882D01*
X122433000Y-30024000D01*
X124133000Y-30024000D01*
X124152517Y-30027882D01*
G37*
G36*
X103886017Y-30004082D02*
G01*
X103902562Y-30015138D01*
X103913618Y-30031683D01*
X103917500Y-30051200D01*
X103917500Y-31751200D01*
X103913618Y-31770717D01*
X103902562Y-31787262D01*
X103886017Y-31798318D01*
X103866500Y-31802200D01*
X102166500Y-31802200D01*
X102146983Y-31798318D01*
X102130438Y-31787262D01*
X102119382Y-31770717D01*
X102115500Y-31751200D01*
X102115500Y-30051200D01*
X102119382Y-30031683D01*
X102130438Y-30015138D01*
X102146983Y-30004082D01*
X102166500Y-30000200D01*
X103866500Y-30000200D01*
X103886017Y-30004082D01*
G37*
G36*
X36787973Y-29965651D02*
G01*
X36950500Y-30038012D01*
X37094430Y-30142584D01*
X37213473Y-30274795D01*
X37302427Y-30428867D01*
X37357404Y-30598067D01*
X37376000Y-30775000D01*
X37357404Y-30951933D01*
X37302427Y-31121133D01*
X37213473Y-31275205D01*
X37094430Y-31407416D01*
X36950500Y-31511988D01*
X36787973Y-31584349D01*
X36613954Y-31621338D01*
X36436046Y-31621338D01*
X36262027Y-31584349D01*
X36099500Y-31511988D01*
X35955570Y-31407416D01*
X35836527Y-31275205D01*
X35747573Y-31121133D01*
X35692596Y-30951933D01*
X35674000Y-30775000D01*
X35692596Y-30598067D01*
X35747573Y-30428867D01*
X35836527Y-30274795D01*
X35955570Y-30142584D01*
X36099500Y-30038012D01*
X36262027Y-29965651D01*
X36436046Y-29928662D01*
X36613954Y-29928662D01*
X36787973Y-29965651D01*
G37*
G36*
X85047973Y-29965651D02*
G01*
X85210500Y-30038012D01*
X85354430Y-30142584D01*
X85473473Y-30274795D01*
X85562427Y-30428867D01*
X85617404Y-30598067D01*
X85636000Y-30775000D01*
X85617404Y-30951933D01*
X85562427Y-31121133D01*
X85473473Y-31275205D01*
X85354430Y-31407416D01*
X85210500Y-31511988D01*
X85047973Y-31584349D01*
X84873954Y-31621338D01*
X84696046Y-31621338D01*
X84522027Y-31584349D01*
X84359500Y-31511988D01*
X84215570Y-31407416D01*
X84096527Y-31275205D01*
X84007573Y-31121133D01*
X83952596Y-30951933D01*
X83934000Y-30775000D01*
X83952596Y-30598067D01*
X84007573Y-30428867D01*
X84096527Y-30274795D01*
X84215570Y-30142584D01*
X84359500Y-30038012D01*
X84522027Y-29965651D01*
X84696046Y-29928662D01*
X84873954Y-29928662D01*
X85047973Y-29965651D01*
G37*
G36*
X135903668Y-27615936D02*
G01*
X135950180Y-27615936D01*
X135990343Y-27624472D01*
X136031728Y-27628549D01*
X136083724Y-27644321D01*
X136134424Y-27655098D01*
X136166863Y-27669540D01*
X136200707Y-27679807D01*
X136254486Y-27708553D01*
X136306500Y-27731711D01*
X136330686Y-27749283D01*
X136356432Y-27763045D01*
X136408953Y-27806148D01*
X136458887Y-27842427D01*
X136475097Y-27860431D01*
X136492932Y-27875067D01*
X136540853Y-27933459D01*
X136584924Y-27982405D01*
X136594183Y-27998443D01*
X136604954Y-28011567D01*
X136644807Y-28086126D01*
X136679104Y-28145530D01*
X136683048Y-28157668D01*
X136688192Y-28167292D01*
X136716542Y-28260754D01*
X136737311Y-28324672D01*
X136738042Y-28331630D01*
X136739450Y-28336271D01*
X136753153Y-28475399D01*
X136757000Y-28512000D01*
X136753152Y-28548604D01*
X136739450Y-28687728D01*
X136738042Y-28692367D01*
X136737311Y-28699328D01*
X136716538Y-28763259D01*
X136688192Y-28856707D01*
X136683048Y-28866328D01*
X136679104Y-28878470D01*
X136644800Y-28937885D01*
X136604954Y-29012432D01*
X136594185Y-29025553D01*
X136584924Y-29041595D01*
X136540844Y-29090550D01*
X136492932Y-29148932D01*
X136475101Y-29163565D01*
X136458887Y-29181573D01*
X136408943Y-29217859D01*
X136356432Y-29260954D01*
X136330691Y-29274712D01*
X136306500Y-29292289D01*
X136254475Y-29315451D01*
X136200707Y-29344192D01*
X136166870Y-29354456D01*
X136134424Y-29368902D01*
X136083713Y-29379680D01*
X136031728Y-29395450D01*
X135990351Y-29399525D01*
X135950180Y-29408064D01*
X135903658Y-29408064D01*
X135856000Y-29412758D01*
X135808342Y-29408064D01*
X135761820Y-29408064D01*
X135721648Y-29399525D01*
X135680271Y-29395450D01*
X135628283Y-29379680D01*
X135577576Y-29368902D01*
X135545131Y-29354456D01*
X135511292Y-29344192D01*
X135457518Y-29315449D01*
X135405500Y-29292289D01*
X135381311Y-29274714D01*
X135355567Y-29260954D01*
X135303047Y-29217853D01*
X135253113Y-29181573D01*
X135236901Y-29163568D01*
X135219067Y-29148932D01*
X135171144Y-29090538D01*
X135127076Y-29041595D01*
X135117816Y-29025557D01*
X135107045Y-29012432D01*
X135067186Y-28937862D01*
X135032896Y-28878470D01*
X135028952Y-28866333D01*
X135023807Y-28856707D01*
X134995446Y-28763213D01*
X134974689Y-28699328D01*
X134973957Y-28692372D01*
X134972549Y-28687728D01*
X134958831Y-28548452D01*
X134955000Y-28512000D01*
X134958831Y-28475550D01*
X134972549Y-28336271D01*
X134973958Y-28331625D01*
X134974689Y-28324672D01*
X134995442Y-28260801D01*
X135023807Y-28167292D01*
X135028953Y-28157663D01*
X135032896Y-28145530D01*
X135067178Y-28086150D01*
X135107045Y-28011567D01*
X135117818Y-27998439D01*
X135127076Y-27982405D01*
X135171135Y-27933472D01*
X135219067Y-27875067D01*
X135236904Y-27860427D01*
X135253113Y-27842427D01*
X135303037Y-27806154D01*
X135355567Y-27763045D01*
X135381316Y-27749281D01*
X135405500Y-27731711D01*
X135457507Y-27708555D01*
X135511292Y-27679807D01*
X135545138Y-27669539D01*
X135577576Y-27655098D01*
X135628272Y-27644322D01*
X135680271Y-27628549D01*
X135721657Y-27624472D01*
X135761820Y-27615936D01*
X135808331Y-27615936D01*
X135856000Y-27611241D01*
X135903668Y-27615936D01*
G37*
G36*
X90491168Y-27592136D02*
G01*
X90537680Y-27592136D01*
X90577843Y-27600672D01*
X90619228Y-27604749D01*
X90671224Y-27620521D01*
X90721924Y-27631298D01*
X90754363Y-27645740D01*
X90788207Y-27656007D01*
X90841986Y-27684753D01*
X90894000Y-27707911D01*
X90918186Y-27725483D01*
X90943932Y-27739245D01*
X90996453Y-27782348D01*
X91046387Y-27818627D01*
X91062597Y-27836631D01*
X91080432Y-27851267D01*
X91128353Y-27909659D01*
X91172424Y-27958605D01*
X91181683Y-27974643D01*
X91192454Y-27987767D01*
X91232307Y-28062326D01*
X91266604Y-28121730D01*
X91270548Y-28133868D01*
X91275692Y-28143492D01*
X91304042Y-28236954D01*
X91324811Y-28300872D01*
X91325542Y-28307830D01*
X91326950Y-28312471D01*
X91340653Y-28451599D01*
X91344500Y-28488200D01*
X91340652Y-28524804D01*
X91326950Y-28663928D01*
X91325542Y-28668567D01*
X91324811Y-28675528D01*
X91304038Y-28739459D01*
X91275692Y-28832907D01*
X91270548Y-28842528D01*
X91266604Y-28854670D01*
X91232300Y-28914085D01*
X91192454Y-28988632D01*
X91181685Y-29001753D01*
X91172424Y-29017795D01*
X91128344Y-29066750D01*
X91080432Y-29125132D01*
X91062601Y-29139765D01*
X91046387Y-29157773D01*
X90996443Y-29194059D01*
X90943932Y-29237154D01*
X90918191Y-29250912D01*
X90894000Y-29268489D01*
X90841975Y-29291651D01*
X90788207Y-29320392D01*
X90754370Y-29330656D01*
X90721924Y-29345102D01*
X90671213Y-29355880D01*
X90619228Y-29371650D01*
X90577851Y-29375725D01*
X90537680Y-29384264D01*
X90491158Y-29384264D01*
X90443500Y-29388958D01*
X90395842Y-29384264D01*
X90349320Y-29384264D01*
X90309148Y-29375725D01*
X90267771Y-29371650D01*
X90215783Y-29355880D01*
X90165076Y-29345102D01*
X90132631Y-29330656D01*
X90098792Y-29320392D01*
X90045018Y-29291649D01*
X89993000Y-29268489D01*
X89968811Y-29250914D01*
X89943067Y-29237154D01*
X89890547Y-29194053D01*
X89840613Y-29157773D01*
X89824401Y-29139768D01*
X89806567Y-29125132D01*
X89758644Y-29066738D01*
X89714576Y-29017795D01*
X89705316Y-29001757D01*
X89694545Y-28988632D01*
X89654686Y-28914062D01*
X89620396Y-28854670D01*
X89616452Y-28842533D01*
X89611307Y-28832907D01*
X89582946Y-28739413D01*
X89562189Y-28675528D01*
X89561457Y-28668572D01*
X89560049Y-28663928D01*
X89546331Y-28524652D01*
X89542500Y-28488200D01*
X89546331Y-28451750D01*
X89560049Y-28312471D01*
X89561458Y-28307825D01*
X89562189Y-28300872D01*
X89582942Y-28237001D01*
X89611307Y-28143492D01*
X89616453Y-28133863D01*
X89620396Y-28121730D01*
X89654678Y-28062350D01*
X89694545Y-27987767D01*
X89705318Y-27974639D01*
X89714576Y-27958605D01*
X89758635Y-27909672D01*
X89806567Y-27851267D01*
X89824404Y-27836627D01*
X89840613Y-27818627D01*
X89890537Y-27782354D01*
X89943067Y-27739245D01*
X89968816Y-27725481D01*
X89993000Y-27707911D01*
X90045007Y-27684755D01*
X90098792Y-27656007D01*
X90132638Y-27645739D01*
X90165076Y-27631298D01*
X90215772Y-27620522D01*
X90267771Y-27604749D01*
X90309157Y-27600672D01*
X90349320Y-27592136D01*
X90395831Y-27592136D01*
X90443500Y-27587441D01*
X90491168Y-27592136D01*
G37*
G36*
X123330668Y-27488936D02*
G01*
X123377180Y-27488936D01*
X123417343Y-27497472D01*
X123458728Y-27501549D01*
X123510724Y-27517321D01*
X123561424Y-27528098D01*
X123593863Y-27542540D01*
X123627707Y-27552807D01*
X123681486Y-27581553D01*
X123733500Y-27604711D01*
X123757686Y-27622283D01*
X123783432Y-27636045D01*
X123835953Y-27679148D01*
X123885887Y-27715427D01*
X123902097Y-27733431D01*
X123919932Y-27748067D01*
X123967853Y-27806459D01*
X124011924Y-27855405D01*
X124021183Y-27871443D01*
X124031954Y-27884567D01*
X124071807Y-27959126D01*
X124106104Y-28018530D01*
X124110048Y-28030668D01*
X124115192Y-28040292D01*
X124143542Y-28133754D01*
X124164311Y-28197672D01*
X124165042Y-28204630D01*
X124166450Y-28209271D01*
X124180153Y-28348399D01*
X124184000Y-28385000D01*
X124180152Y-28421604D01*
X124166450Y-28560728D01*
X124165042Y-28565367D01*
X124164311Y-28572328D01*
X124143538Y-28636259D01*
X124115192Y-28729707D01*
X124110048Y-28739328D01*
X124106104Y-28751470D01*
X124071800Y-28810885D01*
X124031954Y-28885432D01*
X124021185Y-28898553D01*
X124011924Y-28914595D01*
X123967844Y-28963550D01*
X123919932Y-29021932D01*
X123902101Y-29036565D01*
X123885887Y-29054573D01*
X123835943Y-29090859D01*
X123783432Y-29133954D01*
X123757691Y-29147712D01*
X123733500Y-29165289D01*
X123681475Y-29188451D01*
X123627707Y-29217192D01*
X123593870Y-29227456D01*
X123561424Y-29241902D01*
X123510713Y-29252680D01*
X123458728Y-29268450D01*
X123417351Y-29272525D01*
X123377180Y-29281064D01*
X123330658Y-29281064D01*
X123283000Y-29285758D01*
X123235342Y-29281064D01*
X123188820Y-29281064D01*
X123148648Y-29272525D01*
X123107271Y-29268450D01*
X123055283Y-29252680D01*
X123004576Y-29241902D01*
X122972131Y-29227456D01*
X122938292Y-29217192D01*
X122884518Y-29188449D01*
X122832500Y-29165289D01*
X122808311Y-29147714D01*
X122782567Y-29133954D01*
X122730047Y-29090853D01*
X122680113Y-29054573D01*
X122663901Y-29036568D01*
X122646067Y-29021932D01*
X122598144Y-28963538D01*
X122554076Y-28914595D01*
X122544816Y-28898557D01*
X122534045Y-28885432D01*
X122494186Y-28810862D01*
X122459896Y-28751470D01*
X122455952Y-28739333D01*
X122450807Y-28729707D01*
X122422446Y-28636213D01*
X122401689Y-28572328D01*
X122400957Y-28565372D01*
X122399549Y-28560728D01*
X122385831Y-28421452D01*
X122382000Y-28385000D01*
X122385831Y-28348550D01*
X122399549Y-28209271D01*
X122400958Y-28204625D01*
X122401689Y-28197672D01*
X122422442Y-28133801D01*
X122450807Y-28040292D01*
X122455953Y-28030663D01*
X122459896Y-28018530D01*
X122494178Y-27959150D01*
X122534045Y-27884567D01*
X122544818Y-27871439D01*
X122554076Y-27855405D01*
X122598135Y-27806472D01*
X122646067Y-27748067D01*
X122663904Y-27733427D01*
X122680113Y-27715427D01*
X122730037Y-27679154D01*
X122782567Y-27636045D01*
X122808316Y-27622281D01*
X122832500Y-27604711D01*
X122884507Y-27581555D01*
X122938292Y-27552807D01*
X122972138Y-27542539D01*
X123004576Y-27528098D01*
X123055272Y-27517322D01*
X123107271Y-27501549D01*
X123148657Y-27497472D01*
X123188820Y-27488936D01*
X123235331Y-27488936D01*
X123283000Y-27484241D01*
X123330668Y-27488936D01*
G37*
G36*
X103064168Y-27465136D02*
G01*
X103110680Y-27465136D01*
X103150843Y-27473672D01*
X103192228Y-27477749D01*
X103244224Y-27493521D01*
X103294924Y-27504298D01*
X103327363Y-27518740D01*
X103361207Y-27529007D01*
X103414986Y-27557753D01*
X103467000Y-27580911D01*
X103491186Y-27598483D01*
X103516932Y-27612245D01*
X103569453Y-27655348D01*
X103619387Y-27691627D01*
X103635597Y-27709631D01*
X103653432Y-27724267D01*
X103701353Y-27782659D01*
X103745424Y-27831605D01*
X103754683Y-27847643D01*
X103765454Y-27860767D01*
X103805307Y-27935326D01*
X103839604Y-27994730D01*
X103843548Y-28006868D01*
X103848692Y-28016492D01*
X103877042Y-28109954D01*
X103897811Y-28173872D01*
X103898542Y-28180830D01*
X103899950Y-28185471D01*
X103913653Y-28324599D01*
X103917500Y-28361200D01*
X103913652Y-28397804D01*
X103899950Y-28536928D01*
X103898542Y-28541567D01*
X103897811Y-28548528D01*
X103877038Y-28612459D01*
X103848692Y-28705907D01*
X103843548Y-28715528D01*
X103839604Y-28727670D01*
X103805300Y-28787085D01*
X103765454Y-28861632D01*
X103754685Y-28874753D01*
X103745424Y-28890795D01*
X103701344Y-28939750D01*
X103653432Y-28998132D01*
X103635601Y-29012765D01*
X103619387Y-29030773D01*
X103569443Y-29067059D01*
X103516932Y-29110154D01*
X103491191Y-29123912D01*
X103467000Y-29141489D01*
X103414975Y-29164651D01*
X103361207Y-29193392D01*
X103327370Y-29203656D01*
X103294924Y-29218102D01*
X103244213Y-29228880D01*
X103192228Y-29244650D01*
X103150851Y-29248725D01*
X103110680Y-29257264D01*
X103064158Y-29257264D01*
X103016500Y-29261958D01*
X102968842Y-29257264D01*
X102922320Y-29257264D01*
X102882148Y-29248725D01*
X102840771Y-29244650D01*
X102788783Y-29228880D01*
X102738076Y-29218102D01*
X102705631Y-29203656D01*
X102671792Y-29193392D01*
X102618018Y-29164649D01*
X102566000Y-29141489D01*
X102541811Y-29123914D01*
X102516067Y-29110154D01*
X102463547Y-29067053D01*
X102413613Y-29030773D01*
X102397401Y-29012768D01*
X102379567Y-28998132D01*
X102331644Y-28939738D01*
X102287576Y-28890795D01*
X102278316Y-28874757D01*
X102267545Y-28861632D01*
X102227686Y-28787062D01*
X102193396Y-28727670D01*
X102189452Y-28715533D01*
X102184307Y-28705907D01*
X102155946Y-28612413D01*
X102135189Y-28548528D01*
X102134457Y-28541572D01*
X102133049Y-28536928D01*
X102119331Y-28397652D01*
X102115500Y-28361200D01*
X102119339Y-28324672D01*
X102133049Y-28185471D01*
X102134458Y-28180825D01*
X102135189Y-28173872D01*
X102155942Y-28110001D01*
X102184307Y-28016492D01*
X102189453Y-28006863D01*
X102193396Y-27994730D01*
X102227678Y-27935350D01*
X102267545Y-27860767D01*
X102278318Y-27847639D01*
X102287576Y-27831605D01*
X102331635Y-27782672D01*
X102379567Y-27724267D01*
X102397404Y-27709627D01*
X102413613Y-27691627D01*
X102463537Y-27655354D01*
X102516067Y-27612245D01*
X102541816Y-27598481D01*
X102566000Y-27580911D01*
X102618007Y-27557755D01*
X102671792Y-27529007D01*
X102705638Y-27518739D01*
X102738076Y-27504298D01*
X102788772Y-27493522D01*
X102840771Y-27477749D01*
X102882157Y-27473672D01*
X102922320Y-27465136D01*
X102968831Y-27465136D01*
X103016500Y-27460441D01*
X103064168Y-27465136D01*
G37*
G36*
X36787973Y-27425651D02*
G01*
X36950500Y-27498012D01*
X37094430Y-27602584D01*
X37213473Y-27734795D01*
X37302427Y-27888867D01*
X37357404Y-28058067D01*
X37376000Y-28235000D01*
X37357404Y-28411933D01*
X37302427Y-28581133D01*
X37213473Y-28735205D01*
X37094430Y-28867416D01*
X36950500Y-28971988D01*
X36787973Y-29044349D01*
X36613954Y-29081338D01*
X36436046Y-29081338D01*
X36262027Y-29044349D01*
X36099500Y-28971988D01*
X35955570Y-28867416D01*
X35836527Y-28735205D01*
X35747573Y-28581133D01*
X35692596Y-28411933D01*
X35674000Y-28235000D01*
X35692596Y-28058067D01*
X35747573Y-27888867D01*
X35836527Y-27734795D01*
X35955570Y-27602584D01*
X36099500Y-27498012D01*
X36262027Y-27425651D01*
X36436046Y-27388662D01*
X36613954Y-27388662D01*
X36787973Y-27425651D01*
G37*
G36*
X85047973Y-27425651D02*
G01*
X85210500Y-27498012D01*
X85354430Y-27602584D01*
X85473473Y-27734795D01*
X85562427Y-27888867D01*
X85617404Y-28058067D01*
X85636000Y-28235000D01*
X85617404Y-28411933D01*
X85562427Y-28581133D01*
X85473473Y-28735205D01*
X85354430Y-28867416D01*
X85210500Y-28971988D01*
X85047973Y-29044349D01*
X84873954Y-29081338D01*
X84696046Y-29081338D01*
X84522027Y-29044349D01*
X84359500Y-28971988D01*
X84215570Y-28867416D01*
X84096527Y-28735205D01*
X84007573Y-28581133D01*
X83952596Y-28411933D01*
X83934000Y-28235000D01*
X83952596Y-28058067D01*
X84007573Y-27888867D01*
X84096527Y-27734795D01*
X84215570Y-27602584D01*
X84359500Y-27498012D01*
X84522027Y-27425651D01*
X84696046Y-27388662D01*
X84873954Y-27388662D01*
X85047973Y-27425651D01*
G37*
G36*
X36787973Y-24885651D02*
G01*
X36950500Y-24958012D01*
X37094430Y-25062584D01*
X37213473Y-25194795D01*
X37302427Y-25348867D01*
X37357404Y-25518067D01*
X37376000Y-25695000D01*
X37357404Y-25871933D01*
X37302427Y-26041133D01*
X37213473Y-26195205D01*
X37094430Y-26327416D01*
X36950500Y-26431988D01*
X36787973Y-26504349D01*
X36613954Y-26541338D01*
X36436046Y-26541338D01*
X36262027Y-26504349D01*
X36099500Y-26431988D01*
X35955570Y-26327416D01*
X35836527Y-26195205D01*
X35747573Y-26041133D01*
X35692596Y-25871933D01*
X35674000Y-25695000D01*
X35692596Y-25518067D01*
X35747573Y-25348867D01*
X35836527Y-25194795D01*
X35955570Y-25062584D01*
X36099500Y-24958012D01*
X36262027Y-24885651D01*
X36436046Y-24848662D01*
X36613954Y-24848662D01*
X36787973Y-24885651D01*
G37*
G36*
X85047973Y-24885651D02*
G01*
X85210500Y-24958012D01*
X85354430Y-25062584D01*
X85473473Y-25194795D01*
X85562427Y-25348867D01*
X85617404Y-25518067D01*
X85636000Y-25695000D01*
X85617404Y-25871933D01*
X85562427Y-26041133D01*
X85473473Y-26195205D01*
X85354430Y-26327416D01*
X85210500Y-26431988D01*
X85047973Y-26504349D01*
X84873954Y-26541338D01*
X84696046Y-26541338D01*
X84522027Y-26504349D01*
X84359500Y-26431988D01*
X84215570Y-26327416D01*
X84096527Y-26195205D01*
X84007573Y-26041133D01*
X83952596Y-25871933D01*
X83934000Y-25695000D01*
X83952596Y-25518067D01*
X84007573Y-25348867D01*
X84096527Y-25194795D01*
X84215570Y-25062584D01*
X84359500Y-24958012D01*
X84522027Y-24885651D01*
X84696046Y-24848662D01*
X84873954Y-24848662D01*
X85047973Y-24885651D01*
G37*
G36*
X36787973Y-22345651D02*
G01*
X36950500Y-22418012D01*
X37094430Y-22522584D01*
X37213473Y-22654795D01*
X37302427Y-22808867D01*
X37357404Y-22978067D01*
X37376000Y-23155000D01*
X37357404Y-23331933D01*
X37302427Y-23501133D01*
X37213473Y-23655205D01*
X37094430Y-23787416D01*
X36950500Y-23891988D01*
X36787973Y-23964349D01*
X36613954Y-24001338D01*
X36436046Y-24001338D01*
X36262027Y-23964349D01*
X36099500Y-23891988D01*
X35955570Y-23787416D01*
X35836527Y-23655205D01*
X35747573Y-23501133D01*
X35692596Y-23331933D01*
X35674000Y-23155000D01*
X35692596Y-22978067D01*
X35747573Y-22808867D01*
X35836527Y-22654795D01*
X35955570Y-22522584D01*
X36099500Y-22418012D01*
X36262027Y-22345651D01*
X36436046Y-22308662D01*
X36613954Y-22308662D01*
X36787973Y-22345651D01*
G37*
G36*
X85047973Y-22345651D02*
G01*
X85210500Y-22418012D01*
X85354430Y-22522584D01*
X85473473Y-22654795D01*
X85562427Y-22808867D01*
X85617404Y-22978067D01*
X85636000Y-23155000D01*
X85617404Y-23331933D01*
X85562427Y-23501133D01*
X85473473Y-23655205D01*
X85354430Y-23787416D01*
X85210500Y-23891988D01*
X85047973Y-23964349D01*
X84873954Y-24001338D01*
X84696046Y-24001338D01*
X84522027Y-23964349D01*
X84359500Y-23891988D01*
X84215570Y-23787416D01*
X84096527Y-23655205D01*
X84007573Y-23501133D01*
X83952596Y-23331933D01*
X83934000Y-23155000D01*
X83952596Y-22978067D01*
X84007573Y-22808867D01*
X84096527Y-22654795D01*
X84215570Y-22522584D01*
X84359500Y-22418012D01*
X84522027Y-22345651D01*
X84696046Y-22308662D01*
X84873954Y-22308662D01*
X85047973Y-22345651D01*
G37*
G36*
X91594017Y-22357082D02*
G01*
X91610562Y-22368138D01*
X91621618Y-22384683D01*
X91625500Y-22404200D01*
X91625500Y-23904200D01*
X91621618Y-23923717D01*
X91610562Y-23940262D01*
X91594017Y-23951318D01*
X91574500Y-23955200D01*
X90074500Y-23955200D01*
X90054983Y-23951318D01*
X90038438Y-23940262D01*
X90027382Y-23923717D01*
X90023500Y-23904200D01*
X90023500Y-22404200D01*
X90027382Y-22384683D01*
X90038438Y-22368138D01*
X90054983Y-22357082D01*
X90074500Y-22353200D01*
X91574500Y-22353200D01*
X91594017Y-22357082D01*
G37*
G36*
X98465876Y-22357862D02*
G01*
X98508201Y-22357862D01*
X98555947Y-22368010D01*
X98602739Y-22373283D01*
X98636763Y-22385188D01*
X98671937Y-22392665D01*
X98722626Y-22415233D01*
X98772041Y-22432524D01*
X98797760Y-22448684D01*
X98824860Y-22460750D01*
X98875393Y-22497464D01*
X98923915Y-22527953D01*
X98941339Y-22545377D01*
X98960290Y-22559146D01*
X99007140Y-22611178D01*
X99050747Y-22654785D01*
X99060777Y-22670747D01*
X99072298Y-22683543D01*
X99111704Y-22751798D01*
X99146176Y-22806659D01*
X99150480Y-22818961D01*
X99155997Y-22828516D01*
X99184254Y-22915481D01*
X99205417Y-22975961D01*
X99206219Y-22983080D01*
X99207727Y-22987721D01*
X99221394Y-23117760D01*
X99225500Y-23154200D01*
X99221393Y-23190642D01*
X99207727Y-23320678D01*
X99206219Y-23325317D01*
X99205417Y-23332439D01*
X99184250Y-23392931D01*
X99155997Y-23479883D01*
X99150481Y-23489435D01*
X99146176Y-23501741D01*
X99111697Y-23556613D01*
X99072298Y-23624856D01*
X99060779Y-23637648D01*
X99050747Y-23653615D01*
X99007131Y-23697230D01*
X98960290Y-23749253D01*
X98941343Y-23763018D01*
X98923915Y-23780447D01*
X98875383Y-23810941D01*
X98824860Y-23847649D01*
X98797765Y-23859711D01*
X98772041Y-23875876D01*
X98722616Y-23893170D01*
X98671937Y-23915734D01*
X98636769Y-23923209D01*
X98602739Y-23935117D01*
X98555944Y-23940389D01*
X98508201Y-23950538D01*
X98465876Y-23950538D01*
X98424500Y-23955200D01*
X98383124Y-23950538D01*
X98340799Y-23950538D01*
X98293054Y-23940389D01*
X98246261Y-23935117D01*
X98212231Y-23923209D01*
X98177062Y-23915734D01*
X98126379Y-23893168D01*
X98076959Y-23875876D01*
X98051236Y-23859713D01*
X98024139Y-23847649D01*
X97973609Y-23810937D01*
X97925085Y-23780447D01*
X97907659Y-23763021D01*
X97888709Y-23749253D01*
X97841858Y-23697220D01*
X97798253Y-23653615D01*
X97788223Y-23637652D01*
X97776701Y-23624856D01*
X97737290Y-23556593D01*
X97702824Y-23501741D01*
X97698519Y-23489440D01*
X97693002Y-23479883D01*
X97664735Y-23392891D01*
X97643583Y-23332439D01*
X97642781Y-23325322D01*
X97641272Y-23320678D01*
X97627591Y-23190510D01*
X97623500Y-23154200D01*
X97627590Y-23117892D01*
X97641272Y-22987721D01*
X97642781Y-22983075D01*
X97643583Y-22975961D01*
X97664731Y-22915521D01*
X97693002Y-22828516D01*
X97698520Y-22818957D01*
X97702824Y-22806659D01*
X97737283Y-22751817D01*
X97776701Y-22683543D01*
X97788225Y-22670744D01*
X97798253Y-22654785D01*
X97841849Y-22611188D01*
X97888709Y-22559146D01*
X97907662Y-22545375D01*
X97925085Y-22527953D01*
X97973603Y-22497466D01*
X98024140Y-22460750D01*
X98051240Y-22448684D01*
X98076959Y-22432524D01*
X98126370Y-22415234D01*
X98177062Y-22392665D01*
X98212237Y-22385188D01*
X98246261Y-22373283D01*
X98293051Y-22368010D01*
X98340799Y-22357862D01*
X98383124Y-22357862D01*
X98424500Y-22353200D01*
X98465876Y-22357862D01*
G37*
G36*
X104040017Y-22357082D02*
G01*
X104056562Y-22368138D01*
X104067618Y-22384683D01*
X104071500Y-22404200D01*
X104071500Y-23904200D01*
X104067618Y-23923717D01*
X104056562Y-23940262D01*
X104040017Y-23951318D01*
X104020500Y-23955200D01*
X102520500Y-23955200D01*
X102500983Y-23951318D01*
X102484438Y-23940262D01*
X102473382Y-23923717D01*
X102469500Y-23904200D01*
X102469500Y-22404200D01*
X102473382Y-22384683D01*
X102484438Y-22368138D01*
X102500983Y-22357082D01*
X102520500Y-22353200D01*
X104020500Y-22353200D01*
X104040017Y-22357082D01*
G37*
G36*
X110911876Y-22357862D02*
G01*
X110954201Y-22357862D01*
X111001947Y-22368010D01*
X111048739Y-22373283D01*
X111082763Y-22385188D01*
X111117937Y-22392665D01*
X111168626Y-22415233D01*
X111218041Y-22432524D01*
X111243760Y-22448684D01*
X111270860Y-22460750D01*
X111321393Y-22497464D01*
X111369915Y-22527953D01*
X111387339Y-22545377D01*
X111406290Y-22559146D01*
X111453140Y-22611178D01*
X111496747Y-22654785D01*
X111506777Y-22670747D01*
X111518298Y-22683543D01*
X111557704Y-22751798D01*
X111592176Y-22806659D01*
X111596480Y-22818961D01*
X111601997Y-22828516D01*
X111630254Y-22915481D01*
X111651417Y-22975961D01*
X111652219Y-22983080D01*
X111653727Y-22987721D01*
X111667394Y-23117760D01*
X111671500Y-23154200D01*
X111667393Y-23190642D01*
X111653727Y-23320678D01*
X111652219Y-23325317D01*
X111651417Y-23332439D01*
X111630250Y-23392931D01*
X111601997Y-23479883D01*
X111596481Y-23489435D01*
X111592176Y-23501741D01*
X111557697Y-23556613D01*
X111518298Y-23624856D01*
X111506779Y-23637648D01*
X111496747Y-23653615D01*
X111453131Y-23697230D01*
X111406290Y-23749253D01*
X111387343Y-23763018D01*
X111369915Y-23780447D01*
X111321383Y-23810941D01*
X111270860Y-23847649D01*
X111243765Y-23859711D01*
X111218041Y-23875876D01*
X111168616Y-23893170D01*
X111117937Y-23915734D01*
X111082769Y-23923209D01*
X111048739Y-23935117D01*
X111001944Y-23940389D01*
X110954201Y-23950538D01*
X110911876Y-23950538D01*
X110870500Y-23955200D01*
X110829124Y-23950538D01*
X110786799Y-23950538D01*
X110739054Y-23940389D01*
X110692261Y-23935117D01*
X110658231Y-23923209D01*
X110623062Y-23915734D01*
X110572379Y-23893168D01*
X110522959Y-23875876D01*
X110497236Y-23859713D01*
X110470139Y-23847649D01*
X110419609Y-23810937D01*
X110371085Y-23780447D01*
X110353659Y-23763021D01*
X110334709Y-23749253D01*
X110287858Y-23697220D01*
X110244253Y-23653615D01*
X110234223Y-23637652D01*
X110222701Y-23624856D01*
X110183290Y-23556593D01*
X110148824Y-23501741D01*
X110144519Y-23489440D01*
X110139002Y-23479883D01*
X110110735Y-23392891D01*
X110089583Y-23332439D01*
X110088781Y-23325322D01*
X110087272Y-23320678D01*
X110073591Y-23190510D01*
X110069500Y-23154200D01*
X110073590Y-23117892D01*
X110087272Y-22987721D01*
X110088781Y-22983075D01*
X110089583Y-22975961D01*
X110110731Y-22915521D01*
X110139002Y-22828516D01*
X110144520Y-22818957D01*
X110148824Y-22806659D01*
X110183283Y-22751817D01*
X110222701Y-22683543D01*
X110234225Y-22670744D01*
X110244253Y-22654785D01*
X110287849Y-22611188D01*
X110334709Y-22559146D01*
X110353662Y-22545375D01*
X110371085Y-22527953D01*
X110419603Y-22497466D01*
X110470140Y-22460750D01*
X110497240Y-22448684D01*
X110522959Y-22432524D01*
X110572370Y-22415234D01*
X110623062Y-22392665D01*
X110658237Y-22385188D01*
X110692261Y-22373283D01*
X110739051Y-22368010D01*
X110786799Y-22357862D01*
X110829124Y-22357862D01*
X110870500Y-22353200D01*
X110911876Y-22357862D01*
G37*
G36*
X124560517Y-22126882D02*
G01*
X124577062Y-22137938D01*
X124588118Y-22154483D01*
X124592000Y-22174000D01*
X124592000Y-23674000D01*
X124588118Y-23693517D01*
X124577062Y-23710062D01*
X124560517Y-23721118D01*
X124541000Y-23725000D01*
X123041000Y-23725000D01*
X123021483Y-23721118D01*
X123004938Y-23710062D01*
X122993882Y-23693517D01*
X122990000Y-23674000D01*
X122990000Y-22174000D01*
X122993882Y-22154483D01*
X123004938Y-22137938D01*
X123021483Y-22126882D01*
X123041000Y-22123000D01*
X124541000Y-22123000D01*
X124560517Y-22126882D01*
G37*
G36*
X131432376Y-22127662D02*
G01*
X131474701Y-22127662D01*
X131522447Y-22137810D01*
X131569239Y-22143083D01*
X131603263Y-22154988D01*
X131638437Y-22162465D01*
X131689126Y-22185033D01*
X131738541Y-22202324D01*
X131764260Y-22218484D01*
X131791360Y-22230550D01*
X131841893Y-22267264D01*
X131890415Y-22297753D01*
X131907839Y-22315177D01*
X131926790Y-22328946D01*
X131973640Y-22380978D01*
X132017247Y-22424585D01*
X132027277Y-22440547D01*
X132038798Y-22453343D01*
X132078204Y-22521598D01*
X132112676Y-22576459D01*
X132116980Y-22588761D01*
X132122497Y-22598316D01*
X132150754Y-22685281D01*
X132171917Y-22745761D01*
X132172719Y-22752880D01*
X132174227Y-22757521D01*
X132187894Y-22887560D01*
X132192000Y-22924000D01*
X132187893Y-22960442D01*
X132174227Y-23090478D01*
X132172719Y-23095117D01*
X132171917Y-23102239D01*
X132150750Y-23162731D01*
X132122497Y-23249683D01*
X132116981Y-23259235D01*
X132112676Y-23271541D01*
X132078197Y-23326413D01*
X132038798Y-23394656D01*
X132027279Y-23407448D01*
X132017247Y-23423415D01*
X131973631Y-23467030D01*
X131926790Y-23519053D01*
X131907843Y-23532818D01*
X131890415Y-23550247D01*
X131841883Y-23580741D01*
X131791360Y-23617449D01*
X131764265Y-23629511D01*
X131738541Y-23645676D01*
X131689116Y-23662970D01*
X131638437Y-23685534D01*
X131603269Y-23693009D01*
X131569239Y-23704917D01*
X131522444Y-23710189D01*
X131474701Y-23720338D01*
X131432376Y-23720338D01*
X131391000Y-23725000D01*
X131349624Y-23720338D01*
X131307299Y-23720338D01*
X131259554Y-23710189D01*
X131212761Y-23704917D01*
X131178731Y-23693009D01*
X131143562Y-23685534D01*
X131092879Y-23662968D01*
X131043459Y-23645676D01*
X131017736Y-23629513D01*
X130990639Y-23617449D01*
X130940109Y-23580737D01*
X130891585Y-23550247D01*
X130874159Y-23532821D01*
X130855209Y-23519053D01*
X130808358Y-23467020D01*
X130764753Y-23423415D01*
X130754723Y-23407452D01*
X130743201Y-23394656D01*
X130703790Y-23326393D01*
X130669324Y-23271541D01*
X130665019Y-23259240D01*
X130659502Y-23249683D01*
X130631235Y-23162691D01*
X130610083Y-23102239D01*
X130609281Y-23095122D01*
X130607772Y-23090478D01*
X130594091Y-22960310D01*
X130590000Y-22924000D01*
X130594090Y-22887692D01*
X130607772Y-22757521D01*
X130609281Y-22752875D01*
X130610083Y-22745761D01*
X130631231Y-22685321D01*
X130659502Y-22598316D01*
X130665020Y-22588757D01*
X130669324Y-22576459D01*
X130703783Y-22521617D01*
X130743201Y-22453343D01*
X130754725Y-22440544D01*
X130764753Y-22424585D01*
X130808349Y-22380988D01*
X130855209Y-22328946D01*
X130874162Y-22315175D01*
X130891585Y-22297753D01*
X130940103Y-22267266D01*
X130990640Y-22230550D01*
X131017740Y-22218484D01*
X131043459Y-22202324D01*
X131092870Y-22185034D01*
X131143562Y-22162465D01*
X131178737Y-22154988D01*
X131212761Y-22143083D01*
X131259551Y-22137810D01*
X131307299Y-22127662D01*
X131349624Y-22127662D01*
X131391000Y-22123000D01*
X131432376Y-22127662D01*
G37*
G36*
X137006517Y-22126882D02*
G01*
X137023062Y-22137938D01*
X137034118Y-22154483D01*
X137038000Y-22174000D01*
X137038000Y-23674000D01*
X137034118Y-23693517D01*
X137023062Y-23710062D01*
X137006517Y-23721118D01*
X136987000Y-23725000D01*
X135487000Y-23725000D01*
X135467483Y-23721118D01*
X135450938Y-23710062D01*
X135439882Y-23693517D01*
X135436000Y-23674000D01*
X135436000Y-22174000D01*
X135439882Y-22154483D01*
X135450938Y-22137938D01*
X135467483Y-22126882D01*
X135487000Y-22123000D01*
X136987000Y-22123000D01*
X137006517Y-22126882D01*
G37*
G36*
X143878376Y-22127662D02*
G01*
X143920701Y-22127662D01*
X143968447Y-22137810D01*
X144015239Y-22143083D01*
X144049263Y-22154988D01*
X144084437Y-22162465D01*
X144135126Y-22185033D01*
X144184541Y-22202324D01*
X144210260Y-22218484D01*
X144237360Y-22230550D01*
X144287893Y-22267264D01*
X144336415Y-22297753D01*
X144353839Y-22315177D01*
X144372790Y-22328946D01*
X144419640Y-22380978D01*
X144463247Y-22424585D01*
X144473277Y-22440547D01*
X144484798Y-22453343D01*
X144524204Y-22521598D01*
X144558676Y-22576459D01*
X144562980Y-22588761D01*
X144568497Y-22598316D01*
X144596754Y-22685281D01*
X144617917Y-22745761D01*
X144618719Y-22752880D01*
X144620227Y-22757521D01*
X144633894Y-22887560D01*
X144638000Y-22924000D01*
X144633893Y-22960442D01*
X144620227Y-23090478D01*
X144618719Y-23095117D01*
X144617917Y-23102239D01*
X144596750Y-23162731D01*
X144568497Y-23249683D01*
X144562981Y-23259235D01*
X144558676Y-23271541D01*
X144524197Y-23326413D01*
X144484798Y-23394656D01*
X144473279Y-23407448D01*
X144463247Y-23423415D01*
X144419631Y-23467030D01*
X144372790Y-23519053D01*
X144353843Y-23532818D01*
X144336415Y-23550247D01*
X144287883Y-23580741D01*
X144237360Y-23617449D01*
X144210265Y-23629511D01*
X144184541Y-23645676D01*
X144135116Y-23662970D01*
X144084437Y-23685534D01*
X144049269Y-23693009D01*
X144015239Y-23704917D01*
X143968444Y-23710189D01*
X143920701Y-23720338D01*
X143878376Y-23720338D01*
X143837000Y-23725000D01*
X143795624Y-23720338D01*
X143753299Y-23720338D01*
X143705554Y-23710189D01*
X143658761Y-23704917D01*
X143624731Y-23693009D01*
X143589562Y-23685534D01*
X143538879Y-23662968D01*
X143489459Y-23645676D01*
X143463736Y-23629513D01*
X143436639Y-23617449D01*
X143386109Y-23580737D01*
X143337585Y-23550247D01*
X143320159Y-23532821D01*
X143301209Y-23519053D01*
X143254358Y-23467020D01*
X143210753Y-23423415D01*
X143200723Y-23407452D01*
X143189201Y-23394656D01*
X143149790Y-23326393D01*
X143115324Y-23271541D01*
X143111019Y-23259240D01*
X143105502Y-23249683D01*
X143077235Y-23162691D01*
X143056083Y-23102239D01*
X143055281Y-23095122D01*
X143053772Y-23090478D01*
X143040091Y-22960310D01*
X143036000Y-22924000D01*
X143040090Y-22887692D01*
X143053772Y-22757521D01*
X143055281Y-22752875D01*
X143056083Y-22745761D01*
X143077231Y-22685321D01*
X143105502Y-22598316D01*
X143111020Y-22588757D01*
X143115324Y-22576459D01*
X143149783Y-22521617D01*
X143189201Y-22453343D01*
X143200725Y-22440544D01*
X143210753Y-22424585D01*
X143254349Y-22380988D01*
X143301209Y-22328946D01*
X143320162Y-22315175D01*
X143337585Y-22297753D01*
X143386103Y-22267266D01*
X143436640Y-22230550D01*
X143463740Y-22218484D01*
X143489459Y-22202324D01*
X143538870Y-22185034D01*
X143589562Y-22162465D01*
X143624737Y-22154988D01*
X143658761Y-22143083D01*
X143705551Y-22137810D01*
X143753299Y-22127662D01*
X143795624Y-22127662D01*
X143837000Y-22123000D01*
X143878376Y-22127662D01*
G37*
G36*
X36787973Y-19805651D02*
G01*
X36950500Y-19878012D01*
X37094430Y-19982584D01*
X37213473Y-20114795D01*
X37302427Y-20268867D01*
X37357404Y-20438067D01*
X37376000Y-20615000D01*
X37357404Y-20791933D01*
X37302427Y-20961133D01*
X37213473Y-21115205D01*
X37094430Y-21247416D01*
X36950500Y-21351988D01*
X36787973Y-21424349D01*
X36613954Y-21461338D01*
X36436046Y-21461338D01*
X36262027Y-21424349D01*
X36099500Y-21351988D01*
X35955570Y-21247416D01*
X35836527Y-21115205D01*
X35747573Y-20961133D01*
X35692596Y-20791933D01*
X35674000Y-20615000D01*
X35692596Y-20438067D01*
X35747573Y-20268867D01*
X35836527Y-20114795D01*
X35955570Y-19982584D01*
X36099500Y-19878012D01*
X36262027Y-19805651D01*
X36436046Y-19768662D01*
X36613954Y-19768662D01*
X36787973Y-19805651D01*
G37*
G36*
X36787973Y-17265651D02*
G01*
X36950500Y-17338012D01*
X37094430Y-17442584D01*
X37213473Y-17574795D01*
X37302427Y-17728867D01*
X37357404Y-17898067D01*
X37376000Y-18075000D01*
X37357404Y-18251933D01*
X37302427Y-18421133D01*
X37213473Y-18575205D01*
X37094430Y-18707416D01*
X36950500Y-18811988D01*
X36787973Y-18884349D01*
X36613954Y-18921338D01*
X36436046Y-18921338D01*
X36262027Y-18884349D01*
X36099500Y-18811988D01*
X35955570Y-18707416D01*
X35836527Y-18575205D01*
X35747573Y-18421133D01*
X35692596Y-18251933D01*
X35674000Y-18075000D01*
X35692596Y-17898067D01*
X35747573Y-17728867D01*
X35836527Y-17574795D01*
X35955570Y-17442584D01*
X36099500Y-17338012D01*
X36262027Y-17265651D01*
X36436046Y-17228662D01*
X36613954Y-17228662D01*
X36787973Y-17265651D01*
G37*
G36*
X85047973Y-17265651D02*
G01*
X85210500Y-17338012D01*
X85354430Y-17442584D01*
X85473473Y-17574795D01*
X85562427Y-17728867D01*
X85617404Y-17898067D01*
X85636000Y-18075000D01*
X85617404Y-18251933D01*
X85562427Y-18421133D01*
X85473473Y-18575205D01*
X85354430Y-18707416D01*
X85210500Y-18811988D01*
X85047973Y-18884349D01*
X84873954Y-18921338D01*
X84696046Y-18921338D01*
X84522027Y-18884349D01*
X84359500Y-18811988D01*
X84215570Y-18707416D01*
X84096527Y-18575205D01*
X84007573Y-18421133D01*
X83952596Y-18251933D01*
X83934000Y-18075000D01*
X83952596Y-17898067D01*
X84007573Y-17728867D01*
X84096527Y-17574795D01*
X84215570Y-17442584D01*
X84359500Y-17338012D01*
X84522027Y-17265651D01*
X84696046Y-17228662D01*
X84873954Y-17228662D01*
X85047973Y-17265651D01*
G37*
G36*
X85047973Y-14725651D02*
G01*
X85210500Y-14798012D01*
X85354430Y-14902584D01*
X85473473Y-15034795D01*
X85562427Y-15188867D01*
X85617404Y-15358067D01*
X85636000Y-15535000D01*
X85617404Y-15711933D01*
X85562427Y-15881133D01*
X85473473Y-16035205D01*
X85354430Y-16167416D01*
X85210500Y-16271988D01*
X85047973Y-16344349D01*
X84873954Y-16381338D01*
X84696046Y-16381338D01*
X84522027Y-16344349D01*
X84359500Y-16271988D01*
X84215570Y-16167416D01*
X84096527Y-16035205D01*
X84007573Y-15881133D01*
X83952596Y-15711933D01*
X83934000Y-15535000D01*
X83952596Y-15358067D01*
X84007573Y-15188867D01*
X84096527Y-15034795D01*
X84215570Y-14902584D01*
X84359500Y-14798012D01*
X84522027Y-14725651D01*
X84696046Y-14688662D01*
X84873954Y-14688662D01*
X85047973Y-14725651D01*
G37*
G36*
X36787973Y-13205651D02*
G01*
X36950500Y-13278012D01*
X37094430Y-13382584D01*
X37213473Y-13514795D01*
X37302427Y-13668867D01*
X37357404Y-13838067D01*
X37376000Y-14015000D01*
X37357404Y-14191933D01*
X37302427Y-14361133D01*
X37213473Y-14515205D01*
X37094430Y-14647416D01*
X36950500Y-14751988D01*
X36787973Y-14824349D01*
X36613954Y-14861338D01*
X36436046Y-14861338D01*
X36262027Y-14824349D01*
X36099500Y-14751988D01*
X35955570Y-14647416D01*
X35836527Y-14515205D01*
X35747573Y-14361133D01*
X35692596Y-14191933D01*
X35674000Y-14015000D01*
X35692596Y-13838067D01*
X35747573Y-13668867D01*
X35836527Y-13514795D01*
X35955570Y-13382584D01*
X36099500Y-13278012D01*
X36262027Y-13205651D01*
X36436046Y-13168662D01*
X36613954Y-13168662D01*
X36787973Y-13205651D01*
G37*
G36*
X85047973Y-12185651D02*
G01*
X85210500Y-12258012D01*
X85354430Y-12362584D01*
X85473473Y-12494795D01*
X85562427Y-12648867D01*
X85617404Y-12818067D01*
X85636000Y-12995000D01*
X85617404Y-13171933D01*
X85562427Y-13341133D01*
X85473473Y-13495205D01*
X85354430Y-13627416D01*
X85210500Y-13731988D01*
X85047973Y-13804349D01*
X84873954Y-13841338D01*
X84696046Y-13841338D01*
X84522027Y-13804349D01*
X84359500Y-13731988D01*
X84215570Y-13627416D01*
X84096527Y-13495205D01*
X84007573Y-13341133D01*
X83952596Y-13171933D01*
X83934000Y-12995000D01*
X83952596Y-12818067D01*
X84007573Y-12648867D01*
X84096527Y-12494795D01*
X84215570Y-12362584D01*
X84359500Y-12258012D01*
X84522027Y-12185651D01*
X84696046Y-12148662D01*
X84873954Y-12148662D01*
X85047973Y-12185651D01*
G37*
G36*
X36787973Y-10665651D02*
G01*
X36950500Y-10738012D01*
X37094430Y-10842584D01*
X37213473Y-10974795D01*
X37302427Y-11128867D01*
X37357404Y-11298067D01*
X37376000Y-11475000D01*
X37357404Y-11651933D01*
X37302427Y-11821133D01*
X37213473Y-11975205D01*
X37094430Y-12107416D01*
X36950500Y-12211988D01*
X36787973Y-12284349D01*
X36613954Y-12321338D01*
X36436046Y-12321338D01*
X36262027Y-12284349D01*
X36099500Y-12211988D01*
X35955570Y-12107416D01*
X35836527Y-11975205D01*
X35747573Y-11821133D01*
X35692596Y-11651933D01*
X35674000Y-11475000D01*
X35692596Y-11298067D01*
X35747573Y-11128867D01*
X35836527Y-10974795D01*
X35955570Y-10842584D01*
X36099500Y-10738012D01*
X36262027Y-10665651D01*
X36436046Y-10628662D01*
X36613954Y-10628662D01*
X36787973Y-10665651D01*
G37*
G36*
X98167130Y-8922295D02*
G01*
X98403785Y-8979111D01*
X98628639Y-9072249D01*
X98836155Y-9199415D01*
X99021223Y-9357477D01*
X99179285Y-9542545D01*
X99306451Y-9750061D01*
X99399589Y-9974915D01*
X99456405Y-10211570D01*
X99475500Y-10454200D01*
X99456405Y-10696830D01*
X99399589Y-10933485D01*
X99306451Y-11158339D01*
X99179285Y-11365855D01*
X99021223Y-11550923D01*
X98836155Y-11708985D01*
X98628639Y-11836151D01*
X98403785Y-11929289D01*
X98167130Y-11986105D01*
X97924500Y-12005200D01*
X97681870Y-11986105D01*
X97445215Y-11929289D01*
X97220361Y-11836151D01*
X97012845Y-11708985D01*
X96827777Y-11550923D01*
X96669715Y-11365855D01*
X96542549Y-11158339D01*
X96449411Y-10933485D01*
X96392595Y-10696830D01*
X96373500Y-10454200D01*
X96392595Y-10211570D01*
X96449411Y-9974915D01*
X96542549Y-9750061D01*
X96669715Y-9542545D01*
X96827777Y-9357477D01*
X97012845Y-9199415D01*
X97220361Y-9072249D01*
X97445215Y-8979111D01*
X97681870Y-8922295D01*
X97924500Y-8903200D01*
X98167130Y-8922295D01*
G37*
G36*
X110613130Y-8922295D02*
G01*
X110849785Y-8979111D01*
X111074639Y-9072249D01*
X111282155Y-9199415D01*
X111467223Y-9357477D01*
X111625285Y-9542545D01*
X111752451Y-9750061D01*
X111845589Y-9974915D01*
X111902405Y-10211570D01*
X111921500Y-10454200D01*
X111902405Y-10696830D01*
X111845589Y-10933485D01*
X111752451Y-11158339D01*
X111625285Y-11365855D01*
X111467223Y-11550923D01*
X111282155Y-11708985D01*
X111074639Y-11836151D01*
X110849785Y-11929289D01*
X110613130Y-11986105D01*
X110370500Y-12005200D01*
X110127870Y-11986105D01*
X109891215Y-11929289D01*
X109666361Y-11836151D01*
X109458845Y-11708985D01*
X109273777Y-11550923D01*
X109115715Y-11365855D01*
X108988549Y-11158339D01*
X108895411Y-10933485D01*
X108838595Y-10696830D01*
X108819500Y-10454200D01*
X108838595Y-10211570D01*
X108895411Y-9974915D01*
X108988549Y-9750061D01*
X109115715Y-9542545D01*
X109273777Y-9357477D01*
X109458845Y-9199415D01*
X109666361Y-9072249D01*
X109891215Y-8979111D01*
X110127870Y-8922295D01*
X110370500Y-8903200D01*
X110613130Y-8922295D01*
G37*
G36*
X131133630Y-8692095D02*
G01*
X131370285Y-8748911D01*
X131595139Y-8842049D01*
X131802655Y-8969215D01*
X131987723Y-9127277D01*
X132145785Y-9312345D01*
X132272951Y-9519861D01*
X132366089Y-9744715D01*
X132422905Y-9981370D01*
X132442000Y-10224000D01*
X132422905Y-10466630D01*
X132366089Y-10703285D01*
X132272951Y-10928139D01*
X132145785Y-11135655D01*
X131987723Y-11320723D01*
X131802655Y-11478785D01*
X131595139Y-11605951D01*
X131370285Y-11699089D01*
X131133630Y-11755905D01*
X130891000Y-11775000D01*
X130648370Y-11755905D01*
X130411715Y-11699089D01*
X130186861Y-11605951D01*
X129979345Y-11478785D01*
X129794277Y-11320723D01*
X129636215Y-11135655D01*
X129509049Y-10928139D01*
X129415911Y-10703285D01*
X129359095Y-10466630D01*
X129340000Y-10224000D01*
X129359095Y-9981370D01*
X129415911Y-9744715D01*
X129509049Y-9519861D01*
X129636215Y-9312345D01*
X129794277Y-9127277D01*
X129979345Y-8969215D01*
X130186861Y-8842049D01*
X130411715Y-8748911D01*
X130648370Y-8692095D01*
X130891000Y-8673000D01*
X131133630Y-8692095D01*
G37*
G36*
X143579630Y-8692095D02*
G01*
X143816285Y-8748911D01*
X144041139Y-8842049D01*
X144248655Y-8969215D01*
X144433723Y-9127277D01*
X144591785Y-9312345D01*
X144718951Y-9519861D01*
X144812089Y-9744715D01*
X144868905Y-9981370D01*
X144888000Y-10224000D01*
X144868905Y-10466630D01*
X144812089Y-10703285D01*
X144718951Y-10928139D01*
X144591785Y-11135655D01*
X144433723Y-11320723D01*
X144248655Y-11478785D01*
X144041139Y-11605951D01*
X143816285Y-11699089D01*
X143579630Y-11755905D01*
X143337000Y-11775000D01*
X143094370Y-11755905D01*
X142857715Y-11699089D01*
X142632861Y-11605951D01*
X142425345Y-11478785D01*
X142240277Y-11320723D01*
X142082215Y-11135655D01*
X141955049Y-10928139D01*
X141861911Y-10703285D01*
X141805095Y-10466630D01*
X141786000Y-10224000D01*
X141805095Y-9981370D01*
X141861911Y-9744715D01*
X141955049Y-9519861D01*
X142082215Y-9312345D01*
X142240277Y-9127277D01*
X142425345Y-8969215D01*
X142632861Y-8842049D01*
X142857715Y-8748911D01*
X143094370Y-8692095D01*
X143337000Y-8673000D01*
X143579630Y-8692095D01*
G37*
G36*
X85047973Y-9645651D02*
G01*
X85210500Y-9718012D01*
X85354430Y-9822584D01*
X85473473Y-9954795D01*
X85562427Y-10108867D01*
X85617404Y-10278067D01*
X85636000Y-10455000D01*
X85617404Y-10631933D01*
X85562427Y-10801133D01*
X85473473Y-10955205D01*
X85354430Y-11087416D01*
X85210500Y-11191988D01*
X85047973Y-11264349D01*
X84873954Y-11301338D01*
X84696046Y-11301338D01*
X84522027Y-11264349D01*
X84359500Y-11191988D01*
X84215570Y-11087416D01*
X84096527Y-10955205D01*
X84007573Y-10801133D01*
X83952596Y-10631933D01*
X83934000Y-10455000D01*
X83952596Y-10278067D01*
X84007573Y-10108867D01*
X84096527Y-9954795D01*
X84215570Y-9822584D01*
X84359500Y-9718012D01*
X84522027Y-9645651D01*
X84696046Y-9608662D01*
X84873954Y-9608662D01*
X85047973Y-9645651D01*
G37*
G36*
X36787973Y-8125651D02*
G01*
X36950500Y-8198012D01*
X37094430Y-8302584D01*
X37213473Y-8434795D01*
X37302427Y-8588867D01*
X37357404Y-8758067D01*
X37376000Y-8935000D01*
X37357404Y-9111933D01*
X37302427Y-9281133D01*
X37213473Y-9435205D01*
X37094430Y-9567416D01*
X36950500Y-9671988D01*
X36787973Y-9744349D01*
X36613954Y-9781338D01*
X36436046Y-9781338D01*
X36262027Y-9744349D01*
X36099500Y-9671988D01*
X35955570Y-9567416D01*
X35836527Y-9435205D01*
X35747573Y-9281133D01*
X35692596Y-9111933D01*
X35674000Y-8935000D01*
X35692596Y-8758067D01*
X35747573Y-8588867D01*
X35836527Y-8434795D01*
X35955570Y-8302584D01*
X36099500Y-8198012D01*
X36262027Y-8125651D01*
X36436046Y-8088662D01*
X36613954Y-8088662D01*
X36787973Y-8125651D01*
G37*
G36*
X91567130Y-6382295D02*
G01*
X91803785Y-6439111D01*
X92028639Y-6532249D01*
X92236155Y-6659415D01*
X92421223Y-6817477D01*
X92579285Y-7002545D01*
X92706451Y-7210061D01*
X92799589Y-7434915D01*
X92856405Y-7671570D01*
X92875500Y-7914200D01*
X92856405Y-8156830D01*
X92799589Y-8393485D01*
X92706451Y-8618339D01*
X92579285Y-8825855D01*
X92421223Y-9010923D01*
X92236155Y-9168985D01*
X92028639Y-9296151D01*
X91803785Y-9389289D01*
X91567130Y-9446105D01*
X91324500Y-9465200D01*
X91081870Y-9446105D01*
X90845215Y-9389289D01*
X90620361Y-9296151D01*
X90412845Y-9168985D01*
X90227777Y-9010923D01*
X90069715Y-8825855D01*
X89942549Y-8618339D01*
X89849411Y-8393485D01*
X89792595Y-8156830D01*
X89773500Y-7914200D01*
X89792595Y-7671570D01*
X89849411Y-7434915D01*
X89942549Y-7210061D01*
X90069715Y-7002545D01*
X90227777Y-6817477D01*
X90412845Y-6659415D01*
X90620361Y-6532249D01*
X90845215Y-6439111D01*
X91081870Y-6382295D01*
X91324500Y-6363200D01*
X91567130Y-6382295D01*
G37*
G36*
X104013130Y-6382295D02*
G01*
X104249785Y-6439111D01*
X104474639Y-6532249D01*
X104682155Y-6659415D01*
X104867223Y-6817477D01*
X105025285Y-7002545D01*
X105152451Y-7210061D01*
X105245589Y-7434915D01*
X105302405Y-7671570D01*
X105321500Y-7914200D01*
X105302405Y-8156830D01*
X105245589Y-8393485D01*
X105152451Y-8618339D01*
X105025285Y-8825855D01*
X104867223Y-9010923D01*
X104682155Y-9168985D01*
X104474639Y-9296151D01*
X104249785Y-9389289D01*
X104013130Y-9446105D01*
X103770500Y-9465200D01*
X103527870Y-9446105D01*
X103291215Y-9389289D01*
X103066361Y-9296151D01*
X102858845Y-9168985D01*
X102673777Y-9010923D01*
X102515715Y-8825855D01*
X102388549Y-8618339D01*
X102295411Y-8393485D01*
X102238595Y-8156830D01*
X102219500Y-7914200D01*
X102238595Y-7671570D01*
X102295411Y-7434915D01*
X102388549Y-7210061D01*
X102515715Y-7002545D01*
X102673777Y-6817477D01*
X102858845Y-6659415D01*
X103066361Y-6532249D01*
X103291215Y-6439111D01*
X103527870Y-6382295D01*
X103770500Y-6363200D01*
X104013130Y-6382295D01*
G37*
G36*
X124533630Y-6152095D02*
G01*
X124770285Y-6208911D01*
X124995139Y-6302049D01*
X125202655Y-6429215D01*
X125387723Y-6587277D01*
X125545785Y-6772345D01*
X125672951Y-6979861D01*
X125766089Y-7204715D01*
X125822905Y-7441370D01*
X125842000Y-7684000D01*
X125822905Y-7926630D01*
X125766089Y-8163285D01*
X125672951Y-8388139D01*
X125545785Y-8595655D01*
X125387723Y-8780723D01*
X125202655Y-8938785D01*
X124995139Y-9065951D01*
X124770285Y-9159089D01*
X124533630Y-9215905D01*
X124291000Y-9235000D01*
X124048370Y-9215905D01*
X123811715Y-9159089D01*
X123586861Y-9065951D01*
X123379345Y-8938785D01*
X123194277Y-8780723D01*
X123036215Y-8595655D01*
X122909049Y-8388139D01*
X122815911Y-8163285D01*
X122759095Y-7926630D01*
X122740000Y-7684000D01*
X122759095Y-7441370D01*
X122815911Y-7204715D01*
X122909049Y-6979861D01*
X123036215Y-6772345D01*
X123194277Y-6587277D01*
X123379345Y-6429215D01*
X123586861Y-6302049D01*
X123811715Y-6208911D01*
X124048370Y-6152095D01*
X124291000Y-6133000D01*
X124533630Y-6152095D01*
G37*
G36*
X136979630Y-6152095D02*
G01*
X137216285Y-6208911D01*
X137441139Y-6302049D01*
X137648655Y-6429215D01*
X137833723Y-6587277D01*
X137991785Y-6772345D01*
X138118951Y-6979861D01*
X138212089Y-7204715D01*
X138268905Y-7441370D01*
X138288000Y-7684000D01*
X138268905Y-7926630D01*
X138212089Y-8163285D01*
X138118951Y-8388139D01*
X137991785Y-8595655D01*
X137833723Y-8780723D01*
X137648655Y-8938785D01*
X137441139Y-9065951D01*
X137216285Y-9159089D01*
X136979630Y-9215905D01*
X136737000Y-9235000D01*
X136494370Y-9215905D01*
X136257715Y-9159089D01*
X136032861Y-9065951D01*
X135825345Y-8938785D01*
X135640277Y-8780723D01*
X135482215Y-8595655D01*
X135355049Y-8388139D01*
X135261911Y-8163285D01*
X135205095Y-7926630D01*
X135186000Y-7684000D01*
X135205095Y-7441370D01*
X135261911Y-7204715D01*
X135355049Y-6979861D01*
X135482215Y-6772345D01*
X135640277Y-6587277D01*
X135825345Y-6429215D01*
X136032861Y-6302049D01*
X136257715Y-6208911D01*
X136494370Y-6152095D01*
X136737000Y-6133000D01*
X136979630Y-6152095D01*
G37*
G36*
X85047973Y-7105651D02*
G01*
X85210500Y-7178012D01*
X85354430Y-7282584D01*
X85473473Y-7414795D01*
X85562427Y-7568867D01*
X85617404Y-7738067D01*
X85636000Y-7915000D01*
X85617404Y-8091933D01*
X85562427Y-8261133D01*
X85473473Y-8415205D01*
X85354430Y-8547416D01*
X85210500Y-8651988D01*
X85047973Y-8724349D01*
X84873954Y-8761338D01*
X84696046Y-8761338D01*
X84522027Y-8724349D01*
X84359500Y-8651988D01*
X84215570Y-8547416D01*
X84096527Y-8415205D01*
X84007573Y-8261133D01*
X83952596Y-8091933D01*
X83934000Y-7915000D01*
X83952596Y-7738067D01*
X84007573Y-7568867D01*
X84096527Y-7414795D01*
X84215570Y-7282584D01*
X84359500Y-7178012D01*
X84522027Y-7105651D01*
X84696046Y-7068662D01*
X84873954Y-7068662D01*
X85047973Y-7105651D01*
G37*
G36*
X36787973Y-5585651D02*
G01*
X36950500Y-5658012D01*
X37094430Y-5762584D01*
X37213473Y-5894795D01*
X37302427Y-6048867D01*
X37357404Y-6218067D01*
X37376000Y-6395000D01*
X37357404Y-6571933D01*
X37302427Y-6741133D01*
X37213473Y-6895205D01*
X37094430Y-7027416D01*
X36950500Y-7131988D01*
X36787973Y-7204349D01*
X36613954Y-7241338D01*
X36436046Y-7241338D01*
X36262027Y-7204349D01*
X36099500Y-7131988D01*
X35955570Y-7027416D01*
X35836527Y-6895205D01*
X35747573Y-6741133D01*
X35692596Y-6571933D01*
X35674000Y-6395000D01*
X35692596Y-6218067D01*
X35747573Y-6048867D01*
X35836527Y-5894795D01*
X35955570Y-5762584D01*
X36099500Y-5658012D01*
X36262027Y-5585651D01*
X36436046Y-5548662D01*
X36613954Y-5548662D01*
X36787973Y-5585651D01*
G37*
G36*
X85047973Y-4565651D02*
G01*
X85210500Y-4638012D01*
X85354430Y-4742584D01*
X85473473Y-4874795D01*
X85562427Y-5028867D01*
X85617404Y-5198067D01*
X85636000Y-5375000D01*
X85617404Y-5551933D01*
X85562427Y-5721133D01*
X85473473Y-5875205D01*
X85354430Y-6007416D01*
X85210500Y-6111988D01*
X85047973Y-6184349D01*
X84873954Y-6221338D01*
X84696046Y-6221338D01*
X84522027Y-6184349D01*
X84359500Y-6111988D01*
X84215570Y-6007416D01*
X84096527Y-5875205D01*
X84007573Y-5721133D01*
X83952596Y-5551933D01*
X83934000Y-5375000D01*
X83952596Y-5198067D01*
X84007573Y-5028867D01*
X84096527Y-4874795D01*
X84215570Y-4742584D01*
X84359500Y-4638012D01*
X84522027Y-4565651D01*
X84696046Y-4528662D01*
X84873954Y-4528662D01*
X85047973Y-4565651D01*
G37*
G36*
X36787973Y-3045651D02*
G01*
X36950500Y-3118012D01*
X37094430Y-3222584D01*
X37213473Y-3354795D01*
X37302427Y-3508867D01*
X37357404Y-3678067D01*
X37376000Y-3855000D01*
X37357404Y-4031933D01*
X37302427Y-4201133D01*
X37213473Y-4355205D01*
X37094430Y-4487416D01*
X36950500Y-4591988D01*
X36787973Y-4664349D01*
X36613954Y-4701338D01*
X36436046Y-4701338D01*
X36262027Y-4664349D01*
X36099500Y-4591988D01*
X35955570Y-4487416D01*
X35836527Y-4355205D01*
X35747573Y-4201133D01*
X35692596Y-4031933D01*
X35674000Y-3855000D01*
X35692596Y-3678067D01*
X35747573Y-3508867D01*
X35836527Y-3354795D01*
X35955570Y-3222584D01*
X36099500Y-3118012D01*
X36262027Y-3045651D01*
X36436046Y-3008662D01*
X36613954Y-3008662D01*
X36787973Y-3045651D01*
G37*
G36*
X85047973Y-2025651D02*
G01*
X85210500Y-2098012D01*
X85354430Y-2202584D01*
X85473473Y-2334795D01*
X85562427Y-2488867D01*
X85617404Y-2658067D01*
X85636000Y-2835000D01*
X85617404Y-3011933D01*
X85562427Y-3181133D01*
X85473473Y-3335205D01*
X85354430Y-3467416D01*
X85210500Y-3571988D01*
X85047973Y-3644349D01*
X84873954Y-3681338D01*
X84696046Y-3681338D01*
X84522027Y-3644349D01*
X84359500Y-3571988D01*
X84215570Y-3467416D01*
X84096527Y-3335205D01*
X84007573Y-3181133D01*
X83952596Y-3011933D01*
X83934000Y-2835000D01*
X83952596Y-2658067D01*
X84007573Y-2488867D01*
X84096527Y-2334795D01*
X84215570Y-2202584D01*
X84359500Y-2098012D01*
X84522027Y-2025651D01*
X84696046Y-1988662D01*
X84873954Y-1988662D01*
X85047973Y-2025651D01*
G37*
G36*
X36787973Y-505651D02*
G01*
X36950500Y-578012D01*
X37094430Y-682584D01*
X37213473Y-814795D01*
X37302427Y-968867D01*
X37357404Y-1138067D01*
X37376000Y-1315000D01*
X37357404Y-1491933D01*
X37302427Y-1661133D01*
X37213473Y-1815205D01*
X37094430Y-1947416D01*
X36950500Y-2051988D01*
X36787973Y-2124349D01*
X36613954Y-2161338D01*
X36436046Y-2161338D01*
X36262027Y-2124349D01*
X36099500Y-2051988D01*
X35955570Y-1947416D01*
X35836527Y-1815205D01*
X35747573Y-1661133D01*
X35692596Y-1491933D01*
X35674000Y-1315000D01*
X35692596Y-1138067D01*
X35747573Y-968867D01*
X35836527Y-814795D01*
X35955570Y-682584D01*
X36099500Y-578012D01*
X36262027Y-505651D01*
X36436046Y-468662D01*
X36613954Y-468662D01*
X36787973Y-505651D01*
G37*
G36*
X85604517Y552118D02*
G01*
X85621062Y541062D01*
X85632118Y524517D01*
X85636000Y505000D01*
X85636000Y-1095000D01*
X85632118Y-1114517D01*
X85621062Y-1131062D01*
X85604517Y-1142118D01*
X85585000Y-1146000D01*
X83985000Y-1146000D01*
X83965483Y-1142118D01*
X83948938Y-1131062D01*
X83937882Y-1114517D01*
X83934000Y-1095000D01*
X83934000Y505000D01*
X83937882Y524517D01*
X83948938Y541062D01*
X83965483Y552118D01*
X83985000Y556000D01*
X85585000Y556000D01*
X85604517Y552118D01*
G37*
G36*
X36787973Y2034349D02*
G01*
X36950500Y1961988D01*
X37094430Y1857416D01*
X37213473Y1725205D01*
X37302427Y1571133D01*
X37357404Y1401933D01*
X37376000Y1225000D01*
X37357404Y1048067D01*
X37302427Y878867D01*
X37213473Y724795D01*
X37094430Y592584D01*
X36950500Y488012D01*
X36787973Y415651D01*
X36613954Y378662D01*
X36436046Y378662D01*
X36262027Y415651D01*
X36099500Y488012D01*
X35955570Y592584D01*
X35836527Y724795D01*
X35747573Y878867D01*
X35692596Y1048067D01*
X35674000Y1225000D01*
X35692596Y1401933D01*
X35747573Y1571133D01*
X35836527Y1725205D01*
X35955570Y1857416D01*
X36099500Y1961988D01*
X36262027Y2034349D01*
X36436046Y2071338D01*
X36613954Y2071338D01*
X36787973Y2034349D01*
G37*
G36*
X101294517Y3472118D02*
G01*
X101311062Y3461062D01*
X101322118Y3444517D01*
X101326000Y3425000D01*
X101326000Y825000D01*
X101322118Y805483D01*
X101311062Y788938D01*
X101294517Y777882D01*
X101275000Y774000D01*
X101270073Y774000D01*
X98679922Y774000D01*
X98675000Y774000D01*
X98655483Y777882D01*
X98638938Y788938D01*
X98627882Y805483D01*
X98624000Y825000D01*
X98624000Y3425000D01*
X98627882Y3444517D01*
X98638938Y3461062D01*
X98655483Y3472118D01*
X98675000Y3476000D01*
X101275000Y3476000D01*
X101294517Y3472118D01*
G37*
G36*
X105306651Y3434660D02*
G01*
X105517691Y3362210D01*
X105713927Y3256012D01*
X105890007Y3118963D01*
X106041129Y2954801D01*
X106163169Y2768005D01*
X106252799Y2563669D01*
X106307574Y2347367D01*
X106326000Y2125000D01*
X106307574Y1902633D01*
X106252799Y1686331D01*
X106163169Y1481995D01*
X106041129Y1295199D01*
X105890007Y1131037D01*
X105713927Y993988D01*
X105517691Y887790D01*
X105306651Y815340D01*
X105086565Y778614D01*
X104863435Y778614D01*
X104643349Y815340D01*
X104432309Y887790D01*
X104236073Y993988D01*
X104059993Y1131037D01*
X103908871Y1295199D01*
X103786831Y1481995D01*
X103697201Y1686331D01*
X103642426Y1902633D01*
X103624000Y2125000D01*
X103642426Y2347367D01*
X103697201Y2563669D01*
X103786831Y2768005D01*
X103908871Y2954801D01*
X104059993Y3118963D01*
X104236073Y3256012D01*
X104432309Y3362210D01*
X104643349Y3434660D01*
X104863435Y3471386D01*
X105086565Y3471386D01*
X105306651Y3434660D01*
G37*
G36*
X110306651Y3434660D02*
G01*
X110517691Y3362210D01*
X110713927Y3256012D01*
X110890007Y3118963D01*
X111041129Y2954801D01*
X111163169Y2768005D01*
X111252799Y2563669D01*
X111307574Y2347367D01*
X111326000Y2125000D01*
X111307574Y1902633D01*
X111252799Y1686331D01*
X111163169Y1481995D01*
X111041129Y1295199D01*
X110890007Y1131037D01*
X110713927Y993988D01*
X110517691Y887790D01*
X110306651Y815340D01*
X110086565Y778614D01*
X109863435Y778614D01*
X109643349Y815340D01*
X109432309Y887790D01*
X109236073Y993988D01*
X109059993Y1131037D01*
X108908871Y1295199D01*
X108786831Y1481995D01*
X108697201Y1686331D01*
X108642426Y1902633D01*
X108624000Y2125000D01*
X108642426Y2347367D01*
X108697201Y2563669D01*
X108786831Y2768005D01*
X108908871Y2954801D01*
X109059993Y3118963D01*
X109236073Y3256012D01*
X109432309Y3362210D01*
X109643349Y3434660D01*
X109863435Y3471386D01*
X110086565Y3471386D01*
X110306651Y3434660D01*
G37*
G36*
X115306651Y3434660D02*
G01*
X115517691Y3362210D01*
X115713927Y3256012D01*
X115890007Y3118963D01*
X116041129Y2954801D01*
X116163169Y2768005D01*
X116252799Y2563669D01*
X116307574Y2347367D01*
X116326000Y2125000D01*
X116307574Y1902633D01*
X116252799Y1686331D01*
X116163169Y1481995D01*
X116041129Y1295199D01*
X115890007Y1131037D01*
X115713927Y993988D01*
X115517691Y887790D01*
X115306651Y815340D01*
X115086565Y778614D01*
X114863435Y778614D01*
X114643349Y815340D01*
X114432309Y887790D01*
X114236073Y993988D01*
X114059993Y1131037D01*
X113908871Y1295199D01*
X113786831Y1481995D01*
X113697201Y1686331D01*
X113642426Y1902633D01*
X113624000Y2125000D01*
X113642426Y2347367D01*
X113697201Y2563669D01*
X113786831Y2768005D01*
X113908871Y2954801D01*
X114059993Y3118963D01*
X114236073Y3256012D01*
X114432309Y3362210D01*
X114643349Y3434660D01*
X114863435Y3471386D01*
X115086565Y3471386D01*
X115306651Y3434660D01*
G37*
G36*
X120306651Y3434660D02*
G01*
X120517691Y3362210D01*
X120713927Y3256012D01*
X120890007Y3118963D01*
X121041129Y2954801D01*
X121163169Y2768005D01*
X121252799Y2563669D01*
X121307574Y2347367D01*
X121326000Y2125000D01*
X121307574Y1902633D01*
X121252799Y1686331D01*
X121163169Y1481995D01*
X121041129Y1295199D01*
X120890007Y1131037D01*
X120713927Y993988D01*
X120517691Y887790D01*
X120306651Y815340D01*
X120086565Y778614D01*
X119863435Y778614D01*
X119643349Y815340D01*
X119432309Y887790D01*
X119236073Y993988D01*
X119059993Y1131037D01*
X118908871Y1295199D01*
X118786831Y1481995D01*
X118697201Y1686331D01*
X118642426Y1902633D01*
X118624000Y2125000D01*
X118642426Y2347367D01*
X118697201Y2563669D01*
X118786831Y2768005D01*
X118908871Y2954801D01*
X119059993Y3118963D01*
X119236073Y3256012D01*
X119432309Y3362210D01*
X119643349Y3434660D01*
X119863435Y3471386D01*
X120086565Y3471386D01*
X120306651Y3434660D01*
G37*
G36*
X125306651Y3434660D02*
G01*
X125517691Y3362210D01*
X125713927Y3256012D01*
X125890007Y3118963D01*
X126041129Y2954801D01*
X126163169Y2768005D01*
X126252799Y2563669D01*
X126307574Y2347367D01*
X126326000Y2125000D01*
X126307574Y1902633D01*
X126252799Y1686331D01*
X126163169Y1481995D01*
X126041129Y1295199D01*
X125890007Y1131037D01*
X125713927Y993988D01*
X125517691Y887790D01*
X125306651Y815340D01*
X125086565Y778614D01*
X124863435Y778614D01*
X124643349Y815340D01*
X124432309Y887790D01*
X124236073Y993988D01*
X124059993Y1131037D01*
X123908871Y1295199D01*
X123786831Y1481995D01*
X123697201Y1686331D01*
X123642426Y1902633D01*
X123624000Y2125000D01*
X123642426Y2347367D01*
X123697201Y2563669D01*
X123786831Y2768005D01*
X123908871Y2954801D01*
X124059993Y3118963D01*
X124236073Y3256012D01*
X124432309Y3362210D01*
X124643349Y3434660D01*
X124863435Y3471386D01*
X125086565Y3471386D01*
X125306651Y3434660D01*
G37*
G36*
X130306651Y3434660D02*
G01*
X130517691Y3362210D01*
X130713927Y3256012D01*
X130890007Y3118963D01*
X131041129Y2954801D01*
X131163169Y2768005D01*
X131252799Y2563669D01*
X131307574Y2347367D01*
X131326000Y2125000D01*
X131307574Y1902633D01*
X131252799Y1686331D01*
X131163169Y1481995D01*
X131041129Y1295199D01*
X130890007Y1131037D01*
X130713927Y993988D01*
X130517691Y887790D01*
X130306651Y815340D01*
X130086565Y778614D01*
X129863435Y778614D01*
X129643349Y815340D01*
X129432309Y887790D01*
X129236073Y993988D01*
X129059993Y1131037D01*
X128908871Y1295199D01*
X128786831Y1481995D01*
X128697201Y1686331D01*
X128642426Y1902633D01*
X128624000Y2125000D01*
X128642426Y2347367D01*
X128697201Y2563669D01*
X128786831Y2768005D01*
X128908871Y2954801D01*
X129059993Y3118963D01*
X129236073Y3256012D01*
X129432309Y3362210D01*
X129643349Y3434660D01*
X129863435Y3471386D01*
X130086565Y3471386D01*
X130306651Y3434660D01*
G37*
G36*
X135306651Y3434660D02*
G01*
X135517691Y3362210D01*
X135713927Y3256012D01*
X135890007Y3118963D01*
X136041129Y2954801D01*
X136163169Y2768005D01*
X136252799Y2563669D01*
X136307574Y2347367D01*
X136326000Y2125000D01*
X136307574Y1902633D01*
X136252799Y1686331D01*
X136163169Y1481995D01*
X136041129Y1295199D01*
X135890007Y1131037D01*
X135713927Y993988D01*
X135517691Y887790D01*
X135306651Y815340D01*
X135086565Y778614D01*
X134863435Y778614D01*
X134643349Y815340D01*
X134432309Y887790D01*
X134236073Y993988D01*
X134059993Y1131037D01*
X133908871Y1295199D01*
X133786831Y1481995D01*
X133697201Y1686331D01*
X133642426Y1902633D01*
X133624000Y2125000D01*
X133642426Y2347367D01*
X133697201Y2563669D01*
X133786831Y2768005D01*
X133908871Y2954801D01*
X134059993Y3118963D01*
X134236073Y3256012D01*
X134432309Y3362210D01*
X134643349Y3434660D01*
X134863435Y3471386D01*
X135086565Y3471386D01*
X135306651Y3434660D01*
G37*
G36*
X36787973Y4574349D02*
G01*
X36950500Y4501988D01*
X37094430Y4397416D01*
X37213473Y4265205D01*
X37302427Y4111133D01*
X37357404Y3941933D01*
X37376000Y3765000D01*
X37357404Y3588067D01*
X37302427Y3418867D01*
X37213473Y3264795D01*
X37094430Y3132584D01*
X36950500Y3028012D01*
X36787973Y2955651D01*
X36613954Y2918662D01*
X36436046Y2918662D01*
X36262027Y2955651D01*
X36099500Y3028012D01*
X35955570Y3132584D01*
X35836527Y3264795D01*
X35747573Y3418867D01*
X35692596Y3588067D01*
X35674000Y3765000D01*
X35692596Y3941933D01*
X35747573Y4111133D01*
X35836527Y4265205D01*
X35955570Y4397416D01*
X36099500Y4501988D01*
X36262027Y4574349D01*
X36436046Y4611338D01*
X36613954Y4611338D01*
X36787973Y4574349D01*
G37*
G36*
X30495071Y11107687D02*
G01*
X30817676Y11031228D01*
X31129223Y10917834D01*
X31425500Y10769038D01*
X31702499Y10586853D01*
X31956475Y10373742D01*
X32183993Y10132587D01*
X32381976Y9866650D01*
X32547747Y9579526D01*
X32679064Y9275099D01*
X32774151Y8957486D01*
X32831723Y8630981D01*
X32851000Y8300000D01*
X32831723Y7969019D01*
X32774151Y7642514D01*
X32679064Y7324901D01*
X32547747Y7020474D01*
X32381976Y6733350D01*
X32183993Y6467413D01*
X31956475Y6226258D01*
X31702499Y6013147D01*
X31425500Y5830962D01*
X31129223Y5682166D01*
X30817676Y5568772D01*
X30495071Y5492313D01*
X30165771Y5453823D01*
X29834229Y5453823D01*
X29504929Y5492313D01*
X29182324Y5568772D01*
X28870777Y5682166D01*
X28574500Y5830962D01*
X28297501Y6013147D01*
X28043525Y6226258D01*
X27816007Y6467413D01*
X27618024Y6733350D01*
X27452253Y7020474D01*
X27320936Y7324901D01*
X27225849Y7642514D01*
X27168277Y7969019D01*
X27149000Y8300000D01*
X27168277Y8630981D01*
X27225849Y8957486D01*
X27320936Y9275099D01*
X27452253Y9579526D01*
X27618024Y9866650D01*
X27816007Y10132587D01*
X28043525Y10373742D01*
X28297501Y10586853D01*
X28574500Y10769038D01*
X28870777Y10917834D01*
X29182324Y11031228D01*
X29504929Y11107687D01*
X29834229Y11146177D01*
X30165771Y11146177D01*
X30495071Y11107687D01*
G37*
G36*
X145495071Y11107687D02*
G01*
X145817676Y11031228D01*
X146129223Y10917834D01*
X146425500Y10769038D01*
X146702499Y10586853D01*
X146956475Y10373742D01*
X147183993Y10132587D01*
X147381976Y9866650D01*
X147547747Y9579526D01*
X147679064Y9275099D01*
X147774151Y8957486D01*
X147831723Y8630981D01*
X147851000Y8300000D01*
X147831723Y7969019D01*
X147774151Y7642514D01*
X147679064Y7324901D01*
X147547747Y7020474D01*
X147381976Y6733350D01*
X147183993Y6467413D01*
X146956475Y6226258D01*
X146702499Y6013147D01*
X146425500Y5830962D01*
X146129223Y5682166D01*
X145817676Y5568772D01*
X145495071Y5492313D01*
X145165771Y5453823D01*
X144834229Y5453823D01*
X144504929Y5492313D01*
X144182324Y5568772D01*
X143870777Y5682166D01*
X143574500Y5830962D01*
X143297501Y6013147D01*
X143043525Y6226258D01*
X142816007Y6467413D01*
X142618024Y6733350D01*
X142452253Y7020474D01*
X142320936Y7324901D01*
X142225849Y7642514D01*
X142168277Y7969019D01*
X142149000Y8300000D01*
X142168277Y8630981D01*
X142225849Y8957486D01*
X142320936Y9275099D01*
X142452253Y9579526D01*
X142618024Y9866650D01*
X142816007Y10132587D01*
X143043525Y10373742D01*
X143297501Y10586853D01*
X143574500Y10769038D01*
X143870777Y10917834D01*
X144182324Y11031228D01*
X144504929Y11107687D01*
X144834229Y11146177D01*
X145165771Y11146177D01*
X145495071Y11107687D01*
G37*
G36*
X36787973Y7114349D02*
G01*
X36950500Y7041988D01*
X37094430Y6937416D01*
X37213473Y6805205D01*
X37302427Y6651133D01*
X37357404Y6481933D01*
X37376000Y6305000D01*
X37357404Y6128067D01*
X37302427Y5958867D01*
X37213473Y5804795D01*
X37094430Y5672584D01*
X36950500Y5568012D01*
X36787973Y5495651D01*
X36613954Y5458662D01*
X36436046Y5458662D01*
X36262027Y5495651D01*
X36099500Y5568012D01*
X35955570Y5672584D01*
X35836527Y5804795D01*
X35747573Y5958867D01*
X35692596Y6128067D01*
X35674000Y6305000D01*
X35692596Y6481933D01*
X35747573Y6651133D01*
X35836527Y6805205D01*
X35955570Y6937416D01*
X36099500Y7041988D01*
X36262027Y7114349D01*
X36436046Y7151338D01*
X36613954Y7151338D01*
X36787973Y7114349D01*
G37*
G36*
X36787973Y9654349D02*
G01*
X36950500Y9581988D01*
X37094430Y9477416D01*
X37213473Y9345205D01*
X37302427Y9191133D01*
X37357404Y9021933D01*
X37376000Y8845000D01*
X37357404Y8668067D01*
X37302427Y8498867D01*
X37213473Y8344795D01*
X37094430Y8212584D01*
X36950500Y8108012D01*
X36787973Y8035651D01*
X36613954Y7998662D01*
X36436046Y7998662D01*
X36262027Y8035651D01*
X36099500Y8108012D01*
X35955570Y8212584D01*
X35836527Y8344795D01*
X35747573Y8498867D01*
X35692596Y8668067D01*
X35674000Y8845000D01*
X35692596Y9021933D01*
X35747573Y9191133D01*
X35836527Y9345205D01*
X35955570Y9477416D01*
X36099500Y9581988D01*
X36262027Y9654349D01*
X36436046Y9691338D01*
X36613954Y9691338D01*
X36787973Y9654349D01*
G37*
M02*
