G04 #@! TF.GenerationSoftware,KiCad,Pcbnew,7.0.8*
G04 #@! TF.CreationDate,2024-02-03T20:12:02-05:00*
G04 #@! TF.ProjectId,Control Box,436f6e74-726f-46c2-9042-6f782e6b6963,rev?*
G04 #@! TF.SameCoordinates,Original*
G04 #@! TF.FileFunction,Paste,Top*
G04 #@! TF.FilePolarity,Positive*
%FSLAX46Y46*%
G04 Gerber Fmt 4.6, Leading zero omitted, Abs format (unit mm)*
G04 Created by KiCad (PCBNEW 7.0.8) date 2024-02-03 20:12:02*
%MOMM*%
%LPD*%
G01*
G04 APERTURE LIST*
G04 Aperture macros list*
%AMRoundRect*
0 Rectangle with rounded corners*
0 $1 Rounding radius*
0 $2 $3 $4 $5 $6 $7 $8 $9 X,Y pos of 4 corners*
0 Add a 4 corners polygon primitive as box body*
4,1,4,$2,$3,$4,$5,$6,$7,$8,$9,$2,$3,0*
0 Add four circle primitives for the rounded corners*
1,1,$1+$1,$2,$3*
1,1,$1+$1,$4,$5*
1,1,$1+$1,$6,$7*
1,1,$1+$1,$8,$9*
0 Add four rect primitives between the rounded corners*
20,1,$1+$1,$2,$3,$4,$5,0*
20,1,$1+$1,$4,$5,$6,$7,0*
20,1,$1+$1,$6,$7,$8,$9,0*
20,1,$1+$1,$8,$9,$2,$3,0*%
G04 Aperture macros list end*
%ADD10RoundRect,0.250000X-0.325000X-0.450000X0.325000X-0.450000X0.325000X0.450000X-0.325000X0.450000X0*%
%ADD11RoundRect,0.225000X0.375000X-0.225000X0.375000X0.225000X-0.375000X0.225000X-0.375000X-0.225000X0*%
%ADD12RoundRect,0.150000X-0.587500X-0.150000X0.587500X-0.150000X0.587500X0.150000X-0.587500X0.150000X0*%
%ADD13RoundRect,0.250000X0.350000X0.450000X-0.350000X0.450000X-0.350000X-0.450000X0.350000X-0.450000X0*%
%ADD14RoundRect,0.250000X-0.350000X-0.450000X0.350000X-0.450000X0.350000X0.450000X-0.350000X0.450000X0*%
%ADD15RoundRect,0.250000X0.325000X0.450000X-0.325000X0.450000X-0.325000X-0.450000X0.325000X-0.450000X0*%
%ADD16R,2.670000X2.540000*%
%ADD17R,0.762000X1.270000*%
%ADD18R,1.200000X0.650000*%
%ADD19R,1.100000X0.650000*%
%ADD20RoundRect,0.250000X0.450000X-0.325000X0.450000X0.325000X-0.450000X0.325000X-0.450000X-0.325000X0*%
%ADD21R,1.062000X0.650000*%
%ADD22R,1.200000X0.400000*%
%ADD23R,0.600000X1.200000*%
%ADD24RoundRect,0.250000X-0.450000X0.350000X-0.450000X-0.350000X0.450000X-0.350000X0.450000X0.350000X0*%
%ADD25RoundRect,0.250000X0.450000X-0.350000X0.450000X0.350000X-0.450000X0.350000X-0.450000X-0.350000X0*%
%ADD26RoundRect,0.250000X0.337500X0.475000X-0.337500X0.475000X-0.337500X-0.475000X0.337500X-0.475000X0*%
G04 APERTURE END LIST*
D10*
X106166500Y-73500400D03*
X108216500Y-73500400D03*
X118091500Y-73950400D03*
X120141500Y-73950400D03*
D11*
X103066500Y-67901400D03*
X103066500Y-64601400D03*
X115385500Y-67901400D03*
X115385500Y-64601400D03*
D10*
X96884500Y-36639200D03*
X98934500Y-36639200D03*
X109309500Y-36739200D03*
X111359500Y-36739200D03*
D11*
X94126500Y-30392200D03*
X94126500Y-27092200D03*
X106699500Y-30265200D03*
X106699500Y-26965200D03*
D10*
X129447500Y-36609000D03*
X131497500Y-36609000D03*
X142422500Y-36784000D03*
X144472500Y-36784000D03*
D11*
X126839000Y-30543000D03*
X126839000Y-27243000D03*
X139539000Y-30670000D03*
X139539000Y-27370000D03*
D10*
X131075000Y-73375000D03*
X133125000Y-73375000D03*
X143100000Y-73750000D03*
X145150000Y-73750000D03*
D11*
X127922000Y-67913000D03*
X127922000Y-64613000D03*
X140368000Y-67913000D03*
X140368000Y-64613000D03*
D12*
X105812000Y-65047400D03*
X105812000Y-66947400D03*
X107687000Y-65997400D03*
X117877000Y-65174400D03*
X117877000Y-67074400D03*
X119752000Y-66124400D03*
X96618000Y-27792200D03*
X96618000Y-29692200D03*
X98493000Y-28742200D03*
X109318000Y-27665200D03*
X109318000Y-29565200D03*
X111193000Y-28615200D03*
X129203500Y-27308000D03*
X129203500Y-29208000D03*
X131078500Y-28258000D03*
X142030500Y-27562000D03*
X142030500Y-29462000D03*
X143905500Y-28512000D03*
X130286500Y-64614500D03*
X130286500Y-66514500D03*
X132161500Y-65564500D03*
X142907000Y-64678000D03*
X142907000Y-66578000D03*
X144782000Y-65628000D03*
D13*
X108141500Y-71450400D03*
X106141500Y-71450400D03*
X107749500Y-69299400D03*
X105749500Y-69299400D03*
X120066500Y-71825400D03*
X118066500Y-71825400D03*
X119941500Y-69553400D03*
X117941500Y-69553400D03*
X129350000Y-80090500D03*
X127350000Y-80090500D03*
X54910999Y-79010249D03*
X52910999Y-79010249D03*
X62951498Y-79044999D03*
X60951498Y-79044999D03*
X54415000Y-67157500D03*
X52415000Y-67157500D03*
X98884500Y-34364200D03*
X96884500Y-34364200D03*
X98818500Y-32171200D03*
X96818500Y-32171200D03*
X111259500Y-34539200D03*
X109259500Y-34539200D03*
X111255500Y-32171200D03*
X109255500Y-32171200D03*
X131472500Y-34109000D03*
X129472500Y-34109000D03*
X131395000Y-31814000D03*
X129395000Y-31814000D03*
X144322500Y-34584000D03*
X142322500Y-34584000D03*
X144213000Y-32068000D03*
X142213000Y-32068000D03*
X133000000Y-71125000D03*
X131000000Y-71125000D03*
X132414500Y-68866500D03*
X130414500Y-68866500D03*
X145150000Y-71375000D03*
X143150000Y-71375000D03*
X144987500Y-69120500D03*
X142987500Y-69120500D03*
X46310000Y-57365000D03*
X44310000Y-57365000D03*
D14*
X44300000Y-55335000D03*
X46300000Y-55335000D03*
D13*
X35980000Y-62635000D03*
X33980000Y-62635000D03*
X35940000Y-60615000D03*
X33940000Y-60615000D03*
D15*
X32185000Y-62620000D03*
X30135000Y-62620000D03*
D10*
X40415000Y-57365000D03*
X42465000Y-57365000D03*
D13*
X32160000Y-60615000D03*
X30160000Y-60615000D03*
D14*
X40450000Y-55325000D03*
X42450000Y-55325000D03*
D16*
X58165499Y-82502749D03*
D17*
X55814499Y-82502749D03*
D16*
X66205999Y-82219999D03*
D17*
X63854999Y-82219999D03*
D16*
X57479000Y-70396000D03*
D17*
X55128000Y-70396000D03*
D16*
X67448500Y-70650000D03*
D17*
X65097500Y-70650000D03*
D13*
X63924499Y-67475000D03*
X61924499Y-67475000D03*
D16*
X127331500Y-77560000D03*
D17*
X129682500Y-77560000D03*
D16*
X137145000Y-77732500D03*
D17*
X139496000Y-77732500D03*
D13*
X139433500Y-80388000D03*
X137433500Y-80388000D03*
D18*
X92200000Y-51740000D03*
X92200000Y-53660000D03*
X94300000Y-52700000D03*
D19*
X97316000Y-85034000D03*
X97316000Y-83114000D03*
X95216000Y-84074000D03*
D20*
X83825000Y-69075000D03*
X83825000Y-67025000D03*
D18*
X92200000Y-48165000D03*
X92200000Y-50085000D03*
X94300000Y-49125000D03*
D21*
X97610000Y-79182000D03*
X97610000Y-78232000D03*
X97610000Y-77282000D03*
X94922000Y-77282000D03*
X94922000Y-78232000D03*
X94922000Y-79182000D03*
D14*
X75250000Y-83025000D03*
X77250000Y-83025000D03*
D13*
X90775000Y-70500000D03*
X88775000Y-70500000D03*
X90458000Y-56820000D03*
X88458000Y-56820000D03*
D18*
X92200000Y-55296000D03*
X92200000Y-57216000D03*
X94300000Y-56256000D03*
D12*
X93825000Y-72900000D03*
X93825000Y-74800000D03*
X95700000Y-73850000D03*
D21*
X91244000Y-79275000D03*
X91244000Y-78325000D03*
X91244000Y-77375000D03*
X88556000Y-77375000D03*
X88556000Y-78325000D03*
X88556000Y-79275000D03*
D22*
X88524000Y-53884000D03*
X88524000Y-54534000D03*
X88524000Y-55184000D03*
X90424000Y-55184000D03*
X90424000Y-53884000D03*
X88500000Y-46650000D03*
X88500000Y-47300000D03*
X88500000Y-47950000D03*
X90400000Y-47950000D03*
X90400000Y-46650000D03*
D20*
X81850000Y-69075000D03*
X81850000Y-67025000D03*
D16*
X116752175Y-77130000D03*
D17*
X119103175Y-77130000D03*
D23*
X82936000Y-85050000D03*
X83886000Y-85050000D03*
X84836000Y-85050000D03*
X84836000Y-82550000D03*
X83886000Y-82550000D03*
X82936000Y-82550000D03*
D19*
X91150000Y-85034000D03*
X91150000Y-83114000D03*
X89050000Y-84074000D03*
D24*
X81875000Y-70900000D03*
X81875000Y-72900000D03*
D25*
X93175000Y-85075000D03*
X93175000Y-83075000D03*
D14*
X88775000Y-66550000D03*
X90775000Y-66550000D03*
D25*
X99314000Y-85074000D03*
X99314000Y-83074000D03*
D14*
X92550000Y-68525000D03*
X94550000Y-68525000D03*
D18*
X92200000Y-44605000D03*
X92200000Y-46525000D03*
X94300000Y-45565000D03*
D12*
X88825000Y-72800000D03*
X88825000Y-74700000D03*
X90700000Y-73750000D03*
D13*
X90400000Y-44950000D03*
X88400000Y-44950000D03*
X118200000Y-80010000D03*
X116200000Y-80010000D03*
X90400000Y-49650000D03*
X88400000Y-49650000D03*
D24*
X86725000Y-82930000D03*
X86725000Y-84930000D03*
D13*
X94550000Y-70500000D03*
X92550000Y-70500000D03*
D24*
X83825000Y-70900000D03*
X83825000Y-72900000D03*
D13*
X90775000Y-68525000D03*
X88775000Y-68525000D03*
X107700000Y-79810000D03*
X105700000Y-79810000D03*
X90418000Y-52219000D03*
X88418000Y-52219000D03*
D16*
X105760000Y-76940000D03*
D17*
X108111000Y-76940000D03*
D26*
X81087500Y-83025000D03*
X79012500Y-83025000D03*
D14*
X92550000Y-66550000D03*
X94550000Y-66550000D03*
D13*
X77250000Y-85000000D03*
X75250000Y-85000000D03*
M02*
