M48
; DRILL file {KiCad 7.0.8} date 2024 February 03, Saturday 19:34:17
; FORMAT={-:-/ absolute / metric / decimal}
; #@! TF.CreationDate,2024-02-03T19:34:17-05:00
; #@! TF.GenerationSoftware,Kicad,Pcbnew,7.0.8
; #@! TF.FileFunction,Plated,1,2,PTH
FMAT,2
METRIC
; #@! TA.AperFunction,Plated,PTH,ViaDrill
T1C0.400
; #@! TA.AperFunction,Plated,PTH,ComponentDrill
T2C1.000
; #@! TA.AperFunction,Plated,PTH,ComponentDrill
T3C1.200
; #@! TA.AperFunction,Plated,PTH,ComponentDrill
T4C1.300
; #@! TA.AperFunction,Plated,PTH,ComponentDrill
T5C1.900
; #@! TA.AperFunction,Plated,PTH,ComponentDrill
T6C2.693
; #@! TA.AperFunction,Plated,PTH,ComponentDrill
T7C2.818
; #@! TA.AperFunction,Plated,PTH,ComponentDrill
T8C3.200
%
G90
G05
T1
X66.7Y-80.525
X66.7Y-90.525
X66.7Y-100.525
X66.7Y-110.525
X66.7Y-120.525
X66.7Y-150.525
X67.65Y-130.45
X68.375Y-138.675
X76.6Y-99.725
X76.7Y-80.525
X76.7Y-90.525
X76.7Y-110.525
X76.7Y-120.525
X76.7Y-130.525
X76.7Y-140.525
X77.4Y-150.475
X83.45Y-93.2
X86.075Y-91.875
X86.7Y-80.525
X86.7Y-100.525
X86.7Y-110.525
X86.7Y-120.525
X86.7Y-130.525
X86.7Y-140.525
X86.7Y-150.525
X91.15Y-91.8
X93.65Y-113.615
X94.921Y-125.299
X95.55Y-130.6
X95.6Y-123.575
X95.629Y-124.574
X95.8Y-141.05
X96.7Y-80.525
X96.7Y-90.525
X96.7Y-120.525
X96.7Y-150.525
X96.85Y-111.1
X97.695Y-134.525
X97.8Y-99.975
X98.35Y-110.175
X101.675Y-108.675
X106.7Y-80.525
X106.7Y-90.525
X106.7Y-100.525
X106.7Y-110.525
X106.7Y-120.525
X106.7Y-130.525
X106.7Y-140.525
X106.7Y-150.525
X109.862Y-110.337
X110.624Y-124.025
X110.651Y-125.024
X115.475Y-139.425
X116.55Y-121.875
X116.7Y-80.525
X116.7Y-90.525
X116.7Y-100.525
X116.7Y-110.525
X116.7Y-130.525
X116.7Y-150.525
X117.25Y-140.65
X118.425Y-109.25
X125.425Y-110.825
X126.525Y-122.075
X126.7Y-80.525
X126.7Y-90.525
X126.7Y-100.525
X126.7Y-130.525
X126.7Y-140.875
X126.7Y-150.525
X126.775Y-109.525
X126.9Y-116.625
X133.225Y-114.274
X133.65Y-108.85
X135.3Y-111.55
X136.525Y-138.225
X136.675Y-152.35
X136.7Y-90.525
X136.7Y-100.525
X136.7Y-130.525
X136.85Y-140.9
X136.95Y-121.9
X137.25Y-80.55
X137.3Y-99.7
X138.65Y-105.2
X140.725Y-122.775
X142.9Y-100.95
X146.375Y-140.95
X146.7Y-80.525
X146.7Y-90.525
X146.7Y-100.525
X146.7Y-110.525
X146.7Y-130.525
X147.245Y-140.074
X147.375Y-149.475
X148.025Y-139.45
X149.4Y-123.175
X151.125Y-113.825
X151.25Y-112.2
X151.631Y-139.294
X152.225Y-142.125
X155.425Y-90.425
X155.775Y-148.8
X156.225Y-99.475
X156.275Y-109.675
X156.7Y-80.525
X156.7Y-120.525
X156.7Y-130.525
X157.525Y-104.475
X158.075Y-141.2
X160.15Y-101.225
X161.15Y-100.3
X166.7Y-80.525
X166.7Y-90.525
X166.7Y-100.525
X166.7Y-110.525
X166.7Y-120.525
X166.7Y-130.525
X166.7Y-140.525
X166.7Y-150.525
X171.8Y-98.875
X173.25Y-103.425
X175.65Y-91.375
X175.95Y-110.35
X176.025Y-100.95
X176.65Y-115.4
X176.7Y-80.525
X176.7Y-120.525
X176.7Y-130.525
X176.7Y-140.525
X176.9Y-100.35
X177.35Y-137.2
X177.45Y-136.1
X177.825Y-150.625
X177.85Y-113.25
X186.7Y-80.525
X186.7Y-90.525
X186.7Y-100.525
X186.7Y-110.525
X186.7Y-120.525
X186.7Y-130.525
X186.7Y-140.525
X186.7Y-150.525
T2
X70.36Y-145.32
X70.36Y-150.4
X72.9Y-145.32
X75.44Y-145.32
X75.44Y-150.4
X80.55Y-91.6
X80.55Y-96.5
X84.6Y-111.0
X87.115Y-90.0
X89.655Y-90.0
X91.8Y-99.76
X91.8Y-102.3
X91.8Y-104.84
X92.195Y-90.0
X112.64Y-120.36
X112.64Y-135.6
X114.06Y-145.265
X114.06Y-150.345
X115.18Y-120.36
X115.18Y-135.6
X116.6Y-145.265
X117.72Y-120.36
X117.72Y-135.6
X119.14Y-145.265
X119.14Y-150.345
X120.26Y-120.36
X120.26Y-135.6
X122.8Y-120.36
X122.8Y-135.6
X125.34Y-120.36
X125.34Y-135.6
X127.88Y-120.36
X127.88Y-135.6
X130.42Y-120.36
X130.42Y-135.6
X132.96Y-120.36
X132.96Y-135.6
X134.9Y-96.1
X134.9Y-101.2
X135.5Y-120.36
X135.5Y-135.6
X138.04Y-120.36
X138.04Y-135.6
X138.9Y-111.675
X140.58Y-120.36
X140.58Y-135.6
X143.12Y-120.36
X143.12Y-135.6
X145.66Y-120.36
X145.66Y-135.6
X148.2Y-120.36
X148.2Y-135.6
X153.9Y-100.75
X154.05Y-95.7
X156.8Y-145.22
X156.8Y-150.3
X157.625Y-111.0
X159.34Y-145.22
X161.88Y-145.22
X161.88Y-150.3
X169.35Y-95.2
X169.525Y-100.2
X173.425Y-110.35
X179.82Y-104.82
X179.82Y-107.36
X179.82Y-109.9
X179.82Y-126.52
X179.82Y-129.06
X179.82Y-131.6
X184.9Y-104.82
X184.9Y-109.9
X184.9Y-126.52
X184.9Y-131.6
T3
X92.19Y-148.65
X94.69Y-148.65
X97.19Y-148.65
X135.96Y-148.56
X138.46Y-148.56
X140.96Y-148.56
X178.5Y-148.6
X181.0Y-148.6
X183.5Y-148.6
T4
X74.46Y-103.1
X77.0Y-103.1
X99.0Y-103.2
X101.54Y-103.2
X107.58Y-103.2
X110.12Y-103.2
X116.16Y-103.2
X118.7Y-103.2
X124.74Y-103.2
X127.28Y-103.2
T5
X71.5Y-114.0
X74.5Y-118.7
X77.5Y-114.0
T6
X139.55Y-89.225
X158.665Y-89.125
X177.7Y-89.175
T7
X139.55Y-84.725
X158.665Y-84.625
X177.7Y-84.675
T8
X70.0Y-83.0
X84.0Y-148.0
X170.0Y-149.0
X184.0Y-98.0
T0
M30
