M48
; DRILL file {KiCad 7.0.8} date 2024 May 27, Monday 16:30:26
; FORMAT={-:-/ absolute / metric / decimal}
; #@! TF.CreationDate,2024-05-27T16:30:26-04:00
; #@! TF.GenerationSoftware,Kicad,Pcbnew,7.0.8
; #@! TF.FileFunction,Plated,1,2,PTH
FMAT,2
METRIC
; #@! TA.AperFunction,Plated,PTH,ViaDrill
T1C0.400
; #@! TA.AperFunction,Plated,PTH,ViaDrill
T2C0.600
; #@! TA.AperFunction,Plated,PTH,ComponentDrill
T3C0.900
; #@! TA.AperFunction,Plated,PTH,ComponentDrill
T4C1.000
; #@! TA.AperFunction,Plated,PTH,ComponentDrill
T5C1.900
; #@! TA.AperFunction,Plated,PTH,ComponentDrill
T6C2.693
; #@! TA.AperFunction,Plated,PTH,ComponentDrill
T7C2.818
; #@! TA.AperFunction,Plated,PTH,ComponentDrill
T8C3.200
%
G90
G05
T1
X44.825Y-95.875
X44.825Y-98.415
X44.825Y-100.955
X44.825Y-103.495
X44.825Y-106.035
X44.825Y-108.575
X44.825Y-111.115
X44.825Y-113.655
X44.825Y-116.195
X44.825Y-118.735
X44.825Y-121.275
X44.825Y-123.815
X44.825Y-126.355
X44.825Y-128.895
X44.825Y-131.435
X44.825Y-133.975
X44.825Y-136.515
X44.825Y-139.055
X44.825Y-141.595
X44.825Y-144.135
X44.825Y-146.675
X44.825Y-149.215
X44.825Y-151.755
X44.825Y-154.295
X44.825Y-156.835
X44.825Y-159.375
X45.425Y-117.425
X45.5Y-94.025
X45.5Y-160.975
X46.65Y-162.3
X46.7Y-135.4
X46.775Y-92.525
X48.15Y-163.3
X48.475Y-91.8
X48.525Y-117.625
X49.975Y-163.55
X50.45Y-91.675
X51.2Y-142.95
X51.55Y-154.15
X51.6Y-130.95
X52.44Y-91.675
X52.515Y-163.55
X54.98Y-91.675
X55.055Y-163.55
X57.52Y-91.675
X57.595Y-163.55
X60.06Y-91.675
X60.135Y-163.55
X61.075Y-98.75
X61.525Y-127.125
X62.6Y-91.675
X62.675Y-163.55
X65.14Y-91.675
X65.215Y-163.55
X67.68Y-91.675
X67.755Y-163.55
X69.5Y-151.775
X69.95Y-158.675
X70.22Y-91.675
X70.295Y-163.55
X71.5Y-107.5
X71.875Y-115.45
X72.76Y-91.675
X72.835Y-163.55
X75.3Y-91.675
X75.375Y-163.55
X77.84Y-91.675
X77.915Y-163.55
X79.075Y-111.075
X80.38Y-91.675
X80.455Y-163.55
X80.825Y-137.175
X81.1Y-116.925
X82.92Y-91.675
X82.995Y-163.55
X83.975Y-111.2
X85.405Y-108.95
X85.46Y-91.675
X85.535Y-163.55
X87.175Y-146.025
X88.0Y-91.675
X88.075Y-163.55
X88.325Y-157.625
X89.05Y-136.8
X89.75Y-147.725
X90.025Y-137.595
X90.54Y-91.675
X90.615Y-163.55
X93.08Y-91.675
X93.155Y-163.55
X93.486Y-135.5
X93.6Y-104.425
X94.077Y-105.6
X94.361Y-135.984
X95.62Y-91.675
X95.695Y-163.55
X95.975Y-122.225
X97.2Y-96.8
X97.4Y-103.525
X98.16Y-91.675
X98.235Y-163.55
X99.15Y-136.57
X100.3Y-137.2
X100.7Y-91.675
X100.725Y-104.875
X100.775Y-163.55
X101.025Y-107.375
X101.95Y-98.975
X101.95Y-136.57
X103.24Y-91.675
X103.315Y-163.55
X105.075Y-158.0
X105.78Y-91.675
X105.855Y-163.55
X105.9Y-143.225
X106.55Y-137.161
X108.075Y-91.65
X108.395Y-163.55
X109.625Y-138.025
X110.35Y-114.225
X110.935Y-163.55
X111.275Y-101.65
X111.45Y-109.4
X113.4Y-91.675
X113.4Y-114.075
X113.475Y-163.55
X115.94Y-91.675
X116.015Y-163.55
X118.81Y-163.525
X119.8Y-140.525
X120.575Y-130.1
X121.095Y-163.55
X121.275Y-91.65
X121.275Y-101.65
X121.275Y-111.65
X121.275Y-121.65
X123.375Y-137.161
X123.56Y-91.675
X123.6Y-96.425
X123.635Y-163.55
X123.65Y-153.825
X124.575Y-103.075
X125.425Y-116.65
X126.0Y-143.225
X126.1Y-91.675
X126.15Y-138.15
X126.175Y-163.55
X126.225Y-107.5
X128.81Y-163.525
X128.95Y-114.025
X130.0Y-101.55
X131.255Y-163.55
X131.275Y-91.65
X131.5Y-119.225
X131.55Y-130.375
X132.75Y-114.025
X133.72Y-91.675
X133.795Y-163.55
X135.375Y-110.775
X135.825Y-91.675
X136.335Y-163.55
X138.0Y-123.925
X138.875Y-163.55
X139.3Y-91.65
X140.208Y-136.083
X140.3Y-155.575
X141.275Y-91.65
X141.275Y-101.65
X141.275Y-111.65
X141.275Y-121.65
X141.415Y-163.55
X142.35Y-138.25
X143.075Y-143.975
X143.225Y-96.6
X143.65Y-113.675
X143.88Y-91.675
X143.955Y-163.55
X145.975Y-127.95
X146.025Y-91.7
X146.45Y-103.425
X146.495Y-163.55
X148.375Y-114.85
X148.81Y-163.525
X150.225Y-102.5
X150.85Y-112.65
X151.275Y-91.65
X151.575Y-163.55
X154.04Y-91.675
X154.115Y-163.55
X154.225Y-120.3
X154.3Y-110.9
X154.975Y-139.275
X156.655Y-163.55
X158.275Y-155.525
X159.12Y-91.675
X159.15Y-119.7
X159.195Y-163.55
X161.66Y-91.675
X161.735Y-163.55
X163.175Y-97.15
X164.2Y-91.675
X164.275Y-163.55
X166.74Y-91.675
X166.815Y-163.55
X169.28Y-91.675
X169.355Y-163.55
X169.775Y-136.425
X170.825Y-129.7
X171.82Y-91.675
X171.895Y-163.55
X174.36Y-91.675
X174.435Y-163.55
X176.525Y-157.075
X176.7Y-143.175
X176.9Y-91.675
X176.975Y-163.55
X178.825Y-163.275
X178.95Y-92.1
X179.35Y-112.35
X179.675Y-97.475
X180.225Y-162.4
X180.5Y-93.35
X181.225Y-161.375
X181.525Y-94.925
X181.925Y-159.75
X181.95Y-96.65
X181.95Y-99.19
X181.95Y-101.73
X181.95Y-104.27
X181.95Y-106.81
X181.95Y-109.35
X181.95Y-111.89
X181.95Y-114.43
X181.95Y-116.97
X181.95Y-119.51
X181.95Y-122.05
X181.95Y-124.59
X181.95Y-127.13
X181.95Y-129.67
X181.95Y-132.21
X181.95Y-134.75
X181.95Y-137.29
X181.95Y-139.83
X181.95Y-142.37
X181.95Y-144.91
X181.95Y-147.45
X181.95Y-149.99
X181.95Y-152.53
X181.95Y-155.07
X181.95Y-157.61
T2
X68.175Y-133.6
T3
X94.785Y-141.0
X97.325Y-141.0
X111.785Y-141.0
X114.325Y-141.0
X128.785Y-141.0
X131.325Y-141.0
X145.785Y-141.0
X148.325Y-141.0
X175.55Y-120.95
X175.55Y-127.95
X175.55Y-134.95
X178.09Y-120.95
X178.09Y-127.95
X178.09Y-134.95
T4
X46.8Y-109.05
X46.925Y-105.2
X48.8Y-123.875
X65.585Y-101.275
X68.125Y-101.275
X70.665Y-101.275
X76.11Y-101.335
X76.11Y-103.875
X78.65Y-101.335
X78.65Y-103.875
X79.04Y-146.275
X79.04Y-148.815
X79.04Y-151.355
X81.19Y-101.335
X81.19Y-103.875
X83.73Y-101.335
X83.73Y-103.875
X88.795Y-94.535
X88.795Y-97.075
X88.795Y-99.615
X88.795Y-102.155
X88.795Y-104.695
X88.795Y-107.235
X88.795Y-109.775
X88.795Y-112.315
X88.795Y-114.855
X88.795Y-117.395
X88.795Y-119.935
X88.795Y-122.475
X88.795Y-125.015
X88.795Y-127.555
X88.795Y-130.095
X96.04Y-146.275
X96.04Y-148.815
X96.04Y-151.355
X104.035Y-94.535
X104.035Y-97.075
X104.035Y-99.615
X104.035Y-102.155
X104.035Y-104.695
X104.035Y-107.235
X104.035Y-109.775
X104.035Y-112.315
X104.035Y-114.855
X104.035Y-117.395
X104.035Y-119.935
X104.035Y-122.475
X104.035Y-125.015
X104.035Y-127.555
X104.035Y-130.095
X109.65Y-110.075
X113.06Y-146.275
X113.06Y-148.815
X113.06Y-151.355
X113.65Y-120.55
X116.725Y-108.15
X129.125Y-110.3
X130.06Y-146.275
X130.06Y-148.815
X130.06Y-151.355
X132.85Y-120.55
X136.15Y-108.2
X147.06Y-146.275
X147.06Y-148.815
X147.06Y-151.355
X147.8Y-110.15
X151.7Y-120.3
X154.675Y-107.9
X156.81Y-128.963
X159.35Y-128.963
X161.89Y-128.963
T5
X49.75Y-99.275
X54.45Y-96.275
X54.45Y-102.275
X166.55Y-99.275
X171.25Y-96.275
X171.25Y-102.275
T6
X114.125Y-100.35
X133.24Y-100.25
X152.275Y-100.3
T7
X114.125Y-95.85
X133.24Y-95.75
X152.275Y-95.8
T8
X60.868Y-119.6
X60.868Y-154.6
X113.035Y-130.0
X165.868Y-119.6
X165.868Y-154.6
T0
M30
