%TF.GenerationSoftware,KiCad,Pcbnew,7.0.8*%
%TF.CreationDate,2024-05-27T16:30:15-04:00*%
%TF.ProjectId,TelescopeController,54656c65-7363-46f7-9065-436f6e74726f,rev?*%
%TF.SameCoordinates,Original*%
%TF.FileFunction,Legend,Top*%
%TF.FilePolarity,Positive*%
%FSLAX46Y46*%
G04 Gerber Fmt 4.6, Leading zero omitted, Abs format (unit mm)*
G04 Created by KiCad (PCBNEW 7.0.8) date 2024-05-27 16:30:15*
%MOMM*%
%LPD*%
G01*
G04 APERTURE LIST*
G04 Aperture macros list*
%AMRoundRect*
0 Rectangle with rounded corners*
0 $1 Rounding radius*
0 $2 $3 $4 $5 $6 $7 $8 $9 X,Y pos of 4 corners*
0 Add a 4 corners polygon primitive as box body*
4,1,4,$2,$3,$4,$5,$6,$7,$8,$9,$2,$3,0*
0 Add four circle primitives for the rounded corners*
1,1,$1+$1,$2,$3*
1,1,$1+$1,$4,$5*
1,1,$1+$1,$6,$7*
1,1,$1+$1,$8,$9*
0 Add four rect primitives between the rounded corners*
20,1,$1+$1,$2,$3,$4,$5,0*
20,1,$1+$1,$4,$5,$6,$7,0*
20,1,$1+$1,$6,$7,$8,$9,0*
20,1,$1+$1,$8,$9,$2,$3,0*%
G04 Aperture macros list end*
%ADD10C,0.300000*%
%ADD11C,0.254000*%
%ADD12C,0.150000*%
%ADD13C,0.200000*%
%ADD14C,0.120000*%
%ADD15C,0.100000*%
%ADD16R,1.150000X0.600000*%
%ADD17RoundRect,0.250000X-0.325000X-0.450000X0.325000X-0.450000X0.325000X0.450000X-0.325000X0.450000X0*%
%ADD18RoundRect,0.250000X0.450000X-0.350000X0.450000X0.350000X-0.450000X0.350000X-0.450000X-0.350000X0*%
%ADD19R,1.700000X1.700000*%
%ADD20O,1.700000X1.700000*%
%ADD21RoundRect,0.250000X-0.450000X0.350000X-0.450000X-0.350000X0.450000X-0.350000X0.450000X0.350000X0*%
%ADD22C,2.476000*%
%ADD23C,4.227000*%
%ADD24C,4.039000*%
%ADD25C,3.000000*%
%ADD26R,1.000000X0.500000*%
%ADD27C,5.600000*%
%ADD28RoundRect,0.250000X0.475000X-0.337500X0.475000X0.337500X-0.475000X0.337500X-0.475000X-0.337500X0*%
%ADD29RoundRect,0.250000X-0.475000X0.337500X-0.475000X-0.337500X0.475000X-0.337500X0.475000X0.337500X0*%
%ADD30R,1.600000X1.600000*%
%ADD31O,1.600000X1.600000*%
%ADD32C,1.550000*%
%ADD33RoundRect,0.250000X-0.450000X0.325000X-0.450000X-0.325000X0.450000X-0.325000X0.450000X0.325000X0*%
%ADD34R,1.500000X1.500000*%
%ADD35C,1.500000*%
%ADD36R,1.800000X1.800000*%
%ADD37C,1.800000*%
G04 APERTURE END LIST*
D10*
X63540225Y-103497257D02*
X63397368Y-103425828D01*
X63397368Y-103425828D02*
X63183082Y-103425828D01*
X63183082Y-103425828D02*
X62968796Y-103497257D01*
X62968796Y-103497257D02*
X62825939Y-103640114D01*
X62825939Y-103640114D02*
X62754510Y-103782971D01*
X62754510Y-103782971D02*
X62683082Y-104068685D01*
X62683082Y-104068685D02*
X62683082Y-104282971D01*
X62683082Y-104282971D02*
X62754510Y-104568685D01*
X62754510Y-104568685D02*
X62825939Y-104711542D01*
X62825939Y-104711542D02*
X62968796Y-104854400D01*
X62968796Y-104854400D02*
X63183082Y-104925828D01*
X63183082Y-104925828D02*
X63325939Y-104925828D01*
X63325939Y-104925828D02*
X63540225Y-104854400D01*
X63540225Y-104854400D02*
X63611653Y-104782971D01*
X63611653Y-104782971D02*
X63611653Y-104282971D01*
X63611653Y-104282971D02*
X63325939Y-104282971D01*
X64254510Y-104925828D02*
X64254510Y-103425828D01*
X64254510Y-103425828D02*
X65111653Y-104925828D01*
X65111653Y-104925828D02*
X65111653Y-103425828D01*
X65825939Y-104925828D02*
X65825939Y-103425828D01*
X65825939Y-103425828D02*
X66183082Y-103425828D01*
X66183082Y-103425828D02*
X66397368Y-103497257D01*
X66397368Y-103497257D02*
X66540225Y-103640114D01*
X66540225Y-103640114D02*
X66611654Y-103782971D01*
X66611654Y-103782971D02*
X66683082Y-104068685D01*
X66683082Y-104068685D02*
X66683082Y-104282971D01*
X66683082Y-104282971D02*
X66611654Y-104568685D01*
X66611654Y-104568685D02*
X66540225Y-104711542D01*
X66540225Y-104711542D02*
X66397368Y-104854400D01*
X66397368Y-104854400D02*
X66183082Y-104925828D01*
X66183082Y-104925828D02*
X65825939Y-104925828D01*
X158750828Y-117250939D02*
X157250828Y-117250939D01*
X157965114Y-117250939D02*
X157965114Y-116393796D01*
X158750828Y-116393796D02*
X157250828Y-116393796D01*
X157965114Y-115679510D02*
X157965114Y-115179510D01*
X158750828Y-114965224D02*
X158750828Y-115679510D01*
X158750828Y-115679510D02*
X157250828Y-115679510D01*
X157250828Y-115679510D02*
X157250828Y-114965224D01*
X158322257Y-114393795D02*
X158322257Y-113679510D01*
X158750828Y-114536652D02*
X157250828Y-114036652D01*
X157250828Y-114036652D02*
X158750828Y-113536652D01*
X157250828Y-113250938D02*
X157250828Y-112393796D01*
X158750828Y-112822367D02*
X157250828Y-112822367D01*
X157965114Y-111893796D02*
X157965114Y-111393796D01*
X158750828Y-111179510D02*
X158750828Y-111893796D01*
X158750828Y-111893796D02*
X157250828Y-111893796D01*
X157250828Y-111893796D02*
X157250828Y-111179510D01*
X158750828Y-109679510D02*
X158036542Y-110179510D01*
X158750828Y-110536653D02*
X157250828Y-110536653D01*
X157250828Y-110536653D02*
X157250828Y-109965224D01*
X157250828Y-109965224D02*
X157322257Y-109822367D01*
X157322257Y-109822367D02*
X157393685Y-109750938D01*
X157393685Y-109750938D02*
X157536542Y-109679510D01*
X157536542Y-109679510D02*
X157750828Y-109679510D01*
X157750828Y-109679510D02*
X157893685Y-109750938D01*
X157893685Y-109750938D02*
X157965114Y-109822367D01*
X157965114Y-109822367D02*
X158036542Y-109965224D01*
X158036542Y-109965224D02*
X158036542Y-110536653D01*
X158750828Y-107108081D02*
X158750828Y-107965224D01*
X158750828Y-107536653D02*
X157250828Y-107536653D01*
X157250828Y-107536653D02*
X157465114Y-107679510D01*
X157465114Y-107679510D02*
X157607971Y-107822367D01*
X157607971Y-107822367D02*
X157679400Y-107965224D01*
X178625828Y-100084774D02*
X178625828Y-100941917D01*
X178625828Y-100513346D02*
X177125828Y-100513346D01*
X177125828Y-100513346D02*
X177340114Y-100656203D01*
X177340114Y-100656203D02*
X177482971Y-100799060D01*
X177482971Y-100799060D02*
X177554400Y-100941917D01*
X177268685Y-99513346D02*
X177197257Y-99441918D01*
X177197257Y-99441918D02*
X177125828Y-99299061D01*
X177125828Y-99299061D02*
X177125828Y-98941918D01*
X177125828Y-98941918D02*
X177197257Y-98799061D01*
X177197257Y-98799061D02*
X177268685Y-98727632D01*
X177268685Y-98727632D02*
X177411542Y-98656203D01*
X177411542Y-98656203D02*
X177554400Y-98656203D01*
X177554400Y-98656203D02*
X177768685Y-98727632D01*
X177768685Y-98727632D02*
X178625828Y-99584775D01*
X178625828Y-99584775D02*
X178625828Y-98656203D01*
X177125828Y-98227632D02*
X178625828Y-97727632D01*
X178625828Y-97727632D02*
X177125828Y-97227632D01*
X178625828Y-95584776D02*
X177125828Y-95584776D01*
X178625828Y-94870490D02*
X177125828Y-94870490D01*
X177125828Y-94870490D02*
X178625828Y-94013347D01*
X178625828Y-94013347D02*
X177125828Y-94013347D01*
X70628571Y-120755114D02*
X70128571Y-120755114D01*
X70128571Y-121540828D02*
X70128571Y-120040828D01*
X70128571Y-120040828D02*
X70842857Y-120040828D01*
X71628571Y-121540828D02*
X71485714Y-121469400D01*
X71485714Y-121469400D02*
X71414285Y-121326542D01*
X71414285Y-121326542D02*
X71414285Y-120040828D01*
X72199999Y-121540828D02*
X72199999Y-120540828D01*
X72199999Y-120040828D02*
X72128571Y-120112257D01*
X72128571Y-120112257D02*
X72199999Y-120183685D01*
X72199999Y-120183685D02*
X72271428Y-120112257D01*
X72271428Y-120112257D02*
X72199999Y-120040828D01*
X72199999Y-120040828D02*
X72199999Y-120183685D01*
X72914285Y-120540828D02*
X72914285Y-122040828D01*
X72914285Y-120612257D02*
X73057143Y-120540828D01*
X73057143Y-120540828D02*
X73342857Y-120540828D01*
X73342857Y-120540828D02*
X73485714Y-120612257D01*
X73485714Y-120612257D02*
X73557143Y-120683685D01*
X73557143Y-120683685D02*
X73628571Y-120826542D01*
X73628571Y-120826542D02*
X73628571Y-121255114D01*
X73628571Y-121255114D02*
X73557143Y-121397971D01*
X73557143Y-121397971D02*
X73485714Y-121469400D01*
X73485714Y-121469400D02*
X73342857Y-121540828D01*
X73342857Y-121540828D02*
X73057143Y-121540828D01*
X73057143Y-121540828D02*
X72914285Y-121469400D01*
X74271428Y-120969400D02*
X75414286Y-120969400D01*
X76628571Y-120755114D02*
X76128571Y-120755114D01*
X76128571Y-121540828D02*
X76128571Y-120040828D01*
X76128571Y-120040828D02*
X76842857Y-120040828D01*
X77628571Y-121540828D02*
X77485714Y-121469400D01*
X77485714Y-121469400D02*
X77414285Y-121326542D01*
X77414285Y-121326542D02*
X77414285Y-120040828D01*
X78842857Y-121540828D02*
X78842857Y-120755114D01*
X78842857Y-120755114D02*
X78771428Y-120612257D01*
X78771428Y-120612257D02*
X78628571Y-120540828D01*
X78628571Y-120540828D02*
X78342857Y-120540828D01*
X78342857Y-120540828D02*
X78199999Y-120612257D01*
X78842857Y-121469400D02*
X78699999Y-121540828D01*
X78699999Y-121540828D02*
X78342857Y-121540828D01*
X78342857Y-121540828D02*
X78199999Y-121469400D01*
X78199999Y-121469400D02*
X78128571Y-121326542D01*
X78128571Y-121326542D02*
X78128571Y-121183685D01*
X78128571Y-121183685D02*
X78199999Y-121040828D01*
X78199999Y-121040828D02*
X78342857Y-120969400D01*
X78342857Y-120969400D02*
X78699999Y-120969400D01*
X78699999Y-120969400D02*
X78842857Y-120897971D01*
X79342857Y-120540828D02*
X79914285Y-120540828D01*
X79557142Y-120040828D02*
X79557142Y-121326542D01*
X79557142Y-121326542D02*
X79628571Y-121469400D01*
X79628571Y-121469400D02*
X79771428Y-121540828D01*
X79771428Y-121540828D02*
X79914285Y-121540828D01*
X81485714Y-119969400D02*
X80200000Y-121897971D01*
X69664285Y-123955828D02*
X69664285Y-122455828D01*
X69664285Y-122455828D02*
X70021428Y-122455828D01*
X70021428Y-122455828D02*
X70235714Y-122527257D01*
X70235714Y-122527257D02*
X70378571Y-122670114D01*
X70378571Y-122670114D02*
X70450000Y-122812971D01*
X70450000Y-122812971D02*
X70521428Y-123098685D01*
X70521428Y-123098685D02*
X70521428Y-123312971D01*
X70521428Y-123312971D02*
X70450000Y-123598685D01*
X70450000Y-123598685D02*
X70378571Y-123741542D01*
X70378571Y-123741542D02*
X70235714Y-123884400D01*
X70235714Y-123884400D02*
X70021428Y-123955828D01*
X70021428Y-123955828D02*
X69664285Y-123955828D01*
X71735714Y-123884400D02*
X71592857Y-123955828D01*
X71592857Y-123955828D02*
X71307143Y-123955828D01*
X71307143Y-123955828D02*
X71164285Y-123884400D01*
X71164285Y-123884400D02*
X71092857Y-123741542D01*
X71092857Y-123741542D02*
X71092857Y-123170114D01*
X71092857Y-123170114D02*
X71164285Y-123027257D01*
X71164285Y-123027257D02*
X71307143Y-122955828D01*
X71307143Y-122955828D02*
X71592857Y-122955828D01*
X71592857Y-122955828D02*
X71735714Y-123027257D01*
X71735714Y-123027257D02*
X71807143Y-123170114D01*
X71807143Y-123170114D02*
X71807143Y-123312971D01*
X71807143Y-123312971D02*
X71092857Y-123455828D01*
X72307142Y-122955828D02*
X72592857Y-123955828D01*
X72592857Y-123955828D02*
X72878571Y-123241542D01*
X72878571Y-123241542D02*
X73164285Y-123955828D01*
X73164285Y-123955828D02*
X73449999Y-122955828D01*
X75164285Y-123955828D02*
X75164285Y-122455828D01*
X75164285Y-123170114D02*
X76021428Y-123170114D01*
X76021428Y-123955828D02*
X76021428Y-122455828D01*
X77307143Y-123884400D02*
X77164286Y-123955828D01*
X77164286Y-123955828D02*
X76878572Y-123955828D01*
X76878572Y-123955828D02*
X76735714Y-123884400D01*
X76735714Y-123884400D02*
X76664286Y-123741542D01*
X76664286Y-123741542D02*
X76664286Y-123170114D01*
X76664286Y-123170114D02*
X76735714Y-123027257D01*
X76735714Y-123027257D02*
X76878572Y-122955828D01*
X76878572Y-122955828D02*
X77164286Y-122955828D01*
X77164286Y-122955828D02*
X77307143Y-123027257D01*
X77307143Y-123027257D02*
X77378572Y-123170114D01*
X77378572Y-123170114D02*
X77378572Y-123312971D01*
X77378572Y-123312971D02*
X76664286Y-123455828D01*
X78664286Y-123955828D02*
X78664286Y-123170114D01*
X78664286Y-123170114D02*
X78592857Y-123027257D01*
X78592857Y-123027257D02*
X78450000Y-122955828D01*
X78450000Y-122955828D02*
X78164286Y-122955828D01*
X78164286Y-122955828D02*
X78021428Y-123027257D01*
X78664286Y-123884400D02*
X78521428Y-123955828D01*
X78521428Y-123955828D02*
X78164286Y-123955828D01*
X78164286Y-123955828D02*
X78021428Y-123884400D01*
X78021428Y-123884400D02*
X77950000Y-123741542D01*
X77950000Y-123741542D02*
X77950000Y-123598685D01*
X77950000Y-123598685D02*
X78021428Y-123455828D01*
X78021428Y-123455828D02*
X78164286Y-123384400D01*
X78164286Y-123384400D02*
X78521428Y-123384400D01*
X78521428Y-123384400D02*
X78664286Y-123312971D01*
X79164286Y-122955828D02*
X79735714Y-122955828D01*
X79378571Y-122455828D02*
X79378571Y-123741542D01*
X79378571Y-123741542D02*
X79450000Y-123884400D01*
X79450000Y-123884400D02*
X79592857Y-123955828D01*
X79592857Y-123955828D02*
X79735714Y-123955828D01*
X80807143Y-123884400D02*
X80664286Y-123955828D01*
X80664286Y-123955828D02*
X80378572Y-123955828D01*
X80378572Y-123955828D02*
X80235714Y-123884400D01*
X80235714Y-123884400D02*
X80164286Y-123741542D01*
X80164286Y-123741542D02*
X80164286Y-123170114D01*
X80164286Y-123170114D02*
X80235714Y-123027257D01*
X80235714Y-123027257D02*
X80378572Y-122955828D01*
X80378572Y-122955828D02*
X80664286Y-122955828D01*
X80664286Y-122955828D02*
X80807143Y-123027257D01*
X80807143Y-123027257D02*
X80878572Y-123170114D01*
X80878572Y-123170114D02*
X80878572Y-123312971D01*
X80878572Y-123312971D02*
X80164286Y-123455828D01*
X81521428Y-123955828D02*
X81521428Y-122955828D01*
X81521428Y-123241542D02*
X81592857Y-123098685D01*
X81592857Y-123098685D02*
X81664286Y-123027257D01*
X81664286Y-123027257D02*
X81807143Y-122955828D01*
X81807143Y-122955828D02*
X81950000Y-122955828D01*
X73557143Y-125370828D02*
X73914286Y-126370828D01*
X73914286Y-126370828D02*
X74271429Y-125370828D01*
X74771429Y-125013685D02*
X74842857Y-124942257D01*
X74842857Y-124942257D02*
X74985715Y-124870828D01*
X74985715Y-124870828D02*
X75342857Y-124870828D01*
X75342857Y-124870828D02*
X75485715Y-124942257D01*
X75485715Y-124942257D02*
X75557143Y-125013685D01*
X75557143Y-125013685D02*
X75628572Y-125156542D01*
X75628572Y-125156542D02*
X75628572Y-125299400D01*
X75628572Y-125299400D02*
X75557143Y-125513685D01*
X75557143Y-125513685D02*
X74700000Y-126370828D01*
X74700000Y-126370828D02*
X75628572Y-126370828D01*
X76271428Y-126227971D02*
X76342857Y-126299400D01*
X76342857Y-126299400D02*
X76271428Y-126370828D01*
X76271428Y-126370828D02*
X76200000Y-126299400D01*
X76200000Y-126299400D02*
X76271428Y-126227971D01*
X76271428Y-126227971D02*
X76271428Y-126370828D01*
X77271429Y-124870828D02*
X77414286Y-124870828D01*
X77414286Y-124870828D02*
X77557143Y-124942257D01*
X77557143Y-124942257D02*
X77628572Y-125013685D01*
X77628572Y-125013685D02*
X77700000Y-125156542D01*
X77700000Y-125156542D02*
X77771429Y-125442257D01*
X77771429Y-125442257D02*
X77771429Y-125799400D01*
X77771429Y-125799400D02*
X77700000Y-126085114D01*
X77700000Y-126085114D02*
X77628572Y-126227971D01*
X77628572Y-126227971D02*
X77557143Y-126299400D01*
X77557143Y-126299400D02*
X77414286Y-126370828D01*
X77414286Y-126370828D02*
X77271429Y-126370828D01*
X77271429Y-126370828D02*
X77128572Y-126299400D01*
X77128572Y-126299400D02*
X77057143Y-126227971D01*
X77057143Y-126227971D02*
X76985714Y-126085114D01*
X76985714Y-126085114D02*
X76914286Y-125799400D01*
X76914286Y-125799400D02*
X76914286Y-125442257D01*
X76914286Y-125442257D02*
X76985714Y-125156542D01*
X76985714Y-125156542D02*
X77057143Y-125013685D01*
X77057143Y-125013685D02*
X77128572Y-124942257D01*
X77128572Y-124942257D02*
X77271429Y-124870828D01*
X69914286Y-128357257D02*
X70628572Y-128357257D01*
X69771429Y-128785828D02*
X70271429Y-127285828D01*
X70271429Y-127285828D02*
X70771429Y-128785828D01*
X71914286Y-128785828D02*
X71914286Y-127285828D01*
X71914286Y-128714400D02*
X71771428Y-128785828D01*
X71771428Y-128785828D02*
X71485714Y-128785828D01*
X71485714Y-128785828D02*
X71342857Y-128714400D01*
X71342857Y-128714400D02*
X71271428Y-128642971D01*
X71271428Y-128642971D02*
X71200000Y-128500114D01*
X71200000Y-128500114D02*
X71200000Y-128071542D01*
X71200000Y-128071542D02*
X71271428Y-127928685D01*
X71271428Y-127928685D02*
X71342857Y-127857257D01*
X71342857Y-127857257D02*
X71485714Y-127785828D01*
X71485714Y-127785828D02*
X71771428Y-127785828D01*
X71771428Y-127785828D02*
X71914286Y-127857257D01*
X73271429Y-128785828D02*
X73271429Y-128000114D01*
X73271429Y-128000114D02*
X73200000Y-127857257D01*
X73200000Y-127857257D02*
X73057143Y-127785828D01*
X73057143Y-127785828D02*
X72771429Y-127785828D01*
X72771429Y-127785828D02*
X72628571Y-127857257D01*
X73271429Y-128714400D02*
X73128571Y-128785828D01*
X73128571Y-128785828D02*
X72771429Y-128785828D01*
X72771429Y-128785828D02*
X72628571Y-128714400D01*
X72628571Y-128714400D02*
X72557143Y-128571542D01*
X72557143Y-128571542D02*
X72557143Y-128428685D01*
X72557143Y-128428685D02*
X72628571Y-128285828D01*
X72628571Y-128285828D02*
X72771429Y-128214400D01*
X72771429Y-128214400D02*
X73128571Y-128214400D01*
X73128571Y-128214400D02*
X73271429Y-128142971D01*
X73985714Y-128785828D02*
X73985714Y-127785828D01*
X73985714Y-127928685D02*
X74057143Y-127857257D01*
X74057143Y-127857257D02*
X74200000Y-127785828D01*
X74200000Y-127785828D02*
X74414286Y-127785828D01*
X74414286Y-127785828D02*
X74557143Y-127857257D01*
X74557143Y-127857257D02*
X74628572Y-128000114D01*
X74628572Y-128000114D02*
X74628572Y-128785828D01*
X74628572Y-128000114D02*
X74700000Y-127857257D01*
X74700000Y-127857257D02*
X74842857Y-127785828D01*
X74842857Y-127785828D02*
X75057143Y-127785828D01*
X75057143Y-127785828D02*
X75200000Y-127857257D01*
X75200000Y-127857257D02*
X75271429Y-128000114D01*
X75271429Y-128000114D02*
X75271429Y-128785828D01*
X77128571Y-128785828D02*
X77128571Y-127285828D01*
X77128571Y-127285828D02*
X77700000Y-127285828D01*
X77700000Y-127285828D02*
X77842857Y-127357257D01*
X77842857Y-127357257D02*
X77914286Y-127428685D01*
X77914286Y-127428685D02*
X77985714Y-127571542D01*
X77985714Y-127571542D02*
X77985714Y-127785828D01*
X77985714Y-127785828D02*
X77914286Y-127928685D01*
X77914286Y-127928685D02*
X77842857Y-128000114D01*
X77842857Y-128000114D02*
X77700000Y-128071542D01*
X77700000Y-128071542D02*
X77128571Y-128071542D01*
X79271429Y-128785828D02*
X79271429Y-128000114D01*
X79271429Y-128000114D02*
X79200000Y-127857257D01*
X79200000Y-127857257D02*
X79057143Y-127785828D01*
X79057143Y-127785828D02*
X78771429Y-127785828D01*
X78771429Y-127785828D02*
X78628571Y-127857257D01*
X79271429Y-128714400D02*
X79128571Y-128785828D01*
X79128571Y-128785828D02*
X78771429Y-128785828D01*
X78771429Y-128785828D02*
X78628571Y-128714400D01*
X78628571Y-128714400D02*
X78557143Y-128571542D01*
X78557143Y-128571542D02*
X78557143Y-128428685D01*
X78557143Y-128428685D02*
X78628571Y-128285828D01*
X78628571Y-128285828D02*
X78771429Y-128214400D01*
X78771429Y-128214400D02*
X79128571Y-128214400D01*
X79128571Y-128214400D02*
X79271429Y-128142971D01*
X80628572Y-127785828D02*
X80628572Y-128785828D01*
X79985714Y-127785828D02*
X79985714Y-128571542D01*
X79985714Y-128571542D02*
X80057143Y-128714400D01*
X80057143Y-128714400D02*
X80200000Y-128785828D01*
X80200000Y-128785828D02*
X80414286Y-128785828D01*
X80414286Y-128785828D02*
X80557143Y-128714400D01*
X80557143Y-128714400D02*
X80628572Y-128642971D01*
X81557143Y-128785828D02*
X81414286Y-128714400D01*
X81414286Y-128714400D02*
X81342857Y-128571542D01*
X81342857Y-128571542D02*
X81342857Y-127285828D01*
X68414287Y-129843685D02*
X68485715Y-129772257D01*
X68485715Y-129772257D02*
X68628573Y-129700828D01*
X68628573Y-129700828D02*
X68985715Y-129700828D01*
X68985715Y-129700828D02*
X69128573Y-129772257D01*
X69128573Y-129772257D02*
X69200001Y-129843685D01*
X69200001Y-129843685D02*
X69271430Y-129986542D01*
X69271430Y-129986542D02*
X69271430Y-130129400D01*
X69271430Y-130129400D02*
X69200001Y-130343685D01*
X69200001Y-130343685D02*
X68342858Y-131200828D01*
X68342858Y-131200828D02*
X69271430Y-131200828D01*
X70200001Y-129700828D02*
X70342858Y-129700828D01*
X70342858Y-129700828D02*
X70485715Y-129772257D01*
X70485715Y-129772257D02*
X70557144Y-129843685D01*
X70557144Y-129843685D02*
X70628572Y-129986542D01*
X70628572Y-129986542D02*
X70700001Y-130272257D01*
X70700001Y-130272257D02*
X70700001Y-130629400D01*
X70700001Y-130629400D02*
X70628572Y-130915114D01*
X70628572Y-130915114D02*
X70557144Y-131057971D01*
X70557144Y-131057971D02*
X70485715Y-131129400D01*
X70485715Y-131129400D02*
X70342858Y-131200828D01*
X70342858Y-131200828D02*
X70200001Y-131200828D01*
X70200001Y-131200828D02*
X70057144Y-131129400D01*
X70057144Y-131129400D02*
X69985715Y-131057971D01*
X69985715Y-131057971D02*
X69914286Y-130915114D01*
X69914286Y-130915114D02*
X69842858Y-130629400D01*
X69842858Y-130629400D02*
X69842858Y-130272257D01*
X69842858Y-130272257D02*
X69914286Y-129986542D01*
X69914286Y-129986542D02*
X69985715Y-129843685D01*
X69985715Y-129843685D02*
X70057144Y-129772257D01*
X70057144Y-129772257D02*
X70200001Y-129700828D01*
X71271429Y-129843685D02*
X71342857Y-129772257D01*
X71342857Y-129772257D02*
X71485715Y-129700828D01*
X71485715Y-129700828D02*
X71842857Y-129700828D01*
X71842857Y-129700828D02*
X71985715Y-129772257D01*
X71985715Y-129772257D02*
X72057143Y-129843685D01*
X72057143Y-129843685D02*
X72128572Y-129986542D01*
X72128572Y-129986542D02*
X72128572Y-130129400D01*
X72128572Y-130129400D02*
X72057143Y-130343685D01*
X72057143Y-130343685D02*
X71200000Y-131200828D01*
X71200000Y-131200828D02*
X72128572Y-131200828D01*
X73414286Y-130200828D02*
X73414286Y-131200828D01*
X73057143Y-129629400D02*
X72700000Y-130700828D01*
X72700000Y-130700828D02*
X73628571Y-130700828D01*
X74199999Y-130629400D02*
X75342857Y-130629400D01*
X76342857Y-129700828D02*
X76485714Y-129700828D01*
X76485714Y-129700828D02*
X76628571Y-129772257D01*
X76628571Y-129772257D02*
X76700000Y-129843685D01*
X76700000Y-129843685D02*
X76771428Y-129986542D01*
X76771428Y-129986542D02*
X76842857Y-130272257D01*
X76842857Y-130272257D02*
X76842857Y-130629400D01*
X76842857Y-130629400D02*
X76771428Y-130915114D01*
X76771428Y-130915114D02*
X76700000Y-131057971D01*
X76700000Y-131057971D02*
X76628571Y-131129400D01*
X76628571Y-131129400D02*
X76485714Y-131200828D01*
X76485714Y-131200828D02*
X76342857Y-131200828D01*
X76342857Y-131200828D02*
X76200000Y-131129400D01*
X76200000Y-131129400D02*
X76128571Y-131057971D01*
X76128571Y-131057971D02*
X76057142Y-130915114D01*
X76057142Y-130915114D02*
X75985714Y-130629400D01*
X75985714Y-130629400D02*
X75985714Y-130272257D01*
X75985714Y-130272257D02*
X76057142Y-129986542D01*
X76057142Y-129986542D02*
X76128571Y-129843685D01*
X76128571Y-129843685D02*
X76200000Y-129772257D01*
X76200000Y-129772257D02*
X76342857Y-129700828D01*
X78199999Y-129700828D02*
X77485713Y-129700828D01*
X77485713Y-129700828D02*
X77414285Y-130415114D01*
X77414285Y-130415114D02*
X77485713Y-130343685D01*
X77485713Y-130343685D02*
X77628571Y-130272257D01*
X77628571Y-130272257D02*
X77985713Y-130272257D01*
X77985713Y-130272257D02*
X78128571Y-130343685D01*
X78128571Y-130343685D02*
X78199999Y-130415114D01*
X78199999Y-130415114D02*
X78271428Y-130557971D01*
X78271428Y-130557971D02*
X78271428Y-130915114D01*
X78271428Y-130915114D02*
X78199999Y-131057971D01*
X78199999Y-131057971D02*
X78128571Y-131129400D01*
X78128571Y-131129400D02*
X77985713Y-131200828D01*
X77985713Y-131200828D02*
X77628571Y-131200828D01*
X77628571Y-131200828D02*
X77485713Y-131129400D01*
X77485713Y-131129400D02*
X77414285Y-131057971D01*
X78914284Y-130629400D02*
X80057142Y-130629400D01*
X80699999Y-129843685D02*
X80771427Y-129772257D01*
X80771427Y-129772257D02*
X80914285Y-129700828D01*
X80914285Y-129700828D02*
X81271427Y-129700828D01*
X81271427Y-129700828D02*
X81414285Y-129772257D01*
X81414285Y-129772257D02*
X81485713Y-129843685D01*
X81485713Y-129843685D02*
X81557142Y-129986542D01*
X81557142Y-129986542D02*
X81557142Y-130129400D01*
X81557142Y-130129400D02*
X81485713Y-130343685D01*
X81485713Y-130343685D02*
X80628570Y-131200828D01*
X80628570Y-131200828D02*
X81557142Y-131200828D01*
X82842856Y-129700828D02*
X82557141Y-129700828D01*
X82557141Y-129700828D02*
X82414284Y-129772257D01*
X82414284Y-129772257D02*
X82342856Y-129843685D01*
X82342856Y-129843685D02*
X82199998Y-130057971D01*
X82199998Y-130057971D02*
X82128570Y-130343685D01*
X82128570Y-130343685D02*
X82128570Y-130915114D01*
X82128570Y-130915114D02*
X82199998Y-131057971D01*
X82199998Y-131057971D02*
X82271427Y-131129400D01*
X82271427Y-131129400D02*
X82414284Y-131200828D01*
X82414284Y-131200828D02*
X82699998Y-131200828D01*
X82699998Y-131200828D02*
X82842856Y-131129400D01*
X82842856Y-131129400D02*
X82914284Y-131057971D01*
X82914284Y-131057971D02*
X82985713Y-130915114D01*
X82985713Y-130915114D02*
X82985713Y-130557971D01*
X82985713Y-130557971D02*
X82914284Y-130415114D01*
X82914284Y-130415114D02*
X82842856Y-130343685D01*
X82842856Y-130343685D02*
X82699998Y-130272257D01*
X82699998Y-130272257D02*
X82414284Y-130272257D01*
X82414284Y-130272257D02*
X82271427Y-130343685D01*
X82271427Y-130343685D02*
X82199998Y-130415114D01*
X82199998Y-130415114D02*
X82128570Y-130557971D01*
X140300828Y-118000939D02*
X138800828Y-118000939D01*
X139515114Y-118000939D02*
X139515114Y-117143796D01*
X140300828Y-117143796D02*
X138800828Y-117143796D01*
X139515114Y-116429510D02*
X139515114Y-115929510D01*
X140300828Y-115715224D02*
X140300828Y-116429510D01*
X140300828Y-116429510D02*
X138800828Y-116429510D01*
X138800828Y-116429510D02*
X138800828Y-115715224D01*
X139872257Y-115143795D02*
X139872257Y-114429510D01*
X140300828Y-115286652D02*
X138800828Y-114786652D01*
X138800828Y-114786652D02*
X140300828Y-114286652D01*
X138800828Y-114000938D02*
X138800828Y-113143796D01*
X140300828Y-113572367D02*
X138800828Y-113572367D01*
X139515114Y-112643796D02*
X139515114Y-112143796D01*
X140300828Y-111929510D02*
X140300828Y-112643796D01*
X140300828Y-112643796D02*
X138800828Y-112643796D01*
X138800828Y-112643796D02*
X138800828Y-111929510D01*
X140300828Y-110429510D02*
X139586542Y-110929510D01*
X140300828Y-111286653D02*
X138800828Y-111286653D01*
X138800828Y-111286653D02*
X138800828Y-110715224D01*
X138800828Y-110715224D02*
X138872257Y-110572367D01*
X138872257Y-110572367D02*
X138943685Y-110500938D01*
X138943685Y-110500938D02*
X139086542Y-110429510D01*
X139086542Y-110429510D02*
X139300828Y-110429510D01*
X139300828Y-110429510D02*
X139443685Y-110500938D01*
X139443685Y-110500938D02*
X139515114Y-110572367D01*
X139515114Y-110572367D02*
X139586542Y-110715224D01*
X139586542Y-110715224D02*
X139586542Y-111286653D01*
X138943685Y-108715224D02*
X138872257Y-108643796D01*
X138872257Y-108643796D02*
X138800828Y-108500939D01*
X138800828Y-108500939D02*
X138800828Y-108143796D01*
X138800828Y-108143796D02*
X138872257Y-108000939D01*
X138872257Y-108000939D02*
X138943685Y-107929510D01*
X138943685Y-107929510D02*
X139086542Y-107858081D01*
X139086542Y-107858081D02*
X139229400Y-107858081D01*
X139229400Y-107858081D02*
X139443685Y-107929510D01*
X139443685Y-107929510D02*
X140300828Y-108786653D01*
X140300828Y-108786653D02*
X140300828Y-107858081D01*
X121075828Y-118225939D02*
X119575828Y-118225939D01*
X120290114Y-118225939D02*
X120290114Y-117368796D01*
X121075828Y-117368796D02*
X119575828Y-117368796D01*
X120290114Y-116654510D02*
X120290114Y-116154510D01*
X121075828Y-115940224D02*
X121075828Y-116654510D01*
X121075828Y-116654510D02*
X119575828Y-116654510D01*
X119575828Y-116654510D02*
X119575828Y-115940224D01*
X120647257Y-115368795D02*
X120647257Y-114654510D01*
X121075828Y-115511652D02*
X119575828Y-115011652D01*
X119575828Y-115011652D02*
X121075828Y-114511652D01*
X119575828Y-114225938D02*
X119575828Y-113368796D01*
X121075828Y-113797367D02*
X119575828Y-113797367D01*
X120290114Y-112868796D02*
X120290114Y-112368796D01*
X121075828Y-112154510D02*
X121075828Y-112868796D01*
X121075828Y-112868796D02*
X119575828Y-112868796D01*
X119575828Y-112868796D02*
X119575828Y-112154510D01*
X121075828Y-110654510D02*
X120361542Y-111154510D01*
X121075828Y-111511653D02*
X119575828Y-111511653D01*
X119575828Y-111511653D02*
X119575828Y-110940224D01*
X119575828Y-110940224D02*
X119647257Y-110797367D01*
X119647257Y-110797367D02*
X119718685Y-110725938D01*
X119718685Y-110725938D02*
X119861542Y-110654510D01*
X119861542Y-110654510D02*
X120075828Y-110654510D01*
X120075828Y-110654510D02*
X120218685Y-110725938D01*
X120218685Y-110725938D02*
X120290114Y-110797367D01*
X120290114Y-110797367D02*
X120361542Y-110940224D01*
X120361542Y-110940224D02*
X120361542Y-111511653D01*
X119575828Y-109011653D02*
X119575828Y-108083081D01*
X119575828Y-108083081D02*
X120147257Y-108583081D01*
X120147257Y-108583081D02*
X120147257Y-108368796D01*
X120147257Y-108368796D02*
X120218685Y-108225939D01*
X120218685Y-108225939D02*
X120290114Y-108154510D01*
X120290114Y-108154510D02*
X120432971Y-108083081D01*
X120432971Y-108083081D02*
X120790114Y-108083081D01*
X120790114Y-108083081D02*
X120932971Y-108154510D01*
X120932971Y-108154510D02*
X121004400Y-108225939D01*
X121004400Y-108225939D02*
X121075828Y-108368796D01*
X121075828Y-108368796D02*
X121075828Y-108797367D01*
X121075828Y-108797367D02*
X121004400Y-108940224D01*
X121004400Y-108940224D02*
X120932971Y-109011653D01*
D11*
X46445270Y-116400714D02*
X46384794Y-116521666D01*
X46384794Y-116521666D02*
X46263842Y-116642619D01*
X46263842Y-116642619D02*
X46082413Y-116824047D01*
X46082413Y-116824047D02*
X46021937Y-116945000D01*
X46021937Y-116945000D02*
X46021937Y-117065952D01*
X46324318Y-117005476D02*
X46263842Y-117126428D01*
X46263842Y-117126428D02*
X46142889Y-117247381D01*
X46142889Y-117247381D02*
X45900984Y-117307857D01*
X45900984Y-117307857D02*
X45477651Y-117307857D01*
X45477651Y-117307857D02*
X45235746Y-117247381D01*
X45235746Y-117247381D02*
X45114794Y-117126428D01*
X45114794Y-117126428D02*
X45054318Y-117005476D01*
X45054318Y-117005476D02*
X45054318Y-116763571D01*
X45054318Y-116763571D02*
X45114794Y-116642619D01*
X45114794Y-116642619D02*
X45235746Y-116521666D01*
X45235746Y-116521666D02*
X45477651Y-116461190D01*
X45477651Y-116461190D02*
X45900984Y-116461190D01*
X45900984Y-116461190D02*
X46142889Y-116521666D01*
X46142889Y-116521666D02*
X46263842Y-116642619D01*
X46263842Y-116642619D02*
X46324318Y-116763571D01*
X46324318Y-116763571D02*
X46324318Y-117005476D01*
X46324318Y-115251666D02*
X46324318Y-115977381D01*
X46324318Y-115614524D02*
X45054318Y-115614524D01*
X45054318Y-115614524D02*
X45235746Y-115735476D01*
X45235746Y-115735476D02*
X45356699Y-115856428D01*
X45356699Y-115856428D02*
X45417175Y-115977381D01*
X45175270Y-114767857D02*
X45114794Y-114707381D01*
X45114794Y-114707381D02*
X45054318Y-114586428D01*
X45054318Y-114586428D02*
X45054318Y-114284047D01*
X45054318Y-114284047D02*
X45114794Y-114163095D01*
X45114794Y-114163095D02*
X45175270Y-114102619D01*
X45175270Y-114102619D02*
X45296222Y-114042142D01*
X45296222Y-114042142D02*
X45417175Y-114042142D01*
X45417175Y-114042142D02*
X45598603Y-114102619D01*
X45598603Y-114102619D02*
X46324318Y-114828333D01*
X46324318Y-114828333D02*
X46324318Y-114042142D01*
X109654047Y-113645270D02*
X109533095Y-113584794D01*
X109533095Y-113584794D02*
X109412142Y-113463842D01*
X109412142Y-113463842D02*
X109230714Y-113282413D01*
X109230714Y-113282413D02*
X109109761Y-113221937D01*
X109109761Y-113221937D02*
X108988809Y-113221937D01*
X109049285Y-113524318D02*
X108928333Y-113463842D01*
X108928333Y-113463842D02*
X108807380Y-113342889D01*
X108807380Y-113342889D02*
X108746904Y-113100984D01*
X108746904Y-113100984D02*
X108746904Y-112677651D01*
X108746904Y-112677651D02*
X108807380Y-112435746D01*
X108807380Y-112435746D02*
X108928333Y-112314794D01*
X108928333Y-112314794D02*
X109049285Y-112254318D01*
X109049285Y-112254318D02*
X109291190Y-112254318D01*
X109291190Y-112254318D02*
X109412142Y-112314794D01*
X109412142Y-112314794D02*
X109533095Y-112435746D01*
X109533095Y-112435746D02*
X109593571Y-112677651D01*
X109593571Y-112677651D02*
X109593571Y-113100984D01*
X109593571Y-113100984D02*
X109533095Y-113342889D01*
X109533095Y-113342889D02*
X109412142Y-113463842D01*
X109412142Y-113463842D02*
X109291190Y-113524318D01*
X109291190Y-113524318D02*
X109049285Y-113524318D01*
X110077380Y-112375270D02*
X110137856Y-112314794D01*
X110137856Y-112314794D02*
X110258809Y-112254318D01*
X110258809Y-112254318D02*
X110561190Y-112254318D01*
X110561190Y-112254318D02*
X110682142Y-112314794D01*
X110682142Y-112314794D02*
X110742618Y-112375270D01*
X110742618Y-112375270D02*
X110803095Y-112496222D01*
X110803095Y-112496222D02*
X110803095Y-112617175D01*
X110803095Y-112617175D02*
X110742618Y-112798603D01*
X110742618Y-112798603D02*
X110016904Y-113524318D01*
X110016904Y-113524318D02*
X110803095Y-113524318D01*
X146924285Y-114220270D02*
X146803333Y-114159794D01*
X146803333Y-114159794D02*
X146682380Y-114038842D01*
X146682380Y-114038842D02*
X146500952Y-113857413D01*
X146500952Y-113857413D02*
X146379999Y-113796937D01*
X146379999Y-113796937D02*
X146259047Y-113796937D01*
X146319523Y-114099318D02*
X146198571Y-114038842D01*
X146198571Y-114038842D02*
X146077618Y-113917889D01*
X146077618Y-113917889D02*
X146017142Y-113675984D01*
X146017142Y-113675984D02*
X146017142Y-113252651D01*
X146017142Y-113252651D02*
X146077618Y-113010746D01*
X146077618Y-113010746D02*
X146198571Y-112889794D01*
X146198571Y-112889794D02*
X146319523Y-112829318D01*
X146319523Y-112829318D02*
X146561428Y-112829318D01*
X146561428Y-112829318D02*
X146682380Y-112889794D01*
X146682380Y-112889794D02*
X146803333Y-113010746D01*
X146803333Y-113010746D02*
X146863809Y-113252651D01*
X146863809Y-113252651D02*
X146863809Y-113675984D01*
X146863809Y-113675984D02*
X146803333Y-113917889D01*
X146803333Y-113917889D02*
X146682380Y-114038842D01*
X146682380Y-114038842D02*
X146561428Y-114099318D01*
X146561428Y-114099318D02*
X146319523Y-114099318D01*
X148073333Y-114099318D02*
X147347618Y-114099318D01*
X147710475Y-114099318D02*
X147710475Y-112829318D01*
X147710475Y-112829318D02*
X147589523Y-113010746D01*
X147589523Y-113010746D02*
X147468571Y-113131699D01*
X147468571Y-113131699D02*
X147347618Y-113192175D01*
X149282857Y-114099318D02*
X148557142Y-114099318D01*
X148919999Y-114099318D02*
X148919999Y-112829318D01*
X148919999Y-112829318D02*
X148799047Y-113010746D01*
X148799047Y-113010746D02*
X148678095Y-113131699D01*
X148678095Y-113131699D02*
X148557142Y-113192175D01*
X128174285Y-115870270D02*
X128053333Y-115809794D01*
X128053333Y-115809794D02*
X127932380Y-115688842D01*
X127932380Y-115688842D02*
X127750952Y-115507413D01*
X127750952Y-115507413D02*
X127629999Y-115446937D01*
X127629999Y-115446937D02*
X127509047Y-115446937D01*
X127569523Y-115749318D02*
X127448571Y-115688842D01*
X127448571Y-115688842D02*
X127327618Y-115567889D01*
X127327618Y-115567889D02*
X127267142Y-115325984D01*
X127267142Y-115325984D02*
X127267142Y-114902651D01*
X127267142Y-114902651D02*
X127327618Y-114660746D01*
X127327618Y-114660746D02*
X127448571Y-114539794D01*
X127448571Y-114539794D02*
X127569523Y-114479318D01*
X127569523Y-114479318D02*
X127811428Y-114479318D01*
X127811428Y-114479318D02*
X127932380Y-114539794D01*
X127932380Y-114539794D02*
X128053333Y-114660746D01*
X128053333Y-114660746D02*
X128113809Y-114902651D01*
X128113809Y-114902651D02*
X128113809Y-115325984D01*
X128113809Y-115325984D02*
X128053333Y-115567889D01*
X128053333Y-115567889D02*
X127932380Y-115688842D01*
X127932380Y-115688842D02*
X127811428Y-115749318D01*
X127811428Y-115749318D02*
X127569523Y-115749318D01*
X129323333Y-115749318D02*
X128597618Y-115749318D01*
X128960475Y-115749318D02*
X128960475Y-114479318D01*
X128960475Y-114479318D02*
X128839523Y-114660746D01*
X128839523Y-114660746D02*
X128718571Y-114781699D01*
X128718571Y-114781699D02*
X128597618Y-114842175D01*
X130109523Y-114479318D02*
X130230476Y-114479318D01*
X130230476Y-114479318D02*
X130351428Y-114539794D01*
X130351428Y-114539794D02*
X130411904Y-114600270D01*
X130411904Y-114600270D02*
X130472380Y-114721222D01*
X130472380Y-114721222D02*
X130532857Y-114963127D01*
X130532857Y-114963127D02*
X130532857Y-115265508D01*
X130532857Y-115265508D02*
X130472380Y-115507413D01*
X130472380Y-115507413D02*
X130411904Y-115628365D01*
X130411904Y-115628365D02*
X130351428Y-115688842D01*
X130351428Y-115688842D02*
X130230476Y-115749318D01*
X130230476Y-115749318D02*
X130109523Y-115749318D01*
X130109523Y-115749318D02*
X129988571Y-115688842D01*
X129988571Y-115688842D02*
X129928095Y-115628365D01*
X129928095Y-115628365D02*
X129867618Y-115507413D01*
X129867618Y-115507413D02*
X129807142Y-115265508D01*
X129807142Y-115265508D02*
X129807142Y-114963127D01*
X129807142Y-114963127D02*
X129867618Y-114721222D01*
X129867618Y-114721222D02*
X129928095Y-114600270D01*
X129928095Y-114600270D02*
X129988571Y-114539794D01*
X129988571Y-114539794D02*
X130109523Y-114479318D01*
D12*
X48366666Y-112856009D02*
X48033333Y-112856009D01*
X48033333Y-113379819D02*
X48033333Y-112379819D01*
X48033333Y-112379819D02*
X48509523Y-112379819D01*
X49366666Y-112379819D02*
X48890476Y-112379819D01*
X48890476Y-112379819D02*
X48842857Y-112856009D01*
X48842857Y-112856009D02*
X48890476Y-112808390D01*
X48890476Y-112808390D02*
X48985714Y-112760771D01*
X48985714Y-112760771D02*
X49223809Y-112760771D01*
X49223809Y-112760771D02*
X49319047Y-112808390D01*
X49319047Y-112808390D02*
X49366666Y-112856009D01*
X49366666Y-112856009D02*
X49414285Y-112951247D01*
X49414285Y-112951247D02*
X49414285Y-113189342D01*
X49414285Y-113189342D02*
X49366666Y-113284580D01*
X49366666Y-113284580D02*
X49319047Y-113332200D01*
X49319047Y-113332200D02*
X49223809Y-113379819D01*
X49223809Y-113379819D02*
X48985714Y-113379819D01*
X48985714Y-113379819D02*
X48890476Y-113332200D01*
X48890476Y-113332200D02*
X48842857Y-113284580D01*
X90904819Y-141342857D02*
X90428628Y-141676190D01*
X90904819Y-141914285D02*
X89904819Y-141914285D01*
X89904819Y-141914285D02*
X89904819Y-141533333D01*
X89904819Y-141533333D02*
X89952438Y-141438095D01*
X89952438Y-141438095D02*
X90000057Y-141390476D01*
X90000057Y-141390476D02*
X90095295Y-141342857D01*
X90095295Y-141342857D02*
X90238152Y-141342857D01*
X90238152Y-141342857D02*
X90333390Y-141390476D01*
X90333390Y-141390476D02*
X90381009Y-141438095D01*
X90381009Y-141438095D02*
X90428628Y-141533333D01*
X90428628Y-141533333D02*
X90428628Y-141914285D01*
X90000057Y-140961904D02*
X89952438Y-140914285D01*
X89952438Y-140914285D02*
X89904819Y-140819047D01*
X89904819Y-140819047D02*
X89904819Y-140580952D01*
X89904819Y-140580952D02*
X89952438Y-140485714D01*
X89952438Y-140485714D02*
X90000057Y-140438095D01*
X90000057Y-140438095D02*
X90095295Y-140390476D01*
X90095295Y-140390476D02*
X90190533Y-140390476D01*
X90190533Y-140390476D02*
X90333390Y-140438095D01*
X90333390Y-140438095D02*
X90904819Y-141009523D01*
X90904819Y-141009523D02*
X90904819Y-140390476D01*
X89904819Y-140057142D02*
X89904819Y-139438095D01*
X89904819Y-139438095D02*
X90285771Y-139771428D01*
X90285771Y-139771428D02*
X90285771Y-139628571D01*
X90285771Y-139628571D02*
X90333390Y-139533333D01*
X90333390Y-139533333D02*
X90381009Y-139485714D01*
X90381009Y-139485714D02*
X90476247Y-139438095D01*
X90476247Y-139438095D02*
X90714342Y-139438095D01*
X90714342Y-139438095D02*
X90809580Y-139485714D01*
X90809580Y-139485714D02*
X90857200Y-139533333D01*
X90857200Y-139533333D02*
X90904819Y-139628571D01*
X90904819Y-139628571D02*
X90904819Y-139914285D01*
X90904819Y-139914285D02*
X90857200Y-140009523D01*
X90857200Y-140009523D02*
X90809580Y-140057142D01*
X73294819Y-99029523D02*
X74009104Y-99029523D01*
X74009104Y-99029523D02*
X74151961Y-99077142D01*
X74151961Y-99077142D02*
X74247200Y-99172380D01*
X74247200Y-99172380D02*
X74294819Y-99315237D01*
X74294819Y-99315237D02*
X74294819Y-99410475D01*
X74294819Y-98029523D02*
X74294819Y-98600951D01*
X74294819Y-98315237D02*
X73294819Y-98315237D01*
X73294819Y-98315237D02*
X73437676Y-98410475D01*
X73437676Y-98410475D02*
X73532914Y-98505713D01*
X73532914Y-98505713D02*
X73580533Y-98600951D01*
X74294819Y-97077142D02*
X74294819Y-97648570D01*
X74294819Y-97362856D02*
X73294819Y-97362856D01*
X73294819Y-97362856D02*
X73437676Y-97458094D01*
X73437676Y-97458094D02*
X73532914Y-97553332D01*
X73532914Y-97553332D02*
X73580533Y-97648570D01*
X149286905Y-106254819D02*
X149858333Y-106254819D01*
X149572619Y-107254819D02*
X149572619Y-106254819D01*
X150191667Y-107254819D02*
X150191667Y-106254819D01*
X150191667Y-106254819D02*
X150572619Y-106254819D01*
X150572619Y-106254819D02*
X150667857Y-106302438D01*
X150667857Y-106302438D02*
X150715476Y-106350057D01*
X150715476Y-106350057D02*
X150763095Y-106445295D01*
X150763095Y-106445295D02*
X150763095Y-106588152D01*
X150763095Y-106588152D02*
X150715476Y-106683390D01*
X150715476Y-106683390D02*
X150667857Y-106731009D01*
X150667857Y-106731009D02*
X150572619Y-106778628D01*
X150572619Y-106778628D02*
X150191667Y-106778628D01*
X151715476Y-107254819D02*
X151144048Y-107254819D01*
X151429762Y-107254819D02*
X151429762Y-106254819D01*
X151429762Y-106254819D02*
X151334524Y-106397676D01*
X151334524Y-106397676D02*
X151239286Y-106492914D01*
X151239286Y-106492914D02*
X151144048Y-106540533D01*
X152667857Y-107254819D02*
X152096429Y-107254819D01*
X152382143Y-107254819D02*
X152382143Y-106254819D01*
X152382143Y-106254819D02*
X152286905Y-106397676D01*
X152286905Y-106397676D02*
X152191667Y-106492914D01*
X152191667Y-106492914D02*
X152096429Y-106540533D01*
X119779819Y-153367857D02*
X119303628Y-153701190D01*
X119779819Y-153939285D02*
X118779819Y-153939285D01*
X118779819Y-153939285D02*
X118779819Y-153558333D01*
X118779819Y-153558333D02*
X118827438Y-153463095D01*
X118827438Y-153463095D02*
X118875057Y-153415476D01*
X118875057Y-153415476D02*
X118970295Y-153367857D01*
X118970295Y-153367857D02*
X119113152Y-153367857D01*
X119113152Y-153367857D02*
X119208390Y-153415476D01*
X119208390Y-153415476D02*
X119256009Y-153463095D01*
X119256009Y-153463095D02*
X119303628Y-153558333D01*
X119303628Y-153558333D02*
X119303628Y-153939285D01*
X119779819Y-152415476D02*
X119779819Y-152986904D01*
X119779819Y-152701190D02*
X118779819Y-152701190D01*
X118779819Y-152701190D02*
X118922676Y-152796428D01*
X118922676Y-152796428D02*
X119017914Y-152891666D01*
X119017914Y-152891666D02*
X119065533Y-152986904D01*
X118779819Y-152082142D02*
X118779819Y-151463095D01*
X118779819Y-151463095D02*
X119160771Y-151796428D01*
X119160771Y-151796428D02*
X119160771Y-151653571D01*
X119160771Y-151653571D02*
X119208390Y-151558333D01*
X119208390Y-151558333D02*
X119256009Y-151510714D01*
X119256009Y-151510714D02*
X119351247Y-151463095D01*
X119351247Y-151463095D02*
X119589342Y-151463095D01*
X119589342Y-151463095D02*
X119684580Y-151510714D01*
X119684580Y-151510714D02*
X119732200Y-151558333D01*
X119732200Y-151558333D02*
X119779819Y-151653571D01*
X119779819Y-151653571D02*
X119779819Y-151939285D01*
X119779819Y-151939285D02*
X119732200Y-152034523D01*
X119732200Y-152034523D02*
X119684580Y-152082142D01*
X141754819Y-141642857D02*
X141278628Y-141976190D01*
X141754819Y-142214285D02*
X140754819Y-142214285D01*
X140754819Y-142214285D02*
X140754819Y-141833333D01*
X140754819Y-141833333D02*
X140802438Y-141738095D01*
X140802438Y-141738095D02*
X140850057Y-141690476D01*
X140850057Y-141690476D02*
X140945295Y-141642857D01*
X140945295Y-141642857D02*
X141088152Y-141642857D01*
X141088152Y-141642857D02*
X141183390Y-141690476D01*
X141183390Y-141690476D02*
X141231009Y-141738095D01*
X141231009Y-141738095D02*
X141278628Y-141833333D01*
X141278628Y-141833333D02*
X141278628Y-142214285D01*
X140850057Y-141261904D02*
X140802438Y-141214285D01*
X140802438Y-141214285D02*
X140754819Y-141119047D01*
X140754819Y-141119047D02*
X140754819Y-140880952D01*
X140754819Y-140880952D02*
X140802438Y-140785714D01*
X140802438Y-140785714D02*
X140850057Y-140738095D01*
X140850057Y-140738095D02*
X140945295Y-140690476D01*
X140945295Y-140690476D02*
X141040533Y-140690476D01*
X141040533Y-140690476D02*
X141183390Y-140738095D01*
X141183390Y-140738095D02*
X141754819Y-141309523D01*
X141754819Y-141309523D02*
X141754819Y-140690476D01*
X140850057Y-140309523D02*
X140802438Y-140261904D01*
X140802438Y-140261904D02*
X140754819Y-140166666D01*
X140754819Y-140166666D02*
X140754819Y-139928571D01*
X140754819Y-139928571D02*
X140802438Y-139833333D01*
X140802438Y-139833333D02*
X140850057Y-139785714D01*
X140850057Y-139785714D02*
X140945295Y-139738095D01*
X140945295Y-139738095D02*
X141040533Y-139738095D01*
X141040533Y-139738095D02*
X141183390Y-139785714D01*
X141183390Y-139785714D02*
X141754819Y-140357142D01*
X141754819Y-140357142D02*
X141754819Y-139738095D01*
X108388095Y-107199819D02*
X108959523Y-107199819D01*
X108673809Y-108199819D02*
X108673809Y-107199819D01*
X109292857Y-108199819D02*
X109292857Y-107199819D01*
X109292857Y-107199819D02*
X109673809Y-107199819D01*
X109673809Y-107199819D02*
X109769047Y-107247438D01*
X109769047Y-107247438D02*
X109816666Y-107295057D01*
X109816666Y-107295057D02*
X109864285Y-107390295D01*
X109864285Y-107390295D02*
X109864285Y-107533152D01*
X109864285Y-107533152D02*
X109816666Y-107628390D01*
X109816666Y-107628390D02*
X109769047Y-107676009D01*
X109769047Y-107676009D02*
X109673809Y-107723628D01*
X109673809Y-107723628D02*
X109292857Y-107723628D01*
X110769047Y-107199819D02*
X110292857Y-107199819D01*
X110292857Y-107199819D02*
X110245238Y-107676009D01*
X110245238Y-107676009D02*
X110292857Y-107628390D01*
X110292857Y-107628390D02*
X110388095Y-107580771D01*
X110388095Y-107580771D02*
X110626190Y-107580771D01*
X110626190Y-107580771D02*
X110721428Y-107628390D01*
X110721428Y-107628390D02*
X110769047Y-107676009D01*
X110769047Y-107676009D02*
X110816666Y-107771247D01*
X110816666Y-107771247D02*
X110816666Y-108009342D01*
X110816666Y-108009342D02*
X110769047Y-108104580D01*
X110769047Y-108104580D02*
X110721428Y-108152200D01*
X110721428Y-108152200D02*
X110626190Y-108199819D01*
X110626190Y-108199819D02*
X110388095Y-108199819D01*
X110388095Y-108199819D02*
X110292857Y-108152200D01*
X110292857Y-108152200D02*
X110245238Y-108104580D01*
X113216666Y-109431009D02*
X112883333Y-109431009D01*
X112883333Y-109954819D02*
X112883333Y-108954819D01*
X112883333Y-108954819D02*
X113359523Y-108954819D01*
X113692857Y-109050057D02*
X113740476Y-109002438D01*
X113740476Y-109002438D02*
X113835714Y-108954819D01*
X113835714Y-108954819D02*
X114073809Y-108954819D01*
X114073809Y-108954819D02*
X114169047Y-109002438D01*
X114169047Y-109002438D02*
X114216666Y-109050057D01*
X114216666Y-109050057D02*
X114264285Y-109145295D01*
X114264285Y-109145295D02*
X114264285Y-109240533D01*
X114264285Y-109240533D02*
X114216666Y-109383390D01*
X114216666Y-109383390D02*
X113645238Y-109954819D01*
X113645238Y-109954819D02*
X114264285Y-109954819D01*
D11*
X155079318Y-98223332D02*
X155986461Y-98223332D01*
X155986461Y-98223332D02*
X156167889Y-98283809D01*
X156167889Y-98283809D02*
X156288842Y-98404761D01*
X156288842Y-98404761D02*
X156349318Y-98586190D01*
X156349318Y-98586190D02*
X156349318Y-98707142D01*
X155502651Y-97074285D02*
X156349318Y-97074285D01*
X155018842Y-97376666D02*
X155925984Y-97679047D01*
X155925984Y-97679047D02*
X155925984Y-96892856D01*
D12*
X171879819Y-128667857D02*
X171403628Y-129001190D01*
X171879819Y-129239285D02*
X170879819Y-129239285D01*
X170879819Y-129239285D02*
X170879819Y-128858333D01*
X170879819Y-128858333D02*
X170927438Y-128763095D01*
X170927438Y-128763095D02*
X170975057Y-128715476D01*
X170975057Y-128715476D02*
X171070295Y-128667857D01*
X171070295Y-128667857D02*
X171213152Y-128667857D01*
X171213152Y-128667857D02*
X171308390Y-128715476D01*
X171308390Y-128715476D02*
X171356009Y-128763095D01*
X171356009Y-128763095D02*
X171403628Y-128858333D01*
X171403628Y-128858333D02*
X171403628Y-129239285D01*
X171879819Y-127715476D02*
X171879819Y-128286904D01*
X171879819Y-128001190D02*
X170879819Y-128001190D01*
X170879819Y-128001190D02*
X171022676Y-128096428D01*
X171022676Y-128096428D02*
X171117914Y-128191666D01*
X171117914Y-128191666D02*
X171165533Y-128286904D01*
X171308390Y-127144047D02*
X171260771Y-127239285D01*
X171260771Y-127239285D02*
X171213152Y-127286904D01*
X171213152Y-127286904D02*
X171117914Y-127334523D01*
X171117914Y-127334523D02*
X171070295Y-127334523D01*
X171070295Y-127334523D02*
X170975057Y-127286904D01*
X170975057Y-127286904D02*
X170927438Y-127239285D01*
X170927438Y-127239285D02*
X170879819Y-127144047D01*
X170879819Y-127144047D02*
X170879819Y-126953571D01*
X170879819Y-126953571D02*
X170927438Y-126858333D01*
X170927438Y-126858333D02*
X170975057Y-126810714D01*
X170975057Y-126810714D02*
X171070295Y-126763095D01*
X171070295Y-126763095D02*
X171117914Y-126763095D01*
X171117914Y-126763095D02*
X171213152Y-126810714D01*
X171213152Y-126810714D02*
X171260771Y-126858333D01*
X171260771Y-126858333D02*
X171308390Y-126953571D01*
X171308390Y-126953571D02*
X171308390Y-127144047D01*
X171308390Y-127144047D02*
X171356009Y-127239285D01*
X171356009Y-127239285D02*
X171403628Y-127286904D01*
X171403628Y-127286904D02*
X171498866Y-127334523D01*
X171498866Y-127334523D02*
X171689342Y-127334523D01*
X171689342Y-127334523D02*
X171784580Y-127286904D01*
X171784580Y-127286904D02*
X171832200Y-127239285D01*
X171832200Y-127239285D02*
X171879819Y-127144047D01*
X171879819Y-127144047D02*
X171879819Y-126953571D01*
X171879819Y-126953571D02*
X171832200Y-126858333D01*
X171832200Y-126858333D02*
X171784580Y-126810714D01*
X171784580Y-126810714D02*
X171689342Y-126763095D01*
X171689342Y-126763095D02*
X171498866Y-126763095D01*
X171498866Y-126763095D02*
X171403628Y-126810714D01*
X171403628Y-126810714D02*
X171356009Y-126858333D01*
X171356009Y-126858333D02*
X171308390Y-126953571D01*
X132741666Y-109281009D02*
X132408333Y-109281009D01*
X132408333Y-109804819D02*
X132408333Y-108804819D01*
X132408333Y-108804819D02*
X132884523Y-108804819D01*
X133170238Y-108804819D02*
X133789285Y-108804819D01*
X133789285Y-108804819D02*
X133455952Y-109185771D01*
X133455952Y-109185771D02*
X133598809Y-109185771D01*
X133598809Y-109185771D02*
X133694047Y-109233390D01*
X133694047Y-109233390D02*
X133741666Y-109281009D01*
X133741666Y-109281009D02*
X133789285Y-109376247D01*
X133789285Y-109376247D02*
X133789285Y-109614342D01*
X133789285Y-109614342D02*
X133741666Y-109709580D01*
X133741666Y-109709580D02*
X133694047Y-109757200D01*
X133694047Y-109757200D02*
X133598809Y-109804819D01*
X133598809Y-109804819D02*
X133313095Y-109804819D01*
X133313095Y-109804819D02*
X133217857Y-109757200D01*
X133217857Y-109757200D02*
X133170238Y-109709580D01*
X49154819Y-110461904D02*
X49154819Y-109890476D01*
X50154819Y-110176190D02*
X49154819Y-110176190D01*
X50154819Y-109557142D02*
X49154819Y-109557142D01*
X49154819Y-109557142D02*
X49154819Y-109176190D01*
X49154819Y-109176190D02*
X49202438Y-109080952D01*
X49202438Y-109080952D02*
X49250057Y-109033333D01*
X49250057Y-109033333D02*
X49345295Y-108985714D01*
X49345295Y-108985714D02*
X49488152Y-108985714D01*
X49488152Y-108985714D02*
X49583390Y-109033333D01*
X49583390Y-109033333D02*
X49631009Y-109080952D01*
X49631009Y-109080952D02*
X49678628Y-109176190D01*
X49678628Y-109176190D02*
X49678628Y-109557142D01*
X49583390Y-108414285D02*
X49535771Y-108509523D01*
X49535771Y-108509523D02*
X49488152Y-108557142D01*
X49488152Y-108557142D02*
X49392914Y-108604761D01*
X49392914Y-108604761D02*
X49345295Y-108604761D01*
X49345295Y-108604761D02*
X49250057Y-108557142D01*
X49250057Y-108557142D02*
X49202438Y-108509523D01*
X49202438Y-108509523D02*
X49154819Y-108414285D01*
X49154819Y-108414285D02*
X49154819Y-108223809D01*
X49154819Y-108223809D02*
X49202438Y-108128571D01*
X49202438Y-108128571D02*
X49250057Y-108080952D01*
X49250057Y-108080952D02*
X49345295Y-108033333D01*
X49345295Y-108033333D02*
X49392914Y-108033333D01*
X49392914Y-108033333D02*
X49488152Y-108080952D01*
X49488152Y-108080952D02*
X49535771Y-108128571D01*
X49535771Y-108128571D02*
X49583390Y-108223809D01*
X49583390Y-108223809D02*
X49583390Y-108414285D01*
X49583390Y-108414285D02*
X49631009Y-108509523D01*
X49631009Y-108509523D02*
X49678628Y-108557142D01*
X49678628Y-108557142D02*
X49773866Y-108604761D01*
X49773866Y-108604761D02*
X49964342Y-108604761D01*
X49964342Y-108604761D02*
X50059580Y-108557142D01*
X50059580Y-108557142D02*
X50107200Y-108509523D01*
X50107200Y-108509523D02*
X50154819Y-108414285D01*
X50154819Y-108414285D02*
X50154819Y-108223809D01*
X50154819Y-108223809D02*
X50107200Y-108128571D01*
X50107200Y-108128571D02*
X50059580Y-108080952D01*
X50059580Y-108080952D02*
X49964342Y-108033333D01*
X49964342Y-108033333D02*
X49773866Y-108033333D01*
X49773866Y-108033333D02*
X49678628Y-108080952D01*
X49678628Y-108080952D02*
X49631009Y-108128571D01*
X49631009Y-108128571D02*
X49583390Y-108223809D01*
D11*
X170561667Y-92168318D02*
X170561667Y-93075461D01*
X170561667Y-93075461D02*
X170501190Y-93256889D01*
X170501190Y-93256889D02*
X170380238Y-93377842D01*
X170380238Y-93377842D02*
X170198809Y-93438318D01*
X170198809Y-93438318D02*
X170077857Y-93438318D01*
X171045476Y-92168318D02*
X171892143Y-92168318D01*
X171892143Y-92168318D02*
X171347857Y-93438318D01*
D12*
X129679819Y-122786904D02*
X129679819Y-122215476D01*
X130679819Y-122501190D02*
X129679819Y-122501190D01*
X130679819Y-121882142D02*
X129679819Y-121882142D01*
X129679819Y-121882142D02*
X129679819Y-121501190D01*
X129679819Y-121501190D02*
X129727438Y-121405952D01*
X129727438Y-121405952D02*
X129775057Y-121358333D01*
X129775057Y-121358333D02*
X129870295Y-121310714D01*
X129870295Y-121310714D02*
X130013152Y-121310714D01*
X130013152Y-121310714D02*
X130108390Y-121358333D01*
X130108390Y-121358333D02*
X130156009Y-121405952D01*
X130156009Y-121405952D02*
X130203628Y-121501190D01*
X130203628Y-121501190D02*
X130203628Y-121882142D01*
X129775057Y-120929761D02*
X129727438Y-120882142D01*
X129727438Y-120882142D02*
X129679819Y-120786904D01*
X129679819Y-120786904D02*
X129679819Y-120548809D01*
X129679819Y-120548809D02*
X129727438Y-120453571D01*
X129727438Y-120453571D02*
X129775057Y-120405952D01*
X129775057Y-120405952D02*
X129870295Y-120358333D01*
X129870295Y-120358333D02*
X129965533Y-120358333D01*
X129965533Y-120358333D02*
X130108390Y-120405952D01*
X130108390Y-120405952D02*
X130679819Y-120977380D01*
X130679819Y-120977380D02*
X130679819Y-120358333D01*
X156579819Y-113966666D02*
X156103628Y-114299999D01*
X156579819Y-114538094D02*
X155579819Y-114538094D01*
X155579819Y-114538094D02*
X155579819Y-114157142D01*
X155579819Y-114157142D02*
X155627438Y-114061904D01*
X155627438Y-114061904D02*
X155675057Y-114014285D01*
X155675057Y-114014285D02*
X155770295Y-113966666D01*
X155770295Y-113966666D02*
X155913152Y-113966666D01*
X155913152Y-113966666D02*
X156008390Y-114014285D01*
X156008390Y-114014285D02*
X156056009Y-114061904D01*
X156056009Y-114061904D02*
X156103628Y-114157142D01*
X156103628Y-114157142D02*
X156103628Y-114538094D01*
X155579819Y-113109523D02*
X155579819Y-113299999D01*
X155579819Y-113299999D02*
X155627438Y-113395237D01*
X155627438Y-113395237D02*
X155675057Y-113442856D01*
X155675057Y-113442856D02*
X155817914Y-113538094D01*
X155817914Y-113538094D02*
X156008390Y-113585713D01*
X156008390Y-113585713D02*
X156389342Y-113585713D01*
X156389342Y-113585713D02*
X156484580Y-113538094D01*
X156484580Y-113538094D02*
X156532200Y-113490475D01*
X156532200Y-113490475D02*
X156579819Y-113395237D01*
X156579819Y-113395237D02*
X156579819Y-113204761D01*
X156579819Y-113204761D02*
X156532200Y-113109523D01*
X156532200Y-113109523D02*
X156484580Y-113061904D01*
X156484580Y-113061904D02*
X156389342Y-113014285D01*
X156389342Y-113014285D02*
X156151247Y-113014285D01*
X156151247Y-113014285D02*
X156056009Y-113061904D01*
X156056009Y-113061904D02*
X156008390Y-113109523D01*
X156008390Y-113109523D02*
X155960771Y-113204761D01*
X155960771Y-113204761D02*
X155960771Y-113395237D01*
X155960771Y-113395237D02*
X156008390Y-113490475D01*
X156008390Y-113490475D02*
X156056009Y-113538094D01*
X156056009Y-113538094D02*
X156151247Y-113585713D01*
D11*
X52520270Y-121295952D02*
X52459794Y-121416904D01*
X52459794Y-121416904D02*
X52338842Y-121537857D01*
X52338842Y-121537857D02*
X52157413Y-121719285D01*
X52157413Y-121719285D02*
X52096937Y-121840238D01*
X52096937Y-121840238D02*
X52096937Y-121961190D01*
X52399318Y-121900714D02*
X52338842Y-122021666D01*
X52338842Y-122021666D02*
X52217889Y-122142619D01*
X52217889Y-122142619D02*
X51975984Y-122203095D01*
X51975984Y-122203095D02*
X51552651Y-122203095D01*
X51552651Y-122203095D02*
X51310746Y-122142619D01*
X51310746Y-122142619D02*
X51189794Y-122021666D01*
X51189794Y-122021666D02*
X51129318Y-121900714D01*
X51129318Y-121900714D02*
X51129318Y-121658809D01*
X51129318Y-121658809D02*
X51189794Y-121537857D01*
X51189794Y-121537857D02*
X51310746Y-121416904D01*
X51310746Y-121416904D02*
X51552651Y-121356428D01*
X51552651Y-121356428D02*
X51975984Y-121356428D01*
X51975984Y-121356428D02*
X52217889Y-121416904D01*
X52217889Y-121416904D02*
X52338842Y-121537857D01*
X52338842Y-121537857D02*
X52399318Y-121658809D01*
X52399318Y-121658809D02*
X52399318Y-121900714D01*
X51129318Y-120933095D02*
X51129318Y-120086428D01*
X51129318Y-120086428D02*
X52399318Y-120630714D01*
X136470270Y-117620952D02*
X136409794Y-117741904D01*
X136409794Y-117741904D02*
X136288842Y-117862857D01*
X136288842Y-117862857D02*
X136107413Y-118044285D01*
X136107413Y-118044285D02*
X136046937Y-118165238D01*
X136046937Y-118165238D02*
X136046937Y-118286190D01*
X136349318Y-118225714D02*
X136288842Y-118346666D01*
X136288842Y-118346666D02*
X136167889Y-118467619D01*
X136167889Y-118467619D02*
X135925984Y-118528095D01*
X135925984Y-118528095D02*
X135502651Y-118528095D01*
X135502651Y-118528095D02*
X135260746Y-118467619D01*
X135260746Y-118467619D02*
X135139794Y-118346666D01*
X135139794Y-118346666D02*
X135079318Y-118225714D01*
X135079318Y-118225714D02*
X135079318Y-117983809D01*
X135079318Y-117983809D02*
X135139794Y-117862857D01*
X135139794Y-117862857D02*
X135260746Y-117741904D01*
X135260746Y-117741904D02*
X135502651Y-117681428D01*
X135502651Y-117681428D02*
X135925984Y-117681428D01*
X135925984Y-117681428D02*
X136167889Y-117741904D01*
X136167889Y-117741904D02*
X136288842Y-117862857D01*
X136288842Y-117862857D02*
X136349318Y-117983809D01*
X136349318Y-117983809D02*
X136349318Y-118225714D01*
X135079318Y-117258095D02*
X135079318Y-116471904D01*
X135079318Y-116471904D02*
X135563127Y-116895238D01*
X135563127Y-116895238D02*
X135563127Y-116713809D01*
X135563127Y-116713809D02*
X135623603Y-116592857D01*
X135623603Y-116592857D02*
X135684080Y-116532381D01*
X135684080Y-116532381D02*
X135805032Y-116471904D01*
X135805032Y-116471904D02*
X136107413Y-116471904D01*
X136107413Y-116471904D02*
X136228365Y-116532381D01*
X136228365Y-116532381D02*
X136288842Y-116592857D01*
X136288842Y-116592857D02*
X136349318Y-116713809D01*
X136349318Y-116713809D02*
X136349318Y-117076666D01*
X136349318Y-117076666D02*
X136288842Y-117197619D01*
X136288842Y-117197619D02*
X136228365Y-117258095D01*
D12*
X146388095Y-107254819D02*
X146959523Y-107254819D01*
X146673809Y-108254819D02*
X146673809Y-107254819D01*
X147292857Y-108254819D02*
X147292857Y-107254819D01*
X147292857Y-107254819D02*
X147673809Y-107254819D01*
X147673809Y-107254819D02*
X147769047Y-107302438D01*
X147769047Y-107302438D02*
X147816666Y-107350057D01*
X147816666Y-107350057D02*
X147864285Y-107445295D01*
X147864285Y-107445295D02*
X147864285Y-107588152D01*
X147864285Y-107588152D02*
X147816666Y-107683390D01*
X147816666Y-107683390D02*
X147769047Y-107731009D01*
X147769047Y-107731009D02*
X147673809Y-107778628D01*
X147673809Y-107778628D02*
X147292857Y-107778628D01*
X148197619Y-107254819D02*
X148864285Y-107254819D01*
X148864285Y-107254819D02*
X148435714Y-108254819D01*
X49029819Y-107038094D02*
X49029819Y-106466666D01*
X50029819Y-106752380D02*
X49029819Y-106752380D01*
X50029819Y-106133332D02*
X49029819Y-106133332D01*
X49029819Y-106133332D02*
X49029819Y-105752380D01*
X49029819Y-105752380D02*
X49077438Y-105657142D01*
X49077438Y-105657142D02*
X49125057Y-105609523D01*
X49125057Y-105609523D02*
X49220295Y-105561904D01*
X49220295Y-105561904D02*
X49363152Y-105561904D01*
X49363152Y-105561904D02*
X49458390Y-105609523D01*
X49458390Y-105609523D02*
X49506009Y-105657142D01*
X49506009Y-105657142D02*
X49553628Y-105752380D01*
X49553628Y-105752380D02*
X49553628Y-106133332D01*
X50029819Y-104609523D02*
X50029819Y-105180951D01*
X50029819Y-104895237D02*
X49029819Y-104895237D01*
X49029819Y-104895237D02*
X49172676Y-104990475D01*
X49172676Y-104990475D02*
X49267914Y-105085713D01*
X49267914Y-105085713D02*
X49315533Y-105180951D01*
X49125057Y-104228570D02*
X49077438Y-104180951D01*
X49077438Y-104180951D02*
X49029819Y-104085713D01*
X49029819Y-104085713D02*
X49029819Y-103847618D01*
X49029819Y-103847618D02*
X49077438Y-103752380D01*
X49077438Y-103752380D02*
X49125057Y-103704761D01*
X49125057Y-103704761D02*
X49220295Y-103657142D01*
X49220295Y-103657142D02*
X49315533Y-103657142D01*
X49315533Y-103657142D02*
X49458390Y-103704761D01*
X49458390Y-103704761D02*
X50029819Y-104276189D01*
X50029819Y-104276189D02*
X50029819Y-103657142D01*
X130636905Y-106429819D02*
X131208333Y-106429819D01*
X130922619Y-107429819D02*
X130922619Y-106429819D01*
X131541667Y-107429819D02*
X131541667Y-106429819D01*
X131541667Y-106429819D02*
X131922619Y-106429819D01*
X131922619Y-106429819D02*
X132017857Y-106477438D01*
X132017857Y-106477438D02*
X132065476Y-106525057D01*
X132065476Y-106525057D02*
X132113095Y-106620295D01*
X132113095Y-106620295D02*
X132113095Y-106763152D01*
X132113095Y-106763152D02*
X132065476Y-106858390D01*
X132065476Y-106858390D02*
X132017857Y-106906009D01*
X132017857Y-106906009D02*
X131922619Y-106953628D01*
X131922619Y-106953628D02*
X131541667Y-106953628D01*
X133065476Y-107429819D02*
X132494048Y-107429819D01*
X132779762Y-107429819D02*
X132779762Y-106429819D01*
X132779762Y-106429819D02*
X132684524Y-106572676D01*
X132684524Y-106572676D02*
X132589286Y-106667914D01*
X132589286Y-106667914D02*
X132494048Y-106715533D01*
X133684524Y-106429819D02*
X133779762Y-106429819D01*
X133779762Y-106429819D02*
X133875000Y-106477438D01*
X133875000Y-106477438D02*
X133922619Y-106525057D01*
X133922619Y-106525057D02*
X133970238Y-106620295D01*
X133970238Y-106620295D02*
X134017857Y-106810771D01*
X134017857Y-106810771D02*
X134017857Y-107048866D01*
X134017857Y-107048866D02*
X133970238Y-107239342D01*
X133970238Y-107239342D02*
X133922619Y-107334580D01*
X133922619Y-107334580D02*
X133875000Y-107382200D01*
X133875000Y-107382200D02*
X133779762Y-107429819D01*
X133779762Y-107429819D02*
X133684524Y-107429819D01*
X133684524Y-107429819D02*
X133589286Y-107382200D01*
X133589286Y-107382200D02*
X133541667Y-107334580D01*
X133541667Y-107334580D02*
X133494048Y-107239342D01*
X133494048Y-107239342D02*
X133446429Y-107048866D01*
X133446429Y-107048866D02*
X133446429Y-106810771D01*
X133446429Y-106810771D02*
X133494048Y-106620295D01*
X133494048Y-106620295D02*
X133541667Y-106525057D01*
X133541667Y-106525057D02*
X133589286Y-106477438D01*
X133589286Y-106477438D02*
X133684524Y-106429819D01*
X151166666Y-109281009D02*
X150833333Y-109281009D01*
X150833333Y-109804819D02*
X150833333Y-108804819D01*
X150833333Y-108804819D02*
X151309523Y-108804819D01*
X152119047Y-109138152D02*
X152119047Y-109804819D01*
X151880952Y-108757200D02*
X151642857Y-109471485D01*
X151642857Y-109471485D02*
X152261904Y-109471485D01*
X51329819Y-125661904D02*
X51329819Y-125090476D01*
X52329819Y-125376190D02*
X51329819Y-125376190D01*
X52329819Y-124757142D02*
X51329819Y-124757142D01*
X51329819Y-124757142D02*
X51329819Y-124376190D01*
X51329819Y-124376190D02*
X51377438Y-124280952D01*
X51377438Y-124280952D02*
X51425057Y-124233333D01*
X51425057Y-124233333D02*
X51520295Y-124185714D01*
X51520295Y-124185714D02*
X51663152Y-124185714D01*
X51663152Y-124185714D02*
X51758390Y-124233333D01*
X51758390Y-124233333D02*
X51806009Y-124280952D01*
X51806009Y-124280952D02*
X51853628Y-124376190D01*
X51853628Y-124376190D02*
X51853628Y-124757142D01*
X51663152Y-123328571D02*
X52329819Y-123328571D01*
X51282200Y-123566666D02*
X51996485Y-123804761D01*
X51996485Y-123804761D02*
X51996485Y-123185714D01*
X127863095Y-107354819D02*
X128434523Y-107354819D01*
X128148809Y-108354819D02*
X128148809Y-107354819D01*
X128767857Y-108354819D02*
X128767857Y-107354819D01*
X128767857Y-107354819D02*
X129148809Y-107354819D01*
X129148809Y-107354819D02*
X129244047Y-107402438D01*
X129244047Y-107402438D02*
X129291666Y-107450057D01*
X129291666Y-107450057D02*
X129339285Y-107545295D01*
X129339285Y-107545295D02*
X129339285Y-107688152D01*
X129339285Y-107688152D02*
X129291666Y-107783390D01*
X129291666Y-107783390D02*
X129244047Y-107831009D01*
X129244047Y-107831009D02*
X129148809Y-107878628D01*
X129148809Y-107878628D02*
X128767857Y-107878628D01*
X130196428Y-107354819D02*
X130005952Y-107354819D01*
X130005952Y-107354819D02*
X129910714Y-107402438D01*
X129910714Y-107402438D02*
X129863095Y-107450057D01*
X129863095Y-107450057D02*
X129767857Y-107592914D01*
X129767857Y-107592914D02*
X129720238Y-107783390D01*
X129720238Y-107783390D02*
X129720238Y-108164342D01*
X129720238Y-108164342D02*
X129767857Y-108259580D01*
X129767857Y-108259580D02*
X129815476Y-108307200D01*
X129815476Y-108307200D02*
X129910714Y-108354819D01*
X129910714Y-108354819D02*
X130101190Y-108354819D01*
X130101190Y-108354819D02*
X130196428Y-108307200D01*
X130196428Y-108307200D02*
X130244047Y-108259580D01*
X130244047Y-108259580D02*
X130291666Y-108164342D01*
X130291666Y-108164342D02*
X130291666Y-107926247D01*
X130291666Y-107926247D02*
X130244047Y-107831009D01*
X130244047Y-107831009D02*
X130196428Y-107783390D01*
X130196428Y-107783390D02*
X130101190Y-107735771D01*
X130101190Y-107735771D02*
X129910714Y-107735771D01*
X129910714Y-107735771D02*
X129815476Y-107783390D01*
X129815476Y-107783390D02*
X129767857Y-107831009D01*
X129767857Y-107831009D02*
X129720238Y-107926247D01*
X107729819Y-141317857D02*
X107253628Y-141651190D01*
X107729819Y-141889285D02*
X106729819Y-141889285D01*
X106729819Y-141889285D02*
X106729819Y-141508333D01*
X106729819Y-141508333D02*
X106777438Y-141413095D01*
X106777438Y-141413095D02*
X106825057Y-141365476D01*
X106825057Y-141365476D02*
X106920295Y-141317857D01*
X106920295Y-141317857D02*
X107063152Y-141317857D01*
X107063152Y-141317857D02*
X107158390Y-141365476D01*
X107158390Y-141365476D02*
X107206009Y-141413095D01*
X107206009Y-141413095D02*
X107253628Y-141508333D01*
X107253628Y-141508333D02*
X107253628Y-141889285D01*
X106825057Y-140936904D02*
X106777438Y-140889285D01*
X106777438Y-140889285D02*
X106729819Y-140794047D01*
X106729819Y-140794047D02*
X106729819Y-140555952D01*
X106729819Y-140555952D02*
X106777438Y-140460714D01*
X106777438Y-140460714D02*
X106825057Y-140413095D01*
X106825057Y-140413095D02*
X106920295Y-140365476D01*
X106920295Y-140365476D02*
X107015533Y-140365476D01*
X107015533Y-140365476D02*
X107158390Y-140413095D01*
X107158390Y-140413095D02*
X107729819Y-140984523D01*
X107729819Y-140984523D02*
X107729819Y-140365476D01*
X106729819Y-139746428D02*
X106729819Y-139651190D01*
X106729819Y-139651190D02*
X106777438Y-139555952D01*
X106777438Y-139555952D02*
X106825057Y-139508333D01*
X106825057Y-139508333D02*
X106920295Y-139460714D01*
X106920295Y-139460714D02*
X107110771Y-139413095D01*
X107110771Y-139413095D02*
X107348866Y-139413095D01*
X107348866Y-139413095D02*
X107539342Y-139460714D01*
X107539342Y-139460714D02*
X107634580Y-139508333D01*
X107634580Y-139508333D02*
X107682200Y-139555952D01*
X107682200Y-139555952D02*
X107729819Y-139651190D01*
X107729819Y-139651190D02*
X107729819Y-139746428D01*
X107729819Y-139746428D02*
X107682200Y-139841666D01*
X107682200Y-139841666D02*
X107634580Y-139889285D01*
X107634580Y-139889285D02*
X107539342Y-139936904D01*
X107539342Y-139936904D02*
X107348866Y-139984523D01*
X107348866Y-139984523D02*
X107110771Y-139984523D01*
X107110771Y-139984523D02*
X106920295Y-139936904D01*
X106920295Y-139936904D02*
X106825057Y-139889285D01*
X106825057Y-139889285D02*
X106777438Y-139841666D01*
X106777438Y-139841666D02*
X106729819Y-139746428D01*
X86029819Y-145692857D02*
X85553628Y-146026190D01*
X86029819Y-146264285D02*
X85029819Y-146264285D01*
X85029819Y-146264285D02*
X85029819Y-145883333D01*
X85029819Y-145883333D02*
X85077438Y-145788095D01*
X85077438Y-145788095D02*
X85125057Y-145740476D01*
X85125057Y-145740476D02*
X85220295Y-145692857D01*
X85220295Y-145692857D02*
X85363152Y-145692857D01*
X85363152Y-145692857D02*
X85458390Y-145740476D01*
X85458390Y-145740476D02*
X85506009Y-145788095D01*
X85506009Y-145788095D02*
X85553628Y-145883333D01*
X85553628Y-145883333D02*
X85553628Y-146264285D01*
X86029819Y-144740476D02*
X86029819Y-145311904D01*
X86029819Y-145026190D02*
X85029819Y-145026190D01*
X85029819Y-145026190D02*
X85172676Y-145121428D01*
X85172676Y-145121428D02*
X85267914Y-145216666D01*
X85267914Y-145216666D02*
X85315533Y-145311904D01*
X85029819Y-143883333D02*
X85029819Y-144073809D01*
X85029819Y-144073809D02*
X85077438Y-144169047D01*
X85077438Y-144169047D02*
X85125057Y-144216666D01*
X85125057Y-144216666D02*
X85267914Y-144311904D01*
X85267914Y-144311904D02*
X85458390Y-144359523D01*
X85458390Y-144359523D02*
X85839342Y-144359523D01*
X85839342Y-144359523D02*
X85934580Y-144311904D01*
X85934580Y-144311904D02*
X85982200Y-144264285D01*
X85982200Y-144264285D02*
X86029819Y-144169047D01*
X86029819Y-144169047D02*
X86029819Y-143978571D01*
X86029819Y-143978571D02*
X85982200Y-143883333D01*
X85982200Y-143883333D02*
X85934580Y-143835714D01*
X85934580Y-143835714D02*
X85839342Y-143788095D01*
X85839342Y-143788095D02*
X85601247Y-143788095D01*
X85601247Y-143788095D02*
X85506009Y-143835714D01*
X85506009Y-143835714D02*
X85458390Y-143883333D01*
X85458390Y-143883333D02*
X85410771Y-143978571D01*
X85410771Y-143978571D02*
X85410771Y-144169047D01*
X85410771Y-144169047D02*
X85458390Y-144264285D01*
X85458390Y-144264285D02*
X85506009Y-144311904D01*
X85506009Y-144311904D02*
X85601247Y-144359523D01*
X81554819Y-112142857D02*
X81078628Y-112476190D01*
X81554819Y-112714285D02*
X80554819Y-112714285D01*
X80554819Y-112714285D02*
X80554819Y-112333333D01*
X80554819Y-112333333D02*
X80602438Y-112238095D01*
X80602438Y-112238095D02*
X80650057Y-112190476D01*
X80650057Y-112190476D02*
X80745295Y-112142857D01*
X80745295Y-112142857D02*
X80888152Y-112142857D01*
X80888152Y-112142857D02*
X80983390Y-112190476D01*
X80983390Y-112190476D02*
X81031009Y-112238095D01*
X81031009Y-112238095D02*
X81078628Y-112333333D01*
X81078628Y-112333333D02*
X81078628Y-112714285D01*
X80650057Y-111761904D02*
X80602438Y-111714285D01*
X80602438Y-111714285D02*
X80554819Y-111619047D01*
X80554819Y-111619047D02*
X80554819Y-111380952D01*
X80554819Y-111380952D02*
X80602438Y-111285714D01*
X80602438Y-111285714D02*
X80650057Y-111238095D01*
X80650057Y-111238095D02*
X80745295Y-111190476D01*
X80745295Y-111190476D02*
X80840533Y-111190476D01*
X80840533Y-111190476D02*
X80983390Y-111238095D01*
X80983390Y-111238095D02*
X81554819Y-111809523D01*
X81554819Y-111809523D02*
X81554819Y-111190476D01*
X81554819Y-110714285D02*
X81554819Y-110523809D01*
X81554819Y-110523809D02*
X81507200Y-110428571D01*
X81507200Y-110428571D02*
X81459580Y-110380952D01*
X81459580Y-110380952D02*
X81316723Y-110285714D01*
X81316723Y-110285714D02*
X81126247Y-110238095D01*
X81126247Y-110238095D02*
X80745295Y-110238095D01*
X80745295Y-110238095D02*
X80650057Y-110285714D01*
X80650057Y-110285714D02*
X80602438Y-110333333D01*
X80602438Y-110333333D02*
X80554819Y-110428571D01*
X80554819Y-110428571D02*
X80554819Y-110619047D01*
X80554819Y-110619047D02*
X80602438Y-110714285D01*
X80602438Y-110714285D02*
X80650057Y-110761904D01*
X80650057Y-110761904D02*
X80745295Y-110809523D01*
X80745295Y-110809523D02*
X80983390Y-110809523D01*
X80983390Y-110809523D02*
X81078628Y-110761904D01*
X81078628Y-110761904D02*
X81126247Y-110714285D01*
X81126247Y-110714285D02*
X81173866Y-110619047D01*
X81173866Y-110619047D02*
X81173866Y-110428571D01*
X81173866Y-110428571D02*
X81126247Y-110333333D01*
X81126247Y-110333333D02*
X81078628Y-110285714D01*
X81078628Y-110285714D02*
X80983390Y-110238095D01*
X171754819Y-135317857D02*
X171278628Y-135651190D01*
X171754819Y-135889285D02*
X170754819Y-135889285D01*
X170754819Y-135889285D02*
X170754819Y-135508333D01*
X170754819Y-135508333D02*
X170802438Y-135413095D01*
X170802438Y-135413095D02*
X170850057Y-135365476D01*
X170850057Y-135365476D02*
X170945295Y-135317857D01*
X170945295Y-135317857D02*
X171088152Y-135317857D01*
X171088152Y-135317857D02*
X171183390Y-135365476D01*
X171183390Y-135365476D02*
X171231009Y-135413095D01*
X171231009Y-135413095D02*
X171278628Y-135508333D01*
X171278628Y-135508333D02*
X171278628Y-135889285D01*
X171754819Y-134365476D02*
X171754819Y-134936904D01*
X171754819Y-134651190D02*
X170754819Y-134651190D01*
X170754819Y-134651190D02*
X170897676Y-134746428D01*
X170897676Y-134746428D02*
X170992914Y-134841666D01*
X170992914Y-134841666D02*
X171040533Y-134936904D01*
X170754819Y-134032142D02*
X170754819Y-133365476D01*
X170754819Y-133365476D02*
X171754819Y-133794047D01*
X109504819Y-118016666D02*
X109028628Y-118349999D01*
X109504819Y-118588094D02*
X108504819Y-118588094D01*
X108504819Y-118588094D02*
X108504819Y-118207142D01*
X108504819Y-118207142D02*
X108552438Y-118111904D01*
X108552438Y-118111904D02*
X108600057Y-118064285D01*
X108600057Y-118064285D02*
X108695295Y-118016666D01*
X108695295Y-118016666D02*
X108838152Y-118016666D01*
X108838152Y-118016666D02*
X108933390Y-118064285D01*
X108933390Y-118064285D02*
X108981009Y-118111904D01*
X108981009Y-118111904D02*
X109028628Y-118207142D01*
X109028628Y-118207142D02*
X109028628Y-118588094D01*
X109504819Y-117064285D02*
X109504819Y-117635713D01*
X109504819Y-117349999D02*
X108504819Y-117349999D01*
X108504819Y-117349999D02*
X108647676Y-117445237D01*
X108647676Y-117445237D02*
X108742914Y-117540475D01*
X108742914Y-117540475D02*
X108790533Y-117635713D01*
X52229819Y-114666666D02*
X51753628Y-114999999D01*
X52229819Y-115238094D02*
X51229819Y-115238094D01*
X51229819Y-115238094D02*
X51229819Y-114857142D01*
X51229819Y-114857142D02*
X51277438Y-114761904D01*
X51277438Y-114761904D02*
X51325057Y-114714285D01*
X51325057Y-114714285D02*
X51420295Y-114666666D01*
X51420295Y-114666666D02*
X51563152Y-114666666D01*
X51563152Y-114666666D02*
X51658390Y-114714285D01*
X51658390Y-114714285D02*
X51706009Y-114761904D01*
X51706009Y-114761904D02*
X51753628Y-114857142D01*
X51753628Y-114857142D02*
X51753628Y-115238094D01*
X51658390Y-114095237D02*
X51610771Y-114190475D01*
X51610771Y-114190475D02*
X51563152Y-114238094D01*
X51563152Y-114238094D02*
X51467914Y-114285713D01*
X51467914Y-114285713D02*
X51420295Y-114285713D01*
X51420295Y-114285713D02*
X51325057Y-114238094D01*
X51325057Y-114238094D02*
X51277438Y-114190475D01*
X51277438Y-114190475D02*
X51229819Y-114095237D01*
X51229819Y-114095237D02*
X51229819Y-113904761D01*
X51229819Y-113904761D02*
X51277438Y-113809523D01*
X51277438Y-113809523D02*
X51325057Y-113761904D01*
X51325057Y-113761904D02*
X51420295Y-113714285D01*
X51420295Y-113714285D02*
X51467914Y-113714285D01*
X51467914Y-113714285D02*
X51563152Y-113761904D01*
X51563152Y-113761904D02*
X51610771Y-113809523D01*
X51610771Y-113809523D02*
X51658390Y-113904761D01*
X51658390Y-113904761D02*
X51658390Y-114095237D01*
X51658390Y-114095237D02*
X51706009Y-114190475D01*
X51706009Y-114190475D02*
X51753628Y-114238094D01*
X51753628Y-114238094D02*
X51848866Y-114285713D01*
X51848866Y-114285713D02*
X52039342Y-114285713D01*
X52039342Y-114285713D02*
X52134580Y-114238094D01*
X52134580Y-114238094D02*
X52182200Y-114190475D01*
X52182200Y-114190475D02*
X52229819Y-114095237D01*
X52229819Y-114095237D02*
X52229819Y-113904761D01*
X52229819Y-113904761D02*
X52182200Y-113809523D01*
X52182200Y-113809523D02*
X52134580Y-113761904D01*
X52134580Y-113761904D02*
X52039342Y-113714285D01*
X52039342Y-113714285D02*
X51848866Y-113714285D01*
X51848866Y-113714285D02*
X51753628Y-113761904D01*
X51753628Y-113761904D02*
X51706009Y-113809523D01*
X51706009Y-113809523D02*
X51658390Y-113904761D01*
X151859580Y-124304166D02*
X151907200Y-124351785D01*
X151907200Y-124351785D02*
X151954819Y-124494642D01*
X151954819Y-124494642D02*
X151954819Y-124589880D01*
X151954819Y-124589880D02*
X151907200Y-124732737D01*
X151907200Y-124732737D02*
X151811961Y-124827975D01*
X151811961Y-124827975D02*
X151716723Y-124875594D01*
X151716723Y-124875594D02*
X151526247Y-124923213D01*
X151526247Y-124923213D02*
X151383390Y-124923213D01*
X151383390Y-124923213D02*
X151192914Y-124875594D01*
X151192914Y-124875594D02*
X151097676Y-124827975D01*
X151097676Y-124827975D02*
X151002438Y-124732737D01*
X151002438Y-124732737D02*
X150954819Y-124589880D01*
X150954819Y-124589880D02*
X150954819Y-124494642D01*
X150954819Y-124494642D02*
X151002438Y-124351785D01*
X151002438Y-124351785D02*
X151050057Y-124304166D01*
X151050057Y-123923213D02*
X151002438Y-123875594D01*
X151002438Y-123875594D02*
X150954819Y-123780356D01*
X150954819Y-123780356D02*
X150954819Y-123542261D01*
X150954819Y-123542261D02*
X151002438Y-123447023D01*
X151002438Y-123447023D02*
X151050057Y-123399404D01*
X151050057Y-123399404D02*
X151145295Y-123351785D01*
X151145295Y-123351785D02*
X151240533Y-123351785D01*
X151240533Y-123351785D02*
X151383390Y-123399404D01*
X151383390Y-123399404D02*
X151954819Y-123970832D01*
X151954819Y-123970832D02*
X151954819Y-123351785D01*
X76554819Y-112117857D02*
X76078628Y-112451190D01*
X76554819Y-112689285D02*
X75554819Y-112689285D01*
X75554819Y-112689285D02*
X75554819Y-112308333D01*
X75554819Y-112308333D02*
X75602438Y-112213095D01*
X75602438Y-112213095D02*
X75650057Y-112165476D01*
X75650057Y-112165476D02*
X75745295Y-112117857D01*
X75745295Y-112117857D02*
X75888152Y-112117857D01*
X75888152Y-112117857D02*
X75983390Y-112165476D01*
X75983390Y-112165476D02*
X76031009Y-112213095D01*
X76031009Y-112213095D02*
X76078628Y-112308333D01*
X76078628Y-112308333D02*
X76078628Y-112689285D01*
X75650057Y-111736904D02*
X75602438Y-111689285D01*
X75602438Y-111689285D02*
X75554819Y-111594047D01*
X75554819Y-111594047D02*
X75554819Y-111355952D01*
X75554819Y-111355952D02*
X75602438Y-111260714D01*
X75602438Y-111260714D02*
X75650057Y-111213095D01*
X75650057Y-111213095D02*
X75745295Y-111165476D01*
X75745295Y-111165476D02*
X75840533Y-111165476D01*
X75840533Y-111165476D02*
X75983390Y-111213095D01*
X75983390Y-111213095D02*
X76554819Y-111784523D01*
X76554819Y-111784523D02*
X76554819Y-111165476D01*
X75554819Y-110832142D02*
X75554819Y-110165476D01*
X75554819Y-110165476D02*
X76554819Y-110594047D01*
X147579819Y-117766666D02*
X147103628Y-118099999D01*
X147579819Y-118338094D02*
X146579819Y-118338094D01*
X146579819Y-118338094D02*
X146579819Y-117957142D01*
X146579819Y-117957142D02*
X146627438Y-117861904D01*
X146627438Y-117861904D02*
X146675057Y-117814285D01*
X146675057Y-117814285D02*
X146770295Y-117766666D01*
X146770295Y-117766666D02*
X146913152Y-117766666D01*
X146913152Y-117766666D02*
X147008390Y-117814285D01*
X147008390Y-117814285D02*
X147056009Y-117861904D01*
X147056009Y-117861904D02*
X147103628Y-117957142D01*
X147103628Y-117957142D02*
X147103628Y-118338094D01*
X146579819Y-116861904D02*
X146579819Y-117338094D01*
X146579819Y-117338094D02*
X147056009Y-117385713D01*
X147056009Y-117385713D02*
X147008390Y-117338094D01*
X147008390Y-117338094D02*
X146960771Y-117242856D01*
X146960771Y-117242856D02*
X146960771Y-117004761D01*
X146960771Y-117004761D02*
X147008390Y-116909523D01*
X147008390Y-116909523D02*
X147056009Y-116861904D01*
X147056009Y-116861904D02*
X147151247Y-116814285D01*
X147151247Y-116814285D02*
X147389342Y-116814285D01*
X147389342Y-116814285D02*
X147484580Y-116861904D01*
X147484580Y-116861904D02*
X147532200Y-116909523D01*
X147532200Y-116909523D02*
X147579819Y-117004761D01*
X147579819Y-117004761D02*
X147579819Y-117242856D01*
X147579819Y-117242856D02*
X147532200Y-117338094D01*
X147532200Y-117338094D02*
X147484580Y-117385713D01*
X137804819Y-114091666D02*
X137328628Y-114424999D01*
X137804819Y-114663094D02*
X136804819Y-114663094D01*
X136804819Y-114663094D02*
X136804819Y-114282142D01*
X136804819Y-114282142D02*
X136852438Y-114186904D01*
X136852438Y-114186904D02*
X136900057Y-114139285D01*
X136900057Y-114139285D02*
X136995295Y-114091666D01*
X136995295Y-114091666D02*
X137138152Y-114091666D01*
X137138152Y-114091666D02*
X137233390Y-114139285D01*
X137233390Y-114139285D02*
X137281009Y-114186904D01*
X137281009Y-114186904D02*
X137328628Y-114282142D01*
X137328628Y-114282142D02*
X137328628Y-114663094D01*
X137138152Y-113234523D02*
X137804819Y-113234523D01*
X136757200Y-113472618D02*
X137471485Y-113710713D01*
X137471485Y-113710713D02*
X137471485Y-113091666D01*
X136979819Y-145692857D02*
X136503628Y-146026190D01*
X136979819Y-146264285D02*
X135979819Y-146264285D01*
X135979819Y-146264285D02*
X135979819Y-145883333D01*
X135979819Y-145883333D02*
X136027438Y-145788095D01*
X136027438Y-145788095D02*
X136075057Y-145740476D01*
X136075057Y-145740476D02*
X136170295Y-145692857D01*
X136170295Y-145692857D02*
X136313152Y-145692857D01*
X136313152Y-145692857D02*
X136408390Y-145740476D01*
X136408390Y-145740476D02*
X136456009Y-145788095D01*
X136456009Y-145788095D02*
X136503628Y-145883333D01*
X136503628Y-145883333D02*
X136503628Y-146264285D01*
X136979819Y-144740476D02*
X136979819Y-145311904D01*
X136979819Y-145026190D02*
X135979819Y-145026190D01*
X135979819Y-145026190D02*
X136122676Y-145121428D01*
X136122676Y-145121428D02*
X136217914Y-145216666D01*
X136217914Y-145216666D02*
X136265533Y-145311904D01*
X135979819Y-144121428D02*
X135979819Y-144026190D01*
X135979819Y-144026190D02*
X136027438Y-143930952D01*
X136027438Y-143930952D02*
X136075057Y-143883333D01*
X136075057Y-143883333D02*
X136170295Y-143835714D01*
X136170295Y-143835714D02*
X136360771Y-143788095D01*
X136360771Y-143788095D02*
X136598866Y-143788095D01*
X136598866Y-143788095D02*
X136789342Y-143835714D01*
X136789342Y-143835714D02*
X136884580Y-143883333D01*
X136884580Y-143883333D02*
X136932200Y-143930952D01*
X136932200Y-143930952D02*
X136979819Y-144026190D01*
X136979819Y-144026190D02*
X136979819Y-144121428D01*
X136979819Y-144121428D02*
X136932200Y-144216666D01*
X136932200Y-144216666D02*
X136884580Y-144264285D01*
X136884580Y-144264285D02*
X136789342Y-144311904D01*
X136789342Y-144311904D02*
X136598866Y-144359523D01*
X136598866Y-144359523D02*
X136360771Y-144359523D01*
X136360771Y-144359523D02*
X136170295Y-144311904D01*
X136170295Y-144311904D02*
X136075057Y-144264285D01*
X136075057Y-144264285D02*
X136027438Y-144216666D01*
X136027438Y-144216666D02*
X135979819Y-144121428D01*
D11*
X53761667Y-92168318D02*
X53761667Y-93075461D01*
X53761667Y-93075461D02*
X53701190Y-93256889D01*
X53701190Y-93256889D02*
X53580238Y-93377842D01*
X53580238Y-93377842D02*
X53398809Y-93438318D01*
X53398809Y-93438318D02*
X53277857Y-93438318D01*
X55031667Y-93438318D02*
X54305952Y-93438318D01*
X54668809Y-93438318D02*
X54668809Y-92168318D01*
X54668809Y-92168318D02*
X54547857Y-92349746D01*
X54547857Y-92349746D02*
X54426905Y-92470699D01*
X54426905Y-92470699D02*
X54305952Y-92531175D01*
D12*
X85854819Y-153417857D02*
X85378628Y-153751190D01*
X85854819Y-153989285D02*
X84854819Y-153989285D01*
X84854819Y-153989285D02*
X84854819Y-153608333D01*
X84854819Y-153608333D02*
X84902438Y-153513095D01*
X84902438Y-153513095D02*
X84950057Y-153465476D01*
X84950057Y-153465476D02*
X85045295Y-153417857D01*
X85045295Y-153417857D02*
X85188152Y-153417857D01*
X85188152Y-153417857D02*
X85283390Y-153465476D01*
X85283390Y-153465476D02*
X85331009Y-153513095D01*
X85331009Y-153513095D02*
X85378628Y-153608333D01*
X85378628Y-153608333D02*
X85378628Y-153989285D01*
X85854819Y-152465476D02*
X85854819Y-153036904D01*
X85854819Y-152751190D02*
X84854819Y-152751190D01*
X84854819Y-152751190D02*
X84997676Y-152846428D01*
X84997676Y-152846428D02*
X85092914Y-152941666D01*
X85092914Y-152941666D02*
X85140533Y-153036904D01*
X84854819Y-151560714D02*
X84854819Y-152036904D01*
X84854819Y-152036904D02*
X85331009Y-152084523D01*
X85331009Y-152084523D02*
X85283390Y-152036904D01*
X85283390Y-152036904D02*
X85235771Y-151941666D01*
X85235771Y-151941666D02*
X85235771Y-151703571D01*
X85235771Y-151703571D02*
X85283390Y-151608333D01*
X85283390Y-151608333D02*
X85331009Y-151560714D01*
X85331009Y-151560714D02*
X85426247Y-151513095D01*
X85426247Y-151513095D02*
X85664342Y-151513095D01*
X85664342Y-151513095D02*
X85759580Y-151560714D01*
X85759580Y-151560714D02*
X85807200Y-151608333D01*
X85807200Y-151608333D02*
X85854819Y-151703571D01*
X85854819Y-151703571D02*
X85854819Y-151941666D01*
X85854819Y-151941666D02*
X85807200Y-152036904D01*
X85807200Y-152036904D02*
X85759580Y-152084523D01*
X169289580Y-128791666D02*
X169337200Y-128839285D01*
X169337200Y-128839285D02*
X169384819Y-128982142D01*
X169384819Y-128982142D02*
X169384819Y-129077380D01*
X169384819Y-129077380D02*
X169337200Y-129220237D01*
X169337200Y-129220237D02*
X169241961Y-129315475D01*
X169241961Y-129315475D02*
X169146723Y-129363094D01*
X169146723Y-129363094D02*
X168956247Y-129410713D01*
X168956247Y-129410713D02*
X168813390Y-129410713D01*
X168813390Y-129410713D02*
X168622914Y-129363094D01*
X168622914Y-129363094D02*
X168527676Y-129315475D01*
X168527676Y-129315475D02*
X168432438Y-129220237D01*
X168432438Y-129220237D02*
X168384819Y-129077380D01*
X168384819Y-129077380D02*
X168384819Y-128982142D01*
X168384819Y-128982142D02*
X168432438Y-128839285D01*
X168432438Y-128839285D02*
X168480057Y-128791666D01*
X169384819Y-127839285D02*
X169384819Y-128410713D01*
X169384819Y-128124999D02*
X168384819Y-128124999D01*
X168384819Y-128124999D02*
X168527676Y-128220237D01*
X168527676Y-128220237D02*
X168622914Y-128315475D01*
X168622914Y-128315475D02*
X168670533Y-128410713D01*
X106714104Y-134009285D02*
X106714104Y-133533095D01*
X106999819Y-134104523D02*
X105999819Y-133771190D01*
X105999819Y-133771190D02*
X106999819Y-133437857D01*
X106999819Y-132580714D02*
X106999819Y-133152142D01*
X106999819Y-132866428D02*
X105999819Y-132866428D01*
X105999819Y-132866428D02*
X106142676Y-132961666D01*
X106142676Y-132961666D02*
X106237914Y-133056904D01*
X106237914Y-133056904D02*
X106285533Y-133152142D01*
X97676904Y-95080180D02*
X97676904Y-94270657D01*
X97676904Y-94270657D02*
X97629285Y-94175419D01*
X97629285Y-94175419D02*
X97581666Y-94127800D01*
X97581666Y-94127800D02*
X97486428Y-94080180D01*
X97486428Y-94080180D02*
X97295952Y-94080180D01*
X97295952Y-94080180D02*
X97200714Y-94127800D01*
X97200714Y-94127800D02*
X97153095Y-94175419D01*
X97153095Y-94175419D02*
X97105476Y-94270657D01*
X97105476Y-94270657D02*
X97105476Y-95080180D01*
X96676904Y-94127800D02*
X96534047Y-94080180D01*
X96534047Y-94080180D02*
X96295952Y-94080180D01*
X96295952Y-94080180D02*
X96200714Y-94127800D01*
X96200714Y-94127800D02*
X96153095Y-94175419D01*
X96153095Y-94175419D02*
X96105476Y-94270657D01*
X96105476Y-94270657D02*
X96105476Y-94365895D01*
X96105476Y-94365895D02*
X96153095Y-94461133D01*
X96153095Y-94461133D02*
X96200714Y-94508752D01*
X96200714Y-94508752D02*
X96295952Y-94556371D01*
X96295952Y-94556371D02*
X96486428Y-94603990D01*
X96486428Y-94603990D02*
X96581666Y-94651609D01*
X96581666Y-94651609D02*
X96629285Y-94699228D01*
X96629285Y-94699228D02*
X96676904Y-94794466D01*
X96676904Y-94794466D02*
X96676904Y-94889704D01*
X96676904Y-94889704D02*
X96629285Y-94984942D01*
X96629285Y-94984942D02*
X96581666Y-95032561D01*
X96581666Y-95032561D02*
X96486428Y-95080180D01*
X96486428Y-95080180D02*
X96248333Y-95080180D01*
X96248333Y-95080180D02*
X96105476Y-95032561D01*
X95343571Y-94603990D02*
X95200714Y-94556371D01*
X95200714Y-94556371D02*
X95153095Y-94508752D01*
X95153095Y-94508752D02*
X95105476Y-94413514D01*
X95105476Y-94413514D02*
X95105476Y-94270657D01*
X95105476Y-94270657D02*
X95153095Y-94175419D01*
X95153095Y-94175419D02*
X95200714Y-94127800D01*
X95200714Y-94127800D02*
X95295952Y-94080180D01*
X95295952Y-94080180D02*
X95676904Y-94080180D01*
X95676904Y-94080180D02*
X95676904Y-95080180D01*
X95676904Y-95080180D02*
X95343571Y-95080180D01*
X95343571Y-95080180D02*
X95248333Y-95032561D01*
X95248333Y-95032561D02*
X95200714Y-94984942D01*
X95200714Y-94984942D02*
X95153095Y-94889704D01*
X95153095Y-94889704D02*
X95153095Y-94794466D01*
X95153095Y-94794466D02*
X95200714Y-94699228D01*
X95200714Y-94699228D02*
X95248333Y-94651609D01*
X95248333Y-94651609D02*
X95343571Y-94603990D01*
X95343571Y-94603990D02*
X95676904Y-94603990D01*
D11*
X116629047Y-118320270D02*
X116508095Y-118259794D01*
X116508095Y-118259794D02*
X116387142Y-118138842D01*
X116387142Y-118138842D02*
X116205714Y-117957413D01*
X116205714Y-117957413D02*
X116084761Y-117896937D01*
X116084761Y-117896937D02*
X115963809Y-117896937D01*
X116024285Y-118199318D02*
X115903333Y-118138842D01*
X115903333Y-118138842D02*
X115782380Y-118017889D01*
X115782380Y-118017889D02*
X115721904Y-117775984D01*
X115721904Y-117775984D02*
X115721904Y-117352651D01*
X115721904Y-117352651D02*
X115782380Y-117110746D01*
X115782380Y-117110746D02*
X115903333Y-116989794D01*
X115903333Y-116989794D02*
X116024285Y-116929318D01*
X116024285Y-116929318D02*
X116266190Y-116929318D01*
X116266190Y-116929318D02*
X116387142Y-116989794D01*
X116387142Y-116989794D02*
X116508095Y-117110746D01*
X116508095Y-117110746D02*
X116568571Y-117352651D01*
X116568571Y-117352651D02*
X116568571Y-117775984D01*
X116568571Y-117775984D02*
X116508095Y-118017889D01*
X116508095Y-118017889D02*
X116387142Y-118138842D01*
X116387142Y-118138842D02*
X116266190Y-118199318D01*
X116266190Y-118199318D02*
X116024285Y-118199318D01*
X117778095Y-118199318D02*
X117052380Y-118199318D01*
X117415237Y-118199318D02*
X117415237Y-116929318D01*
X117415237Y-116929318D02*
X117294285Y-117110746D01*
X117294285Y-117110746D02*
X117173333Y-117231699D01*
X117173333Y-117231699D02*
X117052380Y-117292175D01*
D12*
X153754819Y-153367857D02*
X153278628Y-153701190D01*
X153754819Y-153939285D02*
X152754819Y-153939285D01*
X152754819Y-153939285D02*
X152754819Y-153558333D01*
X152754819Y-153558333D02*
X152802438Y-153463095D01*
X152802438Y-153463095D02*
X152850057Y-153415476D01*
X152850057Y-153415476D02*
X152945295Y-153367857D01*
X152945295Y-153367857D02*
X153088152Y-153367857D01*
X153088152Y-153367857D02*
X153183390Y-153415476D01*
X153183390Y-153415476D02*
X153231009Y-153463095D01*
X153231009Y-153463095D02*
X153278628Y-153558333D01*
X153278628Y-153558333D02*
X153278628Y-153939285D01*
X153754819Y-152415476D02*
X153754819Y-152986904D01*
X153754819Y-152701190D02*
X152754819Y-152701190D01*
X152754819Y-152701190D02*
X152897676Y-152796428D01*
X152897676Y-152796428D02*
X152992914Y-152891666D01*
X152992914Y-152891666D02*
X153040533Y-152986904D01*
X153754819Y-151463095D02*
X153754819Y-152034523D01*
X153754819Y-151748809D02*
X152754819Y-151748809D01*
X152754819Y-151748809D02*
X152897676Y-151844047D01*
X152897676Y-151844047D02*
X152992914Y-151939285D01*
X152992914Y-151939285D02*
X153040533Y-152034523D01*
X84329819Y-112142857D02*
X83853628Y-112476190D01*
X84329819Y-112714285D02*
X83329819Y-112714285D01*
X83329819Y-112714285D02*
X83329819Y-112333333D01*
X83329819Y-112333333D02*
X83377438Y-112238095D01*
X83377438Y-112238095D02*
X83425057Y-112190476D01*
X83425057Y-112190476D02*
X83520295Y-112142857D01*
X83520295Y-112142857D02*
X83663152Y-112142857D01*
X83663152Y-112142857D02*
X83758390Y-112190476D01*
X83758390Y-112190476D02*
X83806009Y-112238095D01*
X83806009Y-112238095D02*
X83853628Y-112333333D01*
X83853628Y-112333333D02*
X83853628Y-112714285D01*
X83425057Y-111761904D02*
X83377438Y-111714285D01*
X83377438Y-111714285D02*
X83329819Y-111619047D01*
X83329819Y-111619047D02*
X83329819Y-111380952D01*
X83329819Y-111380952D02*
X83377438Y-111285714D01*
X83377438Y-111285714D02*
X83425057Y-111238095D01*
X83425057Y-111238095D02*
X83520295Y-111190476D01*
X83520295Y-111190476D02*
X83615533Y-111190476D01*
X83615533Y-111190476D02*
X83758390Y-111238095D01*
X83758390Y-111238095D02*
X84329819Y-111809523D01*
X84329819Y-111809523D02*
X84329819Y-111190476D01*
X83758390Y-110619047D02*
X83710771Y-110714285D01*
X83710771Y-110714285D02*
X83663152Y-110761904D01*
X83663152Y-110761904D02*
X83567914Y-110809523D01*
X83567914Y-110809523D02*
X83520295Y-110809523D01*
X83520295Y-110809523D02*
X83425057Y-110761904D01*
X83425057Y-110761904D02*
X83377438Y-110714285D01*
X83377438Y-110714285D02*
X83329819Y-110619047D01*
X83329819Y-110619047D02*
X83329819Y-110428571D01*
X83329819Y-110428571D02*
X83377438Y-110333333D01*
X83377438Y-110333333D02*
X83425057Y-110285714D01*
X83425057Y-110285714D02*
X83520295Y-110238095D01*
X83520295Y-110238095D02*
X83567914Y-110238095D01*
X83567914Y-110238095D02*
X83663152Y-110285714D01*
X83663152Y-110285714D02*
X83710771Y-110333333D01*
X83710771Y-110333333D02*
X83758390Y-110428571D01*
X83758390Y-110428571D02*
X83758390Y-110619047D01*
X83758390Y-110619047D02*
X83806009Y-110714285D01*
X83806009Y-110714285D02*
X83853628Y-110761904D01*
X83853628Y-110761904D02*
X83948866Y-110809523D01*
X83948866Y-110809523D02*
X84139342Y-110809523D01*
X84139342Y-110809523D02*
X84234580Y-110761904D01*
X84234580Y-110761904D02*
X84282200Y-110714285D01*
X84282200Y-110714285D02*
X84329819Y-110619047D01*
X84329819Y-110619047D02*
X84329819Y-110428571D01*
X84329819Y-110428571D02*
X84282200Y-110333333D01*
X84282200Y-110333333D02*
X84234580Y-110285714D01*
X84234580Y-110285714D02*
X84139342Y-110238095D01*
X84139342Y-110238095D02*
X83948866Y-110238095D01*
X83948866Y-110238095D02*
X83853628Y-110285714D01*
X83853628Y-110285714D02*
X83806009Y-110333333D01*
X83806009Y-110333333D02*
X83758390Y-110428571D01*
D11*
X136254318Y-98773332D02*
X137161461Y-98773332D01*
X137161461Y-98773332D02*
X137342889Y-98833809D01*
X137342889Y-98833809D02*
X137463842Y-98954761D01*
X137463842Y-98954761D02*
X137524318Y-99136190D01*
X137524318Y-99136190D02*
X137524318Y-99257142D01*
X136254318Y-98289523D02*
X136254318Y-97503332D01*
X136254318Y-97503332D02*
X136738127Y-97926666D01*
X136738127Y-97926666D02*
X136738127Y-97745237D01*
X136738127Y-97745237D02*
X136798603Y-97624285D01*
X136798603Y-97624285D02*
X136859080Y-97563809D01*
X136859080Y-97563809D02*
X136980032Y-97503332D01*
X136980032Y-97503332D02*
X137282413Y-97503332D01*
X137282413Y-97503332D02*
X137403365Y-97563809D01*
X137403365Y-97563809D02*
X137463842Y-97624285D01*
X137463842Y-97624285D02*
X137524318Y-97745237D01*
X137524318Y-97745237D02*
X137524318Y-98108094D01*
X137524318Y-98108094D02*
X137463842Y-98229047D01*
X137463842Y-98229047D02*
X137403365Y-98289523D01*
D12*
X110604819Y-122511904D02*
X110604819Y-121940476D01*
X111604819Y-122226190D02*
X110604819Y-122226190D01*
X111604819Y-121607142D02*
X110604819Y-121607142D01*
X110604819Y-121607142D02*
X110604819Y-121226190D01*
X110604819Y-121226190D02*
X110652438Y-121130952D01*
X110652438Y-121130952D02*
X110700057Y-121083333D01*
X110700057Y-121083333D02*
X110795295Y-121035714D01*
X110795295Y-121035714D02*
X110938152Y-121035714D01*
X110938152Y-121035714D02*
X111033390Y-121083333D01*
X111033390Y-121083333D02*
X111081009Y-121130952D01*
X111081009Y-121130952D02*
X111128628Y-121226190D01*
X111128628Y-121226190D02*
X111128628Y-121607142D01*
X111604819Y-120083333D02*
X111604819Y-120654761D01*
X111604819Y-120369047D02*
X110604819Y-120369047D01*
X110604819Y-120369047D02*
X110747676Y-120464285D01*
X110747676Y-120464285D02*
X110842914Y-120559523D01*
X110842914Y-120559523D02*
X110890533Y-120654761D01*
X124729819Y-141342857D02*
X124253628Y-141676190D01*
X124729819Y-141914285D02*
X123729819Y-141914285D01*
X123729819Y-141914285D02*
X123729819Y-141533333D01*
X123729819Y-141533333D02*
X123777438Y-141438095D01*
X123777438Y-141438095D02*
X123825057Y-141390476D01*
X123825057Y-141390476D02*
X123920295Y-141342857D01*
X123920295Y-141342857D02*
X124063152Y-141342857D01*
X124063152Y-141342857D02*
X124158390Y-141390476D01*
X124158390Y-141390476D02*
X124206009Y-141438095D01*
X124206009Y-141438095D02*
X124253628Y-141533333D01*
X124253628Y-141533333D02*
X124253628Y-141914285D01*
X123825057Y-140961904D02*
X123777438Y-140914285D01*
X123777438Y-140914285D02*
X123729819Y-140819047D01*
X123729819Y-140819047D02*
X123729819Y-140580952D01*
X123729819Y-140580952D02*
X123777438Y-140485714D01*
X123777438Y-140485714D02*
X123825057Y-140438095D01*
X123825057Y-140438095D02*
X123920295Y-140390476D01*
X123920295Y-140390476D02*
X124015533Y-140390476D01*
X124015533Y-140390476D02*
X124158390Y-140438095D01*
X124158390Y-140438095D02*
X124729819Y-141009523D01*
X124729819Y-141009523D02*
X124729819Y-140390476D01*
X124729819Y-139438095D02*
X124729819Y-140009523D01*
X124729819Y-139723809D02*
X123729819Y-139723809D01*
X123729819Y-139723809D02*
X123872676Y-139819047D01*
X123872676Y-139819047D02*
X123967914Y-139914285D01*
X123967914Y-139914285D02*
X124015533Y-140009523D01*
X103029819Y-145667857D02*
X102553628Y-146001190D01*
X103029819Y-146239285D02*
X102029819Y-146239285D01*
X102029819Y-146239285D02*
X102029819Y-145858333D01*
X102029819Y-145858333D02*
X102077438Y-145763095D01*
X102077438Y-145763095D02*
X102125057Y-145715476D01*
X102125057Y-145715476D02*
X102220295Y-145667857D01*
X102220295Y-145667857D02*
X102363152Y-145667857D01*
X102363152Y-145667857D02*
X102458390Y-145715476D01*
X102458390Y-145715476D02*
X102506009Y-145763095D01*
X102506009Y-145763095D02*
X102553628Y-145858333D01*
X102553628Y-145858333D02*
X102553628Y-146239285D01*
X102125057Y-145286904D02*
X102077438Y-145239285D01*
X102077438Y-145239285D02*
X102029819Y-145144047D01*
X102029819Y-145144047D02*
X102029819Y-144905952D01*
X102029819Y-144905952D02*
X102077438Y-144810714D01*
X102077438Y-144810714D02*
X102125057Y-144763095D01*
X102125057Y-144763095D02*
X102220295Y-144715476D01*
X102220295Y-144715476D02*
X102315533Y-144715476D01*
X102315533Y-144715476D02*
X102458390Y-144763095D01*
X102458390Y-144763095D02*
X103029819Y-145334523D01*
X103029819Y-145334523D02*
X103029819Y-144715476D01*
X102029819Y-143810714D02*
X102029819Y-144286904D01*
X102029819Y-144286904D02*
X102506009Y-144334523D01*
X102506009Y-144334523D02*
X102458390Y-144286904D01*
X102458390Y-144286904D02*
X102410771Y-144191666D01*
X102410771Y-144191666D02*
X102410771Y-143953571D01*
X102410771Y-143953571D02*
X102458390Y-143858333D01*
X102458390Y-143858333D02*
X102506009Y-143810714D01*
X102506009Y-143810714D02*
X102601247Y-143763095D01*
X102601247Y-143763095D02*
X102839342Y-143763095D01*
X102839342Y-143763095D02*
X102934580Y-143810714D01*
X102934580Y-143810714D02*
X102982200Y-143858333D01*
X102982200Y-143858333D02*
X103029819Y-143953571D01*
X103029819Y-143953571D02*
X103029819Y-144191666D01*
X103029819Y-144191666D02*
X102982200Y-144286904D01*
X102982200Y-144286904D02*
X102934580Y-144334523D01*
X148554819Y-122261904D02*
X148554819Y-121690476D01*
X149554819Y-121976190D02*
X148554819Y-121976190D01*
X149554819Y-121357142D02*
X148554819Y-121357142D01*
X148554819Y-121357142D02*
X148554819Y-120976190D01*
X148554819Y-120976190D02*
X148602438Y-120880952D01*
X148602438Y-120880952D02*
X148650057Y-120833333D01*
X148650057Y-120833333D02*
X148745295Y-120785714D01*
X148745295Y-120785714D02*
X148888152Y-120785714D01*
X148888152Y-120785714D02*
X148983390Y-120833333D01*
X148983390Y-120833333D02*
X149031009Y-120880952D01*
X149031009Y-120880952D02*
X149078628Y-120976190D01*
X149078628Y-120976190D02*
X149078628Y-121357142D01*
X148554819Y-120452380D02*
X148554819Y-119833333D01*
X148554819Y-119833333D02*
X148935771Y-120166666D01*
X148935771Y-120166666D02*
X148935771Y-120023809D01*
X148935771Y-120023809D02*
X148983390Y-119928571D01*
X148983390Y-119928571D02*
X149031009Y-119880952D01*
X149031009Y-119880952D02*
X149126247Y-119833333D01*
X149126247Y-119833333D02*
X149364342Y-119833333D01*
X149364342Y-119833333D02*
X149459580Y-119880952D01*
X149459580Y-119880952D02*
X149507200Y-119928571D01*
X149507200Y-119928571D02*
X149554819Y-120023809D01*
X149554819Y-120023809D02*
X149554819Y-120309523D01*
X149554819Y-120309523D02*
X149507200Y-120404761D01*
X149507200Y-120404761D02*
X149459580Y-120452380D01*
X118554819Y-114116666D02*
X118078628Y-114449999D01*
X118554819Y-114688094D02*
X117554819Y-114688094D01*
X117554819Y-114688094D02*
X117554819Y-114307142D01*
X117554819Y-114307142D02*
X117602438Y-114211904D01*
X117602438Y-114211904D02*
X117650057Y-114164285D01*
X117650057Y-114164285D02*
X117745295Y-114116666D01*
X117745295Y-114116666D02*
X117888152Y-114116666D01*
X117888152Y-114116666D02*
X117983390Y-114164285D01*
X117983390Y-114164285D02*
X118031009Y-114211904D01*
X118031009Y-114211904D02*
X118078628Y-114307142D01*
X118078628Y-114307142D02*
X118078628Y-114688094D01*
X117650057Y-113735713D02*
X117602438Y-113688094D01*
X117602438Y-113688094D02*
X117554819Y-113592856D01*
X117554819Y-113592856D02*
X117554819Y-113354761D01*
X117554819Y-113354761D02*
X117602438Y-113259523D01*
X117602438Y-113259523D02*
X117650057Y-113211904D01*
X117650057Y-113211904D02*
X117745295Y-113164285D01*
X117745295Y-113164285D02*
X117840533Y-113164285D01*
X117840533Y-113164285D02*
X117983390Y-113211904D01*
X117983390Y-113211904D02*
X118554819Y-113783332D01*
X118554819Y-113783332D02*
X118554819Y-113164285D01*
X136804819Y-152866666D02*
X136328628Y-153199999D01*
X136804819Y-153438094D02*
X135804819Y-153438094D01*
X135804819Y-153438094D02*
X135804819Y-153057142D01*
X135804819Y-153057142D02*
X135852438Y-152961904D01*
X135852438Y-152961904D02*
X135900057Y-152914285D01*
X135900057Y-152914285D02*
X135995295Y-152866666D01*
X135995295Y-152866666D02*
X136138152Y-152866666D01*
X136138152Y-152866666D02*
X136233390Y-152914285D01*
X136233390Y-152914285D02*
X136281009Y-152961904D01*
X136281009Y-152961904D02*
X136328628Y-153057142D01*
X136328628Y-153057142D02*
X136328628Y-153438094D01*
X136804819Y-152390475D02*
X136804819Y-152199999D01*
X136804819Y-152199999D02*
X136757200Y-152104761D01*
X136757200Y-152104761D02*
X136709580Y-152057142D01*
X136709580Y-152057142D02*
X136566723Y-151961904D01*
X136566723Y-151961904D02*
X136376247Y-151914285D01*
X136376247Y-151914285D02*
X135995295Y-151914285D01*
X135995295Y-151914285D02*
X135900057Y-151961904D01*
X135900057Y-151961904D02*
X135852438Y-152009523D01*
X135852438Y-152009523D02*
X135804819Y-152104761D01*
X135804819Y-152104761D02*
X135804819Y-152295237D01*
X135804819Y-152295237D02*
X135852438Y-152390475D01*
X135852438Y-152390475D02*
X135900057Y-152438094D01*
X135900057Y-152438094D02*
X135995295Y-152485713D01*
X135995295Y-152485713D02*
X136233390Y-152485713D01*
X136233390Y-152485713D02*
X136328628Y-152438094D01*
X136328628Y-152438094D02*
X136376247Y-152390475D01*
X136376247Y-152390475D02*
X136423866Y-152295237D01*
X136423866Y-152295237D02*
X136423866Y-152104761D01*
X136423866Y-152104761D02*
X136376247Y-152009523D01*
X136376247Y-152009523D02*
X136328628Y-151961904D01*
X136328628Y-151961904D02*
X136233390Y-151914285D01*
X128629819Y-118116666D02*
X128153628Y-118449999D01*
X128629819Y-118688094D02*
X127629819Y-118688094D01*
X127629819Y-118688094D02*
X127629819Y-118307142D01*
X127629819Y-118307142D02*
X127677438Y-118211904D01*
X127677438Y-118211904D02*
X127725057Y-118164285D01*
X127725057Y-118164285D02*
X127820295Y-118116666D01*
X127820295Y-118116666D02*
X127963152Y-118116666D01*
X127963152Y-118116666D02*
X128058390Y-118164285D01*
X128058390Y-118164285D02*
X128106009Y-118211904D01*
X128106009Y-118211904D02*
X128153628Y-118307142D01*
X128153628Y-118307142D02*
X128153628Y-118688094D01*
X127629819Y-117783332D02*
X127629819Y-117164285D01*
X127629819Y-117164285D02*
X128010771Y-117497618D01*
X128010771Y-117497618D02*
X128010771Y-117354761D01*
X128010771Y-117354761D02*
X128058390Y-117259523D01*
X128058390Y-117259523D02*
X128106009Y-117211904D01*
X128106009Y-117211904D02*
X128201247Y-117164285D01*
X128201247Y-117164285D02*
X128439342Y-117164285D01*
X128439342Y-117164285D02*
X128534580Y-117211904D01*
X128534580Y-117211904D02*
X128582200Y-117259523D01*
X128582200Y-117259523D02*
X128629819Y-117354761D01*
X128629819Y-117354761D02*
X128629819Y-117640475D01*
X128629819Y-117640475D02*
X128582200Y-117735713D01*
X128582200Y-117735713D02*
X128534580Y-117783332D01*
X112088095Y-106554819D02*
X112659523Y-106554819D01*
X112373809Y-107554819D02*
X112373809Y-106554819D01*
X112992857Y-107554819D02*
X112992857Y-106554819D01*
X112992857Y-106554819D02*
X113373809Y-106554819D01*
X113373809Y-106554819D02*
X113469047Y-106602438D01*
X113469047Y-106602438D02*
X113516666Y-106650057D01*
X113516666Y-106650057D02*
X113564285Y-106745295D01*
X113564285Y-106745295D02*
X113564285Y-106888152D01*
X113564285Y-106888152D02*
X113516666Y-106983390D01*
X113516666Y-106983390D02*
X113469047Y-107031009D01*
X113469047Y-107031009D02*
X113373809Y-107078628D01*
X113373809Y-107078628D02*
X112992857Y-107078628D01*
X114040476Y-107554819D02*
X114230952Y-107554819D01*
X114230952Y-107554819D02*
X114326190Y-107507200D01*
X114326190Y-107507200D02*
X114373809Y-107459580D01*
X114373809Y-107459580D02*
X114469047Y-107316723D01*
X114469047Y-107316723D02*
X114516666Y-107126247D01*
X114516666Y-107126247D02*
X114516666Y-106745295D01*
X114516666Y-106745295D02*
X114469047Y-106650057D01*
X114469047Y-106650057D02*
X114421428Y-106602438D01*
X114421428Y-106602438D02*
X114326190Y-106554819D01*
X114326190Y-106554819D02*
X114135714Y-106554819D01*
X114135714Y-106554819D02*
X114040476Y-106602438D01*
X114040476Y-106602438D02*
X113992857Y-106650057D01*
X113992857Y-106650057D02*
X113945238Y-106745295D01*
X113945238Y-106745295D02*
X113945238Y-106983390D01*
X113945238Y-106983390D02*
X113992857Y-107078628D01*
X113992857Y-107078628D02*
X114040476Y-107126247D01*
X114040476Y-107126247D02*
X114135714Y-107173866D01*
X114135714Y-107173866D02*
X114326190Y-107173866D01*
X114326190Y-107173866D02*
X114421428Y-107126247D01*
X114421428Y-107126247D02*
X114469047Y-107078628D01*
X114469047Y-107078628D02*
X114516666Y-106983390D01*
X153929819Y-145642857D02*
X153453628Y-145976190D01*
X153929819Y-146214285D02*
X152929819Y-146214285D01*
X152929819Y-146214285D02*
X152929819Y-145833333D01*
X152929819Y-145833333D02*
X152977438Y-145738095D01*
X152977438Y-145738095D02*
X153025057Y-145690476D01*
X153025057Y-145690476D02*
X153120295Y-145642857D01*
X153120295Y-145642857D02*
X153263152Y-145642857D01*
X153263152Y-145642857D02*
X153358390Y-145690476D01*
X153358390Y-145690476D02*
X153406009Y-145738095D01*
X153406009Y-145738095D02*
X153453628Y-145833333D01*
X153453628Y-145833333D02*
X153453628Y-146214285D01*
X153929819Y-144690476D02*
X153929819Y-145261904D01*
X153929819Y-144976190D02*
X152929819Y-144976190D01*
X152929819Y-144976190D02*
X153072676Y-145071428D01*
X153072676Y-145071428D02*
X153167914Y-145166666D01*
X153167914Y-145166666D02*
X153215533Y-145261904D01*
X153025057Y-144309523D02*
X152977438Y-144261904D01*
X152977438Y-144261904D02*
X152929819Y-144166666D01*
X152929819Y-144166666D02*
X152929819Y-143928571D01*
X152929819Y-143928571D02*
X152977438Y-143833333D01*
X152977438Y-143833333D02*
X153025057Y-143785714D01*
X153025057Y-143785714D02*
X153120295Y-143738095D01*
X153120295Y-143738095D02*
X153215533Y-143738095D01*
X153215533Y-143738095D02*
X153358390Y-143785714D01*
X153358390Y-143785714D02*
X153929819Y-144357142D01*
X153929819Y-144357142D02*
X153929819Y-143738095D01*
X171779819Y-121642857D02*
X171303628Y-121976190D01*
X171779819Y-122214285D02*
X170779819Y-122214285D01*
X170779819Y-122214285D02*
X170779819Y-121833333D01*
X170779819Y-121833333D02*
X170827438Y-121738095D01*
X170827438Y-121738095D02*
X170875057Y-121690476D01*
X170875057Y-121690476D02*
X170970295Y-121642857D01*
X170970295Y-121642857D02*
X171113152Y-121642857D01*
X171113152Y-121642857D02*
X171208390Y-121690476D01*
X171208390Y-121690476D02*
X171256009Y-121738095D01*
X171256009Y-121738095D02*
X171303628Y-121833333D01*
X171303628Y-121833333D02*
X171303628Y-122214285D01*
X171779819Y-120690476D02*
X171779819Y-121261904D01*
X171779819Y-120976190D02*
X170779819Y-120976190D01*
X170779819Y-120976190D02*
X170922676Y-121071428D01*
X170922676Y-121071428D02*
X171017914Y-121166666D01*
X171017914Y-121166666D02*
X171065533Y-121261904D01*
X171779819Y-120214285D02*
X171779819Y-120023809D01*
X171779819Y-120023809D02*
X171732200Y-119928571D01*
X171732200Y-119928571D02*
X171684580Y-119880952D01*
X171684580Y-119880952D02*
X171541723Y-119785714D01*
X171541723Y-119785714D02*
X171351247Y-119738095D01*
X171351247Y-119738095D02*
X170970295Y-119738095D01*
X170970295Y-119738095D02*
X170875057Y-119785714D01*
X170875057Y-119785714D02*
X170827438Y-119833333D01*
X170827438Y-119833333D02*
X170779819Y-119928571D01*
X170779819Y-119928571D02*
X170779819Y-120119047D01*
X170779819Y-120119047D02*
X170827438Y-120214285D01*
X170827438Y-120214285D02*
X170875057Y-120261904D01*
X170875057Y-120261904D02*
X170970295Y-120309523D01*
X170970295Y-120309523D02*
X171208390Y-120309523D01*
X171208390Y-120309523D02*
X171303628Y-120261904D01*
X171303628Y-120261904D02*
X171351247Y-120214285D01*
X171351247Y-120214285D02*
X171398866Y-120119047D01*
X171398866Y-120119047D02*
X171398866Y-119928571D01*
X171398866Y-119928571D02*
X171351247Y-119833333D01*
X171351247Y-119833333D02*
X171303628Y-119785714D01*
X171303628Y-119785714D02*
X171208390Y-119738095D01*
X102629819Y-153367857D02*
X102153628Y-153701190D01*
X102629819Y-153939285D02*
X101629819Y-153939285D01*
X101629819Y-153939285D02*
X101629819Y-153558333D01*
X101629819Y-153558333D02*
X101677438Y-153463095D01*
X101677438Y-153463095D02*
X101725057Y-153415476D01*
X101725057Y-153415476D02*
X101820295Y-153367857D01*
X101820295Y-153367857D02*
X101963152Y-153367857D01*
X101963152Y-153367857D02*
X102058390Y-153415476D01*
X102058390Y-153415476D02*
X102106009Y-153463095D01*
X102106009Y-153463095D02*
X102153628Y-153558333D01*
X102153628Y-153558333D02*
X102153628Y-153939285D01*
X101725057Y-152986904D02*
X101677438Y-152939285D01*
X101677438Y-152939285D02*
X101629819Y-152844047D01*
X101629819Y-152844047D02*
X101629819Y-152605952D01*
X101629819Y-152605952D02*
X101677438Y-152510714D01*
X101677438Y-152510714D02*
X101725057Y-152463095D01*
X101725057Y-152463095D02*
X101820295Y-152415476D01*
X101820295Y-152415476D02*
X101915533Y-152415476D01*
X101915533Y-152415476D02*
X102058390Y-152463095D01*
X102058390Y-152463095D02*
X102629819Y-153034523D01*
X102629819Y-153034523D02*
X102629819Y-152415476D01*
X101963152Y-151558333D02*
X102629819Y-151558333D01*
X101582200Y-151796428D02*
X102296485Y-152034523D01*
X102296485Y-152034523D02*
X102296485Y-151415476D01*
D11*
X157807856Y-131236818D02*
X157807856Y-129966818D01*
X157807856Y-129966818D02*
X158291666Y-129966818D01*
X158291666Y-129966818D02*
X158412618Y-130027294D01*
X158412618Y-130027294D02*
X158473095Y-130087770D01*
X158473095Y-130087770D02*
X158533571Y-130208722D01*
X158533571Y-130208722D02*
X158533571Y-130390151D01*
X158533571Y-130390151D02*
X158473095Y-130511103D01*
X158473095Y-130511103D02*
X158412618Y-130571580D01*
X158412618Y-130571580D02*
X158291666Y-130632056D01*
X158291666Y-130632056D02*
X157807856Y-130632056D01*
X159017380Y-131176342D02*
X159198809Y-131236818D01*
X159198809Y-131236818D02*
X159501190Y-131236818D01*
X159501190Y-131236818D02*
X159622142Y-131176342D01*
X159622142Y-131176342D02*
X159682618Y-131115865D01*
X159682618Y-131115865D02*
X159743095Y-130994913D01*
X159743095Y-130994913D02*
X159743095Y-130873961D01*
X159743095Y-130873961D02*
X159682618Y-130753008D01*
X159682618Y-130753008D02*
X159622142Y-130692532D01*
X159622142Y-130692532D02*
X159501190Y-130632056D01*
X159501190Y-130632056D02*
X159259285Y-130571580D01*
X159259285Y-130571580D02*
X159138333Y-130511103D01*
X159138333Y-130511103D02*
X159077856Y-130450627D01*
X159077856Y-130450627D02*
X159017380Y-130329675D01*
X159017380Y-130329675D02*
X159017380Y-130208722D01*
X159017380Y-130208722D02*
X159077856Y-130087770D01*
X159077856Y-130087770D02*
X159138333Y-130027294D01*
X159138333Y-130027294D02*
X159259285Y-129966818D01*
X159259285Y-129966818D02*
X159561666Y-129966818D01*
X159561666Y-129966818D02*
X159743095Y-130027294D01*
X160952619Y-131236818D02*
X160226904Y-131236818D01*
X160589761Y-131236818D02*
X160589761Y-129966818D01*
X160589761Y-129966818D02*
X160468809Y-130148246D01*
X160468809Y-130148246D02*
X160347857Y-130269199D01*
X160347857Y-130269199D02*
X160226904Y-130329675D01*
X154704047Y-117645270D02*
X154583095Y-117584794D01*
X154583095Y-117584794D02*
X154462142Y-117463842D01*
X154462142Y-117463842D02*
X154280714Y-117282413D01*
X154280714Y-117282413D02*
X154159761Y-117221937D01*
X154159761Y-117221937D02*
X154038809Y-117221937D01*
X154099285Y-117524318D02*
X153978333Y-117463842D01*
X153978333Y-117463842D02*
X153857380Y-117342889D01*
X153857380Y-117342889D02*
X153796904Y-117100984D01*
X153796904Y-117100984D02*
X153796904Y-116677651D01*
X153796904Y-116677651D02*
X153857380Y-116435746D01*
X153857380Y-116435746D02*
X153978333Y-116314794D01*
X153978333Y-116314794D02*
X154099285Y-116254318D01*
X154099285Y-116254318D02*
X154341190Y-116254318D01*
X154341190Y-116254318D02*
X154462142Y-116314794D01*
X154462142Y-116314794D02*
X154583095Y-116435746D01*
X154583095Y-116435746D02*
X154643571Y-116677651D01*
X154643571Y-116677651D02*
X154643571Y-117100984D01*
X154643571Y-117100984D02*
X154583095Y-117342889D01*
X154583095Y-117342889D02*
X154462142Y-117463842D01*
X154462142Y-117463842D02*
X154341190Y-117524318D01*
X154341190Y-117524318D02*
X154099285Y-117524318D01*
X155792618Y-116254318D02*
X155187856Y-116254318D01*
X155187856Y-116254318D02*
X155127380Y-116859080D01*
X155127380Y-116859080D02*
X155187856Y-116798603D01*
X155187856Y-116798603D02*
X155308809Y-116738127D01*
X155308809Y-116738127D02*
X155611190Y-116738127D01*
X155611190Y-116738127D02*
X155732142Y-116798603D01*
X155732142Y-116798603D02*
X155792618Y-116859080D01*
X155792618Y-116859080D02*
X155853095Y-116980032D01*
X155853095Y-116980032D02*
X155853095Y-117282413D01*
X155853095Y-117282413D02*
X155792618Y-117403365D01*
X155792618Y-117403365D02*
X155732142Y-117463842D01*
X155732142Y-117463842D02*
X155611190Y-117524318D01*
X155611190Y-117524318D02*
X155308809Y-117524318D01*
X155308809Y-117524318D02*
X155187856Y-117463842D01*
X155187856Y-117463842D02*
X155127380Y-117403365D01*
X117029318Y-98673332D02*
X117936461Y-98673332D01*
X117936461Y-98673332D02*
X118117889Y-98733809D01*
X118117889Y-98733809D02*
X118238842Y-98854761D01*
X118238842Y-98854761D02*
X118299318Y-99036190D01*
X118299318Y-99036190D02*
X118299318Y-99157142D01*
X117150270Y-98129047D02*
X117089794Y-98068571D01*
X117089794Y-98068571D02*
X117029318Y-97947618D01*
X117029318Y-97947618D02*
X117029318Y-97645237D01*
X117029318Y-97645237D02*
X117089794Y-97524285D01*
X117089794Y-97524285D02*
X117150270Y-97463809D01*
X117150270Y-97463809D02*
X117271222Y-97403332D01*
X117271222Y-97403332D02*
X117392175Y-97403332D01*
X117392175Y-97403332D02*
X117573603Y-97463809D01*
X117573603Y-97463809D02*
X118299318Y-98189523D01*
X118299318Y-98189523D02*
X118299318Y-97403332D01*
D12*
X62769819Y-97223333D02*
X63484104Y-97223333D01*
X63484104Y-97223333D02*
X63626961Y-97270952D01*
X63626961Y-97270952D02*
X63722200Y-97366190D01*
X63722200Y-97366190D02*
X63769819Y-97509047D01*
X63769819Y-97509047D02*
X63769819Y-97604285D01*
X62769819Y-96270952D02*
X62769819Y-96747142D01*
X62769819Y-96747142D02*
X63246009Y-96794761D01*
X63246009Y-96794761D02*
X63198390Y-96747142D01*
X63198390Y-96747142D02*
X63150771Y-96651904D01*
X63150771Y-96651904D02*
X63150771Y-96413809D01*
X63150771Y-96413809D02*
X63198390Y-96318571D01*
X63198390Y-96318571D02*
X63246009Y-96270952D01*
X63246009Y-96270952D02*
X63341247Y-96223333D01*
X63341247Y-96223333D02*
X63579342Y-96223333D01*
X63579342Y-96223333D02*
X63674580Y-96270952D01*
X63674580Y-96270952D02*
X63722200Y-96318571D01*
X63722200Y-96318571D02*
X63769819Y-96413809D01*
X63769819Y-96413809D02*
X63769819Y-96651904D01*
X63769819Y-96651904D02*
X63722200Y-96747142D01*
X63722200Y-96747142D02*
X63674580Y-96794761D01*
X151381009Y-137445833D02*
X151381009Y-137779166D01*
X151904819Y-137779166D02*
X150904819Y-137779166D01*
X150904819Y-137779166D02*
X150904819Y-137302976D01*
X151904819Y-136398214D02*
X151904819Y-136969642D01*
X151904819Y-136683928D02*
X150904819Y-136683928D01*
X150904819Y-136683928D02*
X151047676Y-136779166D01*
X151047676Y-136779166D02*
X151142914Y-136874404D01*
X151142914Y-136874404D02*
X151190533Y-136969642D01*
X119879819Y-145592857D02*
X119403628Y-145926190D01*
X119879819Y-146164285D02*
X118879819Y-146164285D01*
X118879819Y-146164285D02*
X118879819Y-145783333D01*
X118879819Y-145783333D02*
X118927438Y-145688095D01*
X118927438Y-145688095D02*
X118975057Y-145640476D01*
X118975057Y-145640476D02*
X119070295Y-145592857D01*
X119070295Y-145592857D02*
X119213152Y-145592857D01*
X119213152Y-145592857D02*
X119308390Y-145640476D01*
X119308390Y-145640476D02*
X119356009Y-145688095D01*
X119356009Y-145688095D02*
X119403628Y-145783333D01*
X119403628Y-145783333D02*
X119403628Y-146164285D01*
X119879819Y-144640476D02*
X119879819Y-145211904D01*
X119879819Y-144926190D02*
X118879819Y-144926190D01*
X118879819Y-144926190D02*
X119022676Y-145021428D01*
X119022676Y-145021428D02*
X119117914Y-145116666D01*
X119117914Y-145116666D02*
X119165533Y-145211904D01*
X119213152Y-143783333D02*
X119879819Y-143783333D01*
X118832200Y-144021428D02*
X119546485Y-144259523D01*
X119546485Y-144259523D02*
X119546485Y-143640476D01*
X46554819Y-124641666D02*
X46078628Y-124974999D01*
X46554819Y-125213094D02*
X45554819Y-125213094D01*
X45554819Y-125213094D02*
X45554819Y-124832142D01*
X45554819Y-124832142D02*
X45602438Y-124736904D01*
X45602438Y-124736904D02*
X45650057Y-124689285D01*
X45650057Y-124689285D02*
X45745295Y-124641666D01*
X45745295Y-124641666D02*
X45888152Y-124641666D01*
X45888152Y-124641666D02*
X45983390Y-124689285D01*
X45983390Y-124689285D02*
X46031009Y-124736904D01*
X46031009Y-124736904D02*
X46078628Y-124832142D01*
X46078628Y-124832142D02*
X46078628Y-125213094D01*
X45554819Y-124308332D02*
X45554819Y-123641666D01*
X45554819Y-123641666D02*
X46554819Y-124070237D01*
X79154819Y-112142857D02*
X78678628Y-112476190D01*
X79154819Y-112714285D02*
X78154819Y-112714285D01*
X78154819Y-112714285D02*
X78154819Y-112333333D01*
X78154819Y-112333333D02*
X78202438Y-112238095D01*
X78202438Y-112238095D02*
X78250057Y-112190476D01*
X78250057Y-112190476D02*
X78345295Y-112142857D01*
X78345295Y-112142857D02*
X78488152Y-112142857D01*
X78488152Y-112142857D02*
X78583390Y-112190476D01*
X78583390Y-112190476D02*
X78631009Y-112238095D01*
X78631009Y-112238095D02*
X78678628Y-112333333D01*
X78678628Y-112333333D02*
X78678628Y-112714285D01*
X78250057Y-111761904D02*
X78202438Y-111714285D01*
X78202438Y-111714285D02*
X78154819Y-111619047D01*
X78154819Y-111619047D02*
X78154819Y-111380952D01*
X78154819Y-111380952D02*
X78202438Y-111285714D01*
X78202438Y-111285714D02*
X78250057Y-111238095D01*
X78250057Y-111238095D02*
X78345295Y-111190476D01*
X78345295Y-111190476D02*
X78440533Y-111190476D01*
X78440533Y-111190476D02*
X78583390Y-111238095D01*
X78583390Y-111238095D02*
X79154819Y-111809523D01*
X79154819Y-111809523D02*
X79154819Y-111190476D01*
X78154819Y-110333333D02*
X78154819Y-110523809D01*
X78154819Y-110523809D02*
X78202438Y-110619047D01*
X78202438Y-110619047D02*
X78250057Y-110666666D01*
X78250057Y-110666666D02*
X78392914Y-110761904D01*
X78392914Y-110761904D02*
X78583390Y-110809523D01*
X78583390Y-110809523D02*
X78964342Y-110809523D01*
X78964342Y-110809523D02*
X79059580Y-110761904D01*
X79059580Y-110761904D02*
X79107200Y-110714285D01*
X79107200Y-110714285D02*
X79154819Y-110619047D01*
X79154819Y-110619047D02*
X79154819Y-110428571D01*
X79154819Y-110428571D02*
X79107200Y-110333333D01*
X79107200Y-110333333D02*
X79059580Y-110285714D01*
X79059580Y-110285714D02*
X78964342Y-110238095D01*
X78964342Y-110238095D02*
X78726247Y-110238095D01*
X78726247Y-110238095D02*
X78631009Y-110285714D01*
X78631009Y-110285714D02*
X78583390Y-110333333D01*
X78583390Y-110333333D02*
X78535771Y-110428571D01*
X78535771Y-110428571D02*
X78535771Y-110619047D01*
X78535771Y-110619047D02*
X78583390Y-110714285D01*
X78583390Y-110714285D02*
X78631009Y-110761904D01*
X78631009Y-110761904D02*
X78726247Y-110809523D01*
D13*
%TO.C,Q12*%
X48625000Y-118950000D02*
X48275000Y-118950000D01*
X48275000Y-118950000D02*
X48275000Y-116050000D01*
X48275000Y-116050000D02*
X48625000Y-116050000D01*
X48625000Y-116050000D02*
X48625000Y-118950000D01*
X50125000Y-119010000D02*
X48975000Y-119010000D01*
%TO.C,Q2*%
X113525000Y-115550000D02*
X113175000Y-115550000D01*
X113175000Y-115550000D02*
X113175000Y-112650000D01*
X113175000Y-112650000D02*
X113525000Y-112650000D01*
X113525000Y-112650000D02*
X113525000Y-115550000D01*
X115025000Y-115610000D02*
X113875000Y-115610000D01*
%TO.C,Q11*%
X151625000Y-115225000D02*
X151275000Y-115225000D01*
X151275000Y-115225000D02*
X151275000Y-112325000D01*
X151275000Y-112325000D02*
X151625000Y-112325000D01*
X151625000Y-112325000D02*
X151625000Y-115225000D01*
X153125000Y-115285000D02*
X151975000Y-115285000D01*
%TO.C,Q10*%
X132900000Y-115500000D02*
X132550000Y-115500000D01*
X132550000Y-115500000D02*
X132550000Y-112600000D01*
X132550000Y-112600000D02*
X132900000Y-112600000D01*
X132900000Y-112600000D02*
X132900000Y-115500000D01*
X134400000Y-115560000D02*
X133250000Y-115560000D01*
D14*
%TO.C,F5*%
X48438748Y-113865000D02*
X48961252Y-113865000D01*
X48438748Y-115285000D02*
X48961252Y-115285000D01*
%TO.C,R23*%
X91365000Y-140927064D02*
X91365000Y-140472936D01*
X92835000Y-140927064D02*
X92835000Y-140472936D01*
%TO.C,J11*%
X74840000Y-105145000D02*
X74840000Y-103875000D01*
X76110000Y-105145000D02*
X74840000Y-105145000D01*
X78270000Y-102832071D02*
X78270000Y-102377929D01*
X79030000Y-102832071D02*
X79030000Y-102377929D01*
X80810000Y-102832071D02*
X80810000Y-102377929D01*
X81570000Y-102832071D02*
X81570000Y-102377929D01*
X83350000Y-102832071D02*
X83350000Y-102377929D01*
X84110000Y-102832071D02*
X84110000Y-102377929D01*
X75730000Y-102765000D02*
X75730000Y-102377929D01*
X76490000Y-102765000D02*
X76490000Y-102377929D01*
X75730000Y-100292071D02*
X75730000Y-99895000D01*
X76490000Y-100292071D02*
X76490000Y-99895000D01*
X78270000Y-100292071D02*
X78270000Y-99895000D01*
X79030000Y-100292071D02*
X79030000Y-99895000D01*
X80810000Y-100292071D02*
X80810000Y-99895000D01*
X81570000Y-100292071D02*
X81570000Y-99895000D01*
X83350000Y-100292071D02*
X83350000Y-99895000D01*
X84110000Y-100292071D02*
X84110000Y-99895000D01*
X74780000Y-99895000D02*
X85060000Y-99895000D01*
X77380000Y-99895000D02*
X77380000Y-97235000D01*
X79920000Y-99895000D02*
X79920000Y-97235000D01*
X82460000Y-99895000D02*
X82460000Y-97235000D01*
X85060000Y-99895000D02*
X85060000Y-97235000D01*
X74780000Y-97235000D02*
X74780000Y-99895000D01*
X75730000Y-97235000D02*
X75730000Y-91235000D01*
X75790000Y-97235000D02*
X75790000Y-91235000D01*
X75910000Y-97235000D02*
X75910000Y-91235000D01*
X76030000Y-97235000D02*
X76030000Y-91235000D01*
X76150000Y-97235000D02*
X76150000Y-91235000D01*
X76270000Y-97235000D02*
X76270000Y-91235000D01*
X76390000Y-97235000D02*
X76390000Y-91235000D01*
X78270000Y-97235000D02*
X78270000Y-91235000D01*
X80810000Y-97235000D02*
X80810000Y-91235000D01*
X83350000Y-97235000D02*
X83350000Y-91235000D01*
X85060000Y-97235000D02*
X74780000Y-97235000D01*
X75730000Y-91235000D02*
X76490000Y-91235000D01*
X76490000Y-91235000D02*
X76490000Y-97235000D01*
X78270000Y-91235000D02*
X79030000Y-91235000D01*
X79030000Y-91235000D02*
X79030000Y-97235000D01*
X80810000Y-91235000D02*
X81570000Y-91235000D01*
X81570000Y-91235000D02*
X81570000Y-97235000D01*
X83350000Y-91235000D02*
X84110000Y-91235000D01*
X84110000Y-91235000D02*
X84110000Y-97235000D01*
%TO.C,TP11*%
X153345000Y-106570000D02*
X154675000Y-106570000D01*
X153345000Y-107900000D02*
X153345000Y-106570000D01*
X153345000Y-109170000D02*
X153345000Y-109230000D01*
X153345000Y-109170000D02*
X156005000Y-109170000D01*
X153345000Y-109230000D02*
X156005000Y-109230000D01*
X156005000Y-109170000D02*
X156005000Y-109230000D01*
%TO.C,R13*%
X118410000Y-152497936D02*
X118410000Y-152952064D01*
X116940000Y-152497936D02*
X116940000Y-152952064D01*
%TO.C,R22*%
X143785000Y-140747936D02*
X143785000Y-141202064D01*
X142315000Y-140747936D02*
X142315000Y-141202064D01*
%TO.C,TP5*%
X108320000Y-108745000D02*
X109650000Y-108745000D01*
X108320000Y-110075000D02*
X108320000Y-108745000D01*
X108320000Y-111345000D02*
X108320000Y-111405000D01*
X108320000Y-111345000D02*
X110980000Y-111345000D01*
X108320000Y-111405000D02*
X110980000Y-111405000D01*
X110980000Y-111345000D02*
X110980000Y-111405000D01*
%TO.C,F2*%
X113288748Y-110440000D02*
X113811252Y-110440000D01*
X113288748Y-111860000D02*
X113811252Y-111860000D01*
D15*
%TO.C,J4*%
X147275000Y-101800000D02*
X147275000Y-94300000D01*
X149775000Y-101800000D02*
X147275000Y-101800000D01*
X154775000Y-101800000D02*
X157275000Y-101800000D01*
X157275000Y-101800000D02*
X157275000Y-94300000D01*
D13*
X157875000Y-95700000D02*
X157875000Y-95700000D01*
X158075000Y-95700000D02*
X158075000Y-95700000D01*
D15*
X154275000Y-91800000D02*
X150275000Y-91800000D01*
D13*
X158075000Y-95700000D02*
G75*
G03*
X157875000Y-95700000I-100000J0D01*
G01*
X157875000Y-95700000D02*
G75*
G03*
X158075000Y-95700000I100000J0D01*
G01*
D14*
%TO.C,R18*%
X172340000Y-128252064D02*
X172340000Y-127797936D01*
X173810000Y-128252064D02*
X173810000Y-127797936D01*
%TO.C,F3*%
X132663748Y-110390000D02*
X133186252Y-110390000D01*
X132663748Y-111810000D02*
X133186252Y-111810000D01*
%TO.C,TP8*%
X45470000Y-107720000D02*
X46800000Y-107720000D01*
X45470000Y-109050000D02*
X45470000Y-107720000D01*
X45470000Y-110320000D02*
X45470000Y-110380000D01*
X45470000Y-110320000D02*
X48130000Y-110320000D01*
X45470000Y-110380000D02*
X48130000Y-110380000D01*
X48130000Y-110320000D02*
X48130000Y-110380000D01*
D13*
%TO.C,J7*%
X166950000Y-88575000D02*
X166950000Y-95775000D01*
X175950000Y-88575000D02*
X166950000Y-88575000D01*
X175950000Y-102975000D02*
X175950000Y-88575000D01*
X171329850Y-104326000D02*
G75*
G03*
X171329850Y-104326000I-118850J0D01*
G01*
D14*
%TO.C,TP2*%
X131520000Y-121880000D02*
X131520000Y-120550000D01*
X132850000Y-121880000D02*
X131520000Y-121880000D01*
X134120000Y-121880000D02*
X134180000Y-121880000D01*
X134120000Y-121880000D02*
X134120000Y-119220000D01*
X134180000Y-121880000D02*
X134180000Y-119220000D01*
X134120000Y-119220000D02*
X134180000Y-119220000D01*
%TO.C,R6*%
X155210000Y-113572936D02*
X155210000Y-114027064D01*
X153740000Y-113572936D02*
X153740000Y-114027064D01*
D13*
%TO.C,Q7*%
X47225000Y-119500000D02*
X48225000Y-119500000D01*
X48575000Y-119650000D02*
X48875000Y-119650000D01*
X48575000Y-121650000D02*
X48575000Y-119650000D01*
X48875000Y-119650000D02*
X48875000Y-121650000D01*
X48875000Y-121650000D02*
X48575000Y-121650000D01*
%TO.C,Q3*%
X131425000Y-116150000D02*
X132425000Y-116150000D01*
X132775000Y-116300000D02*
X133075000Y-116300000D01*
X132775000Y-118300000D02*
X132775000Y-116300000D01*
X133075000Y-116300000D02*
X133075000Y-118300000D01*
X133075000Y-118300000D02*
X132775000Y-118300000D01*
D14*
%TO.C,TP7*%
X149130000Y-108820000D02*
X149130000Y-110150000D01*
X147800000Y-108820000D02*
X149130000Y-108820000D01*
X146530000Y-108820000D02*
X146470000Y-108820000D01*
X146530000Y-108820000D02*
X146530000Y-111480000D01*
X146470000Y-108820000D02*
X146470000Y-111480000D01*
X146530000Y-111480000D02*
X146470000Y-111480000D01*
%TO.C,TP12*%
X45595000Y-103870000D02*
X46925000Y-103870000D01*
X45595000Y-105200000D02*
X45595000Y-103870000D01*
X45595000Y-106470000D02*
X45595000Y-106530000D01*
X45595000Y-106470000D02*
X48255000Y-106470000D01*
X45595000Y-106530000D02*
X48255000Y-106530000D01*
X48255000Y-106470000D02*
X48255000Y-106530000D01*
%TO.C,TP10*%
X134820000Y-106870000D02*
X136150000Y-106870000D01*
X134820000Y-108200000D02*
X134820000Y-106870000D01*
X134820000Y-109470000D02*
X134820000Y-109530000D01*
X134820000Y-109470000D02*
X137480000Y-109470000D01*
X134820000Y-109530000D02*
X137480000Y-109530000D01*
X137480000Y-109470000D02*
X137480000Y-109530000D01*
%TO.C,F4*%
X151238748Y-110290000D02*
X151761252Y-110290000D01*
X151238748Y-111710000D02*
X151761252Y-111710000D01*
%TO.C,TP4*%
X47470000Y-125205000D02*
X47470000Y-123875000D01*
X48800000Y-125205000D02*
X47470000Y-125205000D01*
X50070000Y-125205000D02*
X50130000Y-125205000D01*
X50070000Y-125205000D02*
X50070000Y-122545000D01*
X50130000Y-125205000D02*
X50130000Y-122545000D01*
X50070000Y-122545000D02*
X50130000Y-122545000D01*
%TO.C,TP6*%
X127795000Y-111630000D02*
X127795000Y-110300000D01*
X129125000Y-111630000D02*
X127795000Y-111630000D01*
X130395000Y-111630000D02*
X130455000Y-111630000D01*
X130395000Y-111630000D02*
X130395000Y-108970000D01*
X130455000Y-111630000D02*
X130455000Y-108970000D01*
X130395000Y-108970000D02*
X130455000Y-108970000D01*
%TO.C,R20*%
X110110000Y-140397936D02*
X110110000Y-140852064D01*
X108640000Y-140397936D02*
X108640000Y-140852064D01*
%TO.C,R16*%
X82990000Y-145152064D02*
X82990000Y-144697936D01*
X84460000Y-145152064D02*
X84460000Y-144697936D01*
%TO.C,R29*%
X81910000Y-107872936D02*
X81910000Y-108327064D01*
X80440000Y-107872936D02*
X80440000Y-108327064D01*
%TO.C,R17*%
X173760000Y-134622936D02*
X173760000Y-135077064D01*
X172290000Y-134622936D02*
X172290000Y-135077064D01*
%TO.C,R1*%
X111485000Y-117622936D02*
X111485000Y-118077064D01*
X110015000Y-117622936D02*
X110015000Y-118077064D01*
%TO.C,R8*%
X52310000Y-117272936D02*
X52310000Y-117727064D01*
X50840000Y-117272936D02*
X50840000Y-117727064D01*
%TO.C,C2*%
X150790000Y-127523752D02*
X150790000Y-127001248D01*
X152260000Y-127523752D02*
X152260000Y-127001248D01*
%TO.C,R27*%
X76860000Y-107797936D02*
X76860000Y-108252064D01*
X75390000Y-107797936D02*
X75390000Y-108252064D01*
%TO.C,R5*%
X149560000Y-117372936D02*
X149560000Y-117827064D01*
X148090000Y-117372936D02*
X148090000Y-117827064D01*
%TO.C,R4*%
X136485000Y-113797936D02*
X136485000Y-114252064D01*
X135015000Y-113797936D02*
X135015000Y-114252064D01*
%TO.C,R10*%
X133965000Y-145177064D02*
X133965000Y-144722936D01*
X135435000Y-145177064D02*
X135435000Y-144722936D01*
D13*
%TO.C,J1*%
X50150000Y-88575000D02*
X50150000Y-95775000D01*
X59150000Y-88575000D02*
X50150000Y-88575000D01*
X59150000Y-102975000D02*
X59150000Y-88575000D01*
X54529850Y-104326000D02*
G75*
G03*
X54529850Y-104326000I-118850J0D01*
G01*
D14*
%TO.C,R15*%
X84485000Y-152547936D02*
X84485000Y-153002064D01*
X83015000Y-152547936D02*
X83015000Y-153002064D01*
%TO.C,C1*%
X167985000Y-128363748D02*
X167985000Y-128886252D01*
X166515000Y-128363748D02*
X166515000Y-128886252D01*
%TO.C,A1*%
X105435000Y-134035000D02*
X105435000Y-131365000D01*
X105435000Y-128825000D02*
X105435000Y-90595000D01*
X105435000Y-90595000D02*
X100355000Y-90595000D01*
X102765000Y-131365000D02*
X105435000Y-131365000D01*
X102765000Y-128825000D02*
X105435000Y-128825000D01*
X102765000Y-128825000D02*
X102765000Y-131365000D01*
X102765000Y-128825000D02*
X102765000Y-93265000D01*
X102765000Y-93265000D02*
X105435000Y-93265000D01*
X100355000Y-98475000D02*
X92475000Y-98475000D01*
X100355000Y-88055000D02*
X100355000Y-98475000D01*
X92475000Y-98475000D02*
X92475000Y-88055000D01*
X92475000Y-88055000D02*
X100355000Y-88055000D01*
X90065000Y-131365000D02*
X90065000Y-93265000D01*
X90065000Y-131365000D02*
X87395000Y-131365000D01*
X90065000Y-93265000D02*
X87395000Y-93265000D01*
X87395000Y-134035000D02*
X105435000Y-134035000D01*
X87395000Y-90595000D02*
X92475000Y-90595000D01*
X87395000Y-90595000D02*
X87395000Y-134035000D01*
D13*
%TO.C,Q1*%
X112150000Y-116100000D02*
X113150000Y-116100000D01*
X113500000Y-116250000D02*
X113800000Y-116250000D01*
X113500000Y-118250000D02*
X113500000Y-116250000D01*
X113800000Y-116250000D02*
X113800000Y-118250000D01*
X113800000Y-118250000D02*
X113500000Y-118250000D01*
D14*
%TO.C,R11*%
X152385000Y-152497936D02*
X152385000Y-152952064D01*
X150915000Y-152497936D02*
X150915000Y-152952064D01*
%TO.C,R28*%
X84510000Y-107872936D02*
X84510000Y-108327064D01*
X83040000Y-107872936D02*
X83040000Y-108327064D01*
D15*
%TO.C,J3*%
X128240000Y-101750000D02*
X128240000Y-94250000D01*
X130740000Y-101750000D02*
X128240000Y-101750000D01*
X135740000Y-101750000D02*
X138240000Y-101750000D01*
X138240000Y-101750000D02*
X138240000Y-94250000D01*
D13*
X138840000Y-95650000D02*
X138840000Y-95650000D01*
X139040000Y-95650000D02*
X139040000Y-95650000D01*
D15*
X135240000Y-91750000D02*
X131240000Y-91750000D01*
D13*
X139040000Y-95650000D02*
G75*
G03*
X138840000Y-95650000I-100000J0D01*
G01*
X138840000Y-95650000D02*
G75*
G03*
X139040000Y-95650000I100000J0D01*
G01*
D14*
%TO.C,TP1*%
X112320000Y-119220000D02*
X113650000Y-119220000D01*
X112320000Y-120550000D02*
X112320000Y-119220000D01*
X112320000Y-121820000D02*
X112320000Y-121880000D01*
X112320000Y-121820000D02*
X114980000Y-121820000D01*
X112320000Y-121880000D02*
X114980000Y-121880000D01*
X114980000Y-121820000D02*
X114980000Y-121880000D01*
%TO.C,R21*%
X126860000Y-140522936D02*
X126860000Y-140977064D01*
X125390000Y-140522936D02*
X125390000Y-140977064D01*
%TO.C,R25*%
X99965000Y-145202064D02*
X99965000Y-144747936D01*
X101435000Y-145202064D02*
X101435000Y-144747936D01*
%TO.C,TP3*%
X150370000Y-121630000D02*
X150370000Y-120300000D01*
X151700000Y-121630000D02*
X150370000Y-121630000D01*
X152970000Y-121630000D02*
X153030000Y-121630000D01*
X152970000Y-121630000D02*
X152970000Y-118970000D01*
X153030000Y-121630000D02*
X153030000Y-118970000D01*
X152970000Y-118970000D02*
X153030000Y-118970000D01*
%TO.C,R2*%
X117185000Y-113722936D02*
X117185000Y-114177064D01*
X115715000Y-113722936D02*
X115715000Y-114177064D01*
%TO.C,R9*%
X135435000Y-152472936D02*
X135435000Y-152927064D01*
X133965000Y-152472936D02*
X133965000Y-152927064D01*
%TO.C,R3*%
X130660000Y-117722936D02*
X130660000Y-118177064D01*
X129190000Y-117722936D02*
X129190000Y-118177064D01*
%TO.C,TP9*%
X115395000Y-106820000D02*
X116725000Y-106820000D01*
X115395000Y-108150000D02*
X115395000Y-106820000D01*
X115395000Y-109420000D02*
X115395000Y-109480000D01*
X115395000Y-109420000D02*
X118055000Y-109420000D01*
X115395000Y-109480000D02*
X118055000Y-109480000D01*
X118055000Y-109420000D02*
X118055000Y-109480000D01*
%TO.C,R12*%
X150915000Y-145127064D02*
X150915000Y-144672936D01*
X152385000Y-145127064D02*
X152385000Y-144672936D01*
%TO.C,R19*%
X172240000Y-121227064D02*
X172240000Y-120772936D01*
X173710000Y-121227064D02*
X173710000Y-120772936D01*
%TO.C,R24*%
X101260000Y-152497936D02*
X101260000Y-152952064D01*
X99790000Y-152497936D02*
X99790000Y-152952064D01*
D15*
%TO.C,PS1*%
X165150000Y-134662500D02*
X153550000Y-134662500D01*
X165150000Y-126662500D02*
X165150000Y-134662500D01*
D13*
X161990000Y-126162500D02*
X161990000Y-126162500D01*
X161790000Y-126162500D02*
X161790000Y-126162500D01*
D15*
X153550000Y-134662500D02*
X153550000Y-126662500D01*
X153550000Y-126662500D02*
X165150000Y-126662500D01*
D13*
X161790000Y-126162500D02*
G75*
G03*
X161990000Y-126162500I100000J0D01*
G01*
X161990000Y-126162500D02*
G75*
G03*
X161790000Y-126162500I-100000J0D01*
G01*
%TO.C,Q5*%
X150125000Y-115850000D02*
X151125000Y-115850000D01*
X151475000Y-116000000D02*
X151775000Y-116000000D01*
X151475000Y-118000000D02*
X151475000Y-116000000D01*
X151775000Y-116000000D02*
X151775000Y-118000000D01*
X151775000Y-118000000D02*
X151475000Y-118000000D01*
D15*
%TO.C,J2*%
X109125000Y-101850000D02*
X109125000Y-94350000D01*
X111625000Y-101850000D02*
X109125000Y-101850000D01*
X116625000Y-101850000D02*
X119125000Y-101850000D01*
X119125000Y-101850000D02*
X119125000Y-94350000D01*
D13*
X119725000Y-95750000D02*
X119725000Y-95750000D01*
X119925000Y-95750000D02*
X119925000Y-95750000D01*
D15*
X116125000Y-91850000D02*
X112125000Y-91850000D01*
D13*
X119925000Y-95750000D02*
G75*
G03*
X119725000Y-95750000I-100000J0D01*
G01*
X119725000Y-95750000D02*
G75*
G03*
X119925000Y-95750000I100000J0D01*
G01*
D14*
%TO.C,J5*%
X64315000Y-102545000D02*
X64315000Y-101275000D01*
X65585000Y-102545000D02*
X64315000Y-102545000D01*
X67745000Y-100232071D02*
X67745000Y-99835000D01*
X68505000Y-100232071D02*
X68505000Y-99835000D01*
X70285000Y-100232071D02*
X70285000Y-99835000D01*
X71045000Y-100232071D02*
X71045000Y-99835000D01*
X65205000Y-100165000D02*
X65205000Y-99835000D01*
X65965000Y-100165000D02*
X65965000Y-99835000D01*
X64255000Y-99835000D02*
X71995000Y-99835000D01*
X66855000Y-99835000D02*
X66855000Y-97175000D01*
X69395000Y-99835000D02*
X69395000Y-97175000D01*
X71995000Y-99835000D02*
X71995000Y-97175000D01*
X64255000Y-97175000D02*
X64255000Y-99835000D01*
X65205000Y-97175000D02*
X65205000Y-91175000D01*
X65265000Y-97175000D02*
X65265000Y-91175000D01*
X65385000Y-97175000D02*
X65385000Y-91175000D01*
X65505000Y-97175000D02*
X65505000Y-91175000D01*
X65625000Y-97175000D02*
X65625000Y-91175000D01*
X65745000Y-97175000D02*
X65745000Y-91175000D01*
X65865000Y-97175000D02*
X65865000Y-91175000D01*
X67745000Y-97175000D02*
X67745000Y-91175000D01*
X70285000Y-97175000D02*
X70285000Y-91175000D01*
X71995000Y-97175000D02*
X64255000Y-97175000D01*
X65205000Y-91175000D02*
X65965000Y-91175000D01*
X65965000Y-91175000D02*
X65965000Y-97175000D01*
X67745000Y-91175000D02*
X68505000Y-91175000D01*
X68505000Y-91175000D02*
X68505000Y-97175000D01*
X70285000Y-91175000D02*
X71045000Y-91175000D01*
X71045000Y-91175000D02*
X71045000Y-97175000D01*
%TO.C,F1*%
X152235000Y-133876248D02*
X152235000Y-134398752D01*
X150815000Y-133876248D02*
X150815000Y-134398752D01*
%TO.C,R14*%
X116890000Y-145152064D02*
X116890000Y-144697936D01*
X118360000Y-145152064D02*
X118360000Y-144697936D01*
%TO.C,R7*%
X46635000Y-120922936D02*
X46635000Y-121377064D01*
X45165000Y-120922936D02*
X45165000Y-121377064D01*
%TO.C,R26*%
X79385000Y-107822936D02*
X79385000Y-108277064D01*
X77915000Y-107822936D02*
X77915000Y-108277064D01*
%TD*%
%LPC*%
D16*
%TO.C,Q12*%
X49550000Y-118460000D03*
X49550000Y-116540000D03*
X47350000Y-117500000D03*
%TD*%
%TO.C,Q2*%
X114450000Y-115060000D03*
X114450000Y-113140000D03*
X112250000Y-114100000D03*
%TD*%
%TO.C,Q11*%
X152550000Y-114735000D03*
X152550000Y-112815000D03*
X150350000Y-113775000D03*
%TD*%
%TO.C,Q10*%
X133825000Y-115010000D03*
X133825000Y-113090000D03*
X131625000Y-114050000D03*
%TD*%
D17*
%TO.C,F5*%
X47675000Y-114575000D03*
X49725000Y-114575000D03*
%TD*%
D18*
%TO.C,R23*%
X92100000Y-141700000D03*
X92100000Y-139700000D03*
%TD*%
D19*
%TO.C,J11*%
X76110000Y-103875000D03*
D20*
X76110000Y-101335000D03*
X78650000Y-103875000D03*
X78650000Y-101335000D03*
X81190000Y-103875000D03*
X81190000Y-101335000D03*
X83730000Y-103875000D03*
X83730000Y-101335000D03*
%TD*%
D19*
%TO.C,TP11*%
X154675000Y-107900000D03*
%TD*%
D21*
%TO.C,R13*%
X117675000Y-151725000D03*
X117675000Y-153725000D03*
%TD*%
%TO.C,R22*%
X143050000Y-139975000D03*
X143050000Y-141975000D03*
%TD*%
D19*
%TO.C,TP5*%
X109650000Y-110075000D03*
%TD*%
D17*
%TO.C,F2*%
X112525000Y-111150000D03*
X114575000Y-111150000D03*
%TD*%
D22*
%TO.C,J4*%
X148025000Y-92650000D03*
X156525000Y-92650000D03*
D23*
X152275000Y-95800000D03*
D24*
X152275000Y-100300000D03*
%TD*%
D18*
%TO.C,R18*%
X173075000Y-129025000D03*
X173075000Y-127025000D03*
%TD*%
D17*
%TO.C,F3*%
X131900000Y-111100000D03*
X133950000Y-111100000D03*
%TD*%
D19*
%TO.C,TP8*%
X46800000Y-109050000D03*
%TD*%
D25*
%TO.C,J7*%
X171250000Y-102275000D03*
X171250000Y-96275000D03*
X166550000Y-99275000D03*
%TD*%
D19*
%TO.C,TP2*%
X132850000Y-120550000D03*
%TD*%
D21*
%TO.C,R6*%
X154475000Y-112800000D03*
X154475000Y-114800000D03*
%TD*%
D26*
%TO.C,Q7*%
X47725000Y-120000000D03*
X47725000Y-121300000D03*
X49725000Y-120650000D03*
%TD*%
%TO.C,Q3*%
X131925000Y-116650000D03*
X131925000Y-117950000D03*
X133925000Y-117300000D03*
%TD*%
D19*
%TO.C,TP7*%
X147800000Y-110150000D03*
%TD*%
%TO.C,TP12*%
X46925000Y-105200000D03*
%TD*%
%TO.C,TP10*%
X136150000Y-108200000D03*
%TD*%
D27*
%TO.C,REF\u002A\u002A*%
X165867641Y-154600000D03*
%TD*%
D17*
%TO.C,F4*%
X150475000Y-111000000D03*
X152525000Y-111000000D03*
%TD*%
D19*
%TO.C,TP4*%
X48800000Y-123875000D03*
%TD*%
%TO.C,TP6*%
X129125000Y-110300000D03*
%TD*%
D21*
%TO.C,R20*%
X109375000Y-139625000D03*
X109375000Y-141625000D03*
%TD*%
D18*
%TO.C,R16*%
X83725000Y-145925000D03*
X83725000Y-143925000D03*
%TD*%
D21*
%TO.C,R29*%
X81175000Y-107100000D03*
X81175000Y-109100000D03*
%TD*%
%TO.C,R17*%
X173025000Y-133850000D03*
X173025000Y-135850000D03*
%TD*%
%TO.C,R1*%
X110750000Y-116850000D03*
X110750000Y-118850000D03*
%TD*%
%TO.C,R8*%
X51575000Y-116500000D03*
X51575000Y-118500000D03*
%TD*%
D27*
%TO.C,REF\u002A\u002A*%
X60867641Y-154600000D03*
%TD*%
D28*
%TO.C,C2*%
X151525000Y-128300000D03*
X151525000Y-126225000D03*
%TD*%
D21*
%TO.C,R27*%
X76125000Y-107025000D03*
X76125000Y-109025000D03*
%TD*%
%TO.C,R5*%
X148825000Y-116600000D03*
X148825000Y-118600000D03*
%TD*%
%TO.C,R4*%
X135750000Y-113025000D03*
X135750000Y-115025000D03*
%TD*%
D18*
%TO.C,R10*%
X134700000Y-145950000D03*
X134700000Y-143950000D03*
%TD*%
D27*
%TO.C,REF\u002A\u002A*%
X165867641Y-119600000D03*
%TD*%
D25*
%TO.C,J1*%
X54450000Y-102275000D03*
X54450000Y-96275000D03*
X49750000Y-99275000D03*
%TD*%
D21*
%TO.C,R15*%
X83750000Y-151775000D03*
X83750000Y-153775000D03*
%TD*%
D29*
%TO.C,C1*%
X167250000Y-127587500D03*
X167250000Y-129662500D03*
%TD*%
D30*
%TO.C,A1*%
X104035000Y-130095000D03*
D31*
X104035000Y-127555000D03*
X104035000Y-125015000D03*
X104035000Y-122475000D03*
X104035000Y-119935000D03*
X104035000Y-117395000D03*
X104035000Y-114855000D03*
X104035000Y-112315000D03*
X104035000Y-109775000D03*
X104035000Y-107235000D03*
X104035000Y-104695000D03*
X104035000Y-102155000D03*
X104035000Y-99615000D03*
X104035000Y-97075000D03*
X104035000Y-94535000D03*
X88795000Y-94535000D03*
X88795000Y-97075000D03*
X88795000Y-99615000D03*
X88795000Y-102155000D03*
X88795000Y-104695000D03*
X88795000Y-107235000D03*
X88795000Y-109775000D03*
X88795000Y-112315000D03*
X88795000Y-114855000D03*
X88795000Y-117395000D03*
X88795000Y-119935000D03*
X88795000Y-122475000D03*
X88795000Y-125015000D03*
X88795000Y-127555000D03*
X88795000Y-130095000D03*
%TD*%
D26*
%TO.C,Q1*%
X112650000Y-116600000D03*
X112650000Y-117900000D03*
X114650000Y-117250000D03*
%TD*%
D21*
%TO.C,R11*%
X151650000Y-151725000D03*
X151650000Y-153725000D03*
%TD*%
%TO.C,R28*%
X83775000Y-107100000D03*
X83775000Y-109100000D03*
%TD*%
D22*
%TO.C,J3*%
X128990000Y-92600000D03*
X137490000Y-92600000D03*
D23*
X133240000Y-95750000D03*
D24*
X133240000Y-100250000D03*
%TD*%
D27*
%TO.C,REF\u002A\u002A*%
X113035000Y-130000000D03*
%TD*%
D19*
%TO.C,TP1*%
X113650000Y-120550000D03*
%TD*%
D21*
%TO.C,R21*%
X126125000Y-139750000D03*
X126125000Y-141750000D03*
%TD*%
D27*
%TO.C,REF\u002A\u002A*%
X60867641Y-119600000D03*
%TD*%
D18*
%TO.C,R25*%
X100700000Y-145975000D03*
X100700000Y-143975000D03*
%TD*%
D19*
%TO.C,TP3*%
X151700000Y-120300000D03*
%TD*%
D21*
%TO.C,R2*%
X116450000Y-112950000D03*
X116450000Y-114950000D03*
%TD*%
%TO.C,R9*%
X134700000Y-151700000D03*
X134700000Y-153700000D03*
%TD*%
%TO.C,R3*%
X129925000Y-116950000D03*
X129925000Y-118950000D03*
%TD*%
D19*
%TO.C,TP9*%
X116725000Y-108150000D03*
%TD*%
D18*
%TO.C,R12*%
X151650000Y-145900000D03*
X151650000Y-143900000D03*
%TD*%
%TO.C,R19*%
X172975000Y-122000000D03*
X172975000Y-120000000D03*
%TD*%
D21*
%TO.C,R24*%
X100525000Y-151725000D03*
X100525000Y-153725000D03*
%TD*%
D32*
%TO.C,PS1*%
X161890000Y-128962500D03*
X159350000Y-128962500D03*
X156810000Y-128962500D03*
%TD*%
D26*
%TO.C,Q5*%
X150625000Y-116350000D03*
X150625000Y-117650000D03*
X152625000Y-117000000D03*
%TD*%
D22*
%TO.C,J2*%
X109875000Y-92700000D03*
X118375000Y-92700000D03*
D23*
X114125000Y-95850000D03*
D24*
X114125000Y-100350000D03*
%TD*%
D19*
%TO.C,J5*%
X65585000Y-101275000D03*
D20*
X68125000Y-101275000D03*
X70665000Y-101275000D03*
%TD*%
D33*
%TO.C,F1*%
X151525000Y-133112500D03*
X151525000Y-135162500D03*
%TD*%
D18*
%TO.C,R14*%
X117625000Y-145925000D03*
X117625000Y-143925000D03*
%TD*%
D21*
%TO.C,R7*%
X45900000Y-120150000D03*
X45900000Y-122150000D03*
%TD*%
%TO.C,R26*%
X78650000Y-107050000D03*
X78650000Y-109050000D03*
%TD*%
D34*
%TO.C,S10*%
X79040000Y-151355000D03*
D35*
X79040000Y-148815000D03*
X79040000Y-146275000D03*
%TD*%
D36*
%TO.C,D13*%
X97325000Y-141000000D03*
D37*
X94785000Y-141000000D03*
%TD*%
D36*
%TO.C,D9*%
X131325000Y-141000000D03*
D37*
X128785000Y-141000000D03*
%TD*%
D36*
%TO.C,D12*%
X114325000Y-141000000D03*
D37*
X111785000Y-141000000D03*
%TD*%
D34*
%TO.C,S8*%
X147060000Y-151355000D03*
D35*
X147060000Y-148815000D03*
X147060000Y-146275000D03*
%TD*%
D36*
%TO.C,D8*%
X148325000Y-141000000D03*
D37*
X145785000Y-141000000D03*
%TD*%
D36*
%TO.C,D11*%
X178090000Y-120950000D03*
D37*
X175550000Y-120950000D03*
%TD*%
D34*
%TO.C,S7*%
X113060000Y-151355000D03*
D35*
X113060000Y-148815000D03*
X113060000Y-146275000D03*
%TD*%
D34*
%TO.C,S4*%
X130060000Y-151355000D03*
D35*
X130060000Y-148815000D03*
X130060000Y-146275000D03*
%TD*%
D34*
%TO.C,S9*%
X96040000Y-151355000D03*
D35*
X96040000Y-148815000D03*
X96040000Y-146275000D03*
%TD*%
D36*
%TO.C,D14*%
X178090000Y-127950000D03*
D37*
X175550000Y-127950000D03*
%TD*%
D36*
%TO.C,D10*%
X178090000Y-134950000D03*
D37*
X175550000Y-134950000D03*
%TD*%
%LPD*%
M02*
