%TF.GenerationSoftware,KiCad,Pcbnew,7.0.8*%
%TF.CreationDate,2024-02-03T19:33:36-05:00*%
%TF.ProjectId,TelescopeController,54656c65-7363-46f7-9065-436f6e74726f,rev?*%
%TF.SameCoordinates,Original*%
%TF.FileFunction,Legend,Top*%
%TF.FilePolarity,Positive*%
%FSLAX46Y46*%
G04 Gerber Fmt 4.6, Leading zero omitted, Abs format (unit mm)*
G04 Created by KiCad (PCBNEW 7.0.8) date 2024-02-03 19:33:36*
%MOMM*%
%LPD*%
G01*
G04 APERTURE LIST*
G04 Aperture macros list*
%AMRoundRect*
0 Rectangle with rounded corners*
0 $1 Rounding radius*
0 $2 $3 $4 $5 $6 $7 $8 $9 X,Y pos of 4 corners*
0 Add a 4 corners polygon primitive as box body*
4,1,4,$2,$3,$4,$5,$6,$7,$8,$9,$2,$3,0*
0 Add four circle primitives for the rounded corners*
1,1,$1+$1,$2,$3*
1,1,$1+$1,$4,$5*
1,1,$1+$1,$6,$7*
1,1,$1+$1,$8,$9*
0 Add four rect primitives between the rounded corners*
20,1,$1+$1,$2,$3,$4,$5,0*
20,1,$1+$1,$4,$5,$6,$7,0*
20,1,$1+$1,$6,$7,$8,$9,0*
20,1,$1+$1,$8,$9,$2,$3,0*%
G04 Aperture macros list end*
%ADD10C,0.200000*%
%ADD11C,0.150000*%
%ADD12C,0.300000*%
%ADD13C,0.254000*%
%ADD14C,0.120000*%
%ADD15C,0.100000*%
%ADD16RoundRect,0.250000X0.350000X0.450000X-0.350000X0.450000X-0.350000X-0.450000X0.350000X-0.450000X0*%
%ADD17R,1.500000X1.500000*%
%ADD18C,1.500000*%
%ADD19C,1.950000*%
%ADD20R,1.700000X1.700000*%
%ADD21RoundRect,0.250000X-0.350000X-0.450000X0.350000X-0.450000X0.350000X0.450000X-0.350000X0.450000X0*%
%ADD22RoundRect,0.250000X-0.325000X-0.450000X0.325000X-0.450000X0.325000X0.450000X-0.325000X0.450000X0*%
%ADD23C,2.476000*%
%ADD24C,4.227000*%
%ADD25C,4.039000*%
%ADD26C,1.550000*%
%ADD27RoundRect,0.250000X-0.450000X0.350000X-0.450000X-0.350000X0.450000X-0.350000X0.450000X0.350000X0*%
%ADD28RoundRect,0.250000X-0.337500X-0.475000X0.337500X-0.475000X0.337500X0.475000X-0.337500X0.475000X0*%
%ADD29R,1.200000X0.600000*%
%ADD30R,1.000000X0.500000*%
%ADD31C,1.800000*%
%ADD32RoundRect,0.250000X0.325000X0.450000X-0.325000X0.450000X-0.325000X-0.450000X0.325000X-0.450000X0*%
%ADD33C,3.000000*%
%ADD34R,1.600000X1.600000*%
%ADD35O,1.600000X1.600000*%
%ADD36C,5.600000*%
%ADD37O,1.700000X1.700000*%
%ADD38RoundRect,0.250000X-0.450000X0.325000X-0.450000X-0.325000X0.450000X-0.325000X0.450000X0.325000X0*%
G04 APERTURE END LIST*
D10*
X153600000Y-143400000D02*
X186800000Y-143400000D01*
X111000000Y-147500000D02*
X111000000Y-143400000D01*
X100400000Y-147700000D02*
X100400000Y-143600000D01*
D11*
X120200000Y-98925000D02*
X120200000Y-79575000D01*
D10*
X144200000Y-147500000D02*
X144200000Y-143400000D01*
X153600000Y-147500000D02*
X153600000Y-143400000D01*
D11*
X166600000Y-79950000D02*
X166600000Y-115950000D01*
X103000000Y-98925000D02*
X103000000Y-79575000D01*
X97550000Y-98950000D02*
X97550000Y-79600000D01*
X78550000Y-98875000D02*
X78550000Y-79525000D01*
D10*
X186800000Y-147500000D02*
X186800000Y-143400000D01*
D11*
X149100000Y-79900000D02*
X149100000Y-115900000D01*
D10*
X67200000Y-143600000D02*
X100400000Y-143600000D01*
D11*
X105400000Y-124950000D02*
X66100000Y-124950000D01*
X73100000Y-98900000D02*
X73100000Y-79550000D01*
D10*
X67200000Y-147700000D02*
X67200000Y-143600000D01*
D11*
X111600000Y-98925000D02*
X111600000Y-79575000D01*
X114750000Y-98950000D02*
X114750000Y-79600000D01*
X106150000Y-98950000D02*
X106150000Y-79600000D01*
X105500000Y-130850000D02*
X66200000Y-130850000D01*
X128800000Y-98975000D02*
X128800000Y-79625000D01*
D10*
X111000000Y-143400000D02*
X144200000Y-143400000D01*
D11*
X123350000Y-99000000D02*
X123350000Y-79650000D01*
D12*
X114835828Y-113868796D02*
X114835828Y-113011654D01*
X116335828Y-113440225D02*
X114835828Y-113440225D01*
X115550114Y-112511654D02*
X115550114Y-112011654D01*
X116335828Y-111797368D02*
X116335828Y-112511654D01*
X116335828Y-112511654D02*
X114835828Y-112511654D01*
X114835828Y-112511654D02*
X114835828Y-111797368D01*
X116335828Y-111154511D02*
X114835828Y-111154511D01*
X114835828Y-111154511D02*
X115907257Y-110654511D01*
X115907257Y-110654511D02*
X114835828Y-110154511D01*
X114835828Y-110154511D02*
X116335828Y-110154511D01*
X116335828Y-109440225D02*
X114835828Y-109440225D01*
X114835828Y-109440225D02*
X114835828Y-108868796D01*
X114835828Y-108868796D02*
X114907257Y-108725939D01*
X114907257Y-108725939D02*
X114978685Y-108654510D01*
X114978685Y-108654510D02*
X115121542Y-108583082D01*
X115121542Y-108583082D02*
X115335828Y-108583082D01*
X115335828Y-108583082D02*
X115478685Y-108654510D01*
X115478685Y-108654510D02*
X115550114Y-108725939D01*
X115550114Y-108725939D02*
X115621542Y-108868796D01*
X115621542Y-108868796D02*
X115621542Y-109440225D01*
X117250828Y-109511653D02*
X117250828Y-108583081D01*
X117250828Y-108583081D02*
X117822257Y-109083081D01*
X117822257Y-109083081D02*
X117822257Y-108868796D01*
X117822257Y-108868796D02*
X117893685Y-108725939D01*
X117893685Y-108725939D02*
X117965114Y-108654510D01*
X117965114Y-108654510D02*
X118107971Y-108583081D01*
X118107971Y-108583081D02*
X118465114Y-108583081D01*
X118465114Y-108583081D02*
X118607971Y-108654510D01*
X118607971Y-108654510D02*
X118679400Y-108725939D01*
X118679400Y-108725939D02*
X118750828Y-108868796D01*
X118750828Y-108868796D02*
X118750828Y-109297367D01*
X118750828Y-109297367D02*
X118679400Y-109440224D01*
X118679400Y-109440224D02*
X118607971Y-109511653D01*
X171906203Y-131025114D02*
X171406203Y-131025114D01*
X171406203Y-131810828D02*
X171406203Y-130310828D01*
X171406203Y-130310828D02*
X172120489Y-130310828D01*
X173406203Y-131810828D02*
X172691917Y-131810828D01*
X172691917Y-131810828D02*
X172691917Y-130310828D01*
X173834775Y-131382257D02*
X174549061Y-131382257D01*
X173691918Y-131810828D02*
X174191918Y-130310828D01*
X174191918Y-130310828D02*
X174691918Y-131810828D01*
X174977632Y-130310828D02*
X175834775Y-130310828D01*
X175406203Y-131810828D02*
X175406203Y-130310828D01*
X170906202Y-134225828D02*
X170191916Y-134225828D01*
X170191916Y-134225828D02*
X170191916Y-132725828D01*
X171406202Y-134225828D02*
X171406202Y-132725828D01*
X172906203Y-132797257D02*
X172763346Y-132725828D01*
X172763346Y-132725828D02*
X172549060Y-132725828D01*
X172549060Y-132725828D02*
X172334774Y-132797257D01*
X172334774Y-132797257D02*
X172191917Y-132940114D01*
X172191917Y-132940114D02*
X172120488Y-133082971D01*
X172120488Y-133082971D02*
X172049060Y-133368685D01*
X172049060Y-133368685D02*
X172049060Y-133582971D01*
X172049060Y-133582971D02*
X172120488Y-133868685D01*
X172120488Y-133868685D02*
X172191917Y-134011542D01*
X172191917Y-134011542D02*
X172334774Y-134154400D01*
X172334774Y-134154400D02*
X172549060Y-134225828D01*
X172549060Y-134225828D02*
X172691917Y-134225828D01*
X172691917Y-134225828D02*
X172906203Y-134154400D01*
X172906203Y-134154400D02*
X172977631Y-134082971D01*
X172977631Y-134082971D02*
X172977631Y-133582971D01*
X172977631Y-133582971D02*
X172691917Y-133582971D01*
X173620488Y-134225828D02*
X173620488Y-132725828D01*
X173620488Y-133440114D02*
X174477631Y-133440114D01*
X174477631Y-134225828D02*
X174477631Y-132725828D01*
X174977632Y-132725828D02*
X175834775Y-132725828D01*
X175406203Y-134225828D02*
X175406203Y-132725828D01*
X79790225Y-118135828D02*
X78933082Y-118135828D01*
X79361653Y-118135828D02*
X79361653Y-116635828D01*
X79361653Y-116635828D02*
X79218796Y-116850114D01*
X79218796Y-116850114D02*
X79075939Y-116992971D01*
X79075939Y-116992971D02*
X78933082Y-117064400D01*
X80361653Y-116778685D02*
X80433081Y-116707257D01*
X80433081Y-116707257D02*
X80575939Y-116635828D01*
X80575939Y-116635828D02*
X80933081Y-116635828D01*
X80933081Y-116635828D02*
X81075939Y-116707257D01*
X81075939Y-116707257D02*
X81147367Y-116778685D01*
X81147367Y-116778685D02*
X81218796Y-116921542D01*
X81218796Y-116921542D02*
X81218796Y-117064400D01*
X81218796Y-117064400D02*
X81147367Y-117278685D01*
X81147367Y-117278685D02*
X80290224Y-118135828D01*
X80290224Y-118135828D02*
X81218796Y-118135828D01*
X81647367Y-116635828D02*
X82147367Y-118135828D01*
X82147367Y-118135828D02*
X82647367Y-116635828D01*
X79004510Y-120550828D02*
X79004510Y-119050828D01*
X79718796Y-120550828D02*
X79718796Y-119050828D01*
X79718796Y-119050828D02*
X80575939Y-120550828D01*
X80575939Y-120550828D02*
X80575939Y-119050828D01*
X98490225Y-132770828D02*
X98775939Y-132770828D01*
X98775939Y-132770828D02*
X98918796Y-132842257D01*
X98918796Y-132842257D02*
X99061653Y-132985114D01*
X99061653Y-132985114D02*
X99133082Y-133270828D01*
X99133082Y-133270828D02*
X99133082Y-133770828D01*
X99133082Y-133770828D02*
X99061653Y-134056542D01*
X99061653Y-134056542D02*
X98918796Y-134199400D01*
X98918796Y-134199400D02*
X98775939Y-134270828D01*
X98775939Y-134270828D02*
X98490225Y-134270828D01*
X98490225Y-134270828D02*
X98347368Y-134199400D01*
X98347368Y-134199400D02*
X98204510Y-134056542D01*
X98204510Y-134056542D02*
X98133082Y-133770828D01*
X98133082Y-133770828D02*
X98133082Y-133270828D01*
X98133082Y-133270828D02*
X98204510Y-132985114D01*
X98204510Y-132985114D02*
X98347368Y-132842257D01*
X98347368Y-132842257D02*
X98490225Y-132770828D01*
X100275939Y-133485114D02*
X99775939Y-133485114D01*
X99775939Y-134270828D02*
X99775939Y-132770828D01*
X99775939Y-132770828D02*
X100490225Y-132770828D01*
X101561653Y-133485114D02*
X101061653Y-133485114D01*
X101061653Y-134270828D02*
X101061653Y-132770828D01*
X101061653Y-132770828D02*
X101775939Y-132770828D01*
X98133082Y-136257257D02*
X98847368Y-136257257D01*
X97990225Y-136685828D02*
X98490225Y-135185828D01*
X98490225Y-135185828D02*
X98990225Y-136685828D01*
X99490224Y-135185828D02*
X99490224Y-136400114D01*
X99490224Y-136400114D02*
X99561653Y-136542971D01*
X99561653Y-136542971D02*
X99633082Y-136614400D01*
X99633082Y-136614400D02*
X99775939Y-136685828D01*
X99775939Y-136685828D02*
X100061653Y-136685828D01*
X100061653Y-136685828D02*
X100204510Y-136614400D01*
X100204510Y-136614400D02*
X100275939Y-136542971D01*
X100275939Y-136542971D02*
X100347367Y-136400114D01*
X100347367Y-136400114D02*
X100347367Y-135185828D01*
X100847368Y-135185828D02*
X101704511Y-135185828D01*
X101275939Y-136685828D02*
X101275939Y-135185828D01*
X102490225Y-135185828D02*
X102775939Y-135185828D01*
X102775939Y-135185828D02*
X102918796Y-135257257D01*
X102918796Y-135257257D02*
X103061653Y-135400114D01*
X103061653Y-135400114D02*
X103133082Y-135685828D01*
X103133082Y-135685828D02*
X103133082Y-136185828D01*
X103133082Y-136185828D02*
X103061653Y-136471542D01*
X103061653Y-136471542D02*
X102918796Y-136614400D01*
X102918796Y-136614400D02*
X102775939Y-136685828D01*
X102775939Y-136685828D02*
X102490225Y-136685828D01*
X102490225Y-136685828D02*
X102347368Y-136614400D01*
X102347368Y-136614400D02*
X102204510Y-136471542D01*
X102204510Y-136471542D02*
X102133082Y-136185828D01*
X102133082Y-136185828D02*
X102133082Y-135685828D01*
X102133082Y-135685828D02*
X102204510Y-135400114D01*
X102204510Y-135400114D02*
X102347368Y-135257257D01*
X102347368Y-135257257D02*
X102490225Y-135185828D01*
X98490225Y-137600828D02*
X98775939Y-137600828D01*
X98775939Y-137600828D02*
X98918796Y-137672257D01*
X98918796Y-137672257D02*
X99061653Y-137815114D01*
X99061653Y-137815114D02*
X99133082Y-138100828D01*
X99133082Y-138100828D02*
X99133082Y-138600828D01*
X99133082Y-138600828D02*
X99061653Y-138886542D01*
X99061653Y-138886542D02*
X98918796Y-139029400D01*
X98918796Y-139029400D02*
X98775939Y-139100828D01*
X98775939Y-139100828D02*
X98490225Y-139100828D01*
X98490225Y-139100828D02*
X98347368Y-139029400D01*
X98347368Y-139029400D02*
X98204510Y-138886542D01*
X98204510Y-138886542D02*
X98133082Y-138600828D01*
X98133082Y-138600828D02*
X98133082Y-138100828D01*
X98133082Y-138100828D02*
X98204510Y-137815114D01*
X98204510Y-137815114D02*
X98347368Y-137672257D01*
X98347368Y-137672257D02*
X98490225Y-137600828D01*
X99775939Y-139100828D02*
X99775939Y-137600828D01*
X99775939Y-137600828D02*
X100633082Y-139100828D01*
X100633082Y-139100828D02*
X100633082Y-137600828D01*
X105835828Y-113968796D02*
X105835828Y-113111654D01*
X107335828Y-113540225D02*
X105835828Y-113540225D01*
X106550114Y-112611654D02*
X106550114Y-112111654D01*
X107335828Y-111897368D02*
X107335828Y-112611654D01*
X107335828Y-112611654D02*
X105835828Y-112611654D01*
X105835828Y-112611654D02*
X105835828Y-111897368D01*
X107335828Y-111254511D02*
X105835828Y-111254511D01*
X105835828Y-111254511D02*
X106907257Y-110754511D01*
X106907257Y-110754511D02*
X105835828Y-110254511D01*
X105835828Y-110254511D02*
X107335828Y-110254511D01*
X107335828Y-109540225D02*
X105835828Y-109540225D01*
X105835828Y-109540225D02*
X105835828Y-108968796D01*
X105835828Y-108968796D02*
X105907257Y-108825939D01*
X105907257Y-108825939D02*
X105978685Y-108754510D01*
X105978685Y-108754510D02*
X106121542Y-108683082D01*
X106121542Y-108683082D02*
X106335828Y-108683082D01*
X106335828Y-108683082D02*
X106478685Y-108754510D01*
X106478685Y-108754510D02*
X106550114Y-108825939D01*
X106550114Y-108825939D02*
X106621542Y-108968796D01*
X106621542Y-108968796D02*
X106621542Y-109540225D01*
X108393685Y-109540224D02*
X108322257Y-109468796D01*
X108322257Y-109468796D02*
X108250828Y-109325939D01*
X108250828Y-109325939D02*
X108250828Y-108968796D01*
X108250828Y-108968796D02*
X108322257Y-108825939D01*
X108322257Y-108825939D02*
X108393685Y-108754510D01*
X108393685Y-108754510D02*
X108536542Y-108683081D01*
X108536542Y-108683081D02*
X108679400Y-108683081D01*
X108679400Y-108683081D02*
X108893685Y-108754510D01*
X108893685Y-108754510D02*
X109750828Y-109611653D01*
X109750828Y-109611653D02*
X109750828Y-108683081D01*
X154754510Y-124870114D02*
X154254510Y-124870114D01*
X154254510Y-125655828D02*
X154254510Y-124155828D01*
X154254510Y-124155828D02*
X154968796Y-124155828D01*
X156254510Y-125655828D02*
X155540224Y-125655828D01*
X155540224Y-125655828D02*
X155540224Y-124155828D01*
X156754510Y-125655828D02*
X156754510Y-124155828D01*
X157468796Y-125655828D02*
X157468796Y-124155828D01*
X157468796Y-124155828D02*
X158040225Y-124155828D01*
X158040225Y-124155828D02*
X158183082Y-124227257D01*
X158183082Y-124227257D02*
X158254511Y-124298685D01*
X158254511Y-124298685D02*
X158325939Y-124441542D01*
X158325939Y-124441542D02*
X158325939Y-124655828D01*
X158325939Y-124655828D02*
X158254511Y-124798685D01*
X158254511Y-124798685D02*
X158183082Y-124870114D01*
X158183082Y-124870114D02*
X158040225Y-124941542D01*
X158040225Y-124941542D02*
X157468796Y-124941542D01*
X160611653Y-124870114D02*
X160111653Y-124870114D01*
X160111653Y-125655828D02*
X160111653Y-124155828D01*
X160111653Y-124155828D02*
X160825939Y-124155828D01*
X162111653Y-125655828D02*
X161397367Y-125655828D01*
X161397367Y-125655828D02*
X161397367Y-124155828D01*
X162540225Y-125227257D02*
X163254511Y-125227257D01*
X162397368Y-125655828D02*
X162897368Y-124155828D01*
X162897368Y-124155828D02*
X163397368Y-125655828D01*
X163683082Y-124155828D02*
X164540225Y-124155828D01*
X164111653Y-125655828D02*
X164111653Y-124155828D01*
X166111653Y-124084400D02*
X164825939Y-126012971D01*
X154254510Y-128070828D02*
X154254510Y-126570828D01*
X154254510Y-126570828D02*
X154611653Y-126570828D01*
X154611653Y-126570828D02*
X154825939Y-126642257D01*
X154825939Y-126642257D02*
X154968796Y-126785114D01*
X154968796Y-126785114D02*
X155040225Y-126927971D01*
X155040225Y-126927971D02*
X155111653Y-127213685D01*
X155111653Y-127213685D02*
X155111653Y-127427971D01*
X155111653Y-127427971D02*
X155040225Y-127713685D01*
X155040225Y-127713685D02*
X154968796Y-127856542D01*
X154968796Y-127856542D02*
X154825939Y-127999400D01*
X154825939Y-127999400D02*
X154611653Y-128070828D01*
X154611653Y-128070828D02*
X154254510Y-128070828D01*
X155754510Y-127285114D02*
X156254510Y-127285114D01*
X156468796Y-128070828D02*
X155754510Y-128070828D01*
X155754510Y-128070828D02*
X155754510Y-126570828D01*
X155754510Y-126570828D02*
X156468796Y-126570828D01*
X156968796Y-126570828D02*
X157325939Y-128070828D01*
X157325939Y-128070828D02*
X157611653Y-126999400D01*
X157611653Y-126999400D02*
X157897368Y-128070828D01*
X157897368Y-128070828D02*
X158254511Y-126570828D01*
X159968796Y-128070828D02*
X159968796Y-126570828D01*
X159968796Y-127285114D02*
X160825939Y-127285114D01*
X160825939Y-128070828D02*
X160825939Y-126570828D01*
X161540225Y-127285114D02*
X162040225Y-127285114D01*
X162254511Y-128070828D02*
X161540225Y-128070828D01*
X161540225Y-128070828D02*
X161540225Y-126570828D01*
X161540225Y-126570828D02*
X162254511Y-126570828D01*
X162825940Y-127642257D02*
X163540226Y-127642257D01*
X162683083Y-128070828D02*
X163183083Y-126570828D01*
X163183083Y-126570828D02*
X163683083Y-128070828D01*
X163968797Y-126570828D02*
X164825940Y-126570828D01*
X164397368Y-128070828D02*
X164397368Y-126570828D01*
X165325939Y-127285114D02*
X165825939Y-127285114D01*
X166040225Y-128070828D02*
X165325939Y-128070828D01*
X165325939Y-128070828D02*
X165325939Y-126570828D01*
X165325939Y-126570828D02*
X166040225Y-126570828D01*
X167540225Y-128070828D02*
X167040225Y-127356542D01*
X166683082Y-128070828D02*
X166683082Y-126570828D01*
X166683082Y-126570828D02*
X167254511Y-126570828D01*
X167254511Y-126570828D02*
X167397368Y-126642257D01*
X167397368Y-126642257D02*
X167468797Y-126713685D01*
X167468797Y-126713685D02*
X167540225Y-126856542D01*
X167540225Y-126856542D02*
X167540225Y-127070828D01*
X167540225Y-127070828D02*
X167468797Y-127213685D01*
X167468797Y-127213685D02*
X167397368Y-127285114D01*
X167397368Y-127285114D02*
X167254511Y-127356542D01*
X167254511Y-127356542D02*
X166683082Y-127356542D01*
X154111653Y-129485828D02*
X154468796Y-130485828D01*
X154468796Y-130485828D02*
X154825939Y-129485828D01*
X156183082Y-130485828D02*
X155325939Y-130485828D01*
X155754510Y-130485828D02*
X155754510Y-128985828D01*
X155754510Y-128985828D02*
X155611653Y-129200114D01*
X155611653Y-129200114D02*
X155468796Y-129342971D01*
X155468796Y-129342971D02*
X155325939Y-129414400D01*
X156825938Y-130342971D02*
X156897367Y-130414400D01*
X156897367Y-130414400D02*
X156825938Y-130485828D01*
X156825938Y-130485828D02*
X156754510Y-130414400D01*
X156754510Y-130414400D02*
X156825938Y-130342971D01*
X156825938Y-130342971D02*
X156825938Y-130485828D01*
X157825939Y-128985828D02*
X157968796Y-128985828D01*
X157968796Y-128985828D02*
X158111653Y-129057257D01*
X158111653Y-129057257D02*
X158183082Y-129128685D01*
X158183082Y-129128685D02*
X158254510Y-129271542D01*
X158254510Y-129271542D02*
X158325939Y-129557257D01*
X158325939Y-129557257D02*
X158325939Y-129914400D01*
X158325939Y-129914400D02*
X158254510Y-130200114D01*
X158254510Y-130200114D02*
X158183082Y-130342971D01*
X158183082Y-130342971D02*
X158111653Y-130414400D01*
X158111653Y-130414400D02*
X157968796Y-130485828D01*
X157968796Y-130485828D02*
X157825939Y-130485828D01*
X157825939Y-130485828D02*
X157683082Y-130414400D01*
X157683082Y-130414400D02*
X157611653Y-130342971D01*
X157611653Y-130342971D02*
X157540224Y-130200114D01*
X157540224Y-130200114D02*
X157468796Y-129914400D01*
X157468796Y-129914400D02*
X157468796Y-129557257D01*
X157468796Y-129557257D02*
X157540224Y-129271542D01*
X157540224Y-129271542D02*
X157611653Y-129128685D01*
X157611653Y-129128685D02*
X157683082Y-129057257D01*
X157683082Y-129057257D02*
X157825939Y-128985828D01*
X154183082Y-131543685D02*
X154254510Y-131472257D01*
X154254510Y-131472257D02*
X154397368Y-131400828D01*
X154397368Y-131400828D02*
X154754510Y-131400828D01*
X154754510Y-131400828D02*
X154897368Y-131472257D01*
X154897368Y-131472257D02*
X154968796Y-131543685D01*
X154968796Y-131543685D02*
X155040225Y-131686542D01*
X155040225Y-131686542D02*
X155040225Y-131829400D01*
X155040225Y-131829400D02*
X154968796Y-132043685D01*
X154968796Y-132043685D02*
X154111653Y-132900828D01*
X154111653Y-132900828D02*
X155040225Y-132900828D01*
X155968796Y-131400828D02*
X156111653Y-131400828D01*
X156111653Y-131400828D02*
X156254510Y-131472257D01*
X156254510Y-131472257D02*
X156325939Y-131543685D01*
X156325939Y-131543685D02*
X156397367Y-131686542D01*
X156397367Y-131686542D02*
X156468796Y-131972257D01*
X156468796Y-131972257D02*
X156468796Y-132329400D01*
X156468796Y-132329400D02*
X156397367Y-132615114D01*
X156397367Y-132615114D02*
X156325939Y-132757971D01*
X156325939Y-132757971D02*
X156254510Y-132829400D01*
X156254510Y-132829400D02*
X156111653Y-132900828D01*
X156111653Y-132900828D02*
X155968796Y-132900828D01*
X155968796Y-132900828D02*
X155825939Y-132829400D01*
X155825939Y-132829400D02*
X155754510Y-132757971D01*
X155754510Y-132757971D02*
X155683081Y-132615114D01*
X155683081Y-132615114D02*
X155611653Y-132329400D01*
X155611653Y-132329400D02*
X155611653Y-131972257D01*
X155611653Y-131972257D02*
X155683081Y-131686542D01*
X155683081Y-131686542D02*
X155754510Y-131543685D01*
X155754510Y-131543685D02*
X155825939Y-131472257D01*
X155825939Y-131472257D02*
X155968796Y-131400828D01*
X157040224Y-131543685D02*
X157111652Y-131472257D01*
X157111652Y-131472257D02*
X157254510Y-131400828D01*
X157254510Y-131400828D02*
X157611652Y-131400828D01*
X157611652Y-131400828D02*
X157754510Y-131472257D01*
X157754510Y-131472257D02*
X157825938Y-131543685D01*
X157825938Y-131543685D02*
X157897367Y-131686542D01*
X157897367Y-131686542D02*
X157897367Y-131829400D01*
X157897367Y-131829400D02*
X157825938Y-132043685D01*
X157825938Y-132043685D02*
X156968795Y-132900828D01*
X156968795Y-132900828D02*
X157897367Y-132900828D01*
X158397366Y-131400828D02*
X159325938Y-131400828D01*
X159325938Y-131400828D02*
X158825938Y-131972257D01*
X158825938Y-131972257D02*
X159040223Y-131972257D01*
X159040223Y-131972257D02*
X159183081Y-132043685D01*
X159183081Y-132043685D02*
X159254509Y-132115114D01*
X159254509Y-132115114D02*
X159325938Y-132257971D01*
X159325938Y-132257971D02*
X159325938Y-132615114D01*
X159325938Y-132615114D02*
X159254509Y-132757971D01*
X159254509Y-132757971D02*
X159183081Y-132829400D01*
X159183081Y-132829400D02*
X159040223Y-132900828D01*
X159040223Y-132900828D02*
X158611652Y-132900828D01*
X158611652Y-132900828D02*
X158468795Y-132829400D01*
X158468795Y-132829400D02*
X158397366Y-132757971D01*
X159968794Y-132329400D02*
X161111652Y-132329400D01*
X162611652Y-132900828D02*
X161754509Y-132900828D01*
X162183080Y-132900828D02*
X162183080Y-131400828D01*
X162183080Y-131400828D02*
X162040223Y-131615114D01*
X162040223Y-131615114D02*
X161897366Y-131757971D01*
X161897366Y-131757971D02*
X161754509Y-131829400D01*
X163540223Y-131400828D02*
X163683080Y-131400828D01*
X163683080Y-131400828D02*
X163825937Y-131472257D01*
X163825937Y-131472257D02*
X163897366Y-131543685D01*
X163897366Y-131543685D02*
X163968794Y-131686542D01*
X163968794Y-131686542D02*
X164040223Y-131972257D01*
X164040223Y-131972257D02*
X164040223Y-132329400D01*
X164040223Y-132329400D02*
X163968794Y-132615114D01*
X163968794Y-132615114D02*
X163897366Y-132757971D01*
X163897366Y-132757971D02*
X163825937Y-132829400D01*
X163825937Y-132829400D02*
X163683080Y-132900828D01*
X163683080Y-132900828D02*
X163540223Y-132900828D01*
X163540223Y-132900828D02*
X163397366Y-132829400D01*
X163397366Y-132829400D02*
X163325937Y-132757971D01*
X163325937Y-132757971D02*
X163254508Y-132615114D01*
X163254508Y-132615114D02*
X163183080Y-132329400D01*
X163183080Y-132329400D02*
X163183080Y-131972257D01*
X163183080Y-131972257D02*
X163254508Y-131686542D01*
X163254508Y-131686542D02*
X163325937Y-131543685D01*
X163325937Y-131543685D02*
X163397366Y-131472257D01*
X163397366Y-131472257D02*
X163540223Y-131400828D01*
X164683079Y-132329400D02*
X165825937Y-132329400D01*
X167325937Y-132900828D02*
X166468794Y-132900828D01*
X166897365Y-132900828D02*
X166897365Y-131400828D01*
X166897365Y-131400828D02*
X166754508Y-131615114D01*
X166754508Y-131615114D02*
X166611651Y-131757971D01*
X166611651Y-131757971D02*
X166468794Y-131829400D01*
X168611651Y-131400828D02*
X168325936Y-131400828D01*
X168325936Y-131400828D02*
X168183079Y-131472257D01*
X168183079Y-131472257D02*
X168111651Y-131543685D01*
X168111651Y-131543685D02*
X167968793Y-131757971D01*
X167968793Y-131757971D02*
X167897365Y-132043685D01*
X167897365Y-132043685D02*
X167897365Y-132615114D01*
X167897365Y-132615114D02*
X167968793Y-132757971D01*
X167968793Y-132757971D02*
X168040222Y-132829400D01*
X168040222Y-132829400D02*
X168183079Y-132900828D01*
X168183079Y-132900828D02*
X168468793Y-132900828D01*
X168468793Y-132900828D02*
X168611651Y-132829400D01*
X168611651Y-132829400D02*
X168683079Y-132757971D01*
X168683079Y-132757971D02*
X168754508Y-132615114D01*
X168754508Y-132615114D02*
X168754508Y-132257971D01*
X168754508Y-132257971D02*
X168683079Y-132115114D01*
X168683079Y-132115114D02*
X168611651Y-132043685D01*
X168611651Y-132043685D02*
X168468793Y-131972257D01*
X168468793Y-131972257D02*
X168183079Y-131972257D01*
X168183079Y-131972257D02*
X168040222Y-132043685D01*
X168040222Y-132043685D02*
X167968793Y-132115114D01*
X167968793Y-132115114D02*
X167897365Y-132257971D01*
X180185828Y-100504511D02*
X178685828Y-100504511D01*
X179400114Y-100504511D02*
X179400114Y-99647368D01*
X180185828Y-99647368D02*
X178685828Y-99647368D01*
X179400114Y-98933082D02*
X179400114Y-98433082D01*
X180185828Y-98218796D02*
X180185828Y-98933082D01*
X180185828Y-98933082D02*
X178685828Y-98933082D01*
X178685828Y-98933082D02*
X178685828Y-98218796D01*
X179757257Y-97647367D02*
X179757257Y-96933082D01*
X180185828Y-97790224D02*
X178685828Y-97290224D01*
X178685828Y-97290224D02*
X180185828Y-96790224D01*
X178685828Y-96504510D02*
X178685828Y-95647368D01*
X180185828Y-96075939D02*
X178685828Y-96075939D01*
X179400114Y-95147368D02*
X179400114Y-94647368D01*
X180185828Y-94433082D02*
X180185828Y-95147368D01*
X180185828Y-95147368D02*
X178685828Y-95147368D01*
X178685828Y-95147368D02*
X178685828Y-94433082D01*
X180185828Y-92933082D02*
X179471542Y-93433082D01*
X180185828Y-93790225D02*
X178685828Y-93790225D01*
X178685828Y-93790225D02*
X178685828Y-93218796D01*
X178685828Y-93218796D02*
X178757257Y-93075939D01*
X178757257Y-93075939D02*
X178828685Y-93004510D01*
X178828685Y-93004510D02*
X178971542Y-92933082D01*
X178971542Y-92933082D02*
X179185828Y-92933082D01*
X179185828Y-92933082D02*
X179328685Y-93004510D01*
X179328685Y-93004510D02*
X179400114Y-93075939D01*
X179400114Y-93075939D02*
X179471542Y-93218796D01*
X179471542Y-93218796D02*
X179471542Y-93790225D01*
X181100828Y-93861653D02*
X181100828Y-92933081D01*
X181100828Y-92933081D02*
X181672257Y-93433081D01*
X181672257Y-93433081D02*
X181672257Y-93218796D01*
X181672257Y-93218796D02*
X181743685Y-93075939D01*
X181743685Y-93075939D02*
X181815114Y-93004510D01*
X181815114Y-93004510D02*
X181957971Y-92933081D01*
X181957971Y-92933081D02*
X182315114Y-92933081D01*
X182315114Y-92933081D02*
X182457971Y-93004510D01*
X182457971Y-93004510D02*
X182529400Y-93075939D01*
X182529400Y-93075939D02*
X182600828Y-93218796D01*
X182600828Y-93218796D02*
X182600828Y-93647367D01*
X182600828Y-93647367D02*
X182529400Y-93790224D01*
X182529400Y-93790224D02*
X182457971Y-93861653D01*
X162554510Y-142500828D02*
X162554510Y-141000828D01*
X162554510Y-141000828D02*
X162911653Y-141000828D01*
X162911653Y-141000828D02*
X163125939Y-141072257D01*
X163125939Y-141072257D02*
X163268796Y-141215114D01*
X163268796Y-141215114D02*
X163340225Y-141357971D01*
X163340225Y-141357971D02*
X163411653Y-141643685D01*
X163411653Y-141643685D02*
X163411653Y-141857971D01*
X163411653Y-141857971D02*
X163340225Y-142143685D01*
X163340225Y-142143685D02*
X163268796Y-142286542D01*
X163268796Y-142286542D02*
X163125939Y-142429400D01*
X163125939Y-142429400D02*
X162911653Y-142500828D01*
X162911653Y-142500828D02*
X162554510Y-142500828D01*
X164054510Y-141715114D02*
X164554510Y-141715114D01*
X164768796Y-142500828D02*
X164054510Y-142500828D01*
X164054510Y-142500828D02*
X164054510Y-141000828D01*
X164054510Y-141000828D02*
X164768796Y-141000828D01*
X165268796Y-141000828D02*
X165625939Y-142500828D01*
X165625939Y-142500828D02*
X165911653Y-141429400D01*
X165911653Y-141429400D02*
X166197368Y-142500828D01*
X166197368Y-142500828D02*
X166554511Y-141000828D01*
X168268796Y-142500828D02*
X168268796Y-141000828D01*
X168268796Y-141715114D02*
X169125939Y-141715114D01*
X169125939Y-142500828D02*
X169125939Y-141000828D01*
X169840225Y-141715114D02*
X170340225Y-141715114D01*
X170554511Y-142500828D02*
X169840225Y-142500828D01*
X169840225Y-142500828D02*
X169840225Y-141000828D01*
X169840225Y-141000828D02*
X170554511Y-141000828D01*
X171125940Y-142072257D02*
X171840226Y-142072257D01*
X170983083Y-142500828D02*
X171483083Y-141000828D01*
X171483083Y-141000828D02*
X171983083Y-142500828D01*
X172268797Y-141000828D02*
X173125940Y-141000828D01*
X172697368Y-142500828D02*
X172697368Y-141000828D01*
X173625939Y-141715114D02*
X174125939Y-141715114D01*
X174340225Y-142500828D02*
X173625939Y-142500828D01*
X173625939Y-142500828D02*
X173625939Y-141000828D01*
X173625939Y-141000828D02*
X174340225Y-141000828D01*
X175840225Y-142500828D02*
X175340225Y-141786542D01*
X174983082Y-142500828D02*
X174983082Y-141000828D01*
X174983082Y-141000828D02*
X175554511Y-141000828D01*
X175554511Y-141000828D02*
X175697368Y-141072257D01*
X175697368Y-141072257D02*
X175768797Y-141143685D01*
X175768797Y-141143685D02*
X175840225Y-141286542D01*
X175840225Y-141286542D02*
X175840225Y-141500828D01*
X175840225Y-141500828D02*
X175768797Y-141643685D01*
X175768797Y-141643685D02*
X175697368Y-141715114D01*
X175697368Y-141715114D02*
X175554511Y-141786542D01*
X175554511Y-141786542D02*
X174983082Y-141786542D01*
X178411654Y-142500828D02*
X177554511Y-142500828D01*
X177983082Y-142500828D02*
X177983082Y-141000828D01*
X177983082Y-141000828D02*
X177840225Y-141215114D01*
X177840225Y-141215114D02*
X177697368Y-141357971D01*
X177697368Y-141357971D02*
X177554511Y-141429400D01*
X68200114Y-101095489D02*
X68200114Y-101595489D01*
X68985828Y-101595489D02*
X67485828Y-101595489D01*
X67485828Y-101595489D02*
X67485828Y-100881203D01*
X68985828Y-99595489D02*
X68985828Y-100309775D01*
X68985828Y-100309775D02*
X67485828Y-100309775D01*
X68557257Y-99166917D02*
X68557257Y-98452632D01*
X68985828Y-99309774D02*
X67485828Y-98809774D01*
X67485828Y-98809774D02*
X68985828Y-98309774D01*
X67485828Y-98024060D02*
X67485828Y-97166918D01*
X68985828Y-97595489D02*
X67485828Y-97595489D01*
X71400828Y-100881203D02*
X71400828Y-101595489D01*
X71400828Y-101595489D02*
X69900828Y-101595489D01*
X71400828Y-100381203D02*
X69900828Y-100381203D01*
X69972257Y-98881202D02*
X69900828Y-99024060D01*
X69900828Y-99024060D02*
X69900828Y-99238345D01*
X69900828Y-99238345D02*
X69972257Y-99452631D01*
X69972257Y-99452631D02*
X70115114Y-99595488D01*
X70115114Y-99595488D02*
X70257971Y-99666917D01*
X70257971Y-99666917D02*
X70543685Y-99738345D01*
X70543685Y-99738345D02*
X70757971Y-99738345D01*
X70757971Y-99738345D02*
X71043685Y-99666917D01*
X71043685Y-99666917D02*
X71186542Y-99595488D01*
X71186542Y-99595488D02*
X71329400Y-99452631D01*
X71329400Y-99452631D02*
X71400828Y-99238345D01*
X71400828Y-99238345D02*
X71400828Y-99095488D01*
X71400828Y-99095488D02*
X71329400Y-98881202D01*
X71329400Y-98881202D02*
X71257971Y-98809774D01*
X71257971Y-98809774D02*
X70757971Y-98809774D01*
X70757971Y-98809774D02*
X70757971Y-99095488D01*
X71400828Y-98166917D02*
X69900828Y-98166917D01*
X70615114Y-98166917D02*
X70615114Y-97309774D01*
X71400828Y-97309774D02*
X69900828Y-97309774D01*
X69900828Y-96809773D02*
X69900828Y-95952631D01*
X71400828Y-96381202D02*
X69900828Y-96381202D01*
X93010225Y-115775828D02*
X92153082Y-115775828D01*
X92581653Y-115775828D02*
X92581653Y-114275828D01*
X92581653Y-114275828D02*
X92438796Y-114490114D01*
X92438796Y-114490114D02*
X92295939Y-114632971D01*
X92295939Y-114632971D02*
X92153082Y-114704400D01*
X93581653Y-114418685D02*
X93653081Y-114347257D01*
X93653081Y-114347257D02*
X93795939Y-114275828D01*
X93795939Y-114275828D02*
X94153081Y-114275828D01*
X94153081Y-114275828D02*
X94295939Y-114347257D01*
X94295939Y-114347257D02*
X94367367Y-114418685D01*
X94367367Y-114418685D02*
X94438796Y-114561542D01*
X94438796Y-114561542D02*
X94438796Y-114704400D01*
X94438796Y-114704400D02*
X94367367Y-114918685D01*
X94367367Y-114918685D02*
X93510224Y-115775828D01*
X93510224Y-115775828D02*
X94438796Y-115775828D01*
X94867367Y-114275828D02*
X95367367Y-115775828D01*
X95367367Y-115775828D02*
X95867367Y-114275828D01*
X92059774Y-134270828D02*
X91345488Y-134270828D01*
X91345488Y-134270828D02*
X91345488Y-132770828D01*
X92559774Y-133485114D02*
X93059774Y-133485114D01*
X93274060Y-134270828D02*
X92559774Y-134270828D01*
X92559774Y-134270828D02*
X92559774Y-132770828D01*
X92559774Y-132770828D02*
X93274060Y-132770828D01*
X94416917Y-133485114D02*
X93916917Y-133485114D01*
X93916917Y-134270828D02*
X93916917Y-132770828D01*
X93916917Y-132770828D02*
X94631203Y-132770828D01*
X94988346Y-132770828D02*
X95845489Y-132770828D01*
X95416917Y-134270828D02*
X95416917Y-132770828D01*
X96345488Y-134127971D02*
X96416917Y-134199400D01*
X96416917Y-134199400D02*
X96345488Y-134270828D01*
X96345488Y-134270828D02*
X96274060Y-134199400D01*
X96274060Y-134199400D02*
X96345488Y-134127971D01*
X96345488Y-134127971D02*
X96345488Y-134270828D01*
X96345488Y-133342257D02*
X96416917Y-133413685D01*
X96416917Y-133413685D02*
X96345488Y-133485114D01*
X96345488Y-133485114D02*
X96274060Y-133413685D01*
X96274060Y-133413685D02*
X96345488Y-133342257D01*
X96345488Y-133342257D02*
X96345488Y-133485114D01*
X88774059Y-136542971D02*
X88702631Y-136614400D01*
X88702631Y-136614400D02*
X88488345Y-136685828D01*
X88488345Y-136685828D02*
X88345488Y-136685828D01*
X88345488Y-136685828D02*
X88131202Y-136614400D01*
X88131202Y-136614400D02*
X87988345Y-136471542D01*
X87988345Y-136471542D02*
X87916916Y-136328685D01*
X87916916Y-136328685D02*
X87845488Y-136042971D01*
X87845488Y-136042971D02*
X87845488Y-135828685D01*
X87845488Y-135828685D02*
X87916916Y-135542971D01*
X87916916Y-135542971D02*
X87988345Y-135400114D01*
X87988345Y-135400114D02*
X88131202Y-135257257D01*
X88131202Y-135257257D02*
X88345488Y-135185828D01*
X88345488Y-135185828D02*
X88488345Y-135185828D01*
X88488345Y-135185828D02*
X88702631Y-135257257D01*
X88702631Y-135257257D02*
X88774059Y-135328685D01*
X89416916Y-135900114D02*
X89916916Y-135900114D01*
X90131202Y-136685828D02*
X89416916Y-136685828D01*
X89416916Y-136685828D02*
X89416916Y-135185828D01*
X89416916Y-135185828D02*
X90131202Y-135185828D01*
X90774059Y-136685828D02*
X90774059Y-135185828D01*
X90774059Y-135185828D02*
X91631202Y-136685828D01*
X91631202Y-136685828D02*
X91631202Y-135185828D01*
X92131203Y-135185828D02*
X92988346Y-135185828D01*
X92559774Y-136685828D02*
X92559774Y-135185828D01*
X93488345Y-135900114D02*
X93988345Y-135900114D01*
X94202631Y-136685828D02*
X93488345Y-136685828D01*
X93488345Y-136685828D02*
X93488345Y-135185828D01*
X93488345Y-135185828D02*
X94202631Y-135185828D01*
X95702631Y-136685828D02*
X95202631Y-135971542D01*
X94845488Y-136685828D02*
X94845488Y-135185828D01*
X94845488Y-135185828D02*
X95416917Y-135185828D01*
X95416917Y-135185828D02*
X95559774Y-135257257D01*
X95559774Y-135257257D02*
X95631203Y-135328685D01*
X95631203Y-135328685D02*
X95702631Y-135471542D01*
X95702631Y-135471542D02*
X95702631Y-135685828D01*
X95702631Y-135685828D02*
X95631203Y-135828685D01*
X95631203Y-135828685D02*
X95559774Y-135900114D01*
X95559774Y-135900114D02*
X95416917Y-135971542D01*
X95416917Y-135971542D02*
X94845488Y-135971542D01*
X96345488Y-136542971D02*
X96416917Y-136614400D01*
X96416917Y-136614400D02*
X96345488Y-136685828D01*
X96345488Y-136685828D02*
X96274060Y-136614400D01*
X96274060Y-136614400D02*
X96345488Y-136542971D01*
X96345488Y-136542971D02*
X96345488Y-136685828D01*
X96345488Y-135757257D02*
X96416917Y-135828685D01*
X96416917Y-135828685D02*
X96345488Y-135900114D01*
X96345488Y-135900114D02*
X96274060Y-135828685D01*
X96274060Y-135828685D02*
X96345488Y-135757257D01*
X96345488Y-135757257D02*
X96345488Y-135900114D01*
X90774059Y-139100828D02*
X90274059Y-138386542D01*
X89916916Y-139100828D02*
X89916916Y-137600828D01*
X89916916Y-137600828D02*
X90488345Y-137600828D01*
X90488345Y-137600828D02*
X90631202Y-137672257D01*
X90631202Y-137672257D02*
X90702631Y-137743685D01*
X90702631Y-137743685D02*
X90774059Y-137886542D01*
X90774059Y-137886542D02*
X90774059Y-138100828D01*
X90774059Y-138100828D02*
X90702631Y-138243685D01*
X90702631Y-138243685D02*
X90631202Y-138315114D01*
X90631202Y-138315114D02*
X90488345Y-138386542D01*
X90488345Y-138386542D02*
X89916916Y-138386542D01*
X91416916Y-139100828D02*
X91416916Y-137600828D01*
X92916917Y-137672257D02*
X92774060Y-137600828D01*
X92774060Y-137600828D02*
X92559774Y-137600828D01*
X92559774Y-137600828D02*
X92345488Y-137672257D01*
X92345488Y-137672257D02*
X92202631Y-137815114D01*
X92202631Y-137815114D02*
X92131202Y-137957971D01*
X92131202Y-137957971D02*
X92059774Y-138243685D01*
X92059774Y-138243685D02*
X92059774Y-138457971D01*
X92059774Y-138457971D02*
X92131202Y-138743685D01*
X92131202Y-138743685D02*
X92202631Y-138886542D01*
X92202631Y-138886542D02*
X92345488Y-139029400D01*
X92345488Y-139029400D02*
X92559774Y-139100828D01*
X92559774Y-139100828D02*
X92702631Y-139100828D01*
X92702631Y-139100828D02*
X92916917Y-139029400D01*
X92916917Y-139029400D02*
X92988345Y-138957971D01*
X92988345Y-138957971D02*
X92988345Y-138457971D01*
X92988345Y-138457971D02*
X92702631Y-138457971D01*
X93631202Y-139100828D02*
X93631202Y-137600828D01*
X93631202Y-138315114D02*
X94488345Y-138315114D01*
X94488345Y-139100828D02*
X94488345Y-137600828D01*
X94988346Y-137600828D02*
X95845489Y-137600828D01*
X95416917Y-139100828D02*
X95416917Y-137600828D01*
X96345488Y-138957971D02*
X96416917Y-139029400D01*
X96416917Y-139029400D02*
X96345488Y-139100828D01*
X96345488Y-139100828D02*
X96274060Y-139029400D01*
X96274060Y-139029400D02*
X96345488Y-138957971D01*
X96345488Y-138957971D02*
X96345488Y-139100828D01*
X96345488Y-138172257D02*
X96416917Y-138243685D01*
X96416917Y-138243685D02*
X96345488Y-138315114D01*
X96345488Y-138315114D02*
X96274060Y-138243685D01*
X96274060Y-138243685D02*
X96345488Y-138172257D01*
X96345488Y-138172257D02*
X96345488Y-138315114D01*
X81185828Y-85297368D02*
X81185828Y-86011654D01*
X81185828Y-86011654D02*
X79685828Y-86011654D01*
X80400114Y-84797368D02*
X80400114Y-84297368D01*
X81185828Y-84083082D02*
X81185828Y-84797368D01*
X81185828Y-84797368D02*
X79685828Y-84797368D01*
X79685828Y-84797368D02*
X79685828Y-84083082D01*
X81185828Y-83440225D02*
X79685828Y-83440225D01*
X79685828Y-83440225D02*
X81185828Y-82583082D01*
X81185828Y-82583082D02*
X79685828Y-82583082D01*
X81114400Y-81940224D02*
X81185828Y-81725939D01*
X81185828Y-81725939D02*
X81185828Y-81368796D01*
X81185828Y-81368796D02*
X81114400Y-81225939D01*
X81114400Y-81225939D02*
X81042971Y-81154510D01*
X81042971Y-81154510D02*
X80900114Y-81083081D01*
X80900114Y-81083081D02*
X80757257Y-81083081D01*
X80757257Y-81083081D02*
X80614400Y-81154510D01*
X80614400Y-81154510D02*
X80542971Y-81225939D01*
X80542971Y-81225939D02*
X80471542Y-81368796D01*
X80471542Y-81368796D02*
X80400114Y-81654510D01*
X80400114Y-81654510D02*
X80328685Y-81797367D01*
X80328685Y-81797367D02*
X80257257Y-81868796D01*
X80257257Y-81868796D02*
X80114400Y-81940224D01*
X80114400Y-81940224D02*
X79971542Y-81940224D01*
X79971542Y-81940224D02*
X79828685Y-81868796D01*
X79828685Y-81868796D02*
X79757257Y-81797367D01*
X79757257Y-81797367D02*
X79685828Y-81654510D01*
X79685828Y-81654510D02*
X79685828Y-81297367D01*
X79685828Y-81297367D02*
X79757257Y-81083081D01*
X83457971Y-83868796D02*
X83529400Y-83940224D01*
X83529400Y-83940224D02*
X83600828Y-84154510D01*
X83600828Y-84154510D02*
X83600828Y-84297367D01*
X83600828Y-84297367D02*
X83529400Y-84511653D01*
X83529400Y-84511653D02*
X83386542Y-84654510D01*
X83386542Y-84654510D02*
X83243685Y-84725939D01*
X83243685Y-84725939D02*
X82957971Y-84797367D01*
X82957971Y-84797367D02*
X82743685Y-84797367D01*
X82743685Y-84797367D02*
X82457971Y-84725939D01*
X82457971Y-84725939D02*
X82315114Y-84654510D01*
X82315114Y-84654510D02*
X82172257Y-84511653D01*
X82172257Y-84511653D02*
X82100828Y-84297367D01*
X82100828Y-84297367D02*
X82100828Y-84154510D01*
X82100828Y-84154510D02*
X82172257Y-83940224D01*
X82172257Y-83940224D02*
X82243685Y-83868796D01*
X83172257Y-83297367D02*
X83172257Y-82583082D01*
X83600828Y-83440224D02*
X82100828Y-82940224D01*
X82100828Y-82940224D02*
X83600828Y-82440224D01*
X83600828Y-81940225D02*
X82100828Y-81940225D01*
X82100828Y-81940225D02*
X82100828Y-81368796D01*
X82100828Y-81368796D02*
X82172257Y-81225939D01*
X82172257Y-81225939D02*
X82243685Y-81154510D01*
X82243685Y-81154510D02*
X82386542Y-81083082D01*
X82386542Y-81083082D02*
X82600828Y-81083082D01*
X82600828Y-81083082D02*
X82743685Y-81154510D01*
X82743685Y-81154510D02*
X82815114Y-81225939D01*
X82815114Y-81225939D02*
X82886542Y-81368796D01*
X82886542Y-81368796D02*
X82886542Y-81940225D01*
X164800828Y-103825939D02*
X163300828Y-103825939D01*
X164015114Y-103825939D02*
X164015114Y-102968796D01*
X164800828Y-102968796D02*
X163300828Y-102968796D01*
X164015114Y-102254510D02*
X164015114Y-101754510D01*
X164800828Y-101540224D02*
X164800828Y-102254510D01*
X164800828Y-102254510D02*
X163300828Y-102254510D01*
X163300828Y-102254510D02*
X163300828Y-101540224D01*
X164372257Y-100968795D02*
X164372257Y-100254510D01*
X164800828Y-101111652D02*
X163300828Y-100611652D01*
X163300828Y-100611652D02*
X164800828Y-100111652D01*
X163300828Y-99825938D02*
X163300828Y-98968796D01*
X164800828Y-99397367D02*
X163300828Y-99397367D01*
X164015114Y-98468796D02*
X164015114Y-97968796D01*
X164800828Y-97754510D02*
X164800828Y-98468796D01*
X164800828Y-98468796D02*
X163300828Y-98468796D01*
X163300828Y-98468796D02*
X163300828Y-97754510D01*
X164800828Y-96254510D02*
X164086542Y-96754510D01*
X164800828Y-97111653D02*
X163300828Y-97111653D01*
X163300828Y-97111653D02*
X163300828Y-96540224D01*
X163300828Y-96540224D02*
X163372257Y-96397367D01*
X163372257Y-96397367D02*
X163443685Y-96325938D01*
X163443685Y-96325938D02*
X163586542Y-96254510D01*
X163586542Y-96254510D02*
X163800828Y-96254510D01*
X163800828Y-96254510D02*
X163943685Y-96325938D01*
X163943685Y-96325938D02*
X164015114Y-96397367D01*
X164015114Y-96397367D02*
X164086542Y-96540224D01*
X164086542Y-96540224D02*
X164086542Y-97111653D01*
X163443685Y-94540224D02*
X163372257Y-94468796D01*
X163372257Y-94468796D02*
X163300828Y-94325939D01*
X163300828Y-94325939D02*
X163300828Y-93968796D01*
X163300828Y-93968796D02*
X163372257Y-93825939D01*
X163372257Y-93825939D02*
X163443685Y-93754510D01*
X163443685Y-93754510D02*
X163586542Y-93683081D01*
X163586542Y-93683081D02*
X163729400Y-93683081D01*
X163729400Y-93683081D02*
X163943685Y-93754510D01*
X163943685Y-93754510D02*
X164800828Y-94611653D01*
X164800828Y-94611653D02*
X164800828Y-93683081D01*
X146000828Y-104625939D02*
X144500828Y-104625939D01*
X145215114Y-104625939D02*
X145215114Y-103768796D01*
X146000828Y-103768796D02*
X144500828Y-103768796D01*
X145215114Y-103054510D02*
X145215114Y-102554510D01*
X146000828Y-102340224D02*
X146000828Y-103054510D01*
X146000828Y-103054510D02*
X144500828Y-103054510D01*
X144500828Y-103054510D02*
X144500828Y-102340224D01*
X145572257Y-101768795D02*
X145572257Y-101054510D01*
X146000828Y-101911652D02*
X144500828Y-101411652D01*
X144500828Y-101411652D02*
X146000828Y-100911652D01*
X144500828Y-100625938D02*
X144500828Y-99768796D01*
X146000828Y-100197367D02*
X144500828Y-100197367D01*
X145215114Y-99268796D02*
X145215114Y-98768796D01*
X146000828Y-98554510D02*
X146000828Y-99268796D01*
X146000828Y-99268796D02*
X144500828Y-99268796D01*
X144500828Y-99268796D02*
X144500828Y-98554510D01*
X146000828Y-97054510D02*
X145286542Y-97554510D01*
X146000828Y-97911653D02*
X144500828Y-97911653D01*
X144500828Y-97911653D02*
X144500828Y-97340224D01*
X144500828Y-97340224D02*
X144572257Y-97197367D01*
X144572257Y-97197367D02*
X144643685Y-97125938D01*
X144643685Y-97125938D02*
X144786542Y-97054510D01*
X144786542Y-97054510D02*
X145000828Y-97054510D01*
X145000828Y-97054510D02*
X145143685Y-97125938D01*
X145143685Y-97125938D02*
X145215114Y-97197367D01*
X145215114Y-97197367D02*
X145286542Y-97340224D01*
X145286542Y-97340224D02*
X145286542Y-97911653D01*
X146000828Y-94483081D02*
X146000828Y-95340224D01*
X146000828Y-94911653D02*
X144500828Y-94911653D01*
X144500828Y-94911653D02*
X144715114Y-95054510D01*
X144715114Y-95054510D02*
X144857971Y-95197367D01*
X144857971Y-95197367D02*
X144929400Y-95340224D01*
X92838796Y-118175828D02*
X92124510Y-118175828D01*
X92124510Y-118175828D02*
X92053082Y-118890114D01*
X92053082Y-118890114D02*
X92124510Y-118818685D01*
X92124510Y-118818685D02*
X92267368Y-118747257D01*
X92267368Y-118747257D02*
X92624510Y-118747257D01*
X92624510Y-118747257D02*
X92767368Y-118818685D01*
X92767368Y-118818685D02*
X92838796Y-118890114D01*
X92838796Y-118890114D02*
X92910225Y-119032971D01*
X92910225Y-119032971D02*
X92910225Y-119390114D01*
X92910225Y-119390114D02*
X92838796Y-119532971D01*
X92838796Y-119532971D02*
X92767368Y-119604400D01*
X92767368Y-119604400D02*
X92624510Y-119675828D01*
X92624510Y-119675828D02*
X92267368Y-119675828D01*
X92267368Y-119675828D02*
X92124510Y-119604400D01*
X92124510Y-119604400D02*
X92053082Y-119532971D01*
X93338796Y-118175828D02*
X93838796Y-119675828D01*
X93838796Y-119675828D02*
X94338796Y-118175828D01*
X94838795Y-119675828D02*
X94838795Y-118175828D01*
X94838795Y-118890114D02*
X95695938Y-118890114D01*
X95695938Y-119675828D02*
X95695938Y-118175828D01*
X97267367Y-119532971D02*
X97195939Y-119604400D01*
X97195939Y-119604400D02*
X96981653Y-119675828D01*
X96981653Y-119675828D02*
X96838796Y-119675828D01*
X96838796Y-119675828D02*
X96624510Y-119604400D01*
X96624510Y-119604400D02*
X96481653Y-119461542D01*
X96481653Y-119461542D02*
X96410224Y-119318685D01*
X96410224Y-119318685D02*
X96338796Y-119032971D01*
X96338796Y-119032971D02*
X96338796Y-118818685D01*
X96338796Y-118818685D02*
X96410224Y-118532971D01*
X96410224Y-118532971D02*
X96481653Y-118390114D01*
X96481653Y-118390114D02*
X96624510Y-118247257D01*
X96624510Y-118247257D02*
X96838796Y-118175828D01*
X96838796Y-118175828D02*
X96981653Y-118175828D01*
X96981653Y-118175828D02*
X97195939Y-118247257D01*
X97195939Y-118247257D02*
X97267367Y-118318685D01*
X97185828Y-113768796D02*
X97185828Y-112911654D01*
X98685828Y-113340225D02*
X97185828Y-113340225D01*
X97900114Y-112411654D02*
X97900114Y-111911654D01*
X98685828Y-111697368D02*
X98685828Y-112411654D01*
X98685828Y-112411654D02*
X97185828Y-112411654D01*
X97185828Y-112411654D02*
X97185828Y-111697368D01*
X98685828Y-111054511D02*
X97185828Y-111054511D01*
X97185828Y-111054511D02*
X98257257Y-110554511D01*
X98257257Y-110554511D02*
X97185828Y-110054511D01*
X97185828Y-110054511D02*
X98685828Y-110054511D01*
X98685828Y-109340225D02*
X97185828Y-109340225D01*
X97185828Y-109340225D02*
X97185828Y-108768796D01*
X97185828Y-108768796D02*
X97257257Y-108625939D01*
X97257257Y-108625939D02*
X97328685Y-108554510D01*
X97328685Y-108554510D02*
X97471542Y-108483082D01*
X97471542Y-108483082D02*
X97685828Y-108483082D01*
X97685828Y-108483082D02*
X97828685Y-108554510D01*
X97828685Y-108554510D02*
X97900114Y-108625939D01*
X97900114Y-108625939D02*
X97971542Y-108768796D01*
X97971542Y-108768796D02*
X97971542Y-109340225D01*
X101100828Y-108483081D02*
X101100828Y-109340224D01*
X101100828Y-108911653D02*
X99600828Y-108911653D01*
X99600828Y-108911653D02*
X99815114Y-109054510D01*
X99815114Y-109054510D02*
X99957971Y-109197367D01*
X99957971Y-109197367D02*
X100029400Y-109340224D01*
X122985828Y-113768796D02*
X122985828Y-112911654D01*
X124485828Y-113340225D02*
X122985828Y-113340225D01*
X123700114Y-112411654D02*
X123700114Y-111911654D01*
X124485828Y-111697368D02*
X124485828Y-112411654D01*
X124485828Y-112411654D02*
X122985828Y-112411654D01*
X122985828Y-112411654D02*
X122985828Y-111697368D01*
X124485828Y-111054511D02*
X122985828Y-111054511D01*
X122985828Y-111054511D02*
X124057257Y-110554511D01*
X124057257Y-110554511D02*
X122985828Y-110054511D01*
X122985828Y-110054511D02*
X124485828Y-110054511D01*
X124485828Y-109340225D02*
X122985828Y-109340225D01*
X122985828Y-109340225D02*
X122985828Y-108768796D01*
X122985828Y-108768796D02*
X123057257Y-108625939D01*
X123057257Y-108625939D02*
X123128685Y-108554510D01*
X123128685Y-108554510D02*
X123271542Y-108483082D01*
X123271542Y-108483082D02*
X123485828Y-108483082D01*
X123485828Y-108483082D02*
X123628685Y-108554510D01*
X123628685Y-108554510D02*
X123700114Y-108625939D01*
X123700114Y-108625939D02*
X123771542Y-108768796D01*
X123771542Y-108768796D02*
X123771542Y-109340225D01*
X125900828Y-108625939D02*
X126900828Y-108625939D01*
X125329400Y-108983081D02*
X126400828Y-109340224D01*
X126400828Y-109340224D02*
X126400828Y-108411653D01*
X183152631Y-115485828D02*
X182438345Y-115485828D01*
X182438345Y-115485828D02*
X182438345Y-113985828D01*
X183652631Y-114700114D02*
X184152631Y-114700114D01*
X184366917Y-115485828D02*
X183652631Y-115485828D01*
X183652631Y-115485828D02*
X183652631Y-113985828D01*
X183652631Y-113985828D02*
X184366917Y-113985828D01*
X185009774Y-115485828D02*
X185009774Y-113985828D01*
X185009774Y-113985828D02*
X185866917Y-115485828D01*
X185866917Y-115485828D02*
X185866917Y-113985828D01*
X186509775Y-115414400D02*
X186724061Y-115485828D01*
X186724061Y-115485828D02*
X187081203Y-115485828D01*
X187081203Y-115485828D02*
X187224061Y-115414400D01*
X187224061Y-115414400D02*
X187295489Y-115342971D01*
X187295489Y-115342971D02*
X187366918Y-115200114D01*
X187366918Y-115200114D02*
X187366918Y-115057257D01*
X187366918Y-115057257D02*
X187295489Y-114914400D01*
X187295489Y-114914400D02*
X187224061Y-114842971D01*
X187224061Y-114842971D02*
X187081203Y-114771542D01*
X187081203Y-114771542D02*
X186795489Y-114700114D01*
X186795489Y-114700114D02*
X186652632Y-114628685D01*
X186652632Y-114628685D02*
X186581203Y-114557257D01*
X186581203Y-114557257D02*
X186509775Y-114414400D01*
X186509775Y-114414400D02*
X186509775Y-114271542D01*
X186509775Y-114271542D02*
X186581203Y-114128685D01*
X186581203Y-114128685D02*
X186652632Y-114057257D01*
X186652632Y-114057257D02*
X186795489Y-113985828D01*
X186795489Y-113985828D02*
X187152632Y-113985828D01*
X187152632Y-113985828D02*
X187366918Y-114057257D01*
X184581203Y-117757971D02*
X184509775Y-117829400D01*
X184509775Y-117829400D02*
X184295489Y-117900828D01*
X184295489Y-117900828D02*
X184152632Y-117900828D01*
X184152632Y-117900828D02*
X183938346Y-117829400D01*
X183938346Y-117829400D02*
X183795489Y-117686542D01*
X183795489Y-117686542D02*
X183724060Y-117543685D01*
X183724060Y-117543685D02*
X183652632Y-117257971D01*
X183652632Y-117257971D02*
X183652632Y-117043685D01*
X183652632Y-117043685D02*
X183724060Y-116757971D01*
X183724060Y-116757971D02*
X183795489Y-116615114D01*
X183795489Y-116615114D02*
X183938346Y-116472257D01*
X183938346Y-116472257D02*
X184152632Y-116400828D01*
X184152632Y-116400828D02*
X184295489Y-116400828D01*
X184295489Y-116400828D02*
X184509775Y-116472257D01*
X184509775Y-116472257D02*
X184581203Y-116543685D01*
X185152632Y-117472257D02*
X185866918Y-117472257D01*
X185009775Y-117900828D02*
X185509775Y-116400828D01*
X185509775Y-116400828D02*
X186009775Y-117900828D01*
X186509774Y-117900828D02*
X186509774Y-116400828D01*
X186509774Y-116400828D02*
X187081203Y-116400828D01*
X187081203Y-116400828D02*
X187224060Y-116472257D01*
X187224060Y-116472257D02*
X187295489Y-116543685D01*
X187295489Y-116543685D02*
X187366917Y-116686542D01*
X187366917Y-116686542D02*
X187366917Y-116900828D01*
X187366917Y-116900828D02*
X187295489Y-117043685D01*
X187295489Y-117043685D02*
X187224060Y-117115114D01*
X187224060Y-117115114D02*
X187081203Y-117186542D01*
X187081203Y-117186542D02*
X186509774Y-117186542D01*
X93038796Y-121675828D02*
X92324510Y-121675828D01*
X92324510Y-121675828D02*
X92253082Y-122390114D01*
X92253082Y-122390114D02*
X92324510Y-122318685D01*
X92324510Y-122318685D02*
X92467368Y-122247257D01*
X92467368Y-122247257D02*
X92824510Y-122247257D01*
X92824510Y-122247257D02*
X92967368Y-122318685D01*
X92967368Y-122318685D02*
X93038796Y-122390114D01*
X93038796Y-122390114D02*
X93110225Y-122532971D01*
X93110225Y-122532971D02*
X93110225Y-122890114D01*
X93110225Y-122890114D02*
X93038796Y-123032971D01*
X93038796Y-123032971D02*
X92967368Y-123104400D01*
X92967368Y-123104400D02*
X92824510Y-123175828D01*
X92824510Y-123175828D02*
X92467368Y-123175828D01*
X92467368Y-123175828D02*
X92324510Y-123104400D01*
X92324510Y-123104400D02*
X92253082Y-123032971D01*
X93538796Y-121675828D02*
X94038796Y-123175828D01*
X94038796Y-123175828D02*
X94538796Y-121675828D01*
X119954510Y-142500828D02*
X119954510Y-141000828D01*
X119954510Y-141000828D02*
X120311653Y-141000828D01*
X120311653Y-141000828D02*
X120525939Y-141072257D01*
X120525939Y-141072257D02*
X120668796Y-141215114D01*
X120668796Y-141215114D02*
X120740225Y-141357971D01*
X120740225Y-141357971D02*
X120811653Y-141643685D01*
X120811653Y-141643685D02*
X120811653Y-141857971D01*
X120811653Y-141857971D02*
X120740225Y-142143685D01*
X120740225Y-142143685D02*
X120668796Y-142286542D01*
X120668796Y-142286542D02*
X120525939Y-142429400D01*
X120525939Y-142429400D02*
X120311653Y-142500828D01*
X120311653Y-142500828D02*
X119954510Y-142500828D01*
X121454510Y-141715114D02*
X121954510Y-141715114D01*
X122168796Y-142500828D02*
X121454510Y-142500828D01*
X121454510Y-142500828D02*
X121454510Y-141000828D01*
X121454510Y-141000828D02*
X122168796Y-141000828D01*
X122668796Y-141000828D02*
X123025939Y-142500828D01*
X123025939Y-142500828D02*
X123311653Y-141429400D01*
X123311653Y-141429400D02*
X123597368Y-142500828D01*
X123597368Y-142500828D02*
X123954511Y-141000828D01*
X125668796Y-142500828D02*
X125668796Y-141000828D01*
X125668796Y-141715114D02*
X126525939Y-141715114D01*
X126525939Y-142500828D02*
X126525939Y-141000828D01*
X127240225Y-141715114D02*
X127740225Y-141715114D01*
X127954511Y-142500828D02*
X127240225Y-142500828D01*
X127240225Y-142500828D02*
X127240225Y-141000828D01*
X127240225Y-141000828D02*
X127954511Y-141000828D01*
X128525940Y-142072257D02*
X129240226Y-142072257D01*
X128383083Y-142500828D02*
X128883083Y-141000828D01*
X128883083Y-141000828D02*
X129383083Y-142500828D01*
X129668797Y-141000828D02*
X130525940Y-141000828D01*
X130097368Y-142500828D02*
X130097368Y-141000828D01*
X131025939Y-141715114D02*
X131525939Y-141715114D01*
X131740225Y-142500828D02*
X131025939Y-142500828D01*
X131025939Y-142500828D02*
X131025939Y-141000828D01*
X131025939Y-141000828D02*
X131740225Y-141000828D01*
X133240225Y-142500828D02*
X132740225Y-141786542D01*
X132383082Y-142500828D02*
X132383082Y-141000828D01*
X132383082Y-141000828D02*
X132954511Y-141000828D01*
X132954511Y-141000828D02*
X133097368Y-141072257D01*
X133097368Y-141072257D02*
X133168797Y-141143685D01*
X133168797Y-141143685D02*
X133240225Y-141286542D01*
X133240225Y-141286542D02*
X133240225Y-141500828D01*
X133240225Y-141500828D02*
X133168797Y-141643685D01*
X133168797Y-141643685D02*
X133097368Y-141715114D01*
X133097368Y-141715114D02*
X132954511Y-141786542D01*
X132954511Y-141786542D02*
X132383082Y-141786542D01*
X134954511Y-141143685D02*
X135025939Y-141072257D01*
X135025939Y-141072257D02*
X135168797Y-141000828D01*
X135168797Y-141000828D02*
X135525939Y-141000828D01*
X135525939Y-141000828D02*
X135668797Y-141072257D01*
X135668797Y-141072257D02*
X135740225Y-141143685D01*
X135740225Y-141143685D02*
X135811654Y-141286542D01*
X135811654Y-141286542D02*
X135811654Y-141429400D01*
X135811654Y-141429400D02*
X135740225Y-141643685D01*
X135740225Y-141643685D02*
X134883082Y-142500828D01*
X134883082Y-142500828D02*
X135811654Y-142500828D01*
X76154510Y-142700828D02*
X76154510Y-141200828D01*
X76154510Y-141200828D02*
X76511653Y-141200828D01*
X76511653Y-141200828D02*
X76725939Y-141272257D01*
X76725939Y-141272257D02*
X76868796Y-141415114D01*
X76868796Y-141415114D02*
X76940225Y-141557971D01*
X76940225Y-141557971D02*
X77011653Y-141843685D01*
X77011653Y-141843685D02*
X77011653Y-142057971D01*
X77011653Y-142057971D02*
X76940225Y-142343685D01*
X76940225Y-142343685D02*
X76868796Y-142486542D01*
X76868796Y-142486542D02*
X76725939Y-142629400D01*
X76725939Y-142629400D02*
X76511653Y-142700828D01*
X76511653Y-142700828D02*
X76154510Y-142700828D01*
X77654510Y-141915114D02*
X78154510Y-141915114D01*
X78368796Y-142700828D02*
X77654510Y-142700828D01*
X77654510Y-142700828D02*
X77654510Y-141200828D01*
X77654510Y-141200828D02*
X78368796Y-141200828D01*
X78868796Y-141200828D02*
X79225939Y-142700828D01*
X79225939Y-142700828D02*
X79511653Y-141629400D01*
X79511653Y-141629400D02*
X79797368Y-142700828D01*
X79797368Y-142700828D02*
X80154511Y-141200828D01*
X81868796Y-142700828D02*
X81868796Y-141200828D01*
X81868796Y-141915114D02*
X82725939Y-141915114D01*
X82725939Y-142700828D02*
X82725939Y-141200828D01*
X83440225Y-141915114D02*
X83940225Y-141915114D01*
X84154511Y-142700828D02*
X83440225Y-142700828D01*
X83440225Y-142700828D02*
X83440225Y-141200828D01*
X83440225Y-141200828D02*
X84154511Y-141200828D01*
X84725940Y-142272257D02*
X85440226Y-142272257D01*
X84583083Y-142700828D02*
X85083083Y-141200828D01*
X85083083Y-141200828D02*
X85583083Y-142700828D01*
X85868797Y-141200828D02*
X86725940Y-141200828D01*
X86297368Y-142700828D02*
X86297368Y-141200828D01*
X87225939Y-141915114D02*
X87725939Y-141915114D01*
X87940225Y-142700828D02*
X87225939Y-142700828D01*
X87225939Y-142700828D02*
X87225939Y-141200828D01*
X87225939Y-141200828D02*
X87940225Y-141200828D01*
X89440225Y-142700828D02*
X88940225Y-141986542D01*
X88583082Y-142700828D02*
X88583082Y-141200828D01*
X88583082Y-141200828D02*
X89154511Y-141200828D01*
X89154511Y-141200828D02*
X89297368Y-141272257D01*
X89297368Y-141272257D02*
X89368797Y-141343685D01*
X89368797Y-141343685D02*
X89440225Y-141486542D01*
X89440225Y-141486542D02*
X89440225Y-141700828D01*
X89440225Y-141700828D02*
X89368797Y-141843685D01*
X89368797Y-141843685D02*
X89297368Y-141915114D01*
X89297368Y-141915114D02*
X89154511Y-141986542D01*
X89154511Y-141986542D02*
X88583082Y-141986542D01*
X91083082Y-141200828D02*
X92011654Y-141200828D01*
X92011654Y-141200828D02*
X91511654Y-141772257D01*
X91511654Y-141772257D02*
X91725939Y-141772257D01*
X91725939Y-141772257D02*
X91868797Y-141843685D01*
X91868797Y-141843685D02*
X91940225Y-141915114D01*
X91940225Y-141915114D02*
X92011654Y-142057971D01*
X92011654Y-142057971D02*
X92011654Y-142415114D01*
X92011654Y-142415114D02*
X91940225Y-142557971D01*
X91940225Y-142557971D02*
X91868797Y-142629400D01*
X91868797Y-142629400D02*
X91725939Y-142700828D01*
X91725939Y-142700828D02*
X91297368Y-142700828D01*
X91297368Y-142700828D02*
X91154511Y-142629400D01*
X91154511Y-142629400D02*
X91083082Y-142557971D01*
D11*
X88857142Y-114104819D02*
X88523809Y-113628628D01*
X88285714Y-114104819D02*
X88285714Y-113104819D01*
X88285714Y-113104819D02*
X88666666Y-113104819D01*
X88666666Y-113104819D02*
X88761904Y-113152438D01*
X88761904Y-113152438D02*
X88809523Y-113200057D01*
X88809523Y-113200057D02*
X88857142Y-113295295D01*
X88857142Y-113295295D02*
X88857142Y-113438152D01*
X88857142Y-113438152D02*
X88809523Y-113533390D01*
X88809523Y-113533390D02*
X88761904Y-113581009D01*
X88761904Y-113581009D02*
X88666666Y-113628628D01*
X88666666Y-113628628D02*
X88285714Y-113628628D01*
X89809523Y-114104819D02*
X89238095Y-114104819D01*
X89523809Y-114104819D02*
X89523809Y-113104819D01*
X89523809Y-113104819D02*
X89428571Y-113247676D01*
X89428571Y-113247676D02*
X89333333Y-113342914D01*
X89333333Y-113342914D02*
X89238095Y-113390533D01*
X90285714Y-114104819D02*
X90476190Y-114104819D01*
X90476190Y-114104819D02*
X90571428Y-114057200D01*
X90571428Y-114057200D02*
X90619047Y-114009580D01*
X90619047Y-114009580D02*
X90714285Y-113866723D01*
X90714285Y-113866723D02*
X90761904Y-113676247D01*
X90761904Y-113676247D02*
X90761904Y-113295295D01*
X90761904Y-113295295D02*
X90714285Y-113200057D01*
X90714285Y-113200057D02*
X90666666Y-113152438D01*
X90666666Y-113152438D02*
X90571428Y-113104819D01*
X90571428Y-113104819D02*
X90380952Y-113104819D01*
X90380952Y-113104819D02*
X90285714Y-113152438D01*
X90285714Y-113152438D02*
X90238095Y-113200057D01*
X90238095Y-113200057D02*
X90190476Y-113295295D01*
X90190476Y-113295295D02*
X90190476Y-113533390D01*
X90190476Y-113533390D02*
X90238095Y-113628628D01*
X90238095Y-113628628D02*
X90285714Y-113676247D01*
X90285714Y-113676247D02*
X90380952Y-113723866D01*
X90380952Y-113723866D02*
X90571428Y-113723866D01*
X90571428Y-113723866D02*
X90666666Y-113676247D01*
X90666666Y-113676247D02*
X90714285Y-113628628D01*
X90714285Y-113628628D02*
X90761904Y-113533390D01*
D13*
X184787380Y-129573842D02*
X184968809Y-129634318D01*
X184968809Y-129634318D02*
X185271190Y-129634318D01*
X185271190Y-129634318D02*
X185392142Y-129573842D01*
X185392142Y-129573842D02*
X185452618Y-129513365D01*
X185452618Y-129513365D02*
X185513095Y-129392413D01*
X185513095Y-129392413D02*
X185513095Y-129271461D01*
X185513095Y-129271461D02*
X185452618Y-129150508D01*
X185452618Y-129150508D02*
X185392142Y-129090032D01*
X185392142Y-129090032D02*
X185271190Y-129029556D01*
X185271190Y-129029556D02*
X185029285Y-128969080D01*
X185029285Y-128969080D02*
X184908333Y-128908603D01*
X184908333Y-128908603D02*
X184847856Y-128848127D01*
X184847856Y-128848127D02*
X184787380Y-128727175D01*
X184787380Y-128727175D02*
X184787380Y-128606222D01*
X184787380Y-128606222D02*
X184847856Y-128485270D01*
X184847856Y-128485270D02*
X184908333Y-128424794D01*
X184908333Y-128424794D02*
X185029285Y-128364318D01*
X185029285Y-128364318D02*
X185331666Y-128364318D01*
X185331666Y-128364318D02*
X185513095Y-128424794D01*
X185936428Y-128364318D02*
X186722619Y-128364318D01*
X186722619Y-128364318D02*
X186299285Y-128848127D01*
X186299285Y-128848127D02*
X186480714Y-128848127D01*
X186480714Y-128848127D02*
X186601666Y-128908603D01*
X186601666Y-128908603D02*
X186662142Y-128969080D01*
X186662142Y-128969080D02*
X186722619Y-129090032D01*
X186722619Y-129090032D02*
X186722619Y-129392413D01*
X186722619Y-129392413D02*
X186662142Y-129513365D01*
X186662142Y-129513365D02*
X186601666Y-129573842D01*
X186601666Y-129573842D02*
X186480714Y-129634318D01*
X186480714Y-129634318D02*
X186117857Y-129634318D01*
X186117857Y-129634318D02*
X185996904Y-129573842D01*
X185996904Y-129573842D02*
X185936428Y-129513365D01*
X108376667Y-97204318D02*
X108376667Y-98111461D01*
X108376667Y-98111461D02*
X108316190Y-98292889D01*
X108316190Y-98292889D02*
X108195238Y-98413842D01*
X108195238Y-98413842D02*
X108013809Y-98474318D01*
X108013809Y-98474318D02*
X107892857Y-98474318D01*
X109162857Y-97748603D02*
X109041905Y-97688127D01*
X109041905Y-97688127D02*
X108981428Y-97627651D01*
X108981428Y-97627651D02*
X108920952Y-97506699D01*
X108920952Y-97506699D02*
X108920952Y-97446222D01*
X108920952Y-97446222D02*
X108981428Y-97325270D01*
X108981428Y-97325270D02*
X109041905Y-97264794D01*
X109041905Y-97264794D02*
X109162857Y-97204318D01*
X109162857Y-97204318D02*
X109404762Y-97204318D01*
X109404762Y-97204318D02*
X109525714Y-97264794D01*
X109525714Y-97264794D02*
X109586190Y-97325270D01*
X109586190Y-97325270D02*
X109646667Y-97446222D01*
X109646667Y-97446222D02*
X109646667Y-97506699D01*
X109646667Y-97506699D02*
X109586190Y-97627651D01*
X109586190Y-97627651D02*
X109525714Y-97688127D01*
X109525714Y-97688127D02*
X109404762Y-97748603D01*
X109404762Y-97748603D02*
X109162857Y-97748603D01*
X109162857Y-97748603D02*
X109041905Y-97809080D01*
X109041905Y-97809080D02*
X108981428Y-97869556D01*
X108981428Y-97869556D02*
X108920952Y-97990508D01*
X108920952Y-97990508D02*
X108920952Y-98232413D01*
X108920952Y-98232413D02*
X108981428Y-98353365D01*
X108981428Y-98353365D02*
X109041905Y-98413842D01*
X109041905Y-98413842D02*
X109162857Y-98474318D01*
X109162857Y-98474318D02*
X109404762Y-98474318D01*
X109404762Y-98474318D02*
X109525714Y-98413842D01*
X109525714Y-98413842D02*
X109586190Y-98353365D01*
X109586190Y-98353365D02*
X109646667Y-98232413D01*
X109646667Y-98232413D02*
X109646667Y-97990508D01*
X109646667Y-97990508D02*
X109586190Y-97869556D01*
X109586190Y-97869556D02*
X109525714Y-97809080D01*
X109525714Y-97809080D02*
X109404762Y-97748603D01*
D11*
X167611905Y-92324819D02*
X168183333Y-92324819D01*
X167897619Y-93324819D02*
X167897619Y-92324819D01*
X168516667Y-93324819D02*
X168516667Y-92324819D01*
X168516667Y-92324819D02*
X168897619Y-92324819D01*
X168897619Y-92324819D02*
X168992857Y-92372438D01*
X168992857Y-92372438D02*
X169040476Y-92420057D01*
X169040476Y-92420057D02*
X169088095Y-92515295D01*
X169088095Y-92515295D02*
X169088095Y-92658152D01*
X169088095Y-92658152D02*
X169040476Y-92753390D01*
X169040476Y-92753390D02*
X168992857Y-92801009D01*
X168992857Y-92801009D02*
X168897619Y-92848628D01*
X168897619Y-92848628D02*
X168516667Y-92848628D01*
X170040476Y-93324819D02*
X169469048Y-93324819D01*
X169754762Y-93324819D02*
X169754762Y-92324819D01*
X169754762Y-92324819D02*
X169659524Y-92467676D01*
X169659524Y-92467676D02*
X169564286Y-92562914D01*
X169564286Y-92562914D02*
X169469048Y-92610533D01*
X170992857Y-93324819D02*
X170421429Y-93324819D01*
X170707143Y-93324819D02*
X170707143Y-92324819D01*
X170707143Y-92324819D02*
X170611905Y-92467676D01*
X170611905Y-92467676D02*
X170516667Y-92562914D01*
X170516667Y-92562914D02*
X170421429Y-92610533D01*
X176057142Y-97904819D02*
X175723809Y-97428628D01*
X175485714Y-97904819D02*
X175485714Y-96904819D01*
X175485714Y-96904819D02*
X175866666Y-96904819D01*
X175866666Y-96904819D02*
X175961904Y-96952438D01*
X175961904Y-96952438D02*
X176009523Y-97000057D01*
X176009523Y-97000057D02*
X176057142Y-97095295D01*
X176057142Y-97095295D02*
X176057142Y-97238152D01*
X176057142Y-97238152D02*
X176009523Y-97333390D01*
X176009523Y-97333390D02*
X175961904Y-97381009D01*
X175961904Y-97381009D02*
X175866666Y-97428628D01*
X175866666Y-97428628D02*
X175485714Y-97428628D01*
X176438095Y-97000057D02*
X176485714Y-96952438D01*
X176485714Y-96952438D02*
X176580952Y-96904819D01*
X176580952Y-96904819D02*
X176819047Y-96904819D01*
X176819047Y-96904819D02*
X176914285Y-96952438D01*
X176914285Y-96952438D02*
X176961904Y-97000057D01*
X176961904Y-97000057D02*
X177009523Y-97095295D01*
X177009523Y-97095295D02*
X177009523Y-97190533D01*
X177009523Y-97190533D02*
X176961904Y-97333390D01*
X176961904Y-97333390D02*
X176390476Y-97904819D01*
X176390476Y-97904819D02*
X177009523Y-97904819D01*
X177390476Y-97000057D02*
X177438095Y-96952438D01*
X177438095Y-96952438D02*
X177533333Y-96904819D01*
X177533333Y-96904819D02*
X177771428Y-96904819D01*
X177771428Y-96904819D02*
X177866666Y-96952438D01*
X177866666Y-96952438D02*
X177914285Y-97000057D01*
X177914285Y-97000057D02*
X177961904Y-97095295D01*
X177961904Y-97095295D02*
X177961904Y-97190533D01*
X177961904Y-97190533D02*
X177914285Y-97333390D01*
X177914285Y-97333390D02*
X177342857Y-97904819D01*
X177342857Y-97904819D02*
X177961904Y-97904819D01*
X88857142Y-121204819D02*
X88523809Y-120728628D01*
X88285714Y-121204819D02*
X88285714Y-120204819D01*
X88285714Y-120204819D02*
X88666666Y-120204819D01*
X88666666Y-120204819D02*
X88761904Y-120252438D01*
X88761904Y-120252438D02*
X88809523Y-120300057D01*
X88809523Y-120300057D02*
X88857142Y-120395295D01*
X88857142Y-120395295D02*
X88857142Y-120538152D01*
X88857142Y-120538152D02*
X88809523Y-120633390D01*
X88809523Y-120633390D02*
X88761904Y-120681009D01*
X88761904Y-120681009D02*
X88666666Y-120728628D01*
X88666666Y-120728628D02*
X88285714Y-120728628D01*
X89809523Y-121204819D02*
X89238095Y-121204819D01*
X89523809Y-121204819D02*
X89523809Y-120204819D01*
X89523809Y-120204819D02*
X89428571Y-120347676D01*
X89428571Y-120347676D02*
X89333333Y-120442914D01*
X89333333Y-120442914D02*
X89238095Y-120490533D01*
X90380952Y-120633390D02*
X90285714Y-120585771D01*
X90285714Y-120585771D02*
X90238095Y-120538152D01*
X90238095Y-120538152D02*
X90190476Y-120442914D01*
X90190476Y-120442914D02*
X90190476Y-120395295D01*
X90190476Y-120395295D02*
X90238095Y-120300057D01*
X90238095Y-120300057D02*
X90285714Y-120252438D01*
X90285714Y-120252438D02*
X90380952Y-120204819D01*
X90380952Y-120204819D02*
X90571428Y-120204819D01*
X90571428Y-120204819D02*
X90666666Y-120252438D01*
X90666666Y-120252438D02*
X90714285Y-120300057D01*
X90714285Y-120300057D02*
X90761904Y-120395295D01*
X90761904Y-120395295D02*
X90761904Y-120442914D01*
X90761904Y-120442914D02*
X90714285Y-120538152D01*
X90714285Y-120538152D02*
X90666666Y-120585771D01*
X90666666Y-120585771D02*
X90571428Y-120633390D01*
X90571428Y-120633390D02*
X90380952Y-120633390D01*
X90380952Y-120633390D02*
X90285714Y-120681009D01*
X90285714Y-120681009D02*
X90238095Y-120728628D01*
X90238095Y-120728628D02*
X90190476Y-120823866D01*
X90190476Y-120823866D02*
X90190476Y-121014342D01*
X90190476Y-121014342D02*
X90238095Y-121109580D01*
X90238095Y-121109580D02*
X90285714Y-121157200D01*
X90285714Y-121157200D02*
X90380952Y-121204819D01*
X90380952Y-121204819D02*
X90571428Y-121204819D01*
X90571428Y-121204819D02*
X90666666Y-121157200D01*
X90666666Y-121157200D02*
X90714285Y-121109580D01*
X90714285Y-121109580D02*
X90761904Y-121014342D01*
X90761904Y-121014342D02*
X90761904Y-120823866D01*
X90761904Y-120823866D02*
X90714285Y-120728628D01*
X90714285Y-120728628D02*
X90666666Y-120681009D01*
X90666666Y-120681009D02*
X90571428Y-120633390D01*
X158207142Y-142604819D02*
X157873809Y-142128628D01*
X157635714Y-142604819D02*
X157635714Y-141604819D01*
X157635714Y-141604819D02*
X158016666Y-141604819D01*
X158016666Y-141604819D02*
X158111904Y-141652438D01*
X158111904Y-141652438D02*
X158159523Y-141700057D01*
X158159523Y-141700057D02*
X158207142Y-141795295D01*
X158207142Y-141795295D02*
X158207142Y-141938152D01*
X158207142Y-141938152D02*
X158159523Y-142033390D01*
X158159523Y-142033390D02*
X158111904Y-142081009D01*
X158111904Y-142081009D02*
X158016666Y-142128628D01*
X158016666Y-142128628D02*
X157635714Y-142128628D01*
X159159523Y-142604819D02*
X158588095Y-142604819D01*
X158873809Y-142604819D02*
X158873809Y-141604819D01*
X158873809Y-141604819D02*
X158778571Y-141747676D01*
X158778571Y-141747676D02*
X158683333Y-141842914D01*
X158683333Y-141842914D02*
X158588095Y-141890533D01*
X159540476Y-141700057D02*
X159588095Y-141652438D01*
X159588095Y-141652438D02*
X159683333Y-141604819D01*
X159683333Y-141604819D02*
X159921428Y-141604819D01*
X159921428Y-141604819D02*
X160016666Y-141652438D01*
X160016666Y-141652438D02*
X160064285Y-141700057D01*
X160064285Y-141700057D02*
X160111904Y-141795295D01*
X160111904Y-141795295D02*
X160111904Y-141890533D01*
X160111904Y-141890533D02*
X160064285Y-142033390D01*
X160064285Y-142033390D02*
X159492857Y-142604819D01*
X159492857Y-142604819D02*
X160111904Y-142604819D01*
X175857142Y-114954819D02*
X175523809Y-114478628D01*
X175285714Y-114954819D02*
X175285714Y-113954819D01*
X175285714Y-113954819D02*
X175666666Y-113954819D01*
X175666666Y-113954819D02*
X175761904Y-114002438D01*
X175761904Y-114002438D02*
X175809523Y-114050057D01*
X175809523Y-114050057D02*
X175857142Y-114145295D01*
X175857142Y-114145295D02*
X175857142Y-114288152D01*
X175857142Y-114288152D02*
X175809523Y-114383390D01*
X175809523Y-114383390D02*
X175761904Y-114431009D01*
X175761904Y-114431009D02*
X175666666Y-114478628D01*
X175666666Y-114478628D02*
X175285714Y-114478628D01*
X176809523Y-114954819D02*
X176238095Y-114954819D01*
X176523809Y-114954819D02*
X176523809Y-113954819D01*
X176523809Y-113954819D02*
X176428571Y-114097676D01*
X176428571Y-114097676D02*
X176333333Y-114192914D01*
X176333333Y-114192914D02*
X176238095Y-114240533D01*
X177714285Y-113954819D02*
X177238095Y-113954819D01*
X177238095Y-113954819D02*
X177190476Y-114431009D01*
X177190476Y-114431009D02*
X177238095Y-114383390D01*
X177238095Y-114383390D02*
X177333333Y-114335771D01*
X177333333Y-114335771D02*
X177571428Y-114335771D01*
X177571428Y-114335771D02*
X177666666Y-114383390D01*
X177666666Y-114383390D02*
X177714285Y-114431009D01*
X177714285Y-114431009D02*
X177761904Y-114526247D01*
X177761904Y-114526247D02*
X177761904Y-114764342D01*
X177761904Y-114764342D02*
X177714285Y-114859580D01*
X177714285Y-114859580D02*
X177666666Y-114907200D01*
X177666666Y-114907200D02*
X177571428Y-114954819D01*
X177571428Y-114954819D02*
X177333333Y-114954819D01*
X177333333Y-114954819D02*
X177238095Y-114907200D01*
X177238095Y-114907200D02*
X177190476Y-114859580D01*
X133638095Y-98324819D02*
X134209523Y-98324819D01*
X133923809Y-99324819D02*
X133923809Y-98324819D01*
X134542857Y-99324819D02*
X134542857Y-98324819D01*
X134542857Y-98324819D02*
X134923809Y-98324819D01*
X134923809Y-98324819D02*
X135019047Y-98372438D01*
X135019047Y-98372438D02*
X135066666Y-98420057D01*
X135066666Y-98420057D02*
X135114285Y-98515295D01*
X135114285Y-98515295D02*
X135114285Y-98658152D01*
X135114285Y-98658152D02*
X135066666Y-98753390D01*
X135066666Y-98753390D02*
X135019047Y-98801009D01*
X135019047Y-98801009D02*
X134923809Y-98848628D01*
X134923809Y-98848628D02*
X134542857Y-98848628D01*
X136019047Y-98324819D02*
X135542857Y-98324819D01*
X135542857Y-98324819D02*
X135495238Y-98801009D01*
X135495238Y-98801009D02*
X135542857Y-98753390D01*
X135542857Y-98753390D02*
X135638095Y-98705771D01*
X135638095Y-98705771D02*
X135876190Y-98705771D01*
X135876190Y-98705771D02*
X135971428Y-98753390D01*
X135971428Y-98753390D02*
X136019047Y-98801009D01*
X136019047Y-98801009D02*
X136066666Y-98896247D01*
X136066666Y-98896247D02*
X136066666Y-99134342D01*
X136066666Y-99134342D02*
X136019047Y-99229580D01*
X136019047Y-99229580D02*
X135971428Y-99277200D01*
X135971428Y-99277200D02*
X135876190Y-99324819D01*
X135876190Y-99324819D02*
X135638095Y-99324819D01*
X135638095Y-99324819D02*
X135542857Y-99277200D01*
X135542857Y-99277200D02*
X135495238Y-99229580D01*
X138466666Y-100556009D02*
X138133333Y-100556009D01*
X138133333Y-101079819D02*
X138133333Y-100079819D01*
X138133333Y-100079819D02*
X138609523Y-100079819D01*
X138942857Y-100175057D02*
X138990476Y-100127438D01*
X138990476Y-100127438D02*
X139085714Y-100079819D01*
X139085714Y-100079819D02*
X139323809Y-100079819D01*
X139323809Y-100079819D02*
X139419047Y-100127438D01*
X139419047Y-100127438D02*
X139466666Y-100175057D01*
X139466666Y-100175057D02*
X139514285Y-100270295D01*
X139514285Y-100270295D02*
X139514285Y-100365533D01*
X139514285Y-100365533D02*
X139466666Y-100508390D01*
X139466666Y-100508390D02*
X138895238Y-101079819D01*
X138895238Y-101079819D02*
X139514285Y-101079819D01*
X160186905Y-96604819D02*
X160186905Y-95604819D01*
X160186905Y-95604819D02*
X160425000Y-95604819D01*
X160425000Y-95604819D02*
X160567857Y-95652438D01*
X160567857Y-95652438D02*
X160663095Y-95747676D01*
X160663095Y-95747676D02*
X160710714Y-95842914D01*
X160710714Y-95842914D02*
X160758333Y-96033390D01*
X160758333Y-96033390D02*
X160758333Y-96176247D01*
X160758333Y-96176247D02*
X160710714Y-96366723D01*
X160710714Y-96366723D02*
X160663095Y-96461961D01*
X160663095Y-96461961D02*
X160567857Y-96557200D01*
X160567857Y-96557200D02*
X160425000Y-96604819D01*
X160425000Y-96604819D02*
X160186905Y-96604819D01*
X161663095Y-95604819D02*
X161186905Y-95604819D01*
X161186905Y-95604819D02*
X161139286Y-96081009D01*
X161139286Y-96081009D02*
X161186905Y-96033390D01*
X161186905Y-96033390D02*
X161282143Y-95985771D01*
X161282143Y-95985771D02*
X161520238Y-95985771D01*
X161520238Y-95985771D02*
X161615476Y-96033390D01*
X161615476Y-96033390D02*
X161663095Y-96081009D01*
X161663095Y-96081009D02*
X161710714Y-96176247D01*
X161710714Y-96176247D02*
X161710714Y-96414342D01*
X161710714Y-96414342D02*
X161663095Y-96509580D01*
X161663095Y-96509580D02*
X161615476Y-96557200D01*
X161615476Y-96557200D02*
X161520238Y-96604819D01*
X161520238Y-96604819D02*
X161282143Y-96604819D01*
X161282143Y-96604819D02*
X161186905Y-96557200D01*
X161186905Y-96557200D02*
X161139286Y-96509580D01*
D13*
X180504318Y-87098332D02*
X181411461Y-87098332D01*
X181411461Y-87098332D02*
X181592889Y-87158809D01*
X181592889Y-87158809D02*
X181713842Y-87279761D01*
X181713842Y-87279761D02*
X181774318Y-87461190D01*
X181774318Y-87461190D02*
X181774318Y-87582142D01*
X180927651Y-85949285D02*
X181774318Y-85949285D01*
X180443842Y-86251666D02*
X181350984Y-86554047D01*
X181350984Y-86554047D02*
X181350984Y-85767856D01*
X90674318Y-103842143D02*
X89404318Y-103842143D01*
X89404318Y-103842143D02*
X89404318Y-103358333D01*
X89404318Y-103358333D02*
X89464794Y-103237381D01*
X89464794Y-103237381D02*
X89525270Y-103176904D01*
X89525270Y-103176904D02*
X89646222Y-103116428D01*
X89646222Y-103116428D02*
X89827651Y-103116428D01*
X89827651Y-103116428D02*
X89948603Y-103176904D01*
X89948603Y-103176904D02*
X90009080Y-103237381D01*
X90009080Y-103237381D02*
X90069556Y-103358333D01*
X90069556Y-103358333D02*
X90069556Y-103842143D01*
X90613842Y-102632619D02*
X90674318Y-102451190D01*
X90674318Y-102451190D02*
X90674318Y-102148809D01*
X90674318Y-102148809D02*
X90613842Y-102027857D01*
X90613842Y-102027857D02*
X90553365Y-101967381D01*
X90553365Y-101967381D02*
X90432413Y-101906904D01*
X90432413Y-101906904D02*
X90311461Y-101906904D01*
X90311461Y-101906904D02*
X90190508Y-101967381D01*
X90190508Y-101967381D02*
X90130032Y-102027857D01*
X90130032Y-102027857D02*
X90069556Y-102148809D01*
X90069556Y-102148809D02*
X90009080Y-102390714D01*
X90009080Y-102390714D02*
X89948603Y-102511666D01*
X89948603Y-102511666D02*
X89888127Y-102572143D01*
X89888127Y-102572143D02*
X89767175Y-102632619D01*
X89767175Y-102632619D02*
X89646222Y-102632619D01*
X89646222Y-102632619D02*
X89525270Y-102572143D01*
X89525270Y-102572143D02*
X89464794Y-102511666D01*
X89464794Y-102511666D02*
X89404318Y-102390714D01*
X89404318Y-102390714D02*
X89404318Y-102088333D01*
X89404318Y-102088333D02*
X89464794Y-101906904D01*
X90674318Y-100697380D02*
X90674318Y-101423095D01*
X90674318Y-101060238D02*
X89404318Y-101060238D01*
X89404318Y-101060238D02*
X89585746Y-101181190D01*
X89585746Y-101181190D02*
X89706699Y-101302142D01*
X89706699Y-101302142D02*
X89767175Y-101423095D01*
D11*
X157516666Y-99731009D02*
X157183333Y-99731009D01*
X157183333Y-100254819D02*
X157183333Y-99254819D01*
X157183333Y-99254819D02*
X157659523Y-99254819D01*
X157945238Y-99254819D02*
X158564285Y-99254819D01*
X158564285Y-99254819D02*
X158230952Y-99635771D01*
X158230952Y-99635771D02*
X158373809Y-99635771D01*
X158373809Y-99635771D02*
X158469047Y-99683390D01*
X158469047Y-99683390D02*
X158516666Y-99731009D01*
X158516666Y-99731009D02*
X158564285Y-99826247D01*
X158564285Y-99826247D02*
X158564285Y-100064342D01*
X158564285Y-100064342D02*
X158516666Y-100159580D01*
X158516666Y-100159580D02*
X158469047Y-100207200D01*
X158469047Y-100207200D02*
X158373809Y-100254819D01*
X158373809Y-100254819D02*
X158088095Y-100254819D01*
X158088095Y-100254819D02*
X157992857Y-100207200D01*
X157992857Y-100207200D02*
X157945238Y-100159580D01*
D13*
X99776667Y-97204318D02*
X99776667Y-98111461D01*
X99776667Y-98111461D02*
X99716190Y-98292889D01*
X99716190Y-98292889D02*
X99595238Y-98413842D01*
X99595238Y-98413842D02*
X99413809Y-98474318D01*
X99413809Y-98474318D02*
X99292857Y-98474318D01*
X100260476Y-97204318D02*
X101107143Y-97204318D01*
X101107143Y-97204318D02*
X100562857Y-98474318D01*
D11*
X120654819Y-113842857D02*
X120178628Y-114176190D01*
X120654819Y-114414285D02*
X119654819Y-114414285D01*
X119654819Y-114414285D02*
X119654819Y-114033333D01*
X119654819Y-114033333D02*
X119702438Y-113938095D01*
X119702438Y-113938095D02*
X119750057Y-113890476D01*
X119750057Y-113890476D02*
X119845295Y-113842857D01*
X119845295Y-113842857D02*
X119988152Y-113842857D01*
X119988152Y-113842857D02*
X120083390Y-113890476D01*
X120083390Y-113890476D02*
X120131009Y-113938095D01*
X120131009Y-113938095D02*
X120178628Y-114033333D01*
X120178628Y-114033333D02*
X120178628Y-114414285D01*
X119750057Y-113461904D02*
X119702438Y-113414285D01*
X119702438Y-113414285D02*
X119654819Y-113319047D01*
X119654819Y-113319047D02*
X119654819Y-113080952D01*
X119654819Y-113080952D02*
X119702438Y-112985714D01*
X119702438Y-112985714D02*
X119750057Y-112938095D01*
X119750057Y-112938095D02*
X119845295Y-112890476D01*
X119845295Y-112890476D02*
X119940533Y-112890476D01*
X119940533Y-112890476D02*
X120083390Y-112938095D01*
X120083390Y-112938095D02*
X120654819Y-113509523D01*
X120654819Y-113509523D02*
X120654819Y-112890476D01*
X120083390Y-112319047D02*
X120035771Y-112414285D01*
X120035771Y-112414285D02*
X119988152Y-112461904D01*
X119988152Y-112461904D02*
X119892914Y-112509523D01*
X119892914Y-112509523D02*
X119845295Y-112509523D01*
X119845295Y-112509523D02*
X119750057Y-112461904D01*
X119750057Y-112461904D02*
X119702438Y-112414285D01*
X119702438Y-112414285D02*
X119654819Y-112319047D01*
X119654819Y-112319047D02*
X119654819Y-112128571D01*
X119654819Y-112128571D02*
X119702438Y-112033333D01*
X119702438Y-112033333D02*
X119750057Y-111985714D01*
X119750057Y-111985714D02*
X119845295Y-111938095D01*
X119845295Y-111938095D02*
X119892914Y-111938095D01*
X119892914Y-111938095D02*
X119988152Y-111985714D01*
X119988152Y-111985714D02*
X120035771Y-112033333D01*
X120035771Y-112033333D02*
X120083390Y-112128571D01*
X120083390Y-112128571D02*
X120083390Y-112319047D01*
X120083390Y-112319047D02*
X120131009Y-112414285D01*
X120131009Y-112414285D02*
X120178628Y-112461904D01*
X120178628Y-112461904D02*
X120273866Y-112509523D01*
X120273866Y-112509523D02*
X120464342Y-112509523D01*
X120464342Y-112509523D02*
X120559580Y-112461904D01*
X120559580Y-112461904D02*
X120607200Y-112414285D01*
X120607200Y-112414285D02*
X120654819Y-112319047D01*
X120654819Y-112319047D02*
X120654819Y-112128571D01*
X120654819Y-112128571D02*
X120607200Y-112033333D01*
X120607200Y-112033333D02*
X120559580Y-111985714D01*
X120559580Y-111985714D02*
X120464342Y-111938095D01*
X120464342Y-111938095D02*
X120273866Y-111938095D01*
X120273866Y-111938095D02*
X120178628Y-111985714D01*
X120178628Y-111985714D02*
X120131009Y-112033333D01*
X120131009Y-112033333D02*
X120083390Y-112128571D01*
X154454819Y-113236904D02*
X154454819Y-112665476D01*
X155454819Y-112951190D02*
X154454819Y-112951190D01*
X155454819Y-112332142D02*
X154454819Y-112332142D01*
X154454819Y-112332142D02*
X154454819Y-111951190D01*
X154454819Y-111951190D02*
X154502438Y-111855952D01*
X154502438Y-111855952D02*
X154550057Y-111808333D01*
X154550057Y-111808333D02*
X154645295Y-111760714D01*
X154645295Y-111760714D02*
X154788152Y-111760714D01*
X154788152Y-111760714D02*
X154883390Y-111808333D01*
X154883390Y-111808333D02*
X154931009Y-111855952D01*
X154931009Y-111855952D02*
X154978628Y-111951190D01*
X154978628Y-111951190D02*
X154978628Y-112332142D01*
X154550057Y-111379761D02*
X154502438Y-111332142D01*
X154502438Y-111332142D02*
X154454819Y-111236904D01*
X154454819Y-111236904D02*
X154454819Y-110998809D01*
X154454819Y-110998809D02*
X154502438Y-110903571D01*
X154502438Y-110903571D02*
X154550057Y-110855952D01*
X154550057Y-110855952D02*
X154645295Y-110808333D01*
X154645295Y-110808333D02*
X154740533Y-110808333D01*
X154740533Y-110808333D02*
X154883390Y-110855952D01*
X154883390Y-110855952D02*
X155454819Y-111427380D01*
X155454819Y-111427380D02*
X155454819Y-110808333D01*
X71657142Y-143054819D02*
X71323809Y-142578628D01*
X71085714Y-143054819D02*
X71085714Y-142054819D01*
X71085714Y-142054819D02*
X71466666Y-142054819D01*
X71466666Y-142054819D02*
X71561904Y-142102438D01*
X71561904Y-142102438D02*
X71609523Y-142150057D01*
X71609523Y-142150057D02*
X71657142Y-142245295D01*
X71657142Y-142245295D02*
X71657142Y-142388152D01*
X71657142Y-142388152D02*
X71609523Y-142483390D01*
X71609523Y-142483390D02*
X71561904Y-142531009D01*
X71561904Y-142531009D02*
X71466666Y-142578628D01*
X71466666Y-142578628D02*
X71085714Y-142578628D01*
X72609523Y-143054819D02*
X72038095Y-143054819D01*
X72323809Y-143054819D02*
X72323809Y-142054819D01*
X72323809Y-142054819D02*
X72228571Y-142197676D01*
X72228571Y-142197676D02*
X72133333Y-142292914D01*
X72133333Y-142292914D02*
X72038095Y-142340533D01*
X73466666Y-142388152D02*
X73466666Y-143054819D01*
X73228571Y-142007200D02*
X72990476Y-142721485D01*
X72990476Y-142721485D02*
X73609523Y-142721485D01*
X92783333Y-112409580D02*
X92735714Y-112457200D01*
X92735714Y-112457200D02*
X92592857Y-112504819D01*
X92592857Y-112504819D02*
X92497619Y-112504819D01*
X92497619Y-112504819D02*
X92354762Y-112457200D01*
X92354762Y-112457200D02*
X92259524Y-112361961D01*
X92259524Y-112361961D02*
X92211905Y-112266723D01*
X92211905Y-112266723D02*
X92164286Y-112076247D01*
X92164286Y-112076247D02*
X92164286Y-111933390D01*
X92164286Y-111933390D02*
X92211905Y-111742914D01*
X92211905Y-111742914D02*
X92259524Y-111647676D01*
X92259524Y-111647676D02*
X92354762Y-111552438D01*
X92354762Y-111552438D02*
X92497619Y-111504819D01*
X92497619Y-111504819D02*
X92592857Y-111504819D01*
X92592857Y-111504819D02*
X92735714Y-111552438D01*
X92735714Y-111552438D02*
X92783333Y-111600057D01*
X93735714Y-112504819D02*
X93164286Y-112504819D01*
X93450000Y-112504819D02*
X93450000Y-111504819D01*
X93450000Y-111504819D02*
X93354762Y-111647676D01*
X93354762Y-111647676D02*
X93259524Y-111742914D01*
X93259524Y-111742914D02*
X93164286Y-111790533D01*
D13*
X75176667Y-97204318D02*
X75176667Y-98111461D01*
X75176667Y-98111461D02*
X75116190Y-98292889D01*
X75116190Y-98292889D02*
X74995238Y-98413842D01*
X74995238Y-98413842D02*
X74813809Y-98474318D01*
X74813809Y-98474318D02*
X74692857Y-98474318D01*
X76325714Y-97204318D02*
X76083809Y-97204318D01*
X76083809Y-97204318D02*
X75962857Y-97264794D01*
X75962857Y-97264794D02*
X75902381Y-97325270D01*
X75902381Y-97325270D02*
X75781428Y-97506699D01*
X75781428Y-97506699D02*
X75720952Y-97748603D01*
X75720952Y-97748603D02*
X75720952Y-98232413D01*
X75720952Y-98232413D02*
X75781428Y-98353365D01*
X75781428Y-98353365D02*
X75841905Y-98413842D01*
X75841905Y-98413842D02*
X75962857Y-98474318D01*
X75962857Y-98474318D02*
X76204762Y-98474318D01*
X76204762Y-98474318D02*
X76325714Y-98413842D01*
X76325714Y-98413842D02*
X76386190Y-98353365D01*
X76386190Y-98353365D02*
X76446667Y-98232413D01*
X76446667Y-98232413D02*
X76446667Y-97930032D01*
X76446667Y-97930032D02*
X76386190Y-97809080D01*
X76386190Y-97809080D02*
X76325714Y-97748603D01*
X76325714Y-97748603D02*
X76204762Y-97688127D01*
X76204762Y-97688127D02*
X75962857Y-97688127D01*
X75962857Y-97688127D02*
X75841905Y-97748603D01*
X75841905Y-97748603D02*
X75781428Y-97809080D01*
X75781428Y-97809080D02*
X75720952Y-97930032D01*
D11*
X178304819Y-104016666D02*
X177828628Y-104349999D01*
X178304819Y-104588094D02*
X177304819Y-104588094D01*
X177304819Y-104588094D02*
X177304819Y-104207142D01*
X177304819Y-104207142D02*
X177352438Y-104111904D01*
X177352438Y-104111904D02*
X177400057Y-104064285D01*
X177400057Y-104064285D02*
X177495295Y-104016666D01*
X177495295Y-104016666D02*
X177638152Y-104016666D01*
X177638152Y-104016666D02*
X177733390Y-104064285D01*
X177733390Y-104064285D02*
X177781009Y-104111904D01*
X177781009Y-104111904D02*
X177828628Y-104207142D01*
X177828628Y-104207142D02*
X177828628Y-104588094D01*
X177304819Y-103159523D02*
X177304819Y-103349999D01*
X177304819Y-103349999D02*
X177352438Y-103445237D01*
X177352438Y-103445237D02*
X177400057Y-103492856D01*
X177400057Y-103492856D02*
X177542914Y-103588094D01*
X177542914Y-103588094D02*
X177733390Y-103635713D01*
X177733390Y-103635713D02*
X178114342Y-103635713D01*
X178114342Y-103635713D02*
X178209580Y-103588094D01*
X178209580Y-103588094D02*
X178257200Y-103540475D01*
X178257200Y-103540475D02*
X178304819Y-103445237D01*
X178304819Y-103445237D02*
X178304819Y-103254761D01*
X178304819Y-103254761D02*
X178257200Y-103159523D01*
X178257200Y-103159523D02*
X178209580Y-103111904D01*
X178209580Y-103111904D02*
X178114342Y-103064285D01*
X178114342Y-103064285D02*
X177876247Y-103064285D01*
X177876247Y-103064285D02*
X177781009Y-103111904D01*
X177781009Y-103111904D02*
X177733390Y-103159523D01*
X177733390Y-103159523D02*
X177685771Y-103254761D01*
X177685771Y-103254761D02*
X177685771Y-103445237D01*
X177685771Y-103445237D02*
X177733390Y-103540475D01*
X177733390Y-103540475D02*
X177781009Y-103588094D01*
X177781009Y-103588094D02*
X177876247Y-103635713D01*
D13*
X169454047Y-104520270D02*
X169333095Y-104459794D01*
X169333095Y-104459794D02*
X169212142Y-104338842D01*
X169212142Y-104338842D02*
X169030714Y-104157413D01*
X169030714Y-104157413D02*
X168909761Y-104096937D01*
X168909761Y-104096937D02*
X168788809Y-104096937D01*
X168849285Y-104399318D02*
X168728333Y-104338842D01*
X168728333Y-104338842D02*
X168607380Y-104217889D01*
X168607380Y-104217889D02*
X168546904Y-103975984D01*
X168546904Y-103975984D02*
X168546904Y-103552651D01*
X168546904Y-103552651D02*
X168607380Y-103310746D01*
X168607380Y-103310746D02*
X168728333Y-103189794D01*
X168728333Y-103189794D02*
X168849285Y-103129318D01*
X168849285Y-103129318D02*
X169091190Y-103129318D01*
X169091190Y-103129318D02*
X169212142Y-103189794D01*
X169212142Y-103189794D02*
X169333095Y-103310746D01*
X169333095Y-103310746D02*
X169393571Y-103552651D01*
X169393571Y-103552651D02*
X169393571Y-103975984D01*
X169393571Y-103975984D02*
X169333095Y-104217889D01*
X169333095Y-104217889D02*
X169212142Y-104338842D01*
X169212142Y-104338842D02*
X169091190Y-104399318D01*
X169091190Y-104399318D02*
X168849285Y-104399318D01*
X170482142Y-103129318D02*
X170240237Y-103129318D01*
X170240237Y-103129318D02*
X170119285Y-103189794D01*
X170119285Y-103189794D02*
X170058809Y-103250270D01*
X170058809Y-103250270D02*
X169937856Y-103431699D01*
X169937856Y-103431699D02*
X169877380Y-103673603D01*
X169877380Y-103673603D02*
X169877380Y-104157413D01*
X169877380Y-104157413D02*
X169937856Y-104278365D01*
X169937856Y-104278365D02*
X169998333Y-104338842D01*
X169998333Y-104338842D02*
X170119285Y-104399318D01*
X170119285Y-104399318D02*
X170361190Y-104399318D01*
X170361190Y-104399318D02*
X170482142Y-104338842D01*
X170482142Y-104338842D02*
X170542618Y-104278365D01*
X170542618Y-104278365D02*
X170603095Y-104157413D01*
X170603095Y-104157413D02*
X170603095Y-103855032D01*
X170603095Y-103855032D02*
X170542618Y-103734080D01*
X170542618Y-103734080D02*
X170482142Y-103673603D01*
X170482142Y-103673603D02*
X170361190Y-103613127D01*
X170361190Y-103613127D02*
X170119285Y-103613127D01*
X170119285Y-103613127D02*
X169998333Y-103673603D01*
X169998333Y-103673603D02*
X169937856Y-103734080D01*
X169937856Y-103734080D02*
X169877380Y-103855032D01*
D11*
X175486905Y-95704819D02*
X175486905Y-94704819D01*
X175486905Y-94704819D02*
X175725000Y-94704819D01*
X175725000Y-94704819D02*
X175867857Y-94752438D01*
X175867857Y-94752438D02*
X175963095Y-94847676D01*
X175963095Y-94847676D02*
X176010714Y-94942914D01*
X176010714Y-94942914D02*
X176058333Y-95133390D01*
X176058333Y-95133390D02*
X176058333Y-95276247D01*
X176058333Y-95276247D02*
X176010714Y-95466723D01*
X176010714Y-95466723D02*
X175963095Y-95561961D01*
X175963095Y-95561961D02*
X175867857Y-95657200D01*
X175867857Y-95657200D02*
X175725000Y-95704819D01*
X175725000Y-95704819D02*
X175486905Y-95704819D01*
X176915476Y-94704819D02*
X176725000Y-94704819D01*
X176725000Y-94704819D02*
X176629762Y-94752438D01*
X176629762Y-94752438D02*
X176582143Y-94800057D01*
X176582143Y-94800057D02*
X176486905Y-94942914D01*
X176486905Y-94942914D02*
X176439286Y-95133390D01*
X176439286Y-95133390D02*
X176439286Y-95514342D01*
X176439286Y-95514342D02*
X176486905Y-95609580D01*
X176486905Y-95609580D02*
X176534524Y-95657200D01*
X176534524Y-95657200D02*
X176629762Y-95704819D01*
X176629762Y-95704819D02*
X176820238Y-95704819D01*
X176820238Y-95704819D02*
X176915476Y-95657200D01*
X176915476Y-95657200D02*
X176963095Y-95609580D01*
X176963095Y-95609580D02*
X177010714Y-95514342D01*
X177010714Y-95514342D02*
X177010714Y-95276247D01*
X177010714Y-95276247D02*
X176963095Y-95181009D01*
X176963095Y-95181009D02*
X176915476Y-95133390D01*
X176915476Y-95133390D02*
X176820238Y-95085771D01*
X176820238Y-95085771D02*
X176629762Y-95085771D01*
X176629762Y-95085771D02*
X176534524Y-95133390D01*
X176534524Y-95133390D02*
X176486905Y-95181009D01*
X176486905Y-95181009D02*
X176439286Y-95276247D01*
D13*
X161245270Y-108070952D02*
X161184794Y-108191904D01*
X161184794Y-108191904D02*
X161063842Y-108312857D01*
X161063842Y-108312857D02*
X160882413Y-108494285D01*
X160882413Y-108494285D02*
X160821937Y-108615238D01*
X160821937Y-108615238D02*
X160821937Y-108736190D01*
X161124318Y-108675714D02*
X161063842Y-108796666D01*
X161063842Y-108796666D02*
X160942889Y-108917619D01*
X160942889Y-108917619D02*
X160700984Y-108978095D01*
X160700984Y-108978095D02*
X160277651Y-108978095D01*
X160277651Y-108978095D02*
X160035746Y-108917619D01*
X160035746Y-108917619D02*
X159914794Y-108796666D01*
X159914794Y-108796666D02*
X159854318Y-108675714D01*
X159854318Y-108675714D02*
X159854318Y-108433809D01*
X159854318Y-108433809D02*
X159914794Y-108312857D01*
X159914794Y-108312857D02*
X160035746Y-108191904D01*
X160035746Y-108191904D02*
X160277651Y-108131428D01*
X160277651Y-108131428D02*
X160700984Y-108131428D01*
X160700984Y-108131428D02*
X160942889Y-108191904D01*
X160942889Y-108191904D02*
X161063842Y-108312857D01*
X161063842Y-108312857D02*
X161124318Y-108433809D01*
X161124318Y-108433809D02*
X161124318Y-108675714D01*
X159854318Y-107708095D02*
X159854318Y-106921904D01*
X159854318Y-106921904D02*
X160338127Y-107345238D01*
X160338127Y-107345238D02*
X160338127Y-107163809D01*
X160338127Y-107163809D02*
X160398603Y-107042857D01*
X160398603Y-107042857D02*
X160459080Y-106982381D01*
X160459080Y-106982381D02*
X160580032Y-106921904D01*
X160580032Y-106921904D02*
X160882413Y-106921904D01*
X160882413Y-106921904D02*
X161003365Y-106982381D01*
X161003365Y-106982381D02*
X161063842Y-107042857D01*
X161063842Y-107042857D02*
X161124318Y-107163809D01*
X161124318Y-107163809D02*
X161124318Y-107526666D01*
X161124318Y-107526666D02*
X161063842Y-107647619D01*
X161063842Y-107647619D02*
X161003365Y-107708095D01*
D11*
X115483333Y-140854819D02*
X115150000Y-140378628D01*
X114911905Y-140854819D02*
X114911905Y-139854819D01*
X114911905Y-139854819D02*
X115292857Y-139854819D01*
X115292857Y-139854819D02*
X115388095Y-139902438D01*
X115388095Y-139902438D02*
X115435714Y-139950057D01*
X115435714Y-139950057D02*
X115483333Y-140045295D01*
X115483333Y-140045295D02*
X115483333Y-140188152D01*
X115483333Y-140188152D02*
X115435714Y-140283390D01*
X115435714Y-140283390D02*
X115388095Y-140331009D01*
X115388095Y-140331009D02*
X115292857Y-140378628D01*
X115292857Y-140378628D02*
X114911905Y-140378628D01*
X115959524Y-140854819D02*
X116150000Y-140854819D01*
X116150000Y-140854819D02*
X116245238Y-140807200D01*
X116245238Y-140807200D02*
X116292857Y-140759580D01*
X116292857Y-140759580D02*
X116388095Y-140616723D01*
X116388095Y-140616723D02*
X116435714Y-140426247D01*
X116435714Y-140426247D02*
X116435714Y-140045295D01*
X116435714Y-140045295D02*
X116388095Y-139950057D01*
X116388095Y-139950057D02*
X116340476Y-139902438D01*
X116340476Y-139902438D02*
X116245238Y-139854819D01*
X116245238Y-139854819D02*
X116054762Y-139854819D01*
X116054762Y-139854819D02*
X115959524Y-139902438D01*
X115959524Y-139902438D02*
X115911905Y-139950057D01*
X115911905Y-139950057D02*
X115864286Y-140045295D01*
X115864286Y-140045295D02*
X115864286Y-140283390D01*
X115864286Y-140283390D02*
X115911905Y-140378628D01*
X115911905Y-140378628D02*
X115959524Y-140426247D01*
X115959524Y-140426247D02*
X116054762Y-140473866D01*
X116054762Y-140473866D02*
X116245238Y-140473866D01*
X116245238Y-140473866D02*
X116340476Y-140426247D01*
X116340476Y-140426247D02*
X116388095Y-140378628D01*
X116388095Y-140378628D02*
X116435714Y-140283390D01*
D13*
X184787380Y-107873842D02*
X184968809Y-107934318D01*
X184968809Y-107934318D02*
X185271190Y-107934318D01*
X185271190Y-107934318D02*
X185392142Y-107873842D01*
X185392142Y-107873842D02*
X185452618Y-107813365D01*
X185452618Y-107813365D02*
X185513095Y-107692413D01*
X185513095Y-107692413D02*
X185513095Y-107571461D01*
X185513095Y-107571461D02*
X185452618Y-107450508D01*
X185452618Y-107450508D02*
X185392142Y-107390032D01*
X185392142Y-107390032D02*
X185271190Y-107329556D01*
X185271190Y-107329556D02*
X185029285Y-107269080D01*
X185029285Y-107269080D02*
X184908333Y-107208603D01*
X184908333Y-107208603D02*
X184847856Y-107148127D01*
X184847856Y-107148127D02*
X184787380Y-107027175D01*
X184787380Y-107027175D02*
X184787380Y-106906222D01*
X184787380Y-106906222D02*
X184847856Y-106785270D01*
X184847856Y-106785270D02*
X184908333Y-106724794D01*
X184908333Y-106724794D02*
X185029285Y-106664318D01*
X185029285Y-106664318D02*
X185331666Y-106664318D01*
X185331666Y-106664318D02*
X185513095Y-106724794D01*
X186722619Y-107934318D02*
X185996904Y-107934318D01*
X186359761Y-107934318D02*
X186359761Y-106664318D01*
X186359761Y-106664318D02*
X186238809Y-106845746D01*
X186238809Y-106845746D02*
X186117857Y-106966699D01*
X186117857Y-106966699D02*
X185996904Y-107027175D01*
D11*
X168113095Y-97304819D02*
X168684523Y-97304819D01*
X168398809Y-98304819D02*
X168398809Y-97304819D01*
X169017857Y-98304819D02*
X169017857Y-97304819D01*
X169017857Y-97304819D02*
X169398809Y-97304819D01*
X169398809Y-97304819D02*
X169494047Y-97352438D01*
X169494047Y-97352438D02*
X169541666Y-97400057D01*
X169541666Y-97400057D02*
X169589285Y-97495295D01*
X169589285Y-97495295D02*
X169589285Y-97638152D01*
X169589285Y-97638152D02*
X169541666Y-97733390D01*
X169541666Y-97733390D02*
X169494047Y-97781009D01*
X169494047Y-97781009D02*
X169398809Y-97828628D01*
X169398809Y-97828628D02*
X169017857Y-97828628D01*
X169922619Y-97304819D02*
X170589285Y-97304819D01*
X170589285Y-97304819D02*
X170160714Y-98304819D01*
X89007142Y-117804819D02*
X88673809Y-117328628D01*
X88435714Y-117804819D02*
X88435714Y-116804819D01*
X88435714Y-116804819D02*
X88816666Y-116804819D01*
X88816666Y-116804819D02*
X88911904Y-116852438D01*
X88911904Y-116852438D02*
X88959523Y-116900057D01*
X88959523Y-116900057D02*
X89007142Y-116995295D01*
X89007142Y-116995295D02*
X89007142Y-117138152D01*
X89007142Y-117138152D02*
X88959523Y-117233390D01*
X88959523Y-117233390D02*
X88911904Y-117281009D01*
X88911904Y-117281009D02*
X88816666Y-117328628D01*
X88816666Y-117328628D02*
X88435714Y-117328628D01*
X89959523Y-117804819D02*
X89388095Y-117804819D01*
X89673809Y-117804819D02*
X89673809Y-116804819D01*
X89673809Y-116804819D02*
X89578571Y-116947676D01*
X89578571Y-116947676D02*
X89483333Y-117042914D01*
X89483333Y-117042914D02*
X89388095Y-117090533D01*
X90292857Y-116804819D02*
X90959523Y-116804819D01*
X90959523Y-116804819D02*
X90530952Y-117804819D01*
X152311905Y-92824819D02*
X152883333Y-92824819D01*
X152597619Y-93824819D02*
X152597619Y-92824819D01*
X153216667Y-93824819D02*
X153216667Y-92824819D01*
X153216667Y-92824819D02*
X153597619Y-92824819D01*
X153597619Y-92824819D02*
X153692857Y-92872438D01*
X153692857Y-92872438D02*
X153740476Y-92920057D01*
X153740476Y-92920057D02*
X153788095Y-93015295D01*
X153788095Y-93015295D02*
X153788095Y-93158152D01*
X153788095Y-93158152D02*
X153740476Y-93253390D01*
X153740476Y-93253390D02*
X153692857Y-93301009D01*
X153692857Y-93301009D02*
X153597619Y-93348628D01*
X153597619Y-93348628D02*
X153216667Y-93348628D01*
X154740476Y-93824819D02*
X154169048Y-93824819D01*
X154454762Y-93824819D02*
X154454762Y-92824819D01*
X154454762Y-92824819D02*
X154359524Y-92967676D01*
X154359524Y-92967676D02*
X154264286Y-93062914D01*
X154264286Y-93062914D02*
X154169048Y-93110533D01*
X155359524Y-92824819D02*
X155454762Y-92824819D01*
X155454762Y-92824819D02*
X155550000Y-92872438D01*
X155550000Y-92872438D02*
X155597619Y-92920057D01*
X155597619Y-92920057D02*
X155645238Y-93015295D01*
X155645238Y-93015295D02*
X155692857Y-93205771D01*
X155692857Y-93205771D02*
X155692857Y-93443866D01*
X155692857Y-93443866D02*
X155645238Y-93634342D01*
X155645238Y-93634342D02*
X155597619Y-93729580D01*
X155597619Y-93729580D02*
X155550000Y-93777200D01*
X155550000Y-93777200D02*
X155454762Y-93824819D01*
X155454762Y-93824819D02*
X155359524Y-93824819D01*
X155359524Y-93824819D02*
X155264286Y-93777200D01*
X155264286Y-93777200D02*
X155216667Y-93729580D01*
X155216667Y-93729580D02*
X155169048Y-93634342D01*
X155169048Y-93634342D02*
X155121429Y-93443866D01*
X155121429Y-93443866D02*
X155121429Y-93205771D01*
X155121429Y-93205771D02*
X155169048Y-93015295D01*
X155169048Y-93015295D02*
X155216667Y-92920057D01*
X155216667Y-92920057D02*
X155264286Y-92872438D01*
X155264286Y-92872438D02*
X155359524Y-92824819D01*
X85691666Y-94431009D02*
X85358333Y-94431009D01*
X85358333Y-94954819D02*
X85358333Y-93954819D01*
X85358333Y-93954819D02*
X85834523Y-93954819D01*
X86739285Y-94954819D02*
X86167857Y-94954819D01*
X86453571Y-94954819D02*
X86453571Y-93954819D01*
X86453571Y-93954819D02*
X86358333Y-94097676D01*
X86358333Y-94097676D02*
X86263095Y-94192914D01*
X86263095Y-94192914D02*
X86167857Y-94240533D01*
X172891666Y-99331009D02*
X172558333Y-99331009D01*
X172558333Y-99854819D02*
X172558333Y-98854819D01*
X172558333Y-98854819D02*
X173034523Y-98854819D01*
X173844047Y-99188152D02*
X173844047Y-99854819D01*
X173605952Y-98807200D02*
X173367857Y-99521485D01*
X173367857Y-99521485D02*
X173986904Y-99521485D01*
X66161905Y-107004819D02*
X66161905Y-106004819D01*
X66161905Y-106004819D02*
X66400000Y-106004819D01*
X66400000Y-106004819D02*
X66542857Y-106052438D01*
X66542857Y-106052438D02*
X66638095Y-106147676D01*
X66638095Y-106147676D02*
X66685714Y-106242914D01*
X66685714Y-106242914D02*
X66733333Y-106433390D01*
X66733333Y-106433390D02*
X66733333Y-106576247D01*
X66733333Y-106576247D02*
X66685714Y-106766723D01*
X66685714Y-106766723D02*
X66638095Y-106861961D01*
X66638095Y-106861961D02*
X66542857Y-106957200D01*
X66542857Y-106957200D02*
X66400000Y-107004819D01*
X66400000Y-107004819D02*
X66161905Y-107004819D01*
X67066667Y-106004819D02*
X67733333Y-106004819D01*
X67733333Y-106004819D02*
X67304762Y-107004819D01*
X158207142Y-140754819D02*
X157873809Y-140278628D01*
X157635714Y-140754819D02*
X157635714Y-139754819D01*
X157635714Y-139754819D02*
X158016666Y-139754819D01*
X158016666Y-139754819D02*
X158111904Y-139802438D01*
X158111904Y-139802438D02*
X158159523Y-139850057D01*
X158159523Y-139850057D02*
X158207142Y-139945295D01*
X158207142Y-139945295D02*
X158207142Y-140088152D01*
X158207142Y-140088152D02*
X158159523Y-140183390D01*
X158159523Y-140183390D02*
X158111904Y-140231009D01*
X158111904Y-140231009D02*
X158016666Y-140278628D01*
X158016666Y-140278628D02*
X157635714Y-140278628D01*
X159159523Y-140754819D02*
X158588095Y-140754819D01*
X158873809Y-140754819D02*
X158873809Y-139754819D01*
X158873809Y-139754819D02*
X158778571Y-139897676D01*
X158778571Y-139897676D02*
X158683333Y-139992914D01*
X158683333Y-139992914D02*
X158588095Y-140040533D01*
X160111904Y-140754819D02*
X159540476Y-140754819D01*
X159826190Y-140754819D02*
X159826190Y-139754819D01*
X159826190Y-139754819D02*
X159730952Y-139897676D01*
X159730952Y-139897676D02*
X159635714Y-139992914D01*
X159635714Y-139992914D02*
X159540476Y-140040533D01*
X152638095Y-97804819D02*
X153209523Y-97804819D01*
X152923809Y-98804819D02*
X152923809Y-97804819D01*
X153542857Y-98804819D02*
X153542857Y-97804819D01*
X153542857Y-97804819D02*
X153923809Y-97804819D01*
X153923809Y-97804819D02*
X154019047Y-97852438D01*
X154019047Y-97852438D02*
X154066666Y-97900057D01*
X154066666Y-97900057D02*
X154114285Y-97995295D01*
X154114285Y-97995295D02*
X154114285Y-98138152D01*
X154114285Y-98138152D02*
X154066666Y-98233390D01*
X154066666Y-98233390D02*
X154019047Y-98281009D01*
X154019047Y-98281009D02*
X153923809Y-98328628D01*
X153923809Y-98328628D02*
X153542857Y-98328628D01*
X154971428Y-97804819D02*
X154780952Y-97804819D01*
X154780952Y-97804819D02*
X154685714Y-97852438D01*
X154685714Y-97852438D02*
X154638095Y-97900057D01*
X154638095Y-97900057D02*
X154542857Y-98042914D01*
X154542857Y-98042914D02*
X154495238Y-98233390D01*
X154495238Y-98233390D02*
X154495238Y-98614342D01*
X154495238Y-98614342D02*
X154542857Y-98709580D01*
X154542857Y-98709580D02*
X154590476Y-98757200D01*
X154590476Y-98757200D02*
X154685714Y-98804819D01*
X154685714Y-98804819D02*
X154876190Y-98804819D01*
X154876190Y-98804819D02*
X154971428Y-98757200D01*
X154971428Y-98757200D02*
X155019047Y-98709580D01*
X155019047Y-98709580D02*
X155066666Y-98614342D01*
X155066666Y-98614342D02*
X155066666Y-98376247D01*
X155066666Y-98376247D02*
X155019047Y-98281009D01*
X155019047Y-98281009D02*
X154971428Y-98233390D01*
X154971428Y-98233390D02*
X154876190Y-98185771D01*
X154876190Y-98185771D02*
X154685714Y-98185771D01*
X154685714Y-98185771D02*
X154590476Y-98233390D01*
X154590476Y-98233390D02*
X154542857Y-98281009D01*
X154542857Y-98281009D02*
X154495238Y-98376247D01*
X141757142Y-98754819D02*
X141423809Y-98278628D01*
X141185714Y-98754819D02*
X141185714Y-97754819D01*
X141185714Y-97754819D02*
X141566666Y-97754819D01*
X141566666Y-97754819D02*
X141661904Y-97802438D01*
X141661904Y-97802438D02*
X141709523Y-97850057D01*
X141709523Y-97850057D02*
X141757142Y-97945295D01*
X141757142Y-97945295D02*
X141757142Y-98088152D01*
X141757142Y-98088152D02*
X141709523Y-98183390D01*
X141709523Y-98183390D02*
X141661904Y-98231009D01*
X141661904Y-98231009D02*
X141566666Y-98278628D01*
X141566666Y-98278628D02*
X141185714Y-98278628D01*
X142138095Y-97850057D02*
X142185714Y-97802438D01*
X142185714Y-97802438D02*
X142280952Y-97754819D01*
X142280952Y-97754819D02*
X142519047Y-97754819D01*
X142519047Y-97754819D02*
X142614285Y-97802438D01*
X142614285Y-97802438D02*
X142661904Y-97850057D01*
X142661904Y-97850057D02*
X142709523Y-97945295D01*
X142709523Y-97945295D02*
X142709523Y-98040533D01*
X142709523Y-98040533D02*
X142661904Y-98183390D01*
X142661904Y-98183390D02*
X142090476Y-98754819D01*
X142090476Y-98754819D02*
X142709523Y-98754819D01*
X143328571Y-97754819D02*
X143423809Y-97754819D01*
X143423809Y-97754819D02*
X143519047Y-97802438D01*
X143519047Y-97802438D02*
X143566666Y-97850057D01*
X143566666Y-97850057D02*
X143614285Y-97945295D01*
X143614285Y-97945295D02*
X143661904Y-98135771D01*
X143661904Y-98135771D02*
X143661904Y-98373866D01*
X143661904Y-98373866D02*
X143614285Y-98564342D01*
X143614285Y-98564342D02*
X143566666Y-98659580D01*
X143566666Y-98659580D02*
X143519047Y-98707200D01*
X143519047Y-98707200D02*
X143423809Y-98754819D01*
X143423809Y-98754819D02*
X143328571Y-98754819D01*
X143328571Y-98754819D02*
X143233333Y-98707200D01*
X143233333Y-98707200D02*
X143185714Y-98659580D01*
X143185714Y-98659580D02*
X143138095Y-98564342D01*
X143138095Y-98564342D02*
X143090476Y-98373866D01*
X143090476Y-98373866D02*
X143090476Y-98135771D01*
X143090476Y-98135771D02*
X143138095Y-97945295D01*
X143138095Y-97945295D02*
X143185714Y-97850057D01*
X143185714Y-97850057D02*
X143233333Y-97802438D01*
X143233333Y-97802438D02*
X143328571Y-97754819D01*
D13*
X84329047Y-106195270D02*
X84208095Y-106134794D01*
X84208095Y-106134794D02*
X84087142Y-106013842D01*
X84087142Y-106013842D02*
X83905714Y-105832413D01*
X83905714Y-105832413D02*
X83784761Y-105771937D01*
X83784761Y-105771937D02*
X83663809Y-105771937D01*
X83724285Y-106074318D02*
X83603333Y-106013842D01*
X83603333Y-106013842D02*
X83482380Y-105892889D01*
X83482380Y-105892889D02*
X83421904Y-105650984D01*
X83421904Y-105650984D02*
X83421904Y-105227651D01*
X83421904Y-105227651D02*
X83482380Y-104985746D01*
X83482380Y-104985746D02*
X83603333Y-104864794D01*
X83603333Y-104864794D02*
X83724285Y-104804318D01*
X83724285Y-104804318D02*
X83966190Y-104804318D01*
X83966190Y-104804318D02*
X84087142Y-104864794D01*
X84087142Y-104864794D02*
X84208095Y-104985746D01*
X84208095Y-104985746D02*
X84268571Y-105227651D01*
X84268571Y-105227651D02*
X84268571Y-105650984D01*
X84268571Y-105650984D02*
X84208095Y-105892889D01*
X84208095Y-105892889D02*
X84087142Y-106013842D01*
X84087142Y-106013842D02*
X83966190Y-106074318D01*
X83966190Y-106074318D02*
X83724285Y-106074318D01*
X84691904Y-104804318D02*
X85538571Y-104804318D01*
X85538571Y-104804318D02*
X84994285Y-106074318D01*
D11*
X84986905Y-121204819D02*
X84986905Y-120204819D01*
X84986905Y-120204819D02*
X85225000Y-120204819D01*
X85225000Y-120204819D02*
X85367857Y-120252438D01*
X85367857Y-120252438D02*
X85463095Y-120347676D01*
X85463095Y-120347676D02*
X85510714Y-120442914D01*
X85510714Y-120442914D02*
X85558333Y-120633390D01*
X85558333Y-120633390D02*
X85558333Y-120776247D01*
X85558333Y-120776247D02*
X85510714Y-120966723D01*
X85510714Y-120966723D02*
X85463095Y-121061961D01*
X85463095Y-121061961D02*
X85367857Y-121157200D01*
X85367857Y-121157200D02*
X85225000Y-121204819D01*
X85225000Y-121204819D02*
X84986905Y-121204819D01*
X85939286Y-120300057D02*
X85986905Y-120252438D01*
X85986905Y-120252438D02*
X86082143Y-120204819D01*
X86082143Y-120204819D02*
X86320238Y-120204819D01*
X86320238Y-120204819D02*
X86415476Y-120252438D01*
X86415476Y-120252438D02*
X86463095Y-120300057D01*
X86463095Y-120300057D02*
X86510714Y-120395295D01*
X86510714Y-120395295D02*
X86510714Y-120490533D01*
X86510714Y-120490533D02*
X86463095Y-120633390D01*
X86463095Y-120633390D02*
X85891667Y-121204819D01*
X85891667Y-121204819D02*
X86510714Y-121204819D01*
X134754819Y-109141666D02*
X134278628Y-109474999D01*
X134754819Y-109713094D02*
X133754819Y-109713094D01*
X133754819Y-109713094D02*
X133754819Y-109332142D01*
X133754819Y-109332142D02*
X133802438Y-109236904D01*
X133802438Y-109236904D02*
X133850057Y-109189285D01*
X133850057Y-109189285D02*
X133945295Y-109141666D01*
X133945295Y-109141666D02*
X134088152Y-109141666D01*
X134088152Y-109141666D02*
X134183390Y-109189285D01*
X134183390Y-109189285D02*
X134231009Y-109236904D01*
X134231009Y-109236904D02*
X134278628Y-109332142D01*
X134278628Y-109332142D02*
X134278628Y-109713094D01*
X134754819Y-108189285D02*
X134754819Y-108760713D01*
X134754819Y-108474999D02*
X133754819Y-108474999D01*
X133754819Y-108474999D02*
X133897676Y-108570237D01*
X133897676Y-108570237D02*
X133992914Y-108665475D01*
X133992914Y-108665475D02*
X134040533Y-108760713D01*
D13*
X116676667Y-97204318D02*
X116676667Y-98111461D01*
X116676667Y-98111461D02*
X116616190Y-98292889D01*
X116616190Y-98292889D02*
X116495238Y-98413842D01*
X116495238Y-98413842D02*
X116313809Y-98474318D01*
X116313809Y-98474318D02*
X116192857Y-98474318D01*
X117341905Y-98474318D02*
X117583809Y-98474318D01*
X117583809Y-98474318D02*
X117704762Y-98413842D01*
X117704762Y-98413842D02*
X117765238Y-98353365D01*
X117765238Y-98353365D02*
X117886190Y-98171937D01*
X117886190Y-98171937D02*
X117946667Y-97930032D01*
X117946667Y-97930032D02*
X117946667Y-97446222D01*
X117946667Y-97446222D02*
X117886190Y-97325270D01*
X117886190Y-97325270D02*
X117825714Y-97264794D01*
X117825714Y-97264794D02*
X117704762Y-97204318D01*
X117704762Y-97204318D02*
X117462857Y-97204318D01*
X117462857Y-97204318D02*
X117341905Y-97264794D01*
X117341905Y-97264794D02*
X117281428Y-97325270D01*
X117281428Y-97325270D02*
X117220952Y-97446222D01*
X117220952Y-97446222D02*
X117220952Y-97748603D01*
X117220952Y-97748603D02*
X117281428Y-97869556D01*
X117281428Y-97869556D02*
X117341905Y-97930032D01*
X117341905Y-97930032D02*
X117462857Y-97990508D01*
X117462857Y-97990508D02*
X117704762Y-97990508D01*
X117704762Y-97990508D02*
X117825714Y-97930032D01*
X117825714Y-97930032D02*
X117886190Y-97869556D01*
X117886190Y-97869556D02*
X117946667Y-97748603D01*
D11*
X175857142Y-117154819D02*
X175523809Y-116678628D01*
X175285714Y-117154819D02*
X175285714Y-116154819D01*
X175285714Y-116154819D02*
X175666666Y-116154819D01*
X175666666Y-116154819D02*
X175761904Y-116202438D01*
X175761904Y-116202438D02*
X175809523Y-116250057D01*
X175809523Y-116250057D02*
X175857142Y-116345295D01*
X175857142Y-116345295D02*
X175857142Y-116488152D01*
X175857142Y-116488152D02*
X175809523Y-116583390D01*
X175809523Y-116583390D02*
X175761904Y-116631009D01*
X175761904Y-116631009D02*
X175666666Y-116678628D01*
X175666666Y-116678628D02*
X175285714Y-116678628D01*
X176809523Y-117154819D02*
X176238095Y-117154819D01*
X176523809Y-117154819D02*
X176523809Y-116154819D01*
X176523809Y-116154819D02*
X176428571Y-116297676D01*
X176428571Y-116297676D02*
X176333333Y-116392914D01*
X176333333Y-116392914D02*
X176238095Y-116440533D01*
X177666666Y-116154819D02*
X177476190Y-116154819D01*
X177476190Y-116154819D02*
X177380952Y-116202438D01*
X177380952Y-116202438D02*
X177333333Y-116250057D01*
X177333333Y-116250057D02*
X177238095Y-116392914D01*
X177238095Y-116392914D02*
X177190476Y-116583390D01*
X177190476Y-116583390D02*
X177190476Y-116964342D01*
X177190476Y-116964342D02*
X177238095Y-117059580D01*
X177238095Y-117059580D02*
X177285714Y-117107200D01*
X177285714Y-117107200D02*
X177380952Y-117154819D01*
X177380952Y-117154819D02*
X177571428Y-117154819D01*
X177571428Y-117154819D02*
X177666666Y-117107200D01*
X177666666Y-117107200D02*
X177714285Y-117059580D01*
X177714285Y-117059580D02*
X177761904Y-116964342D01*
X177761904Y-116964342D02*
X177761904Y-116726247D01*
X177761904Y-116726247D02*
X177714285Y-116631009D01*
X177714285Y-116631009D02*
X177666666Y-116583390D01*
X177666666Y-116583390D02*
X177571428Y-116535771D01*
X177571428Y-116535771D02*
X177380952Y-116535771D01*
X177380952Y-116535771D02*
X177285714Y-116583390D01*
X177285714Y-116583390D02*
X177238095Y-116631009D01*
X177238095Y-116631009D02*
X177190476Y-116726247D01*
D13*
X124971905Y-97204318D02*
X124971905Y-98111461D01*
X124971905Y-98111461D02*
X124911428Y-98292889D01*
X124911428Y-98292889D02*
X124790476Y-98413842D01*
X124790476Y-98413842D02*
X124609047Y-98474318D01*
X124609047Y-98474318D02*
X124488095Y-98474318D01*
X126241905Y-98474318D02*
X125516190Y-98474318D01*
X125879047Y-98474318D02*
X125879047Y-97204318D01*
X125879047Y-97204318D02*
X125758095Y-97385746D01*
X125758095Y-97385746D02*
X125637143Y-97506699D01*
X125637143Y-97506699D02*
X125516190Y-97567175D01*
X127028095Y-97204318D02*
X127149048Y-97204318D01*
X127149048Y-97204318D02*
X127270000Y-97264794D01*
X127270000Y-97264794D02*
X127330476Y-97325270D01*
X127330476Y-97325270D02*
X127390952Y-97446222D01*
X127390952Y-97446222D02*
X127451429Y-97688127D01*
X127451429Y-97688127D02*
X127451429Y-97990508D01*
X127451429Y-97990508D02*
X127390952Y-98232413D01*
X127390952Y-98232413D02*
X127330476Y-98353365D01*
X127330476Y-98353365D02*
X127270000Y-98413842D01*
X127270000Y-98413842D02*
X127149048Y-98474318D01*
X127149048Y-98474318D02*
X127028095Y-98474318D01*
X127028095Y-98474318D02*
X126907143Y-98413842D01*
X126907143Y-98413842D02*
X126846667Y-98353365D01*
X126846667Y-98353365D02*
X126786190Y-98232413D01*
X126786190Y-98232413D02*
X126725714Y-97990508D01*
X126725714Y-97990508D02*
X126725714Y-97688127D01*
X126725714Y-97688127D02*
X126786190Y-97446222D01*
X126786190Y-97446222D02*
X126846667Y-97325270D01*
X126846667Y-97325270D02*
X126907143Y-97264794D01*
X126907143Y-97264794D02*
X127028095Y-97204318D01*
D11*
X79288095Y-93624819D02*
X79859523Y-93624819D01*
X79573809Y-94624819D02*
X79573809Y-93624819D01*
X80192857Y-94624819D02*
X80192857Y-93624819D01*
X80192857Y-93624819D02*
X80573809Y-93624819D01*
X80573809Y-93624819D02*
X80669047Y-93672438D01*
X80669047Y-93672438D02*
X80716666Y-93720057D01*
X80716666Y-93720057D02*
X80764285Y-93815295D01*
X80764285Y-93815295D02*
X80764285Y-93958152D01*
X80764285Y-93958152D02*
X80716666Y-94053390D01*
X80716666Y-94053390D02*
X80669047Y-94101009D01*
X80669047Y-94101009D02*
X80573809Y-94148628D01*
X80573809Y-94148628D02*
X80192857Y-94148628D01*
X81621428Y-93958152D02*
X81621428Y-94624819D01*
X81383333Y-93577200D02*
X81145238Y-94291485D01*
X81145238Y-94291485D02*
X81764285Y-94291485D01*
X69507142Y-103204819D02*
X69173809Y-102728628D01*
X68935714Y-103204819D02*
X68935714Y-102204819D01*
X68935714Y-102204819D02*
X69316666Y-102204819D01*
X69316666Y-102204819D02*
X69411904Y-102252438D01*
X69411904Y-102252438D02*
X69459523Y-102300057D01*
X69459523Y-102300057D02*
X69507142Y-102395295D01*
X69507142Y-102395295D02*
X69507142Y-102538152D01*
X69507142Y-102538152D02*
X69459523Y-102633390D01*
X69459523Y-102633390D02*
X69411904Y-102681009D01*
X69411904Y-102681009D02*
X69316666Y-102728628D01*
X69316666Y-102728628D02*
X68935714Y-102728628D01*
X69888095Y-102300057D02*
X69935714Y-102252438D01*
X69935714Y-102252438D02*
X70030952Y-102204819D01*
X70030952Y-102204819D02*
X70269047Y-102204819D01*
X70269047Y-102204819D02*
X70364285Y-102252438D01*
X70364285Y-102252438D02*
X70411904Y-102300057D01*
X70411904Y-102300057D02*
X70459523Y-102395295D01*
X70459523Y-102395295D02*
X70459523Y-102490533D01*
X70459523Y-102490533D02*
X70411904Y-102633390D01*
X70411904Y-102633390D02*
X69840476Y-103204819D01*
X69840476Y-103204819D02*
X70459523Y-103204819D01*
X70792857Y-102204819D02*
X71411904Y-102204819D01*
X71411904Y-102204819D02*
X71078571Y-102585771D01*
X71078571Y-102585771D02*
X71221428Y-102585771D01*
X71221428Y-102585771D02*
X71316666Y-102633390D01*
X71316666Y-102633390D02*
X71364285Y-102681009D01*
X71364285Y-102681009D02*
X71411904Y-102776247D01*
X71411904Y-102776247D02*
X71411904Y-103014342D01*
X71411904Y-103014342D02*
X71364285Y-103109580D01*
X71364285Y-103109580D02*
X71316666Y-103157200D01*
X71316666Y-103157200D02*
X71221428Y-103204819D01*
X71221428Y-103204819D02*
X70935714Y-103204819D01*
X70935714Y-103204819D02*
X70840476Y-103157200D01*
X70840476Y-103157200D02*
X70792857Y-103109580D01*
X169304819Y-107816666D02*
X168828628Y-108149999D01*
X169304819Y-108388094D02*
X168304819Y-108388094D01*
X168304819Y-108388094D02*
X168304819Y-108007142D01*
X168304819Y-108007142D02*
X168352438Y-107911904D01*
X168352438Y-107911904D02*
X168400057Y-107864285D01*
X168400057Y-107864285D02*
X168495295Y-107816666D01*
X168495295Y-107816666D02*
X168638152Y-107816666D01*
X168638152Y-107816666D02*
X168733390Y-107864285D01*
X168733390Y-107864285D02*
X168781009Y-107911904D01*
X168781009Y-107911904D02*
X168828628Y-108007142D01*
X168828628Y-108007142D02*
X168828628Y-108388094D01*
X168304819Y-106911904D02*
X168304819Y-107388094D01*
X168304819Y-107388094D02*
X168781009Y-107435713D01*
X168781009Y-107435713D02*
X168733390Y-107388094D01*
X168733390Y-107388094D02*
X168685771Y-107292856D01*
X168685771Y-107292856D02*
X168685771Y-107054761D01*
X168685771Y-107054761D02*
X168733390Y-106959523D01*
X168733390Y-106959523D02*
X168781009Y-106911904D01*
X168781009Y-106911904D02*
X168876247Y-106864285D01*
X168876247Y-106864285D02*
X169114342Y-106864285D01*
X169114342Y-106864285D02*
X169209580Y-106911904D01*
X169209580Y-106911904D02*
X169257200Y-106959523D01*
X169257200Y-106959523D02*
X169304819Y-107054761D01*
X169304819Y-107054761D02*
X169304819Y-107292856D01*
X169304819Y-107292856D02*
X169257200Y-107388094D01*
X169257200Y-107388094D02*
X169209580Y-107435713D01*
X71557142Y-141054819D02*
X71223809Y-140578628D01*
X70985714Y-141054819D02*
X70985714Y-140054819D01*
X70985714Y-140054819D02*
X71366666Y-140054819D01*
X71366666Y-140054819D02*
X71461904Y-140102438D01*
X71461904Y-140102438D02*
X71509523Y-140150057D01*
X71509523Y-140150057D02*
X71557142Y-140245295D01*
X71557142Y-140245295D02*
X71557142Y-140388152D01*
X71557142Y-140388152D02*
X71509523Y-140483390D01*
X71509523Y-140483390D02*
X71461904Y-140531009D01*
X71461904Y-140531009D02*
X71366666Y-140578628D01*
X71366666Y-140578628D02*
X70985714Y-140578628D01*
X72509523Y-141054819D02*
X71938095Y-141054819D01*
X72223809Y-141054819D02*
X72223809Y-140054819D01*
X72223809Y-140054819D02*
X72128571Y-140197676D01*
X72128571Y-140197676D02*
X72033333Y-140292914D01*
X72033333Y-140292914D02*
X71938095Y-140340533D01*
X72842857Y-140054819D02*
X73461904Y-140054819D01*
X73461904Y-140054819D02*
X73128571Y-140435771D01*
X73128571Y-140435771D02*
X73271428Y-140435771D01*
X73271428Y-140435771D02*
X73366666Y-140483390D01*
X73366666Y-140483390D02*
X73414285Y-140531009D01*
X73414285Y-140531009D02*
X73461904Y-140626247D01*
X73461904Y-140626247D02*
X73461904Y-140864342D01*
X73461904Y-140864342D02*
X73414285Y-140959580D01*
X73414285Y-140959580D02*
X73366666Y-141007200D01*
X73366666Y-141007200D02*
X73271428Y-141054819D01*
X73271428Y-141054819D02*
X72985714Y-141054819D01*
X72985714Y-141054819D02*
X72890476Y-141007200D01*
X72890476Y-141007200D02*
X72842857Y-140959580D01*
X162579819Y-104541666D02*
X162103628Y-104874999D01*
X162579819Y-105113094D02*
X161579819Y-105113094D01*
X161579819Y-105113094D02*
X161579819Y-104732142D01*
X161579819Y-104732142D02*
X161627438Y-104636904D01*
X161627438Y-104636904D02*
X161675057Y-104589285D01*
X161675057Y-104589285D02*
X161770295Y-104541666D01*
X161770295Y-104541666D02*
X161913152Y-104541666D01*
X161913152Y-104541666D02*
X162008390Y-104589285D01*
X162008390Y-104589285D02*
X162056009Y-104636904D01*
X162056009Y-104636904D02*
X162103628Y-104732142D01*
X162103628Y-104732142D02*
X162103628Y-105113094D01*
X161913152Y-103684523D02*
X162579819Y-103684523D01*
X161532200Y-103922618D02*
X162246485Y-104160713D01*
X162246485Y-104160713D02*
X162246485Y-103541666D01*
X81583333Y-110004819D02*
X81250000Y-109528628D01*
X81011905Y-110004819D02*
X81011905Y-109004819D01*
X81011905Y-109004819D02*
X81392857Y-109004819D01*
X81392857Y-109004819D02*
X81488095Y-109052438D01*
X81488095Y-109052438D02*
X81535714Y-109100057D01*
X81535714Y-109100057D02*
X81583333Y-109195295D01*
X81583333Y-109195295D02*
X81583333Y-109338152D01*
X81583333Y-109338152D02*
X81535714Y-109433390D01*
X81535714Y-109433390D02*
X81488095Y-109481009D01*
X81488095Y-109481009D02*
X81392857Y-109528628D01*
X81392857Y-109528628D02*
X81011905Y-109528628D01*
X81916667Y-109004819D02*
X82583333Y-109004819D01*
X82583333Y-109004819D02*
X82154762Y-110004819D01*
X115457142Y-142804819D02*
X115123809Y-142328628D01*
X114885714Y-142804819D02*
X114885714Y-141804819D01*
X114885714Y-141804819D02*
X115266666Y-141804819D01*
X115266666Y-141804819D02*
X115361904Y-141852438D01*
X115361904Y-141852438D02*
X115409523Y-141900057D01*
X115409523Y-141900057D02*
X115457142Y-141995295D01*
X115457142Y-141995295D02*
X115457142Y-142138152D01*
X115457142Y-142138152D02*
X115409523Y-142233390D01*
X115409523Y-142233390D02*
X115361904Y-142281009D01*
X115361904Y-142281009D02*
X115266666Y-142328628D01*
X115266666Y-142328628D02*
X114885714Y-142328628D01*
X116409523Y-142804819D02*
X115838095Y-142804819D01*
X116123809Y-142804819D02*
X116123809Y-141804819D01*
X116123809Y-141804819D02*
X116028571Y-141947676D01*
X116028571Y-141947676D02*
X115933333Y-142042914D01*
X115933333Y-142042914D02*
X115838095Y-142090533D01*
X117028571Y-141804819D02*
X117123809Y-141804819D01*
X117123809Y-141804819D02*
X117219047Y-141852438D01*
X117219047Y-141852438D02*
X117266666Y-141900057D01*
X117266666Y-141900057D02*
X117314285Y-141995295D01*
X117314285Y-141995295D02*
X117361904Y-142185771D01*
X117361904Y-142185771D02*
X117361904Y-142423866D01*
X117361904Y-142423866D02*
X117314285Y-142614342D01*
X117314285Y-142614342D02*
X117266666Y-142709580D01*
X117266666Y-142709580D02*
X117219047Y-142757200D01*
X117219047Y-142757200D02*
X117123809Y-142804819D01*
X117123809Y-142804819D02*
X117028571Y-142804819D01*
X117028571Y-142804819D02*
X116933333Y-142757200D01*
X116933333Y-142757200D02*
X116885714Y-142709580D01*
X116885714Y-142709580D02*
X116838095Y-142614342D01*
X116838095Y-142614342D02*
X116790476Y-142423866D01*
X116790476Y-142423866D02*
X116790476Y-142185771D01*
X116790476Y-142185771D02*
X116838095Y-141995295D01*
X116838095Y-141995295D02*
X116885714Y-141900057D01*
X116885714Y-141900057D02*
X116933333Y-141852438D01*
X116933333Y-141852438D02*
X117028571Y-141804819D01*
D13*
X67393318Y-114688332D02*
X68300461Y-114688332D01*
X68300461Y-114688332D02*
X68481889Y-114748809D01*
X68481889Y-114748809D02*
X68602842Y-114869761D01*
X68602842Y-114869761D02*
X68663318Y-115051190D01*
X68663318Y-115051190D02*
X68663318Y-115172142D01*
X68663318Y-113418332D02*
X68663318Y-114144047D01*
X68663318Y-113781190D02*
X67393318Y-113781190D01*
X67393318Y-113781190D02*
X67574746Y-113902142D01*
X67574746Y-113902142D02*
X67695699Y-114023094D01*
X67695699Y-114023094D02*
X67756175Y-114144047D01*
D11*
X150685714Y-118019104D02*
X151161904Y-118019104D01*
X150590476Y-118304819D02*
X150923809Y-117304819D01*
X150923809Y-117304819D02*
X151257142Y-118304819D01*
X152114285Y-118304819D02*
X151542857Y-118304819D01*
X151828571Y-118304819D02*
X151828571Y-117304819D01*
X151828571Y-117304819D02*
X151733333Y-117447676D01*
X151733333Y-117447676D02*
X151638095Y-117542914D01*
X151638095Y-117542914D02*
X151542857Y-117590533D01*
X113185180Y-126718095D02*
X112375657Y-126718095D01*
X112375657Y-126718095D02*
X112280419Y-126765714D01*
X112280419Y-126765714D02*
X112232800Y-126813333D01*
X112232800Y-126813333D02*
X112185180Y-126908571D01*
X112185180Y-126908571D02*
X112185180Y-127099047D01*
X112185180Y-127099047D02*
X112232800Y-127194285D01*
X112232800Y-127194285D02*
X112280419Y-127241904D01*
X112280419Y-127241904D02*
X112375657Y-127289523D01*
X112375657Y-127289523D02*
X113185180Y-127289523D01*
X112232800Y-127718095D02*
X112185180Y-127860952D01*
X112185180Y-127860952D02*
X112185180Y-128099047D01*
X112185180Y-128099047D02*
X112232800Y-128194285D01*
X112232800Y-128194285D02*
X112280419Y-128241904D01*
X112280419Y-128241904D02*
X112375657Y-128289523D01*
X112375657Y-128289523D02*
X112470895Y-128289523D01*
X112470895Y-128289523D02*
X112566133Y-128241904D01*
X112566133Y-128241904D02*
X112613752Y-128194285D01*
X112613752Y-128194285D02*
X112661371Y-128099047D01*
X112661371Y-128099047D02*
X112708990Y-127908571D01*
X112708990Y-127908571D02*
X112756609Y-127813333D01*
X112756609Y-127813333D02*
X112804228Y-127765714D01*
X112804228Y-127765714D02*
X112899466Y-127718095D01*
X112899466Y-127718095D02*
X112994704Y-127718095D01*
X112994704Y-127718095D02*
X113089942Y-127765714D01*
X113089942Y-127765714D02*
X113137561Y-127813333D01*
X113137561Y-127813333D02*
X113185180Y-127908571D01*
X113185180Y-127908571D02*
X113185180Y-128146666D01*
X113185180Y-128146666D02*
X113137561Y-128289523D01*
X112708990Y-129051428D02*
X112661371Y-129194285D01*
X112661371Y-129194285D02*
X112613752Y-129241904D01*
X112613752Y-129241904D02*
X112518514Y-129289523D01*
X112518514Y-129289523D02*
X112375657Y-129289523D01*
X112375657Y-129289523D02*
X112280419Y-129241904D01*
X112280419Y-129241904D02*
X112232800Y-129194285D01*
X112232800Y-129194285D02*
X112185180Y-129099047D01*
X112185180Y-129099047D02*
X112185180Y-128718095D01*
X112185180Y-128718095D02*
X113185180Y-128718095D01*
X113185180Y-128718095D02*
X113185180Y-129051428D01*
X113185180Y-129051428D02*
X113137561Y-129146666D01*
X113137561Y-129146666D02*
X113089942Y-129194285D01*
X113089942Y-129194285D02*
X112994704Y-129241904D01*
X112994704Y-129241904D02*
X112899466Y-129241904D01*
X112899466Y-129241904D02*
X112804228Y-129194285D01*
X112804228Y-129194285D02*
X112756609Y-129146666D01*
X112756609Y-129146666D02*
X112708990Y-129051428D01*
X112708990Y-129051428D02*
X112708990Y-128718095D01*
D13*
X141879047Y-109445270D02*
X141758095Y-109384794D01*
X141758095Y-109384794D02*
X141637142Y-109263842D01*
X141637142Y-109263842D02*
X141455714Y-109082413D01*
X141455714Y-109082413D02*
X141334761Y-109021937D01*
X141334761Y-109021937D02*
X141213809Y-109021937D01*
X141274285Y-109324318D02*
X141153333Y-109263842D01*
X141153333Y-109263842D02*
X141032380Y-109142889D01*
X141032380Y-109142889D02*
X140971904Y-108900984D01*
X140971904Y-108900984D02*
X140971904Y-108477651D01*
X140971904Y-108477651D02*
X141032380Y-108235746D01*
X141032380Y-108235746D02*
X141153333Y-108114794D01*
X141153333Y-108114794D02*
X141274285Y-108054318D01*
X141274285Y-108054318D02*
X141516190Y-108054318D01*
X141516190Y-108054318D02*
X141637142Y-108114794D01*
X141637142Y-108114794D02*
X141758095Y-108235746D01*
X141758095Y-108235746D02*
X141818571Y-108477651D01*
X141818571Y-108477651D02*
X141818571Y-108900984D01*
X141818571Y-108900984D02*
X141758095Y-109142889D01*
X141758095Y-109142889D02*
X141637142Y-109263842D01*
X141637142Y-109263842D02*
X141516190Y-109324318D01*
X141516190Y-109324318D02*
X141274285Y-109324318D01*
X143028095Y-109324318D02*
X142302380Y-109324318D01*
X142665237Y-109324318D02*
X142665237Y-108054318D01*
X142665237Y-108054318D02*
X142544285Y-108235746D01*
X142544285Y-108235746D02*
X142423333Y-108356699D01*
X142423333Y-108356699D02*
X142302380Y-108417175D01*
D11*
X78811905Y-88724819D02*
X79383333Y-88724819D01*
X79097619Y-89724819D02*
X79097619Y-88724819D01*
X79716667Y-89724819D02*
X79716667Y-88724819D01*
X79716667Y-88724819D02*
X80097619Y-88724819D01*
X80097619Y-88724819D02*
X80192857Y-88772438D01*
X80192857Y-88772438D02*
X80240476Y-88820057D01*
X80240476Y-88820057D02*
X80288095Y-88915295D01*
X80288095Y-88915295D02*
X80288095Y-89058152D01*
X80288095Y-89058152D02*
X80240476Y-89153390D01*
X80240476Y-89153390D02*
X80192857Y-89201009D01*
X80192857Y-89201009D02*
X80097619Y-89248628D01*
X80097619Y-89248628D02*
X79716667Y-89248628D01*
X81240476Y-89724819D02*
X80669048Y-89724819D01*
X80954762Y-89724819D02*
X80954762Y-88724819D01*
X80954762Y-88724819D02*
X80859524Y-88867676D01*
X80859524Y-88867676D02*
X80764286Y-88962914D01*
X80764286Y-88962914D02*
X80669048Y-89010533D01*
X81621429Y-88820057D02*
X81669048Y-88772438D01*
X81669048Y-88772438D02*
X81764286Y-88724819D01*
X81764286Y-88724819D02*
X82002381Y-88724819D01*
X82002381Y-88724819D02*
X82097619Y-88772438D01*
X82097619Y-88772438D02*
X82145238Y-88820057D01*
X82145238Y-88820057D02*
X82192857Y-88915295D01*
X82192857Y-88915295D02*
X82192857Y-89010533D01*
X82192857Y-89010533D02*
X82145238Y-89153390D01*
X82145238Y-89153390D02*
X81573810Y-89724819D01*
X81573810Y-89724819D02*
X82192857Y-89724819D01*
D13*
X161679318Y-87648332D02*
X162586461Y-87648332D01*
X162586461Y-87648332D02*
X162767889Y-87708809D01*
X162767889Y-87708809D02*
X162888842Y-87829761D01*
X162888842Y-87829761D02*
X162949318Y-88011190D01*
X162949318Y-88011190D02*
X162949318Y-88132142D01*
X161679318Y-87164523D02*
X161679318Y-86378332D01*
X161679318Y-86378332D02*
X162163127Y-86801666D01*
X162163127Y-86801666D02*
X162163127Y-86620237D01*
X162163127Y-86620237D02*
X162223603Y-86499285D01*
X162223603Y-86499285D02*
X162284080Y-86438809D01*
X162284080Y-86438809D02*
X162405032Y-86378332D01*
X162405032Y-86378332D02*
X162707413Y-86378332D01*
X162707413Y-86378332D02*
X162828365Y-86438809D01*
X162828365Y-86438809D02*
X162888842Y-86499285D01*
X162888842Y-86499285D02*
X162949318Y-86620237D01*
X162949318Y-86620237D02*
X162949318Y-86983094D01*
X162949318Y-86983094D02*
X162888842Y-87104047D01*
X162888842Y-87104047D02*
X162828365Y-87164523D01*
D11*
X135854819Y-113636904D02*
X135854819Y-113065476D01*
X136854819Y-113351190D02*
X135854819Y-113351190D01*
X136854819Y-112732142D02*
X135854819Y-112732142D01*
X135854819Y-112732142D02*
X135854819Y-112351190D01*
X135854819Y-112351190D02*
X135902438Y-112255952D01*
X135902438Y-112255952D02*
X135950057Y-112208333D01*
X135950057Y-112208333D02*
X136045295Y-112160714D01*
X136045295Y-112160714D02*
X136188152Y-112160714D01*
X136188152Y-112160714D02*
X136283390Y-112208333D01*
X136283390Y-112208333D02*
X136331009Y-112255952D01*
X136331009Y-112255952D02*
X136378628Y-112351190D01*
X136378628Y-112351190D02*
X136378628Y-112732142D01*
X136854819Y-111208333D02*
X136854819Y-111779761D01*
X136854819Y-111494047D02*
X135854819Y-111494047D01*
X135854819Y-111494047D02*
X135997676Y-111589285D01*
X135997676Y-111589285D02*
X136092914Y-111684523D01*
X136092914Y-111684523D02*
X136140533Y-111779761D01*
X160757142Y-98554819D02*
X160423809Y-98078628D01*
X160185714Y-98554819D02*
X160185714Y-97554819D01*
X160185714Y-97554819D02*
X160566666Y-97554819D01*
X160566666Y-97554819D02*
X160661904Y-97602438D01*
X160661904Y-97602438D02*
X160709523Y-97650057D01*
X160709523Y-97650057D02*
X160757142Y-97745295D01*
X160757142Y-97745295D02*
X160757142Y-97888152D01*
X160757142Y-97888152D02*
X160709523Y-97983390D01*
X160709523Y-97983390D02*
X160661904Y-98031009D01*
X160661904Y-98031009D02*
X160566666Y-98078628D01*
X160566666Y-98078628D02*
X160185714Y-98078628D01*
X161138095Y-97650057D02*
X161185714Y-97602438D01*
X161185714Y-97602438D02*
X161280952Y-97554819D01*
X161280952Y-97554819D02*
X161519047Y-97554819D01*
X161519047Y-97554819D02*
X161614285Y-97602438D01*
X161614285Y-97602438D02*
X161661904Y-97650057D01*
X161661904Y-97650057D02*
X161709523Y-97745295D01*
X161709523Y-97745295D02*
X161709523Y-97840533D01*
X161709523Y-97840533D02*
X161661904Y-97983390D01*
X161661904Y-97983390D02*
X161090476Y-98554819D01*
X161090476Y-98554819D02*
X161709523Y-98554819D01*
X162661904Y-98554819D02*
X162090476Y-98554819D01*
X162376190Y-98554819D02*
X162376190Y-97554819D01*
X162376190Y-97554819D02*
X162280952Y-97697676D01*
X162280952Y-97697676D02*
X162185714Y-97792914D01*
X162185714Y-97792914D02*
X162090476Y-97840533D01*
D13*
X84254047Y-104245270D02*
X84133095Y-104184794D01*
X84133095Y-104184794D02*
X84012142Y-104063842D01*
X84012142Y-104063842D02*
X83830714Y-103882413D01*
X83830714Y-103882413D02*
X83709761Y-103821937D01*
X83709761Y-103821937D02*
X83588809Y-103821937D01*
X83649285Y-104124318D02*
X83528333Y-104063842D01*
X83528333Y-104063842D02*
X83407380Y-103942889D01*
X83407380Y-103942889D02*
X83346904Y-103700984D01*
X83346904Y-103700984D02*
X83346904Y-103277651D01*
X83346904Y-103277651D02*
X83407380Y-103035746D01*
X83407380Y-103035746D02*
X83528333Y-102914794D01*
X83528333Y-102914794D02*
X83649285Y-102854318D01*
X83649285Y-102854318D02*
X83891190Y-102854318D01*
X83891190Y-102854318D02*
X84012142Y-102914794D01*
X84012142Y-102914794D02*
X84133095Y-103035746D01*
X84133095Y-103035746D02*
X84193571Y-103277651D01*
X84193571Y-103277651D02*
X84193571Y-103700984D01*
X84193571Y-103700984D02*
X84133095Y-103942889D01*
X84133095Y-103942889D02*
X84012142Y-104063842D01*
X84012142Y-104063842D02*
X83891190Y-104124318D01*
X83891190Y-104124318D02*
X83649285Y-104124318D01*
X84919285Y-103398603D02*
X84798333Y-103338127D01*
X84798333Y-103338127D02*
X84737856Y-103277651D01*
X84737856Y-103277651D02*
X84677380Y-103156699D01*
X84677380Y-103156699D02*
X84677380Y-103096222D01*
X84677380Y-103096222D02*
X84737856Y-102975270D01*
X84737856Y-102975270D02*
X84798333Y-102914794D01*
X84798333Y-102914794D02*
X84919285Y-102854318D01*
X84919285Y-102854318D02*
X85161190Y-102854318D01*
X85161190Y-102854318D02*
X85282142Y-102914794D01*
X85282142Y-102914794D02*
X85342618Y-102975270D01*
X85342618Y-102975270D02*
X85403095Y-103096222D01*
X85403095Y-103096222D02*
X85403095Y-103156699D01*
X85403095Y-103156699D02*
X85342618Y-103277651D01*
X85342618Y-103277651D02*
X85282142Y-103338127D01*
X85282142Y-103338127D02*
X85161190Y-103398603D01*
X85161190Y-103398603D02*
X84919285Y-103398603D01*
X84919285Y-103398603D02*
X84798333Y-103459080D01*
X84798333Y-103459080D02*
X84737856Y-103519556D01*
X84737856Y-103519556D02*
X84677380Y-103640508D01*
X84677380Y-103640508D02*
X84677380Y-103882413D01*
X84677380Y-103882413D02*
X84737856Y-104003365D01*
X84737856Y-104003365D02*
X84798333Y-104063842D01*
X84798333Y-104063842D02*
X84919285Y-104124318D01*
X84919285Y-104124318D02*
X85161190Y-104124318D01*
X85161190Y-104124318D02*
X85282142Y-104063842D01*
X85282142Y-104063842D02*
X85342618Y-104003365D01*
X85342618Y-104003365D02*
X85403095Y-103882413D01*
X85403095Y-103882413D02*
X85403095Y-103640508D01*
X85403095Y-103640508D02*
X85342618Y-103519556D01*
X85342618Y-103519556D02*
X85282142Y-103459080D01*
X85282142Y-103459080D02*
X85161190Y-103398603D01*
D11*
X93033333Y-93109580D02*
X92985714Y-93157200D01*
X92985714Y-93157200D02*
X92842857Y-93204819D01*
X92842857Y-93204819D02*
X92747619Y-93204819D01*
X92747619Y-93204819D02*
X92604762Y-93157200D01*
X92604762Y-93157200D02*
X92509524Y-93061961D01*
X92509524Y-93061961D02*
X92461905Y-92966723D01*
X92461905Y-92966723D02*
X92414286Y-92776247D01*
X92414286Y-92776247D02*
X92414286Y-92633390D01*
X92414286Y-92633390D02*
X92461905Y-92442914D01*
X92461905Y-92442914D02*
X92509524Y-92347676D01*
X92509524Y-92347676D02*
X92604762Y-92252438D01*
X92604762Y-92252438D02*
X92747619Y-92204819D01*
X92747619Y-92204819D02*
X92842857Y-92204819D01*
X92842857Y-92204819D02*
X92985714Y-92252438D01*
X92985714Y-92252438D02*
X93033333Y-92300057D01*
X93414286Y-92300057D02*
X93461905Y-92252438D01*
X93461905Y-92252438D02*
X93557143Y-92204819D01*
X93557143Y-92204819D02*
X93795238Y-92204819D01*
X93795238Y-92204819D02*
X93890476Y-92252438D01*
X93890476Y-92252438D02*
X93938095Y-92300057D01*
X93938095Y-92300057D02*
X93985714Y-92395295D01*
X93985714Y-92395295D02*
X93985714Y-92490533D01*
X93985714Y-92490533D02*
X93938095Y-92633390D01*
X93938095Y-92633390D02*
X93366667Y-93204819D01*
X93366667Y-93204819D02*
X93985714Y-93204819D01*
X182607142Y-138604819D02*
X182273809Y-138128628D01*
X182035714Y-138604819D02*
X182035714Y-137604819D01*
X182035714Y-137604819D02*
X182416666Y-137604819D01*
X182416666Y-137604819D02*
X182511904Y-137652438D01*
X182511904Y-137652438D02*
X182559523Y-137700057D01*
X182559523Y-137700057D02*
X182607142Y-137795295D01*
X182607142Y-137795295D02*
X182607142Y-137938152D01*
X182607142Y-137938152D02*
X182559523Y-138033390D01*
X182559523Y-138033390D02*
X182511904Y-138081009D01*
X182511904Y-138081009D02*
X182416666Y-138128628D01*
X182416666Y-138128628D02*
X182035714Y-138128628D01*
X182988095Y-137700057D02*
X183035714Y-137652438D01*
X183035714Y-137652438D02*
X183130952Y-137604819D01*
X183130952Y-137604819D02*
X183369047Y-137604819D01*
X183369047Y-137604819D02*
X183464285Y-137652438D01*
X183464285Y-137652438D02*
X183511904Y-137700057D01*
X183511904Y-137700057D02*
X183559523Y-137795295D01*
X183559523Y-137795295D02*
X183559523Y-137890533D01*
X183559523Y-137890533D02*
X183511904Y-138033390D01*
X183511904Y-138033390D02*
X182940476Y-138604819D01*
X182940476Y-138604819D02*
X183559523Y-138604819D01*
X184464285Y-137604819D02*
X183988095Y-137604819D01*
X183988095Y-137604819D02*
X183940476Y-138081009D01*
X183940476Y-138081009D02*
X183988095Y-138033390D01*
X183988095Y-138033390D02*
X184083333Y-137985771D01*
X184083333Y-137985771D02*
X184321428Y-137985771D01*
X184321428Y-137985771D02*
X184416666Y-138033390D01*
X184416666Y-138033390D02*
X184464285Y-138081009D01*
X184464285Y-138081009D02*
X184511904Y-138176247D01*
X184511904Y-138176247D02*
X184511904Y-138414342D01*
X184511904Y-138414342D02*
X184464285Y-138509580D01*
X184464285Y-138509580D02*
X184416666Y-138557200D01*
X184416666Y-138557200D02*
X184321428Y-138604819D01*
X184321428Y-138604819D02*
X184083333Y-138604819D01*
X184083333Y-138604819D02*
X183988095Y-138557200D01*
X183988095Y-138557200D02*
X183940476Y-138509580D01*
X170279819Y-112311904D02*
X170279819Y-111740476D01*
X171279819Y-112026190D02*
X170279819Y-112026190D01*
X171279819Y-111407142D02*
X170279819Y-111407142D01*
X170279819Y-111407142D02*
X170279819Y-111026190D01*
X170279819Y-111026190D02*
X170327438Y-110930952D01*
X170327438Y-110930952D02*
X170375057Y-110883333D01*
X170375057Y-110883333D02*
X170470295Y-110835714D01*
X170470295Y-110835714D02*
X170613152Y-110835714D01*
X170613152Y-110835714D02*
X170708390Y-110883333D01*
X170708390Y-110883333D02*
X170756009Y-110930952D01*
X170756009Y-110930952D02*
X170803628Y-111026190D01*
X170803628Y-111026190D02*
X170803628Y-111407142D01*
X170279819Y-110502380D02*
X170279819Y-109883333D01*
X170279819Y-109883333D02*
X170660771Y-110216666D01*
X170660771Y-110216666D02*
X170660771Y-110073809D01*
X170660771Y-110073809D02*
X170708390Y-109978571D01*
X170708390Y-109978571D02*
X170756009Y-109930952D01*
X170756009Y-109930952D02*
X170851247Y-109883333D01*
X170851247Y-109883333D02*
X171089342Y-109883333D01*
X171089342Y-109883333D02*
X171184580Y-109930952D01*
X171184580Y-109930952D02*
X171232200Y-109978571D01*
X171232200Y-109978571D02*
X171279819Y-110073809D01*
X171279819Y-110073809D02*
X171279819Y-110359523D01*
X171279819Y-110359523D02*
X171232200Y-110454761D01*
X171232200Y-110454761D02*
X171184580Y-110502380D01*
X112204819Y-113842857D02*
X111728628Y-114176190D01*
X112204819Y-114414285D02*
X111204819Y-114414285D01*
X111204819Y-114414285D02*
X111204819Y-114033333D01*
X111204819Y-114033333D02*
X111252438Y-113938095D01*
X111252438Y-113938095D02*
X111300057Y-113890476D01*
X111300057Y-113890476D02*
X111395295Y-113842857D01*
X111395295Y-113842857D02*
X111538152Y-113842857D01*
X111538152Y-113842857D02*
X111633390Y-113890476D01*
X111633390Y-113890476D02*
X111681009Y-113938095D01*
X111681009Y-113938095D02*
X111728628Y-114033333D01*
X111728628Y-114033333D02*
X111728628Y-114414285D01*
X111300057Y-113461904D02*
X111252438Y-113414285D01*
X111252438Y-113414285D02*
X111204819Y-113319047D01*
X111204819Y-113319047D02*
X111204819Y-113080952D01*
X111204819Y-113080952D02*
X111252438Y-112985714D01*
X111252438Y-112985714D02*
X111300057Y-112938095D01*
X111300057Y-112938095D02*
X111395295Y-112890476D01*
X111395295Y-112890476D02*
X111490533Y-112890476D01*
X111490533Y-112890476D02*
X111633390Y-112938095D01*
X111633390Y-112938095D02*
X112204819Y-113509523D01*
X112204819Y-113509523D02*
X112204819Y-112890476D01*
X111204819Y-112557142D02*
X111204819Y-111890476D01*
X111204819Y-111890476D02*
X112204819Y-112319047D01*
X143804819Y-105241666D02*
X143328628Y-105574999D01*
X143804819Y-105813094D02*
X142804819Y-105813094D01*
X142804819Y-105813094D02*
X142804819Y-105432142D01*
X142804819Y-105432142D02*
X142852438Y-105336904D01*
X142852438Y-105336904D02*
X142900057Y-105289285D01*
X142900057Y-105289285D02*
X142995295Y-105241666D01*
X142995295Y-105241666D02*
X143138152Y-105241666D01*
X143138152Y-105241666D02*
X143233390Y-105289285D01*
X143233390Y-105289285D02*
X143281009Y-105336904D01*
X143281009Y-105336904D02*
X143328628Y-105432142D01*
X143328628Y-105432142D02*
X143328628Y-105813094D01*
X142900057Y-104860713D02*
X142852438Y-104813094D01*
X142852438Y-104813094D02*
X142804819Y-104717856D01*
X142804819Y-104717856D02*
X142804819Y-104479761D01*
X142804819Y-104479761D02*
X142852438Y-104384523D01*
X142852438Y-104384523D02*
X142900057Y-104336904D01*
X142900057Y-104336904D02*
X142995295Y-104289285D01*
X142995295Y-104289285D02*
X143090533Y-104289285D01*
X143090533Y-104289285D02*
X143233390Y-104336904D01*
X143233390Y-104336904D02*
X143804819Y-104908332D01*
X143804819Y-104908332D02*
X143804819Y-104289285D01*
X141261905Y-96754819D02*
X141261905Y-95754819D01*
X141261905Y-95754819D02*
X141500000Y-95754819D01*
X141500000Y-95754819D02*
X141642857Y-95802438D01*
X141642857Y-95802438D02*
X141738095Y-95897676D01*
X141738095Y-95897676D02*
X141785714Y-95992914D01*
X141785714Y-95992914D02*
X141833333Y-96183390D01*
X141833333Y-96183390D02*
X141833333Y-96326247D01*
X141833333Y-96326247D02*
X141785714Y-96516723D01*
X141785714Y-96516723D02*
X141738095Y-96611961D01*
X141738095Y-96611961D02*
X141642857Y-96707200D01*
X141642857Y-96707200D02*
X141500000Y-96754819D01*
X141500000Y-96754819D02*
X141261905Y-96754819D01*
X142690476Y-96088152D02*
X142690476Y-96754819D01*
X142452381Y-95707200D02*
X142214286Y-96421485D01*
X142214286Y-96421485D02*
X142833333Y-96421485D01*
X182807142Y-136504819D02*
X182473809Y-136028628D01*
X182235714Y-136504819D02*
X182235714Y-135504819D01*
X182235714Y-135504819D02*
X182616666Y-135504819D01*
X182616666Y-135504819D02*
X182711904Y-135552438D01*
X182711904Y-135552438D02*
X182759523Y-135600057D01*
X182759523Y-135600057D02*
X182807142Y-135695295D01*
X182807142Y-135695295D02*
X182807142Y-135838152D01*
X182807142Y-135838152D02*
X182759523Y-135933390D01*
X182759523Y-135933390D02*
X182711904Y-135981009D01*
X182711904Y-135981009D02*
X182616666Y-136028628D01*
X182616666Y-136028628D02*
X182235714Y-136028628D01*
X183188095Y-135600057D02*
X183235714Y-135552438D01*
X183235714Y-135552438D02*
X183330952Y-135504819D01*
X183330952Y-135504819D02*
X183569047Y-135504819D01*
X183569047Y-135504819D02*
X183664285Y-135552438D01*
X183664285Y-135552438D02*
X183711904Y-135600057D01*
X183711904Y-135600057D02*
X183759523Y-135695295D01*
X183759523Y-135695295D02*
X183759523Y-135790533D01*
X183759523Y-135790533D02*
X183711904Y-135933390D01*
X183711904Y-135933390D02*
X183140476Y-136504819D01*
X183140476Y-136504819D02*
X183759523Y-136504819D01*
X184616666Y-135838152D02*
X184616666Y-136504819D01*
X184378571Y-135457200D02*
X184140476Y-136171485D01*
X184140476Y-136171485D02*
X184759523Y-136171485D01*
X153404819Y-108566666D02*
X152928628Y-108899999D01*
X153404819Y-109138094D02*
X152404819Y-109138094D01*
X152404819Y-109138094D02*
X152404819Y-108757142D01*
X152404819Y-108757142D02*
X152452438Y-108661904D01*
X152452438Y-108661904D02*
X152500057Y-108614285D01*
X152500057Y-108614285D02*
X152595295Y-108566666D01*
X152595295Y-108566666D02*
X152738152Y-108566666D01*
X152738152Y-108566666D02*
X152833390Y-108614285D01*
X152833390Y-108614285D02*
X152881009Y-108661904D01*
X152881009Y-108661904D02*
X152928628Y-108757142D01*
X152928628Y-108757142D02*
X152928628Y-109138094D01*
X152404819Y-108233332D02*
X152404819Y-107614285D01*
X152404819Y-107614285D02*
X152785771Y-107947618D01*
X152785771Y-107947618D02*
X152785771Y-107804761D01*
X152785771Y-107804761D02*
X152833390Y-107709523D01*
X152833390Y-107709523D02*
X152881009Y-107661904D01*
X152881009Y-107661904D02*
X152976247Y-107614285D01*
X152976247Y-107614285D02*
X153214342Y-107614285D01*
X153214342Y-107614285D02*
X153309580Y-107661904D01*
X153309580Y-107661904D02*
X153357200Y-107709523D01*
X153357200Y-107709523D02*
X153404819Y-107804761D01*
X153404819Y-107804761D02*
X153404819Y-108090475D01*
X153404819Y-108090475D02*
X153357200Y-108185713D01*
X153357200Y-108185713D02*
X153309580Y-108233332D01*
X85011905Y-117804819D02*
X85011905Y-116804819D01*
X85011905Y-116804819D02*
X85250000Y-116804819D01*
X85250000Y-116804819D02*
X85392857Y-116852438D01*
X85392857Y-116852438D02*
X85488095Y-116947676D01*
X85488095Y-116947676D02*
X85535714Y-117042914D01*
X85535714Y-117042914D02*
X85583333Y-117233390D01*
X85583333Y-117233390D02*
X85583333Y-117376247D01*
X85583333Y-117376247D02*
X85535714Y-117566723D01*
X85535714Y-117566723D02*
X85488095Y-117661961D01*
X85488095Y-117661961D02*
X85392857Y-117757200D01*
X85392857Y-117757200D02*
X85250000Y-117804819D01*
X85250000Y-117804819D02*
X85011905Y-117804819D01*
X86535714Y-117804819D02*
X85964286Y-117804819D01*
X86250000Y-117804819D02*
X86250000Y-116804819D01*
X86250000Y-116804819D02*
X86154762Y-116947676D01*
X86154762Y-116947676D02*
X86059524Y-117042914D01*
X86059524Y-117042914D02*
X85964286Y-117090533D01*
X133638095Y-93054819D02*
X134209523Y-93054819D01*
X133923809Y-94054819D02*
X133923809Y-93054819D01*
X134542857Y-94054819D02*
X134542857Y-93054819D01*
X134542857Y-93054819D02*
X134923809Y-93054819D01*
X134923809Y-93054819D02*
X135019047Y-93102438D01*
X135019047Y-93102438D02*
X135066666Y-93150057D01*
X135066666Y-93150057D02*
X135114285Y-93245295D01*
X135114285Y-93245295D02*
X135114285Y-93388152D01*
X135114285Y-93388152D02*
X135066666Y-93483390D01*
X135066666Y-93483390D02*
X135019047Y-93531009D01*
X135019047Y-93531009D02*
X134923809Y-93578628D01*
X134923809Y-93578628D02*
X134542857Y-93578628D01*
X135590476Y-94054819D02*
X135780952Y-94054819D01*
X135780952Y-94054819D02*
X135876190Y-94007200D01*
X135876190Y-94007200D02*
X135923809Y-93959580D01*
X135923809Y-93959580D02*
X136019047Y-93816723D01*
X136019047Y-93816723D02*
X136066666Y-93626247D01*
X136066666Y-93626247D02*
X136066666Y-93245295D01*
X136066666Y-93245295D02*
X136019047Y-93150057D01*
X136019047Y-93150057D02*
X135971428Y-93102438D01*
X135971428Y-93102438D02*
X135876190Y-93054819D01*
X135876190Y-93054819D02*
X135685714Y-93054819D01*
X135685714Y-93054819D02*
X135590476Y-93102438D01*
X135590476Y-93102438D02*
X135542857Y-93150057D01*
X135542857Y-93150057D02*
X135495238Y-93245295D01*
X135495238Y-93245295D02*
X135495238Y-93483390D01*
X135495238Y-93483390D02*
X135542857Y-93578628D01*
X135542857Y-93578628D02*
X135590476Y-93626247D01*
X135590476Y-93626247D02*
X135685714Y-93673866D01*
X135685714Y-93673866D02*
X135876190Y-93673866D01*
X135876190Y-93673866D02*
X135971428Y-93626247D01*
X135971428Y-93626247D02*
X136019047Y-93578628D01*
X136019047Y-93578628D02*
X136066666Y-93483390D01*
X86804819Y-112061904D02*
X86804819Y-111490476D01*
X87804819Y-111776190D02*
X86804819Y-111776190D01*
X87804819Y-111157142D02*
X86804819Y-111157142D01*
X86804819Y-111157142D02*
X86804819Y-110776190D01*
X86804819Y-110776190D02*
X86852438Y-110680952D01*
X86852438Y-110680952D02*
X86900057Y-110633333D01*
X86900057Y-110633333D02*
X86995295Y-110585714D01*
X86995295Y-110585714D02*
X87138152Y-110585714D01*
X87138152Y-110585714D02*
X87233390Y-110633333D01*
X87233390Y-110633333D02*
X87281009Y-110680952D01*
X87281009Y-110680952D02*
X87328628Y-110776190D01*
X87328628Y-110776190D02*
X87328628Y-111157142D01*
X87233390Y-110014285D02*
X87185771Y-110109523D01*
X87185771Y-110109523D02*
X87138152Y-110157142D01*
X87138152Y-110157142D02*
X87042914Y-110204761D01*
X87042914Y-110204761D02*
X86995295Y-110204761D01*
X86995295Y-110204761D02*
X86900057Y-110157142D01*
X86900057Y-110157142D02*
X86852438Y-110109523D01*
X86852438Y-110109523D02*
X86804819Y-110014285D01*
X86804819Y-110014285D02*
X86804819Y-109823809D01*
X86804819Y-109823809D02*
X86852438Y-109728571D01*
X86852438Y-109728571D02*
X86900057Y-109680952D01*
X86900057Y-109680952D02*
X86995295Y-109633333D01*
X86995295Y-109633333D02*
X87042914Y-109633333D01*
X87042914Y-109633333D02*
X87138152Y-109680952D01*
X87138152Y-109680952D02*
X87185771Y-109728571D01*
X87185771Y-109728571D02*
X87233390Y-109823809D01*
X87233390Y-109823809D02*
X87233390Y-110014285D01*
X87233390Y-110014285D02*
X87281009Y-110109523D01*
X87281009Y-110109523D02*
X87328628Y-110157142D01*
X87328628Y-110157142D02*
X87423866Y-110204761D01*
X87423866Y-110204761D02*
X87614342Y-110204761D01*
X87614342Y-110204761D02*
X87709580Y-110157142D01*
X87709580Y-110157142D02*
X87757200Y-110109523D01*
X87757200Y-110109523D02*
X87804819Y-110014285D01*
X87804819Y-110014285D02*
X87804819Y-109823809D01*
X87804819Y-109823809D02*
X87757200Y-109728571D01*
X87757200Y-109728571D02*
X87709580Y-109680952D01*
X87709580Y-109680952D02*
X87614342Y-109633333D01*
X87614342Y-109633333D02*
X87423866Y-109633333D01*
X87423866Y-109633333D02*
X87328628Y-109680952D01*
X87328628Y-109680952D02*
X87281009Y-109728571D01*
X87281009Y-109728571D02*
X87233390Y-109823809D01*
D13*
X134954047Y-105720270D02*
X134833095Y-105659794D01*
X134833095Y-105659794D02*
X134712142Y-105538842D01*
X134712142Y-105538842D02*
X134530714Y-105357413D01*
X134530714Y-105357413D02*
X134409761Y-105296937D01*
X134409761Y-105296937D02*
X134288809Y-105296937D01*
X134349285Y-105599318D02*
X134228333Y-105538842D01*
X134228333Y-105538842D02*
X134107380Y-105417889D01*
X134107380Y-105417889D02*
X134046904Y-105175984D01*
X134046904Y-105175984D02*
X134046904Y-104752651D01*
X134046904Y-104752651D02*
X134107380Y-104510746D01*
X134107380Y-104510746D02*
X134228333Y-104389794D01*
X134228333Y-104389794D02*
X134349285Y-104329318D01*
X134349285Y-104329318D02*
X134591190Y-104329318D01*
X134591190Y-104329318D02*
X134712142Y-104389794D01*
X134712142Y-104389794D02*
X134833095Y-104510746D01*
X134833095Y-104510746D02*
X134893571Y-104752651D01*
X134893571Y-104752651D02*
X134893571Y-105175984D01*
X134893571Y-105175984D02*
X134833095Y-105417889D01*
X134833095Y-105417889D02*
X134712142Y-105538842D01*
X134712142Y-105538842D02*
X134591190Y-105599318D01*
X134591190Y-105599318D02*
X134349285Y-105599318D01*
X135377380Y-104450270D02*
X135437856Y-104389794D01*
X135437856Y-104389794D02*
X135558809Y-104329318D01*
X135558809Y-104329318D02*
X135861190Y-104329318D01*
X135861190Y-104329318D02*
X135982142Y-104389794D01*
X135982142Y-104389794D02*
X136042618Y-104450270D01*
X136042618Y-104450270D02*
X136103095Y-104571222D01*
X136103095Y-104571222D02*
X136103095Y-104692175D01*
X136103095Y-104692175D02*
X136042618Y-104873603D01*
X136042618Y-104873603D02*
X135316904Y-105599318D01*
X135316904Y-105599318D02*
X136103095Y-105599318D01*
D11*
X79483333Y-99854819D02*
X79150000Y-99378628D01*
X78911905Y-99854819D02*
X78911905Y-98854819D01*
X78911905Y-98854819D02*
X79292857Y-98854819D01*
X79292857Y-98854819D02*
X79388095Y-98902438D01*
X79388095Y-98902438D02*
X79435714Y-98950057D01*
X79435714Y-98950057D02*
X79483333Y-99045295D01*
X79483333Y-99045295D02*
X79483333Y-99188152D01*
X79483333Y-99188152D02*
X79435714Y-99283390D01*
X79435714Y-99283390D02*
X79388095Y-99331009D01*
X79388095Y-99331009D02*
X79292857Y-99378628D01*
X79292857Y-99378628D02*
X78911905Y-99378628D01*
X80054762Y-99283390D02*
X79959524Y-99235771D01*
X79959524Y-99235771D02*
X79911905Y-99188152D01*
X79911905Y-99188152D02*
X79864286Y-99092914D01*
X79864286Y-99092914D02*
X79864286Y-99045295D01*
X79864286Y-99045295D02*
X79911905Y-98950057D01*
X79911905Y-98950057D02*
X79959524Y-98902438D01*
X79959524Y-98902438D02*
X80054762Y-98854819D01*
X80054762Y-98854819D02*
X80245238Y-98854819D01*
X80245238Y-98854819D02*
X80340476Y-98902438D01*
X80340476Y-98902438D02*
X80388095Y-98950057D01*
X80388095Y-98950057D02*
X80435714Y-99045295D01*
X80435714Y-99045295D02*
X80435714Y-99092914D01*
X80435714Y-99092914D02*
X80388095Y-99188152D01*
X80388095Y-99188152D02*
X80340476Y-99235771D01*
X80340476Y-99235771D02*
X80245238Y-99283390D01*
X80245238Y-99283390D02*
X80054762Y-99283390D01*
X80054762Y-99283390D02*
X79959524Y-99331009D01*
X79959524Y-99331009D02*
X79911905Y-99378628D01*
X79911905Y-99378628D02*
X79864286Y-99473866D01*
X79864286Y-99473866D02*
X79864286Y-99664342D01*
X79864286Y-99664342D02*
X79911905Y-99759580D01*
X79911905Y-99759580D02*
X79959524Y-99807200D01*
X79959524Y-99807200D02*
X80054762Y-99854819D01*
X80054762Y-99854819D02*
X80245238Y-99854819D01*
X80245238Y-99854819D02*
X80340476Y-99807200D01*
X80340476Y-99807200D02*
X80388095Y-99759580D01*
X80388095Y-99759580D02*
X80435714Y-99664342D01*
X80435714Y-99664342D02*
X80435714Y-99473866D01*
X80435714Y-99473866D02*
X80388095Y-99378628D01*
X80388095Y-99378628D02*
X80340476Y-99331009D01*
X80340476Y-99331009D02*
X80245238Y-99283390D01*
D13*
X154895270Y-104495952D02*
X154834794Y-104616904D01*
X154834794Y-104616904D02*
X154713842Y-104737857D01*
X154713842Y-104737857D02*
X154532413Y-104919285D01*
X154532413Y-104919285D02*
X154471937Y-105040238D01*
X154471937Y-105040238D02*
X154471937Y-105161190D01*
X154774318Y-105100714D02*
X154713842Y-105221666D01*
X154713842Y-105221666D02*
X154592889Y-105342619D01*
X154592889Y-105342619D02*
X154350984Y-105403095D01*
X154350984Y-105403095D02*
X153927651Y-105403095D01*
X153927651Y-105403095D02*
X153685746Y-105342619D01*
X153685746Y-105342619D02*
X153564794Y-105221666D01*
X153564794Y-105221666D02*
X153504318Y-105100714D01*
X153504318Y-105100714D02*
X153504318Y-104858809D01*
X153504318Y-104858809D02*
X153564794Y-104737857D01*
X153564794Y-104737857D02*
X153685746Y-104616904D01*
X153685746Y-104616904D02*
X153927651Y-104556428D01*
X153927651Y-104556428D02*
X154350984Y-104556428D01*
X154350984Y-104556428D02*
X154592889Y-104616904D01*
X154592889Y-104616904D02*
X154713842Y-104737857D01*
X154713842Y-104737857D02*
X154774318Y-104858809D01*
X154774318Y-104858809D02*
X154774318Y-105100714D01*
X153927651Y-103467857D02*
X154774318Y-103467857D01*
X153443842Y-103770238D02*
X154350984Y-104072619D01*
X154350984Y-104072619D02*
X154350984Y-103286428D01*
D11*
X84986905Y-114104819D02*
X84986905Y-113104819D01*
X84986905Y-113104819D02*
X85225000Y-113104819D01*
X85225000Y-113104819D02*
X85367857Y-113152438D01*
X85367857Y-113152438D02*
X85463095Y-113247676D01*
X85463095Y-113247676D02*
X85510714Y-113342914D01*
X85510714Y-113342914D02*
X85558333Y-113533390D01*
X85558333Y-113533390D02*
X85558333Y-113676247D01*
X85558333Y-113676247D02*
X85510714Y-113866723D01*
X85510714Y-113866723D02*
X85463095Y-113961961D01*
X85463095Y-113961961D02*
X85367857Y-114057200D01*
X85367857Y-114057200D02*
X85225000Y-114104819D01*
X85225000Y-114104819D02*
X84986905Y-114104819D01*
X85891667Y-113104819D02*
X86510714Y-113104819D01*
X86510714Y-113104819D02*
X86177381Y-113485771D01*
X86177381Y-113485771D02*
X86320238Y-113485771D01*
X86320238Y-113485771D02*
X86415476Y-113533390D01*
X86415476Y-113533390D02*
X86463095Y-113581009D01*
X86463095Y-113581009D02*
X86510714Y-113676247D01*
X86510714Y-113676247D02*
X86510714Y-113914342D01*
X86510714Y-113914342D02*
X86463095Y-114009580D01*
X86463095Y-114009580D02*
X86415476Y-114057200D01*
X86415476Y-114057200D02*
X86320238Y-114104819D01*
X86320238Y-114104819D02*
X86034524Y-114104819D01*
X86034524Y-114104819D02*
X85939286Y-114057200D01*
X85939286Y-114057200D02*
X85891667Y-114009580D01*
D13*
X176429047Y-107695270D02*
X176308095Y-107634794D01*
X176308095Y-107634794D02*
X176187142Y-107513842D01*
X176187142Y-107513842D02*
X176005714Y-107332413D01*
X176005714Y-107332413D02*
X175884761Y-107271937D01*
X175884761Y-107271937D02*
X175763809Y-107271937D01*
X175824285Y-107574318D02*
X175703333Y-107513842D01*
X175703333Y-107513842D02*
X175582380Y-107392889D01*
X175582380Y-107392889D02*
X175521904Y-107150984D01*
X175521904Y-107150984D02*
X175521904Y-106727651D01*
X175521904Y-106727651D02*
X175582380Y-106485746D01*
X175582380Y-106485746D02*
X175703333Y-106364794D01*
X175703333Y-106364794D02*
X175824285Y-106304318D01*
X175824285Y-106304318D02*
X176066190Y-106304318D01*
X176066190Y-106304318D02*
X176187142Y-106364794D01*
X176187142Y-106364794D02*
X176308095Y-106485746D01*
X176308095Y-106485746D02*
X176368571Y-106727651D01*
X176368571Y-106727651D02*
X176368571Y-107150984D01*
X176368571Y-107150984D02*
X176308095Y-107392889D01*
X176308095Y-107392889D02*
X176187142Y-107513842D01*
X176187142Y-107513842D02*
X176066190Y-107574318D01*
X176066190Y-107574318D02*
X175824285Y-107574318D01*
X177517618Y-106304318D02*
X176912856Y-106304318D01*
X176912856Y-106304318D02*
X176852380Y-106909080D01*
X176852380Y-106909080D02*
X176912856Y-106848603D01*
X176912856Y-106848603D02*
X177033809Y-106788127D01*
X177033809Y-106788127D02*
X177336190Y-106788127D01*
X177336190Y-106788127D02*
X177457142Y-106848603D01*
X177457142Y-106848603D02*
X177517618Y-106909080D01*
X177517618Y-106909080D02*
X177578095Y-107030032D01*
X177578095Y-107030032D02*
X177578095Y-107332413D01*
X177578095Y-107332413D02*
X177517618Y-107453365D01*
X177517618Y-107453365D02*
X177457142Y-107513842D01*
X177457142Y-107513842D02*
X177336190Y-107574318D01*
X177336190Y-107574318D02*
X177033809Y-107574318D01*
X177033809Y-107574318D02*
X176912856Y-107513842D01*
X176912856Y-107513842D02*
X176852380Y-107453365D01*
X142454318Y-87548332D02*
X143361461Y-87548332D01*
X143361461Y-87548332D02*
X143542889Y-87608809D01*
X143542889Y-87608809D02*
X143663842Y-87729761D01*
X143663842Y-87729761D02*
X143724318Y-87911190D01*
X143724318Y-87911190D02*
X143724318Y-88032142D01*
X142575270Y-87004047D02*
X142514794Y-86943571D01*
X142514794Y-86943571D02*
X142454318Y-86822618D01*
X142454318Y-86822618D02*
X142454318Y-86520237D01*
X142454318Y-86520237D02*
X142514794Y-86399285D01*
X142514794Y-86399285D02*
X142575270Y-86338809D01*
X142575270Y-86338809D02*
X142696222Y-86278332D01*
X142696222Y-86278332D02*
X142817175Y-86278332D01*
X142817175Y-86278332D02*
X142998603Y-86338809D01*
X142998603Y-86338809D02*
X143724318Y-87064523D01*
X143724318Y-87064523D02*
X143724318Y-86278332D01*
D11*
X84299819Y-85948333D02*
X85014104Y-85948333D01*
X85014104Y-85948333D02*
X85156961Y-85995952D01*
X85156961Y-85995952D02*
X85252200Y-86091190D01*
X85252200Y-86091190D02*
X85299819Y-86234047D01*
X85299819Y-86234047D02*
X85299819Y-86329285D01*
X84299819Y-84995952D02*
X84299819Y-85472142D01*
X84299819Y-85472142D02*
X84776009Y-85519761D01*
X84776009Y-85519761D02*
X84728390Y-85472142D01*
X84728390Y-85472142D02*
X84680771Y-85376904D01*
X84680771Y-85376904D02*
X84680771Y-85138809D01*
X84680771Y-85138809D02*
X84728390Y-85043571D01*
X84728390Y-85043571D02*
X84776009Y-84995952D01*
X84776009Y-84995952D02*
X84871247Y-84948333D01*
X84871247Y-84948333D02*
X85109342Y-84948333D01*
X85109342Y-84948333D02*
X85204580Y-84995952D01*
X85204580Y-84995952D02*
X85252200Y-85043571D01*
X85252200Y-85043571D02*
X85299819Y-85138809D01*
X85299819Y-85138809D02*
X85299819Y-85376904D01*
X85299819Y-85376904D02*
X85252200Y-85472142D01*
X85252200Y-85472142D02*
X85204580Y-85519761D01*
X103704819Y-113642857D02*
X103228628Y-113976190D01*
X103704819Y-114214285D02*
X102704819Y-114214285D01*
X102704819Y-114214285D02*
X102704819Y-113833333D01*
X102704819Y-113833333D02*
X102752438Y-113738095D01*
X102752438Y-113738095D02*
X102800057Y-113690476D01*
X102800057Y-113690476D02*
X102895295Y-113642857D01*
X102895295Y-113642857D02*
X103038152Y-113642857D01*
X103038152Y-113642857D02*
X103133390Y-113690476D01*
X103133390Y-113690476D02*
X103181009Y-113738095D01*
X103181009Y-113738095D02*
X103228628Y-113833333D01*
X103228628Y-113833333D02*
X103228628Y-114214285D01*
X102800057Y-113261904D02*
X102752438Y-113214285D01*
X102752438Y-113214285D02*
X102704819Y-113119047D01*
X102704819Y-113119047D02*
X102704819Y-112880952D01*
X102704819Y-112880952D02*
X102752438Y-112785714D01*
X102752438Y-112785714D02*
X102800057Y-112738095D01*
X102800057Y-112738095D02*
X102895295Y-112690476D01*
X102895295Y-112690476D02*
X102990533Y-112690476D01*
X102990533Y-112690476D02*
X103133390Y-112738095D01*
X103133390Y-112738095D02*
X103704819Y-113309523D01*
X103704819Y-113309523D02*
X103704819Y-112690476D01*
X102704819Y-111833333D02*
X102704819Y-112023809D01*
X102704819Y-112023809D02*
X102752438Y-112119047D01*
X102752438Y-112119047D02*
X102800057Y-112166666D01*
X102800057Y-112166666D02*
X102942914Y-112261904D01*
X102942914Y-112261904D02*
X103133390Y-112309523D01*
X103133390Y-112309523D02*
X103514342Y-112309523D01*
X103514342Y-112309523D02*
X103609580Y-112261904D01*
X103609580Y-112261904D02*
X103657200Y-112214285D01*
X103657200Y-112214285D02*
X103704819Y-112119047D01*
X103704819Y-112119047D02*
X103704819Y-111928571D01*
X103704819Y-111928571D02*
X103657200Y-111833333D01*
X103657200Y-111833333D02*
X103609580Y-111785714D01*
X103609580Y-111785714D02*
X103514342Y-111738095D01*
X103514342Y-111738095D02*
X103276247Y-111738095D01*
X103276247Y-111738095D02*
X103181009Y-111785714D01*
X103181009Y-111785714D02*
X103133390Y-111833333D01*
X103133390Y-111833333D02*
X103085771Y-111928571D01*
X103085771Y-111928571D02*
X103085771Y-112119047D01*
X103085771Y-112119047D02*
X103133390Y-112214285D01*
X103133390Y-112214285D02*
X103181009Y-112261904D01*
X103181009Y-112261904D02*
X103276247Y-112309523D01*
X83631009Y-93808333D02*
X83631009Y-94141666D01*
X84154819Y-94141666D02*
X83154819Y-94141666D01*
X83154819Y-94141666D02*
X83154819Y-93665476D01*
X83154819Y-92808333D02*
X83154819Y-93284523D01*
X83154819Y-93284523D02*
X83631009Y-93332142D01*
X83631009Y-93332142D02*
X83583390Y-93284523D01*
X83583390Y-93284523D02*
X83535771Y-93189285D01*
X83535771Y-93189285D02*
X83535771Y-92951190D01*
X83535771Y-92951190D02*
X83583390Y-92855952D01*
X83583390Y-92855952D02*
X83631009Y-92808333D01*
X83631009Y-92808333D02*
X83726247Y-92760714D01*
X83726247Y-92760714D02*
X83964342Y-92760714D01*
X83964342Y-92760714D02*
X84059580Y-92808333D01*
X84059580Y-92808333D02*
X84107200Y-92855952D01*
X84107200Y-92855952D02*
X84154819Y-92951190D01*
X84154819Y-92951190D02*
X84154819Y-93189285D01*
X84154819Y-93189285D02*
X84107200Y-93284523D01*
X84107200Y-93284523D02*
X84059580Y-93332142D01*
X129304819Y-114042857D02*
X128828628Y-114376190D01*
X129304819Y-114614285D02*
X128304819Y-114614285D01*
X128304819Y-114614285D02*
X128304819Y-114233333D01*
X128304819Y-114233333D02*
X128352438Y-114138095D01*
X128352438Y-114138095D02*
X128400057Y-114090476D01*
X128400057Y-114090476D02*
X128495295Y-114042857D01*
X128495295Y-114042857D02*
X128638152Y-114042857D01*
X128638152Y-114042857D02*
X128733390Y-114090476D01*
X128733390Y-114090476D02*
X128781009Y-114138095D01*
X128781009Y-114138095D02*
X128828628Y-114233333D01*
X128828628Y-114233333D02*
X128828628Y-114614285D01*
X128400057Y-113661904D02*
X128352438Y-113614285D01*
X128352438Y-113614285D02*
X128304819Y-113519047D01*
X128304819Y-113519047D02*
X128304819Y-113280952D01*
X128304819Y-113280952D02*
X128352438Y-113185714D01*
X128352438Y-113185714D02*
X128400057Y-113138095D01*
X128400057Y-113138095D02*
X128495295Y-113090476D01*
X128495295Y-113090476D02*
X128590533Y-113090476D01*
X128590533Y-113090476D02*
X128733390Y-113138095D01*
X128733390Y-113138095D02*
X129304819Y-113709523D01*
X129304819Y-113709523D02*
X129304819Y-113090476D01*
X129304819Y-112614285D02*
X129304819Y-112423809D01*
X129304819Y-112423809D02*
X129257200Y-112328571D01*
X129257200Y-112328571D02*
X129209580Y-112280952D01*
X129209580Y-112280952D02*
X129066723Y-112185714D01*
X129066723Y-112185714D02*
X128876247Y-112138095D01*
X128876247Y-112138095D02*
X128495295Y-112138095D01*
X128495295Y-112138095D02*
X128400057Y-112185714D01*
X128400057Y-112185714D02*
X128352438Y-112233333D01*
X128352438Y-112233333D02*
X128304819Y-112328571D01*
X128304819Y-112328571D02*
X128304819Y-112519047D01*
X128304819Y-112519047D02*
X128352438Y-112614285D01*
X128352438Y-112614285D02*
X128400057Y-112661904D01*
X128400057Y-112661904D02*
X128495295Y-112709523D01*
X128495295Y-112709523D02*
X128733390Y-112709523D01*
X128733390Y-112709523D02*
X128828628Y-112661904D01*
X128828628Y-112661904D02*
X128876247Y-112614285D01*
X128876247Y-112614285D02*
X128923866Y-112519047D01*
X128923866Y-112519047D02*
X128923866Y-112328571D01*
X128923866Y-112328571D02*
X128876247Y-112233333D01*
X128876247Y-112233333D02*
X128828628Y-112185714D01*
X128828628Y-112185714D02*
X128733390Y-112138095D01*
D14*
%TO.C,R19*%
X89727064Y-116035000D02*
X89272936Y-116035000D01*
X89727064Y-114565000D02*
X89272936Y-114565000D01*
D15*
%TO.C,S3*%
X188140000Y-133810000D02*
X188140000Y-124310000D01*
X188140000Y-124310000D02*
X180140000Y-124310000D01*
X180140000Y-133810000D02*
X188140000Y-133810000D01*
X180140000Y-132520000D02*
X180140000Y-133810000D01*
X180140000Y-124310000D02*
X180140000Y-125520000D01*
%TO.C,J8*%
X106110000Y-99950000D02*
X111590000Y-99950000D01*
X106110000Y-106450000D02*
X106110000Y-99950000D01*
X111590000Y-99950000D02*
X111590000Y-106450000D01*
X111590000Y-106450000D02*
X106110000Y-106450000D01*
D14*
%TO.C,TP11*%
X168020000Y-93870000D02*
X169350000Y-93870000D01*
X168020000Y-95200000D02*
X168020000Y-93870000D01*
X168020000Y-96470000D02*
X168020000Y-96530000D01*
X168020000Y-96470000D02*
X170680000Y-96470000D01*
X168020000Y-96530000D02*
X170680000Y-96530000D01*
X170680000Y-96470000D02*
X170680000Y-96530000D01*
D15*
%TO.C,S5*%
X154590000Y-153540000D02*
X164090000Y-153540000D01*
X164090000Y-153540000D02*
X164090000Y-145540000D01*
X154590000Y-145540000D02*
X154590000Y-153540000D01*
X155880000Y-145540000D02*
X154590000Y-145540000D01*
X164090000Y-145540000D02*
X162880000Y-145540000D01*
D14*
%TO.C,R22*%
X173172936Y-96665000D02*
X173627064Y-96665000D01*
X173172936Y-98135000D02*
X173627064Y-98135000D01*
%TO.C,R18*%
X89777064Y-123135000D02*
X89322936Y-123135000D01*
X89777064Y-121665000D02*
X89322936Y-121665000D01*
%TO.C,R12*%
X155122936Y-141415000D02*
X155577064Y-141415000D01*
X155122936Y-142885000D02*
X155577064Y-142885000D01*
D15*
%TO.C,S2*%
X111850000Y-153585000D02*
X121350000Y-153585000D01*
X121350000Y-153585000D02*
X121350000Y-145585000D01*
X111850000Y-145585000D02*
X111850000Y-153585000D01*
X113140000Y-145585000D02*
X111850000Y-145585000D01*
X121350000Y-145585000D02*
X120140000Y-145585000D01*
D14*
%TO.C,R15*%
X179772936Y-113665000D02*
X180227064Y-113665000D01*
X179772936Y-115135000D02*
X180227064Y-115135000D01*
%TO.C,TP5*%
X133570000Y-99870000D02*
X134900000Y-99870000D01*
X133570000Y-101200000D02*
X133570000Y-99870000D01*
X133570000Y-102470000D02*
X133570000Y-102530000D01*
X133570000Y-102470000D02*
X136230000Y-102470000D01*
X133570000Y-102530000D02*
X136230000Y-102530000D01*
X136230000Y-102470000D02*
X136230000Y-102530000D01*
%TO.C,F2*%
X138538748Y-101565000D02*
X139061252Y-101565000D01*
X138538748Y-102985000D02*
X139061252Y-102985000D01*
%TO.C,D5*%
X156240000Y-94990000D02*
X156240000Y-96910000D01*
X156240000Y-96910000D02*
X159100000Y-96910000D01*
X159100000Y-94990000D02*
X156240000Y-94990000D01*
D15*
%TO.C,J4*%
X172700000Y-90675000D02*
X172700000Y-83175000D01*
X175200000Y-90675000D02*
X172700000Y-90675000D01*
X180200000Y-90675000D02*
X182700000Y-90675000D01*
X182700000Y-90675000D02*
X182700000Y-83175000D01*
D10*
X183300000Y-84575000D02*
X183300000Y-84575000D01*
X183500000Y-84575000D02*
X183500000Y-84575000D01*
D15*
X179700000Y-80675000D02*
X175700000Y-80675000D01*
D10*
X183500000Y-84575000D02*
G75*
G03*
X183300000Y-84575000I-100000J0D01*
G01*
X183300000Y-84575000D02*
G75*
G03*
X183500000Y-84575000I100000J0D01*
G01*
D15*
%TO.C,PS1*%
X86100000Y-108100000D02*
X86100000Y-96500000D01*
X94100000Y-108100000D02*
X86100000Y-108100000D01*
D10*
X94600000Y-104940000D02*
X94600000Y-104940000D01*
X94600000Y-104740000D02*
X94600000Y-104740000D01*
D15*
X86100000Y-96500000D02*
X94100000Y-96500000D01*
X94100000Y-96500000D02*
X94100000Y-108100000D01*
D10*
X94600000Y-104740000D02*
G75*
G03*
X94600000Y-104940000I0J-100000D01*
G01*
X94600000Y-104940000D02*
G75*
G03*
X94600000Y-104740000I0J100000D01*
G01*
D14*
%TO.C,F3*%
X157438748Y-100840000D02*
X157961252Y-100840000D01*
X157438748Y-102260000D02*
X157961252Y-102260000D01*
D15*
%TO.C,J7*%
X97530000Y-99950000D02*
X103010000Y-99950000D01*
X97530000Y-106450000D02*
X97530000Y-99950000D01*
X103010000Y-99950000D02*
X103010000Y-106450000D01*
X103010000Y-106450000D02*
X97530000Y-106450000D01*
D14*
%TO.C,R28*%
X120985000Y-109322936D02*
X120985000Y-109777064D01*
X119515000Y-109322936D02*
X119515000Y-109777064D01*
%TO.C,TP2*%
X156295000Y-112330000D02*
X156295000Y-111000000D01*
X157625000Y-112330000D02*
X156295000Y-112330000D01*
X158895000Y-112330000D02*
X158955000Y-112330000D01*
X158895000Y-112330000D02*
X158895000Y-109670000D01*
X158955000Y-112330000D02*
X158955000Y-109670000D01*
X158895000Y-109670000D02*
X158955000Y-109670000D01*
%TO.C,R14*%
X68672936Y-141715000D02*
X69127064Y-141715000D01*
X68672936Y-143185000D02*
X69127064Y-143185000D01*
%TO.C,C1*%
X92538748Y-109465000D02*
X93061252Y-109465000D01*
X92538748Y-110935000D02*
X93061252Y-110935000D01*
D15*
%TO.C,J6*%
X72990000Y-99850000D02*
X78470000Y-99850000D01*
X72990000Y-106350000D02*
X72990000Y-99850000D01*
X78470000Y-99850000D02*
X78470000Y-106350000D01*
X78470000Y-106350000D02*
X72990000Y-106350000D01*
D14*
%TO.C,R6*%
X176935000Y-103622936D02*
X176935000Y-104077064D01*
X175465000Y-103622936D02*
X175465000Y-104077064D01*
D10*
%TO.C,Q6*%
X174875000Y-105325000D02*
X173675000Y-105325000D01*
X173325000Y-105300000D02*
X172725000Y-105300000D01*
X173325000Y-102350000D02*
X173325000Y-105300000D01*
X172725000Y-105300000D02*
X172725000Y-102350000D01*
X172725000Y-102350000D02*
X173325000Y-102350000D01*
D14*
%TO.C,D6*%
X171540000Y-94340000D02*
X171540000Y-96260000D01*
X171540000Y-96260000D02*
X174400000Y-96260000D01*
X174400000Y-94340000D02*
X171540000Y-94340000D01*
D10*
%TO.C,Q3*%
X156200000Y-106600000D02*
X157200000Y-106600000D01*
X157550000Y-106750000D02*
X157850000Y-106750000D01*
X157550000Y-108750000D02*
X157550000Y-106750000D01*
X157850000Y-106750000D02*
X157850000Y-108750000D01*
X157850000Y-108750000D02*
X157550000Y-108750000D01*
D14*
%TO.C,R9*%
X112522936Y-139515000D02*
X112977064Y-139515000D01*
X112522936Y-140985000D02*
X112977064Y-140985000D01*
D15*
%TO.C,S1*%
X188140000Y-112110000D02*
X188140000Y-102610000D01*
X188140000Y-102610000D02*
X180140000Y-102610000D01*
X180140000Y-112110000D02*
X188140000Y-112110000D01*
X180140000Y-110820000D02*
X180140000Y-112110000D01*
X180140000Y-102610000D02*
X180140000Y-103820000D01*
D14*
%TO.C,TP7*%
X170855000Y-98870000D02*
X170855000Y-100200000D01*
X169525000Y-98870000D02*
X170855000Y-98870000D01*
X168255000Y-98870000D02*
X168195000Y-98870000D01*
X168255000Y-98870000D02*
X168255000Y-101530000D01*
X168195000Y-98870000D02*
X168195000Y-101530000D01*
X168255000Y-101530000D02*
X168195000Y-101530000D01*
%TO.C,R17*%
X89827064Y-119735000D02*
X89372936Y-119735000D01*
X89827064Y-118265000D02*
X89372936Y-118265000D01*
D10*
%TO.C,VR1*%
X178500000Y-145900000D02*
X178500000Y-145900000D01*
X178500000Y-146100000D02*
X178500000Y-146100000D01*
D15*
X185750000Y-146550000D02*
X185750000Y-153600000D01*
X176250000Y-146550000D02*
X185750000Y-146550000D01*
X185750000Y-153600000D02*
X184000000Y-153600000D01*
X184000000Y-153600000D02*
X176250000Y-153600000D01*
X178000000Y-153600000D02*
X178000000Y-161100000D01*
X176250000Y-153600000D02*
X176250000Y-146550000D01*
X184000000Y-161100000D02*
X184000000Y-153600000D01*
X183500000Y-161100000D02*
X184000000Y-161100000D01*
X178500000Y-161100000D02*
X178500000Y-168600000D01*
X178000000Y-161100000D02*
X178500000Y-161100000D01*
X183500000Y-168600000D02*
X183500000Y-161100000D01*
X178500000Y-168600000D02*
X183500000Y-168600000D01*
D10*
X178500000Y-146100000D02*
G75*
G03*
X178500000Y-145900000I0J100000D01*
G01*
X178500000Y-145900000D02*
G75*
G03*
X178500000Y-146100000I0J-100000D01*
G01*
D14*
%TO.C,TP10*%
X152720000Y-94370000D02*
X154050000Y-94370000D01*
X152720000Y-95700000D02*
X152720000Y-94370000D01*
X152720000Y-96970000D02*
X152720000Y-97030000D01*
X152720000Y-96970000D02*
X155380000Y-96970000D01*
X152720000Y-97030000D02*
X155380000Y-97030000D01*
X155380000Y-96970000D02*
X155380000Y-97030000D01*
%TO.C,F1*%
X89161252Y-95110000D02*
X88638748Y-95110000D01*
X89161252Y-93690000D02*
X88638748Y-93690000D01*
%TO.C,F4*%
X172963748Y-100340000D02*
X173486252Y-100340000D01*
X172963748Y-101760000D02*
X173486252Y-101760000D01*
%TO.C,D7*%
X68040000Y-105540000D02*
X68040000Y-107460000D01*
X68040000Y-107460000D02*
X70900000Y-107460000D01*
X70900000Y-105540000D02*
X68040000Y-105540000D01*
%TO.C,R11*%
X155122936Y-139415000D02*
X155577064Y-139415000D01*
X155122936Y-140885000D02*
X155577064Y-140885000D01*
%TO.C,TP6*%
X152570000Y-102080000D02*
X152570000Y-100750000D01*
X153900000Y-102080000D02*
X152570000Y-102080000D01*
X155170000Y-102080000D02*
X155230000Y-102080000D01*
X155170000Y-102080000D02*
X155170000Y-99420000D01*
X155230000Y-102080000D02*
X155230000Y-99420000D01*
X155170000Y-99420000D02*
X155230000Y-99420000D01*
%TO.C,R20*%
X138772936Y-97565000D02*
X139227064Y-97565000D01*
X138772936Y-99035000D02*
X139227064Y-99035000D01*
D10*
%TO.C,Q7*%
X79850000Y-104250000D02*
X80850000Y-104250000D01*
X81200000Y-104400000D02*
X81500000Y-104400000D01*
X81200000Y-106400000D02*
X81200000Y-104400000D01*
X81500000Y-104400000D02*
X81500000Y-106400000D01*
X81500000Y-106400000D02*
X81200000Y-106400000D01*
D14*
%TO.C,D2*%
X83865000Y-121440000D02*
X83865000Y-123360000D01*
X83865000Y-123360000D02*
X86725000Y-123360000D01*
X86725000Y-121440000D02*
X83865000Y-121440000D01*
%TO.C,R1*%
X136735000Y-108747936D02*
X136735000Y-109202064D01*
X135265000Y-108747936D02*
X135265000Y-109202064D01*
D15*
%TO.C,J9*%
X114690000Y-99950000D02*
X120170000Y-99950000D01*
X114690000Y-106450000D02*
X114690000Y-99950000D01*
X120170000Y-99950000D02*
X120170000Y-106450000D01*
X120170000Y-106450000D02*
X114690000Y-106450000D01*
D14*
%TO.C,R16*%
X179772936Y-115815000D02*
X180227064Y-115815000D01*
X179772936Y-117285000D02*
X180227064Y-117285000D01*
D15*
%TO.C,J10*%
X123270000Y-99950000D02*
X128750000Y-99950000D01*
X123270000Y-106450000D02*
X123270000Y-99950000D01*
X128750000Y-99950000D02*
X128750000Y-106450000D01*
X128750000Y-106450000D02*
X123270000Y-106450000D01*
D14*
%TO.C,TP4*%
X79220000Y-95170000D02*
X80550000Y-95170000D01*
X79220000Y-96500000D02*
X79220000Y-95170000D01*
X79220000Y-97770000D02*
X79220000Y-97830000D01*
X79220000Y-97770000D02*
X81880000Y-97770000D01*
X79220000Y-97830000D02*
X81880000Y-97830000D01*
X81880000Y-97770000D02*
X81880000Y-97830000D01*
%TO.C,R23*%
X69672936Y-103665000D02*
X70127064Y-103665000D01*
X69672936Y-105135000D02*
X70127064Y-105135000D01*
%TO.C,R5*%
X171285000Y-107422936D02*
X171285000Y-107877064D01*
X169815000Y-107422936D02*
X169815000Y-107877064D01*
%TO.C,R13*%
X68672936Y-139715000D02*
X69127064Y-139715000D01*
X68672936Y-141185000D02*
X69127064Y-141185000D01*
D15*
%TO.C,S6*%
X68150000Y-153640000D02*
X77650000Y-153640000D01*
X77650000Y-153640000D02*
X77650000Y-145640000D01*
X68150000Y-145640000D02*
X68150000Y-153640000D01*
X69440000Y-145640000D02*
X68150000Y-145640000D01*
X77650000Y-145640000D02*
X76440000Y-145640000D01*
D14*
%TO.C,R4*%
X161260000Y-104247936D02*
X161260000Y-104702064D01*
X159790000Y-104247936D02*
X159790000Y-104702064D01*
%TO.C,R7*%
X81677064Y-108585000D02*
X81222936Y-108585000D01*
X81677064Y-107115000D02*
X81222936Y-107115000D01*
%TO.C,R10*%
X112522936Y-141515000D02*
X112977064Y-141515000D01*
X112522936Y-142985000D02*
X112977064Y-142985000D01*
D10*
%TO.C,J1*%
X63800000Y-118300000D02*
X71000000Y-118300000D01*
X63800000Y-109300000D02*
X63800000Y-118300000D01*
X78200000Y-109300000D02*
X63800000Y-109300000D01*
X79669850Y-114039000D02*
G75*
G03*
X79669850Y-114039000I-118850J0D01*
G01*
%TO.C,VR4*%
X135960000Y-145860000D02*
X135960000Y-145860000D01*
X135960000Y-146060000D02*
X135960000Y-146060000D01*
D15*
X143210000Y-146510000D02*
X143210000Y-153560000D01*
X133710000Y-146510000D02*
X143210000Y-146510000D01*
X143210000Y-153560000D02*
X141460000Y-153560000D01*
X141460000Y-153560000D02*
X133710000Y-153560000D01*
X135460000Y-153560000D02*
X135460000Y-161060000D01*
X133710000Y-153560000D02*
X133710000Y-146510000D01*
X141460000Y-161060000D02*
X141460000Y-153560000D01*
X140960000Y-161060000D02*
X141460000Y-161060000D01*
X135960000Y-161060000D02*
X135960000Y-168560000D01*
X135460000Y-161060000D02*
X135960000Y-161060000D01*
X140960000Y-168560000D02*
X140960000Y-161060000D01*
X135960000Y-168560000D02*
X140960000Y-168560000D01*
D10*
X135960000Y-146060000D02*
G75*
G03*
X135960000Y-145860000I0J100000D01*
G01*
X135960000Y-145860000D02*
G75*
G03*
X135960000Y-146060000I0J-100000D01*
G01*
D14*
%TO.C,A1*%
X152140000Y-118960000D02*
X149470000Y-118960000D01*
X146930000Y-118960000D02*
X108700000Y-118960000D01*
X108700000Y-118960000D02*
X108700000Y-124040000D01*
X149470000Y-121630000D02*
X149470000Y-118960000D01*
X146930000Y-121630000D02*
X146930000Y-118960000D01*
X146930000Y-121630000D02*
X149470000Y-121630000D01*
X146930000Y-121630000D02*
X111370000Y-121630000D01*
X111370000Y-121630000D02*
X111370000Y-118960000D01*
X116580000Y-124040000D02*
X116580000Y-131920000D01*
X106160000Y-124040000D02*
X116580000Y-124040000D01*
X116580000Y-131920000D02*
X106160000Y-131920000D01*
X106160000Y-131920000D02*
X106160000Y-124040000D01*
X149470000Y-134330000D02*
X111370000Y-134330000D01*
X149470000Y-134330000D02*
X149470000Y-137000000D01*
X111370000Y-134330000D02*
X111370000Y-137000000D01*
X152140000Y-137000000D02*
X152140000Y-118960000D01*
X108700000Y-137000000D02*
X108700000Y-131920000D01*
X108700000Y-137000000D02*
X152140000Y-137000000D01*
D10*
%TO.C,VR5*%
X92190000Y-145950000D02*
X92190000Y-145950000D01*
X92190000Y-146150000D02*
X92190000Y-146150000D01*
D15*
X99440000Y-146600000D02*
X99440000Y-153650000D01*
X89940000Y-146600000D02*
X99440000Y-146600000D01*
X99440000Y-153650000D02*
X97690000Y-153650000D01*
X97690000Y-153650000D02*
X89940000Y-153650000D01*
X91690000Y-153650000D02*
X91690000Y-161150000D01*
X89940000Y-153650000D02*
X89940000Y-146600000D01*
X97690000Y-161150000D02*
X97690000Y-153650000D01*
X97190000Y-161150000D02*
X97690000Y-161150000D01*
X92190000Y-161150000D02*
X92190000Y-168650000D01*
X91690000Y-161150000D02*
X92190000Y-161150000D01*
X97190000Y-168650000D02*
X97190000Y-161150000D01*
X92190000Y-168650000D02*
X97190000Y-168650000D01*
D10*
X92190000Y-146150000D02*
G75*
G03*
X92190000Y-145950000I0J100000D01*
G01*
X92190000Y-145950000D02*
G75*
G03*
X92190000Y-146150000I0J-100000D01*
G01*
%TO.C,Q1*%
X137400000Y-107225000D02*
X138400000Y-107225000D01*
X138750000Y-107375000D02*
X139050000Y-107375000D01*
X138750000Y-109375000D02*
X138750000Y-107375000D01*
X139050000Y-107375000D02*
X139050000Y-109375000D01*
X139050000Y-109375000D02*
X138750000Y-109375000D01*
D14*
%TO.C,TP12*%
X79220000Y-90270000D02*
X80550000Y-90270000D01*
X79220000Y-91600000D02*
X79220000Y-90270000D01*
X79220000Y-92870000D02*
X79220000Y-92930000D01*
X79220000Y-92870000D02*
X81880000Y-92870000D01*
X79220000Y-92930000D02*
X81880000Y-92930000D01*
X81880000Y-92870000D02*
X81880000Y-92930000D01*
D15*
%TO.C,J3*%
X153665000Y-90625000D02*
X153665000Y-83125000D01*
X156165000Y-90625000D02*
X153665000Y-90625000D01*
X161165000Y-90625000D02*
X163665000Y-90625000D01*
X163665000Y-90625000D02*
X163665000Y-83125000D01*
D10*
X164265000Y-84525000D02*
X164265000Y-84525000D01*
X164465000Y-84525000D02*
X164465000Y-84525000D01*
D15*
X160665000Y-80625000D02*
X156665000Y-80625000D01*
D10*
X164465000Y-84525000D02*
G75*
G03*
X164265000Y-84525000I-100000J0D01*
G01*
X164265000Y-84525000D02*
G75*
G03*
X164465000Y-84525000I100000J0D01*
G01*
D14*
%TO.C,TP1*%
X137570000Y-110345000D02*
X138900000Y-110345000D01*
X137570000Y-111675000D02*
X137570000Y-110345000D01*
X137570000Y-112945000D02*
X137570000Y-113005000D01*
X137570000Y-112945000D02*
X140230000Y-112945000D01*
X137570000Y-113005000D02*
X140230000Y-113005000D01*
X140230000Y-112945000D02*
X140230000Y-113005000D01*
%TO.C,R21*%
X157872936Y-97265000D02*
X158327064Y-97265000D01*
X157872936Y-98735000D02*
X158327064Y-98735000D01*
D10*
%TO.C,Q8*%
X79850000Y-100700000D02*
X81050000Y-100700000D01*
X81400000Y-100725000D02*
X82000000Y-100725000D01*
X81400000Y-103675000D02*
X81400000Y-100725000D01*
X82000000Y-100725000D02*
X82000000Y-103675000D01*
X82000000Y-103675000D02*
X81400000Y-103675000D01*
D14*
%TO.C,C2*%
X92538748Y-93665000D02*
X93061252Y-93665000D01*
X92538748Y-95135000D02*
X93061252Y-95135000D01*
%TO.C,R25*%
X179722936Y-137315000D02*
X180177064Y-137315000D01*
X179722936Y-138785000D02*
X180177064Y-138785000D01*
%TO.C,TP3*%
X172095000Y-111680000D02*
X172095000Y-110350000D01*
X173425000Y-111680000D02*
X172095000Y-111680000D01*
X174695000Y-111680000D02*
X174755000Y-111680000D01*
X174695000Y-111680000D02*
X174695000Y-109020000D01*
X174755000Y-111680000D02*
X174755000Y-109020000D01*
X174695000Y-109020000D02*
X174755000Y-109020000D01*
%TO.C,R27*%
X112385000Y-109322936D02*
X112385000Y-109777064D01*
X110915000Y-109322936D02*
X110915000Y-109777064D01*
%TO.C,R2*%
X142435000Y-104847936D02*
X142435000Y-105302064D01*
X140965000Y-104847936D02*
X140965000Y-105302064D01*
%TO.C,D4*%
X137140000Y-95240000D02*
X137140000Y-97160000D01*
X137140000Y-97160000D02*
X140000000Y-97160000D01*
X140000000Y-95240000D02*
X137140000Y-95240000D01*
%TO.C,R24*%
X179722936Y-135265000D02*
X180177064Y-135265000D01*
X179722936Y-136735000D02*
X180177064Y-136735000D01*
%TO.C,R3*%
X155435000Y-108172936D02*
X155435000Y-108627064D01*
X153965000Y-108172936D02*
X153965000Y-108627064D01*
%TO.C,D1*%
X83890000Y-118040000D02*
X83890000Y-119960000D01*
X83890000Y-119960000D02*
X86750000Y-119960000D01*
X86750000Y-118040000D02*
X83890000Y-118040000D01*
%TO.C,TP9*%
X133570000Y-94770000D02*
X134900000Y-94770000D01*
X133570000Y-96100000D02*
X133570000Y-94770000D01*
X133570000Y-97370000D02*
X133570000Y-97430000D01*
X133570000Y-97370000D02*
X136230000Y-97370000D01*
X133570000Y-97430000D02*
X136230000Y-97430000D01*
X136230000Y-97370000D02*
X136230000Y-97430000D01*
%TO.C,TP8*%
X85930000Y-112330000D02*
X84600000Y-112330000D01*
X85930000Y-111000000D02*
X85930000Y-112330000D01*
X85930000Y-109730000D02*
X85930000Y-109670000D01*
X85930000Y-109730000D02*
X83270000Y-109730000D01*
X85930000Y-109670000D02*
X83270000Y-109670000D01*
X83270000Y-109730000D02*
X83270000Y-109670000D01*
D10*
%TO.C,Q2*%
X140400000Y-106650000D02*
X139200000Y-106650000D01*
X138850000Y-106625000D02*
X138250000Y-106625000D01*
X138850000Y-103675000D02*
X138850000Y-106625000D01*
X138250000Y-106625000D02*
X138250000Y-103675000D01*
X138250000Y-103675000D02*
X138850000Y-103675000D01*
D14*
%TO.C,R8*%
X82877064Y-99985000D02*
X82422936Y-99985000D01*
X82877064Y-98515000D02*
X82422936Y-98515000D01*
D10*
%TO.C,Q4*%
X159200000Y-105975000D02*
X158000000Y-105975000D01*
X157650000Y-105950000D02*
X157050000Y-105950000D01*
X157650000Y-103000000D02*
X157650000Y-105950000D01*
X157050000Y-105950000D02*
X157050000Y-103000000D01*
X157050000Y-103000000D02*
X157650000Y-103000000D01*
D14*
%TO.C,D3*%
X83865000Y-114340000D02*
X83865000Y-116260000D01*
X83865000Y-116260000D02*
X86725000Y-116260000D01*
X86725000Y-114340000D02*
X83865000Y-114340000D01*
D10*
%TO.C,Q5*%
X171850000Y-105900000D02*
X172850000Y-105900000D01*
X173200000Y-106050000D02*
X173500000Y-106050000D01*
X173200000Y-108050000D02*
X173200000Y-106050000D01*
X173500000Y-106050000D02*
X173500000Y-108050000D01*
X173500000Y-108050000D02*
X173200000Y-108050000D01*
D15*
%TO.C,J2*%
X134550000Y-90725000D02*
X134550000Y-83225000D01*
X137050000Y-90725000D02*
X134550000Y-90725000D01*
X142050000Y-90725000D02*
X144550000Y-90725000D01*
X144550000Y-90725000D02*
X144550000Y-83225000D01*
D10*
X145150000Y-84625000D02*
X145150000Y-84625000D01*
X145350000Y-84625000D02*
X145350000Y-84625000D01*
D15*
X141550000Y-80725000D02*
X137550000Y-80725000D01*
D10*
X145350000Y-84625000D02*
G75*
G03*
X145150000Y-84625000I-100000J0D01*
G01*
X145150000Y-84625000D02*
G75*
G03*
X145350000Y-84625000I100000J0D01*
G01*
D14*
%TO.C,J5*%
X85845000Y-91270000D02*
X85845000Y-90000000D01*
X87115000Y-91270000D02*
X85845000Y-91270000D01*
X89275000Y-88957071D02*
X89275000Y-88560000D01*
X90035000Y-88957071D02*
X90035000Y-88560000D01*
X91815000Y-88957071D02*
X91815000Y-88560000D01*
X92575000Y-88957071D02*
X92575000Y-88560000D01*
X86735000Y-88890000D02*
X86735000Y-88560000D01*
X87495000Y-88890000D02*
X87495000Y-88560000D01*
X85785000Y-88560000D02*
X93525000Y-88560000D01*
X88385000Y-88560000D02*
X88385000Y-85900000D01*
X90925000Y-88560000D02*
X90925000Y-85900000D01*
X93525000Y-88560000D02*
X93525000Y-85900000D01*
X85785000Y-85900000D02*
X85785000Y-88560000D01*
X86735000Y-85900000D02*
X86735000Y-79900000D01*
X86795000Y-85900000D02*
X86795000Y-79900000D01*
X86915000Y-85900000D02*
X86915000Y-79900000D01*
X87035000Y-85900000D02*
X87035000Y-79900000D01*
X87155000Y-85900000D02*
X87155000Y-79900000D01*
X87275000Y-85900000D02*
X87275000Y-79900000D01*
X87395000Y-85900000D02*
X87395000Y-79900000D01*
X89275000Y-85900000D02*
X89275000Y-79900000D01*
X91815000Y-85900000D02*
X91815000Y-79900000D01*
X93525000Y-85900000D02*
X85785000Y-85900000D01*
X86735000Y-79900000D02*
X87495000Y-79900000D01*
X87495000Y-79900000D02*
X87495000Y-85900000D01*
X89275000Y-79900000D02*
X90035000Y-79900000D01*
X90035000Y-79900000D02*
X90035000Y-85900000D01*
X91815000Y-79900000D02*
X92575000Y-79900000D01*
X92575000Y-79900000D02*
X92575000Y-85900000D01*
%TO.C,R26*%
X103835000Y-109322936D02*
X103835000Y-109777064D01*
X102365000Y-109322936D02*
X102365000Y-109777064D01*
%TO.C,F5*%
X84210000Y-95988748D02*
X84210000Y-96511252D01*
X82790000Y-95988748D02*
X82790000Y-96511252D01*
%TO.C,R29*%
X129585000Y-109372936D02*
X129585000Y-109827064D01*
X128115000Y-109372936D02*
X128115000Y-109827064D01*
%TD*%
%LPC*%
D16*
%TO.C,R19*%
X90500000Y-115300000D03*
X88500000Y-115300000D03*
%TD*%
D17*
%TO.C,S3*%
X179820000Y-126520000D03*
D18*
X179820000Y-129060000D03*
X179820000Y-131600000D03*
X184900000Y-126520000D03*
X184900000Y-131600000D03*
%TD*%
D19*
%TO.C,J8*%
X107580000Y-103200000D03*
X110120000Y-103200000D03*
%TD*%
D20*
%TO.C,TP11*%
X169350000Y-95200000D03*
%TD*%
D17*
%TO.C,S5*%
X161880000Y-145220000D03*
D18*
X159340000Y-145220000D03*
X156800000Y-145220000D03*
X161880000Y-150300000D03*
X156800000Y-150300000D03*
%TD*%
D21*
%TO.C,R22*%
X172400000Y-97400000D03*
X174400000Y-97400000D03*
%TD*%
D16*
%TO.C,R18*%
X90550000Y-122400000D03*
X88550000Y-122400000D03*
%TD*%
D21*
%TO.C,R12*%
X154350000Y-142150000D03*
X156350000Y-142150000D03*
%TD*%
D17*
%TO.C,S2*%
X119140000Y-145265000D03*
D18*
X116600000Y-145265000D03*
X114060000Y-145265000D03*
X119140000Y-150345000D03*
X114060000Y-150345000D03*
%TD*%
D21*
%TO.C,R15*%
X179000000Y-114400000D03*
X181000000Y-114400000D03*
%TD*%
D20*
%TO.C,TP5*%
X134900000Y-101200000D03*
%TD*%
D22*
%TO.C,F2*%
X137775000Y-102275000D03*
X139825000Y-102275000D03*
%TD*%
%TO.C,D5*%
X157075000Y-95950000D03*
X159125000Y-95950000D03*
%TD*%
D23*
%TO.C,J4*%
X173450000Y-81525000D03*
X181950000Y-81525000D03*
D24*
X177700000Y-84675000D03*
D25*
X177700000Y-89175000D03*
%TD*%
D26*
%TO.C,PS1*%
X91800000Y-104840000D03*
X91800000Y-102300000D03*
X91800000Y-99760000D03*
%TD*%
D22*
%TO.C,F3*%
X156675000Y-101550000D03*
X158725000Y-101550000D03*
%TD*%
D19*
%TO.C,J7*%
X99000000Y-103200000D03*
X101540000Y-103200000D03*
%TD*%
D27*
%TO.C,R28*%
X120250000Y-108550000D03*
X120250000Y-110550000D03*
%TD*%
D20*
%TO.C,TP2*%
X157625000Y-111000000D03*
%TD*%
D21*
%TO.C,R14*%
X67900000Y-142450000D03*
X69900000Y-142450000D03*
%TD*%
D28*
%TO.C,C1*%
X91762500Y-110200000D03*
X93837500Y-110200000D03*
%TD*%
D19*
%TO.C,J6*%
X74460000Y-103100000D03*
X77000000Y-103100000D03*
%TD*%
D27*
%TO.C,R6*%
X176200000Y-102850000D03*
X176200000Y-104850000D03*
%TD*%
D29*
%TO.C,Q6*%
X174275000Y-104775000D03*
X174275000Y-102875000D03*
X171775000Y-103825000D03*
%TD*%
D22*
%TO.C,D6*%
X172375000Y-95300000D03*
X174425000Y-95300000D03*
%TD*%
D30*
%TO.C,Q3*%
X156700000Y-107100000D03*
X156700000Y-108400000D03*
X158700000Y-107750000D03*
%TD*%
D21*
%TO.C,R9*%
X111750000Y-140250000D03*
X113750000Y-140250000D03*
%TD*%
D17*
%TO.C,S1*%
X179820000Y-104820000D03*
D18*
X179820000Y-107360000D03*
X179820000Y-109900000D03*
X184900000Y-104820000D03*
X184900000Y-109900000D03*
%TD*%
D20*
%TO.C,TP7*%
X169525000Y-100200000D03*
%TD*%
D16*
%TO.C,R17*%
X90600000Y-119000000D03*
X88600000Y-119000000D03*
%TD*%
D31*
%TO.C,VR1*%
X178500000Y-148600000D03*
X181000000Y-148600000D03*
X183500000Y-148600000D03*
%TD*%
D20*
%TO.C,TP10*%
X154050000Y-95700000D03*
%TD*%
D32*
%TO.C,F1*%
X89925000Y-94400000D03*
X87875000Y-94400000D03*
%TD*%
D22*
%TO.C,F4*%
X172200000Y-101050000D03*
X174250000Y-101050000D03*
%TD*%
%TO.C,D7*%
X68875000Y-106500000D03*
X70925000Y-106500000D03*
%TD*%
D21*
%TO.C,R11*%
X154350000Y-140150000D03*
X156350000Y-140150000D03*
%TD*%
D20*
%TO.C,TP6*%
X153900000Y-100750000D03*
%TD*%
D21*
%TO.C,R20*%
X138000000Y-98300000D03*
X140000000Y-98300000D03*
%TD*%
D30*
%TO.C,Q7*%
X80350000Y-104750000D03*
X80350000Y-106050000D03*
X82350000Y-105400000D03*
%TD*%
D22*
%TO.C,D2*%
X84700000Y-122400000D03*
X86750000Y-122400000D03*
%TD*%
D27*
%TO.C,R1*%
X136000000Y-107975000D03*
X136000000Y-109975000D03*
%TD*%
D19*
%TO.C,J9*%
X116160000Y-103200000D03*
X118700000Y-103200000D03*
%TD*%
D21*
%TO.C,R16*%
X179000000Y-116550000D03*
X181000000Y-116550000D03*
%TD*%
D19*
%TO.C,J10*%
X124740000Y-103200000D03*
X127280000Y-103200000D03*
%TD*%
D20*
%TO.C,TP4*%
X80550000Y-96500000D03*
%TD*%
D21*
%TO.C,R23*%
X68900000Y-104400000D03*
X70900000Y-104400000D03*
%TD*%
D27*
%TO.C,R5*%
X170550000Y-106650000D03*
X170550000Y-108650000D03*
%TD*%
D21*
%TO.C,R13*%
X67900000Y-140450000D03*
X69900000Y-140450000D03*
%TD*%
D17*
%TO.C,S6*%
X75440000Y-145320000D03*
D18*
X72900000Y-145320000D03*
X70360000Y-145320000D03*
X75440000Y-150400000D03*
X70360000Y-150400000D03*
%TD*%
D27*
%TO.C,R4*%
X160525000Y-103475000D03*
X160525000Y-105475000D03*
%TD*%
D16*
%TO.C,R7*%
X82450000Y-107850000D03*
X80450000Y-107850000D03*
%TD*%
D21*
%TO.C,R10*%
X111750000Y-142250000D03*
X113750000Y-142250000D03*
%TD*%
D33*
%TO.C,J1*%
X77500000Y-114000000D03*
X71500000Y-114000000D03*
X74500000Y-118700000D03*
%TD*%
D31*
%TO.C,VR4*%
X135960000Y-148560000D03*
X138460000Y-148560000D03*
X140960000Y-148560000D03*
%TD*%
D34*
%TO.C,A1*%
X148200000Y-120360000D03*
D35*
X145660000Y-120360000D03*
X143120000Y-120360000D03*
X140580000Y-120360000D03*
X138040000Y-120360000D03*
X135500000Y-120360000D03*
X132960000Y-120360000D03*
X130420000Y-120360000D03*
X127880000Y-120360000D03*
X125340000Y-120360000D03*
X122800000Y-120360000D03*
X120260000Y-120360000D03*
X117720000Y-120360000D03*
X115180000Y-120360000D03*
X112640000Y-120360000D03*
X112640000Y-135600000D03*
X115180000Y-135600000D03*
X117720000Y-135600000D03*
X120260000Y-135600000D03*
X122800000Y-135600000D03*
X125340000Y-135600000D03*
X127880000Y-135600000D03*
X130420000Y-135600000D03*
X132960000Y-135600000D03*
X135500000Y-135600000D03*
X138040000Y-135600000D03*
X140580000Y-135600000D03*
X143120000Y-135600000D03*
X145660000Y-135600000D03*
X148200000Y-135600000D03*
%TD*%
D31*
%TO.C,VR5*%
X92190000Y-148650000D03*
X94690000Y-148650000D03*
X97190000Y-148650000D03*
%TD*%
D36*
%TO.C,REF\u002A\u002A*%
X84000000Y-148000000D03*
%TD*%
D30*
%TO.C,Q1*%
X137900000Y-107725000D03*
X137900000Y-109025000D03*
X139900000Y-108375000D03*
%TD*%
D20*
%TO.C,TP12*%
X80550000Y-91600000D03*
%TD*%
D23*
%TO.C,J3*%
X154415000Y-81475000D03*
X162915000Y-81475000D03*
D24*
X158665000Y-84625000D03*
D25*
X158665000Y-89125000D03*
%TD*%
D20*
%TO.C,TP1*%
X138900000Y-111675000D03*
%TD*%
D21*
%TO.C,R21*%
X157100000Y-98000000D03*
X159100000Y-98000000D03*
%TD*%
D29*
%TO.C,Q8*%
X80450000Y-101250000D03*
X80450000Y-103150000D03*
X82950000Y-102200000D03*
%TD*%
D28*
%TO.C,C2*%
X91762500Y-94400000D03*
X93837500Y-94400000D03*
%TD*%
D21*
%TO.C,R25*%
X178950000Y-138050000D03*
X180950000Y-138050000D03*
%TD*%
D36*
%TO.C,REF\u002A\u002A*%
X170000000Y-149000000D03*
%TD*%
D20*
%TO.C,TP3*%
X173425000Y-110350000D03*
%TD*%
D27*
%TO.C,R27*%
X111650000Y-108550000D03*
X111650000Y-110550000D03*
%TD*%
%TO.C,R2*%
X141700000Y-104075000D03*
X141700000Y-106075000D03*
%TD*%
D22*
%TO.C,D4*%
X137975000Y-96200000D03*
X140025000Y-96200000D03*
%TD*%
D21*
%TO.C,R24*%
X178950000Y-136000000D03*
X180950000Y-136000000D03*
%TD*%
D27*
%TO.C,R3*%
X154700000Y-107400000D03*
X154700000Y-109400000D03*
%TD*%
D22*
%TO.C,D1*%
X84725000Y-119000000D03*
X86775000Y-119000000D03*
%TD*%
D20*
%TO.C,TP9*%
X134900000Y-96100000D03*
%TD*%
%TO.C,TP8*%
X84600000Y-111000000D03*
%TD*%
D29*
%TO.C,Q2*%
X139800000Y-106100000D03*
X139800000Y-104200000D03*
X137300000Y-105150000D03*
%TD*%
D16*
%TO.C,R8*%
X83650000Y-99250000D03*
X81650000Y-99250000D03*
%TD*%
D36*
%TO.C,REF\u002A\u002A*%
X184000000Y-98000000D03*
%TD*%
D29*
%TO.C,Q4*%
X158600000Y-105425000D03*
X158600000Y-103525000D03*
X156100000Y-104475000D03*
%TD*%
D22*
%TO.C,D3*%
X84700000Y-115300000D03*
X86750000Y-115300000D03*
%TD*%
D30*
%TO.C,Q5*%
X172350000Y-106400000D03*
X172350000Y-107700000D03*
X174350000Y-107050000D03*
%TD*%
D23*
%TO.C,J2*%
X135300000Y-81575000D03*
X143800000Y-81575000D03*
D24*
X139550000Y-84725000D03*
D25*
X139550000Y-89225000D03*
%TD*%
D20*
%TO.C,J5*%
X87115000Y-90000000D03*
D37*
X89655000Y-90000000D03*
X92195000Y-90000000D03*
%TD*%
D27*
%TO.C,R26*%
X103100000Y-108550000D03*
X103100000Y-110550000D03*
%TD*%
D36*
%TO.C,REF\u002A\u002A*%
X70000000Y-83000000D03*
%TD*%
D38*
%TO.C,F5*%
X83500000Y-95225000D03*
X83500000Y-97275000D03*
%TD*%
D27*
%TO.C,R29*%
X128850000Y-108600000D03*
X128850000Y-110600000D03*
%TD*%
%LPD*%
M02*
