%TF.GenerationSoftware,KiCad,Pcbnew,7.0.8*%
%TF.CreationDate,2024-05-27T16:30:15-04:00*%
%TF.ProjectId,TelescopeController,54656c65-7363-46f7-9065-436f6e74726f,rev?*%
%TF.SameCoordinates,Original*%
%TF.FileFunction,Paste,Top*%
%TF.FilePolarity,Positive*%
%FSLAX46Y46*%
G04 Gerber Fmt 4.6, Leading zero omitted, Abs format (unit mm)*
G04 Created by KiCad (PCBNEW 7.0.8) date 2024-05-27 16:30:15*
%MOMM*%
%LPD*%
G01*
G04 APERTURE LIST*
G04 Aperture macros list*
%AMRoundRect*
0 Rectangle with rounded corners*
0 $1 Rounding radius*
0 $2 $3 $4 $5 $6 $7 $8 $9 X,Y pos of 4 corners*
0 Add a 4 corners polygon primitive as box body*
4,1,4,$2,$3,$4,$5,$6,$7,$8,$9,$2,$3,0*
0 Add four circle primitives for the rounded corners*
1,1,$1+$1,$2,$3*
1,1,$1+$1,$4,$5*
1,1,$1+$1,$6,$7*
1,1,$1+$1,$8,$9*
0 Add four rect primitives between the rounded corners*
20,1,$1+$1,$2,$3,$4,$5,0*
20,1,$1+$1,$4,$5,$6,$7,0*
20,1,$1+$1,$6,$7,$8,$9,0*
20,1,$1+$1,$8,$9,$2,$3,0*%
G04 Aperture macros list end*
%ADD10R,1.150000X0.600000*%
%ADD11RoundRect,0.250000X-0.325000X-0.450000X0.325000X-0.450000X0.325000X0.450000X-0.325000X0.450000X0*%
%ADD12RoundRect,0.250000X0.450000X-0.350000X0.450000X0.350000X-0.450000X0.350000X-0.450000X-0.350000X0*%
%ADD13RoundRect,0.250000X-0.450000X0.350000X-0.450000X-0.350000X0.450000X-0.350000X0.450000X0.350000X0*%
%ADD14R,1.000000X0.500000*%
%ADD15RoundRect,0.250000X0.475000X-0.337500X0.475000X0.337500X-0.475000X0.337500X-0.475000X-0.337500X0*%
%ADD16RoundRect,0.250000X-0.475000X0.337500X-0.475000X-0.337500X0.475000X-0.337500X0.475000X0.337500X0*%
%ADD17RoundRect,0.250000X-0.450000X0.325000X-0.450000X-0.325000X0.450000X-0.325000X0.450000X0.325000X0*%
G04 APERTURE END LIST*
D10*
%TO.C,Q12*%
X49550000Y-118460000D03*
X49550000Y-116540000D03*
X47350000Y-117500000D03*
%TD*%
%TO.C,Q2*%
X114450000Y-115060000D03*
X114450000Y-113140000D03*
X112250000Y-114100000D03*
%TD*%
%TO.C,Q11*%
X152550000Y-114735000D03*
X152550000Y-112815000D03*
X150350000Y-113775000D03*
%TD*%
%TO.C,Q10*%
X133825000Y-115010000D03*
X133825000Y-113090000D03*
X131625000Y-114050000D03*
%TD*%
D11*
%TO.C,F5*%
X47675000Y-114575000D03*
X49725000Y-114575000D03*
%TD*%
D12*
%TO.C,R23*%
X92100000Y-141700000D03*
X92100000Y-139700000D03*
%TD*%
D13*
%TO.C,R13*%
X117675000Y-151725000D03*
X117675000Y-153725000D03*
%TD*%
%TO.C,R22*%
X143050000Y-139975000D03*
X143050000Y-141975000D03*
%TD*%
D11*
%TO.C,F2*%
X112525000Y-111150000D03*
X114575000Y-111150000D03*
%TD*%
D12*
%TO.C,R18*%
X173075000Y-129025000D03*
X173075000Y-127025000D03*
%TD*%
D11*
%TO.C,F3*%
X131900000Y-111100000D03*
X133950000Y-111100000D03*
%TD*%
D13*
%TO.C,R6*%
X154475000Y-112800000D03*
X154475000Y-114800000D03*
%TD*%
D14*
%TO.C,Q7*%
X47725000Y-120000000D03*
X47725000Y-121300000D03*
X49725000Y-120650000D03*
%TD*%
%TO.C,Q3*%
X131925000Y-116650000D03*
X131925000Y-117950000D03*
X133925000Y-117300000D03*
%TD*%
D11*
%TO.C,F4*%
X150475000Y-111000000D03*
X152525000Y-111000000D03*
%TD*%
D13*
%TO.C,R20*%
X109375000Y-139625000D03*
X109375000Y-141625000D03*
%TD*%
D12*
%TO.C,R16*%
X83725000Y-145925000D03*
X83725000Y-143925000D03*
%TD*%
D13*
%TO.C,R29*%
X81175000Y-107100000D03*
X81175000Y-109100000D03*
%TD*%
%TO.C,R17*%
X173025000Y-133850000D03*
X173025000Y-135850000D03*
%TD*%
%TO.C,R1*%
X110750000Y-116850000D03*
X110750000Y-118850000D03*
%TD*%
%TO.C,R8*%
X51575000Y-116500000D03*
X51575000Y-118500000D03*
%TD*%
D15*
%TO.C,C2*%
X151525000Y-128300000D03*
X151525000Y-126225000D03*
%TD*%
D13*
%TO.C,R27*%
X76125000Y-107025000D03*
X76125000Y-109025000D03*
%TD*%
%TO.C,R5*%
X148825000Y-116600000D03*
X148825000Y-118600000D03*
%TD*%
%TO.C,R4*%
X135750000Y-113025000D03*
X135750000Y-115025000D03*
%TD*%
D12*
%TO.C,R10*%
X134700000Y-145950000D03*
X134700000Y-143950000D03*
%TD*%
D13*
%TO.C,R15*%
X83750000Y-151775000D03*
X83750000Y-153775000D03*
%TD*%
D16*
%TO.C,C1*%
X167250000Y-127587500D03*
X167250000Y-129662500D03*
%TD*%
D14*
%TO.C,Q1*%
X112650000Y-116600000D03*
X112650000Y-117900000D03*
X114650000Y-117250000D03*
%TD*%
D13*
%TO.C,R11*%
X151650000Y-151725000D03*
X151650000Y-153725000D03*
%TD*%
%TO.C,R28*%
X83775000Y-107100000D03*
X83775000Y-109100000D03*
%TD*%
%TO.C,R21*%
X126125000Y-139750000D03*
X126125000Y-141750000D03*
%TD*%
D12*
%TO.C,R25*%
X100700000Y-145975000D03*
X100700000Y-143975000D03*
%TD*%
D13*
%TO.C,R2*%
X116450000Y-112950000D03*
X116450000Y-114950000D03*
%TD*%
%TO.C,R9*%
X134700000Y-151700000D03*
X134700000Y-153700000D03*
%TD*%
%TO.C,R3*%
X129925000Y-116950000D03*
X129925000Y-118950000D03*
%TD*%
D12*
%TO.C,R12*%
X151650000Y-145900000D03*
X151650000Y-143900000D03*
%TD*%
%TO.C,R19*%
X172975000Y-122000000D03*
X172975000Y-120000000D03*
%TD*%
D13*
%TO.C,R24*%
X100525000Y-151725000D03*
X100525000Y-153725000D03*
%TD*%
D14*
%TO.C,Q5*%
X150625000Y-116350000D03*
X150625000Y-117650000D03*
X152625000Y-117000000D03*
%TD*%
D17*
%TO.C,F1*%
X151525000Y-133112500D03*
X151525000Y-135162500D03*
%TD*%
D12*
%TO.C,R14*%
X117625000Y-145925000D03*
X117625000Y-143925000D03*
%TD*%
D13*
%TO.C,R7*%
X45900000Y-120150000D03*
X45900000Y-122150000D03*
%TD*%
%TO.C,R26*%
X78650000Y-107050000D03*
X78650000Y-109050000D03*
%TD*%
M02*
