%TF.GenerationSoftware,KiCad,Pcbnew,7.0.8*%
%TF.CreationDate,2024-02-03T19:33:36-05:00*%
%TF.ProjectId,TelescopeController,54656c65-7363-46f7-9065-436f6e74726f,rev?*%
%TF.SameCoordinates,Original*%
%TF.FileFunction,Soldermask,Bot*%
%TF.FilePolarity,Negative*%
%FSLAX46Y46*%
G04 Gerber Fmt 4.6, Leading zero omitted, Abs format (unit mm)*
G04 Created by KiCad (PCBNEW 7.0.8) date 2024-02-03 19:33:36*
%MOMM*%
%LPD*%
G01*
G04 APERTURE LIST*
%ADD10R,1.500000X1.500000*%
%ADD11C,1.500000*%
%ADD12C,1.950000*%
%ADD13R,1.700000X1.700000*%
%ADD14C,2.476000*%
%ADD15C,4.227000*%
%ADD16C,4.039000*%
%ADD17C,1.550000*%
%ADD18C,1.800000*%
%ADD19C,3.000000*%
%ADD20R,1.600000X1.600000*%
%ADD21O,1.600000X1.600000*%
%ADD22C,5.600000*%
%ADD23O,1.700000X1.700000*%
G04 APERTURE END LIST*
D10*
%TO.C,S3*%
X179820000Y-126520000D03*
D11*
X179820000Y-129060000D03*
X179820000Y-131600000D03*
X184900000Y-126520000D03*
X184900000Y-131600000D03*
%TD*%
D12*
%TO.C,J8*%
X107580000Y-103200000D03*
X110120000Y-103200000D03*
%TD*%
D13*
%TO.C,TP11*%
X169350000Y-95200000D03*
%TD*%
D10*
%TO.C,S5*%
X161880000Y-145220000D03*
D11*
X159340000Y-145220000D03*
X156800000Y-145220000D03*
X161880000Y-150300000D03*
X156800000Y-150300000D03*
%TD*%
D10*
%TO.C,S2*%
X119140000Y-145265000D03*
D11*
X116600000Y-145265000D03*
X114060000Y-145265000D03*
X119140000Y-150345000D03*
X114060000Y-150345000D03*
%TD*%
D13*
%TO.C,TP5*%
X134900000Y-101200000D03*
%TD*%
D14*
%TO.C,J4*%
X173450000Y-81525000D03*
X181950000Y-81525000D03*
D15*
X177700000Y-84675000D03*
D16*
X177700000Y-89175000D03*
%TD*%
D17*
%TO.C,PS1*%
X91800000Y-104840000D03*
X91800000Y-102300000D03*
X91800000Y-99760000D03*
%TD*%
D12*
%TO.C,J7*%
X99000000Y-103200000D03*
X101540000Y-103200000D03*
%TD*%
D13*
%TO.C,TP2*%
X157625000Y-111000000D03*
%TD*%
D12*
%TO.C,J6*%
X74460000Y-103100000D03*
X77000000Y-103100000D03*
%TD*%
D10*
%TO.C,S1*%
X179820000Y-104820000D03*
D11*
X179820000Y-107360000D03*
X179820000Y-109900000D03*
X184900000Y-104820000D03*
X184900000Y-109900000D03*
%TD*%
D13*
%TO.C,TP7*%
X169525000Y-100200000D03*
%TD*%
D18*
%TO.C,VR1*%
X178500000Y-148600000D03*
X181000000Y-148600000D03*
X183500000Y-148600000D03*
%TD*%
D13*
%TO.C,TP10*%
X154050000Y-95700000D03*
%TD*%
%TO.C,TP6*%
X153900000Y-100750000D03*
%TD*%
D12*
%TO.C,J9*%
X116160000Y-103200000D03*
X118700000Y-103200000D03*
%TD*%
%TO.C,J10*%
X124740000Y-103200000D03*
X127280000Y-103200000D03*
%TD*%
D13*
%TO.C,TP4*%
X80550000Y-96500000D03*
%TD*%
D10*
%TO.C,S6*%
X75440000Y-145320000D03*
D11*
X72900000Y-145320000D03*
X70360000Y-145320000D03*
X75440000Y-150400000D03*
X70360000Y-150400000D03*
%TD*%
D19*
%TO.C,J1*%
X77500000Y-114000000D03*
X71500000Y-114000000D03*
X74500000Y-118700000D03*
%TD*%
D18*
%TO.C,VR4*%
X135960000Y-148560000D03*
X138460000Y-148560000D03*
X140960000Y-148560000D03*
%TD*%
D20*
%TO.C,A1*%
X148200000Y-120360000D03*
D21*
X145660000Y-120360000D03*
X143120000Y-120360000D03*
X140580000Y-120360000D03*
X138040000Y-120360000D03*
X135500000Y-120360000D03*
X132960000Y-120360000D03*
X130420000Y-120360000D03*
X127880000Y-120360000D03*
X125340000Y-120360000D03*
X122800000Y-120360000D03*
X120260000Y-120360000D03*
X117720000Y-120360000D03*
X115180000Y-120360000D03*
X112640000Y-120360000D03*
X112640000Y-135600000D03*
X115180000Y-135600000D03*
X117720000Y-135600000D03*
X120260000Y-135600000D03*
X122800000Y-135600000D03*
X125340000Y-135600000D03*
X127880000Y-135600000D03*
X130420000Y-135600000D03*
X132960000Y-135600000D03*
X135500000Y-135600000D03*
X138040000Y-135600000D03*
X140580000Y-135600000D03*
X143120000Y-135600000D03*
X145660000Y-135600000D03*
X148200000Y-135600000D03*
%TD*%
D18*
%TO.C,VR5*%
X92190000Y-148650000D03*
X94690000Y-148650000D03*
X97190000Y-148650000D03*
%TD*%
D22*
%TO.C,REF\u002A\u002A*%
X84000000Y-148000000D03*
%TD*%
D13*
%TO.C,TP12*%
X80550000Y-91600000D03*
%TD*%
D14*
%TO.C,J3*%
X154415000Y-81475000D03*
X162915000Y-81475000D03*
D15*
X158665000Y-84625000D03*
D16*
X158665000Y-89125000D03*
%TD*%
D13*
%TO.C,TP1*%
X138900000Y-111675000D03*
%TD*%
D22*
%TO.C,REF\u002A\u002A*%
X170000000Y-149000000D03*
%TD*%
D13*
%TO.C,TP3*%
X173425000Y-110350000D03*
%TD*%
%TO.C,TP9*%
X134900000Y-96100000D03*
%TD*%
%TO.C,TP8*%
X84600000Y-111000000D03*
%TD*%
D22*
%TO.C,REF\u002A\u002A*%
X184000000Y-98000000D03*
%TD*%
D14*
%TO.C,J2*%
X135300000Y-81575000D03*
X143800000Y-81575000D03*
D15*
X139550000Y-84725000D03*
D16*
X139550000Y-89225000D03*
%TD*%
D13*
%TO.C,J5*%
X87115000Y-90000000D03*
D23*
X89655000Y-90000000D03*
X92195000Y-90000000D03*
%TD*%
D22*
%TO.C,REF\u002A\u002A*%
X70000000Y-83000000D03*
%TD*%
M02*
