%TF.GenerationSoftware,KiCad,Pcbnew,7.0.8*%
%TF.CreationDate,2024-02-03T19:33:36-05:00*%
%TF.ProjectId,TelescopeController,54656c65-7363-46f7-9065-436f6e74726f,rev?*%
%TF.SameCoordinates,Original*%
%TF.FileFunction,Soldermask,Top*%
%TF.FilePolarity,Negative*%
%FSLAX46Y46*%
G04 Gerber Fmt 4.6, Leading zero omitted, Abs format (unit mm)*
G04 Created by KiCad (PCBNEW 7.0.8) date 2024-02-03 19:33:36*
%MOMM*%
%LPD*%
G01*
G04 APERTURE LIST*
G04 Aperture macros list*
%AMRoundRect*
0 Rectangle with rounded corners*
0 $1 Rounding radius*
0 $2 $3 $4 $5 $6 $7 $8 $9 X,Y pos of 4 corners*
0 Add a 4 corners polygon primitive as box body*
4,1,4,$2,$3,$4,$5,$6,$7,$8,$9,$2,$3,0*
0 Add four circle primitives for the rounded corners*
1,1,$1+$1,$2,$3*
1,1,$1+$1,$4,$5*
1,1,$1+$1,$6,$7*
1,1,$1+$1,$8,$9*
0 Add four rect primitives between the rounded corners*
20,1,$1+$1,$2,$3,$4,$5,0*
20,1,$1+$1,$4,$5,$6,$7,0*
20,1,$1+$1,$6,$7,$8,$9,0*
20,1,$1+$1,$8,$9,$2,$3,0*%
G04 Aperture macros list end*
%ADD10RoundRect,0.250000X0.350000X0.450000X-0.350000X0.450000X-0.350000X-0.450000X0.350000X-0.450000X0*%
%ADD11R,1.500000X1.500000*%
%ADD12C,1.500000*%
%ADD13C,1.950000*%
%ADD14R,1.700000X1.700000*%
%ADD15RoundRect,0.250000X-0.350000X-0.450000X0.350000X-0.450000X0.350000X0.450000X-0.350000X0.450000X0*%
%ADD16RoundRect,0.250000X-0.325000X-0.450000X0.325000X-0.450000X0.325000X0.450000X-0.325000X0.450000X0*%
%ADD17C,2.476000*%
%ADD18C,4.227000*%
%ADD19C,4.039000*%
%ADD20C,1.550000*%
%ADD21RoundRect,0.250000X-0.450000X0.350000X-0.450000X-0.350000X0.450000X-0.350000X0.450000X0.350000X0*%
%ADD22RoundRect,0.250000X-0.337500X-0.475000X0.337500X-0.475000X0.337500X0.475000X-0.337500X0.475000X0*%
%ADD23R,1.200000X0.600000*%
%ADD24R,1.000000X0.500000*%
%ADD25C,1.800000*%
%ADD26RoundRect,0.250000X0.325000X0.450000X-0.325000X0.450000X-0.325000X-0.450000X0.325000X-0.450000X0*%
%ADD27C,3.000000*%
%ADD28R,1.600000X1.600000*%
%ADD29O,1.600000X1.600000*%
%ADD30C,5.600000*%
%ADD31O,1.700000X1.700000*%
%ADD32RoundRect,0.250000X-0.450000X0.325000X-0.450000X-0.325000X0.450000X-0.325000X0.450000X0.325000X0*%
G04 APERTURE END LIST*
D10*
%TO.C,R19*%
X90500000Y-115300000D03*
X88500000Y-115300000D03*
%TD*%
D11*
%TO.C,S3*%
X179820000Y-126520000D03*
D12*
X179820000Y-129060000D03*
X179820000Y-131600000D03*
X184900000Y-126520000D03*
X184900000Y-131600000D03*
%TD*%
D13*
%TO.C,J8*%
X107580000Y-103200000D03*
X110120000Y-103200000D03*
%TD*%
D14*
%TO.C,TP11*%
X169350000Y-95200000D03*
%TD*%
D11*
%TO.C,S5*%
X161880000Y-145220000D03*
D12*
X159340000Y-145220000D03*
X156800000Y-145220000D03*
X161880000Y-150300000D03*
X156800000Y-150300000D03*
%TD*%
D15*
%TO.C,R22*%
X172400000Y-97400000D03*
X174400000Y-97400000D03*
%TD*%
D10*
%TO.C,R18*%
X90550000Y-122400000D03*
X88550000Y-122400000D03*
%TD*%
D15*
%TO.C,R12*%
X154350000Y-142150000D03*
X156350000Y-142150000D03*
%TD*%
D11*
%TO.C,S2*%
X119140000Y-145265000D03*
D12*
X116600000Y-145265000D03*
X114060000Y-145265000D03*
X119140000Y-150345000D03*
X114060000Y-150345000D03*
%TD*%
D15*
%TO.C,R15*%
X179000000Y-114400000D03*
X181000000Y-114400000D03*
%TD*%
D14*
%TO.C,TP5*%
X134900000Y-101200000D03*
%TD*%
D16*
%TO.C,F2*%
X137775000Y-102275000D03*
X139825000Y-102275000D03*
%TD*%
%TO.C,D5*%
X157075000Y-95950000D03*
X159125000Y-95950000D03*
%TD*%
D17*
%TO.C,J4*%
X173450000Y-81525000D03*
X181950000Y-81525000D03*
D18*
X177700000Y-84675000D03*
D19*
X177700000Y-89175000D03*
%TD*%
D20*
%TO.C,PS1*%
X91800000Y-104840000D03*
X91800000Y-102300000D03*
X91800000Y-99760000D03*
%TD*%
D16*
%TO.C,F3*%
X156675000Y-101550000D03*
X158725000Y-101550000D03*
%TD*%
D13*
%TO.C,J7*%
X99000000Y-103200000D03*
X101540000Y-103200000D03*
%TD*%
D21*
%TO.C,R28*%
X120250000Y-108550000D03*
X120250000Y-110550000D03*
%TD*%
D14*
%TO.C,TP2*%
X157625000Y-111000000D03*
%TD*%
D15*
%TO.C,R14*%
X67900000Y-142450000D03*
X69900000Y-142450000D03*
%TD*%
D22*
%TO.C,C1*%
X91762500Y-110200000D03*
X93837500Y-110200000D03*
%TD*%
D13*
%TO.C,J6*%
X74460000Y-103100000D03*
X77000000Y-103100000D03*
%TD*%
D21*
%TO.C,R6*%
X176200000Y-102850000D03*
X176200000Y-104850000D03*
%TD*%
D23*
%TO.C,Q6*%
X174275000Y-104775000D03*
X174275000Y-102875000D03*
X171775000Y-103825000D03*
%TD*%
D16*
%TO.C,D6*%
X172375000Y-95300000D03*
X174425000Y-95300000D03*
%TD*%
D24*
%TO.C,Q3*%
X156700000Y-107100000D03*
X156700000Y-108400000D03*
X158700000Y-107750000D03*
%TD*%
D15*
%TO.C,R9*%
X111750000Y-140250000D03*
X113750000Y-140250000D03*
%TD*%
D11*
%TO.C,S1*%
X179820000Y-104820000D03*
D12*
X179820000Y-107360000D03*
X179820000Y-109900000D03*
X184900000Y-104820000D03*
X184900000Y-109900000D03*
%TD*%
D14*
%TO.C,TP7*%
X169525000Y-100200000D03*
%TD*%
D10*
%TO.C,R17*%
X90600000Y-119000000D03*
X88600000Y-119000000D03*
%TD*%
D25*
%TO.C,VR1*%
X178500000Y-148600000D03*
X181000000Y-148600000D03*
X183500000Y-148600000D03*
%TD*%
D14*
%TO.C,TP10*%
X154050000Y-95700000D03*
%TD*%
D26*
%TO.C,F1*%
X89925000Y-94400000D03*
X87875000Y-94400000D03*
%TD*%
D16*
%TO.C,F4*%
X172200000Y-101050000D03*
X174250000Y-101050000D03*
%TD*%
%TO.C,D7*%
X68875000Y-106500000D03*
X70925000Y-106500000D03*
%TD*%
D15*
%TO.C,R11*%
X154350000Y-140150000D03*
X156350000Y-140150000D03*
%TD*%
D14*
%TO.C,TP6*%
X153900000Y-100750000D03*
%TD*%
D15*
%TO.C,R20*%
X138000000Y-98300000D03*
X140000000Y-98300000D03*
%TD*%
D24*
%TO.C,Q7*%
X80350000Y-104750000D03*
X80350000Y-106050000D03*
X82350000Y-105400000D03*
%TD*%
D16*
%TO.C,D2*%
X84700000Y-122400000D03*
X86750000Y-122400000D03*
%TD*%
D21*
%TO.C,R1*%
X136000000Y-107975000D03*
X136000000Y-109975000D03*
%TD*%
D13*
%TO.C,J9*%
X116160000Y-103200000D03*
X118700000Y-103200000D03*
%TD*%
D15*
%TO.C,R16*%
X179000000Y-116550000D03*
X181000000Y-116550000D03*
%TD*%
D13*
%TO.C,J10*%
X124740000Y-103200000D03*
X127280000Y-103200000D03*
%TD*%
D14*
%TO.C,TP4*%
X80550000Y-96500000D03*
%TD*%
D15*
%TO.C,R23*%
X68900000Y-104400000D03*
X70900000Y-104400000D03*
%TD*%
D21*
%TO.C,R5*%
X170550000Y-106650000D03*
X170550000Y-108650000D03*
%TD*%
D15*
%TO.C,R13*%
X67900000Y-140450000D03*
X69900000Y-140450000D03*
%TD*%
D11*
%TO.C,S6*%
X75440000Y-145320000D03*
D12*
X72900000Y-145320000D03*
X70360000Y-145320000D03*
X75440000Y-150400000D03*
X70360000Y-150400000D03*
%TD*%
D21*
%TO.C,R4*%
X160525000Y-103475000D03*
X160525000Y-105475000D03*
%TD*%
D10*
%TO.C,R7*%
X82450000Y-107850000D03*
X80450000Y-107850000D03*
%TD*%
D15*
%TO.C,R10*%
X111750000Y-142250000D03*
X113750000Y-142250000D03*
%TD*%
D27*
%TO.C,J1*%
X77500000Y-114000000D03*
X71500000Y-114000000D03*
X74500000Y-118700000D03*
%TD*%
D25*
%TO.C,VR4*%
X135960000Y-148560000D03*
X138460000Y-148560000D03*
X140960000Y-148560000D03*
%TD*%
D28*
%TO.C,A1*%
X148200000Y-120360000D03*
D29*
X145660000Y-120360000D03*
X143120000Y-120360000D03*
X140580000Y-120360000D03*
X138040000Y-120360000D03*
X135500000Y-120360000D03*
X132960000Y-120360000D03*
X130420000Y-120360000D03*
X127880000Y-120360000D03*
X125340000Y-120360000D03*
X122800000Y-120360000D03*
X120260000Y-120360000D03*
X117720000Y-120360000D03*
X115180000Y-120360000D03*
X112640000Y-120360000D03*
X112640000Y-135600000D03*
X115180000Y-135600000D03*
X117720000Y-135600000D03*
X120260000Y-135600000D03*
X122800000Y-135600000D03*
X125340000Y-135600000D03*
X127880000Y-135600000D03*
X130420000Y-135600000D03*
X132960000Y-135600000D03*
X135500000Y-135600000D03*
X138040000Y-135600000D03*
X140580000Y-135600000D03*
X143120000Y-135600000D03*
X145660000Y-135600000D03*
X148200000Y-135600000D03*
%TD*%
D25*
%TO.C,VR5*%
X92190000Y-148650000D03*
X94690000Y-148650000D03*
X97190000Y-148650000D03*
%TD*%
D30*
%TO.C,REF\u002A\u002A*%
X84000000Y-148000000D03*
%TD*%
D24*
%TO.C,Q1*%
X137900000Y-107725000D03*
X137900000Y-109025000D03*
X139900000Y-108375000D03*
%TD*%
D14*
%TO.C,TP12*%
X80550000Y-91600000D03*
%TD*%
D17*
%TO.C,J3*%
X154415000Y-81475000D03*
X162915000Y-81475000D03*
D18*
X158665000Y-84625000D03*
D19*
X158665000Y-89125000D03*
%TD*%
D14*
%TO.C,TP1*%
X138900000Y-111675000D03*
%TD*%
D15*
%TO.C,R21*%
X157100000Y-98000000D03*
X159100000Y-98000000D03*
%TD*%
D23*
%TO.C,Q8*%
X80450000Y-101250000D03*
X80450000Y-103150000D03*
X82950000Y-102200000D03*
%TD*%
D22*
%TO.C,C2*%
X91762500Y-94400000D03*
X93837500Y-94400000D03*
%TD*%
D15*
%TO.C,R25*%
X178950000Y-138050000D03*
X180950000Y-138050000D03*
%TD*%
D30*
%TO.C,REF\u002A\u002A*%
X170000000Y-149000000D03*
%TD*%
D14*
%TO.C,TP3*%
X173425000Y-110350000D03*
%TD*%
D21*
%TO.C,R27*%
X111650000Y-108550000D03*
X111650000Y-110550000D03*
%TD*%
%TO.C,R2*%
X141700000Y-104075000D03*
X141700000Y-106075000D03*
%TD*%
D16*
%TO.C,D4*%
X137975000Y-96200000D03*
X140025000Y-96200000D03*
%TD*%
D15*
%TO.C,R24*%
X178950000Y-136000000D03*
X180950000Y-136000000D03*
%TD*%
D21*
%TO.C,R3*%
X154700000Y-107400000D03*
X154700000Y-109400000D03*
%TD*%
D16*
%TO.C,D1*%
X84725000Y-119000000D03*
X86775000Y-119000000D03*
%TD*%
D14*
%TO.C,TP9*%
X134900000Y-96100000D03*
%TD*%
%TO.C,TP8*%
X84600000Y-111000000D03*
%TD*%
D23*
%TO.C,Q2*%
X139800000Y-106100000D03*
X139800000Y-104200000D03*
X137300000Y-105150000D03*
%TD*%
D10*
%TO.C,R8*%
X83650000Y-99250000D03*
X81650000Y-99250000D03*
%TD*%
D30*
%TO.C,REF\u002A\u002A*%
X184000000Y-98000000D03*
%TD*%
D23*
%TO.C,Q4*%
X158600000Y-105425000D03*
X158600000Y-103525000D03*
X156100000Y-104475000D03*
%TD*%
D16*
%TO.C,D3*%
X84700000Y-115300000D03*
X86750000Y-115300000D03*
%TD*%
D24*
%TO.C,Q5*%
X172350000Y-106400000D03*
X172350000Y-107700000D03*
X174350000Y-107050000D03*
%TD*%
D17*
%TO.C,J2*%
X135300000Y-81575000D03*
X143800000Y-81575000D03*
D18*
X139550000Y-84725000D03*
D19*
X139550000Y-89225000D03*
%TD*%
D14*
%TO.C,J5*%
X87115000Y-90000000D03*
D31*
X89655000Y-90000000D03*
X92195000Y-90000000D03*
%TD*%
D21*
%TO.C,R26*%
X103100000Y-108550000D03*
X103100000Y-110550000D03*
%TD*%
D30*
%TO.C,REF\u002A\u002A*%
X70000000Y-83000000D03*
%TD*%
D32*
%TO.C,F5*%
X83500000Y-95225000D03*
X83500000Y-97275000D03*
%TD*%
D21*
%TO.C,R29*%
X128850000Y-108600000D03*
X128850000Y-110600000D03*
%TD*%
M02*
