%TF.GenerationSoftware,KiCad,Pcbnew,7.0.8*%
%TF.CreationDate,2024-05-27T16:30:16-04:00*%
%TF.ProjectId,TelescopeController,54656c65-7363-46f7-9065-436f6e74726f,rev?*%
%TF.SameCoordinates,Original*%
%TF.FileFunction,Soldermask,Bot*%
%TF.FilePolarity,Negative*%
%FSLAX46Y46*%
G04 Gerber Fmt 4.6, Leading zero omitted, Abs format (unit mm)*
G04 Created by KiCad (PCBNEW 7.0.8) date 2024-05-27 16:30:16*
%MOMM*%
%LPD*%
G01*
G04 APERTURE LIST*
%ADD10R,1.700000X1.700000*%
%ADD11O,1.700000X1.700000*%
%ADD12C,2.476000*%
%ADD13C,4.227000*%
%ADD14C,4.039000*%
%ADD15C,3.000000*%
%ADD16C,5.600000*%
%ADD17R,1.600000X1.600000*%
%ADD18O,1.600000X1.600000*%
%ADD19C,1.550000*%
%ADD20R,1.500000X1.500000*%
%ADD21C,1.500000*%
%ADD22R,1.800000X1.800000*%
%ADD23C,1.800000*%
G04 APERTURE END LIST*
D10*
%TO.C,J11*%
X76110000Y-103875000D03*
D11*
X76110000Y-101335000D03*
X78650000Y-103875000D03*
X78650000Y-101335000D03*
X81190000Y-103875000D03*
X81190000Y-101335000D03*
X83730000Y-103875000D03*
X83730000Y-101335000D03*
%TD*%
D10*
%TO.C,TP11*%
X154675000Y-107900000D03*
%TD*%
%TO.C,TP5*%
X109650000Y-110075000D03*
%TD*%
D12*
%TO.C,J4*%
X148025000Y-92650000D03*
X156525000Y-92650000D03*
D13*
X152275000Y-95800000D03*
D14*
X152275000Y-100300000D03*
%TD*%
D10*
%TO.C,TP8*%
X46800000Y-109050000D03*
%TD*%
D15*
%TO.C,J7*%
X171250000Y-102275000D03*
X171250000Y-96275000D03*
X166550000Y-99275000D03*
%TD*%
D10*
%TO.C,TP2*%
X132850000Y-120550000D03*
%TD*%
%TO.C,TP7*%
X147800000Y-110150000D03*
%TD*%
%TO.C,TP12*%
X46925000Y-105200000D03*
%TD*%
%TO.C,TP10*%
X136150000Y-108200000D03*
%TD*%
D16*
%TO.C,REF\u002A\u002A*%
X165867641Y-154600000D03*
%TD*%
D10*
%TO.C,TP4*%
X48800000Y-123875000D03*
%TD*%
%TO.C,TP6*%
X129125000Y-110300000D03*
%TD*%
D16*
%TO.C,REF\u002A\u002A*%
X60867641Y-154600000D03*
%TD*%
%TO.C,REF\u002A\u002A*%
X165867641Y-119600000D03*
%TD*%
D15*
%TO.C,J1*%
X54450000Y-102275000D03*
X54450000Y-96275000D03*
X49750000Y-99275000D03*
%TD*%
D17*
%TO.C,A1*%
X104035000Y-130095000D03*
D18*
X104035000Y-127555000D03*
X104035000Y-125015000D03*
X104035000Y-122475000D03*
X104035000Y-119935000D03*
X104035000Y-117395000D03*
X104035000Y-114855000D03*
X104035000Y-112315000D03*
X104035000Y-109775000D03*
X104035000Y-107235000D03*
X104035000Y-104695000D03*
X104035000Y-102155000D03*
X104035000Y-99615000D03*
X104035000Y-97075000D03*
X104035000Y-94535000D03*
X88795000Y-94535000D03*
X88795000Y-97075000D03*
X88795000Y-99615000D03*
X88795000Y-102155000D03*
X88795000Y-104695000D03*
X88795000Y-107235000D03*
X88795000Y-109775000D03*
X88795000Y-112315000D03*
X88795000Y-114855000D03*
X88795000Y-117395000D03*
X88795000Y-119935000D03*
X88795000Y-122475000D03*
X88795000Y-125015000D03*
X88795000Y-127555000D03*
X88795000Y-130095000D03*
%TD*%
D12*
%TO.C,J3*%
X128990000Y-92600000D03*
X137490000Y-92600000D03*
D13*
X133240000Y-95750000D03*
D14*
X133240000Y-100250000D03*
%TD*%
D16*
%TO.C,REF\u002A\u002A*%
X113035000Y-130000000D03*
%TD*%
D10*
%TO.C,TP1*%
X113650000Y-120550000D03*
%TD*%
D16*
%TO.C,REF\u002A\u002A*%
X60867641Y-119600000D03*
%TD*%
D10*
%TO.C,TP3*%
X151700000Y-120300000D03*
%TD*%
%TO.C,TP9*%
X116725000Y-108150000D03*
%TD*%
D19*
%TO.C,PS1*%
X161890000Y-128962500D03*
X159350000Y-128962500D03*
X156810000Y-128962500D03*
%TD*%
D12*
%TO.C,J2*%
X109875000Y-92700000D03*
X118375000Y-92700000D03*
D13*
X114125000Y-95850000D03*
D14*
X114125000Y-100350000D03*
%TD*%
D10*
%TO.C,J5*%
X65585000Y-101275000D03*
D11*
X68125000Y-101275000D03*
X70665000Y-101275000D03*
%TD*%
D20*
%TO.C,S10*%
X79040000Y-151355000D03*
D21*
X79040000Y-148815000D03*
X79040000Y-146275000D03*
%TD*%
D22*
%TO.C,D13*%
X97325000Y-141000000D03*
D23*
X94785000Y-141000000D03*
%TD*%
D22*
%TO.C,D9*%
X131325000Y-141000000D03*
D23*
X128785000Y-141000000D03*
%TD*%
D22*
%TO.C,D12*%
X114325000Y-141000000D03*
D23*
X111785000Y-141000000D03*
%TD*%
D20*
%TO.C,S8*%
X147060000Y-151355000D03*
D21*
X147060000Y-148815000D03*
X147060000Y-146275000D03*
%TD*%
D22*
%TO.C,D8*%
X148325000Y-141000000D03*
D23*
X145785000Y-141000000D03*
%TD*%
D22*
%TO.C,D11*%
X178090000Y-120950000D03*
D23*
X175550000Y-120950000D03*
%TD*%
D20*
%TO.C,S7*%
X113060000Y-151355000D03*
D21*
X113060000Y-148815000D03*
X113060000Y-146275000D03*
%TD*%
D20*
%TO.C,S4*%
X130060000Y-151355000D03*
D21*
X130060000Y-148815000D03*
X130060000Y-146275000D03*
%TD*%
D20*
%TO.C,S9*%
X96040000Y-151355000D03*
D21*
X96040000Y-148815000D03*
X96040000Y-146275000D03*
%TD*%
D22*
%TO.C,D14*%
X178090000Y-127950000D03*
D23*
X175550000Y-127950000D03*
%TD*%
D22*
%TO.C,D10*%
X178090000Y-134950000D03*
D23*
X175550000Y-134950000D03*
%TD*%
M02*
