%TF.GenerationSoftware,KiCad,Pcbnew,7.0.8*%
%TF.CreationDate,2024-02-03T20:16:28-05:00*%
%TF.ProjectId,Dew Ring,44657720-5269-46e6-972e-6b696361645f,rev?*%
%TF.SameCoordinates,Original*%
%TF.FileFunction,Copper,L1,Top*%
%TF.FilePolarity,Positive*%
%FSLAX46Y46*%
G04 Gerber Fmt 4.6, Leading zero omitted, Abs format (unit mm)*
G04 Created by KiCad (PCBNEW 7.0.8) date 2024-02-03 20:16:28*
%MOMM*%
%LPD*%
G01*
G04 APERTURE LIST*
G04 Aperture macros list*
%AMRoundRect*
0 Rectangle with rounded corners*
0 $1 Rounding radius*
0 $2 $3 $4 $5 $6 $7 $8 $9 X,Y pos of 4 corners*
0 Add a 4 corners polygon primitive as box body*
4,1,4,$2,$3,$4,$5,$6,$7,$8,$9,$2,$3,0*
0 Add four circle primitives for the rounded corners*
1,1,$1+$1,$2,$3*
1,1,$1+$1,$4,$5*
1,1,$1+$1,$6,$7*
1,1,$1+$1,$8,$9*
0 Add four rect primitives between the rounded corners*
20,1,$1+$1,$2,$3,$4,$5,0*
20,1,$1+$1,$4,$5,$6,$7,0*
20,1,$1+$1,$6,$7,$8,$9,0*
20,1,$1+$1,$8,$9,$2,$3,0*%
%AMFreePoly0*
4,1,52,2.543260,1.508031,2.767066,1.448206,2.979455,1.355693,3.175684,1.232558,3.351368,1.081552,3.502584,0.906049,3.625954,0.709967,3.718721,0.497689,3.778814,0.273956,3.804890,0.043764,3.796367,-0.187742,3.753434,-0.415392,3.677051,-0.634101,3.568925,-0.838983,3.431470,-1.025461,3.267758,-1.189370,3.081445,-1.327048,2.876692,-1.435419,2.658074,-1.512063,1.783786,-1.732631,
0.903170,-1.926397,0.017048,-2.093179,-0.873755,-2.232823,-1.104922,-2.247969,-1.335766,-2.228492,-1.561127,-2.174827,-1.775974,-2.088173,-1.975505,-1.970465,-2.155264,-1.824334,-2.311237,-1.653043,-2.439937,-1.460418,-2.538491,-1.250764,-2.604696,-1.028761,-2.637075,-0.799373,-2.634903,-0.567720,-2.598229,-0.338978,-2.527872,-0.118256,-2.425406,0.089514,-2.293116,0.279691,-2.133960,0.448028,
-1.951492,0.590764,-1.749789,0.704708,-1.533356,0.787319,-1.307027,0.836750,-0.907442,0.893159,-0.112087,1.030317,0.678709,1.191699,1.464207,1.377155,1.853943,1.481826,2.081542,1.525031,2.313038,1.533832,2.543260,1.508031,2.543260,1.508031,$1*%
G04 Aperture macros list end*
%TA.AperFunction,SMDPad,CuDef*%
%ADD10RoundRect,0.250000X-0.516600X0.241090X-0.360835X-0.441359X0.516600X-0.241090X0.360835X0.441359X0*%
%TD*%
%TA.AperFunction,SMDPad,CuDef*%
%ADD11RoundRect,0.250000X0.070711X-0.565685X0.565685X-0.070711X-0.070711X0.565685X-0.565685X0.070711X0*%
%TD*%
%TA.AperFunction,SMDPad,CuDef*%
%ADD12RoundRect,0.250000X-0.241090X-0.516600X0.441359X-0.360835X0.241090X0.516600X-0.441359X0.360835X0*%
%TD*%
%TA.AperFunction,SMDPad,CuDef*%
%ADD13RoundRect,0.250000X-0.441359X-0.360835X0.241090X-0.516600X0.441359X0.360835X-0.241090X0.516600X0*%
%TD*%
%TA.AperFunction,SMDPad,CuDef*%
%ADD14RoundRect,0.250000X-0.450000X0.350000X-0.450000X-0.350000X0.450000X-0.350000X0.450000X0.350000X0*%
%TD*%
%TA.AperFunction,SMDPad,CuDef*%
%ADD15RoundRect,0.250000X0.567237X-0.056939X0.194815X0.535768X-0.567237X0.056939X-0.194815X-0.535768X0*%
%TD*%
%TA.AperFunction,SMDPad,CuDef*%
%ADD16RoundRect,0.250000X-0.056939X-0.567237X0.535768X-0.194815X0.056939X0.567237X-0.535768X0.194815X0*%
%TD*%
%TA.AperFunction,SMDPad,CuDef*%
%ADD17RoundRect,0.250000X-0.554211X-0.133603X-0.006929X-0.570046X0.554211X0.133603X0.006929X0.570046X0*%
%TD*%
%TA.AperFunction,SMDPad,CuDef*%
%ADD18RoundRect,0.250000X0.441359X0.360835X-0.241090X0.516600X-0.441359X-0.360835X0.241090X-0.516600X0*%
%TD*%
%TA.AperFunction,SMDPad,CuDef*%
%ADD19RoundRect,0.250000X-0.398183X-0.407983X0.297415X-0.486358X0.398183X0.407983X-0.297415X0.486358X0*%
%TD*%
%TA.AperFunction,SMDPad,CuDef*%
%ADD20RoundRect,0.250000X-0.535768X-0.194815X0.056939X-0.567237X0.535768X0.194815X-0.056939X0.567237X0*%
%TD*%
%TA.AperFunction,SMDPad,CuDef*%
%ADD21RoundRect,0.250000X-0.297415X-0.486358X0.398183X-0.407983X0.297415X0.486358X-0.398183X0.407983X0*%
%TD*%
%TA.AperFunction,SMDPad,CuDef*%
%ADD22FreePoly0,333.000000*%
%TD*%
%TA.AperFunction,SMDPad,CuDef*%
%ADD23RoundRect,0.250000X0.241090X0.516600X-0.441359X0.360835X-0.241090X-0.516600X0.441359X-0.360835X0*%
%TD*%
%TA.AperFunction,SMDPad,CuDef*%
%ADD24RoundRect,0.250000X-0.120091X-0.557295X0.510587X-0.253577X0.120091X0.557295X-0.510587X0.253577X0*%
%TD*%
%TA.AperFunction,SMDPad,CuDef*%
%ADD25RoundRect,0.250000X0.350000X0.450000X-0.350000X0.450000X-0.350000X-0.450000X0.350000X-0.450000X0*%
%TD*%
%TA.AperFunction,SMDPad,CuDef*%
%ADD26RoundRect,0.250000X0.297415X0.486358X-0.398183X0.407983X-0.297415X-0.486358X0.398183X-0.407983X0*%
%TD*%
%TA.AperFunction,SMDPad,CuDef*%
%ADD27RoundRect,0.250000X-0.570046X-0.006929X-0.133603X-0.554211X0.570046X0.006929X0.133603X0.554211X0*%
%TD*%
%TA.AperFunction,SMDPad,CuDef*%
%ADD28RoundRect,0.250000X0.510587X0.253577X-0.120091X0.557295X-0.510587X-0.253577X0.120091X-0.557295X0*%
%TD*%
%TA.AperFunction,SMDPad,CuDef*%
%ADD29RoundRect,0.250000X0.398183X0.407983X-0.297415X0.486358X-0.398183X-0.407983X0.297415X-0.486358X0*%
%TD*%
%TA.AperFunction,SMDPad,CuDef*%
%ADD30RoundRect,0.250000X0.194815X-0.535768X0.567237X0.056939X-0.194815X0.535768X-0.567237X-0.056939X0*%
%TD*%
%TA.AperFunction,SMDPad,CuDef*%
%ADD31RoundRect,0.250000X0.535768X0.194815X-0.056939X0.567237X-0.535768X-0.194815X0.056939X-0.567237X0*%
%TD*%
%TA.AperFunction,SMDPad,CuDef*%
%ADD32RoundRect,0.250000X0.557295X-0.120091X0.253577X0.510587X-0.557295X0.120091X-0.253577X-0.510587X0*%
%TD*%
%TA.AperFunction,SMDPad,CuDef*%
%ADD33RoundRect,0.250000X0.478985X0.309150X-0.181734X0.540345X-0.478985X-0.309150X0.181734X-0.540345X0*%
%TD*%
%TA.AperFunction,SMDPad,CuDef*%
%ADD34RoundRect,0.250000X-0.567237X0.056939X-0.194815X-0.535768X0.567237X-0.056939X0.194815X0.535768X0*%
%TD*%
%TA.AperFunction,SMDPad,CuDef*%
%ADD35RoundRect,0.250000X0.570046X0.006929X0.133603X0.554211X-0.570046X-0.006929X-0.133603X-0.554211X0*%
%TD*%
%TA.AperFunction,SMDPad,CuDef*%
%ADD36RoundRect,0.250000X-0.478985X-0.309150X0.181734X-0.540345X0.478985X0.309150X-0.181734X0.540345X0*%
%TD*%
%TA.AperFunction,SMDPad,CuDef*%
%ADD37RoundRect,0.250000X-0.194815X0.535768X-0.567237X-0.056939X0.194815X-0.535768X0.567237X0.056939X0*%
%TD*%
%TA.AperFunction,SMDPad,CuDef*%
%ADD38RoundRect,0.250000X-0.407983X0.398183X-0.486358X-0.297415X0.407983X-0.398183X0.486358X0.297415X0*%
%TD*%
%TA.AperFunction,SMDPad,CuDef*%
%ADD39RoundRect,0.250000X-0.133603X0.554211X-0.570046X0.006929X0.133603X-0.554211X0.570046X-0.006929X0*%
%TD*%
%TA.AperFunction,SMDPad,CuDef*%
%ADD40RoundRect,0.250000X0.565685X0.070711X0.070711X0.565685X-0.565685X-0.070711X-0.070711X-0.565685X0*%
%TD*%
%TA.AperFunction,SMDPad,CuDef*%
%ADD41RoundRect,0.250000X-0.540345X0.181734X-0.309150X-0.478985X0.540345X-0.181734X0.309150X0.478985X0*%
%TD*%
%TA.AperFunction,SMDPad,CuDef*%
%ADD42RoundRect,0.250000X0.120091X0.557295X-0.510587X0.253577X-0.120091X-0.557295X0.510587X-0.253577X0*%
%TD*%
%TA.AperFunction,SMDPad,CuDef*%
%ADD43RoundRect,0.250000X0.181734X0.540345X-0.478985X0.309150X-0.181734X-0.540345X0.478985X-0.309150X0*%
%TD*%
%TA.AperFunction,SMDPad,CuDef*%
%ADD44RoundRect,0.250000X-0.070711X0.565685X-0.565685X0.070711X0.070711X-0.565685X0.565685X-0.070711X0*%
%TD*%
%TA.AperFunction,SMDPad,CuDef*%
%ADD45RoundRect,0.250000X-0.557295X0.120091X-0.253577X-0.510587X0.557295X-0.120091X0.253577X0.510587X0*%
%TD*%
%TA.AperFunction,SMDPad,CuDef*%
%ADD46RoundRect,0.250000X0.056939X0.567237X-0.535768X0.194815X-0.056939X-0.567237X0.535768X-0.194815X0*%
%TD*%
%TA.AperFunction,SMDPad,CuDef*%
%ADD47RoundRect,0.250000X-0.309150X0.478985X-0.540345X-0.181734X0.309150X-0.478985X0.540345X0.181734X0*%
%TD*%
%TA.AperFunction,SMDPad,CuDef*%
%ADD48RoundRect,0.250000X-0.006929X0.570046X-0.554211X0.133603X0.006929X-0.570046X0.554211X-0.133603X0*%
%TD*%
%TA.AperFunction,SMDPad,CuDef*%
%ADD49RoundRect,0.250000X0.133603X-0.554211X0.570046X-0.006929X-0.133603X0.554211X-0.570046X0.006929X0*%
%TD*%
%TA.AperFunction,SMDPad,CuDef*%
%ADD50RoundRect,0.250000X-0.360835X0.441359X-0.516600X-0.241090X0.360835X-0.441359X0.516600X0.241090X0*%
%TD*%
%TA.AperFunction,SMDPad,CuDef*%
%ADD51RoundRect,0.250000X-0.181734X-0.540345X0.478985X-0.309150X0.181734X0.540345X-0.478985X0.309150X0*%
%TD*%
%TA.AperFunction,SMDPad,CuDef*%
%ADD52FreePoly0,4.000000*%
%TD*%
%TA.AperFunction,SMDPad,CuDef*%
%ADD53RoundRect,0.250000X0.253577X-0.510587X0.557295X0.120091X-0.253577X0.510587X-0.557295X-0.120091X0*%
%TD*%
%TA.AperFunction,SMDPad,CuDef*%
%ADD54RoundRect,0.250000X-0.486358X0.297415X-0.407983X-0.398183X0.486358X-0.297415X0.407983X0.398183X0*%
%TD*%
%TA.AperFunction,SMDPad,CuDef*%
%ADD55RoundRect,0.250000X0.006929X-0.570046X0.554211X-0.133603X-0.006929X0.570046X-0.554211X0.133603X0*%
%TD*%
%TA.AperFunction,SMDPad,CuDef*%
%ADD56RoundRect,0.250000X0.554211X0.133603X0.006929X0.570046X-0.554211X-0.133603X-0.006929X-0.570046X0*%
%TD*%
%TA.AperFunction,SMDPad,CuDef*%
%ADD57RoundRect,0.250000X-0.510587X-0.253577X0.120091X-0.557295X0.510587X0.253577X-0.120091X0.557295X0*%
%TD*%
%TA.AperFunction,SMDPad,CuDef*%
%ADD58RoundRect,0.250000X-0.350000X-0.450000X0.350000X-0.450000X0.350000X0.450000X-0.350000X0.450000X0*%
%TD*%
%TA.AperFunction,SMDPad,CuDef*%
%ADD59RoundRect,0.250000X-0.253577X0.510587X-0.557295X-0.120091X0.253577X-0.510587X0.557295X0.120091X0*%
%TD*%
%TA.AperFunction,SMDPad,CuDef*%
%ADD60RoundRect,0.250000X-0.565685X-0.070711X-0.070711X-0.565685X0.565685X0.070711X0.070711X0.565685X0*%
%TD*%
%TA.AperFunction,ViaPad*%
%ADD61C,0.600000*%
%TD*%
%TA.AperFunction,Conductor*%
%ADD62C,1.000000*%
%TD*%
%TA.AperFunction,Conductor*%
%ADD63C,0.200000*%
%TD*%
G04 APERTURE END LIST*
D10*
%TO.P,R94,1*%
%TO.N,+12V*%
X94144244Y-68305586D03*
%TO.P,R94,2*%
%TO.N,GND*%
X94589286Y-70255442D03*
%TD*%
D11*
%TO.P,R57,1*%
%TO.N,+12V*%
X80120330Y-116983670D03*
%TO.P,R57,2*%
%TO.N,GND*%
X81534544Y-115569456D03*
%TD*%
D12*
%TO.P,R52,1*%
%TO.N,+12V*%
X72369586Y-102959756D03*
%TO.P,R52,2*%
%TO.N,GND*%
X74319442Y-102514714D03*
%TD*%
D13*
%TO.P,R104,1*%
%TO.N,+12V*%
X72369586Y-90080244D03*
%TO.P,R104,2*%
%TO.N,GND*%
X74319442Y-90525286D03*
%TD*%
D14*
%TO.P,R92,1*%
%TO.N,+12V*%
X100584000Y-67580000D03*
%TO.P,R92,2*%
%TO.N,GND*%
X100584000Y-69580000D03*
%TD*%
D15*
%TO.P,R69,1*%
%TO.N,+12V*%
X115981008Y-121024198D03*
%TO.P,R69,2*%
%TO.N,GND*%
X114916944Y-119330750D03*
%TD*%
D16*
%TO.P,R55,1*%
%TO.N,+12V*%
X76079802Y-111917008D03*
%TO.P,R55,2*%
%TO.N,GND*%
X77773250Y-110852944D03*
%TD*%
D17*
%TO.P,R100,1*%
%TO.N,+12V*%
X77957797Y-78476205D03*
%TO.P,R100,2*%
%TO.N,GND*%
X79521459Y-79723185D03*
%TD*%
D18*
%TO.P,R76,1*%
%TO.N,+12V*%
X128798414Y-102959756D03*
%TO.P,R76,2*%
%TO.N,GND*%
X126848558Y-102514714D03*
%TD*%
D19*
%TO.P,R105,1*%
%TO.N,+12V*%
X71825969Y-93279749D03*
%TO.P,R105,2*%
%TO.N,GND*%
X73813393Y-93503677D03*
%TD*%
D20*
%TO.P,R101,1*%
%TO.N,+12V*%
X76079802Y-81122992D03*
%TO.P,R101,2*%
%TO.N,GND*%
X77773250Y-82187056D03*
%TD*%
D21*
%TO.P,R51,1*%
%TO.N,+12V*%
X71825969Y-99760251D03*
%TO.P,R51,2*%
%TO.N,GND*%
X73813393Y-99536323D03*
%TD*%
D22*
%TO.P,,1*%
%TO.N,GND*%
X92592597Y-122807411D03*
%TD*%
D23*
%TO.P,R80,1*%
%TO.N,+12V*%
X128798414Y-90080244D03*
%TO.P,R80,2*%
%TO.N,GND*%
X126848558Y-90525286D03*
%TD*%
D24*
%TO.P,R54,1*%
%TO.N,+12V*%
X74509961Y-109076596D03*
%TO.P,R54,2*%
%TO.N,GND*%
X76311899Y-108208828D03*
%TD*%
D25*
%TO.P,R78,1*%
%TO.N,+12V*%
X129524000Y-96520000D03*
%TO.P,R78,2*%
%TO.N,GND*%
X127524000Y-96520000D03*
%TD*%
D26*
%TO.P,R79,1*%
%TO.N,+12V*%
X129342031Y-93279749D03*
%TO.P,R79,2*%
%TO.N,GND*%
X127354607Y-93503677D03*
%TD*%
D27*
%TO.P,R98,1*%
%TO.N,+12V*%
X82540205Y-73893797D03*
%TO.P,R98,2*%
%TO.N,GND*%
X83787185Y-75457459D03*
%TD*%
D28*
%TO.P,R74,1*%
%TO.N,+12V*%
X126658039Y-109076596D03*
%TO.P,R74,2*%
%TO.N,GND*%
X124856101Y-108208828D03*
%TD*%
D29*
%TO.P,R77,1*%
%TO.N,+12V*%
X129342031Y-99760251D03*
%TO.P,R77,2*%
%TO.N,GND*%
X127354607Y-99536323D03*
%TD*%
D30*
%TO.P,R59,1*%
%TO.N,+12V*%
X85186992Y-121024198D03*
%TO.P,R59,2*%
%TO.N,GND*%
X86251056Y-119330750D03*
%TD*%
D31*
%TO.P,R73,1*%
%TO.N,+12V*%
X125088198Y-111917008D03*
%TO.P,R73,2*%
%TO.N,GND*%
X123394750Y-110852944D03*
%TD*%
D32*
%TO.P,R68,1*%
%TO.N,+12V*%
X113140596Y-122594039D03*
%TO.P,R68,2*%
%TO.N,GND*%
X112272828Y-120792101D03*
%TD*%
D33*
%TO.P,R75,1*%
%TO.N,+12V*%
X127899983Y-106078276D03*
%TO.P,R75,2*%
%TO.N,GND*%
X126012217Y-105417718D03*
%TD*%
D34*
%TO.P,R97,1*%
%TO.N,+12V*%
X85186992Y-72015802D03*
%TO.P,R97,2*%
%TO.N,GND*%
X86251056Y-73709250D03*
%TD*%
D35*
%TO.P,R70,1*%
%TO.N,+12V*%
X118627795Y-119146203D03*
%TO.P,R70,2*%
%TO.N,GND*%
X117380815Y-117582541D03*
%TD*%
D36*
%TO.P,R103,1*%
%TO.N,+12V*%
X73268017Y-86961724D03*
%TO.P,R103,2*%
%TO.N,GND*%
X75155783Y-87622282D03*
%TD*%
D37*
%TO.P,R87,1*%
%TO.N,+12V*%
X115981008Y-72015802D03*
%TO.P,R87,2*%
%TO.N,GND*%
X114916944Y-73709250D03*
%TD*%
D38*
%TO.P,R91,1*%
%TO.N,+12V*%
X103824251Y-67761969D03*
%TO.P,R91,2*%
%TO.N,GND*%
X103600323Y-69749393D03*
%TD*%
D39*
%TO.P,R86,1*%
%TO.N,+12V*%
X118627795Y-73893797D03*
%TO.P,R86,2*%
%TO.N,GND*%
X117380815Y-75457459D03*
%TD*%
D40*
%TO.P,R71,1*%
%TO.N,+12V*%
X121047670Y-116983670D03*
%TO.P,R71,2*%
%TO.N,GND*%
X119633456Y-115569456D03*
%TD*%
D41*
%TO.P,R95,1*%
%TO.N,+12V*%
X91025724Y-69204017D03*
%TO.P,R95,2*%
%TO.N,GND*%
X91686282Y-71091783D03*
%TD*%
D42*
%TO.P,R82,1*%
%TO.N,+12V*%
X126658039Y-83963404D03*
%TO.P,R82,2*%
%TO.N,GND*%
X124856101Y-84831172D03*
%TD*%
D43*
%TO.P,R81,1*%
%TO.N,+12V*%
X127899983Y-86961724D03*
%TO.P,R81,2*%
%TO.N,GND*%
X126012217Y-87622282D03*
%TD*%
D44*
%TO.P,R85,1*%
%TO.N,+12V*%
X121047670Y-76056330D03*
%TO.P,R85,2*%
%TO.N,GND*%
X119633456Y-77470544D03*
%TD*%
D45*
%TO.P,R96,1*%
%TO.N,+12V*%
X88027404Y-70445961D03*
%TO.P,R96,2*%
%TO.N,GND*%
X88895172Y-72247899D03*
%TD*%
D46*
%TO.P,R83,1*%
%TO.N,+12V*%
X125088198Y-81122992D03*
%TO.P,R83,2*%
%TO.N,GND*%
X123394750Y-82187056D03*
%TD*%
D47*
%TO.P,R89,1*%
%TO.N,+12V*%
X110142276Y-69204017D03*
%TO.P,R89,2*%
%TO.N,GND*%
X109481718Y-71091783D03*
%TD*%
D48*
%TO.P,R84,1*%
%TO.N,+12V*%
X123210203Y-78476205D03*
%TO.P,R84,2*%
%TO.N,GND*%
X121646541Y-79723185D03*
%TD*%
D49*
%TO.P,R58,1*%
%TO.N,+12V*%
X82540205Y-119146203D03*
%TO.P,R58,2*%
%TO.N,GND*%
X83787185Y-117582541D03*
%TD*%
D50*
%TO.P,R90,1*%
%TO.N,+12V*%
X107023756Y-68305586D03*
%TO.P,R90,2*%
%TO.N,GND*%
X106578714Y-70255442D03*
%TD*%
D51*
%TO.P,R53,1*%
%TO.N,+12V*%
X73268017Y-106078276D03*
%TO.P,R53,2*%
%TO.N,GND*%
X75155783Y-105417718D03*
%TD*%
D52*
%TO.P,REF\u002A\u002A,1*%
%TO.N,+12V*%
X107553168Y-123085059D03*
%TD*%
D53*
%TO.P,R60,1*%
%TO.N,+12V*%
X88027404Y-122594039D03*
%TO.P,R60,2*%
%TO.N,GND*%
X88895172Y-120792101D03*
%TD*%
D54*
%TO.P,R93,1*%
%TO.N,+12V*%
X97343749Y-67761969D03*
%TO.P,R93,2*%
%TO.N,GND*%
X97567677Y-69749393D03*
%TD*%
D55*
%TO.P,R56,1*%
%TO.N,+12V*%
X77957797Y-114563795D03*
%TO.P,R56,2*%
%TO.N,GND*%
X79521459Y-113316815D03*
%TD*%
D56*
%TO.P,R72,1*%
%TO.N,+12V*%
X123210203Y-114563795D03*
%TO.P,R72,2*%
%TO.N,GND*%
X121646541Y-113316815D03*
%TD*%
D57*
%TO.P,R102,1*%
%TO.N,+12V*%
X74509961Y-83963404D03*
%TO.P,R102,2*%
%TO.N,GND*%
X76311899Y-84831172D03*
%TD*%
D58*
%TO.P,R1,1*%
%TO.N,+12V*%
X71644000Y-96520000D03*
%TO.P,R1,2*%
%TO.N,GND*%
X73644000Y-96520000D03*
%TD*%
D59*
%TO.P,R88,1*%
%TO.N,+12V*%
X113140596Y-70445961D03*
%TO.P,R88,2*%
%TO.N,GND*%
X112272828Y-72247899D03*
%TD*%
D60*
%TO.P,R99,1*%
%TO.N,+12V*%
X80120330Y-76056330D03*
%TO.P,R99,2*%
%TO.N,GND*%
X81534544Y-77470544D03*
%TD*%
D61*
%TO.N,GND*%
X126120413Y-102307491D03*
X111980851Y-120093613D03*
X126607839Y-99411929D03*
X122775908Y-110416859D03*
X90420000Y-120890000D03*
X116878184Y-76023585D03*
X126598882Y-93548574D03*
X89259227Y-120128324D03*
X80137464Y-112876730D03*
X124192324Y-107844773D03*
X84227270Y-76073464D03*
X125311852Y-105130272D03*
X82040832Y-78033400D03*
X125285430Y-87834218D03*
X119070600Y-77976832D03*
X91898218Y-71818570D03*
X84289816Y-117016415D03*
X86619403Y-74370655D03*
X124157613Y-85123149D03*
X114548597Y-118669345D03*
X122733345Y-82555403D03*
X76975676Y-85195227D03*
X78392092Y-82623141D03*
X97612574Y-70505118D03*
X100544000Y-70336000D03*
X80087585Y-80225816D03*
X78434655Y-110484597D03*
X75065388Y-102385485D03*
X126102612Y-90654515D03*
X126768000Y-96480000D03*
X109194272Y-71792148D03*
X75856148Y-87909728D03*
X119127168Y-115006600D03*
X74569118Y-99491426D03*
X103475929Y-70496161D03*
X121080415Y-112814184D03*
X94718515Y-71001388D03*
X111908773Y-72911676D03*
X121030536Y-80163270D03*
X114480859Y-74328092D03*
X116940730Y-116966536D03*
X89210000Y-123780000D03*
X106371491Y-70983587D03*
X82097400Y-115063168D03*
X75047587Y-90732509D03*
X74560161Y-93628071D03*
X77010387Y-107916851D03*
X89187149Y-72946387D03*
X74400000Y-96560000D03*
X95990000Y-125720000D03*
X75882570Y-105205782D03*
X86687141Y-118711908D03*
%TD*%
D62*
%TO.N,+12V*%
X113140596Y-122594039D02*
X108044188Y-122594039D01*
D63*
X108044188Y-122594039D02*
X107553168Y-123085059D01*
%TO.N,GND*%
X91922762Y-71767604D02*
X91898218Y-71818570D01*
X89205833Y-120147008D02*
X89259227Y-120128325D01*
X76956992Y-107898167D02*
X77010386Y-107916850D01*
X126150510Y-102355389D02*
X126120414Y-102307491D01*
X83787185Y-117582540D02*
X84233604Y-117022749D01*
X84233603Y-76017251D02*
X84227269Y-76073464D01*
X126848558Y-90525286D02*
X126150510Y-90684611D01*
X116934397Y-117022749D02*
X116940731Y-116966536D01*
X75017490Y-102355389D02*
X75065388Y-102385485D01*
X89205833Y-72892992D02*
X89187150Y-72946386D01*
X126012217Y-87622282D02*
X125336397Y-87858762D01*
X126643109Y-93583844D02*
X126598882Y-93548574D01*
X119633457Y-115569457D02*
X119127169Y-115063169D01*
X121646540Y-113316815D02*
X121086749Y-112870396D01*
X124211008Y-107898167D02*
X124192325Y-107844773D01*
X73813393Y-93503677D02*
X74524891Y-93583844D01*
X97647844Y-70460891D02*
X97612574Y-70505118D01*
X114916944Y-73709250D02*
X114536009Y-74315505D01*
X86251056Y-119330750D02*
X86631991Y-118724495D01*
X94589286Y-70255442D02*
X94748611Y-70953490D01*
X123394750Y-82187056D02*
X122788495Y-82567991D01*
X78379505Y-110472009D02*
X78434655Y-110484597D01*
X126848558Y-102514714D02*
X126150510Y-102355389D01*
X126150510Y-90684611D02*
X126102612Y-90654515D01*
X109481718Y-71091783D02*
X109245238Y-71767603D01*
X103520156Y-70460891D02*
X103475929Y-70496161D01*
X75831604Y-87858762D02*
X75856148Y-87909728D01*
X117380815Y-75457460D02*
X116934396Y-76017251D01*
X84233603Y-117022749D02*
X84289816Y-117016415D01*
X83787185Y-75457460D02*
X84233604Y-76017251D01*
X86631991Y-118724495D02*
X86687141Y-118711907D01*
X75017490Y-90684611D02*
X75047586Y-90732509D01*
X106419389Y-70953490D02*
X106371491Y-70983586D01*
X92592597Y-122807411D02*
X90675186Y-120890000D01*
X109245238Y-71767604D02*
X109194272Y-71792148D01*
X76311899Y-84831172D02*
X76956993Y-85141833D01*
X82040832Y-77976832D02*
X82040832Y-78033401D01*
X106578714Y-70255442D02*
X106419389Y-70953490D01*
X74524891Y-99456156D02*
X74569118Y-99491426D01*
X121086749Y-112870397D02*
X121080415Y-112814184D01*
X126808000Y-96520000D02*
X126768000Y-96480000D01*
X92592597Y-122807411D02*
X91620008Y-123780000D01*
X74360000Y-96520000D02*
X74400000Y-96560000D01*
X124211008Y-85141833D02*
X124157614Y-85123150D01*
X88895172Y-72247899D02*
X89205833Y-72892993D01*
X125336396Y-105181238D02*
X125311852Y-105130272D01*
X123394750Y-110852944D02*
X122788495Y-110472009D01*
X77773250Y-110852944D02*
X78379505Y-110472009D01*
X126012217Y-105417718D02*
X125336397Y-105181238D01*
X86631991Y-74315505D02*
X86619403Y-74370655D01*
X100584000Y-69580000D02*
X100584000Y-70296000D01*
X125336396Y-87858762D02*
X125285430Y-87834218D01*
X114536009Y-118724495D02*
X114548597Y-118669345D01*
X121646540Y-79723185D02*
X121086749Y-80169604D01*
X112272828Y-72247899D02*
X111962167Y-72892993D01*
X76311899Y-108208828D02*
X76956993Y-107898167D01*
X88895172Y-120792101D02*
X89205833Y-120147007D01*
X80081251Y-80169603D02*
X80087585Y-80225816D01*
X81534543Y-115569457D02*
X82040831Y-115063169D01*
X114916944Y-119330750D02*
X114536009Y-118724495D01*
X103600323Y-69749393D02*
X103520156Y-70460891D01*
X79521460Y-79723185D02*
X80081251Y-80169604D01*
X127354607Y-93503677D02*
X126643109Y-93583844D01*
X111962167Y-120147008D02*
X111980850Y-120093614D01*
X100584000Y-70296000D02*
X100544000Y-70336000D01*
X119633457Y-77470543D02*
X119127169Y-77976831D01*
X112272828Y-120792101D02*
X111962167Y-120147007D01*
X75831604Y-105181238D02*
X75882570Y-105205782D01*
X77773250Y-82187056D02*
X78379505Y-82567991D01*
X74524891Y-93583844D02*
X74560161Y-93628071D01*
X91620008Y-123780000D02*
X89210000Y-123780000D01*
X78379505Y-82567991D02*
X78392093Y-82623141D01*
X127524000Y-96520000D02*
X126808000Y-96520000D01*
X80081251Y-112870397D02*
X80137464Y-112876731D01*
X126643109Y-99456156D02*
X126607839Y-99411929D01*
X76956992Y-85141833D02*
X76975675Y-85195227D01*
X73644000Y-96520000D02*
X74360000Y-96520000D01*
X90675186Y-120890000D02*
X90420000Y-120890000D01*
X122788495Y-110472009D02*
X122775907Y-110416859D01*
X81534543Y-77470543D02*
X82040831Y-77976831D01*
X124856101Y-84831172D02*
X124211007Y-85141833D01*
X119127168Y-77976832D02*
X119070599Y-77976832D01*
X119127168Y-115063168D02*
X119127168Y-115006599D01*
X82040832Y-115063168D02*
X82097401Y-115063168D01*
X121086749Y-80169603D02*
X121030536Y-80163269D01*
X117380815Y-117582540D02*
X116934396Y-117022749D01*
X111962167Y-72892992D02*
X111908773Y-72911675D01*
X122788495Y-82567991D02*
X122733345Y-82555403D01*
X73813393Y-99536323D02*
X74524891Y-99456156D01*
X74319442Y-90525286D02*
X75017490Y-90684611D01*
X86251056Y-73709250D02*
X86631991Y-74315505D01*
X95505186Y-125720000D02*
X95990000Y-125720000D01*
X91686282Y-71091783D02*
X91922762Y-71767603D01*
X94748611Y-70953490D02*
X94718515Y-71001388D01*
X79521460Y-113316815D02*
X80081251Y-112870396D01*
X75155783Y-87622282D02*
X75831603Y-87858762D01*
X124856101Y-108208828D02*
X124211007Y-107898167D01*
X127354607Y-99536323D02*
X126643109Y-99456156D01*
X92592597Y-122807411D02*
X95505186Y-125720000D01*
X75155783Y-105417718D02*
X75831603Y-105181238D01*
X74319442Y-102514714D02*
X75017490Y-102355389D01*
X114536009Y-74315505D02*
X114480859Y-74328093D01*
X116934397Y-76017251D02*
X116878184Y-76023585D01*
X97567677Y-69749393D02*
X97647844Y-70460891D01*
%TD*%
%TA.AperFunction,Conductor*%
%TO.N,+12V*%
G36*
X102299778Y-66576088D02*
G01*
X103119349Y-66638096D01*
X103184710Y-66662782D01*
X103226351Y-66718887D01*
X103231049Y-66788599D01*
X103197312Y-66849783D01*
X103173385Y-66868313D01*
X103070123Y-66929737D01*
X102965859Y-67039214D01*
X102965855Y-67039219D01*
X102894991Y-67172775D01*
X102874549Y-67259409D01*
X102874547Y-67259423D01*
X102858529Y-67401575D01*
X102858530Y-67401576D01*
X103941755Y-67523626D01*
X104845953Y-67625504D01*
X104845953Y-67625503D01*
X104861971Y-67483345D01*
X104861321Y-67394327D01*
X104861320Y-67394321D01*
X104821953Y-67248355D01*
X104821950Y-67248348D01*
X104744659Y-67118410D01*
X104658279Y-67036145D01*
X104623309Y-66975656D01*
X104626592Y-66905864D01*
X104667087Y-66848926D01*
X104731936Y-66822919D01*
X104762087Y-66823707D01*
X105543061Y-66940217D01*
X106449741Y-67109313D01*
X106512035Y-67140955D01*
X106547334Y-67201252D01*
X106544429Y-67271061D01*
X106504244Y-67328219D01*
X106478069Y-67344209D01*
X106367552Y-67394149D01*
X106251679Y-67491271D01*
X106166308Y-67616051D01*
X106136291Y-67699861D01*
X106104458Y-67839332D01*
X106104458Y-67839333D01*
X107215082Y-68092825D01*
X107215085Y-68092826D01*
X108054313Y-68284373D01*
X108054314Y-68284373D01*
X108086147Y-68144904D01*
X108095467Y-68056369D01*
X108072690Y-67906906D01*
X108010432Y-67769127D01*
X107935021Y-67679156D01*
X107907043Y-67615132D01*
X107918120Y-67546146D01*
X107964736Y-67494100D01*
X108032089Y-67475519D01*
X108061565Y-67479572D01*
X108645918Y-67633122D01*
X108727579Y-67654580D01*
X109707073Y-67950342D01*
X109765560Y-67988564D01*
X109794098Y-68052340D01*
X109783626Y-68121421D01*
X109737469Y-68173873D01*
X109709318Y-68187053D01*
X109592249Y-68224840D01*
X109592245Y-68224842D01*
X109466229Y-68308375D01*
X109466228Y-68308375D01*
X109367422Y-68422815D01*
X109328214Y-68502730D01*
X109328208Y-68502744D01*
X109280961Y-68637766D01*
X109988874Y-68885475D01*
X109988876Y-68885476D01*
X111168729Y-69298323D01*
X111215976Y-69163300D01*
X111235151Y-69076361D01*
X111229252Y-68925287D01*
X111229251Y-68925279D01*
X111182814Y-68781407D01*
X111182813Y-68781406D01*
X111118653Y-68684618D01*
X111098019Y-68617865D01*
X111116751Y-68550553D01*
X111168900Y-68504053D01*
X111237911Y-68493129D01*
X111266358Y-68500308D01*
X111746668Y-68684300D01*
X111815629Y-68710717D01*
X112817180Y-69136665D01*
X112852252Y-69153108D01*
X112904596Y-69199389D01*
X112923610Y-69266622D01*
X112903256Y-69333461D01*
X112849997Y-69378686D01*
X112824253Y-69386910D01*
X112703659Y-69411357D01*
X112569078Y-69480260D01*
X112569077Y-69480261D01*
X112458080Y-69582917D01*
X112458079Y-69582918D01*
X112410173Y-69657933D01*
X112410170Y-69657938D01*
X112348096Y-69786834D01*
X112348096Y-69786835D01*
X113036411Y-70118309D01*
X113036413Y-70118310D01*
X114150034Y-70654601D01*
X114212104Y-70525716D01*
X114212105Y-70525711D01*
X114240893Y-70441472D01*
X114240893Y-70441470D01*
X114251946Y-70290688D01*
X114251946Y-70290683D01*
X114221908Y-70142510D01*
X114169294Y-70039744D01*
X114156264Y-69971100D01*
X114182414Y-69906309D01*
X114239442Y-69865940D01*
X114309242Y-69862812D01*
X114336341Y-69872942D01*
X114770645Y-70096124D01*
X115719987Y-70628371D01*
X115835670Y-70698863D01*
X115882674Y-70750555D01*
X115894269Y-70819456D01*
X115866773Y-70883688D01*
X115808916Y-70922858D01*
X115782020Y-70928273D01*
X115662656Y-70938783D01*
X115662652Y-70938783D01*
X115521214Y-70992181D01*
X115521209Y-70992183D01*
X115399413Y-71081767D01*
X115343404Y-71150955D01*
X115267291Y-71272087D01*
X115936737Y-71692729D01*
X116960740Y-72336151D01*
X117036853Y-72215018D01*
X117074889Y-72134535D01*
X117074889Y-72134534D01*
X117102755Y-71985943D01*
X117102755Y-71985931D01*
X117089496Y-71835326D01*
X117048740Y-71727373D01*
X117043477Y-71657702D01*
X117076717Y-71596245D01*
X117137906Y-71562515D01*
X117207617Y-71567221D01*
X117233072Y-71580096D01*
X117557640Y-71794398D01*
X118443531Y-72426642D01*
X118627838Y-72568547D01*
X118668949Y-72625042D01*
X118672989Y-72694795D01*
X118638677Y-72755659D01*
X118576906Y-72788311D01*
X118549168Y-72790762D01*
X118432031Y-72787905D01*
X118285498Y-72825131D01*
X118154436Y-72900517D01*
X118091034Y-72962999D01*
X118001836Y-73074849D01*
X118604672Y-73555595D01*
X118604682Y-73555603D01*
X119565499Y-74321828D01*
X119654695Y-74209979D01*
X119654696Y-74209978D01*
X119701504Y-74134259D01*
X119745833Y-73989716D01*
X119745833Y-73989713D01*
X119749521Y-73838569D01*
X119749520Y-73838562D01*
X119720973Y-73726198D01*
X119723544Y-73656376D01*
X119763455Y-73599028D01*
X119828036Y-73572361D01*
X119896782Y-73584842D01*
X119920317Y-73600222D01*
X120143614Y-73785430D01*
X120955567Y-74510185D01*
X121193757Y-74738852D01*
X121228484Y-74799478D01*
X121224922Y-74869257D01*
X121184200Y-74926033D01*
X121119248Y-74951780D01*
X121090997Y-74951147D01*
X120976961Y-74935474D01*
X120976959Y-74935474D01*
X120827176Y-74956061D01*
X120688501Y-75016294D01*
X120618499Y-75071287D01*
X120618498Y-75071288D01*
X120517340Y-75172447D01*
X121931552Y-76586659D01*
X122032711Y-76485501D01*
X122032712Y-76485500D01*
X122087705Y-76415498D01*
X122147938Y-76276823D01*
X122168526Y-76127041D01*
X122168526Y-76127040D01*
X122152581Y-76011035D01*
X122162953Y-75941940D01*
X122209035Y-75889421D01*
X122276196Y-75870152D01*
X122343112Y-75890253D01*
X122364483Y-75907867D01*
X122497950Y-76045646D01*
X123226350Y-76854330D01*
X123501203Y-77182691D01*
X123529137Y-77246731D01*
X123518014Y-77315710D01*
X123471365Y-77367725D01*
X123403999Y-77386262D01*
X123375584Y-77382462D01*
X123265439Y-77354479D01*
X123265430Y-77354478D01*
X123114286Y-77358166D01*
X123114283Y-77358166D01*
X122969737Y-77402496D01*
X122894024Y-77449301D01*
X122782171Y-77538500D01*
X123512953Y-78454873D01*
X123512953Y-78454874D01*
X124029150Y-79102164D01*
X124029151Y-79102164D01*
X124140988Y-79012977D01*
X124140996Y-79012970D01*
X124203482Y-78949563D01*
X124278868Y-78818501D01*
X124316094Y-78671969D01*
X124313196Y-78553146D01*
X124331240Y-78485646D01*
X124382913Y-78438617D01*
X124451808Y-78426990D01*
X124516053Y-78454457D01*
X124535063Y-78474026D01*
X124592771Y-78548284D01*
X125124899Y-79286845D01*
X125228994Y-79431323D01*
X125521180Y-79869551D01*
X125541992Y-79936249D01*
X125523441Y-80003610D01*
X125471416Y-80050249D01*
X125402435Y-80061357D01*
X125374213Y-80054347D01*
X125268674Y-80014503D01*
X125268676Y-80014503D01*
X125118068Y-80001244D01*
X125118056Y-80001244D01*
X124969465Y-80029110D01*
X124969461Y-80029111D01*
X124888984Y-80067143D01*
X124767847Y-80143258D01*
X125421998Y-81184335D01*
X125831909Y-81836708D01*
X125831910Y-81836708D01*
X125953037Y-81760599D01*
X125953042Y-81760596D01*
X126022232Y-81704586D01*
X126111816Y-81582790D01*
X126111818Y-81582785D01*
X126165216Y-81441347D01*
X126165216Y-81441343D01*
X126175817Y-81320941D01*
X126201305Y-81255886D01*
X126257918Y-81214939D01*
X126327682Y-81211099D01*
X126388447Y-81245586D01*
X126407226Y-81270690D01*
X126910344Y-82158687D01*
X126939786Y-82210651D01*
X127228264Y-82765862D01*
X127241706Y-82834425D01*
X127215945Y-82899372D01*
X127159160Y-82940082D01*
X127089381Y-82943629D01*
X127061720Y-82933407D01*
X126961489Y-82882091D01*
X126813313Y-82852053D01*
X126662529Y-82863106D01*
X126662524Y-82863107D01*
X126578297Y-82891889D01*
X126578287Y-82891893D01*
X126449397Y-82953963D01*
X126957965Y-84010016D01*
X127317163Y-84755901D01*
X127317164Y-84755902D01*
X127446054Y-84693832D01*
X127521084Y-84645917D01*
X127623738Y-84534922D01*
X127623739Y-84534921D01*
X127692642Y-84400339D01*
X127716021Y-84285014D01*
X127748632Y-84223222D01*
X127809474Y-84188870D01*
X127879229Y-84192865D01*
X127935751Y-84233938D01*
X127951439Y-84260608D01*
X128164718Y-84755902D01*
X128338471Y-85159406D01*
X128598250Y-85828532D01*
X128600922Y-85835413D01*
X128606835Y-85905032D01*
X128574170Y-85966796D01*
X128513298Y-86001095D01*
X128443546Y-85997040D01*
X128416815Y-85983645D01*
X128322593Y-85921186D01*
X128322592Y-85921185D01*
X128178720Y-85874748D01*
X128178712Y-85874747D01*
X128027636Y-85868848D01*
X127940708Y-85888020D01*
X127805675Y-85935270D01*
X128197366Y-87054659D01*
X128197366Y-87054660D01*
X128466232Y-87823036D01*
X128601263Y-87775788D01*
X128681184Y-87736577D01*
X128795624Y-87637771D01*
X128795624Y-87637770D01*
X128879157Y-87511754D01*
X128879159Y-87511750D01*
X128914535Y-87402153D01*
X128953860Y-87344401D01*
X129018166Y-87317078D01*
X129087035Y-87328858D01*
X129138603Y-87376003D01*
X129151084Y-87403865D01*
X129408488Y-88242673D01*
X129621785Y-89039798D01*
X129620098Y-89109648D01*
X129580916Y-89167497D01*
X129516678Y-89194979D01*
X129447780Y-89183369D01*
X129422345Y-89166884D01*
X129334872Y-89093567D01*
X129197093Y-89031309D01*
X129047630Y-89008532D01*
X128959095Y-89017852D01*
X128819625Y-89049684D01*
X128819625Y-89049685D01*
X128986516Y-89780882D01*
X129264665Y-90999540D01*
X129264666Y-90999540D01*
X129404132Y-90967709D01*
X129404143Y-90967706D01*
X129487948Y-90937691D01*
X129612728Y-90852320D01*
X129709849Y-90736448D01*
X129756520Y-90633166D01*
X129802064Y-90580180D01*
X129869025Y-90560228D01*
X129936142Y-90579645D01*
X129982107Y-90632266D01*
X129991312Y-90660940D01*
X130120940Y-91339059D01*
X130137167Y-91423947D01*
X130277875Y-92338906D01*
X130268609Y-92408159D01*
X130223374Y-92461408D01*
X130156530Y-92481748D01*
X130089301Y-92462721D01*
X130065522Y-92443271D01*
X129985589Y-92359340D01*
X129855651Y-92282049D01*
X129855644Y-92282046D01*
X129709678Y-92242679D01*
X129709672Y-92242678D01*
X129620652Y-92242028D01*
X129478495Y-92258044D01*
X129478494Y-92258045D01*
X129562468Y-93003330D01*
X129702422Y-94245468D01*
X129702423Y-94245469D01*
X129844583Y-94229452D01*
X129931224Y-94209008D01*
X130064780Y-94138144D01*
X130064785Y-94138140D01*
X130174262Y-94033876D01*
X130231612Y-93937463D01*
X130282802Y-93889909D01*
X130351575Y-93877579D01*
X130416097Y-93904389D01*
X130455882Y-93961825D01*
X130461787Y-93990943D01*
X130515881Y-94665559D01*
X130560762Y-95691391D01*
X130544027Y-95759227D01*
X130493273Y-95807246D01*
X130424616Y-95820203D01*
X130359852Y-95793984D01*
X130338078Y-95771737D01*
X130266567Y-95677436D01*
X130146095Y-95586079D01*
X130005443Y-95530613D01*
X129917054Y-95520000D01*
X129774000Y-95520000D01*
X129774000Y-97520000D01*
X129917054Y-97520000D01*
X130005443Y-97509386D01*
X130146095Y-97453920D01*
X130266566Y-97362563D01*
X130334048Y-97273576D01*
X130390241Y-97232052D01*
X130459962Y-97227501D01*
X130521076Y-97261366D01*
X130554180Y-97322896D01*
X130556800Y-97352078D01*
X130540145Y-97929128D01*
X130469295Y-99015185D01*
X130464990Y-99057488D01*
X130438618Y-99122190D01*
X130381452Y-99162363D01*
X130311642Y-99165252D01*
X130251352Y-99129941D01*
X130235056Y-99108324D01*
X130174264Y-99006124D01*
X130064785Y-98901859D01*
X130064780Y-98901855D01*
X129931224Y-98830991D01*
X129844584Y-98810548D01*
X129702423Y-98794529D01*
X129702422Y-98794530D01*
X129562468Y-100036670D01*
X129478494Y-100781953D01*
X129620654Y-100797971D01*
X129709672Y-100797321D01*
X129709678Y-100797320D01*
X129855644Y-100757953D01*
X129855651Y-100757950D01*
X129985590Y-100680658D01*
X129985592Y-100680656D01*
X130062721Y-100599670D01*
X130123209Y-100564699D01*
X130193002Y-100567982D01*
X130249940Y-100608476D01*
X130275946Y-100673325D01*
X130275341Y-100702209D01*
X130209673Y-101176013D01*
X130021241Y-102247941D01*
X129992085Y-102384529D01*
X129958839Y-102445983D01*
X129897647Y-102479707D01*
X129827937Y-102474994D01*
X129771840Y-102433341D01*
X129757818Y-102409706D01*
X129709848Y-102303550D01*
X129612728Y-102187679D01*
X129487948Y-102102308D01*
X129404138Y-102072291D01*
X129264666Y-102040458D01*
X129264665Y-102040458D01*
X128986516Y-103259118D01*
X128819625Y-103990313D01*
X128819625Y-103990314D01*
X128959095Y-104022147D01*
X129047630Y-104031467D01*
X129197093Y-104008690D01*
X129334872Y-103946432D01*
X129421202Y-103874073D01*
X129485225Y-103846095D01*
X129554211Y-103857172D01*
X129606257Y-103903787D01*
X129624839Y-103971141D01*
X129621105Y-103999374D01*
X129528377Y-104367769D01*
X129224593Y-105412878D01*
X129150129Y-105638207D01*
X129110403Y-105695684D01*
X129045908Y-105722559D01*
X128977123Y-105710300D01*
X128925884Y-105662798D01*
X128914386Y-105637386D01*
X128879160Y-105528250D01*
X128879157Y-105528245D01*
X128795624Y-105402229D01*
X128795624Y-105402228D01*
X128681184Y-105303422D01*
X128601269Y-105264214D01*
X128601265Y-105264212D01*
X128466231Y-105216962D01*
X128206725Y-105958592D01*
X128206725Y-105958593D01*
X127805675Y-107104729D01*
X127940700Y-107151977D01*
X128027636Y-107171151D01*
X128178712Y-107165252D01*
X128178720Y-107165251D01*
X128322592Y-107118814D01*
X128322595Y-107118813D01*
X128417681Y-107055780D01*
X128484435Y-107035145D01*
X128551747Y-107053876D01*
X128598247Y-107106025D01*
X128609171Y-107175036D01*
X128602444Y-107202287D01*
X128504323Y-107466606D01*
X128184066Y-108241870D01*
X128088785Y-108472521D01*
X127949534Y-108777733D01*
X127903799Y-108830554D01*
X127836766Y-108850263D01*
X127769720Y-108830603D01*
X127723945Y-108777816D01*
X127715193Y-108750899D01*
X127692642Y-108639660D01*
X127623739Y-108505078D01*
X127623738Y-108505077D01*
X127521084Y-108394082D01*
X127446050Y-108346165D01*
X127317164Y-108284096D01*
X127317163Y-108284097D01*
X126974603Y-108995432D01*
X126974603Y-108995433D01*
X126449397Y-110086035D01*
X126449398Y-110086036D01*
X126578289Y-110148107D01*
X126662524Y-110176892D01*
X126662529Y-110176893D01*
X126813311Y-110187946D01*
X126813316Y-110187946D01*
X126961489Y-110157908D01*
X127064869Y-110104980D01*
X127133513Y-110091950D01*
X127198304Y-110118100D01*
X127238673Y-110175128D01*
X127241801Y-110244927D01*
X127232251Y-110270884D01*
X127149638Y-110435832D01*
X126627265Y-111390643D01*
X126405198Y-111763724D01*
X126353994Y-111811263D01*
X126285217Y-111823572D01*
X126220704Y-111796743D01*
X126180936Y-111739295D01*
X126175123Y-111711176D01*
X126165216Y-111598656D01*
X126165216Y-111598652D01*
X126111818Y-111457214D01*
X126111816Y-111457209D01*
X126022232Y-111335413D01*
X125953043Y-111279404D01*
X125831910Y-111203291D01*
X125409802Y-111875073D01*
X125409802Y-111875074D01*
X124767847Y-112896740D01*
X124888981Y-112972853D01*
X124969465Y-113010889D01*
X125118056Y-113038755D01*
X125118068Y-113038755D01*
X125268676Y-113025496D01*
X125268678Y-113025496D01*
X125379823Y-112983534D01*
X125449494Y-112978270D01*
X125510951Y-113011510D01*
X125544681Y-113072698D01*
X125539975Y-113142409D01*
X125527803Y-113166787D01*
X125487085Y-113229871D01*
X125480360Y-113240290D01*
X124857338Y-114132691D01*
X124705261Y-114334507D01*
X124536332Y-114558685D01*
X124480266Y-114600379D01*
X124410559Y-114605142D01*
X124349342Y-114571463D01*
X124316052Y-114510034D01*
X124313338Y-114481037D01*
X124316094Y-114368031D01*
X124278868Y-114221498D01*
X124203482Y-114090436D01*
X124141000Y-114027034D01*
X124029149Y-113937835D01*
X123532027Y-114561207D01*
X123532020Y-114561217D01*
X122782171Y-115501498D01*
X122894023Y-115590697D01*
X122969737Y-115637503D01*
X123114285Y-115681833D01*
X123265430Y-115685521D01*
X123265437Y-115685520D01*
X123383046Y-115655641D01*
X123452868Y-115658212D01*
X123510217Y-115698124D01*
X123536883Y-115762704D01*
X123524401Y-115831450D01*
X123506938Y-115857432D01*
X122799960Y-116666201D01*
X122366217Y-117127488D01*
X122305953Y-117162843D01*
X122236141Y-117160005D01*
X122178946Y-117119874D01*
X122152527Y-117055191D01*
X122153035Y-117025660D01*
X122168526Y-116912958D01*
X122147938Y-116763176D01*
X122087705Y-116624501D01*
X122032712Y-116554499D01*
X122032711Y-116554498D01*
X121931552Y-116453340D01*
X120517340Y-117867552D01*
X120618498Y-117968711D01*
X120618499Y-117968712D01*
X120688501Y-118023705D01*
X120827176Y-118083938D01*
X120976958Y-118104526D01*
X121094943Y-118088309D01*
X121164038Y-118098681D01*
X121216557Y-118144763D01*
X121235826Y-118211923D01*
X121215725Y-118278839D01*
X121195768Y-118302424D01*
X120479492Y-118961174D01*
X119921929Y-119437800D01*
X119858180Y-119466398D01*
X119789090Y-119455992D01*
X119736594Y-119409884D01*
X119717359Y-119342714D01*
X119721174Y-119313012D01*
X119749520Y-119201437D01*
X119749521Y-119201430D01*
X119745833Y-119050286D01*
X119745833Y-119050283D01*
X119701503Y-118905737D01*
X119654697Y-118830023D01*
X119565498Y-118718171D01*
X118625217Y-119468020D01*
X118625214Y-119468020D01*
X118001835Y-119965150D01*
X118001835Y-119965151D01*
X118091022Y-120076988D01*
X118091029Y-120076996D01*
X118154436Y-120139482D01*
X118285498Y-120214868D01*
X118432031Y-120252093D01*
X118549489Y-120249229D01*
X118616989Y-120267273D01*
X118664018Y-120318945D01*
X118675645Y-120387841D01*
X118648178Y-120452085D01*
X118626039Y-120473042D01*
X117923408Y-120990436D01*
X117233988Y-121460505D01*
X117167509Y-121482007D01*
X117099959Y-121464155D01*
X117052783Y-121412616D01*
X117040960Y-121343754D01*
X117048126Y-121314255D01*
X117089496Y-121204678D01*
X117089496Y-121204676D01*
X117102755Y-121054068D01*
X117102755Y-121054056D01*
X117074889Y-120905465D01*
X117074889Y-120905464D01*
X117036853Y-120824981D01*
X116960740Y-120703847D01*
X115902335Y-121368887D01*
X115267291Y-121767911D01*
X115343404Y-121889043D01*
X115399413Y-121958232D01*
X115521209Y-122047816D01*
X115521214Y-122047818D01*
X115662654Y-122101216D01*
X115778736Y-122111437D01*
X115843791Y-122136925D01*
X115884739Y-122193539D01*
X115888578Y-122263303D01*
X115854091Y-122324068D01*
X115830103Y-122342206D01*
X115161972Y-122729962D01*
X114336003Y-123170059D01*
X114267581Y-123184211D01*
X114202370Y-123159125D01*
X114161074Y-123102766D01*
X114156803Y-123033027D01*
X114167318Y-123004113D01*
X114221909Y-122897487D01*
X114251946Y-122749316D01*
X114251946Y-122749311D01*
X114240893Y-122598529D01*
X114240892Y-122598524D01*
X114212108Y-122514292D01*
X114150035Y-122385397D01*
X113059434Y-122910603D01*
X113059430Y-122910603D01*
X112348097Y-123253163D01*
X112348096Y-123253164D01*
X112410165Y-123382050D01*
X112458082Y-123457084D01*
X112569077Y-123559738D01*
X112569078Y-123559739D01*
X112703660Y-123628642D01*
X112817531Y-123651726D01*
X112879323Y-123684337D01*
X112913675Y-123745179D01*
X112909680Y-123814934D01*
X112868607Y-123871456D01*
X112843116Y-123886629D01*
X112317250Y-124119568D01*
X112227883Y-124159154D01*
X111217438Y-124563554D01*
X111133884Y-124593525D01*
X111070928Y-124616107D01*
X111001179Y-124620214D01*
X110940282Y-124585959D01*
X110907572Y-124524219D01*
X110913434Y-124454595D01*
X110955867Y-124399296D01*
X110993598Y-124371705D01*
X110993597Y-124371706D01*
X111028286Y-124342117D01*
X111028286Y-124342118D01*
X111193286Y-124178561D01*
X111193287Y-124178560D01*
X111223190Y-124144120D01*
X111361952Y-123957820D01*
X111361953Y-123957819D01*
X111386402Y-123919284D01*
X111495850Y-123714380D01*
X111514275Y-123672649D01*
X111591966Y-123453706D01*
X111603964Y-123409702D01*
X111648154Y-123181634D01*
X111653461Y-123136330D01*
X111663167Y-122904222D01*
X111661661Y-122858621D01*
X111636662Y-122627658D01*
X111628379Y-122582803D01*
X111590460Y-122438766D01*
X112029245Y-122438766D01*
X112040298Y-122589548D01*
X112040299Y-122589553D01*
X112069084Y-122673788D01*
X112131155Y-122802679D01*
X113257367Y-122260326D01*
X113933094Y-121934912D01*
X113871026Y-121806026D01*
X113823109Y-121730993D01*
X113712114Y-121628339D01*
X113712113Y-121628338D01*
X113577531Y-121559435D01*
X113429356Y-121529397D01*
X113278569Y-121540449D01*
X113194334Y-121569234D01*
X112305870Y-121997097D01*
X112230843Y-122045007D01*
X112128187Y-122156005D01*
X112128186Y-122156006D01*
X112059283Y-122290588D01*
X112029245Y-122438761D01*
X112029245Y-122438766D01*
X111590460Y-122438766D01*
X111569238Y-122358152D01*
X111569238Y-122358151D01*
X111554363Y-122315033D01*
X111462398Y-122101696D01*
X111462398Y-122101697D01*
X111441259Y-122061270D01*
X111441258Y-122061269D01*
X111318527Y-121864029D01*
X111291599Y-121827206D01*
X111291599Y-121827205D01*
X111140840Y-121650456D01*
X111108730Y-121618064D01*
X111108729Y-121618063D01*
X110933308Y-121465756D01*
X110896728Y-121438508D01*
X110700568Y-121314049D01*
X110660331Y-121292558D01*
X110447799Y-121198718D01*
X110447800Y-121198718D01*
X110404818Y-121183465D01*
X110404817Y-121183465D01*
X110180689Y-121122356D01*
X110135913Y-121113681D01*
X110135912Y-121113681D01*
X109905170Y-121086656D01*
X109859601Y-121084750D01*
X109627406Y-121092418D01*
X109582073Y-121097324D01*
X109433350Y-121124787D01*
X109363851Y-121117604D01*
X109309268Y-121073986D01*
X109286931Y-121007783D01*
X109303932Y-120940014D01*
X109354874Y-120892194D01*
X109368983Y-120886125D01*
X109794721Y-120733564D01*
X110734007Y-120354931D01*
X111315386Y-120093713D01*
X111384603Y-120084194D01*
X111447980Y-120113608D01*
X111485394Y-120172616D01*
X111488942Y-120189171D01*
X111489307Y-120191709D01*
X111479366Y-120260868D01*
X111449267Y-120299046D01*
X111450330Y-120300109D01*
X111348968Y-120401470D01*
X111348965Y-120401475D01*
X111285511Y-120521534D01*
X111285508Y-120521544D01*
X111260262Y-120654974D01*
X111260262Y-120654976D01*
X111275466Y-120789919D01*
X111275466Y-120789921D01*
X111282556Y-120809029D01*
X111286101Y-120818582D01*
X111636910Y-121547044D01*
X111652686Y-121573225D01*
X111748713Y-121669253D01*
X111868780Y-121732711D01*
X111921844Y-121742751D01*
X112002216Y-121757958D01*
X112002216Y-121757957D01*
X112002217Y-121757958D01*
X112137166Y-121742752D01*
X112165824Y-121732119D01*
X113074480Y-121294534D01*
X113100661Y-121278758D01*
X113196689Y-121182730D01*
X113260146Y-121062664D01*
X113273073Y-120994339D01*
X114859260Y-120994339D01*
X114887126Y-121142930D01*
X114887126Y-121142931D01*
X114925165Y-121223420D01*
X115001274Y-121344547D01*
X116059681Y-120679509D01*
X116694723Y-120280484D01*
X116618611Y-120159352D01*
X116562602Y-120090163D01*
X116440806Y-120000579D01*
X116440801Y-120000577D01*
X116299361Y-119947179D01*
X116148755Y-119933919D01*
X116148743Y-119933919D01*
X116000151Y-119961785D01*
X116000147Y-119961786D01*
X115919670Y-119999818D01*
X115084694Y-120524469D01*
X115084692Y-120524470D01*
X115015504Y-120580480D01*
X114925920Y-120702275D01*
X114925919Y-120702278D01*
X114872519Y-120843720D01*
X114859260Y-120994327D01*
X114859260Y-120994339D01*
X113273073Y-120994339D01*
X113285393Y-120929227D01*
X113282716Y-120905464D01*
X113270189Y-120794282D01*
X113270189Y-120794280D01*
X113268571Y-120789919D01*
X113259555Y-120765620D01*
X112908746Y-120037158D01*
X112892970Y-120010977D01*
X112796943Y-119914949D01*
X112676876Y-119851491D01*
X112676869Y-119851489D01*
X112543439Y-119826243D01*
X112543438Y-119826243D01*
X112488029Y-119832487D01*
X112419207Y-119820433D01*
X112380432Y-119790470D01*
X112358162Y-119764769D01*
X112329137Y-119701213D01*
X112339081Y-119632054D01*
X112384836Y-119579250D01*
X112396667Y-119572534D01*
X112564620Y-119489037D01*
X113453151Y-119003100D01*
X113882423Y-118746041D01*
X113950048Y-118728489D01*
X114016431Y-118750285D01*
X114060493Y-118804510D01*
X114065099Y-118817482D01*
X114065927Y-118820301D01*
X114062694Y-118821250D01*
X114070327Y-118874246D01*
X114044532Y-118933942D01*
X113955157Y-119046013D01*
X113955156Y-119046016D01*
X113905540Y-119172433D01*
X113895391Y-119307855D01*
X113925612Y-119440256D01*
X113939385Y-119467542D01*
X114099058Y-119721660D01*
X114322325Y-120076988D01*
X114369553Y-120152150D01*
X114369554Y-120152151D01*
X114385257Y-120172616D01*
X114388159Y-120176397D01*
X114494335Y-120261069D01*
X114494336Y-120261069D01*
X114494339Y-120261071D01*
X114553493Y-120284287D01*
X114620751Y-120310684D01*
X114620750Y-120310684D01*
X114756175Y-120320833D01*
X114756175Y-120320832D01*
X114756176Y-120320833D01*
X114888575Y-120290613D01*
X114915861Y-120276838D01*
X115769810Y-119740267D01*
X115794060Y-119721659D01*
X115878732Y-119615484D01*
X115928347Y-119489067D01*
X115938496Y-119353643D01*
X115908276Y-119221244D01*
X115894502Y-119193957D01*
X115829794Y-119090975D01*
X117506068Y-119090975D01*
X117509756Y-119242119D01*
X117509756Y-119242122D01*
X117554086Y-119386668D01*
X117600892Y-119462382D01*
X117600898Y-119462391D01*
X117690089Y-119574233D01*
X118667380Y-118794873D01*
X119253753Y-118327254D01*
X119253753Y-118327253D01*
X119164567Y-118215417D01*
X119164560Y-118215409D01*
X119101153Y-118152923D01*
X118970091Y-118077537D01*
X118823557Y-118040311D01*
X118672410Y-118043998D01*
X118672407Y-118043998D01*
X118527864Y-118088327D01*
X118452145Y-118135135D01*
X118452144Y-118135136D01*
X117681162Y-118749975D01*
X117618681Y-118813376D01*
X117543296Y-118944438D01*
X117506069Y-119090968D01*
X117506068Y-119090975D01*
X115829794Y-119090975D01*
X115464337Y-118509353D01*
X115445729Y-118485103D01*
X115339553Y-118400431D01*
X115339548Y-118400428D01*
X115213135Y-118350815D01*
X115213137Y-118350815D01*
X115077712Y-118340666D01*
X115023657Y-118353004D01*
X114953918Y-118348730D01*
X114902350Y-118313313D01*
X114879383Y-118286806D01*
X114850360Y-118223249D01*
X114860305Y-118154091D01*
X114905280Y-118101795D01*
X115169872Y-117928956D01*
X115995441Y-117342391D01*
X116290922Y-117114563D01*
X116356030Y-117089217D01*
X116424508Y-117103096D01*
X116474611Y-117151793D01*
X116479425Y-117161239D01*
X116480742Y-117164122D01*
X116490693Y-117233280D01*
X116468045Y-117285019D01*
X116469460Y-117285908D01*
X116393194Y-117407282D01*
X116358044Y-117538463D01*
X116363122Y-117674169D01*
X116407976Y-117802352D01*
X116407979Y-117802357D01*
X116424718Y-117827924D01*
X116477406Y-117893992D01*
X116928831Y-118460061D01*
X116950037Y-118482075D01*
X117065026Y-118554328D01*
X117196202Y-118589477D01*
X117331912Y-118584398D01*
X117460095Y-118539545D01*
X117485668Y-118522802D01*
X118274170Y-117893992D01*
X118296184Y-117872786D01*
X118368436Y-117757798D01*
X118403585Y-117626621D01*
X118398507Y-117490912D01*
X118353653Y-117362729D01*
X118340630Y-117342838D01*
X118336911Y-117337157D01*
X118197969Y-117162930D01*
X118111404Y-117054381D01*
X119926814Y-117054381D01*
X119947401Y-117204163D01*
X120007634Y-117342838D01*
X120062627Y-117412840D01*
X120062628Y-117412841D01*
X120163787Y-117513999D01*
X121578000Y-116099787D01*
X121476840Y-115998627D01*
X121406838Y-115943634D01*
X121268163Y-115883401D01*
X121118381Y-115862814D01*
X120968594Y-115883401D01*
X120829926Y-115943633D01*
X120829924Y-115943634D01*
X120759911Y-115998635D01*
X120062635Y-116695911D01*
X120007634Y-116765924D01*
X120007633Y-116765926D01*
X119947401Y-116904594D01*
X119926814Y-117054380D01*
X119926814Y-117054381D01*
X118111404Y-117054381D01*
X117832799Y-116705021D01*
X117811593Y-116683007D01*
X117696604Y-116610754D01*
X117696601Y-116610753D01*
X117565424Y-116575604D01*
X117429718Y-116580683D01*
X117380871Y-116597775D01*
X117311092Y-116601336D01*
X117272881Y-116585050D01*
X117250221Y-116570488D01*
X117240202Y-116564049D01*
X117194447Y-116511247D01*
X117184502Y-116442088D01*
X117213526Y-116378532D01*
X117227745Y-116364568D01*
X117574686Y-116074754D01*
X118325950Y-115395620D01*
X118458114Y-115266407D01*
X118496115Y-115229253D01*
X118557812Y-115196463D01*
X118627443Y-115202234D01*
X118682901Y-115244734D01*
X118695595Y-115266407D01*
X118696971Y-115269420D01*
X118706915Y-115338579D01*
X118693001Y-115375946D01*
X118694620Y-115376726D01*
X118632423Y-115505879D01*
X118612584Y-115637503D01*
X118612182Y-115640167D01*
X118632423Y-115774454D01*
X118659871Y-115831450D01*
X118691345Y-115896808D01*
X118691346Y-115896809D01*
X118710847Y-115920346D01*
X119282566Y-116492065D01*
X119306103Y-116511566D01*
X119428458Y-116570489D01*
X119562745Y-116590730D01*
X119697033Y-116570489D01*
X119819388Y-116511566D01*
X119842925Y-116492065D01*
X120556065Y-115778925D01*
X120575566Y-115755388D01*
X120634489Y-115633033D01*
X120654730Y-115498745D01*
X120634489Y-115364458D01*
X120575566Y-115242103D01*
X120556065Y-115218566D01*
X120097057Y-114759558D01*
X122104311Y-114759558D01*
X122141537Y-114906091D01*
X122216923Y-115037153D01*
X122279405Y-115100555D01*
X122391255Y-115189753D01*
X122858873Y-114603380D01*
X123638233Y-113626089D01*
X123526391Y-113536898D01*
X123526382Y-113536892D01*
X123450668Y-113490086D01*
X123306120Y-113445756D01*
X123154975Y-113442068D01*
X123154968Y-113442069D01*
X123008438Y-113479296D01*
X122877376Y-113554681D01*
X122813975Y-113617162D01*
X122199136Y-114388144D01*
X122199135Y-114388145D01*
X122152327Y-114463864D01*
X122107998Y-114608407D01*
X122107998Y-114608410D01*
X122104311Y-114759558D01*
X120097057Y-114759558D01*
X119984346Y-114646847D01*
X119960809Y-114627346D01*
X119960808Y-114627345D01*
X119886596Y-114591607D01*
X119838454Y-114568423D01*
X119704167Y-114548182D01*
X119569879Y-114568423D01*
X119569878Y-114568423D01*
X119518741Y-114593049D01*
X119449800Y-114604400D01*
X119397901Y-114585643D01*
X119367420Y-114566054D01*
X119321666Y-114513250D01*
X119311722Y-114444092D01*
X119340747Y-114380536D01*
X119344353Y-114376552D01*
X119746023Y-113951906D01*
X120412661Y-113189532D01*
X120479097Y-113107276D01*
X120536533Y-113067492D01*
X120606361Y-113065076D01*
X120666410Y-113100795D01*
X120669267Y-113103979D01*
X120670242Y-113105104D01*
X120699273Y-113168657D01*
X120690477Y-113229871D01*
X120692029Y-113230414D01*
X120689537Y-113237534D01*
X120689537Y-113237535D01*
X120687058Y-113244620D01*
X120644683Y-113365720D01*
X120639604Y-113501426D01*
X120674753Y-113632601D01*
X120674754Y-113632604D01*
X120747007Y-113747593D01*
X120769021Y-113768799D01*
X121172341Y-114090436D01*
X121401157Y-114272911D01*
X121426724Y-114289650D01*
X121426729Y-114289653D01*
X121554912Y-114334507D01*
X121690618Y-114339585D01*
X121690618Y-114339584D01*
X121690621Y-114339585D01*
X121821798Y-114304436D01*
X121936786Y-114232184D01*
X121957992Y-114210170D01*
X122586802Y-113421668D01*
X122603545Y-113396095D01*
X122648398Y-113267912D01*
X122653477Y-113132202D01*
X122618328Y-113001026D01*
X122546075Y-112886037D01*
X122524061Y-112864831D01*
X122064825Y-112498602D01*
X121891924Y-112360718D01*
X121866357Y-112343979D01*
X121866352Y-112343976D01*
X121738169Y-112299122D01*
X121602463Y-112294044D01*
X121471281Y-112329194D01*
X121426879Y-112357094D01*
X121359642Y-112376094D01*
X121298576Y-112357825D01*
X121298535Y-112357915D01*
X121297885Y-112357618D01*
X121293873Y-112356418D01*
X121290473Y-112354233D01*
X121282401Y-112350547D01*
X121283155Y-112348894D01*
X121233515Y-112316994D01*
X121204489Y-112253439D01*
X121214430Y-112184280D01*
X121227787Y-112161709D01*
X121285121Y-112084755D01*
X123997919Y-112084755D01*
X124011179Y-112235359D01*
X124011179Y-112235363D01*
X124064577Y-112376801D01*
X124064579Y-112376806D01*
X124154163Y-112498602D01*
X124223352Y-112554611D01*
X124344484Y-112630723D01*
X124804970Y-111897866D01*
X125408547Y-110937274D01*
X125287420Y-110861165D01*
X125206930Y-110823126D01*
X125058339Y-110795260D01*
X125058327Y-110795260D01*
X124907720Y-110808519D01*
X124766278Y-110861919D01*
X124766275Y-110861920D01*
X124644480Y-110951504D01*
X124588470Y-111020692D01*
X124588469Y-111020694D01*
X124063818Y-111855670D01*
X124025786Y-111936147D01*
X124025785Y-111936151D01*
X123997919Y-112084743D01*
X123997919Y-112084755D01*
X121285121Y-112084755D01*
X121654052Y-111589574D01*
X122215034Y-110771744D01*
X122269186Y-110727597D01*
X122338612Y-110719734D01*
X122401268Y-110750654D01*
X122437260Y-110810540D01*
X122435364Y-110873681D01*
X122436566Y-110873956D01*
X122435172Y-110880061D01*
X122435163Y-110880378D01*
X122434975Y-110880922D01*
X122404666Y-111013712D01*
X122414815Y-111149136D01*
X122464428Y-111275548D01*
X122464431Y-111275553D01*
X122549103Y-111381729D01*
X122573353Y-111400337D01*
X123257957Y-111830502D01*
X123285244Y-111844276D01*
X123417643Y-111874496D01*
X123553067Y-111864347D01*
X123679484Y-111814732D01*
X123785659Y-111730060D01*
X123804267Y-111705810D01*
X124340838Y-110851861D01*
X124354613Y-110824575D01*
X124384833Y-110692176D01*
X124374684Y-110556751D01*
X124325071Y-110430339D01*
X124325068Y-110430334D01*
X124240397Y-110324159D01*
X124240395Y-110324157D01*
X124216151Y-110305554D01*
X124216150Y-110305553D01*
X124174747Y-110279538D01*
X123769086Y-110024644D01*
X123531542Y-109875385D01*
X123504256Y-109861612D01*
X123371853Y-109831391D01*
X123236433Y-109841540D01*
X123110017Y-109891155D01*
X123066768Y-109925645D01*
X123002081Y-109952053D01*
X122954522Y-109947674D01*
X122920369Y-109937646D01*
X122861591Y-109899872D01*
X122832565Y-109836317D01*
X122842508Y-109767158D01*
X122847881Y-109756729D01*
X123073549Y-109365359D01*
X125593397Y-109365359D01*
X125623435Y-109513531D01*
X125692338Y-109648113D01*
X125692339Y-109648114D01*
X125794993Y-109759109D01*
X125870026Y-109807026D01*
X125998912Y-109869093D01*
X126354682Y-109130331D01*
X126866679Y-108067155D01*
X126866679Y-108067154D01*
X126737789Y-108005085D01*
X126737780Y-108005081D01*
X126653553Y-107976299D01*
X126653548Y-107976298D01*
X126502766Y-107965245D01*
X126502761Y-107965245D01*
X126354588Y-107995283D01*
X126220006Y-108064186D01*
X126220005Y-108064187D01*
X126109007Y-108166843D01*
X126061097Y-108241870D01*
X125633236Y-109130331D01*
X125604449Y-109214569D01*
X125593397Y-109365353D01*
X125593397Y-109365359D01*
X123073549Y-109365359D01*
X123272564Y-109020213D01*
X123670499Y-108263165D01*
X123719115Y-108212982D01*
X123787144Y-108197050D01*
X123852987Y-108220427D01*
X123861467Y-108227150D01*
X123864263Y-108229573D01*
X123902034Y-108288353D01*
X123906275Y-108337167D01*
X123890243Y-108479439D01*
X123915489Y-108612869D01*
X123915491Y-108612876D01*
X123978949Y-108732943D01*
X124074977Y-108828970D01*
X124101158Y-108844746D01*
X124829620Y-109195555D01*
X124858277Y-109206188D01*
X124858278Y-109206188D01*
X124858281Y-109206189D01*
X124993225Y-109221393D01*
X124993227Y-109221393D01*
X125126664Y-109196146D01*
X125246730Y-109132689D01*
X125342758Y-109036661D01*
X125358534Y-109010480D01*
X125796119Y-108101824D01*
X125806752Y-108073166D01*
X125821958Y-107938217D01*
X125796711Y-107804780D01*
X125733253Y-107684713D01*
X125637225Y-107588686D01*
X125611046Y-107572911D01*
X125390300Y-107466605D01*
X124882582Y-107222101D01*
X124853925Y-107211468D01*
X124853920Y-107211466D01*
X124718976Y-107196262D01*
X124718974Y-107196262D01*
X124585544Y-107221508D01*
X124585534Y-107221511D01*
X124465475Y-107284965D01*
X124465469Y-107284969D01*
X124425983Y-107324454D01*
X124364659Y-107357938D01*
X124303372Y-107355749D01*
X124271901Y-107346509D01*
X124213122Y-107308736D01*
X124184096Y-107245181D01*
X124192901Y-107178588D01*
X124579318Y-106279121D01*
X124840314Y-105599511D01*
X124882722Y-105543988D01*
X124948419Y-105520205D01*
X125016546Y-105535717D01*
X125023105Y-105539652D01*
X125026418Y-105541781D01*
X125072175Y-105594583D01*
X125080965Y-105651420D01*
X125082732Y-105651420D01*
X125082732Y-105658966D01*
X125082732Y-105794770D01*
X125122761Y-105924540D01*
X125199262Y-106036747D01*
X125305438Y-106121419D01*
X125333221Y-106134164D01*
X126096381Y-106401206D01*
X126096394Y-106401209D01*
X126096396Y-106401210D01*
X126125215Y-106408356D01*
X126126048Y-106408563D01*
X126126052Y-106408563D01*
X126261850Y-106408563D01*
X126261852Y-106408563D01*
X126391623Y-106368535D01*
X126443235Y-106333346D01*
X126868467Y-106333346D01*
X126874366Y-106484422D01*
X126874366Y-106484427D01*
X126920806Y-106628302D01*
X126920808Y-106628306D01*
X127004341Y-106754322D01*
X127004341Y-106754323D01*
X127118781Y-106853129D01*
X127198702Y-106892340D01*
X127333733Y-106939588D01*
X127581441Y-106231676D01*
X126967917Y-106016996D01*
X126887640Y-106246416D01*
X126868467Y-106333343D01*
X126868467Y-106333346D01*
X126443235Y-106333346D01*
X126503830Y-106292033D01*
X126588502Y-106185857D01*
X126601247Y-106158075D01*
X126815753Y-105545053D01*
X127133056Y-105545053D01*
X127746581Y-105759734D01*
X127994289Y-105051821D01*
X127859257Y-105004572D01*
X127772329Y-104985400D01*
X127621253Y-104991299D01*
X127621245Y-104991300D01*
X127477373Y-105037737D01*
X127477372Y-105037738D01*
X127351347Y-105121279D01*
X127252544Y-105235714D01*
X127213337Y-105315629D01*
X127213331Y-105315643D01*
X127133056Y-105545053D01*
X126815753Y-105545053D01*
X126934344Y-105206138D01*
X126941702Y-105176470D01*
X126941702Y-105040666D01*
X126901673Y-104910896D01*
X126825172Y-104798689D01*
X126745960Y-104735520D01*
X126718995Y-104714016D01*
X126691220Y-104701275D01*
X126691218Y-104701274D01*
X126691213Y-104701272D01*
X125928053Y-104434230D01*
X125928044Y-104434227D01*
X125928039Y-104434226D01*
X125928037Y-104434225D01*
X125898389Y-104426873D01*
X125898386Y-104426873D01*
X125762582Y-104426873D01*
X125762580Y-104426873D01*
X125632813Y-104466900D01*
X125632811Y-104466900D01*
X125632811Y-104466901D01*
X125602893Y-104487298D01*
X125520604Y-104543402D01*
X125488959Y-104583085D01*
X125431771Y-104623225D01*
X125392012Y-104629772D01*
X125354710Y-104629772D01*
X125287671Y-104610087D01*
X125241916Y-104557283D01*
X125231972Y-104488125D01*
X125237304Y-104465875D01*
X125268241Y-104374836D01*
X125556365Y-103403957D01*
X125582160Y-103302679D01*
X125703008Y-102828201D01*
X125738629Y-102768097D01*
X125801093Y-102736790D01*
X125870566Y-102744224D01*
X125890220Y-102754500D01*
X125893485Y-102756599D01*
X125894947Y-102757539D01*
X125940694Y-102810349D01*
X125949383Y-102851208D01*
X125951084Y-102851017D01*
X125961840Y-102946484D01*
X125967134Y-102993464D01*
X126021441Y-103117937D01*
X126110024Y-103220873D01*
X126225013Y-103293125D01*
X126254048Y-103302679D01*
X127042308Y-103482594D01*
X127042309Y-103482594D01*
X127042313Y-103482595D01*
X127061074Y-103485064D01*
X127072613Y-103486584D01*
X127207563Y-103471379D01*
X127332036Y-103417072D01*
X127434706Y-103328717D01*
X127801943Y-103328717D01*
X127824720Y-103478182D01*
X127886979Y-103615961D01*
X127984099Y-103731832D01*
X128108879Y-103817203D01*
X128192684Y-103847218D01*
X128192695Y-103847221D01*
X128332160Y-103879052D01*
X128332161Y-103879052D01*
X128499050Y-103147857D01*
X128499050Y-103147856D01*
X127865348Y-103003219D01*
X127865347Y-103003219D01*
X127811263Y-103240182D01*
X127801943Y-103328717D01*
X127434706Y-103328717D01*
X127434972Y-103328488D01*
X127507224Y-103213500D01*
X127516778Y-103184465D01*
X127669407Y-102515755D01*
X127976609Y-102515755D01*
X128610311Y-102660392D01*
X128610312Y-102660392D01*
X128777201Y-101929197D01*
X128777201Y-101929196D01*
X128637732Y-101897364D01*
X128549197Y-101888044D01*
X128399734Y-101910821D01*
X128261955Y-101973079D01*
X128146082Y-102070200D01*
X128146082Y-102070201D01*
X128060711Y-102194980D01*
X128060710Y-102194981D01*
X128030695Y-102278790D01*
X128030694Y-102278790D01*
X127976609Y-102515754D01*
X127976609Y-102515755D01*
X127669407Y-102515755D01*
X127741198Y-102201219D01*
X127745187Y-102170914D01*
X127729982Y-102035964D01*
X127675675Y-101911491D01*
X127587092Y-101808555D01*
X127472103Y-101736303D01*
X127443068Y-101726749D01*
X127329987Y-101700939D01*
X126654802Y-101546832D01*
X126624508Y-101542844D01*
X126624497Y-101542844D01*
X126489557Y-101558048D01*
X126489551Y-101558049D01*
X126365083Y-101612354D01*
X126365078Y-101612357D01*
X126262144Y-101700939D01*
X126231968Y-101748964D01*
X126179633Y-101795255D01*
X126126975Y-101806991D01*
X126090986Y-101806991D01*
X126023947Y-101787306D01*
X125978192Y-101734502D01*
X125968248Y-101665344D01*
X125969718Y-101657105D01*
X126017738Y-101432143D01*
X126190282Y-100434220D01*
X126206578Y-100311597D01*
X126250942Y-99977755D01*
X126279286Y-99913894D01*
X126337657Y-99875494D01*
X126407523Y-99874747D01*
X126408731Y-99875095D01*
X126412674Y-99876253D01*
X126414181Y-99876696D01*
X126472956Y-99914475D01*
X126498920Y-99971340D01*
X126500430Y-99970996D01*
X126515419Y-100036670D01*
X126532328Y-100110751D01*
X126541733Y-100127041D01*
X126600228Y-100228359D01*
X126600229Y-100228359D01*
X126600230Y-100228361D01*
X126699782Y-100320731D01*
X126822137Y-100379654D01*
X126852059Y-100385897D01*
X127655507Y-100476424D01*
X127686068Y-100476996D01*
X127818467Y-100446777D01*
X127936077Y-100378875D01*
X128028447Y-100279323D01*
X128087370Y-100156968D01*
X128088941Y-100149441D01*
X128392485Y-100149441D01*
X128393135Y-100238461D01*
X128432503Y-100384432D01*
X128432506Y-100384439D01*
X128509797Y-100514377D01*
X128619276Y-100618642D01*
X128619281Y-100618646D01*
X128752837Y-100689510D01*
X128839478Y-100709954D01*
X128981637Y-100725971D01*
X128981638Y-100725970D01*
X129065611Y-99980688D01*
X129065610Y-99980687D01*
X128419698Y-99907910D01*
X128419697Y-99907911D01*
X128392485Y-100149441D01*
X128088941Y-100149441D01*
X128093614Y-100127046D01*
X128095451Y-100110750D01*
X128174287Y-99411055D01*
X128475680Y-99411055D01*
X129121592Y-99483831D01*
X129121593Y-99483830D01*
X129205566Y-98738547D01*
X129205565Y-98738546D01*
X129063409Y-98722530D01*
X128974389Y-98723180D01*
X128974383Y-98723181D01*
X128828417Y-98762548D01*
X128828410Y-98762551D01*
X128698472Y-98839842D01*
X128594204Y-98949325D01*
X128594203Y-98949327D01*
X128523338Y-99082882D01*
X128502896Y-99169516D01*
X128502894Y-99169530D01*
X128475680Y-99411055D01*
X128174287Y-99411055D01*
X128206533Y-99124865D01*
X128206534Y-99124847D01*
X128207105Y-99094296D01*
X128207105Y-99094294D01*
X128176886Y-98961895D01*
X128108984Y-98844285D01*
X128009432Y-98751915D01*
X128009431Y-98751914D01*
X127945999Y-98721367D01*
X127887077Y-98692992D01*
X127887075Y-98692991D01*
X127887074Y-98692991D01*
X127857157Y-98686749D01*
X127857143Y-98686747D01*
X127053721Y-98596223D01*
X127053695Y-98596221D01*
X127023146Y-98595650D01*
X127023145Y-98595650D01*
X126890749Y-98625868D01*
X126890747Y-98625869D01*
X126773138Y-98693769D01*
X126773137Y-98693771D01*
X126680766Y-98793323D01*
X126672471Y-98810549D01*
X126658487Y-98839589D01*
X126657696Y-98841231D01*
X126610874Y-98893090D01*
X126545976Y-98911429D01*
X126535877Y-98911429D01*
X126527099Y-98912691D01*
X126526623Y-98909386D01*
X126472931Y-98909357D01*
X126414174Y-98871551D01*
X126385184Y-98807979D01*
X126384467Y-98778880D01*
X126385991Y-98762551D01*
X126417766Y-98421965D01*
X126472359Y-97410708D01*
X126477266Y-97080062D01*
X126497943Y-97013323D01*
X126551420Y-96968357D01*
X126620718Y-96959441D01*
X126636193Y-96962928D01*
X126639006Y-96963753D01*
X126640600Y-96964222D01*
X126699375Y-97002002D01*
X126722458Y-97048067D01*
X126723861Y-97047577D01*
X126771206Y-97182879D01*
X126771207Y-97182882D01*
X126851850Y-97292150D01*
X126961118Y-97372793D01*
X127003845Y-97387744D01*
X127089299Y-97417646D01*
X127119730Y-97420500D01*
X127119734Y-97420500D01*
X127928270Y-97420500D01*
X127958699Y-97417646D01*
X127958701Y-97417646D01*
X128022790Y-97395219D01*
X128086882Y-97372793D01*
X128196150Y-97292150D01*
X128276793Y-97182882D01*
X128311694Y-97083140D01*
X128321646Y-97054701D01*
X128321646Y-97054699D01*
X128324500Y-97024269D01*
X128324500Y-96770000D01*
X128624000Y-96770000D01*
X128624000Y-97013053D01*
X128634613Y-97101443D01*
X128690079Y-97242095D01*
X128781435Y-97362564D01*
X128901904Y-97453920D01*
X129042556Y-97509386D01*
X129130946Y-97520000D01*
X129274000Y-97520000D01*
X129274000Y-96770000D01*
X128624000Y-96770000D01*
X128324500Y-96770000D01*
X128324500Y-96270000D01*
X128624000Y-96270000D01*
X129274000Y-96270000D01*
X129274000Y-95520000D01*
X129130946Y-95520000D01*
X129042556Y-95530613D01*
X128901904Y-95586079D01*
X128781435Y-95677435D01*
X128690079Y-95797904D01*
X128634613Y-95938556D01*
X128624000Y-96026946D01*
X128624000Y-96270000D01*
X128324500Y-96270000D01*
X128324500Y-96015730D01*
X128321646Y-95985300D01*
X128321646Y-95985298D01*
X128285435Y-95881815D01*
X128276793Y-95857118D01*
X128196150Y-95747850D01*
X128086882Y-95667207D01*
X128086880Y-95667206D01*
X127958700Y-95622353D01*
X127928270Y-95619500D01*
X127928266Y-95619500D01*
X127119734Y-95619500D01*
X127119730Y-95619500D01*
X127089300Y-95622353D01*
X127089298Y-95622353D01*
X126961119Y-95667206D01*
X126961117Y-95667207D01*
X126851850Y-95747850D01*
X126771206Y-95857118D01*
X126771204Y-95857123D01*
X126753112Y-95908827D01*
X126712390Y-95965603D01*
X126671007Y-95986849D01*
X126633764Y-95997785D01*
X126563895Y-95997786D01*
X126505116Y-95960012D01*
X126476090Y-95896456D01*
X126474864Y-95881815D01*
X126474265Y-95857123D01*
X126462830Y-95385658D01*
X126398722Y-94374960D01*
X126379040Y-94183500D01*
X126391766Y-94114802D01*
X126439614Y-94063887D01*
X126507393Y-94046923D01*
X126520025Y-94048082D01*
X126524556Y-94048733D01*
X126588114Y-94077752D01*
X126618641Y-94117671D01*
X126680766Y-94246676D01*
X126680767Y-94246677D01*
X126773137Y-94346229D01*
X126773138Y-94346230D01*
X126785299Y-94353251D01*
X126890747Y-94414131D01*
X127023146Y-94444350D01*
X127053707Y-94443778D01*
X127857155Y-94353251D01*
X127887077Y-94347008D01*
X128009432Y-94288085D01*
X128108984Y-94195715D01*
X128176886Y-94078105D01*
X128207105Y-93945706D01*
X128206534Y-93915145D01*
X128205322Y-93904389D01*
X128174287Y-93628944D01*
X128475679Y-93628944D01*
X128502894Y-93870469D01*
X128502896Y-93870483D01*
X128523338Y-93957117D01*
X128594203Y-94090672D01*
X128594204Y-94090674D01*
X128698472Y-94200157D01*
X128828410Y-94277448D01*
X128828417Y-94277451D01*
X128974383Y-94316818D01*
X128974389Y-94316819D01*
X129063407Y-94317469D01*
X129205565Y-94301451D01*
X129205566Y-94301451D01*
X129121593Y-93556168D01*
X129121592Y-93556167D01*
X128475680Y-93628943D01*
X128475679Y-93628944D01*
X128174287Y-93628944D01*
X128093615Y-92912958D01*
X128093614Y-92912955D01*
X128093614Y-92912954D01*
X128088941Y-92890559D01*
X128392485Y-92890559D01*
X128419697Y-93132087D01*
X128419698Y-93132088D01*
X129065610Y-93059311D01*
X129065611Y-93059310D01*
X128981638Y-92314028D01*
X128981637Y-92314027D01*
X128839485Y-92330045D01*
X128839471Y-92330047D01*
X128752837Y-92350489D01*
X128619281Y-92421353D01*
X128619276Y-92421357D01*
X128509797Y-92525622D01*
X128432506Y-92655560D01*
X128432503Y-92655567D01*
X128393135Y-92801538D01*
X128392485Y-92890559D01*
X128088941Y-92890559D01*
X128087370Y-92883032D01*
X128028447Y-92760677D01*
X127936077Y-92661125D01*
X127936075Y-92661124D01*
X127936075Y-92661123D01*
X127866194Y-92620778D01*
X127818467Y-92593223D01*
X127818465Y-92593222D01*
X127818464Y-92593222D01*
X127688578Y-92563577D01*
X127686068Y-92563004D01*
X127686067Y-92563004D01*
X127655518Y-92563575D01*
X127655492Y-92563577D01*
X126852070Y-92654101D01*
X126852056Y-92654103D01*
X126822139Y-92660345D01*
X126822137Y-92660346D01*
X126699782Y-92719268D01*
X126600230Y-92811639D01*
X126600228Y-92811640D01*
X126532328Y-92929249D01*
X126532328Y-92929250D01*
X126519828Y-92984013D01*
X126485718Y-93044991D01*
X126433872Y-93075395D01*
X126398262Y-93085851D01*
X126328392Y-93085851D01*
X126269614Y-93048077D01*
X126240589Y-92984521D01*
X126240567Y-92984365D01*
X126230392Y-92912955D01*
X126152310Y-92364935D01*
X125970382Y-91368680D01*
X125956393Y-91306039D01*
X125960993Y-91236323D01*
X126002555Y-91180159D01*
X126067884Y-91155382D01*
X126077412Y-91155015D01*
X126078702Y-91155015D01*
X126145741Y-91174700D01*
X126184286Y-91218683D01*
X126185878Y-91217683D01*
X126189891Y-91224070D01*
X126189892Y-91224072D01*
X126262144Y-91339060D01*
X126365080Y-91427644D01*
X126489553Y-91481951D01*
X126624503Y-91497156D01*
X126643269Y-91494685D01*
X126654802Y-91493167D01*
X126654804Y-91493166D01*
X126654808Y-91493166D01*
X127443068Y-91313251D01*
X127472103Y-91303697D01*
X127587092Y-91231445D01*
X127675675Y-91128509D01*
X127729982Y-91004036D01*
X127745187Y-90869086D01*
X127741198Y-90838781D01*
X127669407Y-90524244D01*
X127976609Y-90524244D01*
X128030695Y-90761209D01*
X128060710Y-90845018D01*
X128060711Y-90845019D01*
X128146082Y-90969798D01*
X128146082Y-90969799D01*
X128261955Y-91066920D01*
X128399734Y-91129178D01*
X128549197Y-91151955D01*
X128637732Y-91142635D01*
X128777201Y-91110802D01*
X128777201Y-91110801D01*
X128610312Y-90379606D01*
X128610311Y-90379606D01*
X127976609Y-90524243D01*
X127976609Y-90524244D01*
X127669407Y-90524244D01*
X127516778Y-89855535D01*
X127507224Y-89826500D01*
X127434972Y-89711512D01*
X127434705Y-89711282D01*
X127801943Y-89711282D01*
X127811263Y-89799817D01*
X127865347Y-90036779D01*
X127865348Y-90036779D01*
X128499050Y-89892142D01*
X128499050Y-89892141D01*
X128332161Y-89160946D01*
X128332160Y-89160946D01*
X128192689Y-89192779D01*
X128108879Y-89222796D01*
X127984099Y-89308167D01*
X127886979Y-89424038D01*
X127824720Y-89561817D01*
X127801943Y-89711282D01*
X127434705Y-89711282D01*
X127332036Y-89622928D01*
X127332033Y-89622926D01*
X127332032Y-89622926D01*
X127207564Y-89568621D01*
X127207558Y-89568620D01*
X127072618Y-89553416D01*
X127072607Y-89553416D01*
X127042313Y-89557404D01*
X126254056Y-89737319D01*
X126254054Y-89737319D01*
X126254048Y-89737321D01*
X126234952Y-89743604D01*
X126225012Y-89746875D01*
X126110023Y-89819127D01*
X126021442Y-89922061D01*
X126021440Y-89922064D01*
X125967133Y-90046537D01*
X125961454Y-90096937D01*
X125934386Y-90161351D01*
X125899220Y-90188527D01*
X125900018Y-90189769D01*
X125892560Y-90194561D01*
X125892559Y-90194562D01*
X125875646Y-90205430D01*
X125871722Y-90207953D01*
X125804682Y-90227636D01*
X125737643Y-90207950D01*
X125691889Y-90155145D01*
X125684814Y-90135371D01*
X125490472Y-89401295D01*
X125212242Y-88495114D01*
X125211382Y-88425249D01*
X125248431Y-88366011D01*
X125311625Y-88336206D01*
X125330780Y-88334718D01*
X125332363Y-88334718D01*
X125399402Y-88354403D01*
X125429941Y-88385548D01*
X125431228Y-88384522D01*
X125435931Y-88390420D01*
X125435932Y-88390421D01*
X125520604Y-88496597D01*
X125632811Y-88573099D01*
X125762582Y-88613127D01*
X125762584Y-88613127D01*
X125898382Y-88613127D01*
X125898386Y-88613127D01*
X125928053Y-88605770D01*
X126691213Y-88338728D01*
X126718996Y-88325983D01*
X126825172Y-88241311D01*
X126901673Y-88129104D01*
X126941702Y-87999334D01*
X126941702Y-87863530D01*
X126934344Y-87833862D01*
X126815752Y-87494944D01*
X127133057Y-87494944D01*
X127213334Y-87724364D01*
X127252544Y-87804285D01*
X127351347Y-87918720D01*
X127477372Y-88002261D01*
X127477373Y-88002262D01*
X127621245Y-88048699D01*
X127621253Y-88048700D01*
X127772327Y-88054599D01*
X127859266Y-88035424D01*
X127994289Y-87988177D01*
X127746581Y-87280264D01*
X127133057Y-87494944D01*
X126815752Y-87494944D01*
X126601247Y-86881925D01*
X126588502Y-86854143D01*
X126503830Y-86747967D01*
X126443238Y-86706656D01*
X126868467Y-86706656D01*
X126887640Y-86793583D01*
X126967917Y-87023002D01*
X127581441Y-86808322D01*
X127333732Y-86100409D01*
X127198710Y-86147656D01*
X127198696Y-86147662D01*
X127118781Y-86186870D01*
X127004341Y-86285676D01*
X127004341Y-86285677D01*
X126920808Y-86411693D01*
X126920806Y-86411697D01*
X126874366Y-86555572D01*
X126874366Y-86555577D01*
X126868467Y-86706653D01*
X126868467Y-86706656D01*
X126443238Y-86706656D01*
X126391623Y-86671465D01*
X126391620Y-86671464D01*
X126261853Y-86631437D01*
X126261852Y-86631437D01*
X126126048Y-86631437D01*
X126126044Y-86631437D01*
X126096396Y-86638789D01*
X126096394Y-86638790D01*
X126096386Y-86638792D01*
X126096381Y-86638794D01*
X125333221Y-86905836D01*
X125333219Y-86905836D01*
X125333213Y-86905839D01*
X125305438Y-86918580D01*
X125199263Y-87003252D01*
X125199262Y-87003253D01*
X125164214Y-87054659D01*
X125122760Y-87115461D01*
X125082732Y-87245230D01*
X125082732Y-87301829D01*
X125063047Y-87368868D01*
X125025769Y-87406146D01*
X124996752Y-87424793D01*
X124929712Y-87444476D01*
X124862673Y-87424790D01*
X124816919Y-87371984D01*
X124814381Y-87366019D01*
X124812519Y-87361304D01*
X124486409Y-86535454D01*
X124215640Y-85921186D01*
X124158068Y-85790578D01*
X124149040Y-85721295D01*
X124178903Y-85658128D01*
X124236605Y-85621584D01*
X124240084Y-85620563D01*
X124309954Y-85620567D01*
X124363071Y-85654707D01*
X124364109Y-85653670D01*
X124369444Y-85659005D01*
X124465472Y-85755033D01*
X124585538Y-85818490D01*
X124718975Y-85843737D01*
X124853919Y-85828533D01*
X124853921Y-85828533D01*
X124853923Y-85828532D01*
X124853925Y-85828532D01*
X124882582Y-85817899D01*
X125611044Y-85467090D01*
X125637225Y-85451314D01*
X125733253Y-85355287D01*
X125796711Y-85235220D01*
X125821958Y-85101783D01*
X125806752Y-84966834D01*
X125796119Y-84938176D01*
X125728676Y-84798129D01*
X125358535Y-84029521D01*
X125342758Y-84003339D01*
X125246731Y-83907312D01*
X125246730Y-83907311D01*
X125224273Y-83895442D01*
X125126667Y-83843855D01*
X125126657Y-83843852D01*
X124993226Y-83818606D01*
X124858282Y-83833810D01*
X124858280Y-83833810D01*
X124829617Y-83844446D01*
X124101155Y-84195255D01*
X124074976Y-84211030D01*
X123978949Y-84307056D01*
X123915491Y-84427123D01*
X123915489Y-84427130D01*
X123890243Y-84560560D01*
X123890243Y-84560561D01*
X123896272Y-84614062D01*
X123884218Y-84682883D01*
X123840092Y-84732261D01*
X123819025Y-84745800D01*
X123818175Y-84744478D01*
X123763713Y-84769349D01*
X123694554Y-84759402D01*
X123641752Y-84713646D01*
X123634652Y-84701034D01*
X123633532Y-84698740D01*
X123153914Y-83806782D01*
X123145706Y-83792852D01*
X123076057Y-83674646D01*
X125593397Y-83674646D01*
X125604449Y-83825430D01*
X125633234Y-83909665D01*
X126061097Y-84798129D01*
X126109007Y-84873156D01*
X126220005Y-84975812D01*
X126220006Y-84975813D01*
X126354588Y-85044716D01*
X126502764Y-85074754D01*
X126653548Y-85063701D01*
X126653553Y-85063700D01*
X126737785Y-85034916D01*
X126866678Y-84972844D01*
X126330388Y-83859223D01*
X126330386Y-83859217D01*
X125998913Y-83170904D01*
X125998912Y-83170904D01*
X125870016Y-83232978D01*
X125870011Y-83232981D01*
X125794996Y-83280887D01*
X125794995Y-83280888D01*
X125692339Y-83391885D01*
X125692338Y-83391886D01*
X125623435Y-83526468D01*
X125593397Y-83674640D01*
X125593397Y-83674646D01*
X123076057Y-83674646D01*
X122806100Y-83216483D01*
X122789027Y-83148732D01*
X122811294Y-83082505D01*
X122865830Y-83038830D01*
X122877972Y-83034566D01*
X122881771Y-83033450D01*
X122951637Y-83033445D01*
X122997002Y-83060646D01*
X122997942Y-83059468D01*
X123109875Y-83148732D01*
X123110016Y-83148844D01*
X123236433Y-83198459D01*
X123236432Y-83198459D01*
X123371855Y-83208608D01*
X123371855Y-83208607D01*
X123371857Y-83208608D01*
X123504256Y-83178388D01*
X123531543Y-83164614D01*
X124216147Y-82734449D01*
X124240397Y-82715841D01*
X124325069Y-82609665D01*
X124374684Y-82483249D01*
X124384833Y-82347824D01*
X124354613Y-82215425D01*
X124340838Y-82188139D01*
X123804267Y-81334190D01*
X123785659Y-81309940D01*
X123785657Y-81309938D01*
X123679486Y-81225269D01*
X123679484Y-81225268D01*
X123597815Y-81193215D01*
X123553065Y-81175652D01*
X123553067Y-81175652D01*
X123417644Y-81165503D01*
X123285243Y-81195724D01*
X123257957Y-81209497D01*
X122573349Y-81639665D01*
X122573348Y-81639666D01*
X122549104Y-81658269D01*
X122549102Y-81658271D01*
X122464431Y-81764446D01*
X122464428Y-81764451D01*
X122414815Y-81890863D01*
X122404666Y-82026287D01*
X122416719Y-82079093D01*
X122412446Y-82148831D01*
X122389543Y-82187885D01*
X122366100Y-82214941D01*
X122307323Y-82252717D01*
X122237453Y-82252719D01*
X122178674Y-82214946D01*
X122168093Y-82200817D01*
X122159939Y-82188139D01*
X122091984Y-82082479D01*
X121511295Y-81252767D01*
X121285252Y-80955256D01*
X123997919Y-80955256D01*
X124025785Y-81103848D01*
X124025786Y-81103852D01*
X124063818Y-81184329D01*
X124588469Y-82019305D01*
X124588470Y-82019307D01*
X124644480Y-82088495D01*
X124766275Y-82178079D01*
X124766278Y-82178080D01*
X124907721Y-82231480D01*
X124907719Y-82231480D01*
X125058327Y-82244739D01*
X125058339Y-82244739D01*
X125206930Y-82216873D01*
X125206931Y-82216873D01*
X125287414Y-82178837D01*
X125408547Y-82102724D01*
X124743509Y-81044319D01*
X124344484Y-80409275D01*
X124223352Y-80485388D01*
X124154163Y-80541397D01*
X124064579Y-80663193D01*
X124064577Y-80663198D01*
X124011179Y-80804636D01*
X124011179Y-80804640D01*
X123997919Y-80955244D01*
X123997919Y-80955256D01*
X121285252Y-80955256D01*
X121179717Y-80816354D01*
X121154835Y-80751068D01*
X121169200Y-80682691D01*
X121218251Y-80632934D01*
X121231791Y-80627269D01*
X121231782Y-80627248D01*
X121231881Y-80627202D01*
X121231993Y-80627185D01*
X121243527Y-80622360D01*
X121249107Y-80620722D01*
X121250199Y-80624445D01*
X121300973Y-80616805D01*
X121350105Y-80634663D01*
X121356293Y-80638551D01*
X121356296Y-80638554D01*
X121471284Y-80710806D01*
X121602461Y-80745955D01*
X121738170Y-80740877D01*
X121866353Y-80696023D01*
X121891926Y-80679280D01*
X122524061Y-80175169D01*
X122546075Y-80153963D01*
X122618328Y-80038974D01*
X122653477Y-79907798D01*
X122648398Y-79772088D01*
X122603545Y-79643905D01*
X122586802Y-79618332D01*
X122532240Y-79549914D01*
X122326884Y-79292406D01*
X121957992Y-78829830D01*
X121936786Y-78807816D01*
X121936785Y-78807815D01*
X121821799Y-78735564D01*
X121690617Y-78700414D01*
X121554912Y-78705492D01*
X121426729Y-78750346D01*
X121426724Y-78750349D01*
X121401157Y-78767088D01*
X120769017Y-79271204D01*
X120747007Y-79292406D01*
X120674753Y-79407398D01*
X120639604Y-79538573D01*
X120644683Y-79674280D01*
X120663320Y-79727541D01*
X120666881Y-79797320D01*
X120639992Y-79849696D01*
X120616825Y-79876433D01*
X120558048Y-79914209D01*
X120488178Y-79914210D01*
X120429399Y-79876436D01*
X120427384Y-79874050D01*
X120254901Y-79664563D01*
X119581117Y-78908497D01*
X119290228Y-78606707D01*
X119257877Y-78544778D01*
X119264142Y-78475190D01*
X119307035Y-78420036D01*
X119312451Y-78416349D01*
X119315835Y-78414174D01*
X119382875Y-78394496D01*
X119439849Y-78411200D01*
X119440726Y-78409380D01*
X119447523Y-78412653D01*
X119447524Y-78412654D01*
X119569879Y-78471577D01*
X119704167Y-78491818D01*
X119838454Y-78471577D01*
X119960809Y-78412654D01*
X119984346Y-78393153D01*
X120097058Y-78280441D01*
X122104311Y-78280441D01*
X122107998Y-78431589D01*
X122107998Y-78431592D01*
X122152327Y-78576135D01*
X122199135Y-78651854D01*
X122199136Y-78651855D01*
X122813975Y-79422837D01*
X122877376Y-79485318D01*
X123008438Y-79560703D01*
X123154968Y-79597930D01*
X123154975Y-79597931D01*
X123306119Y-79594243D01*
X123306122Y-79594243D01*
X123450665Y-79549914D01*
X123526384Y-79503106D01*
X123526385Y-79503105D01*
X123638234Y-79413909D01*
X122872009Y-78453092D01*
X122872009Y-78453091D01*
X122391254Y-77850244D01*
X122279408Y-77939440D01*
X122216923Y-78002846D01*
X122141537Y-78133908D01*
X122104311Y-78280441D01*
X120097058Y-78280441D01*
X120556065Y-77821434D01*
X120575566Y-77797897D01*
X120634489Y-77675542D01*
X120654730Y-77541255D01*
X120634489Y-77406967D01*
X120575566Y-77284612D01*
X120556065Y-77261075D01*
X119842925Y-76547935D01*
X119819388Y-76528434D01*
X119819387Y-76528433D01*
X119754505Y-76497188D01*
X119697033Y-76469511D01*
X119562745Y-76449270D01*
X119428458Y-76469511D01*
X119306103Y-76528433D01*
X119282561Y-76547939D01*
X118710851Y-77119649D01*
X118691345Y-77143191D01*
X118632423Y-77265546D01*
X118612182Y-77399833D01*
X118632423Y-77534120D01*
X118632423Y-77534123D01*
X118654428Y-77579816D01*
X118665780Y-77648757D01*
X118647026Y-77700652D01*
X118645223Y-77703456D01*
X118637690Y-77719952D01*
X118591934Y-77772755D01*
X118524894Y-77792438D01*
X118457855Y-77772752D01*
X118439056Y-77757920D01*
X118147519Y-77478211D01*
X117389897Y-76806177D01*
X117286762Y-76721659D01*
X117168505Y-76624749D01*
X117129129Y-76567032D01*
X117127209Y-76497188D01*
X117163353Y-76437394D01*
X117180068Y-76424521D01*
X117182692Y-76422835D01*
X117249734Y-76403164D01*
X117293891Y-76413465D01*
X117294414Y-76411971D01*
X117301534Y-76414462D01*
X117301535Y-76414463D01*
X117429718Y-76459316D01*
X117497573Y-76461855D01*
X117565426Y-76464395D01*
X117565426Y-76464394D01*
X117565428Y-76464395D01*
X117696604Y-76429246D01*
X117811593Y-76356993D01*
X117832799Y-76334979D01*
X118111404Y-75985619D01*
X119926814Y-75985619D01*
X119947401Y-76135405D01*
X120007633Y-76274073D01*
X120007634Y-76274075D01*
X120062635Y-76344088D01*
X120759911Y-77041364D01*
X120829924Y-77096365D01*
X120829926Y-77096366D01*
X120968594Y-77156598D01*
X121118380Y-77177186D01*
X121268163Y-77156598D01*
X121406838Y-77096365D01*
X121476840Y-77041372D01*
X121476841Y-77041371D01*
X121577999Y-76940212D01*
X120163787Y-75526000D01*
X120062628Y-75627158D01*
X120062627Y-75627159D01*
X120007634Y-75697161D01*
X119947401Y-75835836D01*
X119926814Y-75985618D01*
X119926814Y-75985619D01*
X118111404Y-75985619D01*
X118336910Y-75702844D01*
X118353653Y-75677271D01*
X118398507Y-75549088D01*
X118403585Y-75413379D01*
X118368436Y-75282202D01*
X118296184Y-75167214D01*
X118274170Y-75146008D01*
X117774095Y-74747211D01*
X117485666Y-74517196D01*
X117460097Y-74500456D01*
X117460095Y-74500455D01*
X117331912Y-74455602D01*
X117331911Y-74455601D01*
X117331909Y-74455601D01*
X117196203Y-74450522D01*
X117065028Y-74485671D01*
X116950036Y-74557925D01*
X116928834Y-74579935D01*
X116424718Y-75212075D01*
X116407979Y-75237642D01*
X116407976Y-75237647D01*
X116363122Y-75365830D01*
X116358044Y-75501536D01*
X116393194Y-75632718D01*
X116423201Y-75680474D01*
X116442201Y-75747711D01*
X116431002Y-75797955D01*
X116415962Y-75830889D01*
X116370208Y-75883694D01*
X116303168Y-75903379D01*
X116236129Y-75883695D01*
X116228379Y-75878287D01*
X115798793Y-75553460D01*
X114967740Y-74974690D01*
X114840905Y-74893530D01*
X114795046Y-74840816D01*
X114784967Y-74771677D01*
X114813865Y-74708066D01*
X114815133Y-74706603D01*
X114873898Y-74668816D01*
X114937644Y-74668799D01*
X114937956Y-74667434D01*
X114964205Y-74673425D01*
X115077712Y-74699333D01*
X115213137Y-74689184D01*
X115339553Y-74639569D01*
X115445729Y-74554897D01*
X115464337Y-74530647D01*
X115829795Y-73949024D01*
X117506068Y-73949024D01*
X117506069Y-73949031D01*
X117543296Y-74095561D01*
X117618681Y-74226623D01*
X117681162Y-74290024D01*
X118452144Y-74904863D01*
X118452145Y-74904864D01*
X118527864Y-74951672D01*
X118672409Y-74996001D01*
X118823558Y-74999688D01*
X118970091Y-74962462D01*
X119101153Y-74887076D01*
X119164559Y-74824591D01*
X119253752Y-74712744D01*
X118606472Y-74196554D01*
X118606463Y-74196547D01*
X117690090Y-73465765D01*
X117600891Y-73577618D01*
X117554086Y-73653331D01*
X117509756Y-73797877D01*
X117509756Y-73797880D01*
X117506068Y-73949024D01*
X115829795Y-73949024D01*
X115894502Y-73846043D01*
X115908276Y-73818756D01*
X115938496Y-73686357D01*
X115928347Y-73550933D01*
X115878732Y-73424516D01*
X115845733Y-73383137D01*
X115794061Y-73318342D01*
X115794058Y-73318339D01*
X115769814Y-73299736D01*
X115769813Y-73299735D01*
X115642533Y-73219760D01*
X114915861Y-72763162D01*
X114888575Y-72749387D01*
X114888573Y-72749386D01*
X114888572Y-72749386D01*
X114756174Y-72719166D01*
X114620751Y-72729315D01*
X114494339Y-72778928D01*
X114494334Y-72778931D01*
X114388159Y-72863602D01*
X114388157Y-72863604D01*
X114369554Y-72887848D01*
X114369553Y-72887849D01*
X113939385Y-73572457D01*
X113925612Y-73599743D01*
X113895391Y-73732144D01*
X113905540Y-73867566D01*
X113924844Y-73916751D01*
X113955156Y-73993984D01*
X113955157Y-73993985D01*
X113955159Y-73993989D01*
X113989099Y-74036549D01*
X114015508Y-74101235D01*
X114004948Y-74165370D01*
X113992011Y-74193700D01*
X113989686Y-74192638D01*
X113959167Y-74240105D01*
X113895605Y-74269115D01*
X113826448Y-74259155D01*
X113815285Y-74253352D01*
X113372766Y-73993989D01*
X113240985Y-73916751D01*
X112347921Y-73439197D01*
X112334411Y-73432638D01*
X112282700Y-73385653D01*
X112264600Y-73318168D01*
X112285859Y-73251611D01*
X112339726Y-73207113D01*
X112402451Y-73197869D01*
X112408488Y-73198549D01*
X112408490Y-73198550D01*
X112543439Y-73213756D01*
X112676876Y-73188509D01*
X112796943Y-73125051D01*
X112892970Y-73029023D01*
X112908746Y-73002842D01*
X113259555Y-72274380D01*
X113270188Y-72245723D01*
X113270188Y-72245721D01*
X113270189Y-72245719D01*
X113270189Y-72245717D01*
X113285393Y-72110774D01*
X113285393Y-72110772D01*
X113273076Y-72045672D01*
X114859260Y-72045672D01*
X114872519Y-72196279D01*
X114925919Y-72337721D01*
X114925920Y-72337724D01*
X115015504Y-72459519D01*
X115084692Y-72515529D01*
X115084694Y-72515530D01*
X115919670Y-73040181D01*
X115919669Y-73040181D01*
X116000147Y-73078213D01*
X116000151Y-73078214D01*
X116148743Y-73106080D01*
X116148755Y-73106080D01*
X116299359Y-73092820D01*
X116299363Y-73092820D01*
X116440801Y-73039422D01*
X116440806Y-73039420D01*
X116562602Y-72949836D01*
X116618611Y-72880647D01*
X116694723Y-72759515D01*
X116059681Y-72360491D01*
X115001274Y-71695451D01*
X114925159Y-71816588D01*
X114887127Y-71897065D01*
X114887126Y-71897069D01*
X114859260Y-72045660D01*
X114859260Y-72045672D01*
X113273076Y-72045672D01*
X113260147Y-71977342D01*
X113260146Y-71977336D01*
X113196689Y-71857270D01*
X113100661Y-71761242D01*
X113100660Y-71761241D01*
X113074478Y-71745464D01*
X112165832Y-71307884D01*
X112165820Y-71307879D01*
X112149152Y-71301695D01*
X112137166Y-71297248D01*
X112121959Y-71295534D01*
X112002216Y-71282041D01*
X111868786Y-71307287D01*
X111868779Y-71307289D01*
X111748712Y-71370747D01*
X111652686Y-71466774D01*
X111636911Y-71492953D01*
X111286102Y-72221415D01*
X111275466Y-72250078D01*
X111275466Y-72250080D01*
X111260262Y-72385023D01*
X111260262Y-72385025D01*
X111285508Y-72518455D01*
X111285511Y-72518465D01*
X111323620Y-72590570D01*
X111348965Y-72638525D01*
X111348968Y-72638529D01*
X111386763Y-72676324D01*
X111420248Y-72737647D01*
X111421820Y-72781652D01*
X111416792Y-72816622D01*
X111387767Y-72880178D01*
X111328989Y-72917952D01*
X111259119Y-72917952D01*
X111244301Y-72912556D01*
X110509239Y-72590570D01*
X109669056Y-72261043D01*
X109613833Y-72218239D01*
X109590517Y-72152374D01*
X109606512Y-72084360D01*
X109620576Y-72064452D01*
X109620943Y-72064028D01*
X109679700Y-72026222D01*
X109715420Y-72023273D01*
X109715420Y-72021268D01*
X109858769Y-72021268D01*
X109858770Y-72021268D01*
X109988540Y-71981239D01*
X110100747Y-71904738D01*
X110185419Y-71798562D01*
X110198164Y-71770779D01*
X110465206Y-71007619D01*
X110472563Y-70977952D01*
X110472563Y-70842148D01*
X110432535Y-70712377D01*
X110356761Y-70601238D01*
X112029245Y-70601238D01*
X112059283Y-70749411D01*
X112128186Y-70883993D01*
X112128187Y-70883994D01*
X112230843Y-70994992D01*
X112305870Y-71042902D01*
X113194334Y-71470765D01*
X113278569Y-71499550D01*
X113429353Y-71510602D01*
X113429359Y-71510602D01*
X113577531Y-71480564D01*
X113712113Y-71411661D01*
X113712114Y-71411660D01*
X113823109Y-71309006D01*
X113871024Y-71233976D01*
X113933094Y-71105086D01*
X113195621Y-70749938D01*
X113195620Y-70749938D01*
X112131156Y-70237318D01*
X112131155Y-70237318D01*
X112069085Y-70366210D01*
X112069081Y-70366219D01*
X112040299Y-70450446D01*
X112040298Y-70450451D01*
X112029245Y-70601233D01*
X112029245Y-70601238D01*
X110356761Y-70601238D01*
X110356033Y-70600170D01*
X110356031Y-70600168D01*
X110291337Y-70548577D01*
X110249857Y-70515498D01*
X110249855Y-70515497D01*
X110222082Y-70502756D01*
X110222080Y-70502755D01*
X110222075Y-70502753D01*
X109270138Y-70169656D01*
X109270136Y-70169655D01*
X109270129Y-70169653D01*
X109240470Y-70162298D01*
X109104666Y-70162298D01*
X108974897Y-70202326D01*
X108862688Y-70278829D01*
X108778016Y-70385004D01*
X108765275Y-70412779D01*
X108765272Y-70412785D01*
X108765272Y-70412787D01*
X108498230Y-71175947D01*
X108498228Y-71175952D01*
X108498226Y-71175960D01*
X108498225Y-71175962D01*
X108490873Y-71205610D01*
X108490873Y-71341419D01*
X108513494Y-71414757D01*
X108530901Y-71471189D01*
X108557773Y-71510602D01*
X108607402Y-71583395D01*
X108651662Y-71618691D01*
X108691802Y-71675879D01*
X108697087Y-71733282D01*
X108692671Y-71764001D01*
X108663648Y-71827558D01*
X108604871Y-71865333D01*
X108535001Y-71865335D01*
X108533812Y-71864979D01*
X107641083Y-71593137D01*
X106892624Y-71396837D01*
X106832772Y-71360789D01*
X106801910Y-71298105D01*
X106809836Y-71228687D01*
X106811276Y-71225409D01*
X106811690Y-71224503D01*
X106857479Y-71171733D01*
X106915231Y-71154818D01*
X106915017Y-71152916D01*
X106964815Y-71147304D01*
X107057464Y-71136866D01*
X107181937Y-71082559D01*
X107284873Y-70993976D01*
X107357125Y-70878987D01*
X107366679Y-70849952D01*
X107529615Y-70136081D01*
X110080996Y-70136081D01*
X110310411Y-70216357D01*
X110310420Y-70216360D01*
X110397345Y-70235532D01*
X110548422Y-70229633D01*
X110548427Y-70229633D01*
X110692302Y-70183193D01*
X110692306Y-70183191D01*
X110818322Y-70099658D01*
X110818323Y-70099658D01*
X110917129Y-69985218D01*
X110956340Y-69905297D01*
X111003588Y-69770265D01*
X110295676Y-69522557D01*
X110080996Y-70136081D01*
X107529615Y-70136081D01*
X107546594Y-70061692D01*
X107550584Y-70031387D01*
X107535379Y-69896437D01*
X107481072Y-69771964D01*
X107392488Y-69669028D01*
X107277500Y-69596776D01*
X107248465Y-69587222D01*
X107248459Y-69587220D01*
X106552293Y-69428325D01*
X106265219Y-69362802D01*
X106234914Y-69358813D01*
X106234911Y-69358813D01*
X106234910Y-69358813D01*
X106099968Y-69374017D01*
X106099962Y-69374018D01*
X105975494Y-69428323D01*
X105975489Y-69428326D01*
X105872555Y-69516907D01*
X105800303Y-69631896D01*
X105800303Y-69631897D01*
X105790749Y-69660932D01*
X105790747Y-69660938D01*
X105790747Y-69660940D01*
X105610832Y-70449197D01*
X105606844Y-70479491D01*
X105606844Y-70479502D01*
X105622048Y-70614442D01*
X105622049Y-70614448D01*
X105673962Y-70733434D01*
X105676356Y-70738920D01*
X105764940Y-70841856D01*
X105807939Y-70868874D01*
X105854229Y-70921207D01*
X105862481Y-70974719D01*
X105865844Y-70974719D01*
X105865844Y-70983590D01*
X105866606Y-70988892D01*
X105856658Y-71058050D01*
X105810900Y-71110851D01*
X105743860Y-71130532D01*
X105717122Y-71127613D01*
X105672595Y-71117778D01*
X104675921Y-70938155D01*
X104040175Y-70849071D01*
X103976515Y-70820274D01*
X103938531Y-70761632D01*
X103938281Y-70691763D01*
X103944609Y-70674712D01*
X103945226Y-70673362D01*
X103991010Y-70620583D01*
X104035337Y-70605066D01*
X104034996Y-70603570D01*
X104042352Y-70601891D01*
X104174751Y-70571672D01*
X104292361Y-70503770D01*
X104384731Y-70404218D01*
X104443654Y-70281863D01*
X104449897Y-70251941D01*
X104540424Y-69448493D01*
X104540996Y-69417932D01*
X104521307Y-69331670D01*
X109049400Y-69331670D01*
X109055299Y-69482746D01*
X109055300Y-69482754D01*
X109101737Y-69626626D01*
X109101738Y-69626627D01*
X109185279Y-69752652D01*
X109299714Y-69851455D01*
X109379635Y-69890665D01*
X109609054Y-69970941D01*
X109823734Y-69357417D01*
X109115822Y-69109709D01*
X109068572Y-69244742D01*
X109049400Y-69331670D01*
X104521307Y-69331670D01*
X104510777Y-69285533D01*
X104483710Y-69238651D01*
X107067219Y-69238651D01*
X107304182Y-69292736D01*
X107392717Y-69302056D01*
X107542182Y-69279279D01*
X107679961Y-69217020D01*
X107795832Y-69119900D01*
X107881203Y-68995120D01*
X107911218Y-68911315D01*
X107911221Y-68911304D01*
X107943052Y-68771838D01*
X107943052Y-68771837D01*
X107211857Y-68604948D01*
X107211856Y-68604948D01*
X107067219Y-69238650D01*
X107067219Y-69238651D01*
X104483710Y-69238651D01*
X104447385Y-69175734D01*
X104442876Y-69167924D01*
X104442875Y-69167923D01*
X104343323Y-69075553D01*
X104343322Y-69075552D01*
X104220971Y-69016631D01*
X104220965Y-69016629D01*
X104191044Y-69010385D01*
X104191041Y-69010384D01*
X103188865Y-68897466D01*
X103188847Y-68897465D01*
X103158296Y-68896894D01*
X103158292Y-68896895D01*
X103025897Y-68927113D01*
X103025895Y-68927114D01*
X102908286Y-68995014D01*
X102908285Y-68995016D01*
X102815914Y-69094568D01*
X102756992Y-69216923D01*
X102756991Y-69216925D01*
X102750749Y-69246842D01*
X102750747Y-69246856D01*
X102660223Y-70050278D01*
X102660221Y-70050304D01*
X102659650Y-70080853D01*
X102659650Y-70080854D01*
X102683007Y-70183191D01*
X102689869Y-70213253D01*
X102712207Y-70251943D01*
X102757769Y-70330861D01*
X102757770Y-70330861D01*
X102757771Y-70330863D01*
X102836830Y-70404218D01*
X102857324Y-70423234D01*
X102907886Y-70447583D01*
X102959746Y-70494405D01*
X102976823Y-70541658D01*
X102981407Y-70573544D01*
X102971463Y-70642702D01*
X102925707Y-70695505D01*
X102858667Y-70715189D01*
X102846275Y-70714568D01*
X102665332Y-70696391D01*
X101654488Y-70634621D01*
X101148687Y-70623522D01*
X101082095Y-70602372D01*
X101037510Y-70548577D01*
X101028663Y-70481945D01*
X101028978Y-70479749D01*
X101057982Y-70416184D01*
X101112027Y-70381425D01*
X101111577Y-70380139D01*
X101194995Y-70350949D01*
X101246882Y-70332793D01*
X101356150Y-70252150D01*
X101436793Y-70142882D01*
X101465205Y-70061686D01*
X101481646Y-70014701D01*
X101481646Y-70014699D01*
X101484500Y-69984269D01*
X101484500Y-69175730D01*
X101481646Y-69145300D01*
X101481646Y-69145298D01*
X101436793Y-69017119D01*
X101436792Y-69017117D01*
X101356150Y-68907850D01*
X101246882Y-68827207D01*
X101246880Y-68827206D01*
X101118700Y-68782353D01*
X101088270Y-68779500D01*
X101088266Y-68779500D01*
X100079734Y-68779500D01*
X100079730Y-68779500D01*
X100049300Y-68782353D01*
X100049298Y-68782353D01*
X99921119Y-68827206D01*
X99921117Y-68827207D01*
X99811850Y-68907850D01*
X99731207Y-69017117D01*
X99731206Y-69017119D01*
X99686353Y-69145298D01*
X99686353Y-69145300D01*
X99683500Y-69175730D01*
X99683500Y-69984269D01*
X99686353Y-70014699D01*
X99686353Y-70014701D01*
X99728827Y-70136081D01*
X99731207Y-70142882D01*
X99811850Y-70252150D01*
X99921118Y-70332793D01*
X99973010Y-70350950D01*
X100029784Y-70391671D01*
X100054792Y-70450343D01*
X100059464Y-70482836D01*
X100049521Y-70551995D01*
X100003766Y-70604799D01*
X99938853Y-70624466D01*
X99629421Y-70629775D01*
X98618293Y-70686706D01*
X98241762Y-70722712D01*
X98173153Y-70709498D01*
X98122579Y-70661290D01*
X98106098Y-70593392D01*
X98107225Y-70581597D01*
X98107274Y-70581255D01*
X98136325Y-70517715D01*
X98182217Y-70486869D01*
X98181524Y-70485430D01*
X98254158Y-70450451D01*
X98310677Y-70423233D01*
X98410229Y-70330863D01*
X98478131Y-70213253D01*
X98508350Y-70080854D01*
X98507778Y-70050293D01*
X98417251Y-69246845D01*
X98411008Y-69216923D01*
X98352085Y-69094568D01*
X98259715Y-68995016D01*
X98259713Y-68995015D01*
X98259713Y-68995014D01*
X98189832Y-68954669D01*
X98142105Y-68927114D01*
X98142103Y-68927113D01*
X98142102Y-68927113D01*
X98009707Y-68896895D01*
X98009703Y-68896894D01*
X97979152Y-68897465D01*
X97979134Y-68897466D01*
X96976958Y-69010384D01*
X96976955Y-69010385D01*
X96947034Y-69016629D01*
X96947028Y-69016631D01*
X96824677Y-69075552D01*
X96725125Y-69167923D01*
X96725123Y-69167924D01*
X96657223Y-69285533D01*
X96657222Y-69285535D01*
X96627004Y-69417931D01*
X96627004Y-69417932D01*
X96627575Y-69448481D01*
X96627577Y-69448507D01*
X96718101Y-70251929D01*
X96718103Y-70251943D01*
X96723713Y-70278829D01*
X96724346Y-70281863D01*
X96728596Y-70290688D01*
X96783268Y-70404217D01*
X96783269Y-70404218D01*
X96875639Y-70503770D01*
X96993249Y-70571672D01*
X97035249Y-70581258D01*
X97044577Y-70583387D01*
X97105556Y-70617495D01*
X97129779Y-70652765D01*
X97144373Y-70684720D01*
X97154317Y-70753878D01*
X97125293Y-70817434D01*
X97066516Y-70855210D01*
X97048198Y-70859114D01*
X96732047Y-70901872D01*
X96606570Y-70918843D01*
X96172144Y-70994992D01*
X95609048Y-71093695D01*
X95373224Y-71144603D01*
X95303541Y-71139508D01*
X95247674Y-71097547D01*
X95223361Y-71032044D01*
X95238321Y-70963795D01*
X95282629Y-70919627D01*
X95281683Y-70918122D01*
X95288070Y-70914108D01*
X95288072Y-70914108D01*
X95403060Y-70841856D01*
X95491644Y-70738920D01*
X95545951Y-70614447D01*
X95561156Y-70479497D01*
X95557166Y-70449192D01*
X95377251Y-69660932D01*
X95367697Y-69631897D01*
X95295445Y-69516908D01*
X95192509Y-69428325D01*
X95192506Y-69428323D01*
X95192505Y-69428323D01*
X95068037Y-69374018D01*
X95068031Y-69374017D01*
X94933092Y-69358813D01*
X94933086Y-69358813D01*
X94902781Y-69362802D01*
X94902777Y-69362803D01*
X93919540Y-69587220D01*
X93890502Y-69596775D01*
X93890500Y-69596775D01*
X93890500Y-69596776D01*
X93862850Y-69614150D01*
X93775511Y-69669028D01*
X93686929Y-69771962D01*
X93686926Y-69771967D01*
X93632621Y-69896435D01*
X93632620Y-69896441D01*
X93617416Y-70031381D01*
X93617416Y-70031392D01*
X93621404Y-70061686D01*
X93770562Y-70715189D01*
X93801321Y-70849952D01*
X93810875Y-70878987D01*
X93883127Y-70993976D01*
X93986063Y-71082559D01*
X94048299Y-71109712D01*
X94110533Y-71136865D01*
X94110536Y-71136866D01*
X94166902Y-71143216D01*
X94231313Y-71170281D01*
X94265811Y-71214924D01*
X94279212Y-71244268D01*
X94289156Y-71313427D01*
X94260131Y-71376983D01*
X94201353Y-71414757D01*
X94197301Y-71415873D01*
X93638307Y-71559626D01*
X92668097Y-71849995D01*
X92570575Y-71883386D01*
X92500773Y-71886479D01*
X92440381Y-71851344D01*
X92408571Y-71789135D01*
X92415443Y-71719604D01*
X92453096Y-71669124D01*
X92454419Y-71668068D01*
X92454421Y-71668068D01*
X92560597Y-71583396D01*
X92637099Y-71471189D01*
X92677127Y-71341418D01*
X92677127Y-71205614D01*
X92669770Y-71175947D01*
X92402728Y-70412787D01*
X92389983Y-70385004D01*
X92305311Y-70278828D01*
X92193104Y-70202327D01*
X92193103Y-70202326D01*
X92193102Y-70202326D01*
X92063334Y-70162298D01*
X91927530Y-70162298D01*
X91927529Y-70162298D01*
X91897870Y-70169653D01*
X91551972Y-70290688D01*
X90945925Y-70502753D01*
X90945923Y-70502753D01*
X90945917Y-70502756D01*
X90918144Y-70515497D01*
X90918143Y-70515497D01*
X90811968Y-70600168D01*
X90785753Y-70638618D01*
X90749520Y-70691763D01*
X90735464Y-70712379D01*
X90695437Y-70842146D01*
X90695437Y-70977955D01*
X90702789Y-71007603D01*
X90702790Y-71007605D01*
X90702791Y-71007610D01*
X90702794Y-71007619D01*
X90969836Y-71770779D01*
X90969838Y-71770784D01*
X90969839Y-71770786D01*
X90982580Y-71798561D01*
X90982581Y-71798562D01*
X91067253Y-71904738D01*
X91179460Y-71981239D01*
X91309230Y-72021268D01*
X91360875Y-72021268D01*
X91427914Y-72040953D01*
X91466496Y-72085479D01*
X91468047Y-72084483D01*
X91477636Y-72099404D01*
X91476540Y-72100107D01*
X91501803Y-72155436D01*
X91491854Y-72224593D01*
X91446095Y-72277394D01*
X91423787Y-72288727D01*
X90765410Y-72543320D01*
X89862076Y-72933873D01*
X89792729Y-72942409D01*
X89729777Y-72912098D01*
X89693205Y-72852565D01*
X89694624Y-72782710D01*
X89725182Y-72732378D01*
X89819033Y-72638528D01*
X89882490Y-72518462D01*
X89907737Y-72385025D01*
X89902407Y-72337721D01*
X89892533Y-72250080D01*
X89892533Y-72250078D01*
X89890915Y-72245717D01*
X89881899Y-72221418D01*
X89531090Y-71492956D01*
X89515314Y-71466775D01*
X89419287Y-71370747D01*
X89299220Y-71307289D01*
X89299213Y-71307287D01*
X89165783Y-71282041D01*
X89044501Y-71295708D01*
X89030834Y-71297248D01*
X89030833Y-71297248D01*
X89002179Y-71307879D01*
X89002167Y-71307884D01*
X88093521Y-71745464D01*
X88067339Y-71761241D01*
X87971312Y-71857268D01*
X87971309Y-71857273D01*
X87907855Y-71977332D01*
X87907852Y-71977342D01*
X87882606Y-72110772D01*
X87882606Y-72110774D01*
X87897810Y-72245717D01*
X87897810Y-72245719D01*
X87903496Y-72261043D01*
X87908445Y-72274380D01*
X88259254Y-73002842D01*
X88275030Y-73029023D01*
X88371057Y-73125051D01*
X88491124Y-73188509D01*
X88624561Y-73213756D01*
X88679968Y-73207512D01*
X88748790Y-73219565D01*
X88787568Y-73249531D01*
X88807243Y-73272238D01*
X88836267Y-73335794D01*
X88826322Y-73404953D01*
X88780567Y-73457756D01*
X88771477Y-73463066D01*
X88027348Y-73856411D01*
X87286332Y-74285972D01*
X87218461Y-74302564D01*
X87152394Y-74279827D01*
X87109107Y-74224982D01*
X87102344Y-74155441D01*
X87127197Y-74101381D01*
X87128172Y-74100159D01*
X87212844Y-73993984D01*
X87262459Y-73867567D01*
X87272608Y-73732143D01*
X87242388Y-73599744D01*
X87228614Y-73572457D01*
X86798449Y-72887853D01*
X86779841Y-72863603D01*
X86673665Y-72778931D01*
X86673660Y-72778928D01*
X86547247Y-72729315D01*
X86547249Y-72729315D01*
X86411824Y-72719166D01*
X86279427Y-72749386D01*
X86252138Y-72763162D01*
X85398186Y-73299735D01*
X85398185Y-73299736D01*
X85373941Y-73318339D01*
X85373938Y-73318342D01*
X85289269Y-73424513D01*
X85289268Y-73424516D01*
X85239652Y-73550933D01*
X85229503Y-73686355D01*
X85259724Y-73818756D01*
X85273497Y-73846042D01*
X85502172Y-74209976D01*
X85703663Y-74530647D01*
X85722271Y-74554897D01*
X85828447Y-74639569D01*
X85828448Y-74639569D01*
X85828451Y-74639571D01*
X85868625Y-74655338D01*
X85954863Y-74689184D01*
X85954862Y-74689184D01*
X86090285Y-74699333D01*
X86090285Y-74699332D01*
X86090288Y-74699333D01*
X86144340Y-74686995D01*
X86214078Y-74691268D01*
X86265644Y-74726681D01*
X86283436Y-74747213D01*
X86312461Y-74810766D01*
X86302518Y-74879925D01*
X86260101Y-74930508D01*
X85461737Y-75480858D01*
X84879444Y-75916785D01*
X84813981Y-75941204D01*
X84745707Y-75926354D01*
X84696301Y-75876950D01*
X84681447Y-75808678D01*
X84700138Y-75751547D01*
X84702550Y-75747707D01*
X84702554Y-75747704D01*
X84774806Y-75632716D01*
X84809955Y-75501539D01*
X84804877Y-75365830D01*
X84760023Y-75237647D01*
X84743280Y-75212074D01*
X84690596Y-75146011D01*
X84598823Y-75030931D01*
X84239169Y-74579939D01*
X84217963Y-74557925D01*
X84102974Y-74485672D01*
X84102971Y-74485671D01*
X83971794Y-74450522D01*
X83836090Y-74455601D01*
X83707902Y-74500456D01*
X83682333Y-74517196D01*
X82893826Y-75146011D01*
X82871815Y-75167214D01*
X82799564Y-75282200D01*
X82764414Y-75413381D01*
X82769492Y-75549087D01*
X82814346Y-75677270D01*
X82814349Y-75677275D01*
X82831088Y-75702842D01*
X82941030Y-75840704D01*
X83335201Y-76334979D01*
X83356407Y-76356993D01*
X83471396Y-76429246D01*
X83602572Y-76464395D01*
X83738282Y-76459316D01*
X83787125Y-76442224D01*
X83856904Y-76438662D01*
X83895119Y-76454950D01*
X83920332Y-76471153D01*
X83966088Y-76523956D01*
X83976032Y-76593115D01*
X83947008Y-76656671D01*
X83931432Y-76671753D01*
X83869936Y-76721659D01*
X83864653Y-76725946D01*
X83103823Y-77394346D01*
X82679157Y-77797897D01*
X82671279Y-77805383D01*
X82609122Y-77837294D01*
X82539580Y-77830535D01*
X82484732Y-77787251D01*
X82461992Y-77721186D01*
X82474141Y-77661693D01*
X82476652Y-77656477D01*
X82476654Y-77656476D01*
X82535577Y-77534121D01*
X82555818Y-77399833D01*
X82535577Y-77265546D01*
X82476654Y-77143191D01*
X82457153Y-77119654D01*
X81885434Y-76547935D01*
X81861897Y-76528434D01*
X81861896Y-76528433D01*
X81797014Y-76497188D01*
X81739542Y-76469511D01*
X81605255Y-76449270D01*
X81470967Y-76469511D01*
X81348612Y-76528433D01*
X81325070Y-76547939D01*
X80611939Y-77261070D01*
X80592433Y-77284612D01*
X80533511Y-77406967D01*
X80522773Y-77478211D01*
X80513270Y-77541255D01*
X80533511Y-77675542D01*
X80546954Y-77703456D01*
X80592433Y-77797896D01*
X80592434Y-77797897D01*
X80611935Y-77821434D01*
X81183654Y-78393153D01*
X81207191Y-78412654D01*
X81329546Y-78471577D01*
X81463833Y-78491818D01*
X81598121Y-78471577D01*
X81649258Y-78446950D01*
X81718194Y-78435597D01*
X81770096Y-78454354D01*
X81794364Y-78469950D01*
X81840119Y-78522754D01*
X81850062Y-78591913D01*
X81821037Y-78655468D01*
X81816190Y-78660745D01*
X81772645Y-78705492D01*
X81663397Y-78817754D01*
X80986002Y-79570586D01*
X80700305Y-79914210D01*
X80689112Y-79927672D01*
X80631116Y-79966636D01*
X80561261Y-79968061D01*
X80501725Y-79931492D01*
X80471410Y-79868541D01*
X80476722Y-79807441D01*
X80523316Y-79674283D01*
X80528395Y-79538573D01*
X80518892Y-79503107D01*
X80493246Y-79407396D01*
X80420993Y-79292407D01*
X80398979Y-79271201D01*
X79944163Y-78908497D01*
X79766842Y-78767088D01*
X79741275Y-78750349D01*
X79741270Y-78750346D01*
X79613087Y-78705492D01*
X79477381Y-78700414D01*
X79346200Y-78735564D01*
X79231214Y-78807815D01*
X79210011Y-78829826D01*
X78581196Y-79618333D01*
X78564456Y-79643902D01*
X78519601Y-79772090D01*
X78514522Y-79907796D01*
X78547029Y-80029110D01*
X78549672Y-80038974D01*
X78621925Y-80153963D01*
X78643939Y-80175169D01*
X78937499Y-80409275D01*
X79276075Y-80679281D01*
X79301642Y-80696020D01*
X79301647Y-80696023D01*
X79429830Y-80740877D01*
X79565536Y-80745955D01*
X79565536Y-80745954D01*
X79565539Y-80745955D01*
X79696716Y-80710806D01*
X79741120Y-80682904D01*
X79808354Y-80663904D01*
X79869429Y-80682175D01*
X79869470Y-80682087D01*
X79870112Y-80682380D01*
X79874128Y-80683581D01*
X79877532Y-80685769D01*
X79877534Y-80685769D01*
X79885604Y-80689456D01*
X79884081Y-80692789D01*
X79928245Y-80721137D01*
X79957304Y-80784677D01*
X79947399Y-80853841D01*
X79932951Y-80877879D01*
X79722021Y-81152759D01*
X79137366Y-81979681D01*
X78957326Y-82256690D01*
X78904288Y-82302173D01*
X78835079Y-82311762D01*
X78771673Y-82282411D01*
X78734201Y-82223439D01*
X78732465Y-82161522D01*
X78733111Y-82158690D01*
X78733113Y-82158687D01*
X78763333Y-82026288D01*
X78753184Y-81890863D01*
X78703569Y-81764447D01*
X78618897Y-81658271D01*
X78618895Y-81658269D01*
X78594651Y-81639666D01*
X78594650Y-81639665D01*
X77910042Y-81209497D01*
X77882756Y-81195724D01*
X77750353Y-81165503D01*
X77614933Y-81175652D01*
X77488516Y-81225268D01*
X77488513Y-81225269D01*
X77382342Y-81309938D01*
X77382339Y-81309941D01*
X77363736Y-81334185D01*
X77363735Y-81334186D01*
X76827162Y-82188138D01*
X76813386Y-82215427D01*
X76783166Y-82347824D01*
X76793315Y-82483248D01*
X76842928Y-82609660D01*
X76842931Y-82609665D01*
X76927603Y-82715841D01*
X76951853Y-82734449D01*
X77636457Y-83164614D01*
X77663744Y-83178388D01*
X77796143Y-83208608D01*
X77931567Y-83198459D01*
X78057984Y-83148844D01*
X78101229Y-83114356D01*
X78165914Y-83087947D01*
X78213476Y-83092324D01*
X78243067Y-83101013D01*
X78301844Y-83138788D01*
X78330869Y-83202344D01*
X78320925Y-83271502D01*
X78314662Y-83283449D01*
X78067195Y-83698882D01*
X77583314Y-84588534D01*
X77497083Y-84762993D01*
X77449731Y-84814369D01*
X77382120Y-84831990D01*
X77315715Y-84810259D01*
X77271601Y-84756078D01*
X77262701Y-84694166D01*
X77277756Y-84560561D01*
X77252509Y-84427124D01*
X77189051Y-84307057D01*
X77093023Y-84211030D01*
X77066842Y-84195254D01*
X76338380Y-83844445D01*
X76309723Y-83833812D01*
X76309718Y-83833810D01*
X76174774Y-83818606D01*
X76174772Y-83818606D01*
X76041342Y-83843852D01*
X76041332Y-83843855D01*
X75921273Y-83907309D01*
X75921268Y-83907312D01*
X75825241Y-84003339D01*
X75809464Y-84029521D01*
X75371884Y-84938167D01*
X75371879Y-84938179D01*
X75361248Y-84966833D01*
X75361248Y-84966835D01*
X75346041Y-85101783D01*
X75371287Y-85235213D01*
X75371289Y-85235220D01*
X75434747Y-85355287D01*
X75530775Y-85451314D01*
X75556956Y-85467090D01*
X76285418Y-85817899D01*
X76314075Y-85828532D01*
X76314076Y-85828532D01*
X76314079Y-85828533D01*
X76449023Y-85843737D01*
X76449025Y-85843737D01*
X76582462Y-85818490D01*
X76702528Y-85755033D01*
X76742013Y-85715547D01*
X76803334Y-85682061D01*
X76864627Y-85684249D01*
X76892990Y-85692578D01*
X76951767Y-85730351D01*
X76980792Y-85793907D01*
X76971279Y-85862112D01*
X76782146Y-86285677D01*
X76721656Y-86421145D01*
X76345196Y-87361304D01*
X76326094Y-87414997D01*
X76285080Y-87471560D01*
X76219995Y-87496970D01*
X76151504Y-87483159D01*
X76101352Y-87434511D01*
X76085268Y-87373435D01*
X76085268Y-87245230D01*
X76045239Y-87115461D01*
X76045239Y-87115460D01*
X75968738Y-87003253D01*
X75862562Y-86918581D01*
X75862561Y-86918580D01*
X75834786Y-86905839D01*
X75834784Y-86905838D01*
X75834779Y-86905836D01*
X75071619Y-86638794D01*
X75071610Y-86638791D01*
X75071605Y-86638790D01*
X75071603Y-86638789D01*
X75041955Y-86631437D01*
X75041952Y-86631437D01*
X74906148Y-86631437D01*
X74906146Y-86631437D01*
X74776379Y-86671464D01*
X74776377Y-86671464D01*
X74776377Y-86671465D01*
X74724766Y-86706653D01*
X74664168Y-86747968D01*
X74579497Y-86854143D01*
X74579497Y-86854144D01*
X74566756Y-86881917D01*
X74566753Y-86881923D01*
X74566753Y-86881925D01*
X74487535Y-87108317D01*
X74233653Y-87833870D01*
X74226298Y-87863529D01*
X74226298Y-87863530D01*
X74226298Y-87999334D01*
X74266327Y-88129104D01*
X74342828Y-88241311D01*
X74449004Y-88325983D01*
X74476787Y-88338728D01*
X75239947Y-88605770D01*
X75239960Y-88605773D01*
X75239962Y-88605774D01*
X75268781Y-88612920D01*
X75269614Y-88613127D01*
X75269618Y-88613127D01*
X75405416Y-88613127D01*
X75405418Y-88613127D01*
X75535189Y-88573099D01*
X75647396Y-88496597D01*
X75679041Y-88456915D01*
X75736229Y-88416775D01*
X75775988Y-88410228D01*
X75807544Y-88410228D01*
X75874583Y-88429913D01*
X75920338Y-88482717D01*
X75930282Y-88551875D01*
X75925908Y-88571183D01*
X75720991Y-89227381D01*
X75703888Y-89282148D01*
X75458183Y-90192592D01*
X75421711Y-90252187D01*
X75358809Y-90282603D01*
X75289449Y-90274183D01*
X75235651Y-90229601D01*
X75215246Y-90174166D01*
X75210875Y-90135371D01*
X75200866Y-90046536D01*
X75146559Y-89922063D01*
X75057976Y-89819127D01*
X74942987Y-89746875D01*
X74913952Y-89737321D01*
X74799868Y-89711282D01*
X74125686Y-89557404D01*
X74095392Y-89553416D01*
X74095381Y-89553416D01*
X73960441Y-89568620D01*
X73960435Y-89568621D01*
X73835967Y-89622926D01*
X73835962Y-89622929D01*
X73733028Y-89711511D01*
X73660775Y-89826502D01*
X73651220Y-89855540D01*
X73426803Y-90838777D01*
X73422813Y-90869086D01*
X73422813Y-90869092D01*
X73438017Y-91004031D01*
X73438018Y-91004037D01*
X73489085Y-91121083D01*
X73492325Y-91128509D01*
X73580908Y-91231445D01*
X73695897Y-91303697D01*
X73724932Y-91313251D01*
X74513192Y-91493166D01*
X74513193Y-91493166D01*
X74513197Y-91493167D01*
X74531958Y-91495636D01*
X74543497Y-91497156D01*
X74678447Y-91481951D01*
X74802920Y-91427644D01*
X74905856Y-91339060D01*
X74914102Y-91325936D01*
X74936032Y-91291037D01*
X74988366Y-91244746D01*
X75041025Y-91233009D01*
X75067811Y-91233009D01*
X75134850Y-91252694D01*
X75180605Y-91305498D01*
X75190549Y-91374656D01*
X75189686Y-91379868D01*
X75027873Y-92242586D01*
X74908918Y-93049773D01*
X74879670Y-93113226D01*
X74820759Y-93150793D01*
X74750890Y-93150548D01*
X74692245Y-93112567D01*
X74665352Y-93059287D01*
X74664352Y-93054907D01*
X74635672Y-92929249D01*
X74567770Y-92811639D01*
X74468218Y-92719269D01*
X74468217Y-92719268D01*
X74373356Y-92673586D01*
X74345863Y-92660346D01*
X74345861Y-92660345D01*
X74345860Y-92660345D01*
X74315943Y-92654103D01*
X74315929Y-92654101D01*
X73512507Y-92563577D01*
X73512481Y-92563575D01*
X73481932Y-92563004D01*
X73481931Y-92563004D01*
X73349535Y-92593222D01*
X73349533Y-92593223D01*
X73231924Y-92661123D01*
X73231923Y-92661125D01*
X73139552Y-92760677D01*
X73080631Y-92883028D01*
X73080629Y-92883034D01*
X73074385Y-92912955D01*
X73074384Y-92912958D01*
X72961466Y-93915134D01*
X72961465Y-93915152D01*
X72960894Y-93945703D01*
X72960895Y-93945706D01*
X72991114Y-94078105D01*
X72996841Y-94088024D01*
X73059014Y-94195713D01*
X73059015Y-94195713D01*
X73059016Y-94195715D01*
X73158568Y-94288085D01*
X73280923Y-94347008D01*
X73310845Y-94353251D01*
X74114293Y-94443778D01*
X74144854Y-94444350D01*
X74277253Y-94414131D01*
X74394863Y-94346229D01*
X74487233Y-94246677D01*
X74510304Y-94198768D01*
X74557126Y-94146910D01*
X74622024Y-94128571D01*
X74640991Y-94128571D01*
X74640991Y-94130489D01*
X74699038Y-94138829D01*
X74751847Y-94184579D01*
X74771538Y-94251616D01*
X74771250Y-94260070D01*
X74702898Y-95261788D01*
X74682941Y-95948821D01*
X74661318Y-96015260D01*
X74607208Y-96059463D01*
X74537789Y-96067394D01*
X74475103Y-96036536D01*
X74441952Y-95986175D01*
X74405435Y-95881815D01*
X74396793Y-95857118D01*
X74316150Y-95747850D01*
X74206882Y-95667207D01*
X74206880Y-95667206D01*
X74078700Y-95622353D01*
X74048270Y-95619500D01*
X74048266Y-95619500D01*
X73239734Y-95619500D01*
X73239730Y-95619500D01*
X73209300Y-95622353D01*
X73209298Y-95622353D01*
X73081119Y-95667206D01*
X73081117Y-95667207D01*
X72971850Y-95747850D01*
X72891207Y-95857117D01*
X72891206Y-95857119D01*
X72846353Y-95985298D01*
X72846353Y-95985300D01*
X72843500Y-96015730D01*
X72843500Y-97024269D01*
X72846353Y-97054699D01*
X72846353Y-97054701D01*
X72891206Y-97182879D01*
X72891207Y-97182882D01*
X72971850Y-97292150D01*
X73081118Y-97372793D01*
X73123845Y-97387744D01*
X73209299Y-97417646D01*
X73239730Y-97420500D01*
X73239734Y-97420500D01*
X74048270Y-97420500D01*
X74078699Y-97417646D01*
X74078701Y-97417646D01*
X74142790Y-97395219D01*
X74206882Y-97372793D01*
X74316150Y-97292150D01*
X74396793Y-97182882D01*
X74414886Y-97131173D01*
X74455607Y-97074397D01*
X74496993Y-97053150D01*
X74523503Y-97045366D01*
X74593373Y-97045366D01*
X74652151Y-97083140D01*
X74681176Y-97146696D01*
X74682432Y-97163095D01*
X74683676Y-97286770D01*
X74733428Y-98298276D01*
X74782531Y-98853310D01*
X74768830Y-98921823D01*
X74720264Y-98972053D01*
X74652251Y-98988052D01*
X74586384Y-98964741D01*
X74547293Y-98918039D01*
X74487233Y-98793323D01*
X74448811Y-98751914D01*
X74394863Y-98693771D01*
X74394861Y-98693770D01*
X74394861Y-98693769D01*
X74324980Y-98653424D01*
X74277253Y-98625869D01*
X74277251Y-98625868D01*
X74277250Y-98625868D01*
X74147364Y-98596223D01*
X74144854Y-98595650D01*
X74144853Y-98595650D01*
X74114304Y-98596221D01*
X74114278Y-98596223D01*
X73310856Y-98686747D01*
X73310842Y-98686749D01*
X73280925Y-98692991D01*
X73280923Y-98692992D01*
X73158568Y-98751914D01*
X73059016Y-98844285D01*
X73059014Y-98844286D01*
X72991114Y-98961895D01*
X72991113Y-98961897D01*
X72960895Y-99094292D01*
X72960894Y-99094296D01*
X72961465Y-99124847D01*
X72961466Y-99124865D01*
X73074384Y-100127041D01*
X73074385Y-100127044D01*
X73080629Y-100156965D01*
X73080631Y-100156971D01*
X73139552Y-100279322D01*
X73139553Y-100279323D01*
X73231923Y-100378875D01*
X73231924Y-100378876D01*
X73266864Y-100399048D01*
X73349533Y-100446777D01*
X73481932Y-100476996D01*
X73512493Y-100476424D01*
X74315941Y-100385897D01*
X74345863Y-100379654D01*
X74468218Y-100320731D01*
X74567770Y-100228361D01*
X74635672Y-100110751D01*
X74648170Y-100055990D01*
X74682278Y-99995012D01*
X74734123Y-99964605D01*
X74761127Y-99956676D01*
X74830993Y-99956676D01*
X74889772Y-99994450D01*
X74918798Y-100058005D01*
X74919056Y-100059907D01*
X74940623Y-100228361D01*
X74951279Y-100311597D01*
X75119044Y-101310334D01*
X75200469Y-101700940D01*
X75205869Y-101726841D01*
X75200279Y-101796487D01*
X75157924Y-101852055D01*
X75092250Y-101875902D01*
X75024108Y-101860458D01*
X74979484Y-101818118D01*
X74965118Y-101795255D01*
X74905856Y-101700940D01*
X74802920Y-101612356D01*
X74802917Y-101612354D01*
X74802916Y-101612354D01*
X74678448Y-101558049D01*
X74678442Y-101558048D01*
X74543502Y-101542844D01*
X74543491Y-101542844D01*
X74513197Y-101546832D01*
X73724940Y-101726747D01*
X73724938Y-101726747D01*
X73724932Y-101726749D01*
X73705836Y-101733032D01*
X73695896Y-101736303D01*
X73580907Y-101808555D01*
X73492326Y-101911489D01*
X73492323Y-101911494D01*
X73438018Y-102035962D01*
X73438017Y-102035968D01*
X73422813Y-102170907D01*
X73422813Y-102170913D01*
X73422813Y-102170914D01*
X73426802Y-102201219D01*
X73482668Y-102445983D01*
X73651220Y-103184459D01*
X73651222Y-103184465D01*
X73660776Y-103213500D01*
X73733028Y-103328488D01*
X73835964Y-103417072D01*
X73960437Y-103471379D01*
X74095387Y-103486584D01*
X74114153Y-103484113D01*
X74125686Y-103482595D01*
X74125688Y-103482594D01*
X74125692Y-103482594D01*
X74913952Y-103302679D01*
X74942987Y-103293125D01*
X75057976Y-103220873D01*
X75146559Y-103117937D01*
X75200866Y-102993464D01*
X75206544Y-102943061D01*
X75233609Y-102878651D01*
X75268778Y-102851477D01*
X75267979Y-102850233D01*
X75275439Y-102845438D01*
X75275441Y-102845438D01*
X75290242Y-102835925D01*
X75357281Y-102816241D01*
X75424320Y-102835925D01*
X75470075Y-102888729D01*
X75477590Y-102910211D01*
X75570974Y-103284334D01*
X75854448Y-104256581D01*
X75947082Y-104533522D01*
X75949680Y-104603344D01*
X75914117Y-104663486D01*
X75851685Y-104694854D01*
X75782204Y-104687489D01*
X75732538Y-104650169D01*
X75732068Y-104649580D01*
X75732068Y-104649579D01*
X75647396Y-104543403D01*
X75535189Y-104466901D01*
X75531863Y-104465875D01*
X75405419Y-104426873D01*
X75405418Y-104426873D01*
X75269614Y-104426873D01*
X75269610Y-104426873D01*
X75239962Y-104434225D01*
X75239960Y-104434226D01*
X75239952Y-104434228D01*
X75239947Y-104434230D01*
X74476787Y-104701272D01*
X74476785Y-104701272D01*
X74476779Y-104701275D01*
X74449004Y-104714016D01*
X74342829Y-104798688D01*
X74266326Y-104910897D01*
X74226298Y-105040666D01*
X74226298Y-105176470D01*
X74233653Y-105206129D01*
X74233655Y-105206136D01*
X74233656Y-105206138D01*
X74566753Y-106158075D01*
X74566755Y-106158080D01*
X74566756Y-106158082D01*
X74579497Y-106185855D01*
X74579497Y-106185856D01*
X74579498Y-106185857D01*
X74664170Y-106292033D01*
X74776377Y-106368535D01*
X74906148Y-106408563D01*
X74906150Y-106408563D01*
X75041948Y-106408563D01*
X75041952Y-106408563D01*
X75071619Y-106401206D01*
X75834779Y-106134164D01*
X75862562Y-106121419D01*
X75968738Y-106036747D01*
X76045239Y-105924540D01*
X76085268Y-105794770D01*
X76085268Y-105738171D01*
X76104953Y-105671132D01*
X76142227Y-105633857D01*
X76167272Y-105617761D01*
X76234311Y-105598075D01*
X76301351Y-105617759D01*
X76347107Y-105670562D01*
X76350282Y-105678174D01*
X76456437Y-105958593D01*
X76534249Y-106164142D01*
X76929537Y-107096541D01*
X76988381Y-107221511D01*
X76996335Y-107238402D01*
X77007084Y-107307439D01*
X76978803Y-107371330D01*
X76920470Y-107409787D01*
X76850605Y-107410603D01*
X76796468Y-107378907D01*
X76702529Y-107284968D01*
X76702528Y-107284967D01*
X76627250Y-107245181D01*
X76582465Y-107221511D01*
X76582455Y-107221508D01*
X76449024Y-107196262D01*
X76314080Y-107211466D01*
X76314078Y-107211466D01*
X76285415Y-107222102D01*
X75556953Y-107572911D01*
X75530774Y-107588686D01*
X75434747Y-107684712D01*
X75371289Y-107804779D01*
X75371287Y-107804786D01*
X75346041Y-107938216D01*
X75361248Y-108073164D01*
X75361248Y-108073166D01*
X75371879Y-108101820D01*
X75371884Y-108101832D01*
X75809464Y-109010478D01*
X75825241Y-109036660D01*
X75825242Y-109036661D01*
X75921270Y-109132689D01*
X76041336Y-109196146D01*
X76174773Y-109221393D01*
X76309717Y-109206189D01*
X76309719Y-109206189D01*
X76309721Y-109206188D01*
X76309723Y-109206188D01*
X76338380Y-109195555D01*
X77066842Y-108844746D01*
X77093023Y-108828970D01*
X77189051Y-108732943D01*
X77252509Y-108612876D01*
X77277756Y-108479439D01*
X77271727Y-108425937D01*
X77283780Y-108357117D01*
X77327907Y-108307738D01*
X77341515Y-108298994D01*
X77341517Y-108298991D01*
X77348978Y-108294197D01*
X77350243Y-108296166D01*
X77402235Y-108272419D01*
X77471394Y-108282358D01*
X77524201Y-108328110D01*
X77529923Y-108337984D01*
X77827870Y-108911456D01*
X78247947Y-109648114D01*
X78329542Y-109791200D01*
X78339957Y-109807911D01*
X78358710Y-109875217D01*
X78338098Y-109941977D01*
X78284665Y-109986996D01*
X78215375Y-109995979D01*
X78157409Y-109970445D01*
X78057985Y-109891157D01*
X78057984Y-109891156D01*
X77976315Y-109859103D01*
X77931565Y-109841540D01*
X77931567Y-109841540D01*
X77796144Y-109831391D01*
X77663743Y-109861612D01*
X77636457Y-109875385D01*
X76951849Y-110305553D01*
X76951848Y-110305554D01*
X76927604Y-110324157D01*
X76927602Y-110324159D01*
X76842931Y-110430334D01*
X76842928Y-110430339D01*
X76793315Y-110556751D01*
X76783166Y-110692175D01*
X76811568Y-110816607D01*
X76813387Y-110824575D01*
X76827162Y-110851861D01*
X77130997Y-111335413D01*
X77363735Y-111705813D01*
X77363736Y-111705814D01*
X77382339Y-111730058D01*
X77382342Y-111730061D01*
X77465958Y-111796743D01*
X77488516Y-111814732D01*
X77614933Y-111864347D01*
X77614932Y-111864347D01*
X77750355Y-111874496D01*
X77750355Y-111874495D01*
X77750357Y-111874496D01*
X77882756Y-111844276D01*
X77910043Y-111830502D01*
X78594647Y-111400337D01*
X78618897Y-111381729D01*
X78703569Y-111275553D01*
X78753184Y-111149137D01*
X78763333Y-111013712D01*
X78751280Y-110960906D01*
X78755553Y-110891169D01*
X78778458Y-110852112D01*
X78798117Y-110829423D01*
X78856894Y-110791649D01*
X78926764Y-110791649D01*
X78985542Y-110829423D01*
X78994416Y-110840970D01*
X79434064Y-111488534D01*
X79947262Y-112184280D01*
X79974191Y-112220787D01*
X79998144Y-112286422D01*
X79982811Y-112354588D01*
X79933057Y-112403643D01*
X79864681Y-112418012D01*
X79808429Y-112399388D01*
X79696716Y-112329193D01*
X79565535Y-112294044D01*
X79429830Y-112299122D01*
X79301647Y-112343976D01*
X79301642Y-112343979D01*
X79276075Y-112360718D01*
X78643935Y-112864834D01*
X78621925Y-112886036D01*
X78549671Y-113001028D01*
X78514522Y-113132203D01*
X78519601Y-113267909D01*
X78519601Y-113267911D01*
X78519602Y-113267912D01*
X78562309Y-113389963D01*
X78564456Y-113396097D01*
X78581196Y-113421666D01*
X78749414Y-113632604D01*
X79210008Y-114210170D01*
X79231214Y-114232184D01*
X79346202Y-114304436D01*
X79477379Y-114339585D01*
X79613088Y-114334507D01*
X79741271Y-114289653D01*
X79766844Y-114272910D01*
X80398979Y-113768799D01*
X80420993Y-113747593D01*
X80493246Y-113632604D01*
X80528395Y-113501428D01*
X80526173Y-113442069D01*
X80523316Y-113365718D01*
X80504680Y-113312460D01*
X80501117Y-113242681D01*
X80528004Y-113190306D01*
X80545709Y-113169874D01*
X80604483Y-113132102D01*
X80674353Y-113132102D01*
X80733131Y-113169875D01*
X80733155Y-113169903D01*
X81330765Y-113859972D01*
X81866274Y-114431572D01*
X81897743Y-114493954D01*
X81890490Y-114563446D01*
X81846819Y-114617986D01*
X81780593Y-114640257D01*
X81721981Y-114628070D01*
X81598122Y-114568423D01*
X81463833Y-114548182D01*
X81329546Y-114568423D01*
X81207191Y-114627345D01*
X81183649Y-114646851D01*
X80611939Y-115218561D01*
X80592433Y-115242103D01*
X80535664Y-115359987D01*
X80533511Y-115364458D01*
X80513270Y-115498745D01*
X80533511Y-115633033D01*
X80545637Y-115658212D01*
X80592433Y-115755387D01*
X80592434Y-115755388D01*
X80611935Y-115778925D01*
X81325075Y-116492065D01*
X81348612Y-116511566D01*
X81470967Y-116570489D01*
X81605255Y-116590730D01*
X81739542Y-116570489D01*
X81861897Y-116511566D01*
X81885434Y-116492065D01*
X82457153Y-115920346D01*
X82476654Y-115896809D01*
X82535577Y-115774454D01*
X82555818Y-115640167D01*
X82535577Y-115505879D01*
X82513570Y-115460182D01*
X82502219Y-115391243D01*
X82520980Y-115339335D01*
X82522769Y-115336549D01*
X82522777Y-115336541D01*
X82526016Y-115329447D01*
X82571770Y-115276643D01*
X82638809Y-115256958D01*
X82705849Y-115276642D01*
X82725920Y-115292708D01*
X82743911Y-115310466D01*
X83491916Y-115993189D01*
X83992650Y-116415559D01*
X84031202Y-116473830D01*
X84032131Y-116543694D01*
X83995141Y-116602969D01*
X83931976Y-116632836D01*
X83871745Y-116627384D01*
X83738282Y-116580683D01*
X83738283Y-116580683D01*
X83602573Y-116575604D01*
X83471398Y-116610753D01*
X83356406Y-116683007D01*
X83335204Y-116705017D01*
X82831088Y-117337157D01*
X82814349Y-117362724D01*
X82814346Y-117362729D01*
X82769492Y-117490912D01*
X82764414Y-117626618D01*
X82799564Y-117757799D01*
X82868527Y-117867552D01*
X82871816Y-117872786D01*
X82893830Y-117893992D01*
X83437122Y-118327253D01*
X83682333Y-118522803D01*
X83705496Y-118537968D01*
X83707905Y-118539545D01*
X83836088Y-118584398D01*
X83903943Y-118586937D01*
X83971796Y-118589477D01*
X83971796Y-118589476D01*
X83971798Y-118589477D01*
X84102974Y-118554328D01*
X84217963Y-118482075D01*
X84239169Y-118460061D01*
X84743280Y-117827926D01*
X84760023Y-117802353D01*
X84804877Y-117674170D01*
X84809955Y-117538461D01*
X84774806Y-117407284D01*
X84744797Y-117359526D01*
X84725797Y-117292291D01*
X84736995Y-117242046D01*
X84749014Y-117215730D01*
X84794767Y-117162929D01*
X84861806Y-117143245D01*
X84928846Y-117162930D01*
X84937990Y-117169409D01*
X85041435Y-117249961D01*
X85065076Y-117268370D01*
X85887827Y-117858879D01*
X86326320Y-118148321D01*
X86371424Y-118201680D01*
X86380521Y-118270955D01*
X86350721Y-118334151D01*
X86291485Y-118371204D01*
X86230525Y-118370457D01*
X86230044Y-118372566D01*
X86090286Y-118340666D01*
X85954863Y-118350815D01*
X85828451Y-118400428D01*
X85828446Y-118400431D01*
X85722271Y-118485102D01*
X85722269Y-118485104D01*
X85703666Y-118509348D01*
X85703665Y-118509349D01*
X85273497Y-119193957D01*
X85259724Y-119221243D01*
X85229503Y-119353644D01*
X85239652Y-119489066D01*
X85289268Y-119615483D01*
X85289269Y-119615486D01*
X85373938Y-119721657D01*
X85373940Y-119721659D01*
X85398190Y-119740267D01*
X86252139Y-120276838D01*
X86279425Y-120290613D01*
X86411824Y-120320833D01*
X86547249Y-120310684D01*
X86673665Y-120261069D01*
X86779841Y-120176397D01*
X86798449Y-120152147D01*
X87228614Y-119467543D01*
X87242388Y-119440256D01*
X87272608Y-119307857D01*
X87267681Y-119242119D01*
X87262459Y-119172433D01*
X87212844Y-119046016D01*
X87178899Y-119003451D01*
X87152491Y-118938765D01*
X87163051Y-118874629D01*
X87172306Y-118854365D01*
X87172306Y-118854360D01*
X87175866Y-118846567D01*
X87221622Y-118793764D01*
X87288661Y-118774080D01*
X87352874Y-118792002D01*
X87488738Y-118874246D01*
X87599388Y-118941227D01*
X88485582Y-119431412D01*
X88837649Y-119608549D01*
X88888687Y-119656264D01*
X88905828Y-119723998D01*
X88883627Y-119790247D01*
X88829134Y-119833976D01*
X88767208Y-119840504D01*
X88767007Y-119842295D01*
X88759510Y-119841450D01*
X88736581Y-119838866D01*
X88624560Y-119826243D01*
X88491130Y-119851489D01*
X88491123Y-119851491D01*
X88371056Y-119914949D01*
X88275030Y-120010976D01*
X88259255Y-120037155D01*
X87908446Y-120765617D01*
X87897810Y-120794280D01*
X87897810Y-120794282D01*
X87882606Y-120929225D01*
X87882606Y-120929227D01*
X87907852Y-121062657D01*
X87907855Y-121062667D01*
X87971309Y-121182726D01*
X87971312Y-121182731D01*
X88067339Y-121278758D01*
X88093521Y-121294535D01*
X89002167Y-121732115D01*
X89002172Y-121732117D01*
X89002176Y-121732119D01*
X89030834Y-121742752D01*
X89165783Y-121757958D01*
X89299220Y-121732711D01*
X89419287Y-121669253D01*
X89515314Y-121573225D01*
X89531090Y-121547044D01*
X89744238Y-121104436D01*
X89791060Y-121052577D01*
X89858487Y-121034264D01*
X89925111Y-121055312D01*
X89968752Y-121106725D01*
X89985287Y-121142930D01*
X89994623Y-121163373D01*
X90088872Y-121272143D01*
X90209947Y-121349953D01*
X90209948Y-121349953D01*
X90210281Y-121350167D01*
X90256036Y-121402971D01*
X90265980Y-121472130D01*
X90236955Y-121535685D01*
X90224649Y-121548018D01*
X90064736Y-121687197D01*
X90043243Y-121708932D01*
X89892700Y-121885854D01*
X89892698Y-121885857D01*
X89874691Y-121910542D01*
X89874687Y-121910549D01*
X89874686Y-121910550D01*
X89752196Y-122107930D01*
X89752195Y-122107931D01*
X89738066Y-122135031D01*
X89738066Y-122135030D01*
X89646359Y-122348470D01*
X89646359Y-122348471D01*
X89636431Y-122377357D01*
X89636428Y-122377367D01*
X89577556Y-122602096D01*
X89572044Y-122632148D01*
X89547323Y-122863142D01*
X89546612Y-122885495D01*
X89546351Y-122893680D01*
X89556333Y-123125772D01*
X89556334Y-123125772D01*
X89556334Y-123125780D01*
X89559924Y-123156121D01*
X89559925Y-123156130D01*
X89559926Y-123156132D01*
X89559926Y-123156133D01*
X89563293Y-123173405D01*
X89556802Y-123242972D01*
X89513729Y-123297986D01*
X89447752Y-123320981D01*
X89406651Y-123316111D01*
X89281963Y-123279500D01*
X89281961Y-123279500D01*
X89138039Y-123279500D01*
X89138036Y-123279500D01*
X88999949Y-123320045D01*
X88991882Y-123323730D01*
X88990749Y-123321250D01*
X88937186Y-123336967D01*
X88870150Y-123317270D01*
X88824404Y-123264458D01*
X88820166Y-123253921D01*
X88819900Y-123253163D01*
X88082429Y-122898016D01*
X88082428Y-122898016D01*
X87017964Y-122385396D01*
X87017963Y-122385396D01*
X86955893Y-122514288D01*
X86955889Y-122514297D01*
X86927107Y-122598524D01*
X86927106Y-122598529D01*
X86916053Y-122749311D01*
X86916053Y-122749316D01*
X86946091Y-122897489D01*
X87004843Y-123012243D01*
X87017873Y-123080887D01*
X86991723Y-123145678D01*
X86934695Y-123186047D01*
X86864895Y-123189175D01*
X86839514Y-123179911D01*
X86801848Y-123161289D01*
X85844346Y-122643864D01*
X85331732Y-122342326D01*
X85283929Y-122291369D01*
X85271264Y-122222656D01*
X85297759Y-122158005D01*
X85355000Y-122117940D01*
X85383728Y-122111924D01*
X85505343Y-122101216D01*
X85505347Y-122101216D01*
X85646785Y-122047818D01*
X85646790Y-122047816D01*
X85768586Y-121958232D01*
X85787463Y-121934913D01*
X87234904Y-121934913D01*
X87923219Y-122266387D01*
X87923221Y-122266388D01*
X89036842Y-122802679D01*
X89098912Y-122673794D01*
X89098913Y-122673789D01*
X89127701Y-122589550D01*
X89127701Y-122589548D01*
X89138754Y-122438766D01*
X89138754Y-122438761D01*
X89108716Y-122290588D01*
X89039813Y-122156006D01*
X89039812Y-122156005D01*
X88937156Y-122045007D01*
X88862129Y-121997097D01*
X87973665Y-121569234D01*
X87889430Y-121540449D01*
X87738646Y-121529397D01*
X87738640Y-121529397D01*
X87590468Y-121559435D01*
X87455886Y-121628338D01*
X87455885Y-121628339D01*
X87344888Y-121730995D01*
X87344887Y-121730996D01*
X87296981Y-121806011D01*
X87296978Y-121806016D01*
X87234904Y-121934912D01*
X87234904Y-121934913D01*
X85787463Y-121934913D01*
X85824595Y-121889043D01*
X85900707Y-121767911D01*
X85265665Y-121368887D01*
X84207258Y-120703847D01*
X84131143Y-120824984D01*
X84093111Y-120905461D01*
X84093110Y-120905465D01*
X84065244Y-121054056D01*
X84065244Y-121054068D01*
X84078503Y-121204675D01*
X84124069Y-121325369D01*
X84129331Y-121395040D01*
X84096091Y-121456497D01*
X84034902Y-121490226D01*
X83965191Y-121485520D01*
X83937606Y-121471205D01*
X83093175Y-120888150D01*
X82535558Y-120472466D01*
X82493574Y-120416617D01*
X82488450Y-120346935D01*
X82521812Y-120285545D01*
X82531038Y-120280483D01*
X84473275Y-120280483D01*
X85108319Y-120679509D01*
X86166724Y-121344547D01*
X86242837Y-121223414D01*
X86280873Y-121142931D01*
X86280873Y-121142930D01*
X86308739Y-120994339D01*
X86308739Y-120994327D01*
X86295480Y-120843720D01*
X86242080Y-120702278D01*
X86242079Y-120702275D01*
X86152495Y-120580480D01*
X86083307Y-120524470D01*
X86083305Y-120524469D01*
X85248329Y-119999818D01*
X85248330Y-119999818D01*
X85167852Y-119961786D01*
X85167848Y-119961785D01*
X85019256Y-119933919D01*
X85019244Y-119933919D01*
X84868640Y-119947179D01*
X84868636Y-119947179D01*
X84727198Y-120000577D01*
X84727193Y-120000579D01*
X84605397Y-120090163D01*
X84549388Y-120159351D01*
X84473275Y-120280483D01*
X82531038Y-120280483D01*
X82583068Y-120251937D01*
X82612693Y-120249087D01*
X82735969Y-120252094D01*
X82882501Y-120214868D01*
X83013563Y-120139482D01*
X83076969Y-120076997D01*
X83166162Y-119965150D01*
X82518882Y-119448960D01*
X82518873Y-119448953D01*
X81602500Y-118718171D01*
X81513301Y-118830024D01*
X81466496Y-118905737D01*
X81422166Y-119050283D01*
X81422166Y-119050286D01*
X81418478Y-119201430D01*
X81418479Y-119201439D01*
X81449776Y-119324630D01*
X81447205Y-119394452D01*
X81407292Y-119451800D01*
X81342711Y-119478466D01*
X81273966Y-119465984D01*
X81248471Y-119448943D01*
X80549054Y-118843909D01*
X79993862Y-118327255D01*
X81914246Y-118327255D01*
X82517082Y-118808001D01*
X82517092Y-118808009D01*
X83477909Y-119574234D01*
X83567105Y-119462385D01*
X83567106Y-119462384D01*
X83613914Y-119386665D01*
X83658243Y-119242122D01*
X83658243Y-119242119D01*
X83661931Y-119090975D01*
X83661930Y-119090968D01*
X83624703Y-118944438D01*
X83549318Y-118813376D01*
X83486837Y-118749975D01*
X82715855Y-118135136D01*
X82715854Y-118135135D01*
X82640135Y-118088327D01*
X82495590Y-118043998D01*
X82344441Y-118040311D01*
X82197908Y-118077537D01*
X82066846Y-118152923D01*
X82003444Y-118215405D01*
X81914246Y-118327255D01*
X79993862Y-118327255D01*
X79965770Y-118301113D01*
X79930104Y-118241035D01*
X79932581Y-118171209D01*
X79972416Y-118113807D01*
X80036960Y-118087054D01*
X80067130Y-118087495D01*
X80191040Y-118104526D01*
X80340823Y-118083938D01*
X80479498Y-118023705D01*
X80549500Y-117968712D01*
X80549501Y-117968711D01*
X80650659Y-117867552D01*
X79236447Y-116453340D01*
X79135288Y-116554498D01*
X79135287Y-116554499D01*
X79080294Y-116624501D01*
X79020061Y-116763176D01*
X78999474Y-116912958D01*
X78999474Y-116912960D01*
X79016597Y-117037542D01*
X79006224Y-117106637D01*
X78960142Y-117159156D01*
X78892982Y-117178424D01*
X78826066Y-117158323D01*
X78802918Y-117138837D01*
X78775184Y-117108993D01*
X78242105Y-116535347D01*
X78106643Y-116378532D01*
X77865854Y-116099787D01*
X79590000Y-116099787D01*
X81004212Y-117513999D01*
X81105371Y-117412841D01*
X81105372Y-117412840D01*
X81160365Y-117342838D01*
X81220598Y-117204163D01*
X81241186Y-117054381D01*
X81241186Y-117054380D01*
X81220598Y-116904594D01*
X81160366Y-116765926D01*
X81160365Y-116765924D01*
X81105364Y-116695911D01*
X80408088Y-115998635D01*
X80338075Y-115943634D01*
X80338073Y-115943633D01*
X80199405Y-115883401D01*
X80049619Y-115862814D01*
X79899836Y-115883401D01*
X79761161Y-115943634D01*
X79691159Y-115998627D01*
X79691158Y-115998628D01*
X79590000Y-116099787D01*
X77865854Y-116099787D01*
X77654743Y-115855398D01*
X77625815Y-115791798D01*
X77635864Y-115722655D01*
X77681700Y-115669921D01*
X77748770Y-115650339D01*
X77779113Y-115654157D01*
X77902562Y-115685520D01*
X77902569Y-115685521D01*
X78053713Y-115681833D01*
X78053716Y-115681833D01*
X78198259Y-115637504D01*
X78273978Y-115590696D01*
X78273979Y-115590695D01*
X78385828Y-115501499D01*
X77619603Y-114540682D01*
X77619603Y-114540681D01*
X77138848Y-113937834D01*
X77027002Y-114027030D01*
X76964517Y-114090436D01*
X76889131Y-114221498D01*
X76851905Y-114368031D01*
X76854951Y-114492919D01*
X76836907Y-114560419D01*
X76785234Y-114607447D01*
X76716338Y-114619074D01*
X76652094Y-114591607D01*
X76631522Y-114569986D01*
X76199643Y-113989797D01*
X75948888Y-113626090D01*
X77529765Y-113626090D01*
X78260547Y-114542463D01*
X78260547Y-114542464D01*
X78776744Y-115189754D01*
X78776745Y-115189754D01*
X78888582Y-115100567D01*
X78888590Y-115100560D01*
X78951076Y-115037153D01*
X79026462Y-114906091D01*
X79063688Y-114759558D01*
X79060001Y-114608410D01*
X79060001Y-114608407D01*
X79015672Y-114463864D01*
X78968864Y-114388145D01*
X78968863Y-114388144D01*
X78354024Y-113617162D01*
X78290623Y-113554681D01*
X78159561Y-113479296D01*
X78013031Y-113442069D01*
X78013024Y-113442068D01*
X77861880Y-113445756D01*
X77861877Y-113445756D01*
X77717331Y-113490086D01*
X77641618Y-113536891D01*
X77529765Y-113626090D01*
X75948888Y-113626090D01*
X75631609Y-113165892D01*
X75609764Y-113099528D01*
X75627266Y-113031886D01*
X75678560Y-112984444D01*
X75747360Y-112972265D01*
X75777496Y-112979502D01*
X75899325Y-113025496D01*
X75899323Y-113025496D01*
X76049931Y-113038755D01*
X76049943Y-113038755D01*
X76198534Y-113010889D01*
X76198535Y-113010889D01*
X76279018Y-112972853D01*
X76400151Y-112896740D01*
X75735113Y-111838335D01*
X75336088Y-111203291D01*
X75214956Y-111279404D01*
X75145767Y-111335413D01*
X75056183Y-111457209D01*
X75056181Y-111457214D01*
X75002783Y-111598652D01*
X75002783Y-111598656D01*
X74991854Y-111722786D01*
X74966366Y-111787840D01*
X74909752Y-111828788D01*
X74839988Y-111832627D01*
X74779223Y-111798140D01*
X74761411Y-111774710D01*
X74445851Y-111237400D01*
X74283936Y-110937274D01*
X75759451Y-110937274D01*
X76363030Y-111897866D01*
X76823513Y-112630724D01*
X76823514Y-112630724D01*
X76944641Y-112554615D01*
X76944646Y-112554612D01*
X77013836Y-112498602D01*
X77103420Y-112376806D01*
X77103422Y-112376801D01*
X77156820Y-112235363D01*
X77156820Y-112235359D01*
X77170080Y-112084755D01*
X77170080Y-112084743D01*
X77142214Y-111936151D01*
X77142213Y-111936147D01*
X77104181Y-111855670D01*
X76579530Y-111020694D01*
X76579529Y-111020692D01*
X76523519Y-110951504D01*
X76401724Y-110861920D01*
X76401721Y-110861919D01*
X76260278Y-110808519D01*
X76260280Y-110808519D01*
X76109672Y-110795260D01*
X76109660Y-110795260D01*
X75961069Y-110823126D01*
X75961065Y-110823127D01*
X75880588Y-110861159D01*
X75759451Y-110937274D01*
X74283936Y-110937274D01*
X73929095Y-110279538D01*
X73920809Y-110262749D01*
X73908792Y-110193922D01*
X73935894Y-110129523D01*
X73993510Y-110089999D01*
X74063348Y-110087899D01*
X74088515Y-110097497D01*
X74206510Y-110157908D01*
X74354686Y-110187946D01*
X74505470Y-110176893D01*
X74505475Y-110176892D01*
X74589707Y-110148108D01*
X74718600Y-110086036D01*
X74182310Y-108972415D01*
X74182308Y-108972409D01*
X73850835Y-108284096D01*
X73850834Y-108284096D01*
X73721938Y-108346170D01*
X73721933Y-108346173D01*
X73646918Y-108394079D01*
X73646917Y-108394080D01*
X73544261Y-108505077D01*
X73544260Y-108505078D01*
X73475357Y-108639659D01*
X73450563Y-108761964D01*
X73417951Y-108823756D01*
X73357109Y-108858107D01*
X73287353Y-108854112D01*
X73230832Y-108813038D01*
X73215923Y-108788136D01*
X73001496Y-108310745D01*
X72902541Y-108067155D01*
X74301319Y-108067155D01*
X74813318Y-109130332D01*
X75169085Y-109869093D01*
X75169086Y-109869094D01*
X75297976Y-109807024D01*
X75373006Y-109759109D01*
X75475660Y-109648114D01*
X75475661Y-109648113D01*
X75544564Y-109513531D01*
X75574602Y-109365359D01*
X75574602Y-109365353D01*
X75563550Y-109214569D01*
X75534764Y-109130331D01*
X75106902Y-108241870D01*
X75058992Y-108166843D01*
X74947994Y-108064187D01*
X74947993Y-108064186D01*
X74813411Y-107995283D01*
X74665235Y-107965245D01*
X74514451Y-107976298D01*
X74514446Y-107976299D01*
X74430219Y-108005081D01*
X74430209Y-108005085D01*
X74301319Y-108067155D01*
X72902541Y-108067155D01*
X72591873Y-107302407D01*
X72551879Y-107192702D01*
X72547413Y-107122978D01*
X72581351Y-107061905D01*
X72642921Y-107028876D01*
X72712574Y-107034377D01*
X72736893Y-107046881D01*
X72845401Y-107118811D01*
X72845407Y-107118814D01*
X72989279Y-107165251D01*
X72989287Y-107165252D01*
X73140361Y-107171151D01*
X73227300Y-107151976D01*
X73362323Y-107104729D01*
X73056830Y-106231676D01*
X73586557Y-106231676D01*
X73834265Y-106939588D01*
X73969297Y-106892340D01*
X74049218Y-106853129D01*
X74163658Y-106754323D01*
X74163658Y-106754322D01*
X74247191Y-106628306D01*
X74247193Y-106628302D01*
X74293633Y-106484427D01*
X74293633Y-106484422D01*
X74299532Y-106333346D01*
X74299532Y-106333343D01*
X74280360Y-106246420D01*
X74280357Y-106246411D01*
X74200081Y-106016996D01*
X73586557Y-106231676D01*
X73056830Y-106231676D01*
X72949476Y-105924874D01*
X72701766Y-105216961D01*
X72566744Y-105264208D01*
X72566730Y-105264214D01*
X72486815Y-105303422D01*
X72372375Y-105402228D01*
X72372375Y-105402229D01*
X72288842Y-105528245D01*
X72288841Y-105528247D01*
X72250299Y-105647654D01*
X72210973Y-105705405D01*
X72146668Y-105732728D01*
X72077798Y-105720947D01*
X72026231Y-105673803D01*
X72014330Y-105647780D01*
X72009819Y-105633857D01*
X71883678Y-105244484D01*
X71828902Y-105051822D01*
X73173709Y-105051822D01*
X73421417Y-105759734D01*
X74034941Y-105545054D01*
X73954665Y-105315635D01*
X73915455Y-105235714D01*
X73816652Y-105121279D01*
X73690627Y-105037738D01*
X73690626Y-105037737D01*
X73546754Y-104991300D01*
X73546746Y-104991299D01*
X73395670Y-104985400D01*
X73308742Y-105004572D01*
X73173709Y-105051822D01*
X71828902Y-105051822D01*
X71586038Y-104197609D01*
X71534737Y-103988622D01*
X71537872Y-103918826D01*
X71578246Y-103861802D01*
X71643040Y-103835658D01*
X71711682Y-103848694D01*
X71734816Y-103864031D01*
X71833127Y-103946432D01*
X71970906Y-104008690D01*
X72120369Y-104031467D01*
X72208904Y-104022147D01*
X72348373Y-103990314D01*
X72348373Y-103990313D01*
X72181484Y-103259118D01*
X72156089Y-103147857D01*
X72668948Y-103147857D01*
X72835837Y-103879052D01*
X72835838Y-103879052D01*
X72975304Y-103847221D01*
X72975315Y-103847218D01*
X73059120Y-103817203D01*
X73183900Y-103731832D01*
X73281020Y-103615961D01*
X73343279Y-103478182D01*
X73366056Y-103328717D01*
X73356736Y-103240182D01*
X73302651Y-103003219D01*
X73302650Y-103003219D01*
X72668948Y-103147856D01*
X72668948Y-103147857D01*
X72156089Y-103147857D01*
X71903333Y-102040458D01*
X71903332Y-102040458D01*
X71763861Y-102072291D01*
X71680051Y-102102308D01*
X71555271Y-102187679D01*
X71458149Y-102303552D01*
X71406004Y-102418948D01*
X71360460Y-102471934D01*
X71293499Y-102491885D01*
X71226382Y-102472467D01*
X71180417Y-102419846D01*
X71171588Y-102393058D01*
X71170848Y-102389490D01*
X71105632Y-102074923D01*
X71080897Y-101929197D01*
X72390797Y-101929197D01*
X72557686Y-102660392D01*
X72557687Y-102660392D01*
X73191389Y-102515755D01*
X73191389Y-102515754D01*
X73137304Y-102278787D01*
X73137303Y-102278784D01*
X73107288Y-102194979D01*
X73021917Y-102070201D01*
X73021917Y-102070200D01*
X72906044Y-101973079D01*
X72768265Y-101910821D01*
X72618802Y-101888044D01*
X72530267Y-101897364D01*
X72390797Y-101929196D01*
X72390797Y-101929197D01*
X71080897Y-101929197D01*
X70923500Y-101001906D01*
X70882219Y-100690627D01*
X70892920Y-100621583D01*
X70939250Y-100569284D01*
X71006501Y-100550334D01*
X71073321Y-100570752D01*
X71094937Y-100588811D01*
X71182407Y-100680656D01*
X71182409Y-100680658D01*
X71312348Y-100757950D01*
X71312355Y-100757953D01*
X71458321Y-100797320D01*
X71458327Y-100797321D01*
X71547345Y-100797971D01*
X71689503Y-100781953D01*
X71689504Y-100781953D01*
X71605532Y-100036669D01*
X71599224Y-99980688D01*
X72102387Y-99980688D01*
X72186360Y-100725970D01*
X72186361Y-100725971D01*
X72328521Y-100709954D01*
X72415162Y-100689510D01*
X72548718Y-100618646D01*
X72548723Y-100618642D01*
X72658202Y-100514377D01*
X72735493Y-100384439D01*
X72735496Y-100384432D01*
X72774864Y-100238461D01*
X72775514Y-100149440D01*
X72748301Y-99907911D01*
X72748300Y-99907910D01*
X72102388Y-99980687D01*
X72102387Y-99980688D01*
X71599224Y-99980688D01*
X71465576Y-98794530D01*
X71465575Y-98794529D01*
X71323423Y-98810547D01*
X71323409Y-98810549D01*
X71236775Y-98830991D01*
X71103219Y-98901855D01*
X71103214Y-98901859D01*
X70993735Y-99006124D01*
X70928164Y-99116360D01*
X70876974Y-99163914D01*
X70808201Y-99176243D01*
X70743679Y-99149433D01*
X70703895Y-99091996D01*
X70698159Y-99064799D01*
X70676572Y-98839589D01*
X70670576Y-98738547D01*
X71962432Y-98738547D01*
X72046405Y-99483830D01*
X72046406Y-99483831D01*
X72692318Y-99411055D01*
X72692319Y-99411054D01*
X72665104Y-99169522D01*
X72644661Y-99082882D01*
X72573796Y-98949327D01*
X72573795Y-98949325D01*
X72469527Y-98839842D01*
X72339589Y-98762551D01*
X72339582Y-98762548D01*
X72193616Y-98723181D01*
X72193610Y-98723180D01*
X72104590Y-98722530D01*
X71962433Y-98738546D01*
X71962432Y-98738547D01*
X70670576Y-98738547D01*
X70612103Y-97753136D01*
X70606744Y-97520000D01*
X70602608Y-97340045D01*
X70620746Y-97272573D01*
X70672485Y-97225616D01*
X70741397Y-97214086D01*
X70805603Y-97241643D01*
X70825378Y-97262271D01*
X70901432Y-97362563D01*
X71021904Y-97453920D01*
X71162556Y-97509386D01*
X71250946Y-97520000D01*
X71394000Y-97520000D01*
X71394000Y-96770000D01*
X71894000Y-96770000D01*
X71894000Y-97520000D01*
X72037054Y-97520000D01*
X72125443Y-97509386D01*
X72266095Y-97453920D01*
X72386564Y-97362564D01*
X72477920Y-97242095D01*
X72533386Y-97101443D01*
X72544000Y-97013053D01*
X72544000Y-96770000D01*
X71894000Y-96770000D01*
X71394000Y-96770000D01*
X71394000Y-95520000D01*
X71894000Y-95520000D01*
X71894000Y-96270000D01*
X72544000Y-96270000D01*
X72544000Y-96026946D01*
X72533386Y-95938556D01*
X72477920Y-95797904D01*
X72386564Y-95677435D01*
X72266095Y-95586079D01*
X72125443Y-95530613D01*
X72037054Y-95520000D01*
X71894000Y-95520000D01*
X71394000Y-95520000D01*
X71250946Y-95520000D01*
X71162556Y-95530613D01*
X71021904Y-95586079D01*
X70901432Y-95677436D01*
X70822666Y-95781305D01*
X70766474Y-95822828D01*
X70696752Y-95827379D01*
X70635638Y-95793514D01*
X70602535Y-95731984D01*
X70599874Y-95704729D01*
X70600238Y-95677436D01*
X70601577Y-95576792D01*
X70655535Y-94489766D01*
X70671748Y-94301451D01*
X71962432Y-94301451D01*
X72104592Y-94317469D01*
X72193610Y-94316819D01*
X72193616Y-94316818D01*
X72339582Y-94277451D01*
X72339589Y-94277448D01*
X72469527Y-94200157D01*
X72573795Y-94090674D01*
X72573796Y-94090672D01*
X72644661Y-93957117D01*
X72665104Y-93870477D01*
X72692319Y-93628944D01*
X72692318Y-93628943D01*
X72046406Y-93556167D01*
X72046405Y-93556168D01*
X71962432Y-94301451D01*
X70671748Y-94301451D01*
X70699522Y-93978867D01*
X70724885Y-93913765D01*
X70781419Y-93872709D01*
X70851175Y-93868734D01*
X70912007Y-93903104D01*
X70929636Y-93926114D01*
X70993735Y-94033875D01*
X71103214Y-94138140D01*
X71103219Y-94138144D01*
X71236775Y-94209008D01*
X71323416Y-94229452D01*
X71465575Y-94245469D01*
X71465576Y-94245468D01*
X71599225Y-93059310D01*
X72102387Y-93059310D01*
X72102388Y-93059311D01*
X72748300Y-93132088D01*
X72748301Y-93132087D01*
X72775514Y-92890559D01*
X72774864Y-92801538D01*
X72735496Y-92655567D01*
X72735493Y-92655560D01*
X72658202Y-92525622D01*
X72548723Y-92421357D01*
X72548718Y-92421353D01*
X72415162Y-92350489D01*
X72328522Y-92330046D01*
X72186361Y-92314027D01*
X72186360Y-92314028D01*
X72102387Y-93059310D01*
X71599225Y-93059310D01*
X71605532Y-93003331D01*
X71689504Y-92258045D01*
X71689503Y-92258044D01*
X71547347Y-92242028D01*
X71458327Y-92242678D01*
X71458321Y-92242679D01*
X71312355Y-92282046D01*
X71312348Y-92282049D01*
X71182409Y-92359341D01*
X71182407Y-92359343D01*
X71090745Y-92455589D01*
X71030257Y-92490559D01*
X70960464Y-92487276D01*
X70903526Y-92446781D01*
X70877520Y-92381931D01*
X70877877Y-92354958D01*
X70881536Y-92325161D01*
X70888426Y-92282049D01*
X71053282Y-91250434D01*
X71080825Y-91110802D01*
X72390797Y-91110802D01*
X72530267Y-91142635D01*
X72618802Y-91151955D01*
X72768265Y-91129178D01*
X72906044Y-91066920D01*
X73021917Y-90969799D01*
X73021917Y-90969798D01*
X73107288Y-90845020D01*
X73137306Y-90761206D01*
X73191390Y-90524244D01*
X73191389Y-90524243D01*
X72557687Y-90379606D01*
X72557686Y-90379606D01*
X72390797Y-91110801D01*
X72390797Y-91110802D01*
X71080825Y-91110802D01*
X71171866Y-90649252D01*
X71204151Y-90587292D01*
X71264812Y-90552621D01*
X71334587Y-90556250D01*
X71391324Y-90597025D01*
X71406520Y-90622190D01*
X71458151Y-90736449D01*
X71555271Y-90852320D01*
X71680051Y-90937691D01*
X71763856Y-90967706D01*
X71763867Y-90967709D01*
X71903332Y-90999540D01*
X71903333Y-90999540D01*
X72156090Y-89892142D01*
X72668948Y-89892142D01*
X73302650Y-90036779D01*
X73302651Y-90036779D01*
X73356736Y-89799817D01*
X73366056Y-89711282D01*
X73343279Y-89561817D01*
X73281020Y-89424038D01*
X73183900Y-89308167D01*
X73059120Y-89222796D01*
X72975310Y-89192779D01*
X72835838Y-89160946D01*
X72835837Y-89160946D01*
X72668948Y-89892141D01*
X72668948Y-89892142D01*
X72156090Y-89892142D01*
X72181484Y-89780882D01*
X72348373Y-89049685D01*
X72348373Y-89049684D01*
X72208904Y-89017852D01*
X72120369Y-89008532D01*
X71970906Y-89031309D01*
X71833125Y-89093568D01*
X71833124Y-89093569D01*
X71732366Y-89178021D01*
X71668343Y-89205999D01*
X71599357Y-89194921D01*
X71547311Y-89148306D01*
X71528730Y-89080952D01*
X71533118Y-89050232D01*
X71800633Y-88073495D01*
X71827364Y-87988177D01*
X73173709Y-87988177D01*
X73308734Y-88035425D01*
X73395670Y-88054599D01*
X73546746Y-88048700D01*
X73546754Y-88048699D01*
X73690626Y-88002262D01*
X73690627Y-88002261D01*
X73816652Y-87918720D01*
X73915455Y-87804285D01*
X73954665Y-87724364D01*
X74034941Y-87494944D01*
X73421417Y-87280264D01*
X73173709Y-87988177D01*
X71827364Y-87988177D01*
X72013843Y-87392980D01*
X72052670Y-87334892D01*
X72116738Y-87307017D01*
X72185707Y-87318205D01*
X72237677Y-87364904D01*
X72250176Y-87391964D01*
X72288840Y-87511750D01*
X72288842Y-87511754D01*
X72372375Y-87637770D01*
X72372375Y-87637771D01*
X72486815Y-87736577D01*
X72566736Y-87775788D01*
X72701767Y-87823036D01*
X72949476Y-87115125D01*
X73056830Y-86808322D01*
X73586557Y-86808322D01*
X74200081Y-87023002D01*
X74280357Y-86793588D01*
X74280360Y-86793579D01*
X74299532Y-86706656D01*
X74299532Y-86706653D01*
X74293633Y-86555577D01*
X74293633Y-86555572D01*
X74247193Y-86411697D01*
X74247191Y-86411693D01*
X74163658Y-86285677D01*
X74163658Y-86285676D01*
X74049218Y-86186870D01*
X73969303Y-86147662D01*
X73969299Y-86147660D01*
X73834265Y-86100410D01*
X73586557Y-86808322D01*
X73056830Y-86808322D01*
X73362323Y-85935269D01*
X73227291Y-85888020D01*
X73140363Y-85868848D01*
X72989287Y-85874747D01*
X72989279Y-85874748D01*
X72845407Y-85921185D01*
X72845402Y-85921187D01*
X72738057Y-85992346D01*
X72671304Y-86012980D01*
X72603992Y-85994248D01*
X72557493Y-85942098D01*
X72546569Y-85873088D01*
X72554215Y-85843441D01*
X72888741Y-84996565D01*
X72899122Y-84972843D01*
X74301319Y-84972843D01*
X74301320Y-84972844D01*
X74430211Y-85034915D01*
X74514446Y-85063700D01*
X74514451Y-85063701D01*
X74665233Y-85074754D01*
X74665238Y-85074754D01*
X74813411Y-85044716D01*
X74947993Y-84975813D01*
X74947994Y-84975812D01*
X75058992Y-84873156D01*
X75106902Y-84798129D01*
X75534765Y-83909665D01*
X75563550Y-83825430D01*
X75574602Y-83674646D01*
X75574602Y-83674640D01*
X75544564Y-83526468D01*
X75475661Y-83391886D01*
X75475660Y-83391885D01*
X75373006Y-83280890D01*
X75297972Y-83232973D01*
X75169086Y-83170904D01*
X75169085Y-83170905D01*
X74826525Y-83882240D01*
X74826525Y-83882241D01*
X74301319Y-84972843D01*
X72899122Y-84972843D01*
X73215025Y-84250926D01*
X73259932Y-84197404D01*
X73326650Y-84176655D01*
X73393994Y-84195270D01*
X73440583Y-84247339D01*
X73450151Y-84276002D01*
X73475357Y-84400340D01*
X73544260Y-84534921D01*
X73544261Y-84534922D01*
X73646915Y-84645917D01*
X73721948Y-84693834D01*
X73850834Y-84755901D01*
X74210035Y-84010015D01*
X74718601Y-82953963D01*
X74718601Y-82953962D01*
X74589711Y-82891893D01*
X74589702Y-82891889D01*
X74505475Y-82863107D01*
X74505470Y-82863106D01*
X74354688Y-82852053D01*
X74354683Y-82852053D01*
X74206510Y-82882091D01*
X74093795Y-82939799D01*
X74025151Y-82952829D01*
X73960359Y-82926678D01*
X73919991Y-82869650D01*
X73916863Y-82799851D01*
X73927587Y-82771610D01*
X74143629Y-82361716D01*
X74280135Y-82102724D01*
X75759451Y-82102724D01*
X75880585Y-82178837D01*
X75961069Y-82216873D01*
X76109660Y-82244739D01*
X76109672Y-82244739D01*
X76260279Y-82231480D01*
X76401721Y-82178080D01*
X76401724Y-82178079D01*
X76523519Y-82088495D01*
X76579529Y-82019307D01*
X76579530Y-82019305D01*
X77104181Y-81184329D01*
X77142213Y-81103852D01*
X77142214Y-81103848D01*
X77170080Y-80955256D01*
X77170080Y-80955244D01*
X77156820Y-80804640D01*
X77156820Y-80804636D01*
X77103422Y-80663198D01*
X77103420Y-80663193D01*
X77013836Y-80541397D01*
X76944647Y-80485388D01*
X76823514Y-80409275D01*
X76401406Y-81081057D01*
X76401406Y-81081058D01*
X75759451Y-82102724D01*
X74280135Y-82102724D01*
X74304721Y-82056078D01*
X74533206Y-81658269D01*
X74760477Y-81262573D01*
X74810933Y-81214246D01*
X74879510Y-81200869D01*
X74944433Y-81226691D01*
X74985090Y-81283514D01*
X74991523Y-81313458D01*
X75002783Y-81441343D01*
X75002783Y-81441347D01*
X75056181Y-81582785D01*
X75056183Y-81582790D01*
X75145767Y-81704586D01*
X75214956Y-81760595D01*
X75336088Y-81836707D01*
X75746002Y-81184335D01*
X76400151Y-80143258D01*
X76279024Y-80067149D01*
X76198534Y-80029110D01*
X76049943Y-80001244D01*
X76049931Y-80001244D01*
X75899324Y-80014503D01*
X75782392Y-80058649D01*
X75712720Y-80063911D01*
X75651264Y-80030671D01*
X75617535Y-79969482D01*
X75622241Y-79899771D01*
X75635826Y-79873254D01*
X75946007Y-79413908D01*
X77529765Y-79413908D01*
X77641617Y-79503107D01*
X77717331Y-79549913D01*
X77861879Y-79594243D01*
X78013024Y-79597931D01*
X78013031Y-79597930D01*
X78159561Y-79560703D01*
X78290623Y-79485318D01*
X78354024Y-79422837D01*
X78968863Y-78651855D01*
X78968864Y-78651854D01*
X79015672Y-78576135D01*
X79060001Y-78431592D01*
X79060001Y-78431589D01*
X79063688Y-78280441D01*
X79026462Y-78133908D01*
X78951076Y-78002846D01*
X78888594Y-77939444D01*
X78776743Y-77850245D01*
X78279621Y-78473617D01*
X78279614Y-78473627D01*
X77529765Y-79413908D01*
X75946007Y-79413908D01*
X76031808Y-79286845D01*
X76630944Y-78465493D01*
X76686354Y-78422935D01*
X76755978Y-78417088D01*
X76817711Y-78449811D01*
X76851953Y-78510715D01*
X76855085Y-78541594D01*
X76851905Y-78671968D01*
X76889131Y-78818501D01*
X76964517Y-78949563D01*
X77026999Y-79012965D01*
X77138849Y-79102163D01*
X77606467Y-78515790D01*
X78385827Y-77538499D01*
X78273985Y-77449308D01*
X78273976Y-77449302D01*
X78198262Y-77402496D01*
X78053714Y-77358166D01*
X77902569Y-77354478D01*
X77902560Y-77354479D01*
X77782510Y-77384978D01*
X77712687Y-77382407D01*
X77655340Y-77342494D01*
X77628674Y-77277913D01*
X77641156Y-77209168D01*
X77657358Y-77184653D01*
X77864420Y-76940212D01*
X79590000Y-76940212D01*
X79691158Y-77041371D01*
X79691159Y-77041372D01*
X79761161Y-77096365D01*
X79899836Y-77156598D01*
X80049619Y-77177186D01*
X80199405Y-77156598D01*
X80338073Y-77096366D01*
X80338075Y-77096365D01*
X80408088Y-77041364D01*
X81105364Y-76344088D01*
X81160365Y-76274075D01*
X81160366Y-76274073D01*
X81220598Y-76135405D01*
X81241186Y-75985619D01*
X81241186Y-75985618D01*
X81220598Y-75835836D01*
X81160365Y-75697161D01*
X81105372Y-75627159D01*
X81105371Y-75627158D01*
X81004212Y-75526000D01*
X79590000Y-76940212D01*
X77864420Y-76940212D01*
X78049553Y-76721659D01*
X78108784Y-76656671D01*
X78782690Y-75917268D01*
X78796302Y-75903379D01*
X78805911Y-75893574D01*
X78866894Y-75859477D01*
X78936632Y-75863762D01*
X78992983Y-75905070D01*
X79018056Y-75970286D01*
X79017312Y-75997257D01*
X78999474Y-76127039D01*
X78999474Y-76127041D01*
X79020061Y-76276823D01*
X79080294Y-76415498D01*
X79135287Y-76485500D01*
X79135288Y-76485501D01*
X79236447Y-76586659D01*
X80650660Y-75172447D01*
X80549500Y-75071287D01*
X80479498Y-75016294D01*
X80340823Y-74956061D01*
X80191041Y-74935474D01*
X80191040Y-74935474D01*
X80068918Y-74952259D01*
X79999823Y-74941886D01*
X79947304Y-74895804D01*
X79928036Y-74828644D01*
X79948137Y-74761728D01*
X79966686Y-74739460D01*
X79994843Y-74712745D01*
X81914245Y-74712745D01*
X82003432Y-74824582D01*
X82003439Y-74824590D01*
X82066846Y-74887076D01*
X82197908Y-74962462D01*
X82344441Y-74999687D01*
X82495589Y-74996001D01*
X82495592Y-74996001D01*
X82640135Y-74951672D01*
X82715854Y-74904864D01*
X82715855Y-74904863D01*
X83486837Y-74290024D01*
X83549318Y-74226623D01*
X83624703Y-74095561D01*
X83661930Y-73949031D01*
X83661931Y-73949024D01*
X83658243Y-73797880D01*
X83658243Y-73797877D01*
X83613913Y-73653331D01*
X83567107Y-73577617D01*
X83477908Y-73465765D01*
X82537627Y-74215614D01*
X82537624Y-74215614D01*
X81914245Y-74712744D01*
X81914245Y-74712745D01*
X79994843Y-74712745D01*
X80334065Y-74390891D01*
X81150260Y-73670918D01*
X81212433Y-73619963D01*
X81251178Y-73588208D01*
X81315505Y-73560939D01*
X81384365Y-73572776D01*
X81435894Y-73619963D01*
X81453731Y-73687517D01*
X81449960Y-73714647D01*
X81418479Y-73838560D01*
X81418478Y-73838569D01*
X81422166Y-73989713D01*
X81422166Y-73989716D01*
X81466496Y-74134262D01*
X81513302Y-74209976D01*
X81513308Y-74209985D01*
X81602499Y-74321827D01*
X82579790Y-73542467D01*
X83166163Y-73074848D01*
X83166163Y-73074847D01*
X83076977Y-72963011D01*
X83076970Y-72963003D01*
X83013563Y-72900517D01*
X82882501Y-72825131D01*
X82735967Y-72787905D01*
X82612816Y-72790909D01*
X82545317Y-72772865D01*
X82533167Y-72759515D01*
X84473275Y-72759515D01*
X84549388Y-72880647D01*
X84605397Y-72949836D01*
X84727193Y-73039420D01*
X84727198Y-73039422D01*
X84868638Y-73092820D01*
X85019244Y-73106080D01*
X85019256Y-73106080D01*
X85167848Y-73078214D01*
X85167852Y-73078213D01*
X85248329Y-73040181D01*
X86083305Y-72515530D01*
X86083307Y-72515529D01*
X86152495Y-72459519D01*
X86242079Y-72337724D01*
X86242080Y-72337721D01*
X86295480Y-72196279D01*
X86308739Y-72045672D01*
X86308739Y-72045660D01*
X86280873Y-71897069D01*
X86280873Y-71897068D01*
X86242837Y-71816585D01*
X86166724Y-71695451D01*
X85108319Y-72360491D01*
X84473275Y-72759515D01*
X82533167Y-72759515D01*
X82498288Y-72721192D01*
X82486661Y-72652296D01*
X82514128Y-72588052D01*
X82534717Y-72568256D01*
X82858294Y-72322138D01*
X82960528Y-72250078D01*
X83747884Y-71695109D01*
X83938998Y-71570527D01*
X84005908Y-71550408D01*
X84073074Y-71569657D01*
X84119171Y-71622162D01*
X84129563Y-71691255D01*
X84122721Y-71718202D01*
X84078503Y-71835324D01*
X84065244Y-71985931D01*
X84065244Y-71985943D01*
X84093110Y-72134534D01*
X84093110Y-72134535D01*
X84131149Y-72215024D01*
X84207258Y-72336151D01*
X85231263Y-71692729D01*
X85900707Y-71272088D01*
X85824595Y-71150956D01*
X85787463Y-71105086D01*
X87234904Y-71105086D01*
X87296973Y-71233972D01*
X87344890Y-71309006D01*
X87455885Y-71411660D01*
X87455886Y-71411661D01*
X87590468Y-71480564D01*
X87738643Y-71510602D01*
X87889430Y-71499550D01*
X87973665Y-71470765D01*
X88862129Y-71042902D01*
X88937156Y-70994992D01*
X89039812Y-70883994D01*
X89039813Y-70883993D01*
X89108716Y-70749411D01*
X89138754Y-70601238D01*
X89138754Y-70601233D01*
X89127701Y-70450451D01*
X89127700Y-70450446D01*
X89098916Y-70366214D01*
X89036843Y-70237319D01*
X87946242Y-70762525D01*
X87946238Y-70762525D01*
X87234905Y-71105085D01*
X87234904Y-71105086D01*
X85787463Y-71105086D01*
X85768586Y-71081767D01*
X85646790Y-70992183D01*
X85646785Y-70992181D01*
X85505345Y-70938783D01*
X85382201Y-70927941D01*
X85317146Y-70902453D01*
X85276198Y-70845839D01*
X85272359Y-70776075D01*
X85306846Y-70715310D01*
X85329170Y-70698155D01*
X85592354Y-70539895D01*
X86544806Y-70013233D01*
X86835757Y-69865871D01*
X86904453Y-69853142D01*
X86969130Y-69879575D01*
X87009249Y-69936779D01*
X87012073Y-70006591D01*
X87002156Y-70033002D01*
X86946091Y-70142508D01*
X86916053Y-70290683D01*
X86916053Y-70290688D01*
X86927106Y-70441470D01*
X86927107Y-70441475D01*
X86955892Y-70525710D01*
X87017963Y-70654601D01*
X88144175Y-70112248D01*
X88819902Y-69786834D01*
X88811923Y-69770265D01*
X90164410Y-69770265D01*
X90211660Y-69905299D01*
X90211662Y-69905303D01*
X90250870Y-69985218D01*
X90349677Y-70099658D01*
X90475693Y-70183191D01*
X90475697Y-70183193D01*
X90619574Y-70229633D01*
X90770653Y-70235532D01*
X90770656Y-70235532D01*
X90857579Y-70216360D01*
X90857588Y-70216357D01*
X91087002Y-70136081D01*
X90872322Y-69522557D01*
X90164410Y-69770265D01*
X88811923Y-69770265D01*
X88757834Y-69657948D01*
X88709917Y-69582915D01*
X88598922Y-69480261D01*
X88598921Y-69480260D01*
X88464340Y-69411357D01*
X88342260Y-69386609D01*
X88286948Y-69357417D01*
X91344264Y-69357417D01*
X91558944Y-69970941D01*
X91788364Y-69890665D01*
X91868285Y-69851455D01*
X91982720Y-69752652D01*
X92066261Y-69626627D01*
X92066262Y-69626626D01*
X92112699Y-69482754D01*
X92112700Y-69482746D01*
X92118599Y-69331670D01*
X92099425Y-69244734D01*
X92052177Y-69109709D01*
X91344264Y-69357417D01*
X88286948Y-69357417D01*
X88280468Y-69353997D01*
X88246117Y-69293155D01*
X88250112Y-69223400D01*
X88291186Y-69166878D01*
X88314914Y-69152503D01*
X88503872Y-69065264D01*
X89507908Y-68645205D01*
X89905215Y-68495678D01*
X89974891Y-68490488D01*
X90036313Y-68523792D01*
X90069979Y-68585016D01*
X90065200Y-68654722D01*
X90052245Y-68680244D01*
X89985187Y-68781402D01*
X89985185Y-68781407D01*
X89938748Y-68925279D01*
X89938747Y-68925287D01*
X89932848Y-69076363D01*
X89952020Y-69163291D01*
X89999269Y-69298323D01*
X91179125Y-68885476D01*
X91503883Y-68771838D01*
X93224946Y-68771838D01*
X93256779Y-68911310D01*
X93286796Y-68995120D01*
X93372167Y-69119900D01*
X93488038Y-69217020D01*
X93625817Y-69279279D01*
X93775282Y-69302056D01*
X93863817Y-69292736D01*
X94100779Y-69238651D01*
X94100779Y-69238650D01*
X93956142Y-68604948D01*
X93956141Y-68604948D01*
X93224946Y-68771837D01*
X93224946Y-68771838D01*
X91503883Y-68771838D01*
X91887036Y-68637767D01*
X91839788Y-68502736D01*
X91835348Y-68493687D01*
X94443606Y-68493687D01*
X94588243Y-69127389D01*
X94588244Y-69127390D01*
X94825206Y-69073306D01*
X94909020Y-69043288D01*
X95033798Y-68957917D01*
X95033799Y-68957917D01*
X95130920Y-68842044D01*
X95193178Y-68704265D01*
X95215955Y-68554802D01*
X95206635Y-68466267D01*
X95174802Y-68326797D01*
X95174801Y-68326797D01*
X94443606Y-68493686D01*
X94443606Y-68493687D01*
X91835348Y-68493687D01*
X91800577Y-68422815D01*
X91701770Y-68308375D01*
X91575754Y-68224842D01*
X91575750Y-68224840D01*
X91455815Y-68186128D01*
X91398063Y-68146803D01*
X91370740Y-68082497D01*
X91382521Y-68013628D01*
X91429665Y-67962060D01*
X91454458Y-67950564D01*
X91558375Y-67915705D01*
X92602107Y-67607224D01*
X93108961Y-67477216D01*
X93178786Y-67479627D01*
X93236226Y-67519407D01*
X93263041Y-67583926D01*
X93250717Y-67652701D01*
X93234801Y-67676981D01*
X93157567Y-67769127D01*
X93095309Y-67906906D01*
X93072532Y-68056369D01*
X93081852Y-68144904D01*
X93113684Y-68284373D01*
X93113685Y-68284373D01*
X93823514Y-68122361D01*
X96378027Y-68122361D01*
X96394046Y-68264522D01*
X96414489Y-68351162D01*
X96485353Y-68484718D01*
X96485357Y-68484723D01*
X96589622Y-68594202D01*
X96719560Y-68671493D01*
X96719567Y-68671496D01*
X96865538Y-68710864D01*
X96954559Y-68711514D01*
X97196087Y-68684301D01*
X97196088Y-68684300D01*
X103971910Y-68684300D01*
X103971911Y-68684301D01*
X104213440Y-68711514D01*
X104302461Y-68710864D01*
X104448432Y-68671496D01*
X104448439Y-68671493D01*
X104578377Y-68594202D01*
X104615901Y-68554802D01*
X105952044Y-68554802D01*
X105974821Y-68704265D01*
X106037079Y-68842044D01*
X106134200Y-68957917D01*
X106258980Y-69043288D01*
X106258979Y-69043288D01*
X106342784Y-69073303D01*
X106342787Y-69073304D01*
X106579754Y-69127389D01*
X106579755Y-69127389D01*
X106724392Y-68493687D01*
X106724392Y-68493686D01*
X105993197Y-68326797D01*
X105993196Y-68326797D01*
X105961364Y-68466267D01*
X105952044Y-68554802D01*
X104615901Y-68554802D01*
X104682642Y-68484723D01*
X104682646Y-68484718D01*
X104753510Y-68351162D01*
X104773954Y-68264521D01*
X104789971Y-68122361D01*
X104789970Y-68122360D01*
X104044688Y-68038387D01*
X104044687Y-68038388D01*
X103971910Y-68684300D01*
X97196088Y-68684300D01*
X97123311Y-68038388D01*
X97123310Y-68038387D01*
X96378028Y-68122360D01*
X96378027Y-68122361D01*
X93823514Y-68122361D01*
X93844882Y-68117484D01*
X94436697Y-67982406D01*
X97620167Y-67982406D01*
X97692943Y-68628318D01*
X97692944Y-68628319D01*
X97934477Y-68601104D01*
X98021117Y-68580661D01*
X98154672Y-68509796D01*
X98154674Y-68509795D01*
X98264157Y-68405527D01*
X98341448Y-68275589D01*
X98341451Y-68275582D01*
X98380818Y-68129616D01*
X98380819Y-68129610D01*
X98381469Y-68040592D01*
X98365451Y-67898433D01*
X98365451Y-67898432D01*
X97620168Y-67982405D01*
X97620167Y-67982406D01*
X94436697Y-67982406D01*
X95063540Y-67839333D01*
X95063540Y-67839332D01*
X95061410Y-67830000D01*
X99584000Y-67830000D01*
X99584000Y-67973053D01*
X99594613Y-68061443D01*
X99650079Y-68202095D01*
X99741435Y-68322564D01*
X99861904Y-68413920D01*
X100002556Y-68469386D01*
X100090946Y-68480000D01*
X100334000Y-68480000D01*
X100334000Y-67830000D01*
X100834000Y-67830000D01*
X100834000Y-68480000D01*
X101077054Y-68480000D01*
X101165443Y-68469386D01*
X101306095Y-68413920D01*
X101426564Y-68322564D01*
X101517920Y-68202095D01*
X101573386Y-68061443D01*
X101575890Y-68040590D01*
X102786530Y-68040590D01*
X102787180Y-68129610D01*
X102787181Y-68129616D01*
X102826548Y-68275582D01*
X102826551Y-68275589D01*
X102903842Y-68405527D01*
X103013325Y-68509795D01*
X103013327Y-68509796D01*
X103146882Y-68580661D01*
X103233522Y-68601104D01*
X103475054Y-68628319D01*
X103475055Y-68628318D01*
X103547831Y-67982406D01*
X103547830Y-67982405D01*
X102802547Y-67898432D01*
X102802546Y-67898433D01*
X102786530Y-68040590D01*
X101575890Y-68040590D01*
X101584000Y-67973053D01*
X101584000Y-67830000D01*
X100834000Y-67830000D01*
X100334000Y-67830000D01*
X99584000Y-67830000D01*
X95061410Y-67830000D01*
X95031709Y-67699867D01*
X95031706Y-67699856D01*
X95001691Y-67616051D01*
X94916320Y-67491271D01*
X94800449Y-67394151D01*
X94683793Y-67341437D01*
X94630807Y-67295893D01*
X94610856Y-67228932D01*
X94630273Y-67161815D01*
X94682895Y-67115850D01*
X94708426Y-67107287D01*
X94719697Y-67104829D01*
X95790767Y-66911578D01*
X96406886Y-66823358D01*
X96476037Y-66833342D01*
X96528814Y-66879127D01*
X96548460Y-66946178D01*
X96528737Y-67013206D01*
X96509977Y-67035899D01*
X96423343Y-67118406D01*
X96423341Y-67118409D01*
X96346049Y-67248348D01*
X96346046Y-67248355D01*
X96306679Y-67394321D01*
X96306678Y-67394327D01*
X96306028Y-67483347D01*
X96322044Y-67625503D01*
X96322045Y-67625504D01*
X97226244Y-67523626D01*
X98309468Y-67401576D01*
X98309469Y-67401575D01*
X98293451Y-67259416D01*
X98293452Y-67259416D01*
X98273008Y-67172775D01*
X98202144Y-67039219D01*
X98202140Y-67039214D01*
X98097875Y-66929735D01*
X97990539Y-66865889D01*
X97942985Y-66814699D01*
X97930656Y-66745926D01*
X97957466Y-66681405D01*
X98014903Y-66641620D01*
X98045302Y-66635619D01*
X99036132Y-66566504D01*
X99757678Y-66542429D01*
X99825335Y-66559867D01*
X99872825Y-66611116D01*
X99885069Y-66679904D01*
X99858180Y-66744392D01*
X99836737Y-66765163D01*
X99741437Y-66837432D01*
X99650079Y-66957904D01*
X99594613Y-67098556D01*
X99584000Y-67186946D01*
X99584000Y-67330000D01*
X101584000Y-67330000D01*
X101584000Y-67186946D01*
X101573386Y-67098556D01*
X101517920Y-66957904D01*
X101426564Y-66837435D01*
X101329529Y-66763850D01*
X101288006Y-66707657D01*
X101283455Y-66637936D01*
X101317320Y-66576822D01*
X101378850Y-66543718D01*
X101409310Y-66541141D01*
X102299778Y-66576088D01*
G37*
%TD.AperFunction*%
%TD*%
M02*
