%TF.GenerationSoftware,KiCad,Pcbnew,7.0.8*%
%TF.CreationDate,2024-02-03T20:16:28-05:00*%
%TF.ProjectId,Dew Ring,44657720-5269-46e6-972e-6b696361645f,rev?*%
%TF.SameCoordinates,Original*%
%TF.FileFunction,Copper,L2,Bot*%
%TF.FilePolarity,Positive*%
%FSLAX46Y46*%
G04 Gerber Fmt 4.6, Leading zero omitted, Abs format (unit mm)*
G04 Created by KiCad (PCBNEW 7.0.8) date 2024-02-03 20:16:28*
%MOMM*%
%LPD*%
G01*
G04 APERTURE LIST*
%TA.AperFunction,ViaPad*%
%ADD10C,0.600000*%
%TD*%
G04 APERTURE END LIST*
D10*
%TO.N,GND*%
X126120413Y-102307491D03*
X111980851Y-120093613D03*
X126607839Y-99411929D03*
X122775908Y-110416859D03*
X90420000Y-120890000D03*
X116878184Y-76023585D03*
X126598882Y-93548574D03*
X89259227Y-120128324D03*
X80137464Y-112876730D03*
X124192324Y-107844773D03*
X84227270Y-76073464D03*
X125311852Y-105130272D03*
X82040832Y-78033400D03*
X125285430Y-87834218D03*
X119070600Y-77976832D03*
X91898218Y-71818570D03*
X84289816Y-117016415D03*
X86619403Y-74370655D03*
X124157613Y-85123149D03*
X114548597Y-118669345D03*
X122733345Y-82555403D03*
X76975676Y-85195227D03*
X78392092Y-82623141D03*
X97612574Y-70505118D03*
X100544000Y-70336000D03*
X80087585Y-80225816D03*
X78434655Y-110484597D03*
X75065388Y-102385485D03*
X126102612Y-90654515D03*
X126768000Y-96480000D03*
X109194272Y-71792148D03*
X75856148Y-87909728D03*
X119127168Y-115006600D03*
X74569118Y-99491426D03*
X103475929Y-70496161D03*
X121080415Y-112814184D03*
X94718515Y-71001388D03*
X111908773Y-72911676D03*
X121030536Y-80163270D03*
X114480859Y-74328092D03*
X116940730Y-116966536D03*
X89210000Y-123780000D03*
X106371491Y-70983587D03*
X82097400Y-115063168D03*
X75047587Y-90732509D03*
X74560161Y-93628071D03*
X77010387Y-107916851D03*
X89187149Y-72946387D03*
X74400000Y-96560000D03*
X95990000Y-125720000D03*
X75882570Y-105205782D03*
X86687141Y-118711908D03*
%TD*%
%TA.AperFunction,Conductor*%
%TO.N,GND*%
G36*
X101212251Y-66533408D02*
G01*
X102299778Y-66576088D01*
X103385040Y-66658198D01*
X104466609Y-66779627D01*
X105543061Y-66940217D01*
X106612977Y-67139756D01*
X107674949Y-67377982D01*
X108727579Y-67654580D01*
X109769481Y-67969186D01*
X110799283Y-68321386D01*
X111815629Y-68710717D01*
X112817180Y-69136665D01*
X113802618Y-69598671D01*
X114770645Y-70096124D01*
X115719987Y-70628371D01*
X116649393Y-71194711D01*
X117557640Y-71794398D01*
X118443531Y-72426642D01*
X119305901Y-73090611D01*
X120143614Y-73785430D01*
X120955567Y-74510185D01*
X121740690Y-75263921D01*
X122497950Y-76045646D01*
X123226350Y-76854330D01*
X123924930Y-77688910D01*
X124592771Y-78548284D01*
X125228994Y-79431323D01*
X125832760Y-80336864D01*
X126403274Y-81263713D01*
X126939786Y-82210651D01*
X127441589Y-83176431D01*
X127908022Y-84159781D01*
X128338471Y-85159406D01*
X128732370Y-86173990D01*
X129089199Y-87202197D01*
X129408488Y-88242673D01*
X129689818Y-89294048D01*
X129932818Y-90354939D01*
X130137167Y-91423947D01*
X130302598Y-92499665D01*
X130428891Y-93580676D01*
X130515881Y-94665559D01*
X130563453Y-95752883D01*
X130571545Y-96841217D01*
X130540145Y-97929128D01*
X130469296Y-99015184D01*
X130359090Y-100097954D01*
X130209673Y-101176013D01*
X130021241Y-102247941D01*
X129794043Y-103312327D01*
X129528377Y-104367769D01*
X129224593Y-105412878D01*
X128883092Y-106446277D01*
X128504323Y-107466606D01*
X128088785Y-108472521D01*
X127637025Y-109462698D01*
X127149638Y-110435832D01*
X126627265Y-111390643D01*
X126070595Y-112325872D01*
X125480360Y-113240290D01*
X124857338Y-114132691D01*
X124202349Y-115001901D01*
X123516255Y-115846775D01*
X122799960Y-116666201D01*
X122054407Y-117459099D01*
X121280578Y-118224426D01*
X120479492Y-118961174D01*
X119652203Y-119668372D01*
X118799801Y-120345090D01*
X117923408Y-120990436D01*
X117024178Y-121603561D01*
X116103295Y-122183658D01*
X115161972Y-122729962D01*
X114201449Y-123241754D01*
X113222989Y-123718361D01*
X112227883Y-124159154D01*
X111217438Y-124563554D01*
X110192987Y-124931028D01*
X109155878Y-125261091D01*
X108107477Y-125553310D01*
X107049164Y-125807299D01*
X105982333Y-126022725D01*
X104924063Y-126196725D01*
X104901612Y-126198346D01*
X104856220Y-126197492D01*
X104818955Y-126191021D01*
X104782716Y-126178809D01*
X104749133Y-126161405D01*
X104718257Y-126138832D01*
X104691486Y-126112113D01*
X104668855Y-126081286D01*
X104651385Y-126047743D01*
X104637995Y-126008271D01*
X104632379Y-125983791D01*
X104189024Y-122427085D01*
X104188218Y-122405754D01*
X104190522Y-122358150D01*
X104198219Y-122320747D01*
X104212052Y-122283727D01*
X104230764Y-122250448D01*
X104255208Y-122219395D01*
X104283162Y-122193389D01*
X104315897Y-122171248D01*
X104350438Y-122154984D01*
X104397702Y-122141114D01*
X104416417Y-122137160D01*
X104472226Y-122129818D01*
X104472235Y-122129813D01*
X104478222Y-122128211D01*
X104485074Y-122126783D01*
X104916498Y-122062172D01*
X105911437Y-121873177D01*
X106898228Y-121645441D01*
X107875365Y-121379313D01*
X108841355Y-121075199D01*
X109794721Y-120733564D01*
X110734007Y-120354931D01*
X111657777Y-119939877D01*
X112564620Y-119489037D01*
X113453151Y-119003100D01*
X114322011Y-118482808D01*
X115169872Y-117928956D01*
X115995441Y-117342391D01*
X116797453Y-116724009D01*
X117574686Y-116074754D01*
X118325950Y-115395620D01*
X119050098Y-114687643D01*
X119746023Y-113951906D01*
X120412661Y-113189532D01*
X121048995Y-112401686D01*
X121654052Y-111589574D01*
X122226908Y-110754434D01*
X122766686Y-109897544D01*
X123272563Y-109020213D01*
X123743764Y-108123781D01*
X124179571Y-107209618D01*
X124579318Y-106279121D01*
X124942392Y-105333712D01*
X125268241Y-104374836D01*
X125556365Y-103403957D01*
X125806325Y-102422559D01*
X126017738Y-101432143D01*
X126190282Y-100434220D01*
X126323693Y-99430316D01*
X126417766Y-98421965D01*
X126472359Y-97410708D01*
X126487388Y-96398090D01*
X126462830Y-95385658D01*
X126398722Y-94374960D01*
X126295163Y-93367539D01*
X126152310Y-92364935D01*
X125970382Y-91368680D01*
X125749657Y-90380297D01*
X125490472Y-89401295D01*
X125193223Y-88433171D01*
X124858365Y-87477404D01*
X124486409Y-86535454D01*
X124077923Y-85608760D01*
X123633532Y-84698740D01*
X123153914Y-83806782D01*
X122639803Y-82934251D01*
X122091984Y-82082479D01*
X121511295Y-81252767D01*
X120898621Y-80446385D01*
X120254901Y-79664563D01*
X119581117Y-78908497D01*
X118878298Y-78179342D01*
X118147519Y-77478211D01*
X117389897Y-76806177D01*
X116606589Y-76164267D01*
X116279930Y-75917267D01*
X115798793Y-75553460D01*
X114967740Y-74974690D01*
X114114703Y-74428843D01*
X113240985Y-73916751D01*
X112347921Y-73439197D01*
X111436875Y-72996912D01*
X110509239Y-72590570D01*
X109566432Y-72220793D01*
X108609892Y-71888146D01*
X107641083Y-71593137D01*
X106661485Y-71336217D01*
X105672594Y-71117778D01*
X104675921Y-70938155D01*
X103672990Y-70797621D01*
X102665332Y-70696391D01*
X101654488Y-70634621D01*
X100642002Y-70612404D01*
X99629421Y-70629775D01*
X98618293Y-70686706D01*
X97610163Y-70783112D01*
X96606570Y-70918843D01*
X95609049Y-71093695D01*
X94619123Y-71307398D01*
X93638307Y-71559626D01*
X92668097Y-71849995D01*
X91709976Y-72178060D01*
X90765410Y-72543320D01*
X89835840Y-72945217D01*
X88922687Y-73383137D01*
X88027348Y-73856411D01*
X87151189Y-74364315D01*
X86295549Y-74906073D01*
X85461737Y-75480858D01*
X84651025Y-76087792D01*
X83864653Y-76725946D01*
X83103823Y-77394346D01*
X82369697Y-78091971D01*
X81663397Y-78817754D01*
X80986002Y-79570586D01*
X80338546Y-80349318D01*
X79722021Y-81152759D01*
X79137366Y-81979681D01*
X78585477Y-82828822D01*
X78067195Y-83698882D01*
X77583314Y-84588534D01*
X77134573Y-85496417D01*
X76721656Y-86421145D01*
X76345196Y-87361304D01*
X76005767Y-88315458D01*
X75703888Y-89282148D01*
X75440020Y-90259898D01*
X75214567Y-91247214D01*
X75027873Y-92242586D01*
X74880223Y-93244495D01*
X74771842Y-94251408D01*
X74702898Y-95261788D01*
X74673494Y-96274091D01*
X74683676Y-97286770D01*
X74733428Y-98298276D01*
X74822675Y-99307066D01*
X74951279Y-100311597D01*
X75119044Y-101310334D01*
X75325715Y-102301751D01*
X75570974Y-103284334D01*
X75854448Y-104256581D01*
X76175704Y-105217006D01*
X76534249Y-106164142D01*
X76929537Y-107096541D01*
X77360964Y-108012779D01*
X77827870Y-108911456D01*
X78329541Y-109791199D01*
X78865212Y-110650664D01*
X79018099Y-110875853D01*
X79434064Y-111488534D01*
X79941069Y-112175884D01*
X80035227Y-112303534D01*
X80667783Y-113094416D01*
X81330765Y-113859972D01*
X82023160Y-114599032D01*
X82743911Y-115310466D01*
X83491916Y-115993189D01*
X84266032Y-116646156D01*
X85065076Y-117268370D01*
X85887827Y-117858879D01*
X86733028Y-118416783D01*
X87599388Y-118941227D01*
X88485582Y-119431412D01*
X89390257Y-119886587D01*
X90312030Y-120306058D01*
X91249493Y-120689183D01*
X92201213Y-121035377D01*
X93165736Y-121344110D01*
X94141589Y-121614912D01*
X95127279Y-121847369D01*
X96121301Y-122041124D01*
X96552059Y-122107747D01*
X96558624Y-122109129D01*
X96567583Y-122111528D01*
X96567585Y-122111528D01*
X96567587Y-122111529D01*
X96622965Y-122118813D01*
X96642504Y-122123008D01*
X96690777Y-122137529D01*
X96726594Y-122154989D01*
X96759459Y-122178203D01*
X96787892Y-122206128D01*
X96811693Y-122238566D01*
X96829798Y-122274065D01*
X96842081Y-122312378D01*
X96847991Y-122351785D01*
X96847348Y-122403207D01*
X96846873Y-122410131D01*
X96845276Y-122422899D01*
X96844820Y-122425932D01*
X96835831Y-122477101D01*
X96835717Y-122479754D01*
X96835298Y-122502736D01*
X96412407Y-125886103D01*
X96411448Y-125891162D01*
X96404666Y-125947685D01*
X96400572Y-125967691D01*
X96385766Y-126018361D01*
X96368089Y-126055031D01*
X96343658Y-126089685D01*
X96315065Y-126118650D01*
X96280735Y-126143523D01*
X96244297Y-126161672D01*
X96203757Y-126174089D01*
X96163405Y-126179460D01*
X96108631Y-126177676D01*
X96101339Y-126177006D01*
X96090362Y-126175340D01*
X96087514Y-126174839D01*
X96035797Y-126164495D01*
X96035794Y-126164495D01*
X96035789Y-126164494D01*
X96027686Y-126163954D01*
X96027731Y-126163272D01*
X96013875Y-126162544D01*
X95004487Y-125990486D01*
X93938939Y-125768798D01*
X92882137Y-125508597D01*
X91835470Y-125210226D01*
X90800318Y-124874077D01*
X89778043Y-124500593D01*
X88769991Y-124090265D01*
X87777490Y-123643635D01*
X86801847Y-123161289D01*
X85844346Y-122643864D01*
X84906248Y-122092041D01*
X83988788Y-121506546D01*
X83093175Y-120888150D01*
X82220588Y-120237667D01*
X81372175Y-119555954D01*
X80549054Y-118843909D01*
X79752308Y-118102469D01*
X78982988Y-117332610D01*
X78242105Y-116535347D01*
X77530635Y-115711728D01*
X76849515Y-114862839D01*
X76199643Y-113989797D01*
X75581873Y-113093752D01*
X74997019Y-112175884D01*
X74445851Y-111237400D01*
X73929095Y-110279538D01*
X73447432Y-109303558D01*
X73001496Y-108310745D01*
X72591873Y-107302407D01*
X72219103Y-106279871D01*
X71883678Y-105244484D01*
X71586038Y-104197609D01*
X71326575Y-103140625D01*
X71105632Y-102074923D01*
X70923500Y-101001906D01*
X70780417Y-99922988D01*
X70676572Y-98839589D01*
X70612103Y-97753136D01*
X70587094Y-96665059D01*
X70601577Y-95576792D01*
X70655535Y-94489766D01*
X70748896Y-93405413D01*
X70881536Y-92325162D01*
X71053282Y-91250434D01*
X71263906Y-90182644D01*
X71513133Y-89123200D01*
X71800633Y-88073495D01*
X72126028Y-87034912D01*
X72488890Y-86008818D01*
X72888741Y-84996565D01*
X73325053Y-83999486D01*
X73797254Y-83018892D01*
X74304721Y-82056077D01*
X74846785Y-81112306D01*
X75422734Y-80188824D01*
X76031808Y-79286845D01*
X76673206Y-78407558D01*
X77346083Y-77552121D01*
X78049553Y-76721659D01*
X78782690Y-75917267D01*
X79544529Y-75140003D01*
X80334065Y-74390891D01*
X81150260Y-73670917D01*
X81992039Y-72981030D01*
X82858294Y-72322138D01*
X83747884Y-71695108D01*
X84659638Y-71100766D01*
X85592354Y-70539895D01*
X86544806Y-70013233D01*
X87515738Y-69521473D01*
X88503872Y-69065264D01*
X89507908Y-68645205D01*
X90526523Y-68261851D01*
X91558375Y-67915705D01*
X92602107Y-67607224D01*
X93656344Y-67336813D01*
X94719697Y-67104829D01*
X95790767Y-66911578D01*
X96868143Y-66757313D01*
X97950406Y-66642238D01*
X99036132Y-66566504D01*
X100123891Y-66530211D01*
X101212251Y-66533408D01*
G37*
%TD.AperFunction*%
%TD*%
M02*
