%TF.GenerationSoftware,KiCad,Pcbnew,7.0.8*%
%TF.CreationDate,2024-02-03T20:16:28-05:00*%
%TF.ProjectId,Dew Ring,44657720-5269-46e6-972e-6b696361645f,rev?*%
%TF.SameCoordinates,Original*%
%TF.FileFunction,Soldermask,Top*%
%TF.FilePolarity,Negative*%
%FSLAX46Y46*%
G04 Gerber Fmt 4.6, Leading zero omitted, Abs format (unit mm)*
G04 Created by KiCad (PCBNEW 7.0.8) date 2024-02-03 20:16:28*
%MOMM*%
%LPD*%
G01*
G04 APERTURE LIST*
G04 Aperture macros list*
%AMRoundRect*
0 Rectangle with rounded corners*
0 $1 Rounding radius*
0 $2 $3 $4 $5 $6 $7 $8 $9 X,Y pos of 4 corners*
0 Add a 4 corners polygon primitive as box body*
4,1,4,$2,$3,$4,$5,$6,$7,$8,$9,$2,$3,0*
0 Add four circle primitives for the rounded corners*
1,1,$1+$1,$2,$3*
1,1,$1+$1,$4,$5*
1,1,$1+$1,$6,$7*
1,1,$1+$1,$8,$9*
0 Add four rect primitives between the rounded corners*
20,1,$1+$1,$2,$3,$4,$5,0*
20,1,$1+$1,$4,$5,$6,$7,0*
20,1,$1+$1,$6,$7,$8,$9,0*
20,1,$1+$1,$8,$9,$2,$3,0*%
%AMFreePoly0*
4,1,52,2.543260,1.508031,2.767066,1.448206,2.979455,1.355693,3.175684,1.232558,3.351368,1.081552,3.502584,0.906049,3.625954,0.709967,3.718721,0.497689,3.778814,0.273956,3.804890,0.043764,3.796367,-0.187742,3.753434,-0.415392,3.677051,-0.634101,3.568925,-0.838983,3.431470,-1.025461,3.267758,-1.189370,3.081445,-1.327048,2.876692,-1.435419,2.658074,-1.512063,1.783786,-1.732631,
0.903170,-1.926397,0.017048,-2.093179,-0.873755,-2.232823,-1.104922,-2.247969,-1.335766,-2.228492,-1.561127,-2.174827,-1.775974,-2.088173,-1.975505,-1.970465,-2.155264,-1.824334,-2.311237,-1.653043,-2.439937,-1.460418,-2.538491,-1.250764,-2.604696,-1.028761,-2.637075,-0.799373,-2.634903,-0.567720,-2.598229,-0.338978,-2.527872,-0.118256,-2.425406,0.089514,-2.293116,0.279691,-2.133960,0.448028,
-1.951492,0.590764,-1.749789,0.704708,-1.533356,0.787319,-1.307027,0.836750,-0.907442,0.893159,-0.112087,1.030317,0.678709,1.191699,1.464207,1.377155,1.853943,1.481826,2.081542,1.525031,2.313038,1.533832,2.543260,1.508031,2.543260,1.508031,$1*%
G04 Aperture macros list end*
%ADD10RoundRect,0.250000X-0.516600X0.241090X-0.360835X-0.441359X0.516600X-0.241090X0.360835X0.441359X0*%
%ADD11RoundRect,0.250000X0.070711X-0.565685X0.565685X-0.070711X-0.070711X0.565685X-0.565685X0.070711X0*%
%ADD12RoundRect,0.250000X-0.241090X-0.516600X0.441359X-0.360835X0.241090X0.516600X-0.441359X0.360835X0*%
%ADD13RoundRect,0.250000X-0.441359X-0.360835X0.241090X-0.516600X0.441359X0.360835X-0.241090X0.516600X0*%
%ADD14RoundRect,0.250000X-0.450000X0.350000X-0.450000X-0.350000X0.450000X-0.350000X0.450000X0.350000X0*%
%ADD15RoundRect,0.250000X0.567237X-0.056939X0.194815X0.535768X-0.567237X0.056939X-0.194815X-0.535768X0*%
%ADD16RoundRect,0.250000X-0.056939X-0.567237X0.535768X-0.194815X0.056939X0.567237X-0.535768X0.194815X0*%
%ADD17RoundRect,0.250000X-0.554211X-0.133603X-0.006929X-0.570046X0.554211X0.133603X0.006929X0.570046X0*%
%ADD18RoundRect,0.250000X0.441359X0.360835X-0.241090X0.516600X-0.441359X-0.360835X0.241090X-0.516600X0*%
%ADD19RoundRect,0.250000X-0.398183X-0.407983X0.297415X-0.486358X0.398183X0.407983X-0.297415X0.486358X0*%
%ADD20RoundRect,0.250000X-0.535768X-0.194815X0.056939X-0.567237X0.535768X0.194815X-0.056939X0.567237X0*%
%ADD21RoundRect,0.250000X-0.297415X-0.486358X0.398183X-0.407983X0.297415X0.486358X-0.398183X0.407983X0*%
%ADD22FreePoly0,333.000000*%
%ADD23RoundRect,0.250000X0.241090X0.516600X-0.441359X0.360835X-0.241090X-0.516600X0.441359X-0.360835X0*%
%ADD24RoundRect,0.250000X-0.120091X-0.557295X0.510587X-0.253577X0.120091X0.557295X-0.510587X0.253577X0*%
%ADD25RoundRect,0.250000X0.350000X0.450000X-0.350000X0.450000X-0.350000X-0.450000X0.350000X-0.450000X0*%
%ADD26RoundRect,0.250000X0.297415X0.486358X-0.398183X0.407983X-0.297415X-0.486358X0.398183X-0.407983X0*%
%ADD27RoundRect,0.250000X-0.570046X-0.006929X-0.133603X-0.554211X0.570046X0.006929X0.133603X0.554211X0*%
%ADD28RoundRect,0.250000X0.510587X0.253577X-0.120091X0.557295X-0.510587X-0.253577X0.120091X-0.557295X0*%
%ADD29RoundRect,0.250000X0.398183X0.407983X-0.297415X0.486358X-0.398183X-0.407983X0.297415X-0.486358X0*%
%ADD30RoundRect,0.250000X0.194815X-0.535768X0.567237X0.056939X-0.194815X0.535768X-0.567237X-0.056939X0*%
%ADD31RoundRect,0.250000X0.535768X0.194815X-0.056939X0.567237X-0.535768X-0.194815X0.056939X-0.567237X0*%
%ADD32RoundRect,0.250000X0.557295X-0.120091X0.253577X0.510587X-0.557295X0.120091X-0.253577X-0.510587X0*%
%ADD33RoundRect,0.250000X0.478985X0.309150X-0.181734X0.540345X-0.478985X-0.309150X0.181734X-0.540345X0*%
%ADD34RoundRect,0.250000X-0.567237X0.056939X-0.194815X-0.535768X0.567237X-0.056939X0.194815X0.535768X0*%
%ADD35RoundRect,0.250000X0.570046X0.006929X0.133603X0.554211X-0.570046X-0.006929X-0.133603X-0.554211X0*%
%ADD36RoundRect,0.250000X-0.478985X-0.309150X0.181734X-0.540345X0.478985X0.309150X-0.181734X0.540345X0*%
%ADD37RoundRect,0.250000X-0.194815X0.535768X-0.567237X-0.056939X0.194815X-0.535768X0.567237X0.056939X0*%
%ADD38RoundRect,0.250000X-0.407983X0.398183X-0.486358X-0.297415X0.407983X-0.398183X0.486358X0.297415X0*%
%ADD39RoundRect,0.250000X-0.133603X0.554211X-0.570046X0.006929X0.133603X-0.554211X0.570046X-0.006929X0*%
%ADD40RoundRect,0.250000X0.565685X0.070711X0.070711X0.565685X-0.565685X-0.070711X-0.070711X-0.565685X0*%
%ADD41RoundRect,0.250000X-0.540345X0.181734X-0.309150X-0.478985X0.540345X-0.181734X0.309150X0.478985X0*%
%ADD42RoundRect,0.250000X0.120091X0.557295X-0.510587X0.253577X-0.120091X-0.557295X0.510587X-0.253577X0*%
%ADD43RoundRect,0.250000X0.181734X0.540345X-0.478985X0.309150X-0.181734X-0.540345X0.478985X-0.309150X0*%
%ADD44RoundRect,0.250000X-0.070711X0.565685X-0.565685X0.070711X0.070711X-0.565685X0.565685X-0.070711X0*%
%ADD45RoundRect,0.250000X-0.557295X0.120091X-0.253577X-0.510587X0.557295X-0.120091X0.253577X0.510587X0*%
%ADD46RoundRect,0.250000X0.056939X0.567237X-0.535768X0.194815X-0.056939X-0.567237X0.535768X-0.194815X0*%
%ADD47RoundRect,0.250000X-0.309150X0.478985X-0.540345X-0.181734X0.309150X-0.478985X0.540345X0.181734X0*%
%ADD48RoundRect,0.250000X-0.006929X0.570046X-0.554211X0.133603X0.006929X-0.570046X0.554211X-0.133603X0*%
%ADD49RoundRect,0.250000X0.133603X-0.554211X0.570046X-0.006929X-0.133603X0.554211X-0.570046X0.006929X0*%
%ADD50RoundRect,0.250000X-0.360835X0.441359X-0.516600X-0.241090X0.360835X-0.441359X0.516600X0.241090X0*%
%ADD51RoundRect,0.250000X-0.181734X-0.540345X0.478985X-0.309150X0.181734X0.540345X-0.478985X0.309150X0*%
%ADD52FreePoly0,4.000000*%
%ADD53RoundRect,0.250000X0.253577X-0.510587X0.557295X0.120091X-0.253577X0.510587X-0.557295X-0.120091X0*%
%ADD54RoundRect,0.250000X-0.486358X0.297415X-0.407983X-0.398183X0.486358X-0.297415X0.407983X0.398183X0*%
%ADD55RoundRect,0.250000X0.006929X-0.570046X0.554211X-0.133603X-0.006929X0.570046X-0.554211X0.133603X0*%
%ADD56RoundRect,0.250000X0.554211X0.133603X0.006929X0.570046X-0.554211X-0.133603X-0.006929X-0.570046X0*%
%ADD57RoundRect,0.250000X-0.510587X-0.253577X0.120091X-0.557295X0.510587X0.253577X-0.120091X0.557295X0*%
%ADD58RoundRect,0.250000X-0.350000X-0.450000X0.350000X-0.450000X0.350000X0.450000X-0.350000X0.450000X0*%
%ADD59RoundRect,0.250000X-0.253577X0.510587X-0.557295X-0.120091X0.253577X-0.510587X0.557295X0.120091X0*%
%ADD60RoundRect,0.250000X-0.565685X-0.070711X-0.070711X-0.565685X0.565685X0.070711X0.070711X0.565685X0*%
G04 APERTURE END LIST*
D10*
%TO.C,R94*%
X94144244Y-68305586D03*
X94589286Y-70255442D03*
%TD*%
D11*
%TO.C,R57*%
X80120330Y-116983670D03*
X81534544Y-115569456D03*
%TD*%
D12*
%TO.C,R52*%
X72369586Y-102959756D03*
X74319442Y-102514714D03*
%TD*%
D13*
%TO.C,R104*%
X72369586Y-90080244D03*
X74319442Y-90525286D03*
%TD*%
D14*
%TO.C,R92*%
X100584000Y-67580000D03*
X100584000Y-69580000D03*
%TD*%
D15*
%TO.C,R69*%
X115981008Y-121024198D03*
X114916944Y-119330750D03*
%TD*%
D16*
%TO.C,R55*%
X76079802Y-111917008D03*
X77773250Y-110852944D03*
%TD*%
D17*
%TO.C,R100*%
X77957797Y-78476205D03*
X79521459Y-79723185D03*
%TD*%
D18*
%TO.C,R76*%
X128798414Y-102959756D03*
X126848558Y-102514714D03*
%TD*%
D19*
%TO.C,R105*%
X71825969Y-93279749D03*
X73813393Y-93503677D03*
%TD*%
D20*
%TO.C,R101*%
X76079802Y-81122992D03*
X77773250Y-82187056D03*
%TD*%
D21*
%TO.C,R51*%
X71825969Y-99760251D03*
X73813393Y-99536323D03*
%TD*%
D22*
%TO.C,*%
X92592597Y-122807411D03*
%TD*%
D23*
%TO.C,R80*%
X128798414Y-90080244D03*
X126848558Y-90525286D03*
%TD*%
D24*
%TO.C,R54*%
X74509961Y-109076596D03*
X76311899Y-108208828D03*
%TD*%
D25*
%TO.C,R78*%
X129524000Y-96520000D03*
X127524000Y-96520000D03*
%TD*%
D26*
%TO.C,R79*%
X129342031Y-93279749D03*
X127354607Y-93503677D03*
%TD*%
D27*
%TO.C,R98*%
X82540205Y-73893797D03*
X83787185Y-75457459D03*
%TD*%
D28*
%TO.C,R74*%
X126658039Y-109076596D03*
X124856101Y-108208828D03*
%TD*%
D29*
%TO.C,R77*%
X129342031Y-99760251D03*
X127354607Y-99536323D03*
%TD*%
D30*
%TO.C,R59*%
X85186992Y-121024198D03*
X86251056Y-119330750D03*
%TD*%
D31*
%TO.C,R73*%
X125088198Y-111917008D03*
X123394750Y-110852944D03*
%TD*%
D32*
%TO.C,R68*%
X113140596Y-122594039D03*
X112272828Y-120792101D03*
%TD*%
D33*
%TO.C,R75*%
X127899983Y-106078276D03*
X126012217Y-105417718D03*
%TD*%
D34*
%TO.C,R97*%
X85186992Y-72015802D03*
X86251056Y-73709250D03*
%TD*%
D35*
%TO.C,R70*%
X118627795Y-119146203D03*
X117380815Y-117582541D03*
%TD*%
D36*
%TO.C,R103*%
X73268017Y-86961724D03*
X75155783Y-87622282D03*
%TD*%
D37*
%TO.C,R87*%
X115981008Y-72015802D03*
X114916944Y-73709250D03*
%TD*%
D38*
%TO.C,R91*%
X103824251Y-67761969D03*
X103600323Y-69749393D03*
%TD*%
D39*
%TO.C,R86*%
X118627795Y-73893797D03*
X117380815Y-75457459D03*
%TD*%
D40*
%TO.C,R71*%
X121047670Y-116983670D03*
X119633456Y-115569456D03*
%TD*%
D41*
%TO.C,R95*%
X91025724Y-69204017D03*
X91686282Y-71091783D03*
%TD*%
D42*
%TO.C,R82*%
X126658039Y-83963404D03*
X124856101Y-84831172D03*
%TD*%
D43*
%TO.C,R81*%
X127899983Y-86961724D03*
X126012217Y-87622282D03*
%TD*%
D44*
%TO.C,R85*%
X121047670Y-76056330D03*
X119633456Y-77470544D03*
%TD*%
D45*
%TO.C,R96*%
X88027404Y-70445961D03*
X88895172Y-72247899D03*
%TD*%
D46*
%TO.C,R83*%
X125088198Y-81122992D03*
X123394750Y-82187056D03*
%TD*%
D47*
%TO.C,R89*%
X110142276Y-69204017D03*
X109481718Y-71091783D03*
%TD*%
D48*
%TO.C,R84*%
X123210203Y-78476205D03*
X121646541Y-79723185D03*
%TD*%
D49*
%TO.C,R58*%
X82540205Y-119146203D03*
X83787185Y-117582541D03*
%TD*%
D50*
%TO.C,R90*%
X107023756Y-68305586D03*
X106578714Y-70255442D03*
%TD*%
D51*
%TO.C,R53*%
X73268017Y-106078276D03*
X75155783Y-105417718D03*
%TD*%
D52*
%TO.C,REF\u002A\u002A*%
X107553168Y-123085059D03*
%TD*%
D53*
%TO.C,R60*%
X88027404Y-122594039D03*
X88895172Y-120792101D03*
%TD*%
D54*
%TO.C,R93*%
X97343749Y-67761969D03*
X97567677Y-69749393D03*
%TD*%
D55*
%TO.C,R56*%
X77957797Y-114563795D03*
X79521459Y-113316815D03*
%TD*%
D56*
%TO.C,R72*%
X123210203Y-114563795D03*
X121646541Y-113316815D03*
%TD*%
D57*
%TO.C,R102*%
X74509961Y-83963404D03*
X76311899Y-84831172D03*
%TD*%
D58*
%TO.C,R1*%
X71644000Y-96520000D03*
X73644000Y-96520000D03*
%TD*%
D59*
%TO.C,R88*%
X113140596Y-70445961D03*
X112272828Y-72247899D03*
%TD*%
D60*
%TO.C,R99*%
X80120330Y-76056330D03*
X81534544Y-77470544D03*
%TD*%
M02*
