M48
; DRILL file {KiCad 7.0.8} date 2024 February 03, Saturday 20:16:40
; FORMAT={-:-/ absolute / metric / decimal}
; #@! TF.CreationDate,2024-02-03T20:16:40-05:00
; #@! TF.GenerationSoftware,Kicad,Pcbnew,7.0.8
; #@! TF.FileFunction,Plated,1,2,PTH
FMAT,2
METRIC
; #@! TA.AperFunction,Plated,PTH,ViaDrill
T1C0.300
%
G90
G05
T1
X74.4Y-96.56
X74.56Y-93.628
X74.569Y-99.491
X75.048Y-90.733
X75.065Y-102.385
X75.856Y-87.91
X75.883Y-105.206
X76.976Y-85.195
X77.01Y-107.917
X78.392Y-82.623
X78.435Y-110.485
X80.088Y-80.226
X80.137Y-112.877
X82.041Y-78.033
X82.097Y-115.063
X84.227Y-76.073
X84.29Y-117.016
X86.619Y-74.371
X86.687Y-118.712
X89.187Y-72.946
X89.21Y-123.78
X89.259Y-120.128
X90.42Y-120.89
X91.898Y-71.819
X94.719Y-71.001
X95.99Y-125.72
X97.613Y-70.505
X100.544Y-70.336
X103.476Y-70.496
X106.371Y-70.984
X109.194Y-71.792
X111.909Y-72.912
X111.981Y-120.094
X114.481Y-74.328
X114.549Y-118.669
X116.878Y-76.024
X116.941Y-116.967
X119.071Y-77.977
X119.127Y-115.007
X121.031Y-80.163
X121.08Y-112.814
X122.733Y-82.555
X122.776Y-110.417
X124.158Y-85.123
X124.192Y-107.845
X125.285Y-87.834
X125.312Y-105.13
X126.103Y-90.655
X126.12Y-102.307
X126.599Y-93.549
X126.608Y-99.412
X126.768Y-96.48
T0
M30
